<svg width="363.92795833334px" height="364px"
  xmlns="http://www.w3.org/2000/svg" xmlns:xlink="http://www.w3.org/1999/xlink">
<g id="graph0" class="graph" transform="scale(0.62992095833334 0.62992095833334) rotate(0) translate(4 573.851)">

<polygon id='svgscreen' style="opacity:0;" fill="#ffffff" stroke="#ffffff" points="-4,5 -4,-573.851 574.735,-573.851 574.735,5 -4,5"/>
<g id="4387_3716" class="edge">
<path fill="none" stroke="#999999" stroke-width="5" d="M433.143,-433.059C401.455,-401.258 362.32,-361.983 332.367,-331.923"/>
<polygon fill="#999999" stroke="#999999" points="341.553,-322.547 311.08,-310.56 322.958,-341.075 341.553,-322.547"/>
</g>
<g id="4387_38226" class="edge">
<path fill="none" stroke="#999999" stroke-width="40" d="M139.621,-139.448C171.127,-170.86 209.648,-209.266 239.254,-238.784"/>
<polygon fill="#999999" stroke="#999999" points="165.402,-313.424 260.782,-260.248 313.673,-164.709 165.402,-313.424"/>
</g>
<g id="4387" class="node">
<polygon fill="#ffffff" stroke="#cc3333" stroke-width="10" points="310.931,-310.821 260.931,-310.821 260.931,-259.821 310.931,-259.821 310.931,-310.821"/>
<image xlink:href="can_images/unknownCandidate.jpg" width="50px" height="50px" preserveAspectRatio="xMinYMin meet" x="260.931" y="-310.321"/>
<polygon fill="none" stroke="#cc3333" stroke-width="10" points="310.931,-310.821 260.931,-310.821 260.931,-259.821 310.931,-259.821 310.931,-310.821"/>
<text text-anchor="middle" x="285.931" y="-281.321" font-family="Times Roman,serif" font-size="15.00">Rick Keene</text>
</g>
<g id="3716" class="node">
<ellipse fill="#ffffff" stroke="cadetblue" stroke-width="10" cx="489.235" cy="-489.351" rx="79" ry="79.5"/>
<image xlink:href="com_images/c109.png" width="158px" height="158px" preserveAspectRatio="xMinYMin meet" x="410.235" y="-568.351"/>
<ellipse fill="none" stroke="cadetblue" stroke-width="10" cx="489.235" cy="-489.351" rx="79" ry="79.5"/>
<text text-anchor="start" x="583.235" y="-485.351" font-family="Times Roman,serif" font-size="15.00">Occidental Petroleum</text>
</g>
<g id="38226" class="node">
<ellipse fill="#ffffff" stroke="cadetblue" stroke-width="10" cx="82" cy="-82" rx="81" ry="81"/>
<image xlink:href="com_images/cunknown_oil_co.png" width="162px" height="162px" preserveAspectRatio="xMinYMin meet" x="1" y="-163"/>
<ellipse fill="none" stroke="cadetblue" stroke-width="10" cx="82" cy="-82" rx="81" ry="81"/>
<text text-anchor="start" x="178" y="-78" font-family="Times Roman,serif" font-size="15.00">NORTHGATE PETROLEUM CO</text>
</g>
</g>
</svg>
