<svg width="215.96175px" height="216px"
  xmlns="http://www.w3.org/2000/svg" xmlns:xlink="http://www.w3.org/1999/xlink">
<g id="graph0" class="graph" transform="scale(0.37380375 0.37380375) rotate(0) translate(4 573.845)">

<polygon id='svgscreen' style="opacity:0;" fill="#ffffff" stroke="#ffffff" points="-4,5 -4,-573.845 574.741,-573.845 574.741,5 -4,5"/>
<g id="4387_3716" class="edge">
<path fill="none" stroke="#999999" stroke-width="5" d="M136.756,-433.239C168.537,-401.542 207.787,-362.397 237.828,-332.436"/>
<polygon fill="#999999" stroke="#999999" points="247.204,-341.622 259.177,-311.144 228.668,-323.036 247.204,-341.622"/>
</g>
<g id="4387_38226" class="edge">
<path fill="none" stroke="#999999" stroke-width="40" d="M430.287,-139.637C398.872,-171.152 360.463,-209.684 330.942,-239.298"/>
<polygon fill="#999999" stroke="#999999" points="256.291,-165.458 309.476,-260.833 405.02,-313.714 256.291,-165.458"/>
</g>
<g id="4387" class="node">
<polygon fill="#ffffff" stroke="#cc3333" stroke-width="10" points="309.4,-311.488 259.4,-311.488 259.4,-260.488 309.4,-260.488 309.4,-311.488"/>
<image xlink:href="can_images/unknownCandidate.jpg" width="50px" height="50px" preserveAspectRatio="xMinYMin meet" x="259.4" y="-310.988"/>
<polygon fill="none" stroke="#cc3333" stroke-width="10" points="309.4,-311.488 259.4,-311.488 259.4,-260.488 309.4,-260.488 309.4,-311.488"/>
<text text-anchor="middle" x="284.4" y="-281.988" font-family="Times Roman,serif" font-size="15.00">Rick Keene</text>
</g>
<g id="3716" class="node">
<ellipse fill="#ffffff" stroke="cadetblue" stroke-width="10" cx="80.5" cy="-489.345" rx="79" ry="79.5"/>
<image xlink:href="com_images/c109.png" width="158px" height="158px" preserveAspectRatio="xMinYMin meet" x="1.5" y="-568.345"/>
<ellipse fill="none" stroke="cadetblue" stroke-width="10" cx="80.5" cy="-489.345" rx="79" ry="79.5"/>
<text text-anchor="start" x="174.5" y="-485.345" font-family="Times Roman,serif" font-size="15.00">Occidental Petroleum</text>
</g>
<g id="38226" class="node">
<ellipse fill="#ffffff" stroke="cadetblue" stroke-width="10" cx="487.741" cy="-82" rx="81" ry="81"/>
<image xlink:href="com_images/cunknown_oil_co.png" width="162px" height="162px" preserveAspectRatio="xMinYMin meet" x="406.741" y="-163"/>
<ellipse fill="none" stroke="cadetblue" stroke-width="10" cx="487.741" cy="-82" rx="81" ry="81"/>
<text text-anchor="start" x="583.741" y="-78" font-family="Times Roman,serif" font-size="15.00">NORTHGATE PETROLEUM CO</text>
</g>
</g>
</svg>
