<svg width="1015px" height="876.11416666669px"
  xmlns="http://www.w3.org/2000/svg" xmlns:xlink="http://www.w3.org/1999/xlink">
<g id="graph0" class="graph" transform="scale(0.46771094270835 0.46771094270835) rotate(0) translate(4 1869.2)">

<polygon id='svgscreen' style="opacity:0;" fill="#ffffff" stroke="#ffffff" points="-4,5 -4,-1869.2 2167.14,-1869.2 2167.14,5 -4,5"/>
<g id="8432_39502" class="edge">
<path fill="none" stroke="#999999" stroke-width="5" d="M1613.88,-1457.88C1582.23,-1426.23 1520.24,-1364.24 1477.14,-1321.14"/>
<polygon fill="#999999" stroke="#999999" points="1486.23,-1311.67 1455.74,-1299.74 1467.67,-1330.23 1486.23,-1311.67"/>
</g>
<g id="4162_29758" class="edge">
<path fill="none" stroke="#999999" stroke-width="5" d="M1892.48,-269.772C1936.49,-249.175 2025.79,-207.381 2083.06,-180.578"/>
<polygon fill="#999999" stroke="#999999" points="2088.78,-192.393 2110.39,-167.789 2077.65,-168.618 2088.78,-192.393"/>
</g>
<g id="3179_29758" class="edge">
<path fill="none" stroke="#999999" stroke-width="5.22581" d="M1839.33,-293.566C1793.73,-313.066 1700.2,-353.071 1639.81,-378.897"/>
<polygon fill="#999999" stroke="#999999" points="1634.25,-366.356 1612.06,-390.766 1645.04,-391.581 1634.25,-366.356"/>
</g>
<g id="4148_39351" class="edge">
<path fill="none" stroke="#999999" stroke-width="6.58065" d="M1403.02,-936.23C1346.06,-921.76 1219.01,-889.486 1143.22,-870.234"/>
<polygon fill="#999999" stroke="#999999" points="1147.34,-853.456 1114.01,-862.812 1138.83,-886.941 1147.34,-853.456"/>
</g>
<g id="8801_39353" class="edge">
<path fill="none" stroke="#999999" stroke-width="6.58065" d="M677.328,-1334.74C656.543,-1290.05 614.679,-1200.04 584.406,-1134.95"/>
<polygon fill="#999999" stroke="#999999" points="599.946,-1127.41 571.631,-1107.49 568.62,-1141.97 599.946,-1127.41"/>
</g>
<g id="9873_39383" class="edge">
<path fill="none" stroke="#999999" stroke-width="5.67742" d="M148.614,-906.977C181.107,-858.51 253.405,-750.672 301.046,-679.61"/>
<polygon fill="#999999" stroke="#999999" points="313.637,-687.593 317.964,-654.376 288.879,-670.995 313.637,-687.593"/>
</g>
<g id="8801_39383" class="edge">
<path fill="none" stroke="#999999" stroke-width="5.67742" d="M160.765,-940.926C224.425,-960.256 378.159,-1006.94 471.946,-1035.41"/>
<polygon fill="#999999" stroke="#999999" points="467.917,-1049.76 500.953,-1044.22 476.577,-1021.24 467.917,-1049.76"/>
</g>
<g id="8801_30533" class="edge">
<path fill="none" stroke="#999999" stroke-width="5.67742" d="M271.307,-1099.37C317.417,-1092.64 406.05,-1079.69 470.817,-1070.23"/>
<polygon fill="#999999" stroke="#999999" points="473.311,-1084.92 500.842,-1065.84 469.003,-1055.43 473.311,-1084.92"/>
</g>
<g id="4152_30533" class="edge">
<path fill="none" stroke="#999999" stroke-width="7.93548" d="M253.533,-1075.18C278.592,-1019.57 334.736,-894.985 373.594,-808.755"/>
<polygon fill="#999999" stroke="#999999" points="392.706,-817.047 386.04,-781.138 354.723,-799.931 392.706,-817.047"/>
</g>
<g id="4170_30934" class="edge">
<path fill="none" stroke="#999999" stroke-width="9.29032" d="M996.337,-63.975C992.917,-120.858 985.645,-241.799 981.15,-316.55"/>
<polygon fill="#999999" stroke="#999999" points="956.803,-315.161 979.345,-346.571 1005.49,-318.089 956.803,-315.161"/>
</g>
<g id="4169_1677" class="edge">
<path fill="none" stroke="#999999" stroke-width="7.41613" d="M940.685,-1056.88C948.31,-1007.77 963.169,-912.06 973.643,-844.594"/>
<polygon fill="#999999" stroke="#999999" points="992.947,-847.148 978.312,-814.517 954.473,-841.175 992.947,-847.148"/>
</g>
<g id="8801_1677" class="edge">
<path fill="none" stroke="#999999" stroke-width="7.03226" d="M903.771,-1086.19C843.591,-1081.55 711.936,-1071.39 627.029,-1064.83"/>
<polygon fill="#999999" stroke="#999999" points="628.354,-1046.42 597.023,-1062.51 625.513,-1083.23 628.354,-1046.42"/>
</g>
<g id="4153_39350" class="edge">
<path fill="none" stroke="#999999" stroke-width="9.29032" d="M102.622,-727.373C160.606,-760.464 287.733,-833.016 371.538,-880.844"/>
<polygon fill="#999999" stroke="#999999" points="359.465,-902.033 397.609,-895.722 383.641,-859.672 359.465,-902.033"/>
</g>
<g id="4152_39350" class="edge">
<path fill="none" stroke="#999999" stroke-width="11.5484" d="M106.901,-710.662C156.851,-711.876 250.295,-714.147 321.123,-715.868"/>
<polygon fill="#999999" stroke="#999999" points="320.623,-746.179 351.351,-716.602 322.096,-685.568 320.623,-746.179"/>
</g>
<g id="8692_39405" class="edge">
<path fill="none" stroke="#999999" stroke-width="5.67742" d="M671.701,-782.159C699.705,-740.91 750.705,-665.786 787.462,-611.643"/>
<polygon fill="#999999" stroke="#999999" points="799.926,-619.817 804.446,-586.625 775.266,-603.075 799.926,-619.817"/>
</g>
<g id="9873_39405" class="edge">
<path fill="none" stroke="#999999" stroke-width="6.12903" d="M620.931,-792.305C572.949,-760.721 478.362,-698.46 413.803,-655.965"/>
<polygon fill="#999999" stroke="#999999" points="422.517,-642.44 388.613,-639.384 404.825,-669.317 422.517,-642.44"/>
</g>
<g id="8804_39405" class="edge">
<path fill="none" stroke="#999999" stroke-width="6.58065" d="M638.653,-846.722C630.399,-869.278 619.3,-899.608 609.152,-927.343"/>
<polygon fill="#999999" stroke="#999999" points="592.779,-921.819 598.691,-955.928 625.223,-933.691 592.779,-921.819"/>
</g>
<g id="4169_39405" class="edge">
<path fill="none" stroke="#999999" stroke-width="6.58065" d="M687.011,-807.679C740.021,-800.872 840.69,-787.947 910.327,-779.006"/>
<polygon fill="#999999" stroke="#999999" points="912.755,-796.11 940.311,-775.156 908.355,-761.843 912.755,-796.11"/>
</g>
<g id="8801_39405" class="edge">
<path fill="none" stroke="#999999" stroke-width="5.22581" d="M637.254,-846.032C622.77,-880.949 599.662,-936.653 580.723,-982.308"/>
<polygon fill="#999999" stroke="#999999" points="567.98,-977.226 569.155,-1010.19 593.321,-987.739 567.98,-977.226"/>
</g>
<g id="4147_39405" class="edge">
<path fill="none" stroke="#999999" stroke-width="5.22581" d="M657.978,-848.301C664.16,-881.46 673.541,-931.781 681.454,-974.225"/>
<polygon fill="#999999" stroke="#999999" points="667.969,-976.74 686.952,-1003.72 694.94,-971.711 667.969,-976.74"/>
</g>
<g id="4153_39405" class="edge">
<path fill="none" stroke="#999999" stroke-width="6.58065" d="M619.658,-830.395C596.245,-843.824 563.236,-862.757 532.679,-880.283"/>
<polygon fill="#999999" stroke="#999999" points="523.637,-865.556 506.208,-895.466 540.826,-895.524 523.637,-865.556"/>
</g>
<g id="4152_39405" class="edge">
<path fill="none" stroke="#999999" stroke-width="9.29032" d="M617.58,-798.882C588.467,-787.31 545.003,-770.034 505.74,-754.428"/>
<polygon fill="#999999" stroke="#999999" points="514.718,-731.754 477.831,-743.335 496.702,-777.079 514.718,-731.754"/>
</g>
<g id="9873_951" class="edge">
<path fill="none" stroke="#999999" stroke-width="8.83871" d="M227.637,-807.833C247.571,-774.962 279.368,-722.527 305.071,-680.142"/>
<polygon fill="#999999" stroke="#999999" points="324.986,-692.047 320.703,-654.364 285.308,-667.986 324.986,-692.047"/>
</g>
<g id="8801_951" class="edge">
<path fill="none" stroke="#999999" stroke-width="5.67742" d="M239.555,-859.551C292.641,-893.734 402.062,-964.195 475.507,-1011.49"/>
<polygon fill="#999999" stroke="#999999" points="467.476,-1024.04 500.768,-1027.75 483.613,-998.983 467.476,-1024.04"/>
</g>
<g id="4153_951" class="edge">
<path fill="none" stroke="#999999" stroke-width="9.74194" d="M243.301,-851.995C276.089,-863.735 326.42,-881.758 369.42,-897.155"/>
<polygon fill="#999999" stroke="#999999" points="360.847,-921.248 397.712,-907.286 378.089,-873.097 360.847,-921.248"/>
</g>
<g id="4152_951" class="edge">
<path fill="none" stroke="#999999" stroke-width="8.3871" d="M240.617,-820.543C263.461,-807.085 295.31,-788.319 325.514,-770.524"/>
<polygon fill="#999999" stroke="#999999" points="336.693,-789.491 351.364,-755.293 314.341,-751.553 336.693,-789.491"/>
</g>
<g id="3178_2248" class="edge">
<path fill="none" stroke="#999999" stroke-width="7.03226" d="M68.9876,-1802.46C111.162,-1769.08 188.597,-1707.78 240.137,-1666.98"/>
<polygon fill="#999999" stroke="#999999" points="251.683,-1681.38 263.747,-1648.29 228.768,-1652.43 251.683,-1681.38"/>
</g>
<g id="4158_2248" class="edge">
<path fill="none" stroke="#999999" stroke-width="18.3226" d="M54.4423,-1791.44C75.6327,-1743.75 114.08,-1657.21 140.333,-1598.12"/>
<polygon fill="#999999" stroke="#999999" points="184.397,-1617.4 152.624,-1570.46 96.489,-1578.35 184.397,-1617.4"/>
</g>
<g id="3179_2841" class="edge">
<path fill="none" stroke="#999999" stroke-width="9.29032" d="M1314.94,-508.945C1367.61,-488.159 1465.37,-449.584 1527.36,-425.126"/>
<polygon fill="#999999" stroke="#999999" points="1536.37,-447.788 1555.32,-414.091 1518.47,-402.418 1536.37,-447.788"/>
</g>
<g id="4170_2841" class="edge">
<path fill="none" stroke="#999999" stroke-width="13.8065" d="M1242.99,-506.523C1192.62,-482.587 1099.62,-438.387 1038.11,-409.153"/>
<polygon fill="#999999" stroke="#999999" points="1053.42,-376.303 1010.77,-396.158 1022.3,-441.769 1053.42,-376.303"/>
</g>
<g id="4169_2841" class="edge">
<path fill="none" stroke="#999999" stroke-width="9.29032" d="M1248.42,-548.531C1202.89,-586.749 1115.12,-660.425 1053.51,-712.136"/>
<polygon fill="#999999" stroke="#999999" points="1037.82,-693.467 1030.52,-731.434 1069.18,-730.825 1037.82,-693.467"/>
</g>
<g id="9873_31946" class="edge">
<path fill="none" stroke="#999999" stroke-width="17.4194" d="M290.307,-914.772C300.956,-857.411 320.119,-754.187 333.088,-684.327"/>
<polygon fill="#999999" stroke="#999999" points="378.124,-692.253 338.642,-654.411 288.208,-675.56 378.124,-692.253"/>
</g>
<g id="8804_31946" class="edge">
<path fill="none" stroke="#999999" stroke-width="7.93548" d="M325.12,-963.24C372.657,-970.049 450.391,-981.183 508.016,-989.437"/>
<polygon fill="#999999" stroke="#999999" points="505.39,-1010.1 538.04,-993.738 511.297,-968.864 505.39,-1010.1"/>
</g>
<g id="8801_31946" class="edge">
<path fill="none" stroke="#999999" stroke-width="6.58065" d="M322.637,-972.46C362.234,-987.565 423.725,-1011.02 472.628,-1029.68"/>
<polygon fill="#999999" stroke="#999999" points="466.596,-1045.86 500.783,-1040.42 478.91,-1013.58 466.596,-1045.86"/>
</g>
<g id="4152_31946" class="edge">
<path fill="none" stroke="#999999" stroke-width="12.9032" d="M303.358,-919.258C319.874,-889.352 343.606,-846.381 364.896,-807.829"/>
<polygon fill="#999999" stroke="#999999" points="394.624,-824.063 379.477,-781.427 335.324,-791.314 394.624,-824.063"/>
</g>
<g id="4148_39359" class="edge">
<path fill="none" stroke="#999999" stroke-width="9.29032" d="M964.088,-1127.34C987.634,-1073.36 1029.84,-976.603 1057.09,-914.119"/>
<polygon fill="#999999" stroke="#999999" points="1079.48,-923.784 1069.12,-886.536 1034.78,-904.283 1079.48,-923.784"/>
</g>
<g id="4143_39359" class="edge">
<path fill="none" stroke="#999999" stroke-width="13.8065" d="M932.685,-1208.55C914.191,-1263.13 881.488,-1359.64 860.161,-1422.57"/>
<polygon fill="#999999" stroke="#999999" points="825.752,-1411.19 850.449,-1451.23 894.402,-1434.45 825.752,-1411.19"/>
</g>
<g id="4169_39359" class="edge">
<path fill="none" stroke="#999999" stroke-width="9.29032" d="M950.904,-1123.87C957.411,-1056.85 970.001,-927.168 978.016,-844.611"/>
<polygon fill="#999999" stroke="#999999" points="1002.32,-846.698 980.941,-814.482 953.769,-841.985 1002.32,-846.698"/>
</g>
<g id="8801_39359" class="edge">
<path fill="none" stroke="#999999" stroke-width="13.8065" d="M904.887,-1155.81C838.852,-1137.81 709.383,-1102.52 626.142,-1079.84"/>
<polygon fill="#999999" stroke="#999999" points="635.466,-1044.81 596.991,-1071.89 616.405,-1114.75 635.466,-1044.81"/>
</g>
<g id="8806_5460" class="edge">
<path fill="none" stroke="#999999" stroke-width="8.3871" d="M400.405,-1340.89C328.432,-1349.86 206.252,-1365.09 134.66,-1374.01"/>
<polygon fill="#999999" stroke="#999999" points="131.899,-1352.17 104.852,-1377.72 137.344,-1395.86 131.899,-1352.17"/>
</g>
<g id="9874_5460" class="edge">
<path fill="none" stroke="#999999" stroke-width="8.3871" d="M486.171,-1385.38C519.019,-1446.07 573.249,-1546.27 606.665,-1608.02"/>
<polygon fill="#999999" stroke="#999999" points="587.369,-1618.62 621.01,-1634.52 626.093,-1597.66 587.369,-1618.62"/>
</g>
<g id="2251_5460" class="edge">
<path fill="none" stroke="#999999" stroke-width="9.29032" d="M462.763,-1392.36C467.328,-1451.04 474.309,-1540.74 478.866,-1599.31"/>
<polygon fill="#999999" stroke="#999999" points="454.563,-1601.34 481.204,-1629.36 503.19,-1597.55 454.563,-1601.34"/>
</g>
<g id="3178_5460" class="edge">
<path fill="none" stroke="#999999" stroke-width="8.3871" d="M429.206,-1384.63C399.512,-1436.8 353.502,-1517.64 323.011,-1571.21"/>
<polygon fill="#999999" stroke="#999999" points="303.771,-1560.5 308.066,-1597.47 342.039,-1582.28 303.771,-1560.5"/>
</g>
<g id="4143_5460" class="edge">
<path fill="none" stroke="#999999" stroke-width="8.3871" d="M512.426,-1354.99C582.953,-1382.7 705.782,-1430.95 779.185,-1459.79"/>
<polygon fill="#999999" stroke="#999999" points="771.348,-1480.36 807.32,-1470.84 787.447,-1439.38 771.348,-1480.36"/>
</g>
<g id="4158_5460" class="edge">
<path fill="none" stroke="#999999" stroke-width="8.3871" d="M410.291,-1367.04C360.062,-1402.01 281.07,-1457 227.046,-1494.62"/>
<polygon fill="#999999" stroke="#999999" points="214.455,-1476.55 202.413,-1511.76 239.613,-1512.69 214.455,-1476.55"/>
</g>
<g id="8804_5460" class="edge">
<path fill="none" stroke="#999999" stroke-width="8.3871" d="M478.727,-1278.61C499.691,-1222.36 532.346,-1134.74 555.422,-1072.83"/>
<polygon fill="#999999" stroke="#999999" points="576.194,-1080.13 566.042,-1044.33 534.935,-1064.76 576.194,-1080.13"/>
</g>
<g id="8801_5460" class="edge">
<path fill="none" stroke="#999999" stroke-width="8.3871" d="M476.57,-1278.06C490.065,-1237.21 508.568,-1181.19 523.494,-1136"/>
<polygon fill="#999999" stroke="#999999" points="544.419,-1142.84 532.922,-1107.45 502.608,-1129.03 544.419,-1142.84"/>
</g>
<g id="4147_5460" class="edge">
<path fill="none" stroke="#999999" stroke-width="22.8387" d="M495.899,-1289.21C533.116,-1245.29 590.658,-1177.4 634.523,-1125.64"/>
<polygon fill="#999999" stroke="#999999" points="680.539,-1164.07 654.199,-1102.42 589.067,-1086.55 680.539,-1164.07"/>
</g>
<g id="4153_5460" class="edge">
<path fill="none" stroke="#999999" stroke-width="22.8387" d="M457.277,-1274.94C456.192,-1205.69 454.38,-1090.07 453.145,-1011.2"/>
<polygon fill="#999999" stroke="#999999" points="513.088,-1010.22 452.674,-981.162 393.2,-1012.1 513.088,-1010.22"/>
</g>
<g id="4154_39514" class="edge">
<path fill="none" stroke="#999999" stroke-width="9.29032" d="M607.792,-646.878C590.033,-593.255 564.672,-516.675 547.084,-463.569"/>
<polygon fill="#999999" stroke="#999999" points="570.209,-455.824 537.626,-435.012 523.907,-471.158 570.209,-455.824"/>
</g>
<g id="8468_39514" class="edge">
<path fill="none" stroke="#999999" stroke-width="9.29032" d="M691.087,-688.194C744.329,-669.742 820.637,-643.297 874.885,-624.497"/>
<polygon fill="#999999" stroke="#999999" points="883.208,-647.422 903.569,-614.556 867.237,-601.337 883.208,-647.422"/>
</g>
<g id="8692_39514" class="edge">
<path fill="none" stroke="#999999" stroke-width="11.5484" d="M680.223,-668.462C706.983,-646.998 739.892,-620.603 768.128,-597.955"/>
<polygon fill="#999999" stroke="#999999" points="787.515,-621.266 791.95,-578.848 749.58,-573.971 787.515,-621.266"/>
</g>
<g id="9873_39514" class="edge">
<path fill="none" stroke="#999999" stroke-width="20.5806" d="M566.041,-688.058C522.048,-672.754 463.127,-652.256 417.411,-636.353"/>
<polygon fill="#999999" stroke="#999999" points="434.979,-585.265 388.894,-626.433 399.478,-687.315 434.979,-585.265"/>
</g>
<g id="8804_39514" class="edge">
<path fill="none" stroke="#999999" stroke-width="9.29032" d="M618.235,-775.34C611.112,-820.174 601.656,-879.692 594.264,-926.219"/>
<polygon fill="#999999" stroke="#999999" points="570.152,-922.559 589.53,-956.014 618.322,-930.213 570.152,-922.559"/>
</g>
<g id="4169_39514" class="edge">
<path fill="none" stroke="#999999" stroke-width="13.8065" d="M694.062,-720.756C755.139,-730.952 846.232,-746.158 910.245,-756.844"/>
<polygon fill="#999999" stroke="#999999" points="904.538,-792.635 940.096,-761.827 916.473,-721.14 904.538,-792.635"/>
</g>
<g id="4147_39514" class="edge">
<path fill="none" stroke="#999999" stroke-width="13.8065" d="M641.415,-774.775C652.552,-831.392 668.736,-913.675 680.615,-974.066"/>
<polygon fill="#999999" stroke="#999999" points="645.116,-981.373 686.466,-1003.81 716.237,-967.383 645.116,-981.373"/>
</g>
<g id="4153_39514" class="edge">
<path fill="none" stroke="#999999" stroke-width="20.129" d="M586.738,-761.22C565.515,-787.244 539.293,-819.398 515.627,-848.418"/>
<polygon fill="#999999" stroke="#999999" points="474.526,-815.212 496.515,-871.855 556.423,-881.999 474.526,-815.212"/>
</g>
<g id="4152_39514" class="edge">
<path fill="none" stroke="#999999" stroke-width="24.5548" d="M562.624,-712.393C545.298,-713.064 526.282,-713.801 507.819,-714.517"/>
<polygon fill="#999999" stroke="#999999" points="505.146,-650.115 477.665,-715.685 510.138,-778.932 505.146,-650.115"/>
</g>
<g id="4174_671" class="edge">
<path fill="none" stroke="#999999" stroke-width="7.03226" d="M868.798,-949.074C938.727,-1000.06 1049.12,-1080.54 1113.18,-1127.24"/>
<polygon fill="#999999" stroke="#999999" points="1102.43,-1142.25 1137.55,-1145.01 1124.18,-1112.42 1102.43,-1142.25"/>
</g>
<g id="8468_671" class="edge">
<path fill="none" stroke="#999999" stroke-width="22.8387" d="M837.234,-830.24C859.874,-780.321 889.763,-714.417 911.633,-666.196"/>
<polygon fill="#999999" stroke="#999999" points="966.285,-690.842 924.078,-638.758 857.088,-641.317 966.285,-690.842"/>
</g>
<g id="8692_671" class="edge">
<path fill="none" stroke="#999999" stroke-width="13.8065" d="M810.467,-823.089C815.073,-761.213 821.412,-676.052 825.819,-616.847"/>
<polygon fill="#999999" stroke="#999999" points="861.99,-619.152 828.075,-586.545 789.706,-613.771 861.99,-619.152"/>
</g>
<g id="8804_671" class="edge">
<path fill="none" stroke="#999999" stroke-width="22.8387" d="M732.174,-934.158C707.159,-945.182 679.155,-957.524 654.198,-968.522"/>
<polygon fill="#999999" stroke="#999999" points="629.937,-913.699 626.662,-980.658 678.292,-1023.42 629.937,-913.699"/>
</g>
<g id="4169_671" class="edge">
<path fill="none" stroke="#999999" stroke-width="13.8065" d="M868.298,-855.405C883.72,-844.067 900.279,-831.894 915.946,-820.377"/>
<polygon fill="#999999" stroke="#999999" points="937.615,-849.428 940.32,-802.458 894.682,-791.027 937.615,-849.428"/>
</g>
<g id="8801_671" class="edge">
<path fill="none" stroke="#999999" stroke-width="22.8387" d="M737.088,-943.589C701.881,-965.154 658.751,-991.573 622.676,-1013.67"/>
<polygon fill="#999999" stroke="#999999" points="591.27,-962.603 597.003,-1029.4 653.9,-1064.85 591.27,-962.603"/>
</g>
<g id="4147_671" class="edge">
<path fill="none" stroke="#999999" stroke-width="22.8387" d="M758.27,-966.597C755.253,-970.789 752.203,-975.028 749.157,-979.26"/>
<polygon fill="#999999" stroke="#999999" points="700.315,-944.493 731.454,-1003.86 797.639,-1014.53 700.315,-944.493"/>
</g>
<g id="4153_671" class="edge">
<path fill="none" stroke="#999999" stroke-width="22.8387" d="M725.409,-907.729C669.152,-911.622 593.705,-916.843 536.29,-920.816"/>
<polygon fill="#999999" stroke="#999999" points="531.866,-861.027 506.076,-922.907 540.143,-980.644 531.866,-861.027"/>
</g>
<g id="4152_671" class="edge">
<path fill="none" stroke="#999999" stroke-width="30.9677" d="M733.016,-868.481C668.872,-838.211 574.46,-793.656 505.06,-760.905"/>
<polygon fill="#999999" stroke="#999999" points="539.301,-687.176 477.477,-747.888 469.914,-834.207 539.301,-687.176"/>
</g>
<g id="4142_1137" class="edge">
<path fill="none" stroke="#999999" stroke-width="9.29032" d="M694.52,-577.001C703.016,-514.31 714.607,-428.776 722.231,-372.517"/>
<polygon fill="#999999" stroke="#999999" points="746.443,-375.456 726.306,-342.453 698.111,-368.906 746.443,-375.456"/>
</g>
<g id="2237_1137" class="edge">
<path fill="none" stroke="#999999" stroke-width="9.29032" d="M661.872,-579.207C642.304,-508.697 614.004,-406.72 596.462,-343.509"/>
<polygon fill="#999999" stroke="#999999" points="619.894,-336.745 588.373,-314.359 572.896,-349.788 619.894,-336.745"/>
</g>
<g id="4157_1137" class="edge">
<path fill="none" stroke="#999999" stroke-width="13.8065" d="M626.797,-599.297C573.596,-544.763 494.814,-464.008 443.573,-411.484"/>
<polygon fill="#999999" stroke="#999999" points="469.374,-386.031 422.483,-389.865 417.49,-436.647 469.374,-386.031"/>
</g>
<g id="4148_1137" class="edge">
<path fill="none" stroke="#999999" stroke-width="9.29032" d="M756.383,-693.504C833.344,-731.547 953.253,-790.82 1024.35,-825.964"/>
<polygon fill="#999999" stroke="#999999" points="1013.86,-847.984 1051.56,-839.416 1035.48,-804.26 1013.86,-847.984"/>
</g>
<g id="4154_1137" class="edge">
<path fill="none" stroke="#999999" stroke-width="13.8065" d="M641.18,-588.487C616.574,-548.446 585.933,-498.583 562.563,-460.553"/>
<polygon fill="#999999" stroke="#999999" points="593.433,-441.566 546.849,-434.981 531.678,-479.516 593.433,-441.566"/>
</g>
<g id="4170_1137" class="edge">
<path fill="none" stroke="#999999" stroke-width="6.58065" d="M742.691,-601.755C795.16,-552.223 871.239,-480.403 922.406,-432.101"/>
<polygon fill="#999999" stroke="#999999" points="934.362,-444.571 944.319,-411.416 910.646,-419.448 934.362,-444.571"/>
</g>
<g id="8468_1137" class="edge">
<path fill="none" stroke="#999999" stroke-width="5.67742" d="M762.911,-640.296C798.589,-632.542 840.234,-623.492 874.271,-616.095"/>
<polygon fill="#999999" stroke="#999999" points="877.696,-630.602 903.846,-609.668 871.366,-601.475 877.696,-630.602"/>
</g>
<g id="8692_1137" class="edge">
<path fill="none" stroke="#999999" stroke-width="16.0645" d="M748.675,-608.968C754.856,-604.356 761.118,-599.682 767.286,-595.079"/>
<polygon fill="#999999" stroke="#999999" points="792.829,-628.635 791.649,-576.896 742.384,-561.045 792.829,-628.635"/>
</g>
<g id="9873_1137" class="edge">
<path fill="none" stroke="#999999" stroke-width="7.48387" d="M603.307,-646.613C547.254,-638.993 473.068,-628.907 418.861,-621.537"/>
<polygon fill="#999999" stroke="#999999" points="421.161,-602.024 388.788,-617.449 415.868,-640.956 421.161,-602.024"/>
</g>
<g id="8804_1137" class="edge">
<path fill="none" stroke="#999999" stroke-width="15.6129" d="M660.67,-735.267C643.714,-792.732 620.779,-870.463 604.144,-926.84"/>
<polygon fill="#999999" stroke="#999999" points="564.81,-915.327 595.628,-955.699 643.427,-938.524 564.81,-915.327"/>
</g>
<g id="4169_1137" class="edge">
<path fill="none" stroke="#999999" stroke-width="17.871" d="M759.742,-685.754C806.426,-703.06 865.882,-725.101 912.033,-742.209"/>
<polygon fill="#999999" stroke="#999999" points="895.736,-786.198 940.171,-752.64 928.348,-698.226 895.736,-786.198"/>
</g>
<g id="8801_1137" class="edge">
<path fill="none" stroke="#999999" stroke-width="19.6774" d="M657.811,-734.426C633.982,-805.454 598.766,-910.428 574.901,-981.567"/>
<polygon fill="#999999" stroke="#999999" points="525.851,-965.374 565.28,-1010.25 623.793,-998.232 525.851,-965.374"/>
</g>
<g id="4147_1137" class="edge">
<path fill="none" stroke="#999999" stroke-width="16.0645" d="M686.172,-738.503C688.348,-807.202 691.451,-905.197 693.613,-973.467"/>
<polygon fill="#999999" stroke="#999999" points="651.479,-975.233 694.577,-1003.88 735.775,-972.563 651.479,-975.233"/>
</g>
<g id="4153_1137" class="edge">
<path fill="none" stroke="#999999" stroke-width="17.4194" d="M630.721,-718.937C597.471,-757.544 554.28,-807.694 518.666,-849.045"/>
<polygon fill="#999999" stroke="#999999" points="483.903,-819.34 498.973,-871.911 553.198,-879.02 483.903,-819.34"/>
</g>
<g id="4152_1137" class="edge">
<path fill="none" stroke="#999999" stroke-width="40" d="M604.302,-675.386C573.904,-682.23 538.952,-690.099 507.389,-697.206"/>
<polygon fill="#999999" stroke="#999999" points="484.042,-594.834 477.839,-703.859 530.17,-799.705 484.042,-594.834"/>
</g>
<g id="8432" class="node">
<polygon fill="#ffffff" stroke="#3333cc" stroke-width="10" points="1455.5,-1300 1405.5,-1300 1405.5,-1249 1455.5,-1249 1455.5,-1300"/>
<image xlink:href="can_images/unknownCandidate.jpg" width="50px" height="50px" preserveAspectRatio="xMinYMin meet" x="1405.5" y="-1299.5"/>
<polygon fill="none" stroke="#3333cc" stroke-width="10" points="1455.5,-1300 1405.5,-1300 1405.5,-1249 1455.5,-1249 1455.5,-1300"/>
<text text-anchor="middle" x="1430.5" y="-1270.5" font-family="Times Roman,serif" font-size="15.00">Andrea Doll</text>
</g>
<g id="39502" class="node">
<ellipse fill="#ffffff" stroke="cadetblue" stroke-width="10" cx="1634.15" cy="-1478.15" rx="28" ry="28.5"/>
<image xlink:href="com_images/cunknown_oil_co.png" width="56px" height="56px" preserveAspectRatio="xMinYMin meet" x="1606.15" y="-1506.15"/>
<ellipse fill="none" stroke="cadetblue" stroke-width="10" cx="1634.15" cy="-1478.15" rx="28" ry="28.5"/>
<text text-anchor="start" x="1677.15" y="-1474.15" font-family="Times Roman,serif" font-size="15.00">RICH GODFEY</text>
</g>
<g id="4162" class="node">
<polygon fill="#ffffff" stroke="#3333cc" stroke-width="10" points="2160.64,-181.47 2110.64,-181.47 2110.64,-130.47 2160.64,-130.47 2160.64,-181.47"/>
<image xlink:href="can_images/4162.jpg" width="39.6667px" height="51px" preserveAspectRatio="xMinYMin meet" x="2115.81" y="-181.47"/>
<polygon fill="none" stroke="#3333cc" stroke-width="10" points="2160.64,-181.47 2110.64,-181.47 2110.64,-130.47 2160.64,-130.47 2160.64,-181.47"/>
<text text-anchor="middle" x="2135.64" y="-151.97" font-family="Times Roman,serif" font-size="15.00">Scott Kawasaki</text>
</g>
<g id="29758" class="node">
<ellipse fill="#ffffff" stroke="cadetblue" stroke-width="10" cx="1866.15" cy="-282.095" rx="29" ry="29"/>
<image xlink:href="com_images/cunknown_coal_co.png" width="58px" height="58px" preserveAspectRatio="xMinYMin meet" x="1837.15" y="-311.095"/>
<ellipse fill="none" stroke="cadetblue" stroke-width="10" cx="1866.15" cy="-282.095" rx="29" ry="29"/>
<text text-anchor="start" x="1910.15" y="-278.095" font-family="Times Roman,serif" font-size="15.00">Usibelli Coal</text>
</g>
<g id="39351" class="node">
<ellipse fill="#ffffff" stroke="cadetblue" stroke-width="10" cx="1432.2" cy="-943.642" rx="30" ry="30"/>
<image xlink:href="com_images/cunknown_oil_co.png" width="60px" height="60px" preserveAspectRatio="xMinYMin meet" x="1402.2" y="-973.642"/>
<ellipse fill="none" stroke="cadetblue" stroke-width="10" cx="1432.2" cy="-943.642" rx="30" ry="30"/>
<text text-anchor="start" x="1477.2" y="-939.642" font-family="Times Roman,serif" font-size="15.00">DELTA WESTERN</text>
</g>
<g id="39353" class="node">
<ellipse fill="#ffffff" stroke="cadetblue" stroke-width="10" cx="690.1" cy="-1362.2" rx="30" ry="30"/>
<image xlink:href="com_images/cunknown_oil_co.png" width="60px" height="60px" preserveAspectRatio="xMinYMin meet" x="660.1" y="-1392.2"/>
<ellipse fill="none" stroke="cadetblue" stroke-width="10" cx="690.1" cy="-1362.2" rx="30" ry="30"/>
<text text-anchor="start" x="735.1" y="-1358.2" font-family="Times Roman,serif" font-size="15.00">DENALI DRILLING</text>
</g>
<g id="39383" class="node">
<ellipse fill="#ffffff" stroke="cadetblue" stroke-width="10" cx="131.758" cy="-932.119" rx="30" ry="30"/>
<image xlink:href="com_images/cunknown_oil_co.png" width="60px" height="60px" preserveAspectRatio="xMinYMin meet" x="101.758" y="-962.119"/>
<ellipse fill="none" stroke="cadetblue" stroke-width="10" cx="131.758" cy="-932.119" rx="30" ry="30"/>
<text text-anchor="start" x="176.758" y="-928.119" font-family="Times Roman,serif" font-size="15.00">UIC OILFIELD SERVICES</text>
</g>
<g id="4174" class="node">
<polygon fill="#ffffff" stroke="#3333cc" stroke-width="10" points="1189.81,-1190.65 1137.81,-1190.65 1137.81,-1137.65 1189.81,-1137.65 1189.81,-1190.65"/>
<image xlink:href="can_images/4174.jpg" width="39.5733px" height="53px" preserveAspectRatio="xMinYMin meet" x="1144.02" y="-1190.65"/>
<polygon fill="none" stroke="#3333cc" stroke-width="10" points="1189.81,-1190.65 1137.81,-1190.65 1137.81,-1137.65 1189.81,-1137.65 1189.81,-1190.65"/>
<text text-anchor="middle" x="1163.81" y="-1160.15" font-family="Times Roman,serif" font-size="15.00">Pete Petersen</text>
</g>
<g id="8806" class="node">
<polygon fill="#ffffff" stroke="#3333cc" stroke-width="10" points="104.679,-1408.61 50.6792,-1408.61 50.6792,-1353.61 104.679,-1353.61 104.679,-1408.61"/>
<image xlink:href="can_images/8806.jpg" width="41.0667px" height="55px" preserveAspectRatio="xMinYMin meet" x="57.1459" y="-1408.61"/>
<polygon fill="none" stroke="#3333cc" stroke-width="10" points="104.679,-1408.61 50.6792,-1408.61 50.6792,-1353.61 104.679,-1353.61 104.679,-1408.61"/>
<text text-anchor="middle" x="77.6792" y="-1377.11" font-family="Times Roman,serif" font-size="15.00">Bryce Edgmon</text>
</g>
<g id="9874" class="node">
<polygon fill="#ffffff" stroke="#3333cc" stroke-width="10" points="662.978,-1689.68 608.978,-1689.68 608.978,-1634.68 662.978,-1634.68 662.978,-1689.68"/>
<image xlink:href="can_images/9874.png" width="46.5385px" height="55px" preserveAspectRatio="xMinYMin meet" x="612.709" y="-1689.68"/>
<polygon fill="none" stroke="#3333cc" stroke-width="10" points="662.978,-1689.68 608.978,-1689.68 608.978,-1634.68 662.978,-1634.68 662.978,-1689.68"/>
<text text-anchor="middle" x="635.978" y="-1658.18" font-family="Times Roman,serif" font-size="15.00">Bob Herron</text>
</g>
<g id="30533" class="node">
<ellipse fill="#ffffff" stroke="cadetblue" stroke-width="10" cx="240.611" cy="-1103.86" rx="31" ry="31.5"/>
<image xlink:href="com_images/c30533.png" width="62px" height="62px" preserveAspectRatio="xMinYMin meet" x="209.611" y="-1134.86"/>
<ellipse fill="none" stroke="cadetblue" stroke-width="10" cx="240.611" cy="-1103.86" rx="31" ry="31.5"/>
<text text-anchor="start" x="286.611" y="-1099.86" font-family="Times Roman,serif" font-size="15.00">Pioneer Natural Resources</text>
</g>
<g id="30934" class="node">
<ellipse fill="#ffffff" stroke="cadetblue" stroke-width="10" cx="998.23" cy="-32.5" rx="31" ry="31.5"/>
<image xlink:href="com_images/cunknown_coal_co.png" width="62px" height="62px" preserveAspectRatio="xMinYMin meet" x="967.23" y="-63.5"/>
<ellipse fill="none" stroke="cadetblue" stroke-width="10" cx="998.23" cy="-32.5" rx="31" ry="31.5"/>
<text text-anchor="start" x="1044.23" y="-28.5" font-family="Times Roman,serif" font-size="15.00">Doyon Limited</text>
</g>
<g id="2251" class="node">
<polygon fill="#ffffff" stroke="#3333cc" stroke-width="10" points="511.408,-1685.68 455.408,-1685.68 455.408,-1629.68 511.408,-1629.68 511.408,-1685.68"/>
<image xlink:href="can_images/unknownCandidate.jpg" width="56px" height="56px" preserveAspectRatio="xMinYMin meet" x="455.408" y="-1685.68"/>
<polygon fill="none" stroke="#3333cc" stroke-width="10" points="511.408,-1685.68 455.408,-1685.68 455.408,-1629.68 511.408,-1629.68 511.408,-1685.68"/>
<text text-anchor="middle" x="483.408" y="-1653.68" font-family="Times Roman,serif" font-size="15.00">Richard Foster</text>
</g>
<g id="4142" class="node">
<polygon fill="#ffffff" stroke="#cc3333" stroke-width="10" points="758.154,-342.058 702.154,-342.058 702.154,-286.058 758.154,-286.058 758.154,-342.058"/>
<image xlink:href="can_images/4142.jpg" width="45.4653px" height="56px" preserveAspectRatio="xMinYMin meet" x="707.421" y="-342.058"/>
<polygon fill="none" stroke="#cc3333" stroke-width="10" points="758.154,-342.058 702.154,-342.058 702.154,-286.058 758.154,-286.058 758.154,-342.058"/>
<text text-anchor="middle" x="730.154" y="-310.058" font-family="Times Roman,serif" font-size="15.00">Peggy Wilson</text>
</g>
<g id="2237" class="node">
<polygon fill="#ffffff" stroke="#cc3333" stroke-width="10" points="608.522,-314.071 552.522,-314.071 552.522,-258.071 608.522,-258.071 608.522,-314.071"/>
<image xlink:href="can_images/2237.jpg" width="41.8133px" height="56px" preserveAspectRatio="xMinYMin meet" x="559.616" y="-314.071"/>
<polygon fill="none" stroke="#cc3333" stroke-width="10" points="608.522,-314.071 552.522,-314.071 552.522,-258.071 608.522,-258.071 608.522,-314.071"/>
<text text-anchor="middle" x="580.522" y="-282.071" font-family="Times Roman,serif" font-size="15.00">Alan Austerman</text>
</g>
<g id="1677" class="node">
<ellipse fill="#ffffff" stroke="cadetblue" stroke-width="10" cx="935.751" cy="-1088.66" rx="32" ry="32"/>
<image xlink:href="com_images/c1677.png" width="64px" height="64px" preserveAspectRatio="xMinYMin meet" x="903.751" y="-1120.66"/>
<ellipse fill="none" stroke="cadetblue" stroke-width="10" cx="935.751" cy="-1088.66" rx="32" ry="32"/>
<text text-anchor="start" x="982.751" y="-1084.66" font-family="Times Roman,serif" font-size="15.00">Enstar Natural Gas</text>
</g>
<g id="3179" class="node">
<polygon fill="#ffffff" stroke="#cc3333" stroke-width="10" points="1611.75,-430.874 1555.75,-430.874 1555.75,-374.874 1611.75,-374.874 1611.75,-430.874"/>
<image xlink:href="can_images/3179.jpg" width="41.8133px" height="56px" preserveAspectRatio="xMinYMin meet" x="1562.84" y="-430.874"/>
<polygon fill="none" stroke="#cc3333" stroke-width="10" points="1611.75,-430.874 1555.75,-430.874 1555.75,-374.874 1611.75,-374.874 1611.75,-430.874"/>
<text text-anchor="middle" x="1583.75" y="-398.874" font-family="Times Roman,serif" font-size="15.00">John Coghill</text>
</g>
<g id="3178" class="node">
<polygon fill="#ffffff" stroke="#3333cc" stroke-width="10" points="319.761,-1654.61 263.761,-1654.61 263.761,-1597.61 319.761,-1597.61 319.761,-1654.61"/>
<image xlink:href="can_images/3178.jpg" width="42.56px" height="57px" preserveAspectRatio="xMinYMin meet" x="270.481" y="-1654.61"/>
<polygon fill="none" stroke="#3333cc" stroke-width="10" points="319.761,-1654.61 263.761,-1654.61 263.761,-1597.61 319.761,-1597.61 319.761,-1654.61"/>
<text text-anchor="middle" x="291.761" y="-1622.11" font-family="Times Roman,serif" font-size="15.00">Beth Kerttula</text>
</g>
<g id="4157" class="node">
<polygon fill="#ffffff" stroke="#cc3333" stroke-width="10" points="422.547,-389.68 362.547,-389.68 362.547,-328.68 422.547,-328.68 422.547,-389.68"/>
<polygon fill="none" stroke="#cc3333" stroke-width="10" points="422.547,-389.68 362.547,-389.68 362.547,-328.68 422.547,-328.68 422.547,-389.68"/>
<text text-anchor="middle" x="392.547" y="-355.18" font-family="Times Roman,serif" font-size="15.00">Cathy Muñoz</text>
</g>
<g id="4148" class="node">
<polygon fill="#ffffff" stroke="#cc3333" stroke-width="10" points="1113.92,-886.415 1051.92,-886.415 1051.92,-823.415 1113.92,-823.415 1113.92,-886.415"/>
<image xlink:href="can_images/4148.jpg" width="47.04px" height="63px" preserveAspectRatio="xMinYMin meet" x="1059.4" y="-886.415"/>
<polygon fill="none" stroke="#cc3333" stroke-width="10" points="1113.92,-886.415 1051.92,-886.415 1051.92,-823.415 1113.92,-823.415 1113.92,-886.415"/>
<text text-anchor="middle" x="1082.92" y="-850.915" font-family="Times Roman,serif" font-size="15.00">Bill Thomas Jr</text>
</g>
<g id="39350" class="node">
<ellipse fill="#ffffff" stroke="cadetblue" stroke-width="10" cx="71.8491" cy="-709.811" rx="35" ry="35.5"/>
<image xlink:href="com_images/c39350.png" width="70px" height="70px" preserveAspectRatio="xMinYMin meet" x="36.8491" y="-744.811"/>
<ellipse fill="none" stroke="cadetblue" stroke-width="10" cx="71.8491" cy="-709.811" rx="35" ry="35.5"/>
<text text-anchor="start" x="121.8491" y="-705.811" font-family="Times Roman,serif" font-size="15.00">CONAM CONSTRUCTION</text>
</g>
<g id="4143" class="node">
<polygon fill="#ffffff" stroke="#cc3333" stroke-width="10" points="871.518,-1515.49 807.518,-1515.49 807.518,-1451.49 871.518,-1451.49 871.518,-1515.49"/>
<image xlink:href="can_images/4143.jpg" width="51.9604px" height="64px" preserveAspectRatio="xMinYMin meet" x="813.538" y="-1515.49"/>
<polygon fill="none" stroke="#cc3333" stroke-width="10" points="871.518,-1515.49 807.518,-1515.49 807.518,-1451.49 871.518,-1451.49 871.518,-1515.49"/>
<text text-anchor="middle" x="839.518" y="-1479.49" font-family="Times Roman,serif" font-size="15.00">Bill Stoltze</text>
</g>
<g id="39405" class="node">
<ellipse fill="#ffffff" stroke="cadetblue" stroke-width="10" cx="651.26" cy="-812.269" rx="36" ry="36.5"/>
<image xlink:href="com_images/cunknown_oil_co.png" width="72px" height="72px" preserveAspectRatio="xMinYMin meet" x="615.26" y="-848.269"/>
<ellipse fill="none" stroke="cadetblue" stroke-width="10" cx="651.26" cy="-812.269" rx="36" ry="36.5"/>
<text text-anchor="start" x="702.26" y="-808.269" font-family="Times Roman,serif" font-size="15.00">ALASKA SUPPORT INDUSTRY ALLIANCE</text>
</g>
<g id="951" class="node">
<ellipse fill="#ffffff" stroke="cadetblue" stroke-width="10" cx="208.43" cy="-839.508" rx="37" ry="37"/>
<image xlink:href="com_images/c951.png" width="74px" height="74px" preserveAspectRatio="xMinYMin meet" x="171.43" y="-876.508"/>
<ellipse fill="none" stroke="cadetblue" stroke-width="10" cx="208.43" cy="-839.508" rx="37" ry="37"/>
<text text-anchor="start" x="260.43" y="-835.508" font-family="Times Roman,serif" font-size="15.00">Chevron Corp</text>
</g>
<g id="4154" class="node">
<polygon fill="#ffffff" stroke="#cc3333" stroke-width="10" points="558.824,-434.895 494.824,-434.895 494.824,-369.895 558.824,-369.895 558.824,-434.895"/>
<image xlink:href="can_images/4154.jpg" width="48.5333px" height="65px" preserveAspectRatio="xMinYMin meet" x="502.557" y="-434.895"/>
<polygon fill="none" stroke="#cc3333" stroke-width="10" points="558.824,-434.895 494.824,-434.895 494.824,-369.895 558.824,-369.895 558.824,-434.895"/>
<text text-anchor="middle" x="526.824" y="-398.395" font-family="Times Roman,serif" font-size="15.00">Mark Neuman</text>
</g>
<g id="4170" class="node">
<polygon fill="#ffffff" stroke="#cc3333" stroke-width="10" points="1010.32,-413.763 944.319,-413.763 944.319,-346.763 1010.32,-346.763 1010.32,-413.763"/>
<image xlink:href="can_images/4170.jpg" width="43.5236px" height="67px" preserveAspectRatio="xMinYMin meet" x="955.557" y="-413.763"/>
<polygon fill="none" stroke="#cc3333" stroke-width="10" points="1010.32,-413.763 944.319,-413.763 944.319,-346.763 1010.32,-346.763 1010.32,-413.763"/>
<text text-anchor="middle" x="977.319" y="-376.263" font-family="Times Roman,serif" font-size="15.00">Michael P (Mike) Kelly</text>
</g>
<g id="2248" class="node">
<ellipse fill="#ffffff" stroke="cadetblue" stroke-width="10" cx="39" cy="-1826.2" rx="38" ry="38"/>
<image xlink:href="com_images/cunknown_oil_co.png" width="76px" height="76px" preserveAspectRatio="xMinYMin meet" x="1" y="-1864.2"/>
<ellipse fill="none" stroke="cadetblue" stroke-width="10" cx="39" cy="-1826.2" rx="38" ry="38"/>
<text text-anchor="start" x="92" y="-1822.2" font-family="Times Roman,serif" font-size="15.00">Harbor Enterprises</text>
</g>
<g id="4158" class="node">
<polygon fill="#ffffff" stroke="#cc3333" stroke-width="10" points="202.084,-1570.16 134.084,-1570.16 134.084,-1501.16 202.084,-1501.16 202.084,-1570.16"/>
<image xlink:href="can_images/4158.jpg" width="51.52px" height="69px" preserveAspectRatio="xMinYMin meet" x="142.324" y="-1570.16"/>
<polygon fill="none" stroke="#cc3333" stroke-width="10" points="202.084,-1570.16 134.084,-1570.16 134.084,-1501.16 202.084,-1501.16 202.084,-1570.16"/>
<text text-anchor="middle" x="168.084" y="-1531.66" font-family="Times Roman,serif" font-size="15.00">Paul Seaton</text>
</g>
<g id="2841" class="node">
<ellipse fill="#ffffff" stroke="cadetblue" stroke-width="10" cx="1278.41" cy="-523.359" rx="39" ry="39"/>
<image xlink:href="com_images/c48.png" width="78px" height="78px" preserveAspectRatio="xMinYMin meet" x="1239.41" y="-562.359"/>
<ellipse fill="none" stroke="cadetblue" stroke-width="10" cx="1278.41" cy="-523.359" rx="39" ry="39"/>
<text text-anchor="start" x="1332.41" y="-519.359" font-family="Times Roman,serif" font-size="15.00">Koch Industries</text>
</g>
<g id="8468" class="node">
<polygon fill="#ffffff" stroke="#cc3333" stroke-width="10" points="977.926,-638.609 903.926,-638.609 903.926,-564.609 977.926,-564.609 977.926,-638.609"/>
<image xlink:href="can_images/8468.jpg" width="55.2533px" height="74px" preserveAspectRatio="xMinYMin meet" x="913.299" y="-638.609"/>
<polygon fill="none" stroke="#cc3333" stroke-width="10" points="977.926,-638.609 903.926,-638.609 903.926,-564.609 977.926,-564.609 977.926,-638.609"/>
<text text-anchor="middle" x="940.926" y="-597.609" font-family="Times Roman,serif" font-size="15.00">Kyle Johansen</text>
</g>
<g id="31946" class="node">
<ellipse fill="#ffffff" stroke="cadetblue" stroke-width="10" cx="282.444" cy="-957.127" rx="43" ry="43"/>
<image xlink:href="com_images/c31946.png" width="86px" height="86px" preserveAspectRatio="xMinYMin meet" x="239.444" y="-1000.13"/>
<ellipse fill="none" stroke="cadetblue" stroke-width="10" cx="282.444" cy="-957.127" rx="43" ry="43"/>
<text text-anchor="start" x="340.444" y="-953.127" font-family="Times Roman,serif" font-size="15.00">NANA Regional Corp</text>
</g>
<g id="39359" class="node">
<ellipse fill="#ffffff" stroke="cadetblue" stroke-width="10" cx="946.697" cy="-1167.2" rx="43" ry="43.5"/>
<image xlink:href="com_images/cunknown_oil_co.png" width="86px" height="86px" preserveAspectRatio="xMinYMin meet" x="903.697" y="-1210.2"/>
<ellipse fill="none" stroke="cadetblue" stroke-width="10" cx="946.697" cy="-1167.2" rx="43" ry="43.5"/>
<text text-anchor="start" x="1004.697" y="-1163.2" font-family="Times Roman,serif" font-size="15.00">ICE SERVICES</text>
</g>
<g id="8692" class="node">
<polygon fill="#ffffff" stroke="#cc3333" stroke-width="10" points="869.978,-586.544 791.978,-586.544 791.978,-508.544 869.978,-508.544 869.978,-586.544"/>
<image xlink:href="can_images/unknownCandidate.jpg" width="78px" height="78px" preserveAspectRatio="xMinYMin meet" x="791.978" y="-586.544"/>
<polygon fill="none" stroke="#cc3333" stroke-width="10" points="869.978,-586.544 791.978,-586.544 791.978,-508.544 869.978,-508.544 869.978,-586.544"/>
<text text-anchor="middle" x="830.978" y="-543.544" font-family="Times Roman,serif" font-size="15.00">Bob Roses</text>
</g>
<g id="9873" class="node">
<polygon fill="#ffffff" stroke="#cc3333" stroke-width="10" points="388.569,-654.209 304.569,-654.209 304.569,-569.209 388.569,-569.209 388.569,-654.209"/>
<image xlink:href="can_images/9873.jpg" width="56.1px" height="85px" preserveAspectRatio="xMinYMin meet" x="318.519" y="-654.209"/>
<polygon fill="none" stroke="#cc3333" stroke-width="10" points="388.569,-654.209 304.569,-654.209 304.569,-569.209 388.569,-569.209 388.569,-654.209"/>
<text text-anchor="middle" x="346.569" y="-607.709" font-family="Times Roman,serif" font-size="15.00">Charisse Millett</text>
</g>
<g id="8804" class="node">
<polygon fill="#ffffff" stroke="#cc3333" stroke-width="10" points="626.524,-1044.11 538.524,-1044.11 538.524,-956.109 626.524,-956.109 626.524,-1044.11"/>
<polygon fill="none" stroke="#cc3333" stroke-width="10" points="626.524,-1044.11 538.524,-1044.11 538.524,-956.109 626.524,-956.109 626.524,-1044.11"/>
<text text-anchor="middle" x="582.524" y="-996.109" font-family="Times Roman,serif" font-size="15.00">Craig Johnson</text>
</g>
<g id="4169" class="node">
<polygon fill="#ffffff" stroke="#cc3333" stroke-width="10" points="1030.32,-814.377 940.32,-814.377 940.32,-724.377 1030.32,-724.377 1030.32,-814.377"/>
<image xlink:href="can_images/4169.jpg" width="54.7826px" height="90px" preserveAspectRatio="xMinYMin meet" x="957.929" y="-814.377"/>
<polygon fill="none" stroke="#cc3333" stroke-width="10" points="1030.32,-814.377 940.32,-814.377 940.32,-724.377 1030.32,-724.377 1030.32,-814.377"/>
<text text-anchor="middle" x="985.32" y="-765.377" font-family="Times Roman,serif" font-size="15.00">Jay Ramras</text>
</g>
<g id="8801" class="node">
<polygon fill="#ffffff" stroke="#cc3333" stroke-width="10" points="596.989,-1107.31 500.989,-1107.31 500.989,-1010.31 596.989,-1010.31 596.989,-1107.31"/>
<polygon fill="none" stroke="#cc3333" stroke-width="10" points="596.989,-1107.31 500.989,-1107.31 500.989,-1010.31 596.989,-1010.31 596.989,-1107.31"/>
<text text-anchor="middle" x="548.989" y="-1054.81" font-family="Times Roman,serif" font-size="15.00">Anna Fairclough</text>
</g>
<g id="4147" class="node">
<polygon fill="#ffffff" stroke="#cc3333" stroke-width="10" points="745.131,-1101.95 647.131,-1101.95 647.131,-1003.95 745.131,-1003.95 745.131,-1101.95"/>
<polygon fill="none" stroke="#cc3333" stroke-width="10" points="745.131,-1101.95 647.131,-1101.95 647.131,-1003.95 745.131,-1003.95 745.131,-1101.95"/>
<text text-anchor="middle" x="696.131" y="-1048.95" font-family="Times Roman,serif" font-size="15.00">Kurt Olson</text>
</g>
<g id="5460" class="node">
<ellipse fill="#ffffff" stroke="cadetblue" stroke-width="10" cx="458.197" cy="-1333.69" rx="58" ry="58.5"/>
<image xlink:href="com_images/c185.png" width="116px" height="116px" preserveAspectRatio="xMinYMin meet" x="400.197" y="-1391.69"/>
<ellipse fill="none" stroke="cadetblue" stroke-width="10" cx="458.197" cy="-1333.69" rx="58" ry="58.5"/>
<text text-anchor="start" x="531.197" y="-1329.69" font-family="Times Roman,serif" font-size="15.00">Tesoro Petroleum</text>
</g>
<g id="4153" class="node">
<polygon fill="#ffffff" stroke="#cc3333" stroke-width="10" points="505.82,-981.161 397.82,-981.161 397.82,-872.161 505.82,-872.161 505.82,-981.161"/>
<image xlink:href="can_images/4153.jpg" width="81.3867px" height="109px" preserveAspectRatio="xMinYMin meet" x="411.127" y="-981.161"/>
<polygon fill="none" stroke="#cc3333" stroke-width="10" points="505.82,-981.161 397.82,-981.161 397.82,-872.161 505.82,-872.161 505.82,-981.161"/>
<text text-anchor="middle" x="451.82" y="-922.661" font-family="Times Roman,serif" font-size="15.00">Charles M Chenault</text>
</g>
<g id="39514" class="node">
<ellipse fill="#ffffff" stroke="cadetblue" stroke-width="10" cx="628.642" cy="-709.835" rx="66" ry="66"/>
<image xlink:href="com_images/c39514.png" width="132px" height="132px" preserveAspectRatio="xMinYMin meet" x="562.642" y="-775.835"/>
<ellipse fill="none" stroke="cadetblue" stroke-width="10" cx="628.642" cy="-709.835" rx="66" ry="66"/>
<text text-anchor="start" x="709.642" y="-705.835" font-family="Times Roman,serif" font-size="15.00">UDELHOVEN OIL</text>
</g>
<g id="4152" class="node">
<polygon fill="#ffffff" stroke="#cc3333" stroke-width="10" points="477.431,-781.135 351.431,-781.135 351.431,-655.135 477.431,-655.135 477.431,-781.135"/>
<image xlink:href="can_images/4152.jpg" width="102.297px" height="126px" preserveAspectRatio="xMinYMin meet" x="363.283" y="-781.135"/>
<polygon fill="none" stroke="#cc3333" stroke-width="10" points="477.431,-781.135 351.431,-781.135 351.431,-655.135 477.431,-655.135 477.431,-781.135"/>
<text text-anchor="middle" x="414.431" y="-714.135" font-family="Times Roman,serif" font-size="15.00">Mike Hawker</text>
</g>
<g id="671" class="node">
<ellipse fill="#ffffff" stroke="cadetblue" stroke-width="10" cx="804.574" cy="-902.251" rx="79" ry="79"/>
<image xlink:href="com_images/c671.png" width="158px" height="158px" preserveAspectRatio="xMinYMin meet" x="725.574" y="-981.251"/>
<ellipse fill="none" stroke="cadetblue" stroke-width="10" cx="804.574" cy="-902.251" rx="79" ry="79"/>
<text text-anchor="start" x="898.574" y="-898.251" font-family="Times Roman,serif" font-size="15.00">BP</text>
</g>
<g id="1137" class="node">
<ellipse fill="#ffffff" stroke="cadetblue" stroke-width="10" cx="683.607" cy="-657.53" rx="81" ry="81"/>
<image xlink:href="com_images/c92.png" width="162px" height="162px" preserveAspectRatio="xMinYMin meet" x="602.607" y="-738.53"/>
<ellipse fill="none" stroke="cadetblue" stroke-width="10" cx="683.607" cy="-657.53" rx="81" ry="81"/>
<text text-anchor="start" x="779.607" y="-653.53" font-family="Times Roman,serif" font-size="15.00">ConocoPhillips</text>
</g>
</g>
</svg>
