<svg width="0px" height="0px"
  xmlns="http://www.w3.org/2000/svg" xmlns:xlink="http://www.w3.org/1999/xlink">
<g id="graph0" class="graph" transform="scale(0 0) rotate(0) translate(4 1421.18)">

<polygon id='svgscreen' style="opacity:0;" fill="#ffffff" stroke="#ffffff" points="-4,5 -4,-1421.18 1886.92,-1421.18 1886.92,5 -4,5"/>
<g id="8406_39485" class="edge">
<path fill="none" stroke="#999999" stroke-width="5.08413" d="M1021.19,-180.457C1005.05,-227.12 971.261,-324.825 946.707,-395.816"/>
<polygon fill="#999999" stroke="#999999" points="934.022,-391.664 936.828,-424.378 959.247,-400.389 934.022,-391.664"/>
</g>
<g id="145304_289" class="edge">
<path fill="none" stroke="#999999" stroke-width="5.50481" d="M1072.29,-890.21C1062.08,-899.869 1049.07,-912.194 1035.21,-925.313"/>
<polygon fill="#999999" stroke="#999999" points="1024.88,-915.195 1013.03,-946.313 1044.75,-936.182 1024.88,-915.195"/>
</g>
<g id="2231_4211" class="edge">
<path fill="none" stroke="#999999" stroke-width="6.34615" d="M61.1374,-834.612C115.824,-831.509 233.139,-824.851 313.195,-820.308"/>
<polygon fill="#999999" stroke="#999999" points="314.379,-836.926 343.387,-818.594 312.491,-803.662 314.379,-836.926"/>
</g>
<g id="4165_31946" class="edge">
<path fill="none" stroke="#999999" stroke-width="6.34615" d="M265.833,-1323.97C293.364,-1283.95 349.001,-1203.09 392.782,-1139.46"/>
<polygon fill="#999999" stroke="#999999" points="406.516,-1148.88 409.797,-1114.73 379.068,-1130 406.516,-1148.88"/>
</g>
<g id="4171_38670" class="edge">
<path fill="none" stroke="#999999" stroke-width="6.34615" d="M84.9698,-504.988C138.338,-521.268 253.666,-556.448 329.728,-579.651"/>
<polygon fill="#999999" stroke="#999999" points="325.111,-595.659 358.667,-588.478 334.833,-563.791 325.111,-595.659"/>
</g>
<g id="4165_951" class="edge">
<path fill="none" stroke="#999999" stroke-width="6.34615" d="M147.421,-1138.69C194.175,-1125.12 288.312,-1097.81 360.126,-1076.97"/>
<polygon fill="#999999" stroke="#999999" points="365.164,-1092.86 389.334,-1068.5 355.88,-1060.86 365.164,-1092.86"/>
</g>
<g id="8800_39474" class="edge">
<path fill="none" stroke="#999999" stroke-width="6.34615" d="M1821.92,-870.011C1770.12,-855.365 1660.61,-824.397 1590.67,-804.622"/>
<polygon fill="#999999" stroke="#999999" points="1595.07,-788.555 1561.67,-796.422 1586.01,-820.615 1595.07,-788.555"/>
</g>
<g id="145304_37852" class="edge">
<path fill="none" stroke="#999999" stroke-width="7.1875" d="M1040.75,-1334.16C1025.8,-1286.25 995.755,-1189.93 972.53,-1115.48"/>
<polygon fill="#999999" stroke="#999999" points="990.48,-1109.67 963.535,-1086.65 954.457,-1120.9 990.48,-1109.67"/>
</g>
<g id="8406_30934" class="edge">
<path fill="none" stroke="#999999" stroke-width="8.02885" d="M852.053,-177.53C862.785,-226.699 884.079,-324.26 899.551,-395.147"/>
<polygon fill="#999999" stroke="#999999" points="878.996,-399.805 905.984,-424.621 920.178,-390.816 878.996,-399.805"/>
</g>
<g id="8800_32624" class="edge">
<path fill="none" stroke="#999999" stroke-width="8.02885" d="M1758.62,-598.687C1718.91,-630.968 1639.48,-695.529 1584.88,-739.912"/>
<polygon fill="#999999" stroke="#999999" points="1571.4,-723.708 1561.41,-758.985 1597.99,-756.417 1571.4,-723.708"/>
</g>
<g id="3179_2841" class="edge">
<path fill="none" stroke="#999999" stroke-width="8.87019" d="M1464.47,-184.465C1495.89,-215.886 1553.12,-273.12 1594.77,-314.774"/>
<polygon fill="#999999" stroke="#999999" points="1578.37,-331.3 1616.05,-336.049 1611.3,-298.371 1578.37,-331.3"/>
</g>
<g id="2245_1737" class="edge">
<path fill="none" stroke="#999999" stroke-width="8.87019" d="M232.93,-206.57C279.682,-236.305 376.129,-297.647 439.871,-338.189"/>
<polygon fill="#999999" stroke="#999999" points="427.541,-357.941 465.351,-354.394 452.533,-318.647 427.541,-357.941"/>
</g>
<g id="2229_168" class="edge">
<path fill="none" stroke="#999999" stroke-width="5.08413" d="M1328.09,-1009.65C1365.24,-1057.32 1445.37,-1160.16 1493.99,-1222.56"/>
<polygon fill="#999999" stroke="#999999" points="1483.71,-1231.08 1512.68,-1246.55 1504.77,-1214.68 1483.71,-1231.08"/>
</g>
<g id="8800_168" class="edge">
<path fill="none" stroke="#999999" stroke-width="6.09375" d="M1332.35,-962.06C1365.52,-932.222 1425.98,-877.847 1470.8,-837.529"/>
<polygon fill="#999999" stroke="#999999" points="1481.6,-849.332 1493.21,-817.377 1460.21,-825.545 1481.6,-849.332"/>
</g>
<g id="145304_168" class="edge">
<path fill="none" stroke="#999999" stroke-width="7.1875" d="M1276.11,-986.577C1224.75,-990.855 1121.59,-999.445 1043.23,-1005.97"/>
<polygon fill="#999999" stroke="#999999" points="1041.57,-987.176 1013.24,-1008.47 1044.71,-1024.78 1041.57,-987.176"/>
</g>
<g id="145304_38177" class="edge">
<path fill="none" stroke="#999999" stroke-width="10.5529" d="M915.116,-1348.25C919.164,-1296.1 927.077,-1194.15 933.098,-1116.59"/>
<polygon fill="#999999" stroke="#999999" points="960.719,-1118.69 935.422,-1086.63 905.482,-1114.4 960.719,-1118.69"/>
</g>
<g id="4165_1677" class="edge">
<path fill="none" stroke="#999999" stroke-width="7.1875" d="M663.823,-1280.37C633.552,-1246.97 579.518,-1187.34 533.951,-1137.06"/>
<polygon fill="#999999" stroke="#999999" points="547.853,-1124.31 513.727,-1114.75 519.892,-1149.65 547.853,-1124.31"/>
</g>
<g id="145304_1677" class="edge">
<path fill="none" stroke="#999999" stroke-width="8.87019" d="M710.603,-1279.73C743.849,-1241.46 806.769,-1169.03 858.469,-1109.51"/>
<polygon fill="#999999" stroke="#999999" points="876.273,-1124.52 878.369,-1086.61 841.117,-1093.98 876.273,-1124.52"/>
</g>
<g id="8406_38371" class="edge">
<path fill="none" stroke="#999999" stroke-width="13.0769" d="M1153.65,-283.302C1116.16,-314.446 1048.51,-370.645 995.254,-414.879"/>
<polygon fill="#999999" stroke="#999999" points="973.104,-388.653 971.961,-434.228 1016.97,-441.464 973.104,-388.653"/>
</g>
<g id="2245_1991" class="edge">
<path fill="none" stroke="#999999" stroke-width="13.0769" d="M466.48,-73.8898C473.038,-130.369 485.767,-239.996 494.002,-310.918"/>
<polygon fill="#999999" stroke="#999999" points="459.924,-315.054 497.482,-340.894 528.12,-307.135 459.924,-315.054"/>
</g>
<g id="145304_39357" class="edge">
<path fill="none" stroke="#999999" stroke-width="13.0769" d="M1098.84,-1219.17C1077.86,-1191.96 1045.36,-1149.81 1015.29,-1110.81"/>
<polygon fill="#999999" stroke="#999999" points="1042.27,-1089.58 996.768,-1086.78 987.902,-1131.5 1042.27,-1089.58"/>
</g>
<g id="2229_39472" class="edge">
<path fill="none" stroke="#999999" stroke-width="6.34615" d="M1336.26,-1100.96C1373.18,-1133.25 1438.59,-1190.46 1484.02,-1230.2"/>
<polygon fill="#999999" stroke="#999999" points="1473.35,-1243 1506.9,-1250.21 1495.29,-1217.92 1473.35,-1243"/>
</g>
<g id="8800_39472" class="edge">
<path fill="none" stroke="#999999" stroke-width="9.71154" d="M1330.74,-1046.43C1366.45,-999.238 1436.56,-906.607 1482.67,-845.686"/>
<polygon fill="#999999" stroke="#999999" points="1503.31,-860.664 1501.08,-821.359 1462.65,-829.895 1503.31,-860.664"/>
</g>
<g id="145304_39472" class="edge">
<path fill="none" stroke="#999999" stroke-width="8.02885" d="M1271.56,-1070.18C1218.75,-1061.28 1119.07,-1044.48 1042.93,-1031.65"/>
<polygon fill="#999999" stroke="#999999" points="1046.32,-1010.85 1013.24,-1026.65 1039.32,-1052.42 1046.32,-1010.85"/>
</g>
<g id="4165_39350" class="edge">
<path fill="none" stroke="#999999" stroke-width="13.0769" d="M683.871,-1190.83C648.308,-1168.91 592.943,-1134.79 545.534,-1105.57"/>
<polygon fill="#999999" stroke="#999999" points="563.38,-1076.24 519.831,-1089.73 527.36,-1134.69 563.38,-1076.24"/>
</g>
<g id="145304_39350" class="edge">
<path fill="none" stroke="#999999" stroke-width="13.0769" d="M752.624,-1184.51C777.269,-1162.27 812.656,-1130.33 846.121,-1100.13"/>
<polygon fill="#999999" stroke="#999999" points="869.554,-1125.22 868.826,-1079.64 823.556,-1074.26 869.554,-1125.22"/>
</g>
<g id="2231_5460" class="edge">
<path fill="none" stroke="#999999" stroke-width="21.4904" d="M632.512,-1004.08C591.049,-971.12 523.554,-917.458 471.172,-875.812"/>
<polygon fill="#999999" stroke="#999999" points="506.175,-831.572 447.585,-857.06 435.961,-919.887 506.175,-831.572"/>
</g>
<g id="145304_5460" class="edge">
<path fill="none" stroke="#999999" stroke-width="13.0769" d="M718.517,-1030.74C751.876,-1028.3 797.571,-1024.96 838.874,-1021.95"/>
<polygon fill="#999999" stroke="#999999" points="841.558,-1056.17 868.976,-1019.75 836.554,-987.697 841.558,-1056.17"/>
</g>
<g id="8800_671" class="edge">
<path fill="none" stroke="#999999" stroke-width="5" d="M1226.66,-715.435C1288.84,-730.176 1395.27,-755.404 1463.39,-771.553"/>
<polygon fill="#999999" stroke="#999999" points="1460.75,-784.416 1492.97,-778.565 1466.8,-758.874 1460.75,-784.416"/>
</g>
<g id="8406_671" class="edge">
<path fill="none" stroke="#999999" stroke-width="24.4351" d="M1138.05,-670.013C1100.39,-637.369 1042.17,-586.891 995.051,-546.044"/>
<polygon fill="#999999" stroke="#999999" points="1036.96,-497.484 972.273,-526.298 952.925,-594.414 1036.96,-497.484"/>
</g>
<g id="145304_671" class="edge">
<path fill="none" stroke="#999999" stroke-width="13.9183" d="M1145.99,-744.259C1112.67,-788.18 1058.4,-859.732 1014.07,-918.176"/>
<polygon fill="#999999" stroke="#999999" points="984.792,-896.321 995.771,-942.303 1043.01,-940.48 984.792,-896.321"/>
</g>
<g id="4171_39514" class="edge">
<path fill="none" stroke="#999999" stroke-width="13.0769" d="M636.894,-756.38C588.636,-724.543 522.107,-680.652 472.303,-647.795"/>
<polygon fill="#999999" stroke="#999999" points="490.87,-618.92 446.925,-631.053 453.064,-676.227 490.87,-618.92"/>
</g>
<g id="2231_39514" class="edge">
<path fill="none" stroke="#999999" stroke-width="21.4904" d="M624.653,-802.321C580.127,-804.909 523.678,-808.189 477.946,-810.846"/>
<polygon fill="#999999" stroke="#999999" points="474.601,-754.533 447.924,-812.591 481.146,-867.167 474.601,-754.533"/>
</g>
<g id="8406_39514" class="edge">
<path fill="none" stroke="#999999" stroke-width="16.4423" d="M742.449,-735.724C777.026,-685.155 826.03,-613.486 863.462,-558.742"/>
<polygon fill="#999999" stroke="#999999" points="899.228,-582.901 880.533,-533.775 827.971,-534.179 899.228,-582.901"/>
</g>
<g id="4165_39514" class="edge">
<path fill="none" stroke="#999999" stroke-width="29.9038" d="M647.288,-851.924C615.784,-884.241 575.01,-926.069 539.091,-962.916"/>
<polygon fill="#999999" stroke="#999999" points="482.778,-908.229 518.046,-984.505 595.197,-1017.82 482.778,-908.229"/>
</g>
<g id="145304_39514" class="edge">
<path fill="none" stroke="#999999" stroke-width="21.4904" d="M756.13,-848.443C782.855,-872.443 815.545,-901.799 845.965,-929.117"/>
<polygon fill="#999999" stroke="#999999" points="808.635,-971.414 868.648,-949.487 884.019,-887.47 808.635,-971.414"/>
</g>
<g id="2245_1137" class="edge">
<path fill="none" stroke="#999999" stroke-width="6.34615" d="M629.553,-635.36C600.816,-577.392 560.799,-496.674 533.235,-441.073"/>
<polygon fill="#999999" stroke="#999999" points="548.15,-433.653 519.9,-414.174 518.3,-448.452 548.15,-433.653"/>
</g>
<g id="4171_1137" class="edge">
<path fill="none" stroke="#999999" stroke-width="22.3317" d="M590.73,-677.409C554.412,-662.824 510.917,-645.358 474.921,-630.903"/>
<polygon fill="#999999" stroke="#999999" points="496.749,-576.498 447.064,-619.717 453.059,-685.295 496.749,-576.498"/>
</g>
<g id="2231_1137" class="edge">
<path fill="none" stroke="#999999" stroke-width="13.0769" d="M590.807,-737.209C555.089,-751.552 512.238,-768.757 475.785,-783.395"/>
<polygon fill="#999999" stroke="#999999" points="462.927,-751.567 447.878,-794.6 488.509,-815.276 462.927,-751.567"/>
</g>
<g id="8406_1137" class="edge">
<path fill="none" stroke="#999999" stroke-width="8.87019" d="M724.786,-653.54C759.499,-622.19 803.651,-582.315 840.972,-548.609"/>
<polygon fill="#999999" stroke="#999999" points="856.813,-565.677 863.471,-528.29 825.601,-531.117 856.813,-565.677"/>
</g>
<g id="4165_1137" class="edge">
<path fill="none" stroke="#999999" stroke-width="40" d="M623.121,-775.758C590.77,-828.33 545.791,-901.422 510.445,-958.863"/>
<polygon fill="#999999" stroke="#999999" points="421.011,-903.849 494.713,-984.428 599.861,-1013.91 421.011,-903.849"/>
</g>
<g id="145304_1137" class="edge">
<path fill="none" stroke="#999999" stroke-width="28.2212" d="M718.733,-766.913C757.699,-810.31 811.273,-869.977 856.063,-919.86"/>
<polygon fill="#999999" stroke="#999999" points="801.1,-969.53 876.264,-942.359 911.343,-870.543 801.1,-969.53"/>
</g>
<g id="39485" class="node">
<ellipse fill="#ffffff" stroke="cadetblue" stroke-width="10" cx="1030.51" cy="-153.534" rx="28" ry="28.5"/>
<image xlink:href="com_images/cunknown_coal_co.png" width="56px" height="56px" preserveAspectRatio="xMinYMin meet" x="1002.51" y="-181.534"/>
<ellipse fill="none" stroke="cadetblue" stroke-width="10" cx="1030.51" cy="-153.534" rx="28" ry="28.5"/>
<text text-anchor="start" x="1073.51" y="-149.534" font-family="Times Roman,serif" font-size="15.00">PACKIN COAL</text>
</g>
<g id="289" class="node">
<ellipse fill="#ffffff" stroke="cadetblue" stroke-width="10" cx="1093.49" cy="-870.14" rx="29" ry="29"/>
<image xlink:href="com_images/cunknown_oil_co.png" width="58px" height="58px" preserveAspectRatio="xMinYMin meet" x="1064.49" y="-899.14"/>
<ellipse fill="none" stroke="cadetblue" stroke-width="10" cx="1093.49" cy="-870.14" rx="29" ry="29"/>
<text text-anchor="start" x="1137.49" y="-866.14" font-family="Times Roman,serif" font-size="15.00">Arctic Slope Regional</text>
</g>
<g id="4211" class="node">
<ellipse fill="#ffffff" stroke="cadetblue" stroke-width="10" cx="31" cy="-836.322" rx="30" ry="30"/>
<image xlink:href="com_images/cunknown_oil_co.png" width="60px" height="60px" preserveAspectRatio="xMinYMin meet" x="1" y="-866.322"/>
<ellipse fill="none" stroke="cadetblue" stroke-width="10" cx="31" cy="-836.322" rx="30" ry="30"/>
<text text-anchor="start" x="76" y="-832.322" font-family="Times Roman,serif" font-size="15.00">Peak Oilfield Service</text>
</g>
<g id="31946" class="node">
<ellipse fill="#ffffff" stroke="cadetblue" stroke-width="10" cx="248.815" cy="-1348.7" rx="30" ry="30"/>
<image xlink:href="com_images/c31946.png" width="60px" height="60px" preserveAspectRatio="xMinYMin meet" x="218.815" y="-1378.7"/>
<ellipse fill="none" stroke="cadetblue" stroke-width="10" cx="248.815" cy="-1348.7" rx="30" ry="30"/>
<text text-anchor="start" x="293.815" y="-1344.7" font-family="Times Roman,serif" font-size="15.00">NANA Regional Corp</text>
</g>
<g id="38670" class="node">
<ellipse fill="#ffffff" stroke="cadetblue" stroke-width="10" cx="55.9985" cy="-496.151" rx="30" ry="30"/>
<image xlink:href="com_images/cunknown_oil_co.png" width="60px" height="60px" preserveAspectRatio="xMinYMin meet" x="25.9985" y="-526.151"/>
<ellipse fill="none" stroke="cadetblue" stroke-width="10" cx="55.9985" cy="-496.151" rx="30" ry="30"/>
<text text-anchor="start" x="100.9985" y="-492.151" font-family="Times Roman,serif" font-size="15.00">SELF EMPLOYED</text>
</g>
<g id="951" class="node">
<ellipse fill="#ffffff" stroke="cadetblue" stroke-width="10" cx="118.468" cy="-1147.09" rx="30" ry="30"/>
<image xlink:href="com_images/c951.png" width="60px" height="60px" preserveAspectRatio="xMinYMin meet" x="88.4681" y="-1177.09"/>
<ellipse fill="none" stroke="cadetblue" stroke-width="10" cx="118.468" cy="-1147.09" rx="30" ry="30"/>
<text text-anchor="start" x="163.468" y="-1143.09" font-family="Times Roman,serif" font-size="15.00">Chevron Corp</text>
</g>
<g id="39474" class="node">
<ellipse fill="#ffffff" stroke="cadetblue" stroke-width="10" cx="1850.92" cy="-878.212" rx="30" ry="30"/>
<image xlink:href="com_images/cunknown_oil_co.png" width="60px" height="60px" preserveAspectRatio="xMinYMin meet" x="1820.92" y="-908.212"/>
<ellipse fill="none" stroke="cadetblue" stroke-width="10" cx="1850.92" cy="-878.212" rx="30" ry="30"/>
<text text-anchor="start" x="1895.92" y="-874.212" font-family="Times Roman,serif" font-size="15.00">NINESTAR ENTERPRISES</text>
</g>
<g id="2229" class="node">
<polygon fill="#ffffff" stroke="#3333cc" stroke-width="10" points="1561,-1300.91 1507,-1300.91 1507,-1246.91 1561,-1246.91 1561,-1300.91"/>
<image xlink:href="can_images/2229.jpg" width="40.32px" height="54px" preserveAspectRatio="xMinYMin meet" x="1513.84" y="-1300.91"/>
<polygon fill="none" stroke="#3333cc" stroke-width="10" points="1561,-1300.91 1507,-1300.91 1507,-1246.91 1561,-1246.91 1561,-1300.91"/>
<text text-anchor="middle" x="1534" y="-1269.91" font-family="Times Roman,serif" font-size="15.00">Johnny Ellis</text>
</g>
<g id="37852" class="node">
<ellipse fill="#ffffff" stroke="cadetblue" stroke-width="10" cx="1050.04" cy="-1363.96" rx="31" ry="31"/>
<image xlink:href="com_images/cunknown_oil_co.png" width="62px" height="62px" preserveAspectRatio="xMinYMin meet" x="1019.04" y="-1394.96"/>
<ellipse fill="none" stroke="cadetblue" stroke-width="10" cx="1050.04" cy="-1363.96" rx="31" ry="31"/>
<text text-anchor="start" x="1096.04" y="-1359.96" font-family="Times Roman,serif" font-size="15.00">HOMEMAKER</text>
</g>
<g id="30934" class="node">
<ellipse fill="#ffffff" stroke="cadetblue" stroke-width="10" cx="845.289" cy="-146.538" rx="31" ry="31.5"/>
<image xlink:href="com_images/cunknown_coal_co.png" width="62px" height="62px" preserveAspectRatio="xMinYMin meet" x="814.289" y="-177.538"/>
<ellipse fill="none" stroke="cadetblue" stroke-width="10" cx="845.289" cy="-146.538" rx="31" ry="31.5"/>
<text text-anchor="start" x="891.289" y="-142.538" font-family="Times Roman,serif" font-size="15.00">Doyon Limited</text>
</g>
<g id="32624" class="node">
<ellipse fill="#ffffff" stroke="cadetblue" stroke-width="10" cx="1783.16" cy="-578.747" rx="31" ry="31.5"/>
<image xlink:href="com_images/cunknown_oil_co.png" width="62px" height="62px" preserveAspectRatio="xMinYMin meet" x="1752.16" y="-609.747"/>
<ellipse fill="none" stroke="cadetblue" stroke-width="10" cx="1783.16" cy="-578.747" rx="31" ry="31.5"/>
<text text-anchor="start" x="1829.16" y="-574.747" font-family="Times Roman,serif" font-size="15.00">Chugach Electric Assn</text>
</g>
<g id="3179" class="node">
<polygon fill="#ffffff" stroke="#cc3333" stroke-width="10" points="1674.15,-394.147 1616.15,-394.147 1616.15,-336.147 1674.15,-336.147 1674.15,-394.147"/>
<image xlink:href="can_images/3179.jpg" width="43.3067px" height="58px" preserveAspectRatio="xMinYMin meet" x="1623.49" y="-394.147"/>
<polygon fill="none" stroke="#cc3333" stroke-width="10" points="1674.15,-394.147 1616.15,-394.147 1616.15,-336.147 1674.15,-336.147 1674.15,-394.147"/>
<text text-anchor="middle" x="1645.15" y="-361.147" font-family="Times Roman,serif" font-size="15.00">John Coghill</text>
</g>
<g id="2841" class="node">
<ellipse fill="#ffffff" stroke="cadetblue" stroke-width="10" cx="1441.5" cy="-161.5" rx="32" ry="32.5"/>
<image xlink:href="com_images/c48.png" width="64px" height="64px" preserveAspectRatio="xMinYMin meet" x="1409.5" y="-193.5"/>
<ellipse fill="none" stroke="cadetblue" stroke-width="10" cx="1441.5" cy="-161.5" rx="32" ry="32.5"/>
<text text-anchor="start" x="1488.5" y="-157.5" font-family="Times Roman,serif" font-size="15.00">Koch Industries</text>
</g>
<g id="1737" class="node">
<ellipse fill="#ffffff" stroke="cadetblue" stroke-width="10" cx="205.6" cy="-189.188" rx="32" ry="32.5"/>
<image xlink:href="com_images/c28.png" width="64px" height="64px" preserveAspectRatio="xMinYMin meet" x="173.6" y="-221.188"/>
<ellipse fill="none" stroke="cadetblue" stroke-width="10" cx="205.6" cy="-189.188" rx="32" ry="32.5"/>
<text text-anchor="start" x="252.6" y="-185.188" font-family="Times Roman,serif" font-size="15.00">Exxon Mobil</text>
</g>
<g id="168" class="node">
<ellipse fill="#ffffff" stroke="cadetblue" stroke-width="10" cx="1308.04" cy="-983.919" rx="32" ry="32.5"/>
<image xlink:href="com_images/cunknown_oil_co.png" width="64px" height="64px" preserveAspectRatio="xMinYMin meet" x="1276.04" y="-1015.92"/>
<ellipse fill="none" stroke="cadetblue" stroke-width="10" cx="1308.04" cy="-983.919" rx="32" ry="32.5"/>
<text text-anchor="start" x="1355.04" y="-979.919" font-family="Times Roman,serif" font-size="15.00">Alyeska Pipeline Service Co</text>
</g>
<g id="38177" class="node">
<ellipse fill="#ffffff" stroke="cadetblue" stroke-width="10" cx="912.482" cy="-1382.18" rx="34" ry="34"/>
<image xlink:href="com_images/cunknown_oil_co.png" width="68px" height="68px" preserveAspectRatio="xMinYMin meet" x="878.482" y="-1416.18"/>
<ellipse fill="none" stroke="cadetblue" stroke-width="10" cx="912.482" cy="-1382.18" rx="34" ry="34"/>
<text text-anchor="start" x="961.482" y="-1378.18" font-family="Times Roman,serif" font-size="15.00">N/A</text>
</g>
<g id="1677" class="node">
<ellipse fill="#ffffff" stroke="cadetblue" stroke-width="10" cx="687.425" cy="-1306.41" rx="35" ry="35"/>
<image xlink:href="com_images/c1677.png" width="70px" height="70px" preserveAspectRatio="xMinYMin meet" x="652.425" y="-1341.41"/>
<ellipse fill="none" stroke="cadetblue" stroke-width="10" cx="687.425" cy="-1306.41" rx="35" ry="35"/>
<text text-anchor="start" x="737.425" y="-1302.41" font-family="Times Roman,serif" font-size="15.00">Enstar Natural Gas</text>
</g>
<g id="38371" class="node">
<ellipse fill="#ffffff" stroke="cadetblue" stroke-width="10" cx="1181.91" cy="-259.831" rx="36" ry="36.5"/>
<image xlink:href="com_images/cunknown_oil_co.png" width="72px" height="72px" preserveAspectRatio="xMinYMin meet" x="1145.91" y="-295.831"/>
<ellipse fill="none" stroke="cadetblue" stroke-width="10" cx="1181.91" cy="-259.831" rx="36" ry="36.5"/>
<text text-anchor="start" x="1232.91" y="-255.831" font-family="Times Roman,serif" font-size="15.00">OWNER</text>
</g>
<g id="1991" class="node">
<ellipse fill="#ffffff" stroke="cadetblue" stroke-width="10" cx="462.255" cy="-37.5" rx="36" ry="36.5"/>
<image xlink:href="com_images/cunknown_oil_co.png" width="72px" height="72px" preserveAspectRatio="xMinYMin meet" x="426.255" y="-73.5"/>
<ellipse fill="none" stroke="cadetblue" stroke-width="10" cx="462.255" cy="-37.5" rx="36" ry="36.5"/>
<text text-anchor="start" x="513.255" y="-33.5" font-family="Times Roman,serif" font-size="15.00">Gas Station Operator</text>
</g>
<g id="39357" class="node">
<ellipse fill="#ffffff" stroke="cadetblue" stroke-width="10" cx="1121.31" cy="-1248.31" rx="36" ry="36.5"/>
<image xlink:href="com_images/cunknown_oil_co.png" width="72px" height="72px" preserveAspectRatio="xMinYMin meet" x="1085.31" y="-1284.31"/>
<ellipse fill="none" stroke="cadetblue" stroke-width="10" cx="1121.31" cy="-1248.31" rx="36" ry="36.5"/>
<text text-anchor="start" x="1172.31" y="-1244.31" font-family="Times Roman,serif" font-size="15.00">HAWK CONSULTANTS</text>
</g>
<g id="39472" class="node">
<ellipse fill="#ffffff" stroke="cadetblue" stroke-width="10" cx="1308.1" cy="-1076.33" rx="37" ry="37.5"/>
<image xlink:href="com_images/cunknown_oil_co.png" width="74px" height="74px" preserveAspectRatio="xMinYMin meet" x="1271.1" y="-1113.33"/>
<ellipse fill="none" stroke="cadetblue" stroke-width="10" cx="1308.1" cy="-1076.33" rx="37" ry="37.5"/>
<text text-anchor="start" x="1360.1" y="-1072.33" font-family="Times Roman,serif" font-size="15.00">NINE STAR ENTERPRISES</text>
</g>
<g id="8800" class="node">
<polygon fill="#ffffff" stroke="#3333cc" stroke-width="10" points="1561.31,-821.206 1493.31,-821.206 1493.31,-752.206 1561.31,-752.206 1561.31,-821.206"/>
<image xlink:href="can_images/8800.jpg" width="51.52px" height="69px" preserveAspectRatio="xMinYMin meet" x="1501.55" y="-821.206"/>
<polygon fill="none" stroke="#3333cc" stroke-width="10" points="1561.31,-821.206 1493.31,-821.206 1493.31,-752.206 1561.31,-752.206 1561.31,-821.206"/>
<text text-anchor="middle" x="1527.31" y="-782.706" font-family="Times Roman,serif" font-size="15.00">Bill Wielechowski</text>
</g>
<g id="2245" class="node">
<polygon fill="#ffffff" stroke="#3333cc" stroke-width="10" points="537.737,-414.036 465.737,-414.036 465.737,-341.036 537.737,-341.036 537.737,-414.036"/>
<image xlink:href="can_images/2245.jpg" width="54.5067px" height="73px" preserveAspectRatio="xMinYMin meet" x="474.484" y="-414.036"/>
<polygon fill="none" stroke="#3333cc" stroke-width="10" points="537.737,-414.036 465.737,-414.036 465.737,-341.036 537.737,-341.036 537.737,-414.036"/>
<text text-anchor="middle" x="501.737" y="-373.536" font-family="Times Roman,serif" font-size="15.00">Dennis Egan</text>
</g>
<g id="39350" class="node">
<ellipse fill="#ffffff" stroke="cadetblue" stroke-width="10" cx="720.568" cy="-1213.44" rx="43" ry="43"/>
<image xlink:href="com_images/c39350.png" width="86px" height="86px" preserveAspectRatio="xMinYMin meet" x="677.568" y="-1256.44"/>
<ellipse fill="none" stroke="cadetblue" stroke-width="10" cx="720.568" cy="-1213.44" rx="43" ry="43"/>
<text text-anchor="start" x="778.568" y="-1209.44" font-family="Times Roman,serif" font-size="15.00">CONAM CONSTRUCTION</text>
</g>
<g id="5460" class="node">
<ellipse fill="#ffffff" stroke="cadetblue" stroke-width="10" cx="670.457" cy="-1034.25" rx="48" ry="48.5"/>
<image xlink:href="com_images/c185.png" width="96px" height="96px" preserveAspectRatio="xMinYMin meet" x="622.457" y="-1082.25"/>
<ellipse fill="none" stroke="cadetblue" stroke-width="10" cx="670.457" cy="-1034.25" rx="48" ry="48.5"/>
<text text-anchor="start" x="733.457" y="-1030.25" font-family="Times Roman,serif" font-size="15.00">Tesoro Petroleum</text>
</g>
<g id="4171" class="node">
<polygon fill="#ffffff" stroke="#cc3333" stroke-width="10" points="446.797,-646.44 358.797,-646.44 358.797,-557.44 446.797,-557.44 446.797,-646.44"/>
<image xlink:href="can_images/4171.jpg" width="62.3px" height="89px" preserveAspectRatio="xMinYMin meet" x="371.647" y="-646.44"/>
<polygon fill="none" stroke="#cc3333" stroke-width="10" points="446.797,-646.44 358.797,-646.44 358.797,-557.44 446.797,-557.44 446.797,-646.44"/>
<text text-anchor="middle" x="402.797" y="-597.94" font-family="Times Roman,serif" font-size="15.00">Charlie Huggins</text>
</g>
<g id="671" class="node">
<ellipse fill="#ffffff" stroke="cadetblue" stroke-width="10" cx="1176.81" cy="-703.619" rx="51" ry="51"/>
<image xlink:href="com_images/c671.png" width="102px" height="102px" preserveAspectRatio="xMinYMin meet" x="1125.81" y="-754.619"/>
<ellipse fill="none" stroke="cadetblue" stroke-width="10" cx="1176.81" cy="-703.619" rx="51" ry="51"/>
<text text-anchor="start" x="1242.81" y="-699.619" font-family="Times Roman,serif" font-size="15.00">BP</text>
</g>
<g id="2231" class="node">
<polygon fill="#ffffff" stroke="#3333cc" stroke-width="10" points="447.485,-868.138 343.485,-868.138 343.485,-763.138 447.485,-763.138 447.485,-868.138"/>
<image xlink:href="can_images/2231.jpg" width="78.4px" height="105px" preserveAspectRatio="xMinYMin meet" x="356.285" y="-868.138"/>
<polygon fill="none" stroke="#3333cc" stroke-width="10" points="447.485,-868.138 343.485,-868.138 343.485,-763.138 447.485,-763.138 447.485,-868.138"/>
<text text-anchor="middle" x="395.485" y="-811.638" font-family="Times Roman,serif" font-size="15.00">Lyman Hoffman</text>
</g>
<g id="8406" class="node">
<polygon fill="#ffffff" stroke="#3333cc" stroke-width="10" points="971.885,-533.647 863.885,-533.647 863.885,-424.647 971.885,-424.647 971.885,-533.647"/>
<image xlink:href="can_images/8406.jpg" width="79.2727px" height="109px" preserveAspectRatio="xMinYMin meet" x="878.249" y="-533.647"/>
<polygon fill="none" stroke="#3333cc" stroke-width="10" points="971.885,-533.647 863.885,-533.647 863.885,-424.647 971.885,-424.647 971.885,-533.647"/>
<text text-anchor="middle" x="917.885" y="-475.147" font-family="Times Roman,serif" font-size="15.00">Joe Thomas</text>
</g>
<g id="4165" class="node">
<polygon fill="#ffffff" stroke="#cc3333" stroke-width="10" points="519.639,-1114.55 389.639,-1114.55 389.639,-984.55 519.639,-984.55 519.639,-1114.55"/>
<polygon fill="none" stroke="#cc3333" stroke-width="10" points="519.639,-1114.55 389.639,-1114.55 389.639,-984.55 519.639,-984.55 519.639,-1114.55"/>
<text text-anchor="middle" x="454.639" y="-1045.55" font-family="Times Roman,serif" font-size="15.00">Lesil McGuire</text>
</g>
<g id="39514" class="node">
<ellipse fill="#ffffff" stroke="cadetblue" stroke-width="10" cx="699.903" cy="-797.949" rx="75" ry="75.5"/>
<image xlink:href="com_images/c39514.png" width="150px" height="150px" preserveAspectRatio="xMinYMin meet" x="624.903" y="-872.949"/>
<ellipse fill="none" stroke="cadetblue" stroke-width="10" cx="699.903" cy="-797.949" rx="75" ry="75.5"/>
<text text-anchor="start" x="789.903" y="-793.949" font-family="Times Roman,serif" font-size="15.00">UDELHOVEN OIL</text>
</g>
<g id="1137" class="node">
<ellipse fill="#ffffff" stroke="cadetblue" stroke-width="10" cx="665.231" cy="-707.326" rx="80" ry="80"/>
<image xlink:href="com_images/c92.png" width="160px" height="160px" preserveAspectRatio="xMinYMin meet" x="585.231" y="-787.326"/>
<ellipse fill="none" stroke="cadetblue" stroke-width="10" cx="665.231" cy="-707.326" rx="80" ry="80"/>
<text text-anchor="start" x="760.231" y="-703.326" font-family="Times Roman,serif" font-size="15.00">ConocoPhillips</text>
</g>
<g id="145304" class="node">
<polygon fill="#ffffff" stroke="#cc3333" stroke-width="10" points="1013.02,-1086.48 869.023,-1086.48 869.023,-942.482 1013.02,-942.482 1013.02,-1086.48"/>
<image xlink:href="can_images/145304.jpg" width="116.911px" height="144px" preserveAspectRatio="xMinYMin meet" x="882.568" y="-1086.48"/>
<polygon fill="none" stroke="#cc3333" stroke-width="10" points="1013.02,-1086.48 869.023,-1086.48 869.023,-942.482 1013.02,-942.482 1013.02,-1086.48"/>
<text text-anchor="middle" x="941.023" y="-1010.48" font-family="Times Roman,serif" font-size="15.00">Cathy Giessel</text>
</g>
</g>
</svg>
