<svg width="96000px" height="94749px"
  xmlns="http://www.w3.org/2000/svg" xmlns:xlink="http://www.w3.org/1999/xlink">
<g id="graph0" class="graph" transform="scale(114.567 114.567) rotate(0) translate(4 823.011)">

<polygon id='svgscreen' style="opacity:0;" fill="#ffffff" stroke="#ffffff" points="-4,5 -4,-823.011 834.934,-823.011 834.934,5 -4,5"/>
<g id="4387_951" class="edge">
<path fill="none" stroke="#999999" stroke-width="5" d="M385.408,-334.822C372.397,-303.156 357.544,-267.006 345.67,-238.105"/>
<polygon fill="#999999" stroke="#999999" points="357.723,-232.906 334.182,-210.145 333.443,-242.882 357.723,-232.906"/>
</g>
<g id="8212_951" class="edge">
<path fill="none" stroke="#999999" stroke-width="15.2238" d="M335.15,-404.478C261.217,-399.613 153.765,-392.543 87.9287,-388.21"/>
<polygon fill="#999999" stroke="#999999" points="90.251,-348.314 57.6917,-386.221 85.003,-428.067 90.251,-348.314"/>
</g>
<g id="8944_951" class="edge">
<path fill="none" stroke="#999999" stroke-width="15.5882" d="M492.273,-438.709C560.551,-464.652 659.3,-502.172 721.282,-525.722"/>
<polygon fill="#999999" stroke="#999999" points="707.029,-564.08 749.607,-536.484 736.097,-487.578 707.029,-564.08"/>
</g>
<g id="3239_951" class="edge">
<path fill="none" stroke="#999999" stroke-width="16.3169" d="M465.423,-474.662C508.432,-531.347 570.129,-612.663 610.364,-665.692"/>
<polygon fill="#999999" stroke="#999999" points="576.47,-691.882 628.725,-689.892 644.714,-640.103 576.47,-691.882"/>
</g>
<g id="4419_951" class="edge">
<path fill="none" stroke="#999999" stroke-width="16.3169" d="M433.596,-489.026C449.2,-560.154 471.748,-662.943 485.78,-726.909"/>
<polygon fill="#999999" stroke="#999999" points="443.995,-736.321 492.26,-756.447 527.669,-717.966 443.995,-736.321"/>
</g>
<g id="2497_951" class="edge">
<path fill="none" stroke="#999999" stroke-width="17.0456" d="M342.889,-444.571C277.399,-475.614 182.834,-520.439 123.017,-548.793"/>
<polygon fill="#999999" stroke="#999999" points="103.555,-508.501 95.6121,-561.783 141.886,-589.366 103.555,-508.501"/>
</g>
<g id="3249_951" class="edge">
<path fill="none" stroke="#999999" stroke-width="17.0456" d="M399.254,-330.296C383.945,-258.539 361.768,-154.593 347.956,-89.8553"/>
<polygon fill="#999999" stroke="#999999" points="391.68,-80.3526 341.661,-60.3493 304.161,-99.0253 391.68,-80.3526"/>
</g>
<g id="4458_951" class="edge">
<path fill="none" stroke="#999999" stroke-width="18.8674" d="M343.878,-372.883C284.555,-342.599 201.739,-300.323 147.095,-272.428"/>
<polygon fill="#999999" stroke="#999999" points="169.552,-228.285 120.314,-258.756 124.515,-316.508 169.552,-228.285"/>
</g>
<g id="3256_951" class="edge">
<path fill="none" stroke="#999999" stroke-width="20.3248" d="M497.383,-404.076C569.507,-398.979 673.312,-391.643 738.393,-387.044"/>
<polygon fill="#999999" stroke="#999999" points="742.359,-440.249 768.523,-384.915 734.837,-333.81 742.359,-440.249"/>
</g>
<g id="2502_951" class="edge">
<path fill="none" stroke="#999999" stroke-width="21.7822" d="M336.431,-424.676C301.547,-431.175 261.326,-438.668 229.097,-444.672"/>
<polygon fill="#999999" stroke="#999999" points="218.515,-388.482 199.495,-450.187 239.46,-500.904 218.515,-388.482"/>
</g>
<g id="2504_951" class="edge">
<path fill="none" stroke="#999999" stroke-width="21.7822" d="M408.204,-490.453C404.516,-527.561 400.213,-570.849 396.806,-605.129"/>
<polygon fill="#999999" stroke="#999999" points="339.905,-599.506 393.836,-635.015 453.701,-610.817 339.905,-599.506"/>
</g>
<g id="8193_951" class="edge">
<path fill="none" stroke="#999999" stroke-width="24.6971" d="M432.793,-330.16C446.601,-263.797 465.981,-170.656 478.593,-110.045"/>
<polygon fill="#999999" stroke="#999999" points="542.104,-123.057 484.745,-80.4795 415.163,-96.6438 542.104,-123.057"/>
</g>
<g id="4385_951" class="edge">
<path fill="none" stroke="#999999" stroke-width="25.7901" d="M363.697,-347.716C319.604,-295.586 257.213,-221.824 214.94,-171.846"/>
<polygon fill="#999999" stroke="#999999" points="266.485,-127.955 195.422,-148.77 163.107,-215.395 266.485,-127.955"/>
</g>
<g id="7943_951" class="edge">
<path fill="none" stroke="#999999" stroke-width="40" d="M460.376,-341.694C494.57,-288.947 541.511,-216.534 574.493,-165.655"/>
<polygon fill="#999999" stroke="#999999" points="662.778,-222.496 590.99,-140.208 486.564,-108.266 662.778,-222.496"/>
</g>
<g id="4452_951" class="edge">
<path fill="none" stroke="#999999" stroke-width="40" d="M391.848,-487.488C370.441,-555.717 339.661,-653.821 319.57,-717.855"/>
<polygon fill="#999999" stroke="#999999" points="219.322,-686.622 310.526,-746.68 419.692,-749.489 219.322,-686.622"/>
</g>
<g id="4427_951" class="edge">
<path fill="none" stroke="#999999" stroke-width="40" d="M491.202,-379.12C522.049,-366.494 557.388,-352.029 586.9,-339.95"/>
<polygon fill="#999999" stroke="#999999" points="627.123,-436.941 615.112,-328.402 547.572,-242.592 627.123,-436.941"/>
</g>
<g id="142153_951" class="edge">
<path fill="none" stroke="#999999" stroke-width="40" d="M362.546,-470.812C321.306,-517.681 264.719,-581.993 224.132,-628.12"/>
<polygon fill="#999999" stroke="#999999" points="145.245,-558.825 204.256,-650.708 302.903,-697.547 145.245,-558.825"/>
</g>
<g id="142304_951" class="edge">
<path fill="none" stroke="#999999" stroke-width="40" d="M481.064,-458.414C510.824,-480.719 545.872,-506.988 574.934,-528.77"/>
<polygon fill="#999999" stroke="#999999" points="512.153,-612.934 599.132,-546.907 638.1,-444.895 512.153,-612.934"/>
</g>
<g id="8958_951" class="edge">
<path fill="none" stroke="#999999" stroke-width="40" d="M484.003,-364.969C542.238,-326.442 625.414,-271.416 681.317,-234.432"/>
<polygon fill="#999999" stroke="#999999" points="739.255,-322 706.341,-217.877 623.387,-146.859 739.255,-322"/>
</g>
<g id="4387" class="node">
<polygon fill="#ffffff" stroke="#cc3333" stroke-width="10" points="348.689,-210.108 298.689,-210.108 298.689,-159.108 348.689,-159.108 348.689,-210.108"/>
<image xlink:href="can_images/unknownCandidate.jpg" width="50px" height="50px" preserveAspectRatio="xMinYMin meet" x="298.689" y="-209.608"/>
<polygon fill="none" stroke="#cc3333" stroke-width="10" points="348.689,-210.108 298.689,-210.108 298.689,-159.108 348.689,-159.108 348.689,-210.108"/>
<text text-anchor="middle" x="323.689" y="-180.608" font-family="Times Roman,serif" font-size="15.00">Rick Keene</text>
</g>
<g id="8212" class="node">
<polygon fill="#ffffff" stroke="#3333cc" stroke-width="10" points="57.5,-412.866 1.5,-412.866 1.5,-355.866 57.5,-355.866 57.5,-412.866"/>
<image xlink:href="can_images/8212.jpg" width="46.2772px" height="57px" preserveAspectRatio="xMinYMin meet" x="6.36139" y="-412.866"/>
<polygon fill="none" stroke="#3333cc" stroke-width="10" points="57.5,-412.866 1.5,-412.866 1.5,-355.866 57.5,-355.866 57.5,-412.866"/>
<text text-anchor="middle" x="29.5" y="-380.366" font-family="Times Roman,serif" font-size="15.00">Kevin De León</text>
</g>
<g id="8944" class="node">
<polygon fill="#ffffff" stroke="#3333cc" stroke-width="10" points="808.016,-576.658 750.016,-576.658 750.016,-518.658 808.016,-518.658 808.016,-576.658"/>
<image xlink:href="can_images/8944.jpg" width="47.0891px" height="58px" preserveAspectRatio="xMinYMin meet" x="755.472" y="-576.658"/>
<polygon fill="none" stroke="#3333cc" stroke-width="10" points="808.016,-576.658 750.016,-576.658 750.016,-518.658 808.016,-518.658 808.016,-576.658"/>
<text text-anchor="middle" x="779.016" y="-543.658" font-family="Times Roman,serif" font-size="15.00">Mark DeSaulnier</text>
</g>
<g id="3239" class="node">
<polygon fill="#ffffff" stroke="#3333cc" stroke-width="10" points="679.934,-748.162 621.934,-748.162 621.934,-690.162 679.934,-690.162 679.934,-748.162"/>
<image xlink:href="can_images/3239.jpg" width="47.0891px" height="58px" preserveAspectRatio="xMinYMin meet" x="627.389" y="-748.162"/>
<polygon fill="none" stroke="#3333cc" stroke-width="10" points="679.934,-748.162 621.934,-748.162 621.934,-690.162 679.934,-690.162 679.934,-748.162"/>
<text text-anchor="middle" x="650.934" y="-715.162" font-family="Times Roman,serif" font-size="15.00">Gloria Negrete McLeod</text>
</g>
<g id="4419" class="node">
<polygon fill="#ffffff" stroke="#3333cc" stroke-width="10" points="527.632,-814.494 469.632,-814.494 469.632,-756.494 527.632,-756.494 527.632,-814.494"/>
<image xlink:href="can_images/4419.jpg" width="47.0891px" height="58px" preserveAspectRatio="xMinYMin meet" x="475.088" y="-814.494"/>
<polygon fill="none" stroke="#3333cc" stroke-width="10" points="527.632,-814.494 469.632,-814.494 469.632,-756.494 527.632,-756.494 527.632,-814.494"/>
<text text-anchor="middle" x="498.632" y="-781.494" font-family="Times Roman,serif" font-size="15.00">Leland Yee</text>
</g>
<g id="2497" class="node">
<polygon fill="#ffffff" stroke="#cc3333" stroke-width="10" points="95.4167,-605.122 37.4167,-605.122 37.4167,-546.122 95.4167,-546.122 95.4167,-605.122"/>
<image xlink:href="can_images/2497.jpg" width="47.901px" height="59px" preserveAspectRatio="xMinYMin meet" x="42.4662" y="-605.122"/>
<polygon fill="none" stroke="#cc3333" stroke-width="10" points="95.4167,-605.122 37.4167,-605.122 37.4167,-546.122 95.4167,-546.122 95.4167,-605.122"/>
<text text-anchor="middle" x="66.4167" y="-571.622" font-family="Times Roman,serif" font-size="15.00">Tom Berryhill</text>
</g>
<g id="3249" class="node">
<polygon fill="#ffffff" stroke="#cc3333" stroke-width="10" points="364.292,-60 306.292,-60 306.292,-1 364.292,-1 364.292,-60"/>
<image xlink:href="can_images/3249.jpg" width="49.0536px" height="59px" preserveAspectRatio="xMinYMin meet" x="310.765" y="-60"/>
<polygon fill="none" stroke="#cc3333" stroke-width="10" points="364.292,-60 306.292,-60 306.292,-1 364.292,-1 364.292,-60"/>
<text text-anchor="middle" x="335.292" y="-26.5" font-family="Times Roman,serif" font-size="15.00">Joel Anderson</text>
</g>
<g id="4458" class="node">
<polygon fill="#ffffff" stroke="#cc3333" stroke-width="10" points="120.26,-273.414 60.2596,-273.414 60.2596,-213.414 120.26,-213.414 120.26,-273.414"/>
<image xlink:href="can_images/4458.jpg" width="48.7129px" height="60px" preserveAspectRatio="xMinYMin meet" x="65.9032" y="-273.414"/>
<polygon fill="none" stroke="#cc3333" stroke-width="10" points="120.26,-273.414 60.2596,-273.414 60.2596,-213.414 120.26,-213.414 120.26,-273.414"/>
<text text-anchor="middle" x="90.2596" y="-239.414" font-family="Times Roman,serif" font-size="15.00">Doug La Malfa</text>
</g>
<g id="3256" class="node">
<polygon fill="#ffffff" stroke="#3333cc" stroke-width="10" points="828.934,-412.765 768.934,-412.765 768.934,-352.765 828.934,-352.765 828.934,-412.765"/>
<image xlink:href="can_images/3256.jpg" width="48.7129px" height="60px" preserveAspectRatio="xMinYMin meet" x="774.578" y="-412.765"/>
<polygon fill="none" stroke="#3333cc" stroke-width="10" points="828.934,-412.765 768.934,-412.765 768.934,-352.765 828.934,-352.765 828.934,-412.765"/>
<text text-anchor="middle" x="798.934" y="-378.765" font-family="Times Roman,serif" font-size="15.00">Darrell Steinberg</text>
</g>
<g id="2502" class="node">
<polygon fill="#ffffff" stroke="#3333cc" stroke-width="10" points="199.419,-486.29 139.419,-486.29 139.419,-425.29 199.419,-425.29 199.419,-486.29"/>
<image xlink:href="can_images/2502.jpg" width="49.5248px" height="61px" preserveAspectRatio="xMinYMin meet" x="144.657" y="-486.29"/>
<polygon fill="none" stroke="#3333cc" stroke-width="10" points="199.419,-486.29 139.419,-486.29 139.419,-425.29 199.419,-425.29 199.419,-486.29"/>
<text text-anchor="middle" x="169.419" y="-451.79" font-family="Times Roman,serif" font-size="15.00">Lou Correa</text>
</g>
<g id="2504" class="node">
<polygon fill="#ffffff" stroke="#3333cc" stroke-width="10" points="420.777,-696.289 360.777,-696.289 360.777,-635.289 420.777,-635.289 420.777,-696.289"/>
<image xlink:href="can_images/2504.jpg" width="49.5248px" height="61px" preserveAspectRatio="xMinYMin meet" x="366.015" y="-696.289"/>
<polygon fill="none" stroke="#3333cc" stroke-width="10" points="420.777,-696.289 360.777,-696.289 360.777,-635.289 420.777,-635.289 420.777,-696.289"/>
<text text-anchor="middle" x="390.777" y="-661.789" font-family="Times Roman,serif" font-size="15.00">Roderick Wright</text>
</g>
<g id="8193" class="node">
<polygon fill="#ffffff" stroke="#3333cc" stroke-width="10" points="522.317,-80.3909 460.317,-80.3909 460.317,-17.3909 522.317,-17.3909 522.317,-80.3909"/>
<image xlink:href="can_images/8193.jpg" width="62px" height="26.386px" preserveAspectRatio="xMinYMin meet" x="460.317" y="-62.0839"/>
<polygon fill="none" stroke="#3333cc" stroke-width="10" points="522.317,-80.3909 460.317,-80.3909 460.317,-17.3909 522.317,-17.3909 522.317,-80.3909"/>
<text text-anchor="middle" x="491.317" y="-44.8909" font-family="Times Roman,serif" font-size="15.00">Alex Padilla</text>
</g>
<g id="4385" class="node">
<polygon fill="#ffffff" stroke="#3333cc" stroke-width="10" points="199.557,-148.509 137.557,-148.509 137.557,-85.5087 199.557,-85.5087 199.557,-148.509"/>
<image xlink:href="can_images/4385.jpg" width="51.1485px" height="63px" preserveAspectRatio="xMinYMin meet" x="142.983" y="-148.509"/>
<polygon fill="none" stroke="#3333cc" stroke-width="10" points="199.557,-148.509 137.557,-148.509 137.557,-85.5087 199.557,-85.5087 199.557,-148.509"/>
<text text-anchor="middle" x="168.557" y="-113.009" font-family="Times Roman,serif" font-size="15.00">Ron Calderon</text>
</g>
<g id="7943" class="node">
<polygon fill="#ffffff" stroke="#cc3333" stroke-width="10" points="649.078,-140.091 579.078,-140.091 579.078,-69.091 649.078,-69.091 649.078,-140.091"/>
<image xlink:href="can_images/7943.jpg" width="57.6436px" height="71px" preserveAspectRatio="xMinYMin meet" x="585.256" y="-140.091"/>
<polygon fill="none" stroke="#cc3333" stroke-width="10" points="649.078,-140.091 579.078,-140.091 579.078,-69.091 649.078,-69.091 649.078,-140.091"/>
<text text-anchor="middle" x="614.078" y="-100.591" font-family="Times Roman,serif" font-size="15.00">Jean Fuller</text>
</g>
<g id="4452" class="node">
<polygon fill="#ffffff" stroke="#cc3333" stroke-width="10" points="334.284,-818.011 264.284,-818.011 264.284,-747.011 334.284,-747.011 334.284,-818.011"/>
<image xlink:href="can_images/4452.jpg" width="57.6436px" height="71px" preserveAspectRatio="xMinYMin meet" x="270.462" y="-818.011"/>
<polygon fill="none" stroke="#cc3333" stroke-width="10" points="334.284,-818.011 264.284,-818.011 264.284,-747.011 334.284,-747.011 334.284,-818.011"/>
<text text-anchor="middle" x="299.284" y="-778.511" font-family="Times Roman,serif" font-size="15.00">Mark Wyland</text>
</g>
<g id="4427" class="node">
<polygon fill="#ffffff" stroke="#3333cc" stroke-width="10" points="685.152,-349.559 615.152,-349.559 615.152,-278.559 685.152,-278.559 685.152,-349.559"/>
<image xlink:href="can_images/4427.jpg" width="57.6436px" height="71px" preserveAspectRatio="xMinYMin meet" x="621.33" y="-349.559"/>
<polygon fill="none" stroke="#3333cc" stroke-width="10" points="685.152,-349.559 615.152,-349.559 615.152,-278.559 685.152,-278.559 685.152,-349.559"/>
<text text-anchor="middle" x="650.152" y="-310.059" font-family="Times Roman,serif" font-size="15.00">Juan Vargas</text>
</g>
<g id="142153" class="node">
<polygon fill="#ffffff" stroke="#3333cc" stroke-width="10" points="208.015,-721.714 138.015,-721.714 138.015,-650.714 208.015,-650.714 208.015,-721.714"/>
<image xlink:href="can_images/142153.jpg" width="57.6436px" height="71px" preserveAspectRatio="xMinYMin meet" x="144.193" y="-721.714"/>
<polygon fill="none" stroke="#3333cc" stroke-width="10" points="208.015,-721.714 138.015,-721.714 138.015,-650.714 208.015,-650.714 208.015,-721.714"/>
<text text-anchor="middle" x="173.015" y="-682.214" font-family="Times Roman,serif" font-size="15.00">Michael Rubio</text>
</g>
<g id="142304" class="node">
<polygon fill="#ffffff" stroke="#cc3333" stroke-width="10" points="669.313,-608.775 599.313,-608.775 599.313,-537.775 669.313,-537.775 669.313,-608.775"/>
<image xlink:href="can_images/142304.jpg" width="50.7048px" height="71px" preserveAspectRatio="xMinYMin meet" x="608.961" y="-608.775"/>
<polygon fill="none" stroke="#cc3333" stroke-width="10" points="669.313,-608.775 599.313,-608.775 599.313,-537.775 669.313,-537.775 669.313,-608.775"/>
<text text-anchor="middle" x="634.313" y="-569.275" font-family="Times Roman,serif" font-size="15.00">Anthony Cannella</text>
</g>
<g id="8958" class="node">
<polygon fill="#ffffff" stroke="#3333cc" stroke-width="10" points="776.453,-230.148 706.453,-230.148 706.453,-159.148 776.453,-159.148 776.453,-230.148"/>
<image xlink:href="can_images/8958.jpg" width="57.6436px" height="71px" preserveAspectRatio="xMinYMin meet" x="712.632" y="-230.148"/>
<polygon fill="none" stroke="#3333cc" stroke-width="10" points="776.453,-230.148 706.453,-230.148 706.453,-159.148 776.453,-159.148 776.453,-230.148"/>
<text text-anchor="middle" x="741.453" y="-190.648" font-family="Times Roman,serif" font-size="15.00">Ed Hernandez</text>
</g>
<g id="951" class="node">
<ellipse fill="#ffffff" stroke="cadetblue" stroke-width="10" cx="416.219" cy="-409.812" rx="81" ry="81"/>
<image xlink:href="com_images/c951.png" width="162px" height="162px" preserveAspectRatio="xMinYMin meet" x="335.219" y="-490.812"/>
<ellipse fill="none" stroke="cadetblue" stroke-width="10" cx="416.219" cy="-409.812" rx="81" ry="81"/>
<text text-anchor="start" x="512.219" y="-405.812" font-family="Times Roman,serif" font-size="15.00">Chevron Corp</text>
</g>
</g>
</svg>
