<svg width="866.52453125003px" height="1015px"
  xmlns="http://www.w3.org/2000/svg" xmlns:xlink="http://www.w3.org/1999/xlink">
<g id="graph0" class="graph" transform="scale(0.56249714062502 0.56249714062502) rotate(0) translate(4 1800.45)">

<polygon id='svgscreen' style="opacity:0;" fill="#ffffff" stroke="#ffffff" points="-4,5 -4,-1800.45 1537.5,-1800.45 1537.5,5 -4,5"/>
<g id="9616_1500" class="edge">
<path fill="none" stroke="#999999" stroke-width="12.5234" d="M1200.3,-63.1781C1181.78,-113.908 1144.08,-217.149 1120.14,-282.737"/>
<polygon fill="#999999" stroke="#999999" points="1089.18,-271.656 1109.78,-311.111 1150.94,-294.206 1089.18,-271.656"/>
</g>
<g id="2497_29806" class="edge">
<path fill="none" stroke="#999999" stroke-width="12.5234" d="M65.0683,-1293.25C126.108,-1289.82 260.169,-1282.31 341.756,-1277.73"/>
<polygon fill="#999999" stroke="#999999" points="343.804,-1310.54 371.916,-1276.04 340.122,-1244.9 343.804,-1310.54"/>
</g>
<g id="15345_29851" class="edge">
<path fill="none" stroke="#999999" stroke-width="13.014" d="M249.008,-300.159C283.556,-339.133 352.654,-417.083 398.989,-469.354"/>
<polygon fill="#999999" stroke="#999999" points="373.599,-492.211 419.063,-491.999 424.726,-446.889 373.599,-492.211"/>
</g>
<g id="7943_32722" class="edge">
<path fill="none" stroke="#999999" stroke-width="15.4673" d="M1449.12,-845.34C1386.04,-854.959 1246.35,-876.259 1154.35,-890.288"/>
<polygon fill="#999999" stroke="#999999" points="1148.12,-850.167 1124.58,-894.827 1160.36,-930.442 1148.12,-850.167"/>
</g>
<g id="142153_37871" class="edge">
<path fill="none" stroke="#999999" stroke-width="15.4673" d="M1464.86,-1006.52C1401.41,-1007.47 1260.88,-1009.57 1168.37,-1010.96"/>
<polygon fill="#999999" stroke="#999999" points="1167.53,-970.362 1138.14,-1011.41 1168.75,-1051.56 1167.53,-970.362"/>
</g>
<g id="9615_30234" class="edge">
<path fill="none" stroke="#999999" stroke-width="15.4673" d="M1118.36,-1730.16C1100.21,-1675.81 1062.69,-1563.45 1037.07,-1486.71"/>
<polygon fill="#999999" stroke="#999999" points="1075.5,-1473.6 1027.48,-1458 998.474,-1499.32 1075.5,-1473.6"/>
</g>
<g id="4438_30529" class="edge">
<path fill="none" stroke="#999999" stroke-width="20.3738" d="M1155.82,-745.652C1060.73,-756.143 801.786,-784.71 680.651,-798.074"/>
<polygon fill="#999999" stroke="#999999" points="674.67,-744.928 650.715,-801.377 686.399,-851.246 674.67,-744.928"/>
</g>
<g id="2504_30529" class="edge">
<path fill="none" stroke="#999999" stroke-width="13.8318" d="M1170.74,-770.876C1140.14,-813.28 1082.21,-893.554 1037.85,-955.022"/>
<polygon fill="#999999" stroke="#999999" points="1008.2,-934.055 1020.09,-979.629 1067.09,-976.55 1008.2,-934.055"/>
</g>
<g id="7943_38887" class="edge">
<path fill="none" stroke="#999999" stroke-width="24.9533" d="M1384.37,-704.679C1332.02,-737.45 1225.7,-804.01 1150.47,-851.113"/>
<polygon fill="#999999" stroke="#999999" points="1115.47,-795.743 1124.8,-867.182 1184.99,-906.782 1115.47,-795.743"/>
</g>
<g id="8958_38974" class="edge">
<path fill="none" stroke="#999999" stroke-width="15.4673" d="M1303.87,-1246.45C1277.98,-1192.93 1226.78,-1087.11 1192.98,-1017.26"/>
<polygon fill="#999999" stroke="#999999" points="1229.31,-999.112 1179.69,-989.791 1156.21,-1034.48 1229.31,-999.112"/>
</g>
<g id="142304_38974" class="edge">
<path fill="none" stroke="#999999" stroke-width="15.4673" d="M1291.49,-1256.01C1259.73,-1229.39 1207.44,-1185.57 1165.71,-1150.6"/>
<polygon fill="#999999" stroke="#999999" points="1191.67,-1119.38 1142.6,-1131.23 1139.52,-1181.62 1191.67,-1119.38"/>
</g>
<g id="9615_38974" class="edge">
<path fill="none" stroke="#999999" stroke-width="15.4673" d="M1285.79,-1294.09C1238.56,-1313.51 1152.18,-1349.02 1088.75,-1375.1"/>
<polygon fill="#999999" stroke="#999999" points="1072.89,-1337.72 1060.58,-1386.68 1103.76,-1412.83 1072.89,-1337.72"/>
</g>
<g id="2504_38974" class="edge">
<path fill="none" stroke="#999999" stroke-width="15.4673" d="M1289.75,-1258.49C1238.95,-1222.49 1134.99,-1148.82 1061.14,-1096.49"/>
<polygon fill="#999999" stroke="#999999" points="1084.36,-1063.19 1036.41,-1078.97 1037.41,-1129.44 1084.36,-1063.19"/>
</g>
<g id="4458_32671" class="edge">
<path fill="none" stroke="#999999" stroke-width="17.1028" d="M1237.38,-616.245C1189.43,-588.061 1098.1,-534.382 1038.45,-499.321"/>
<polygon fill="#999999" stroke="#999999" points="1061.03,-460.516 1012.42,-484.019 1015.53,-537.925 1061.03,-460.516"/>
</g>
<g id="8212_32671" class="edge">
<path fill="none" stroke="#999999" stroke-width="15.4673" d="M1236.15,-618.09C1173.03,-585.879 1034.72,-515.3 953.936,-474.075"/>
<polygon fill="#999999" stroke="#999999" points="972.199,-437.812 927.022,-460.341 935.288,-510.142 972.199,-437.812"/>
</g>
<g id="142153_32671" class="edge">
<path fill="none" stroke="#999999" stroke-width="17.1028" d="M1252.69,-668.162C1223.9,-725.564 1163.91,-845.171 1122.82,-927.092"/>
<polygon fill="#999999" stroke="#999999" points="1082.61,-907.126 1109.29,-954.07 1162.87,-947.383 1082.61,-907.126"/>
</g>
<g id="8958_4486" class="edge">
<path fill="none" stroke="#999999" stroke-width="15.4673" d="M1289.08,-1303.8C1265.48,-1238.95 1215.51,-1101.59 1185.15,-1018.17"/>
<polygon fill="#999999" stroke="#999999" points="1223.26,-1004.16 1174.85,-989.852 1146.95,-1031.93 1223.26,-1004.16"/>
</g>
<g id="142304_4486" class="edge">
<path fill="none" stroke="#999999" stroke-width="15.4673" d="M1277.96,-1310.51C1247.68,-1273.84 1194.96,-1210.02 1154.98,-1161.61"/>
<polygon fill="#999999" stroke="#999999" points="1186.1,-1135.53 1135.69,-1138.26 1123.49,-1187.25 1186.1,-1135.53"/>
</g>
<g id="9615_4486" class="edge">
<path fill="none" stroke="#999999" stroke-width="16.285" d="M1264.96,-1348.46C1221.17,-1358.58 1147.22,-1375.67 1090.3,-1388.82"/>
<polygon fill="#999999" stroke="#999999" points="1080.34,-1347.25 1060.73,-1395.65 1099.59,-1430.55 1080.34,-1347.25"/>
</g>
<g id="142153_4486" class="edge">
<path fill="none" stroke="#999999" stroke-width="17.1028" d="M1280.7,-1308.14C1247.68,-1259.45 1183.4,-1164.64 1136.47,-1095.43"/>
<polygon fill="#999999" stroke="#999999" points="1173.43,-1069.94 1119.44,-1070.31 1099.12,-1120.33 1173.43,-1069.94"/>
</g>
<g id="9047_4957" class="edge">
<path fill="none" stroke="#999999" stroke-width="13.8318" d="M420.966,-1497.99C457.167,-1459.87 523.746,-1389.76 575.751,-1334.99"/>
<polygon fill="#999999" stroke="#999999" points="602.327,-1359.73 596.657,-1312.98 549.67,-1309.73 602.327,-1359.73"/>
</g>
<g id="4439_4957" class="edge">
<path fill="none" stroke="#999999" stroke-width="26.0981" d="M410.797,-1491.11C437.549,-1433.81 491.79,-1317.63 529.002,-1237.93"/>
<polygon fill="#999999" stroke="#999999" points="591.123,-1266.81 541.739,-1210.64 466.972,-1208.85 591.123,-1266.81"/>
</g>
<g id="8958_538" class="edge">
<path fill="none" stroke="#999999" stroke-width="15.4673" d="M1292.23,-1140.1C1269.77,-1107.65 1234.03,-1056.04 1205.38,-1014.67"/>
<polygon fill="#999999" stroke="#999999" points="1238.67,-991.427 1188.21,-989.877 1171.91,-1037.66 1238.67,-991.427"/>
</g>
<g id="9615_538" class="edge">
<path fill="none" stroke="#999999" stroke-width="15.4673" d="M1283.75,-1194.93C1237.7,-1230.72 1148.55,-1300.01 1084.59,-1349.7"/>
<polygon fill="#999999" stroke="#999999" points="1059.39,-1317.87 1060.62,-1368.34 1109.22,-1381.99 1059.39,-1317.87"/>
</g>
<g id="7943_538" class="edge">
<path fill="none" stroke="#999999" stroke-width="15.4673" d="M1287.94,-1143.31C1253.3,-1105.83 1190.61,-1038 1140.76,-984.047"/>
<polygon fill="#999999" stroke="#999999" points="1170.47,-956.38 1120.29,-961.904 1110.84,-1011.49 1170.47,-956.38"/>
</g>
<g id="2504_538" class="edge">
<path fill="none" stroke="#999999" stroke-width="15.4673" d="M1278.34,-1157.27C1227.83,-1137.15 1133.82,-1099.71 1064.42,-1072.06"/>
<polygon fill="#999999" stroke="#999999" points="1079.28,-1034.28 1036.38,-1060.89 1049.23,-1109.71 1079.28,-1034.28"/>
</g>
<g id="142153_538" class="edge">
<path fill="none" stroke="#999999" stroke-width="15.4673" d="M1282.41,-1149.99C1252.03,-1129.31 1204.72,-1097.11 1163.5,-1069.05"/>
<polygon fill="#999999" stroke="#999999" points="1186.14,-1035.35 1138.49,-1052.03 1140.45,-1102.47 1186.14,-1035.35"/>
</g>
<g id="7941_671" class="edge">
<path fill="none" stroke="#999999" stroke-width="14.6495" d="M879.897,-1427.51C831.492,-1458.27 739.464,-1516.75 678.25,-1555.65"/>
<polygon fill="#999999" stroke="#999999" points="657.257,-1523.43 652.561,-1571.97 698.506,-1588.34 657.257,-1523.43"/>
</g>
<g id="28721_671" class="edge">
<path fill="none" stroke="#999999" stroke-width="15.4673" d="M896.092,-1371.8C867.959,-1310.86 809.542,-1184.31 772.222,-1103.47"/>
<polygon fill="#999999" stroke="#999999" points="809.075,-1086.43 759.638,-1076.21 735.348,-1120.46 809.075,-1086.43"/>
</g>
<g id="9047_671" class="edge">
<path fill="none" stroke="#999999" stroke-width="15.4673" d="M879.029,-1387.97C842.096,-1366.93 781.131,-1332.2 731.321,-1303.83"/>
<polygon fill="#999999" stroke="#999999" points="751.183,-1268.42 705.019,-1288.85 710.991,-1338.98 751.183,-1268.42"/>
</g>
<g id="4439_671" class="edge">
<path fill="none" stroke="#999999" stroke-width="14.6495" d="M881.446,-1384.29C829.505,-1346.2 723.011,-1268.11 648.636,-1213.57"/>
<polygon fill="#999999" stroke="#999999" points="671.224,-1182.45 624.291,-1195.72 625.743,-1244.47 671.224,-1182.45"/>
</g>
<g id="2504_671" class="edge">
<path fill="none" stroke="#999999" stroke-width="15.4673" d="M919.107,-1368.8C929.273,-1311.82 948.711,-1202.86 962.51,-1125.52"/>
<polygon fill="#999999" stroke="#999999" points="1002.51,-1132.49 967.808,-1095.82 922.569,-1118.23 1002.51,-1132.49"/>
</g>
<g id="142153_671" class="edge">
<path fill="none" stroke="#999999" stroke-width="15.4673" d="M927.343,-1371.55C953.302,-1310.49 1007.23,-1183.66 1043.55,-1098.23"/>
<polygon fill="#999999" stroke="#999999" points="1080.98,-1113.96 1055.35,-1070.46 1006.25,-1082.18 1080.98,-1113.96"/>
</g>
<g id="8958_38179" class="edge">
<path fill="none" stroke="#999999" stroke-width="15.4673" d="M1302.08,-1081.64C1280.3,-1061.34 1249.67,-1032.78 1222.43,-1007.38"/>
<polygon fill="#999999" stroke="#999999" points="1249.78,-977.369 1200.15,-986.607 1194.4,-1036.76 1249.78,-977.369"/>
</g>
<g id="142304_38179" class="edge">
<path fill="none" stroke="#999999" stroke-width="15.4673" d="M1292.1,-1106.64C1259.43,-1104.92 1211.92,-1102.42 1172.49,-1100.35"/>
<polygon fill="#999999" stroke="#999999" points="1174.49,-1059.8 1142.4,-1098.77 1170.23,-1140.89 1174.49,-1059.8"/>
</g>
<g id="9615_38179" class="edge">
<path fill="none" stroke="#999999" stroke-width="15.4673" d="M1302.36,-1135.45C1253.35,-1181.1 1152.15,-1275.35 1082.81,-1339.94"/>
<polygon fill="#999999" stroke="#999999" points="1054.92,-1310.43 1060.64,-1360.59 1110.27,-1369.85 1054.92,-1310.43"/>
</g>
<g id="7943_38179" class="edge">
<path fill="none" stroke="#999999" stroke-width="15.4673" d="M1299.96,-1084.57C1263.03,-1055.96 1200.04,-1007.15 1148.78,-967.442"/>
<polygon fill="#999999" stroke="#999999" points="1173.31,-935.085 1124.73,-948.806 1123.58,-999.276 1173.31,-935.085"/>
</g>
<g id="2504_38179" class="edge">
<path fill="none" stroke="#999999" stroke-width="15.4673" d="M1292.65,-1100.96C1238.68,-1090.1 1138.93,-1070.04 1066.21,-1055.41"/>
<polygon fill="#999999" stroke="#999999" points="1073.84,-1015.53 1036.42,-1049.42 1057.82,-1095.14 1073.84,-1015.53"/>
</g>
<g id="142153_38179" class="edge">
<path fill="none" stroke="#999999" stroke-width="15.4673" d="M1294.59,-1094.67C1261.18,-1081.83 1210.43,-1062.34 1166.68,-1045.54"/>
<polygon fill="#999999" stroke="#999999" points="1181.07,-1007.57 1138.5,-1034.71 1151.95,-1083.37 1181.07,-1007.57"/>
</g>
<g id="8200_5460" class="edge">
<path fill="none" stroke="#999999" stroke-width="13.8318" d="M1015.78,-1376.16C969.876,-1396.35 890.503,-1431.25 834.267,-1455.98"/>
<polygon fill="#999999" stroke="#999999" points="819.364,-1422.87 806.517,-1468.18 848.594,-1489.34 819.364,-1422.87"/>
</g>
<g id="28721_5460" class="edge">
<path fill="none" stroke="#999999" stroke-width="15.4673" d="M1024.62,-1330.73C975.22,-1278.85 871.136,-1169.52 803.011,-1097.96"/>
<polygon fill="#999999" stroke="#999999" points="832.363,-1069.91 782.271,-1076.18 773.55,-1125.9 832.363,-1069.91"/>
</g>
<g id="9047_5460" class="edge">
<path fill="none" stroke="#999999" stroke-width="18.7383" d="M1013.5,-1350.07C949.313,-1333.7 819.983,-1300.72 734.069,-1278.81"/>
<polygon fill="#999999" stroke="#999999" points="746.078,-1231.11 704.853,-1271.36 721.768,-1326.44 746.078,-1231.11"/>
</g>
<g id="142153_5460" class="edge">
<path fill="none" stroke="#999999" stroke-width="18.7383" d="M1055.72,-1319.45C1059.95,-1266.16 1067.49,-1171.11 1073.07,-1100.82"/>
<polygon fill="#999999" stroke="#999999" points="1122.13,-1104.29 1075.47,-1070.5 1024.07,-1096.51 1122.13,-1104.29"/>
</g>
<g id="3244_5460" class="edge">
<path fill="none" stroke="#999999" stroke-width="17.1028" d="M1023.02,-1332.11C965.179,-1277.35 834.91,-1154.03 748.384,-1072.12"/>
<polygon fill="#999999" stroke="#999999" points="779.239,-1039.51 726.588,-1051.49 717.51,-1104.72 779.239,-1039.51"/>
</g>
<g id="9616_32623" class="edge">
<path fill="none" stroke="#999999" stroke-width="14.6495" d="M1097.25,-616.113C1097.51,-559.963 1097.96,-465.1 1098.26,-402.978"/>
<polygon fill="#999999" stroke="#999999" points="1136.71,-402.862 1098.4,-372.68 1059.8,-402.498 1136.71,-402.862"/>
</g>
<g id="4423_32623" class="edge">
<path fill="none" stroke="#999999" stroke-width="22.9907" d="M1058.36,-636.855C1000.09,-598.393 889.349,-525.298 821.21,-480.324"/>
<polygon fill="#999999" stroke="#999999" points="854.419,-429.932 796.136,-463.774 787.928,-530.668 854.419,-429.932"/>
</g>
<g id="8944_32623" class="edge">
<path fill="none" stroke="#999999" stroke-width="17.1028" d="M1064.98,-695.843C1039,-722.968 1001.78,-761.831 970.971,-794.002"/>
<polygon fill="#999999" stroke="#999999" points="938.247,-763.264 949.921,-815.982 1003.1,-825.368 938.247,-763.264"/>
</g>
<g id="7943_32623" class="edge">
<path fill="none" stroke="#999999" stroke-width="18.7383" d="M1091.25,-708.048C1087.42,-738.319 1082.27,-779.022 1077.66,-815.463"/>
<polygon fill="#999999" stroke="#999999" points="1028.84,-809.443 1073.87,-845.381 1126.44,-821.794 1028.84,-809.443"/>
</g>
<g id="2504_32623" class="edge">
<path fill="none" stroke="#999999" stroke-width="20.3738" d="M1083.05,-706.534C1064.11,-766.343 1029.89,-874.388 1005.7,-950.781"/>
<polygon fill="#999999" stroke="#999999" points="954.649,-934.847 996.579,-979.593 1056.62,-967.138 954.649,-934.847"/>
</g>
<g id="142153_32623" class="edge">
<path fill="none" stroke="#999999" stroke-width="20.3738" d="M1094.8,-708.479C1092.15,-763.151 1087.68,-855.492 1084.36,-924.05"/>
<polygon fill="#999999" stroke="#999999" points="1030.94,-921.571 1082.91,-954.122 1137.78,-926.743 1030.94,-921.571"/>
</g>
<g id="4438_37368" class="edge">
<path fill="none" stroke="#999999" stroke-width="13.8318" d="M689.106,-1106.39C674.017,-1043.73 648.472,-937.636 632.072,-869.529"/>
<polygon fill="#999999" stroke="#999999" points="667.267,-860.594 624.944,-839.927 596.668,-877.593 667.267,-860.594"/>
</g>
<g id="7941_37368" class="edge">
<path fill="none" stroke="#999999" stroke-width="18.7383" d="M691.472,-1209.46C676.121,-1289.18 646.728,-1441.82 629.939,-1529.01"/>
<polygon fill="#999999" stroke="#999999" points="581.598,-1519.92 624.226,-1558.68 678.2,-1538.52 581.598,-1519.92"/>
</g>
<g id="8944_37368" class="edge">
<path fill="none" stroke="#999999" stroke-width="15.4673" d="M731.65,-1114.51C768.493,-1061.88 831.015,-972.571 872.756,-912.947"/>
<polygon fill="#999999" stroke="#999999" points="906.094,-936.122 890.037,-888.261 839.571,-889.552 906.094,-936.122"/>
</g>
<g id="4459_37368" class="edge">
<path fill="none" stroke="#999999" stroke-width="15.4673" d="M657.636,-1129.3C597.969,-1090.7 490.833,-1021.37 422.954,-977.454"/>
<polygon fill="#999999" stroke="#999999" points="444.603,-943.102 397.359,-960.893 400.49,-1011.28 444.603,-943.102"/>
</g>
<g id="8200_37368" class="edge">
<path fill="none" stroke="#999999" stroke-width="14.6495" d="M712.143,-1209.08C723.831,-1265.29 742.6,-1355.55 755.444,-1417.32"/>
<polygon fill="#999999" stroke="#999999" points="717.879,-1425.55 761.636,-1447.09 793.178,-1409.89 717.879,-1425.55"/>
</g>
<g id="2497_37368" class="edge">
<path fill="none" stroke="#999999" stroke-width="14.6495" d="M652.849,-1176.99C604.036,-1196.41 528.506,-1226.46 474.47,-1247.96"/>
<polygon fill="#999999" stroke="#999999" points="459.894,-1212.37 446.235,-1259.19 488.326,-1283.83 459.894,-1212.37"/>
</g>
<g id="3249_37368" class="edge">
<path fill="none" stroke="#999999" stroke-width="14.6495" d="M680.031,-1109.76C652.862,-1049 605.852,-943.885 575.104,-875.129"/>
<polygon fill="#999999" stroke="#999999" points="610.185,-859.377 562.833,-847.69 539.976,-890.775 610.185,-859.377"/>
</g>
<g id="4417_37368" class="edge">
<path fill="none" stroke="#999999" stroke-width="15.4673" d="M698.336,-1210.38C695.64,-1256.04 691.701,-1322.78 688.622,-1374.94"/>
<polygon fill="#999999" stroke="#999999" points="648.072,-1372.87 686.835,-1405.21 729.134,-1377.65 648.072,-1372.87"/>
</g>
<g id="9615_37368" class="edge">
<path fill="none" stroke="#999999" stroke-width="15.4673" d="M742.174,-1190.54C791.593,-1230.45 875.854,-1298.49 936.794,-1347.7"/>
<polygon fill="#999999" stroke="#999999" points="911.654,-1379.59 960.502,-1366.85 962.671,-1316.41 911.654,-1379.59"/>
</g>
<g id="4441_37368" class="edge">
<path fill="none" stroke="#999999" stroke-width="14.6495" d="M657.138,-1130.09C637.987,-1118.18 615.014,-1103.89 593.238,-1090.35"/>
<polygon fill="#999999" stroke="#999999" points="613.391,-1057.6 567.606,-1074.41 572.771,-1122.9 613.391,-1057.6"/>
</g>
<g id="9047_37368" class="edge">
<path fill="none" stroke="#999999" stroke-width="22.5" d="M677.179,-1204.25C677.153,-1204.3 677.126,-1204.35 677.1,-1204.4"/>
<polygon fill="#999999" stroke="#999999" points="638.501,-1150.64 677.021,-1204.55 743.275,-1205.24 638.501,-1150.64"/>
</g>
<g id="4439_37368" class="edge">
<path fill="none" stroke="#999999" stroke-width="18.7383" d="M649.083,-1156.39C648.955,-1156.38 648.827,-1156.38 648.699,-1156.38"/>
<polygon fill="#999999" stroke="#999999" points="655.341,-1107.33 624.162,-1155.78 652.966,-1205.68 655.341,-1107.33"/>
</g>
<g id="7943_37368" class="edge">
<path fill="none" stroke="#999999" stroke-width="17.9206" d="M744.397,-1127.77C802.982,-1087.01 909.156,-1013.15 983.538,-961.397"/>
<polygon fill="#999999" stroke="#999999" points="1010.63,-999.854 1008.39,-944.106 956.901,-922.623 1010.63,-999.854"/>
</g>
<g id="2504_37368" class="edge">
<path fill="none" stroke="#999999" stroke-width="17.9206" d="M749.335,-1136.89C788.535,-1119.9 844.989,-1095.43 892.016,-1075.05"/>
<polygon fill="#999999" stroke="#999999" points="911.022,-1118.08 919.84,-1062.99 873.606,-1031.76 911.022,-1118.08"/>
</g>
<g id="3244_37368" class="edge">
<path fill="none" stroke="#999999" stroke-width="17.9206" d="M689.981,-1106.39C688.418,-1099.4 686.777,-1092.06 685.112,-1084.62"/>
<polygon fill="#999999" stroke="#999999" points="730.947,-1074.03 678.491,-1055.03 639.134,-1094.57 730.947,-1074.03"/>
</g>
<g id="9616_29834" class="edge">
<path fill="none" stroke="#999999" stroke-width="15.4673" d="M921.042,-641.565C958.692,-577.996 1025.01,-466.032 1065.05,-398.423"/>
<polygon fill="#999999" stroke="#999999" points="1100.09,-418.937 1080.44,-372.434 1030.22,-377.556 1100.09,-418.937"/>
</g>
<g id="4438_29834" class="edge">
<path fill="none" stroke="#999999" stroke-width="20.3738" d="M841.672,-710.88C795.613,-730.167 727.692,-758.61 678.513,-779.204"/>
<polygon fill="#999999" stroke="#999999" points="657.691,-729.942 650.677,-790.861 699.007,-828.603 657.691,-729.942"/>
</g>
<g id="8944_29834" class="edge">
<path fill="none" stroke="#999999" stroke-width="20.3738" d="M900.339,-744.55C902.211,-757.899 904.231,-772.306 906.166,-786.102"/>
<polygon fill="#999999" stroke="#999999" points="853.223,-793.678 910.352,-815.961 959.15,-778.825 853.223,-793.678"/>
</g>
<g id="21_29834" class="edge">
<path fill="none" stroke="#999999" stroke-width="15.4673" d="M851.005,-652.925C808.884,-615.87 743.332,-558.201 695.551,-516.166"/>
<polygon fill="#999999" stroke="#999999" points="722.071,-485.419 672.729,-496.088 668.435,-546.388 722.071,-485.419"/>
</g>
<g id="9050_29834" class="edge">
<path fill="none" stroke="#999999" stroke-width="15.4673" d="M837.587,-692.225C794.306,-694.334 733.78,-697.284 687.391,-699.545"/>
<polygon fill="#999999" stroke="#999999" points="685.229,-659.001 657.242,-701.015 689.183,-740.108 685.229,-659.001"/>
</g>
<g id="3249_29834" class="edge">
<path fill="none" stroke="#999999" stroke-width="18.7383" d="M840.216,-707.396C779.56,-728.058 679.502,-762.143 612.942,-784.816"/>
<polygon fill="#999999" stroke="#999999" points="596.665,-738.397 584.129,-794.631 628.387,-831.518 596.665,-738.397"/>
</g>
<g id="28721_29834" class="edge">
<path fill="none" stroke="#999999" stroke-width="15.4673" d="M869.69,-740.144C843.747,-797.377 801.268,-891.091 771.659,-956.413"/>
<polygon fill="#999999" stroke="#999999" points="734.666,-939.678 759.261,-983.765 808.626,-973.203 734.666,-939.678"/>
</g>
<g id="7943_29834" class="edge">
<path fill="none" stroke="#999999" stroke-width="22.0093" d="M927.602,-732.62C948.415,-758.255 975.505,-791.62 1000.23,-822.07"/>
<polygon fill="#999999" stroke="#999999" points="955.619,-858.787 1019.38,-845.661 1045.32,-785.955 955.619,-858.787"/>
</g>
<g id="2504_29834" class="edge">
<path fill="none" stroke="#999999" stroke-width="20.3738" d="M905.9,-743.561C919.442,-798.673 940.676,-885.089 956.631,-950.021"/>
<polygon fill="#999999" stroke="#999999" points="904.777,-963.12 963.872,-979.492 1008.65,-937.596 904.777,-963.12"/>
</g>
<g id="142153_29834" class="edge">
<path fill="none" stroke="#999999" stroke-width="23.6449" d="M920.49,-737.51C949.655,-787.72 996.025,-867.55 1031.29,-928.253"/>
<polygon fill="#999999" stroke="#999999" points="977.621,-959.438 1046.36,-954.204 1084.96,-897.088 977.621,-959.438"/>
</g>
<g id="3244_29834" class="edge">
<path fill="none" stroke="#999999" stroke-width="23.6449" d="M859.22,-733.959C825.294,-779.068 771.873,-850.097 729.571,-906.343"/>
<polygon fill="#999999" stroke="#999999" points="679.752,-869.321 711.324,-930.604 778.961,-943.935 679.752,-869.321"/>
</g>
<g id="8200_1737" class="edge">
<path fill="none" stroke="#999999" stroke-width="17.1028" d="M794.786,-1137.35C789.401,-1211.03 780.044,-1339.06 774.322,-1417.35"/>
<polygon fill="#999999" stroke="#999999" points="729.543,-1414.12 772.132,-1447.31 819.094,-1420.66 729.543,-1414.12"/>
</g>
<g id="2497_1737" class="edge">
<path fill="none" stroke="#999999" stroke-width="17.1028" d="M747.592,-1105.81C676.996,-1140.88 550.026,-1203.96 473.272,-1242.09"/>
<polygon fill="#999999" stroke="#999999" points="453.197,-1201.93 446.304,-1255.48 493.145,-1282.34 453.197,-1201.93"/>
</g>
<g id="9050_1737" class="edge">
<path fill="none" stroke="#999999" stroke-width="22.0093" d="M774.314,-1028.61C742.053,-960.943 685.48,-842.282 650.25,-768.389"/>
<polygon fill="#999999" stroke="#999999" points="702.301,-743.315 637.24,-741.099 598,-793.043 702.301,-743.315"/>
</g>
<g id="4427_1737" class="edge">
<path fill="none" stroke="#999999" stroke-width="17.1028" d="M747.589,-1055.4C696.439,-1030.6 617.654,-992.412 561.507,-965.196"/>
<polygon fill="#999999" stroke="#999999" points="581.053,-924.78 534.475,-952.093 541.888,-1005.58 581.053,-924.78"/>
</g>
<g id="8958_1737" class="edge">
<path fill="none" stroke="#999999" stroke-width="17.1028" d="M852.629,-1060.82C916.069,-1037.8 1021.77,-999.439 1091.19,-974.245"/>
<polygon fill="#999999" stroke="#999999" points="1106.93,-1016.29 1119.82,-963.858 1076.3,-931.889 1106.93,-1016.29"/>
</g>
<g id="142304_1737" class="edge">
<path fill="none" stroke="#999999" stroke-width="17.1028" d="M856.177,-1083.38C905.37,-1086.04 976.553,-1089.88 1029.55,-1092.73"/>
<polygon fill="#999999" stroke="#999999" points="1027.46,-1137.58 1059.83,-1094.37 1032.29,-1047.92 1027.46,-1137.58"/>
</g>
<g id="4417_1737" class="edge">
<path fill="none" stroke="#999999" stroke-width="17.1028" d="M782.107,-1135.11C762.531,-1198.78 730.089,-1304.32 707.894,-1376.52"/>
<polygon fill="#999999" stroke="#999999" points="664.979,-1363.33 699.076,-1405.2 750.804,-1389.72 664.979,-1363.33"/>
</g>
<g id="4441_1737" class="edge">
<path fill="none" stroke="#999999" stroke-width="17.1028" d="M742.128,-1072.71C700.629,-1067.17 643.773,-1059.58 597.513,-1053.41"/>
<polygon fill="#999999" stroke="#999999" points="603.174,-1008.87 567.498,-1049.4 591.296,-1097.87 603.174,-1008.87"/>
</g>
<g id="9047_1737" class="edge">
<path fill="none" stroke="#999999" stroke-width="17.1028" d="M762.029,-1124.04C748.117,-1140.52 731.832,-1159.81 716.044,-1178.51"/>
<polygon fill="#999999" stroke="#999999" points="681.572,-1149.75 696.526,-1201.63 750.184,-1207.67 681.572,-1149.75"/>
</g>
<g id="4439_1737" class="edge">
<path fill="none" stroke="#999999" stroke-width="17.1028" d="M744.512,-1097.77C717.163,-1106.55 683.404,-1117.38 652.757,-1127.22"/>
<polygon fill="#999999" stroke="#999999" points="638.916,-1084.51 624.072,-1136.43 666.357,-1170.01 638.916,-1084.51"/>
</g>
<g id="7943_1737" class="edge">
<path fill="none" stroke="#999999" stroke-width="17.1028" d="M846.786,-1048.72C884.604,-1023.76 938.313,-988.3 983.161,-958.695"/>
<polygon fill="#999999" stroke="#999999" points="1008.05,-996.058 1008.36,-942.063 958.585,-921.123 1008.05,-996.058"/>
</g>
<g id="2504_1737" class="edge">
<path fill="none" stroke="#999999" stroke-width="22.0093" d="M854.68,-1067.05C866.113,-1064.34 878.408,-1061.41 890.651,-1058.5"/>
<polygon fill="#999999" stroke="#999999" points="904.179,-1114.67 920.008,-1051.53 877.464,-1002.26 904.179,-1114.67"/>
</g>
<g id="142153_1737" class="edge">
<path fill="none" stroke="#999999" stroke-width="17.1028" d="M854.5,-1066.86C893.86,-1057.33 947.466,-1044.36 992.547,-1033.46"/>
<polygon fill="#999999" stroke="#999999" points="1003.16,-1077.08 1021.76,-1026.39 982.044,-989.808 1003.16,-1077.08"/>
</g>
<g id="3244_1737" class="edge">
<path fill="none" stroke="#999999" stroke-width="22.0093" d="M750.818,-1048.94C750.695,-1048.87 750.573,-1048.79 750.45,-1048.71"/>
<polygon fill="#999999" stroke="#999999" points="783.333,-1001.17 726.666,-1033.22 720.276,-1098 783.333,-1001.17"/>
</g>
<g id="2497_32446" class="edge">
<path fill="none" stroke="#999999" stroke-width="24.9533" d="M703.728,-1286.89C640.644,-1284.12 541.765,-1279.78 476.21,-1276.9"/>
<polygon fill="#999999" stroke="#999999" points="479.016,-1211.46 446.171,-1275.58 473.268,-1342.34 479.016,-1211.46"/>
</g>
<g id="4427_32446" class="edge">
<path fill="none" stroke="#999999" stroke-width="15.4673" d="M727.527,-1241.39C679.85,-1178.3 596.076,-1067.44 542.927,-997.116"/>
<polygon fill="#999999" stroke="#999999" points="575.005,-972.221 524.525,-972.766 510.22,-1021.18 575.005,-972.221"/>
</g>
<g id="4417_32446" class="edge">
<path fill="none" stroke="#999999" stroke-width="17.1028" d="M737.5,-1344C732.174,-1354.99 726.484,-1366.72 720.874,-1378.29"/>
<polygon fill="#999999" stroke="#999999" points="680.442,-1358.78 707.748,-1405.36 761.234,-1397.95 680.442,-1358.78"/>
</g>
<g id="9615_32446" class="edge">
<path fill="none" stroke="#999999" stroke-width="17.1028" d="M818.341,-1315.51C852.057,-1331.61 895.888,-1352.53 933.178,-1370.33"/>
<polygon fill="#999999" stroke="#999999" points="914.033,-1410.94 960.446,-1383.35 952.711,-1329.91 914.033,-1410.94"/>
</g>
<g id="4441_32446" class="edge">
<path fill="none" stroke="#999999" stroke-width="28.3879" d="M721.091,-1246.8C684.81,-1210.6 632,-1157.9 589.116,-1115.1"/>
<polygon fill="#999999" stroke="#999999" points="641.609,-1062.21 567.736,-1093.77 536.333,-1167.7 641.609,-1062.21"/>
</g>
<g id="9047_32446" class="edge">
<path fill="none" stroke="#999999" stroke-width="23.6449" d="M706.07,-1273.21C705.96,-1273.18 705.849,-1273.15 705.738,-1273.12"/>
<polygon fill="#999999" stroke="#999999" points="750.478,-1221.25 704.741,-1272.83 716.749,-1340.72 750.478,-1221.25"/>
</g>
<g id="4439_32446" class="edge">
<path fill="none" stroke="#999999" stroke-width="15.4673" d="M714.218,-1255.27C694.392,-1241.6 671.049,-1225.5 648.904,-1210.23"/>
<polygon fill="#999999" stroke="#999999" points="671.951,-1176.8 624.205,-1193.2 625.853,-1243.65 671.951,-1176.8"/>
</g>
<g id="2504_32446" class="edge">
<path fill="none" stroke="#999999" stroke-width="16.4486" d="M803.212,-1243.35C832.771,-1208.6 874.033,-1160.11 909.063,-1118.94"/>
<polygon fill="#999999" stroke="#999999" points="942.011,-1146.84 928.566,-1096.01 876.24,-1090.88 942.011,-1146.84"/>
</g>
<g id="142153_32446" class="edge">
<path fill="none" stroke="#999999" stroke-width="24.9533" d="M809.213,-1249.81C858.658,-1206.45 938.815,-1136.16 999.132,-1083.27"/>
<polygon fill="#999999" stroke="#999999" points="1042.62,-1132.26 1021.98,-1063.23 956.242,-1033.76 1042.62,-1132.26"/>
</g>
<g id="3244_32446" class="edge">
<path fill="none" stroke="#999999" stroke-width="36.2383" d="M744.64,-1231.96C730.528,-1189.81 711.097,-1131.77 694.91,-1083.42"/>
<polygon fill="#999999" stroke="#999999" points="785.056,-1053.04 685.328,-1054.79 604.646,-1113.44 785.056,-1053.04"/>
</g>
<g id="8944_1137" class="edge">
<path fill="none" stroke="#999999" stroke-width="15.4673" d="M923.855,-1122.94C922.033,-1064.48 919.334,-977.934 917.48,-918.476"/>
<polygon fill="#999999" stroke="#999999" points="958.053,-916.911 916.536,-888.191 876.889,-919.442 958.053,-916.911"/>
</g>
<g id="142304_1137" class="edge">
<path fill="none" stroke="#999999" stroke-width="18.7383" d="M982.309,-1157.35C998.546,-1149.06 1016.43,-1139.93 1033.28,-1131.32"/>
<polygon fill="#999999" stroke="#999999" points="1055.86,-1175.03 1060.21,-1117.58 1011.12,-1087.41 1055.86,-1175.03"/>
</g>
<g id="28721_1137" class="edge">
<path fill="none" stroke="#999999" stroke-width="25.2804" d="M877.048,-1145.56C855.977,-1128.01 830.934,-1107.15 807.962,-1088.01"/>
<polygon fill="#999999" stroke="#999999" points="850.104,-1036.75 784.581,-1068.54 765.161,-1138.73 850.104,-1036.75"/>
</g>
<g id="4417_1137" class="edge">
<path fill="none" stroke="#999999" stroke-width="31.4953" d="M883.415,-1233.23C846.12,-1274.59 791.275,-1335.42 748.525,-1382.84"/>
<polygon fill="#999999" stroke="#999999" points="687.025,-1327.58 728.339,-1405.23 809.83,-1438.31 687.025,-1327.58"/>
</g>
<g id="9615_1137" class="edge">
<path fill="none" stroke="#999999" stroke-width="22.0093" d="M948.417,-1245.14C958.207,-1270.69 969.814,-1300.98 980.329,-1328.42"/>
<polygon fill="#999999" stroke="#999999" points="926.49,-1349.38 991.174,-1356.72 1034.39,-1308.03 926.49,-1349.38"/>
</g>
<g id="4441_1137" class="edge">
<path fill="none" stroke="#999999" stroke-width="26.9159" d="M866.301,-1165.31C795.002,-1140.3 675.288,-1098.31 596.083,-1070.52"/>
<polygon fill="#999999" stroke="#999999" points="619.34,-1003.81 567.644,-1060.55 572.567,-1137.15 619.34,-1003.81"/>
</g>
<g id="9047_1137" class="edge">
<path fill="none" stroke="#999999" stroke-width="24.9533" d="M864.517,-1201.96C826.108,-1211.84 776.08,-1224.71 733.953,-1235.55"/>
<polygon fill="#999999" stroke="#999999" points="717.351,-1172.19 704.618,-1243.1 749.992,-1299.06 717.351,-1172.19"/>
</g>
<g id="4439_1137" class="edge">
<path fill="none" stroke="#999999" stroke-width="25.2804" d="M862.676,-1180.58C804.7,-1175.44 718.303,-1167.77 654.03,-1162.07"/>
<polygon fill="#999999" stroke="#999999" points="659.784,-1095.95 624.035,-1159.4 648.05,-1228.16 659.784,-1095.95"/>
</g>
<g id="7943_1137" class="edge">
<path fill="none" stroke="#999999" stroke-width="20.3738" d="M953.955,-1129.7C974.006,-1089.43 1001.32,-1034.57 1024.02,-988.99"/>
<polygon fill="#999999" stroke="#999999" points="1071.95,-1012.71 1037.45,-962.019 976.2,-965.036 1071.95,-1012.71"/>
</g>
<g id="142153_1137" class="edge">
<path fill="none" stroke="#999999" stroke-width="17.1028" d="M967.981,-1138.67C980.568,-1124.48 994.731,-1108.51 1008.65,-1092.82"/>
<polygon fill="#999999" stroke="#999999" points="1042.32,-1122.51 1028.64,-1070.28 975.15,-1062.93 1042.32,-1122.51"/>
</g>
<g id="3244_1137" class="edge">
<path fill="none" stroke="#999999" stroke-width="17.1028" d="M875.144,-1148.67C839.915,-1122.59 792.083,-1087.18 750.909,-1056.69"/>
<polygon fill="#999999" stroke="#999999" points="777.449,-1020.48 726.625,-1038.72 724.024,-1092.65 777.449,-1020.48"/>
</g>
<g id="4420_5727" class="edge">
<path fill="none" stroke="#999999" stroke-width="15.4673" d="M969.152,-1316.59C964.287,-1381.96 956.813,-1482.39 952.03,-1546.66"/>
<polygon fill="#999999" stroke="#999999" points="911.509,-1544.07 949.772,-1577 992.488,-1550.09 911.509,-1544.07"/>
</g>
<g id="8944_5727" class="edge">
<path fill="none" stroke="#999999" stroke-width="15.4673" d="M964.609,-1188.28C953.783,-1114.29 936.03,-992.957 925.069,-918.048"/>
<polygon fill="#999999" stroke="#999999" points="965.211,-911.951 920.694,-888.146 884.864,-923.708 965.211,-911.951"/>
</g>
<g id="8200_5727" class="edge">
<path fill="none" stroke="#999999" stroke-width="17.1028" d="M931.321,-1300.55C899.595,-1336.6 856.098,-1386.01 822.177,-1424.55"/>
<polygon fill="#999999" stroke="#999999" points="788.358,-1395.03 802.237,-1447.21 855.758,-1454.35 788.358,-1395.03"/>
</g>
<g id="28721_5727" class="edge">
<path fill="none" stroke="#999999" stroke-width="17.1028" d="M927.112,-1207.97C892.635,-1175.47 845.23,-1130.79 806.546,-1094.32"/>
<polygon fill="#999999" stroke="#999999" points="837.277,-1061.59 784.652,-1073.68 775.688,-1126.93 837.277,-1061.59"/>
</g>
<g id="4417_5727" class="edge">
<path fill="none" stroke="#999999" stroke-width="24.9533" d="M921.092,-1289C875.352,-1320.92 808.726,-1367.41 757.729,-1402.99"/>
<polygon fill="#999999" stroke="#999999" points="720.158,-1349.33 733.037,-1420.22 795.122,-1456.77 720.158,-1349.33"/>
</g>
<g id="9615_5727" class="edge">
<path fill="none" stroke="#999999" stroke-width="15.4673" d="M988.832,-1315.22C989.77,-1319.2 990.72,-1323.23 991.672,-1327.26"/>
<polygon fill="#999999" stroke="#999999" points="952.179,-1336.69 998.583,-1356.57 1031.21,-1318.05 952.179,-1336.69"/>
</g>
<g id="9047_5727" class="edge">
<path fill="none" stroke="#999999" stroke-width="25.2804" d="M909.862,-1253.14C859.777,-1253.93 789.699,-1255.04 734.872,-1255.91"/>
<polygon fill="#999999" stroke="#999999" points="733.564,-1189.56 704.619,-1256.39 735.667,-1322.27 733.564,-1189.56"/>
</g>
<g id="4439_5727" class="edge">
<path fill="none" stroke="#999999" stroke-width="22.0093" d="M911.408,-1237.07C842.249,-1220.43 730.429,-1193.52 653.272,-1174.95"/>
<polygon fill="#999999" stroke="#999999" points="666.743,-1118.77 624.058,-1167.92 639.708,-1231.11 666.743,-1118.77"/>
</g>
<g id="7943_5727" class="edge">
<path fill="none" stroke="#999999" stroke-width="24.9533" d="M990.601,-1189.43C1005.29,-1134.11 1026.85,-1052.93 1043.24,-991.215"/>
<polygon fill="#999999" stroke="#999999" points="1106.66,-1007.63 1051.05,-961.823 980.043,-974.004 1106.66,-1007.63"/>
</g>
<g id="2504_5727" class="edge">
<path fill="none" stroke="#999999" stroke-width="24.9533" d="M975.224,-1187.5C975.605,-1168.17 976.029,-1146.65 976.435,-1126.07"/>
<polygon fill="#999999" stroke="#999999" points="1041.93,-1127.28 977.028,-1095.99 910.947,-1124.7 1041.93,-1127.28"/>
</g>
<g id="142153_5727" class="edge">
<path fill="none" stroke="#999999" stroke-width="31.4953" d="M1000.05,-1193.14C1012.69,-1164.57 1028.12,-1129.73 1042.04,-1098.27"/>
<polygon fill="#999999" stroke="#999999" points="1117.74,-1131.5 1054.28,-1070.61 966.532,-1064.59 1117.74,-1131.5"/>
</g>
<g id="3244_5727" class="edge">
<path fill="none" stroke="#999999" stroke-width="29.8598" d="M924.585,-1210.74C877.638,-1171.39 806.042,-1111.37 749.856,-1064.27"/>
<polygon fill="#999999" stroke="#999999" points="800.181,-1004.18 726.837,-1044.97 699.474,-1124.31 800.181,-1004.18"/>
</g>
<g id="3249_808" class="edge">
<path fill="none" stroke="#999999" stroke-width="22.0093" d="M790.551,-949.732C738.282,-919.543 663.619,-876.419 610.38,-845.669"/>
<polygon fill="#999999" stroke="#999999" points="639.239,-795.619 584.365,-830.644 581.447,-895.678 639.239,-795.619"/>
</g>
<g id="4427_808" class="edge">
<path fill="none" stroke="#999999" stroke-width="24.9533" d="M782.019,-975.048C719.029,-965.746 627.157,-952.178 564.238,-942.886"/>
<polygon fill="#999999" stroke="#999999" points="573.529,-878.046 534.281,-938.462 554.39,-1007.64 573.529,-878.046"/>
</g>
<g id="8958_808" class="edge">
<path fill="none" stroke="#999999" stroke-width="23.972" d="M922.964,-977.135C973.033,-971.246 1039.94,-963.378 1089.91,-957.5"/>
<polygon fill="#999999" stroke="#999999" points="1097.51,-1019.97 1119.96,-953.966 1082.81,-894.975 1097.51,-1019.97"/>
</g>
<g id="142304_808" class="edge">
<path fill="none" stroke="#999999" stroke-width="23.972" d="M917.445,-1014.5C952.844,-1030.31 996.616,-1049.86 1032.57,-1065.91"/>
<polygon fill="#999999" stroke="#999999" points="1006.94,-1123.38 1059.99,-1078.16 1058.26,-1008.47 1006.94,-1123.38"/>
</g>
<g id="9615_808" class="edge">
<path fill="none" stroke="#999999" stroke-width="37.7103" d="M877.433,-1052.28C905.548,-1127.26 951.112,-1248.77 980.953,-1328.35"/>
<polygon fill="#999999" stroke="#999999" points="888.33,-1363.28 991.55,-1356.62 1073.71,-1293.77 888.33,-1363.28"/>
</g>
<g id="4441_808" class="edge">
<path fill="none" stroke="#999999" stroke-width="20.3738" d="M782.361,-997.35C728.38,-1006.53 653.652,-1019.25 597.157,-1028.86"/>
<polygon fill="#999999" stroke="#999999" points="588.1,-976.152 567.496,-1033.91 606.042,-1081.6 588.1,-976.152"/>
</g>
<g id="9047_808" class="edge">
<path fill="none" stroke="#999999" stroke-width="24.9533" d="M809.857,-1042.42C780.632,-1081.59 741.42,-1134.15 709.095,-1177.48"/>
<polygon fill="#999999" stroke="#999999" points="656.425,-1138.53 690.986,-1201.75 761.426,-1216.87 656.425,-1138.53"/>
</g>
<g id="4439_808" class="edge">
<path fill="none" stroke="#999999" stroke-width="15.4673" d="M791.013,-1021.9C749.849,-1046.36 695.149,-1078.86 650.224,-1105.56"/>
<polygon fill="#999999" stroke="#999999" points="629.451,-1070.67 624.402,-1120.9 670.934,-1140.48 629.451,-1070.67"/>
</g>
<g id="7943_808" class="edge">
<path fill="none" stroke="#999999" stroke-width="24.9533" d="M918.946,-960.019C938.277,-952.638 959.672,-944.47 980.034,-936.695"/>
<polygon fill="#999999" stroke="#999999" points="1003.62,-997.803 1008.29,-925.909 956.894,-875.416 1003.62,-997.803"/>
</g>
<g id="2504_808" class="edge">
<path fill="none" stroke="#999999" stroke-width="34.4393" d="M918.221,-1012.8C918.37,-1012.86 918.519,-1012.92 918.667,-1012.98"/>
<polygon fill="#999999" stroke="#999999" points="857.611,-1085.51 920.004,-1013.54 926.988,-918.541 857.611,-1085.51"/>
</g>
<g id="142153_808" class="edge">
<path fill="none" stroke="#999999" stroke-width="24.9533" d="M923.175,-993.782C944.987,-996.353 969.272,-999.215 992.093,-1001.9"/>
<polygon fill="#999999" stroke="#999999" points="984.475,-1066.96 1021.94,-1005.42 999.809,-936.858 984.475,-1066.96"/>
</g>
<g id="3244_808" class="edge">
<path fill="none" stroke="#999999" stroke-width="18.7383" d="M781.37,-988.211C773.368,-988.524 765.129,-988.846 756.906,-989.167"/>
<polygon fill="#999999" stroke="#999999" points="754.799,-940.023 726.742,-990.345 758.639,-1038.32 754.799,-940.023"/>
</g>
<g id="4432_951" class="edge">
<path fill="none" stroke="#999999" stroke-width="5" d="M486.939,-1343.36C439.93,-1393.54 369.89,-1468.3 324.487,-1516.77"/>
<polygon fill="#999999" stroke="#999999" points="314.745,-1507.97 303.813,-1538.84 333.902,-1525.92 314.745,-1507.97"/>
</g>
<g id="4443_951" class="edge">
<path fill="none" stroke="#999999" stroke-width="15.4673" d="M465.463,-1303.08C397.313,-1315.14 295.574,-1333.16 231.748,-1344.46"/>
<polygon fill="#999999" stroke="#999999" points="224.277,-1304.55 201.815,-1349.76 238.434,-1384.51 224.277,-1304.55"/>
</g>
<g id="4438_951" class="edge">
<path fill="none" stroke="#999999" stroke-width="12.8505" d="M548.277,-1218.89C563.841,-1124.6 590.976,-960.198 605.928,-869.613"/>
<polygon fill="#999999" stroke="#999999" points="639.238,-874.939 610.841,-839.846 572.673,-863.952 639.238,-874.939"/>
</g>
<g id="7941_951" class="edge">
<path fill="none" stroke="#999999" stroke-width="24.9533" d="M555.118,-1360.59C568.663,-1411.46 586.854,-1479.78 600.07,-1529.41"/>
<polygon fill="#999999" stroke="#999999" points="536.83,-1546.48 607.846,-1558.61 663.423,-1512.77 536.83,-1546.48"/>
</g>
<g id="4459_951" class="edge">
<path fill="none" stroke="#999999" stroke-width="27.8972" d="M504.067,-1225.32C472.195,-1161.17 423.85,-1063.88 392.34,-1000.46"/>
<polygon fill="#999999" stroke="#999999" points="457.898,-967.827 378.968,-973.546 326.736,-1033 457.898,-967.827"/>
</g>
<g id="8200_951" class="edge">
<path fill="none" stroke="#999999" stroke-width="18.7383" d="M591.959,-1336.73C627.168,-1366.05 672.729,-1403.99 708.869,-1434.08"/>
<polygon fill="#999999" stroke="#999999" points="677.612,-1472.06 732.141,-1453.46 740.564,-1396.46 677.612,-1472.06"/>
</g>
<g id="28721_951" class="edge">
<path fill="none" stroke="#999999" stroke-width="34.4393" d="M580.752,-1233.34C611.168,-1194.08 651.729,-1141.73 684.079,-1099.98"/>
<polygon fill="#999999" stroke="#999999" points="755.603,-1155.27 702.516,-1076.19 612.679,-1044.53 755.603,-1155.27"/>
</g>
<g id="4417_951" class="edge">
<path fill="none" stroke="#999999" stroke-width="24.9533" d="M585.152,-1344.65C596.163,-1356.9 608.02,-1370.08 619.565,-1382.92"/>
<polygon fill="#999999" stroke="#999999" points="570.995,-1426.87 639.76,-1405.37 668.403,-1339.27 570.995,-1426.87"/>
</g>
<g id="9615_951" class="edge">
<path fill="none" stroke="#999999" stroke-width="27.4065" d="M606.408,-1307.73C693.018,-1329.06 840.181,-1365.3 931,-1387.67"/>
<polygon fill="#999999" stroke="#999999" points="913.972,-1457.57 960.304,-1394.88 948.378,-1317.86 913.972,-1457.57"/>
</g>
<g id="4441_951" class="edge">
<path fill="none" stroke="#999999" stroke-width="20.0467" d="M530.617,-1218.13C528.229,-1188.54 525.457,-1154.17 523.001,-1123.73"/>
<polygon fill="#999999" stroke="#999999" points="575.451,-1119.46 520.586,-1093.79 470.546,-1127.93 575.451,-1119.46"/>
</g>
<g id="9047_951" class="edge">
<path fill="none" stroke="#999999" stroke-width="28.2243" d="M605.836,-1270.11C605.882,-1270.1 605.927,-1270.09 605.973,-1270.07"/>
<polygon fill="#999999" stroke="#999999" points="598.255,-1349.59 606.11,-1270.03 556.398,-1207.42 598.255,-1349.59"/>
</g>
<g id="4439_951" class="edge">
<path fill="none" stroke="#999999" stroke-width="22.0093" d="M552.867,-1219.68C552.888,-1219.58 552.91,-1219.49 552.931,-1219.4"/>
<polygon fill="#999999" stroke="#999999" points="604.433,-1253.08 554.921,-1210.81 491.866,-1226.99 604.433,-1253.08"/>
</g>
<g id="2504_951" class="edge">
<path fill="none" stroke="#999999" stroke-width="28.5514" d="M599.274,-1254.55C676.54,-1210.33 807.998,-1135.1 893.962,-1085.9"/>
<polygon fill="#999999" stroke="#999999" points="931.337,-1150.87 920.147,-1070.92 856.882,-1020.77 931.337,-1150.87"/>
</g>
<g id="3244_951" class="edge">
<path fill="none" stroke="#999999" stroke-width="37.7103" d="M565.206,-1223.69C583.143,-1182 606.452,-1127.83 625.985,-1082.44"/>
<polygon fill="#999999" stroke="#999999" points="716.95,-1121.48 637.879,-1054.8 535.092,-1043.23 716.95,-1121.48"/>
</g>
<g id="4420_3716" class="edge">
<path fill="none" stroke="#999999" stroke-width="17.1028" d="M827.098,-1244.65C855.205,-1329.53 901.438,-1469.15 927.668,-1548.36"/>
<polygon fill="#999999" stroke="#999999" points="885.069,-1562.54 937.118,-1576.91 970.307,-1534.31 885.069,-1562.54"/>
</g>
<g id="8200_3716" class="edge">
<path fill="none" stroke="#999999" stroke-width="18.7383" d="M795.134,-1247.83C789.526,-1299.43 782.143,-1367.36 776.726,-1417.21"/>
<polygon fill="#999999" stroke="#999999" points="727.792,-1412.21 773.451,-1447.35 825.592,-1422.84 727.792,-1412.21"/>
</g>
<g id="2497_3716" class="edge">
<path fill="none" stroke="#999999" stroke-width="18.7383" d="M730.536,-1191.44C657.619,-1210.16 546.326,-1238.73 475.683,-1256.87"/>
<polygon fill="#999999" stroke="#999999" points="463.197,-1209.29 446.37,-1264.39 487.659,-1304.57 463.197,-1209.29"/>
</g>
<g id="9050_3716" class="edge">
<path fill="none" stroke="#999999" stroke-width="20.3738" d="M775.704,-1102.41C740.362,-1012.3 679.557,-857.248 645.004,-769.143"/>
<polygon fill="#999999" stroke="#999999" points="694.705,-749.39 633.962,-740.987 595.126,-788.442 694.705,-749.39"/>
</g>
<g id="3249_3716" class="edge">
<path fill="none" stroke="#999999" stroke-width="15.4673" d="M759.486,-1110.87C712.483,-1044.47 638.18,-939.499 590.54,-872.196"/>
<polygon fill="#999999" stroke="#999999" points="623.576,-848.592 573.104,-847.563 557.297,-895.507 623.576,-848.592"/>
</g>
<g id="4427_3716" class="edge">
<path fill="none" stroke="#999999" stroke-width="18.7383" d="M743.68,-1126.44C690.51,-1085.13 612.865,-1024.8 558.338,-982.43"/>
<polygon fill="#999999" stroke="#999999" points="588.229,-943.364 534.36,-963.798 527.869,-1021.05 588.229,-943.364"/>
</g>
<g id="142304_3716" class="edge">
<path fill="none" stroke="#999999" stroke-width="17.1028" d="M876.189,-1154.13C923.201,-1142.12 984.03,-1126.57 1030.6,-1114.67"/>
<polygon fill="#999999" stroke="#999999" points="1041.93,-1158.11 1059.88,-1107.19 1019.69,-1071.12 1041.93,-1158.11"/>
</g>
<g id="28721_3716" class="edge">
<path fill="none" stroke="#999999" stroke-width="18.7383" d="M771.941,-1103.89C771.874,-1103.74 771.807,-1103.59 771.74,-1103.45"/>
<polygon fill="#999999" stroke="#999999" points="816.504,-1083.06 759.307,-1076.13 726.967,-1123.81 816.504,-1083.06"/>
</g>
<g id="4417_3716" class="edge">
<path fill="none" stroke="#999999" stroke-width="30.1869" d="M773.786,-1242.4C756.438,-1283.34 734.475,-1335.18 716.605,-1377.36"/>
<polygon fill="#999999" stroke="#999999" points="643.599,-1346.55 704.857,-1405.09 789.522,-1408.38 643.599,-1346.55"/>
</g>
<g id="9615_3716" class="edge">
<path fill="none" stroke="#999999" stroke-width="15.4673" d="M853.196,-1229.23C880.895,-1260.57 915.671,-1299.92 945.481,-1333.64"/>
<polygon fill="#999999" stroke="#999999" points="915.366,-1360.88 965.656,-1356.47 976.212,-1307.1 915.366,-1360.88"/>
</g>
<g id="4441_3716" class="edge">
<path fill="none" stroke="#999999" stroke-width="18.7383" d="M734.587,-1141.58C692.541,-1122.5 638.608,-1098.03 594.891,-1078.19"/>
<polygon fill="#999999" stroke="#999999" points="615.177,-1033.38 567.532,-1065.77 574.524,-1122.96 615.177,-1033.38"/>
</g>
<g id="9047_3716" class="edge">
<path fill="none" stroke="#999999" stroke-width="22.0093" d="M737.207,-1209.09C735.277,-1210.15 733.338,-1211.21 731.394,-1212.28"/>
<polygon fill="#999999" stroke="#999999" points="703.444,-1161.72 704.984,-1226.8 759.105,-1262.98 703.444,-1161.72"/>
</g>
<g id="4439_3716" class="edge">
<path fill="none" stroke="#999999" stroke-width="40" d="M728.192,-1166.91C704.587,-1165.07 678.34,-1163.03 654.037,-1161.13"/>
<polygon fill="#999999" stroke="#999999" points="662.182,-1056.45 624.117,-1158.8 645.87,-1265.81 662.182,-1056.45"/>
</g>
<g id="7943_3716" class="edge">
<path fill="none" stroke="#999999" stroke-width="24.9533" d="M855.922,-1118.96C893.822,-1080.21 945.589,-1027.29 988.311,-983.612"/>
<polygon fill="#999999" stroke="#999999" points="1035.24,-1029.31 1009.39,-962.06 941.588,-937.703 1035.24,-1029.31"/>
</g>
<g id="2504_3716" class="edge">
<path fill="none" stroke="#999999" stroke-width="27.8972" d="M862.988,-1126.66C873.629,-1118.44 884.88,-1109.75 896.017,-1101.15"/>
<polygon fill="#999999" stroke="#999999" points="940.948,-1158.98 919.933,-1082.68 851.43,-1043.06 940.948,-1158.98"/>
</g>
<g id="142153_3716" class="edge">
<path fill="none" stroke="#999999" stroke-width="24.9533" d="M868.539,-1134.93C906.511,-1112.92 954.793,-1084.92 995.642,-1061.24"/>
<polygon fill="#999999" stroke="#999999" points="1028.77,-1117.75 1021.87,-1046.03 963.062,-1004.41 1028.77,-1117.75"/>
</g>
<g id="3244_3716" class="edge">
<path fill="none" stroke="#999999" stroke-width="32.8037" d="M757.098,-1112.83C748.693,-1101.92 739.775,-1090.35 730.922,-1078.87"/>
<polygon fill="#999999" stroke="#999999" points="798.973,-1026.1 712.456,-1054.91 662.568,-1131.24 798.973,-1026.1"/>
</g>
<g id="15345_29814" class="edge">
<path fill="none" stroke="#999999" stroke-width="14.6495" d="M719.2,-743.638C655.395,-691.926 557.785,-612.815 497.995,-564.357"/>
<polygon fill="#999999" stroke="#999999" points="522.051,-534.355 474.532,-545.341 473.625,-594.105 522.051,-534.355"/>
</g>
<g id="4458_29814" class="edge">
<path fill="none" stroke="#999999" stroke-width="17.1028" d="M824.108,-725.279C860.413,-665.291 912.284,-579.585 946.344,-523.306"/>
<polygon fill="#999999" stroke="#999999" points="984.797,-546.478 961.922,-497.567 907.98,-499.987 984.797,-546.478"/>
</g>
<g id="4423_29814" class="edge">
<path fill="none" stroke="#999999" stroke-width="16.2033" d="M777.698,-713.687C774.245,-650.608 769.517,-564.227 766.324,-505.891"/>
<polygon fill="#999999" stroke="#999999" points="808.773,-503.182 764.663,-475.552 723.833,-507.832 808.773,-503.182"/>
</g>
<g id="4438_29814" class="edge">
<path fill="none" stroke="#999999" stroke-width="12.6869" d="M701.289,-799.769C694.439,-800.204 687.571,-800.639 680.874,-801.064"/>
<polygon fill="#999999" stroke="#999999" points="678.422,-767.85 650.591,-802.985 682.639,-834.322 678.422,-767.85"/>
</g>
<g id="8212_29814" class="edge">
<path fill="none" stroke="#999999" stroke-width="28.5514" d="M806.352,-716.906C826.044,-653.71 853.491,-565.629 871.933,-506.443"/>
<polygon fill="#999999" stroke="#999999" points="943.536,-528.583 880.907,-477.644 800.428,-483.989 943.536,-528.583"/>
</g>
<g id="4459_29814" class="edge">
<path fill="none" stroke="#999999" stroke-width="16.4486" d="M705.375,-820.651C625.273,-847.797 501.059,-889.891 425.742,-915.415"/>
<polygon fill="#999999" stroke="#999999" points="411.738,-874.571 397.183,-925.093 439.454,-956.357 411.738,-874.571"/>
</g>
<g id="21_29814" class="edge">
<path fill="none" stroke="#999999" stroke-width="38.3645" d="M749.189,-720.26C723.67,-662.637 688.662,-583.588 664.23,-528.418"/>
<polygon fill="#999999" stroke="#999999" points="756.264,-487.533 652.035,-500.882 572.102,-569.091 756.264,-487.533"/>
</g>
<g id="9050_29814" class="edge">
<path fill="none" stroke="#999999" stroke-width="22.0093" d="M711.06,-754.659C701.933,-749.524 692.628,-744.29 683.612,-739.217"/>
<polygon fill="#999999" stroke="#999999" points="711.618,-688.683 657.144,-724.327 654.963,-789.39 711.618,-688.683"/>
</g>
<g id="3249_29814" class="edge">
<path fill="none" stroke="#999999" stroke-width="26.9159" d="M701.206,-799.181C672.919,-800.768 641.445,-802.533 614.207,-804.061"/>
<polygon fill="#999999" stroke="#999999" points="610.1,-733.526 584.105,-805.75 618.015,-874.613 610.1,-733.526"/>
</g>
<g id="4427_29814" class="edge">
<path fill="none" stroke="#999999" stroke-width="22.0093" d="M708.707,-829.793C663.426,-851.472 605.776,-879.074 561.634,-900.207"/>
<polygon fill="#999999" stroke="#999999" points="536.631,-848.123 534.521,-913.188 586.529,-952.343 536.631,-848.123"/>
</g>
<g id="8958_29814" class="edge">
<path fill="none" stroke="#999999" stroke-width="22.0093" d="M857.251,-825.371C925.61,-853.334 1025.66,-894.261 1091.79,-921.315"/>
<polygon fill="#999999" stroke="#999999" points="1070.34,-974.96 1119.98,-932.845 1114.09,-868.013 1070.34,-974.96"/>
</g>
<g id="142304_29814" class="edge">
<path fill="none" stroke="#999999" stroke-width="17.1028" d="M841.039,-850.377C896.92,-903.248 980.638,-982.456 1037.94,-1036.67"/>
<polygon fill="#999999" stroke="#999999" points="1007.33,-1069.51 1059.97,-1057.52 1069.04,-1004.29 1007.33,-1069.51"/>
</g>
<g id="28721_29814" class="edge">
<path fill="none" stroke="#999999" stroke-width="18.7383" d="M767.293,-874.321C762.5,-900.061 757.201,-928.518 752.459,-953.986"/>
<polygon fill="#999999" stroke="#999999" points="704.061,-945.201 746.926,-983.698 800.775,-963.21 704.061,-945.201"/>
</g>
<g id="4441_29814" class="edge">
<path fill="none" stroke="#999999" stroke-width="36.4019" d="M722.838,-849.977C683.482,-886.707 631.55,-935.175 589.626,-974.302"/>
<polygon fill="#999999" stroke="#999999" points="524.243,-904.618 567.509,-994.944 654.638,-1044.33 524.243,-904.618"/>
</g>
<g id="9047_29814" class="edge">
<path fill="none" stroke="#999999" stroke-width="17.1028" d="M759.792,-872.595C735.977,-955.708 698.385,-1086.9 673.85,-1172.52"/>
<polygon fill="#999999" stroke="#999999" points="630.635,-1160.35 665.529,-1201.56 716.951,-1185.09 630.635,-1160.35"/>
</g>
<g id="4439_29814" class="edge">
<path fill="none" stroke="#999999" stroke-width="26.9159" d="M740.586,-864.438C705.119,-924.027 654.066,-1009.8 616.684,-1072.61"/>
<polygon fill="#999999" stroke="#999999" points="555.964,-1036.48 601.334,-1098.4 677.392,-1108.76 555.964,-1036.48"/>
</g>
<g id="7943_29814" class="edge">
<path fill="none" stroke="#999999" stroke-width="36.729" d="M857.96,-823.719C895.588,-838.149 941.208,-855.643 980.173,-870.584"/>
<polygon fill="#999999" stroke="#999999" points="945.897,-960.7 1008.43,-881.42 1014.94,-780.657 945.897,-960.7"/>
</g>
<g id="2504_29814" class="edge">
<path fill="none" stroke="#999999" stroke-width="16.4486" d="M833.127,-857.869C857.266,-887.797 886.391,-923.907 912.19,-955.893"/>
<polygon fill="#999999" stroke="#999999" points="878.69,-983.134 931.132,-979.378 945.906,-928.92 878.69,-983.134"/>
</g>
<g id="142153_29814" class="edge">
<path fill="none" stroke="#999999" stroke-width="18.7383" d="M847.887,-842.671C892.05,-874.928 950.578,-917.677 997.824,-952.187"/>
<polygon fill="#999999" stroke="#999999" points="968.818,-991.912 1022.06,-969.886 1026.84,-912.47 968.818,-991.912"/>
</g>
<g id="3244_29814" class="edge">
<path fill="none" stroke="#999999" stroke-width="26.9159" d="M740.681,-864.495C733.006,-877.43 724.898,-891.095 716.947,-904.494"/>
<polygon fill="#999999" stroke="#999999" points="656.076,-868.623 701.53,-930.477 777.602,-940.731 656.076,-868.623"/>
</g>
<g id="4432" class="node">
<polygon fill="#ffffff" stroke="#3333cc" stroke-width="10" points="304.638,-1590.14 254.638,-1590.14 254.638,-1539.14 304.638,-1539.14 304.638,-1590.14"/>
<image xlink:href="can_images/unknownCandidate.jpg" width="50px" height="50px" preserveAspectRatio="xMinYMin meet" x="254.638" y="-1589.64"/>
<polygon fill="none" stroke="#3333cc" stroke-width="10" points="304.638,-1590.14 254.638,-1590.14 254.638,-1539.14 304.638,-1539.14 304.638,-1590.14"/>
<text text-anchor="middle" x="279.638" y="-1560.64" font-family="Times Roman,serif" font-size="15.00">Sally (Committee 1) Lieber</text>
</g>
<g id="1500" class="node">
<ellipse fill="#ffffff" stroke="cadetblue" stroke-width="10" cx="1211.32" cy="-33" rx="32" ry="32"/>
<image xlink:href="com_images/c17.png" width="64px" height="64px" preserveAspectRatio="xMinYMin meet" x="1179.32" y="-65"/>
<ellipse fill="none" stroke="cadetblue" stroke-width="10" cx="1211.32" cy="-33" rx="32" ry="32"/>
<text text-anchor="start" x="1258.32" y="-29" font-family="Times Roman,serif" font-size="15.00">Dynegy Inc</text>
</g>
<g id="29806" class="node">
<ellipse fill="#ffffff" stroke="cadetblue" stroke-width="10" cx="33" cy="-1295.05" rx="32" ry="32"/>
<image xlink:href="com_images/cunknown_coal_co.png" width="64px" height="64px" preserveAspectRatio="xMinYMin meet" x="1" y="-1327.05"/>
<ellipse fill="none" stroke="cadetblue" stroke-width="10" cx="33" cy="-1295.05" rx="32" ry="32"/>
<text text-anchor="start" x="80" y="-1291.05" font-family="Times Roman,serif" font-size="15.00">CPS Energy</text>
</g>
<g id="29851" class="node">
<ellipse fill="#ffffff" stroke="cadetblue" stroke-width="10" cx="227.735" cy="-276.161" rx="32" ry="32"/>
<image xlink:href="com_images/c127.png" width="64px" height="64px" preserveAspectRatio="xMinYMin meet" x="195.735" y="-308.161"/>
<ellipse fill="none" stroke="cadetblue" stroke-width="10" cx="227.735" cy="-276.161" rx="32" ry="32"/>
<text text-anchor="start" x="274.735" y="-272.161" font-family="Times Roman,serif" font-size="15.00">Southern California Edison</text>
</g>
<g id="32722" class="node">
<ellipse fill="#ffffff" stroke="cadetblue" stroke-width="10" cx="1482.08" cy="-840.315" rx="33" ry="33.5"/>
<image xlink:href="com_images/cunknown_oil_co.png" width="66px" height="66px" preserveAspectRatio="xMinYMin meet" x="1449.08" y="-873.315"/>
<ellipse fill="none" stroke="cadetblue" stroke-width="10" cx="1482.08" cy="-840.315" rx="33" ry="33.5"/>
<text text-anchor="start" x="1530.08" y="-836.315" font-family="Times Roman,serif" font-size="15.00">Aera Energy</text>
</g>
<g id="37871" class="node">
<ellipse fill="#ffffff" stroke="cadetblue" stroke-width="10" cx="1498" cy="-1006.03" rx="33" ry="33.5"/>
<image xlink:href="com_images/cunknown_oil_co.png" width="66px" height="66px" preserveAspectRatio="xMinYMin meet" x="1465" y="-1039.03"/>
<ellipse fill="none" stroke="cadetblue" stroke-width="10" cx="1498" cy="-1006.03" rx="33" ry="33.5"/>
<text text-anchor="start" x="1546" y="-1002.03" font-family="Times Roman,serif" font-size="15.00">INDEPENDENT ENERGY PRODUCERS ASSOCIATION</text>
</g>
<g id="15345" class="node">
<polygon fill="#ffffff" stroke="#3333cc" stroke-width="10" points="474.463,-551.282 416.463,-551.282 416.463,-492.282 474.463,-492.282 474.463,-551.282"/>
<image xlink:href="can_images/unknownCandidate.jpg" width="58px" height="58px" preserveAspectRatio="xMinYMin meet" x="416.463" y="-550.782"/>
<polygon fill="none" stroke="#3333cc" stroke-width="10" points="474.463,-551.282 416.463,-551.282 416.463,-492.282 474.463,-492.282 474.463,-551.282"/>
<text text-anchor="middle" x="445.463" y="-517.782" font-family="Times Roman,serif" font-size="15.00">Hannah&#45;Beth Jackson</text>
</g>
<g id="4443" class="node">
<polygon fill="#ffffff" stroke="#3333cc" stroke-width="10" points="201.737,-1384.41 143.737,-1384.41 143.737,-1325.41 201.737,-1325.41 201.737,-1384.41"/>
<image xlink:href="can_images/4443.jpg" width="47.901px" height="59px" preserveAspectRatio="xMinYMin meet" x="148.786" y="-1384.41"/>
<polygon fill="none" stroke="#3333cc" stroke-width="10" points="201.737,-1384.41 143.737,-1384.41 143.737,-1325.41 201.737,-1325.41 201.737,-1384.41"/>
<text text-anchor="middle" x="172.737" y="-1350.91" font-family="Times Roman,serif" font-size="15.00">Loni Hancock</text>
</g>
<g id="30234" class="node">
<ellipse fill="#ffffff" stroke="cadetblue" stroke-width="10" cx="1128.98" cy="-1761.95" rx="33" ry="33.5"/>
<image xlink:href="com_images/cunknown_oil_co.png" width="66px" height="66px" preserveAspectRatio="xMinYMin meet" x="1095.98" y="-1794.95"/>
<ellipse fill="none" stroke="cadetblue" stroke-width="10" cx="1128.98" cy="-1761.95" rx="33" ry="33.5"/>
<text text-anchor="start" x="1176.98" y="-1757.95" font-family="Times Roman,serif" font-size="15.00">MDU Resources Group</text>
</g>
<g id="9616" class="node">
<polygon fill="#ffffff" stroke="#3333cc" stroke-width="10" points="1128.54,-372.37 1068.54,-372.37 1068.54,-311.37 1128.54,-311.37 1128.54,-372.37"/>
<image xlink:href="can_images/9616.jpg" width="49.5248px" height="61px" preserveAspectRatio="xMinYMin meet" x="1073.78" y="-372.37"/>
<polygon fill="none" stroke="#3333cc" stroke-width="10" points="1128.54,-372.37 1068.54,-372.37 1068.54,-311.37 1128.54,-311.37 1128.54,-372.37"/>
<text text-anchor="middle" x="1098.54" y="-337.87" font-family="Times Roman,serif" font-size="15.00">William W Monning</text>
</g>
<g id="4420" class="node">
<polygon fill="#ffffff" stroke="#3333cc" stroke-width="10" points="978.456,-1639.12 916.456,-1639.12 916.456,-1577.12 978.456,-1577.12 978.456,-1639.12"/>
<image xlink:href="can_images/4420.jpg" width="50.3366px" height="62px" preserveAspectRatio="xMinYMin meet" x="922.287" y="-1639.12"/>
<polygon fill="none" stroke="#3333cc" stroke-width="10" points="978.456,-1639.12 916.456,-1639.12 916.456,-1577.12 978.456,-1577.12 978.456,-1639.12"/>
<text text-anchor="middle" x="947.456" y="-1604.12" font-family="Times Roman,serif" font-size="15.00">Curren D Price</text>
</g>
<g id="30529" class="node">
<ellipse fill="#ffffff" stroke="cadetblue" stroke-width="10" cx="1191.8" cy="-741.682" rx="36" ry="36"/>
<image xlink:href="com_images/c30529.png" width="72px" height="72px" preserveAspectRatio="xMinYMin meet" x="1155.8" y="-777.682"/>
<ellipse fill="none" stroke="cadetblue" stroke-width="10" cx="1191.8" cy="-741.682" rx="36" ry="36"/>
<text text-anchor="start" x="1242.8" y="-737.682" font-family="Times Roman,serif" font-size="15.00">Berkshire Hathaway</text>
</g>
<g id="4458" class="node">
<polygon fill="#ffffff" stroke="#cc3333" stroke-width="10" points="1012.22,-497.182 950.219,-497.182 950.219,-434.182 1012.22,-434.182 1012.22,-497.182"/>
<image xlink:href="can_images/4458.jpg" width="51.1485px" height="63px" preserveAspectRatio="xMinYMin meet" x="955.645" y="-497.182"/>
<polygon fill="none" stroke="#cc3333" stroke-width="10" points="1012.22,-497.182 950.219,-497.182 950.219,-434.182 1012.22,-434.182 1012.22,-497.182"/>
<text text-anchor="middle" x="981.219" y="-461.682" font-family="Times Roman,serif" font-size="15.00">Doug La Malfa</text>
</g>
<g id="38887" class="node">
<ellipse fill="#ffffff" stroke="cadetblue" stroke-width="10" cx="1416" cy="-684.875" rx="37" ry="37"/>
<image xlink:href="com_images/cunknown_oil_co.png" width="74px" height="74px" preserveAspectRatio="xMinYMin meet" x="1379" y="-721.875"/>
<ellipse fill="none" stroke="cadetblue" stroke-width="10" cx="1416" cy="-684.875" rx="37" ry="37"/>
<text text-anchor="start" x="1468" y="-680.875" font-family="Times Roman,serif" font-size="15.00">TRC OPERATING CO</text>
</g>
<g id="38974" class="node">
<ellipse fill="#ffffff" stroke="cadetblue" stroke-width="10" cx="1320.1" cy="-1279.99" rx="37" ry="37"/>
<image xlink:href="com_images/c38974.png" width="74px" height="74px" preserveAspectRatio="xMinYMin meet" x="1283.1" y="-1316.99"/>
<ellipse fill="none" stroke="cadetblue" stroke-width="10" cx="1320.1" cy="-1279.99" rx="37" ry="37"/>
<text text-anchor="start" x="1372.1" y="-1275.99" font-family="Times Roman,serif" font-size="15.00">VAQUERO ENERGY</text>
</g>
<g id="32671" class="node">
<ellipse fill="#ffffff" stroke="cadetblue" stroke-width="10" cx="1269.32" cy="-635.013" rx="37" ry="37"/>
<image xlink:href="com_images/c32671.png" width="74px" height="74px" preserveAspectRatio="xMinYMin meet" x="1232.32" y="-672.013"/>
<ellipse fill="none" stroke="cadetblue" stroke-width="10" cx="1269.32" cy="-635.013" rx="37" ry="37"/>
<text text-anchor="start" x="1321.32" y="-631.013" font-family="Times Roman,serif" font-size="15.00">PacifiCorp</text>
</g>
<g id="4423" class="node">
<polygon fill="#ffffff" stroke="#3333cc" stroke-width="10" points="795.814,-475.281 729.814,-475.281 729.814,-408.281 795.814,-408.281 795.814,-475.281"/>
<image xlink:href="can_images/4423.jpg" width="54.396px" height="67px" preserveAspectRatio="xMinYMin meet" x="735.616" y="-475.281"/>
<polygon fill="none" stroke="#3333cc" stroke-width="10" points="795.814,-475.281 729.814,-475.281 729.814,-408.281 795.814,-408.281 795.814,-475.281"/>
<text text-anchor="middle" x="762.814" y="-437.781" font-family="Times Roman,serif" font-size="15.00">Carol Liu</text>
</g>
<g id="4486" class="node">
<ellipse fill="#ffffff" stroke="cadetblue" stroke-width="10" cx="1302.2" cy="-1339.85" rx="38" ry="38"/>
<image xlink:href="com_images/c27.png" width="76px" height="76px" preserveAspectRatio="xMinYMin meet" x="1264.2" y="-1377.85"/>
<ellipse fill="none" stroke="cadetblue" stroke-width="10" cx="1302.2" cy="-1339.85" rx="38" ry="38"/>
<text text-anchor="start" x="1355.2" y="-1335.85" font-family="Times Roman,serif" font-size="15.00">Plains Exploration &amp; Production</text>
</g>
<g id="4957" class="node">
<ellipse fill="#ffffff" stroke="cadetblue" stroke-width="10" cx="394.645" cy="-1525.7" rx="38" ry="38"/>
<image xlink:href="com_images/c4957.png" width="76px" height="76px" preserveAspectRatio="xMinYMin meet" x="356.645" y="-1563.7"/>
<ellipse fill="none" stroke="cadetblue" stroke-width="10" cx="394.645" cy="-1525.7" rx="38" ry="38"/>
<text text-anchor="start" x="447.645" y="-1521.7" font-family="Times Roman,serif" font-size="15.00">SC Fuels</text>
</g>
<g id="538" class="node">
<ellipse fill="#ffffff" stroke="cadetblue" stroke-width="10" cx="1313.95" cy="-1171.46" rx="38" ry="38"/>
<image xlink:href="com_images/c538.png" width="76px" height="76px" preserveAspectRatio="xMinYMin meet" x="1275.95" y="-1209.46"/>
<ellipse fill="none" stroke="cadetblue" stroke-width="10" cx="1313.95" cy="-1171.46" rx="38" ry="38"/>
<text text-anchor="start" x="1366.95" y="-1167.46" font-family="Times Roman,serif" font-size="15.00">Berry Petroleum</text>
</g>
<g id="671" class="node">
<ellipse fill="#ffffff" stroke="cadetblue" stroke-width="10" cx="912.305" cy="-1406.92" rx="38" ry="38.5"/>
<image xlink:href="com_images/c671.png" width="76px" height="76px" preserveAspectRatio="xMinYMin meet" x="874.305" y="-1444.92"/>
<ellipse fill="none" stroke="cadetblue" stroke-width="10" cx="912.305" cy="-1406.92" rx="38" ry="38.5"/>
<text text-anchor="start" x="965.305" y="-1402.92" font-family="Times Roman,serif" font-size="15.00">BP</text>
</g>
<g id="4438" class="node">
<polygon fill="#ffffff" stroke="#3333cc" stroke-width="10" points="650.569,-839.644 582.569,-839.644 582.569,-770.644 650.569,-770.644 650.569,-839.644"/>
<image xlink:href="can_images/4438.jpg" width="56.0198px" height="69px" preserveAspectRatio="xMinYMin meet" x="588.559" y="-839.644"/>
<polygon fill="none" stroke="#3333cc" stroke-width="10" points="650.569,-839.644 582.569,-839.644 582.569,-770.644 650.569,-770.644 650.569,-839.644"/>
<text text-anchor="middle" x="616.569" y="-801.144" font-family="Times Roman,serif" font-size="15.00">Fran Pavley</text>
</g>
<g id="38179" class="node">
<ellipse fill="#ffffff" stroke="cadetblue" stroke-width="10" cx="1331.09" cy="-1108.69" rx="39" ry="39.5"/>
<image xlink:href="com_images/cunknown_oil_co.png" width="78px" height="78px" preserveAspectRatio="xMinYMin meet" x="1292.09" y="-1147.69"/>
<ellipse fill="none" stroke="cadetblue" stroke-width="10" cx="1331.09" cy="-1108.69" rx="39" ry="39.5"/>
<text text-anchor="start" x="1385.09" y="-1104.69" font-family="Times Roman,serif" font-size="15.00">NAFTEX OPERATING CO</text>
</g>
<g id="8212" class="node">
<polygon fill="#ffffff" stroke="#3333cc" stroke-width="10" points="926.886,-477.411 856.886,-477.411 856.886,-407.411 926.886,-407.411 926.886,-477.411"/>
<image xlink:href="can_images/8212.jpg" width="56.8317px" height="70px" preserveAspectRatio="xMinYMin meet" x="863.47" y="-477.411"/>
<polygon fill="none" stroke="#3333cc" stroke-width="10" points="926.886,-477.411 856.886,-477.411 856.886,-407.411 926.886,-407.411 926.886,-477.411"/>
<text text-anchor="middle" x="891.886" y="-438.411" font-family="Times Roman,serif" font-size="15.00">Kevin De Len</text>
</g>
<g id="7941" class="node">
<polygon fill="#ffffff" stroke="#3333cc" stroke-width="10" points="652.359,-1629.84 582.359,-1629.84 582.359,-1558.84 652.359,-1558.84 652.359,-1629.84"/>
<image xlink:href="can_images/7941.jpg" width="70px" height="70px" preserveAspectRatio="xMinYMin meet" x="582.359" y="-1629.34"/>
<polygon fill="none" stroke="#3333cc" stroke-width="10" points="652.359,-1629.84 582.359,-1629.84 582.359,-1558.84 652.359,-1558.84 652.359,-1629.84"/>
<text text-anchor="middle" x="617.359" y="-1590.34" font-family="Times Roman,serif" font-size="15.00">Cathleen Galgiani</text>
</g>
<g id="5460" class="node">
<ellipse fill="#ffffff" stroke="cadetblue" stroke-width="10" cx="1052.5" cy="-1360.02" rx="40" ry="40.5"/>
<image xlink:href="com_images/c185.png" width="80px" height="80px" preserveAspectRatio="xMinYMin meet" x="1012.5" y="-1400.02"/>
<ellipse fill="none" stroke="cadetblue" stroke-width="10" cx="1052.5" cy="-1360.02" rx="40" ry="40.5"/>
<text text-anchor="start" x="1107.5" y="-1356.02" font-family="Times Roman,serif" font-size="15.00">Tesoro Petroleum</text>
</g>
<g id="8944" class="node">
<polygon fill="#ffffff" stroke="#3333cc" stroke-width="10" points="951.408,-888.02 879.408,-888.02 879.408,-816.02 951.408,-816.02 951.408,-888.02"/>
<image xlink:href="can_images/8944.jpg" width="58.4554px" height="72px" preserveAspectRatio="xMinYMin meet" x="886.181" y="-888.02"/>
<polygon fill="none" stroke="#3333cc" stroke-width="10" points="951.408,-888.02 879.408,-888.02 879.408,-816.02 951.408,-816.02 951.408,-888.02"/>
<text text-anchor="middle" x="915.408" y="-848.02" font-family="Times Roman,serif" font-size="15.00">Mark DeSaulnier</text>
</g>
<g id="4459" class="node">
<polygon fill="#ffffff" stroke="#3333cc" stroke-width="10" points="396.987,-973.359 324.987,-973.359 324.987,-901.359 396.987,-901.359 396.987,-973.359"/>
<image xlink:href="can_images/4459.jpg" width="58.4554px" height="72px" preserveAspectRatio="xMinYMin meet" x="331.759" y="-973.359"/>
<polygon fill="none" stroke="#3333cc" stroke-width="10" points="396.987,-973.359 324.987,-973.359 324.987,-901.359 396.987,-901.359 396.987,-973.359"/>
<text text-anchor="middle" x="360.987" y="-933.359" font-family="Times Roman,serif" font-size="15.00">Joe Coto</text>
</g>
<g id="8200" class="node">
<polygon fill="#ffffff" stroke="#cc3333" stroke-width="10" points="806.414,-1521.5 732.414,-1521.5 732.414,-1447.5 806.414,-1447.5 806.414,-1521.5"/>
<image xlink:href="can_images/8200.jpg" width="60.0792px" height="74px" preserveAspectRatio="xMinYMin meet" x="739.374" y="-1521.5"/>
<polygon fill="none" stroke="#cc3333" stroke-width="10" points="806.414,-1521.5 732.414,-1521.5 732.414,-1447.5 806.414,-1447.5 806.414,-1521.5"/>
<text text-anchor="middle" x="769.414" y="-1480.5" font-family="Times Roman,serif" font-size="15.00">Ted Gaines</text>
</g>
<g id="2497" class="node">
<polygon fill="#ffffff" stroke="#cc3333" stroke-width="10" points="446.126,-1310.95 372.126,-1310.95 372.126,-1236.95 446.126,-1236.95 446.126,-1310.95"/>
<image xlink:href="can_images/2497.jpg" width="60.0792px" height="74px" preserveAspectRatio="xMinYMin meet" x="379.086" y="-1310.95"/>
<polygon fill="none" stroke="#cc3333" stroke-width="10" points="446.126,-1310.95 372.126,-1310.95 372.126,-1236.95 446.126,-1236.95 446.126,-1310.95"/>
<text text-anchor="middle" x="409.126" y="-1269.95" font-family="Times Roman,serif" font-size="15.00">Tom Berryhill</text>
</g>
<g id="21" class="node">
<polygon fill="#ffffff" stroke="#3333cc" stroke-width="10" points="672.349,-500.703 598.349,-500.703 598.349,-425.703 672.349,-425.703 672.349,-500.703"/>
<image xlink:href="can_images/21.png" width="68.75px" height="75px" preserveAspectRatio="xMinYMin meet" x="600.974" y="-500.703"/>
<polygon fill="none" stroke="#3333cc" stroke-width="10" points="672.349,-500.703 598.349,-500.703 598.349,-425.703 672.349,-425.703 672.349,-500.703"/>
<text text-anchor="middle" x="635.349" y="-459.203" font-family="Times Roman,serif" font-size="15.00">Ted Lieu</text>
</g>
<g id="9050" class="node">
<polygon fill="#ffffff" stroke="#cc3333" stroke-width="10" points="657.017,-740.878 581.017,-740.878 581.017,-664.878 657.017,-664.878 657.017,-740.878"/>
<image xlink:href="can_images/9050.jpg" width="53.2px" height="76px" preserveAspectRatio="xMinYMin meet" x="592.417" y="-740.878"/>
<polygon fill="none" stroke="#cc3333" stroke-width="10" points="657.017,-740.878 581.017,-740.878 581.017,-664.878 657.017,-664.878 657.017,-740.878"/>
<text text-anchor="middle" x="619.017" y="-698.878" font-family="Times Roman,serif" font-size="15.00">Steve Knight</text>
</g>
<g id="3249" class="node">
<polygon fill="#ffffff" stroke="#cc3333" stroke-width="10" points="584.058,-847.441 506.058,-847.441 506.058,-768.441 584.058,-768.441 584.058,-847.441"/>
<image xlink:href="can_images/3249.jpg" width="65.682px" height="79px" preserveAspectRatio="xMinYMin meet" x="512.217" y="-847.441"/>
<polygon fill="none" stroke="#cc3333" stroke-width="10" points="584.058,-847.441 506.058,-847.441 506.058,-768.441 584.058,-768.441 584.058,-847.441"/>
<text text-anchor="middle" x="545.058" y="-803.941" font-family="Times Roman,serif" font-size="15.00">Joel Anderson</text>
</g>
<g id="4427" class="node">
<polygon fill="#ffffff" stroke="#3333cc" stroke-width="10" points="534.119,-972.531 454.119,-972.531 454.119,-892.531 534.119,-892.531 534.119,-972.531"/>
<image xlink:href="can_images/4427.jpg" width="64.9505px" height="80px" preserveAspectRatio="xMinYMin meet" x="461.644" y="-972.531"/>
<polygon fill="none" stroke="#3333cc" stroke-width="10" points="534.119,-972.531 454.119,-972.531 454.119,-892.531 534.119,-892.531 534.119,-972.531"/>
<text text-anchor="middle" x="494.119" y="-928.531" font-family="Times Roman,serif" font-size="15.00">Juan Vargas</text>
</g>
<g id="8958" class="node">
<polygon fill="#ffffff" stroke="#3333cc" stroke-width="10" points="1200.08,-989.748 1120.08,-989.748 1120.08,-908.748 1200.08,-908.748 1200.08,-989.748"/>
<image xlink:href="can_images/8958.jpg" width="65.7624px" height="81px" preserveAspectRatio="xMinYMin meet" x="1127.19" y="-989.748"/>
<polygon fill="none" stroke="#3333cc" stroke-width="10" points="1200.08,-989.748 1120.08,-989.748 1120.08,-908.748 1200.08,-908.748 1200.08,-989.748"/>
<text text-anchor="middle" x="1160.08" y="-945.248" font-family="Times Roman,serif" font-size="15.00">Ed Hernandez</text>
</g>
<g id="32623" class="node">
<ellipse fill="#ffffff" stroke="cadetblue" stroke-width="10" cx="1097.03" cy="-662.375" rx="46" ry="46"/>
<image xlink:href="com_images/c223.png" width="92px" height="92px" preserveAspectRatio="xMinYMin meet" x="1051.03" y="-708.375"/>
<ellipse fill="none" stroke="cadetblue" stroke-width="10" cx="1097.03" cy="-662.375" rx="46" ry="46"/>
<text text-anchor="start" x="1158.03" y="-658.375" font-family="Times Roman,serif" font-size="15.00">Calpine Corp</text>
</g>
<g id="142304" class="node">
<polygon fill="#ffffff" stroke="#cc3333" stroke-width="10" points="1142.28,-1138.1 1060.28,-1138.1 1060.28,-1055.1 1142.28,-1055.1 1142.28,-1138.1"/>
<image xlink:href="can_images/142304.jpg" width="59.2746px" height="83px" preserveAspectRatio="xMinYMin meet" x="1071.65" y="-1138.1"/>
<polygon fill="none" stroke="#cc3333" stroke-width="10" points="1142.28,-1138.1 1060.28,-1138.1 1060.28,-1055.1 1142.28,-1055.1 1142.28,-1138.1"/>
<text text-anchor="middle" x="1101.28" y="-1092.6" font-family="Times Roman,serif" font-size="15.00">Anthony Cannella</text>
</g>
<g id="28721" class="node">
<polygon fill="#ffffff" stroke="#3333cc" stroke-width="10" points="784.305,-1075.99 692.305,-1075.99 692.305,-983.995 784.305,-983.995 784.305,-1075.99"/>
<image xlink:href="can_images/28721.jpg" width="74.6931px" height="92px" preserveAspectRatio="xMinYMin meet" x="700.959" y="-1075.99"/>
<polygon fill="none" stroke="#3333cc" stroke-width="10" points="784.305,-1075.99 692.305,-1075.99 692.305,-983.995 784.305,-983.995 784.305,-1075.99"/>
<text text-anchor="middle" x="738.305" y="-1025.99" font-family="Times Roman,serif" font-size="15.00">Ricardo Lara</text>
</g>
<g id="37368" class="node">
<ellipse fill="#ffffff" stroke="cadetblue" stroke-width="10" cx="701.448" cy="-1157.65" rx="52" ry="52.5"/>
<image xlink:href="com_images/c37368.png" width="104px" height="104px" preserveAspectRatio="xMinYMin meet" x="649.448" y="-1209.65"/>
<ellipse fill="none" stroke="cadetblue" stroke-width="10" cx="701.448" cy="-1157.65" rx="52" ry="52.5"/>
<text text-anchor="start" x="768.448" y="-1153.65" font-family="Times Roman,serif" font-size="15.00">CALIFORNIA INDEPENDENT OIL MARKETERS</text>
</g>
<g id="4417" class="node">
<polygon fill="#ffffff" stroke="#cc3333" stroke-width="10" points="732.926,-1503.49 634.926,-1503.49 634.926,-1405.49 732.926,-1405.49 732.926,-1503.49"/>
<image xlink:href="can_images/unknownCandidate.jpg" width="98px" height="98px" preserveAspectRatio="xMinYMin meet" x="634.926" y="-1503.49"/>
<polygon fill="none" stroke="#cc3333" stroke-width="10" points="732.926,-1503.49 634.926,-1503.49 634.926,-1405.49 732.926,-1405.49 732.926,-1503.49"/>
<text text-anchor="middle" x="683.926" y="-1450.49" font-family="Times Roman,serif" font-size="15.00">George A Plescia</text>
</g>
<g id="29834" class="node">
<ellipse fill="#ffffff" stroke="cadetblue" stroke-width="10" cx="892.627" cy="-689.542" rx="55" ry="55.5"/>
<image xlink:href="com_images/c152.png" width="110px" height="110px" preserveAspectRatio="xMinYMin meet" x="837.627" y="-744.542"/>
<ellipse fill="none" stroke="cadetblue" stroke-width="10" cx="892.627" cy="-689.542" rx="55" ry="55.5"/>
<text text-anchor="start" x="962.627" y="-685.542" font-family="Times Roman,serif" font-size="15.00">NRG Energy</text>
</g>
<g id="9615" class="node">
<polygon fill="#ffffff" stroke="#cc3333" stroke-width="10" points="1060.54,-1457.76 960.538,-1457.76 960.538,-1356.76 1060.54,-1356.76 1060.54,-1457.76"/>
<image xlink:href="can_images/9615.jpg" width="83.6566px" height="101px" preserveAspectRatio="xMinYMin meet" x="968.71" y="-1457.76"/>
<polygon fill="none" stroke="#cc3333" stroke-width="10" points="1060.54,-1457.76 960.538,-1457.76 960.538,-1356.76 1060.54,-1356.76 1060.54,-1457.76"/>
<text text-anchor="middle" x="1010.54" y="-1403.26" font-family="Times Roman,serif" font-size="15.00">Bill Berryhill</text>
</g>
<g id="1737" class="node">
<ellipse fill="#ffffff" stroke="cadetblue" stroke-width="10" cx="798.956" cy="-1080.29" rx="57" ry="57"/>
<image xlink:href="com_images/c28.png" width="114px" height="114px" preserveAspectRatio="xMinYMin meet" x="741.956" y="-1137.29"/>
<ellipse fill="none" stroke="cadetblue" stroke-width="10" cx="798.956" cy="-1080.29" rx="57" ry="57"/>
<text text-anchor="start" x="870.956" y="-1076.29" font-family="Times Roman,serif" font-size="15.00">Exxon Mobil</text>
</g>
<g id="4441" class="node">
<polygon fill="#ffffff" stroke="#cc3333" stroke-width="10" points="567.455,-1093.59 465.455,-1093.59 465.455,-991.592 567.455,-991.592 567.455,-1093.59"/>
<image xlink:href="can_images/4441.jpg" width="82.8119px" height="102px" preserveAspectRatio="xMinYMin meet" x="475.049" y="-1093.59"/>
<polygon fill="none" stroke="#cc3333" stroke-width="10" points="567.455,-1093.59 465.455,-1093.59 465.455,-991.592 567.455,-991.592 567.455,-1093.59"/>
<text text-anchor="middle" x="516.455" y="-1038.59" font-family="Times Roman,serif" font-size="15.00">Bill Emmerson</text>
</g>
<g id="32446" class="node">
<ellipse fill="#ffffff" stroke="cadetblue" stroke-width="10" cx="763.913" cy="-1289.53" rx="60" ry="60.5"/>
<image xlink:href="com_images/c217.png" width="120px" height="120px" preserveAspectRatio="xMinYMin meet" x="703.913" y="-1349.53"/>
<ellipse fill="none" stroke="cadetblue" stroke-width="10" cx="763.913" cy="-1289.53" rx="60" ry="60.5"/>
<text text-anchor="start" x="838.913" y="-1285.53" font-family="Times Roman,serif" font-size="15.00">US Chamber Of Commerce</text>
</g>
<g id="9047" class="node">
<polygon fill="#ffffff" stroke="#cc3333" stroke-width="10" points="704.568,-1312.76 594.568,-1312.76 594.568,-1201.76 704.568,-1201.76 704.568,-1312.76"/>
<image xlink:href="can_images/9047.jpg" width="91.02px" height="111px" preserveAspectRatio="xMinYMin meet" x="604.058" y="-1312.76"/>
<polygon fill="none" stroke="#cc3333" stroke-width="10" points="704.568,-1312.76 594.568,-1312.76 594.568,-1201.76 704.568,-1201.76 704.568,-1312.76"/>
<text text-anchor="middle" x="649.568" y="-1253.26" font-family="Times Roman,serif" font-size="15.00">Jeff Miller</text>
</g>
<g id="4439" class="node">
<polygon fill="#ffffff" stroke="#cc3333" stroke-width="10" points="623.985,-1210.43 511.985,-1210.43 511.985,-1098.43 623.985,-1098.43 623.985,-1210.43"/>
<image xlink:href="can_images/4439.jpg" width="82.454px" height="112px" preserveAspectRatio="xMinYMin meet" x="526.758" y="-1210.43"/>
<polygon fill="none" stroke="#cc3333" stroke-width="10" points="623.985,-1210.43 511.985,-1210.43 511.985,-1098.43 623.985,-1098.43 623.985,-1210.43"/>
<text text-anchor="middle" x="567.985" y="-1150.43" font-family="Times Roman,serif" font-size="15.00">Mimi Walters</text>
</g>
<g id="1137" class="node">
<ellipse fill="#ffffff" stroke="cadetblue" stroke-width="10" cx="925.827" cy="-1186.19" rx="63" ry="63"/>
<image xlink:href="com_images/c92.png" width="126px" height="126px" preserveAspectRatio="xMinYMin meet" x="862.827" y="-1249.19"/>
<ellipse fill="none" stroke="cadetblue" stroke-width="10" cx="925.827" cy="-1186.19" rx="63" ry="63"/>
<text text-anchor="start" x="1003.827" y="-1182.19" font-family="Times Roman,serif" font-size="15.00">ConocoPhillips</text>
</g>
<g id="5727" class="node">
<ellipse fill="#ffffff" stroke="cadetblue" stroke-width="10" cx="973.95" cy="-1252.12" rx="64" ry="64.5"/>
<image xlink:href="com_images/c47.png" width="128px" height="128px" preserveAspectRatio="xMinYMin meet" x="909.95" y="-1316.12"/>
<ellipse fill="none" stroke="cadetblue" stroke-width="10" cx="973.95" cy="-1252.12" rx="64" ry="64.5"/>
<text text-anchor="start" x="1052.95" y="-1248.12" font-family="Times Roman,serif" font-size="15.00">Valero Energy</text>
</g>
<g id="7943" class="node">
<polygon fill="#ffffff" stroke="#cc3333" stroke-width="10" points="1124.49,-961.685 1008.49,-961.685 1008.49,-845.685 1124.49,-845.685 1124.49,-961.685"/>
<image xlink:href="can_images/7943.jpg" width="94.1782px" height="116px" preserveAspectRatio="xMinYMin meet" x="1019.4" y="-961.685"/>
<polygon fill="none" stroke="#cc3333" stroke-width="10" points="1124.49,-961.685 1008.49,-961.685 1008.49,-845.685 1124.49,-845.685 1124.49,-961.685"/>
<text text-anchor="middle" x="1066.49" y="-899.685" font-family="Times Roman,serif" font-size="15.00">Jean Fuller</text>
</g>
<g id="2504" class="node">
<polygon fill="#ffffff" stroke="#3333cc" stroke-width="10" points="1036.18,-1095.71 920.177,-1095.71 920.177,-979.706 1036.18,-979.706 1036.18,-1095.71"/>
<image xlink:href="can_images/2504.jpg" width="94.1782px" height="116px" preserveAspectRatio="xMinYMin meet" x="931.088" y="-1095.71"/>
<polygon fill="none" stroke="#3333cc" stroke-width="10" points="1036.18,-1095.71 920.177,-1095.71 920.177,-979.706 1036.18,-979.706 1036.18,-1095.71"/>
<text text-anchor="middle" x="978.177" y="-1033.71" font-family="Times Roman,serif" font-size="15.00">Roderick Wright</text>
</g>
<g id="142153" class="node">
<polygon fill="#ffffff" stroke="#3333cc" stroke-width="10" points="1138.09,-1070.28 1022.09,-1070.28 1022.09,-954.276 1138.09,-954.276 1138.09,-1070.28"/>
<image xlink:href="can_images/142153.jpg" width="94.1782px" height="116px" preserveAspectRatio="xMinYMin meet" x="1033" y="-1070.28"/>
<polygon fill="none" stroke="#3333cc" stroke-width="10" points="1138.09,-1070.28 1022.09,-1070.28 1022.09,-954.276 1138.09,-954.276 1138.09,-1070.28"/>
<text text-anchor="middle" x="1080.09" y="-1008.28" font-family="Times Roman,serif" font-size="15.00">Michael Rubio</text>
</g>
<g id="3244" class="node">
<polygon fill="#ffffff" stroke="#cc3333" stroke-width="10" points="726.566,-1054.77 602.566,-1054.77 602.566,-930.774 726.566,-930.774 726.566,-1054.77"/>
<image xlink:href="can_images/3244.jpg" width="124px" height="83.0357px" preserveAspectRatio="xMinYMin meet" x="602.566" y="-1034.29"/>
<polygon fill="none" stroke="#cc3333" stroke-width="10" points="726.566,-1054.77 602.566,-1054.77 602.566,-930.774 726.566,-930.774 726.566,-1054.77"/>
<text text-anchor="middle" x="664.566" y="-988.774" font-family="Times Roman,serif" font-size="15.00">Bob Huff</text>
</g>
<g id="808" class="node">
<ellipse fill="#ffffff" stroke="cadetblue" stroke-width="10" cx="852.371" cy="-985.438" rx="71" ry="71"/>
<image xlink:href="com_images/c808.png" width="142px" height="142px" preserveAspectRatio="xMinYMin meet" x="781.371" y="-1056.44"/>
<ellipse fill="none" stroke="cadetblue" stroke-width="10" cx="852.371" cy="-985.438" rx="71" ry="71"/>
<text text-anchor="start" x="938.371" y="-981.438" font-family="Times Roman,serif" font-size="15.00">California Independent Petroleum Assn</text>
</g>
<g id="951" class="node">
<ellipse fill="#ffffff" stroke="cadetblue" stroke-width="10" cx="536.456" cy="-1290.51" rx="72" ry="72.5"/>
<image xlink:href="com_images/c951.png" width="144px" height="144px" preserveAspectRatio="xMinYMin meet" x="464.456" y="-1362.51"/>
<ellipse fill="none" stroke="cadetblue" stroke-width="10" cx="536.456" cy="-1290.51" rx="72" ry="72.5"/>
<text text-anchor="start" x="623.456" y="-1286.51" font-family="Times Roman,serif" font-size="15.00">Chevron Corp</text>
</g>
<g id="3716" class="node">
<ellipse fill="#ffffff" stroke="cadetblue" stroke-width="10" cx="803.292" cy="-1172.76" rx="75" ry="75.5"/>
<image xlink:href="com_images/c109.png" width="150px" height="150px" preserveAspectRatio="xMinYMin meet" x="728.292" y="-1247.76"/>
<ellipse fill="none" stroke="cadetblue" stroke-width="10" cx="803.292" cy="-1172.76" rx="75" ry="75.5"/>
<text text-anchor="start" x="893.292" y="-1168.76" font-family="Times Roman,serif" font-size="15.00">Occidental Petroleum</text>
</g>
<g id="29814" class="node">
<ellipse fill="#ffffff" stroke="cadetblue" stroke-width="10" cx="782.129" cy="-794.641" rx="81" ry="81"/>
<image xlink:href="com_images/c148.png" width="162px" height="162px" preserveAspectRatio="xMinYMin meet" x="701.129" y="-875.641"/>
<ellipse fill="none" stroke="cadetblue" stroke-width="10" cx="782.129" cy="-794.641" rx="81" ry="81"/>
<text text-anchor="start" x="878.129" y="-790.641" font-family="Times Roman,serif" font-size="15.00">Edison International</text>
</g>
</g>
</svg>
