<svg width="250px" height="250px"
  xmlns="http://www.w3.org/2000/svg" xmlns:xlink="http://www.w3.org/1999/xlink">
<g id="graph0" class="graph" transform="scale(0.43267968750001 0.43267968750001) rotate(0) translate(4 573.793)">

<polygon id='svgscreen' style="opacity:0;" fill="#ffffff" stroke="#ffffff" points="-4,5 -4,-573.793 574.794,-573.793 574.794,5 -4,5"/>
<g id="4387_3716" class="edge">
<path fill="none" stroke="#999999" stroke-width="5" d="M136.686,-136.686C168.428,-168.428 207.629,-207.629 237.633,-237.633"/>
<polygon fill="#999999" stroke="#999999" points="228.461,-247.023 258.955,-258.955 247.023,-228.461 228.461,-247.023"/>
</g>
<g id="4387_38226" class="edge">
<path fill="none" stroke="#999999" stroke-width="40" d="M430.253,-430.253C398.791,-398.791 360.324,-360.324 330.759,-330.759"/>
<polygon fill="#999999" stroke="#999999" points="404.72,-256.227 309.26,-309.26 256.227,-404.72 404.72,-256.227"/>
</g>
<g id="4387" class="node">
<polygon fill="#ffffff" stroke="#cc3333" stroke-width="10" points="309.147,-309.647 259.147,-309.647 259.147,-258.647 309.147,-258.647 309.147,-309.647"/>
<image xlink:href="can_images/unknownCandidate.jpg" width="50px" height="50px" preserveAspectRatio="xMinYMin meet" x="259.147" y="-309.147"/>
<polygon fill="none" stroke="#cc3333" stroke-width="10" points="309.147,-309.647 259.147,-309.647 259.147,-258.647 309.147,-258.647 309.147,-309.647"/>
<text text-anchor="middle" x="284.147" y="-280.147" font-family="Times Roman,serif" font-size="15.00">Rick Keene</text>
</g>
<g id="3716" class="node">
<ellipse fill="#ffffff" stroke="cadetblue" stroke-width="10" cx="80.5" cy="-80.5" rx="79" ry="79.5"/>
<image xlink:href="com_images/c109.png" width="158px" height="158px" preserveAspectRatio="xMinYMin meet" x="1.5" y="-159.5"/>
<ellipse fill="none" stroke="cadetblue" stroke-width="10" cx="80.5" cy="-80.5" rx="79" ry="79.5"/>
<text text-anchor="start" x="174.5" y="-76.5" font-family="Times Roman,serif" font-size="15.00">Occidental Petroleum</text>
</g>
<g id="38226" class="node">
<ellipse fill="#ffffff" stroke="cadetblue" stroke-width="10" cx="487.794" cy="-487.793" rx="81" ry="81"/>
<image xlink:href="com_images/cunknown_oil_co.png" width="162px" height="162px" preserveAspectRatio="xMinYMin meet" x="406.794" y="-568.793"/>
<ellipse fill="none" stroke="cadetblue" stroke-width="10" cx="487.794" cy="-487.793" rx="81" ry="81"/>
<text text-anchor="start" x="583.794" y="-483.793" font-family="Times Roman,serif" font-size="15.00">NORTHGATE PETROLEUM CO</text>
</g>
</g>
</svg>
