<svg width="259.118375px" height="274px"
  xmlns="http://www.w3.org/2000/svg" xmlns:xlink="http://www.w3.org/1999/xlink">
<g id="graph0" class="graph" transform="scale(0.39047854166667 0.39047854166667) rotate(0) translate(4 697.702)">

<polygon id='svgscreen' style="opacity:0;" fill="#ffffff" stroke="#ffffff" points="-4,5 -4,-697.702 660.588,-697.702 660.588,5 -4,5"/>
<g id="4426_29792" class="edge">
<path fill="none" stroke="#999999" stroke-width="5" d="M599.616,-251.939C561.509,-265.946 489.118,-292.554 428.62,-314.791"/>
<polygon fill="#999999" stroke="#999999" points="423.709,-302.613 400.079,-325.282 432.765,-327.251 423.709,-302.613"/>
</g>
<g id="4426_29834" class="edge">
<path fill="none" stroke="#999999" stroke-width="5" d="M55.9718,-451.759C94.0803,-437.752 166.472,-411.145 226.971,-388.909"/>
<polygon fill="#999999" stroke="#999999" points="231.882,-401.087 255.513,-378.418 222.827,-376.448 231.882,-401.087"/>
</g>
<g id="4426_29814" class="edge">
<path fill="none" stroke="#999999" stroke-width="22.5" d="M422.717,-610.274C407.945,-570.056 384.558,-506.385 364.696,-452.309"/>
<polygon fill="#999999" stroke="#999999" points="420.034,-431.666 354.25,-423.87 309.152,-472.394 420.034,-431.666"/>
</g>
<g id="4426_951" class="edge">
<path fill="none" stroke="#999999" stroke-width="40" d="M236.299,-102.767C251.088,-143.028 272.478,-201.258 290.858,-251.294"/>
<polygon fill="#999999" stroke="#999999" points="192.355,-287.655 301.26,-279.61 389.476,-215.245 192.355,-287.655"/>
</g>
<g id="29792" class="node">
<ellipse fill="#ffffff" stroke="cadetblue" stroke-width="10" cx="626.088" cy="-242.209" rx="28" ry="28.5"/>
<image xlink:href="com_images/c192.png" width="56px" height="56px" preserveAspectRatio="xMinYMin meet" x="598.088" y="-270.209"/>
<ellipse fill="none" stroke="cadetblue" stroke-width="10" cx="626.088" cy="-242.209" rx="28" ry="28.5"/>
<text text-anchor="start" x="669.088" y="-238.209" font-family="Times Roman,serif" font-size="15.00">AES Corp</text>
</g>
<g id="29834" class="node">
<ellipse fill="#ffffff" stroke="cadetblue" stroke-width="10" cx="29.5" cy="-461.488" rx="28" ry="28.5"/>
<image xlink:href="com_images/c152.png" width="56px" height="56px" preserveAspectRatio="xMinYMin meet" x="1.5" y="-489.488"/>
<ellipse fill="none" stroke="cadetblue" stroke-width="10" cx="29.5" cy="-461.488" rx="28" ry="28.5"/>
<text text-anchor="start" x="72.5" y="-457.488" font-family="Times Roman,serif" font-size="15.00">NRG Energy</text>
</g>
<g id="29814" class="node">
<ellipse fill="#ffffff" stroke="cadetblue" stroke-width="10" cx="437.383" cy="-650.202" rx="42" ry="42.5"/>
<image xlink:href="com_images/c148.png" width="84px" height="84px" preserveAspectRatio="xMinYMin meet" x="395.383" y="-692.202"/>
<ellipse fill="none" stroke="cadetblue" stroke-width="10" cx="437.383" cy="-650.202" rx="42" ry="42.5"/>
<text text-anchor="start" x="494.383" y="-646.202" font-family="Times Roman,serif" font-size="15.00">Edison International</text>
</g>
<g id="951" class="node">
<ellipse fill="#ffffff" stroke="cadetblue" stroke-width="10" cx="218.202" cy="-53.5" rx="52" ry="52.5"/>
<image xlink:href="com_images/c951.png" width="104px" height="104px" preserveAspectRatio="xMinYMin meet" x="166.202" y="-105.5"/>
<ellipse fill="none" stroke="cadetblue" stroke-width="10" cx="218.202" cy="-53.5" rx="52" ry="52.5"/>
<text text-anchor="start" x="285.202" y="-49.5" font-family="Times Roman,serif" font-size="15.00">Chevron Corp</text>
</g>
<g id="4426" class="node">
<polygon fill="#ffffff" stroke="#3333cc" stroke-width="10" points="399.796,-423.85 255.796,-423.85 255.796,-279.85 399.796,-279.85 399.796,-423.85"/>
<image xlink:href="can_images/4426.jpg" width="116.911px" height="144px" preserveAspectRatio="xMinYMin meet" x="269.341" y="-423.85"/>
<polygon fill="none" stroke="#3333cc" stroke-width="10" points="399.796,-423.85 255.796,-423.85 255.796,-279.85 399.796,-279.85 399.796,-423.85"/>
<text text-anchor="middle" x="327.796" y="-347.85" font-family="Times Roman,serif" font-size="15.00">Jenny Oropeza</text>
</g>
</g>
</svg>
