<svg width="405.9365625px" height="406px"
  xmlns="http://www.w3.org/2000/svg" xmlns:xlink="http://www.w3.org/1999/xlink">
<g id="graph0" class="graph" transform="scale(0.70261683333334 0.70261683333334) rotate(0) translate(4 573.839)">

<polygon id='svgscreen' style="opacity:0;" fill="#ffffff" stroke="#ffffff" points="-4,5 -4,-573.839 574.748,-573.839 574.748,5 -4,5"/>
<g id="4387_3716" class="edge">
<path fill="none" stroke="#999999" stroke-width="5" d="M433.135,-433.07C401.436,-401.281 362.286,-362.022 332.322,-331.975"/>
<polygon fill="#999999" stroke="#999999" points="341.505,-322.595 311.027,-310.621 322.917,-341.131 341.505,-322.595"/>
</g>
<g id="4387_38226" class="edge">
<path fill="none" stroke="#999999" stroke-width="40" d="M139.603,-139.468C171.1,-170.891 209.609,-209.31 239.206,-238.839"/>
<polygon fill="#999999" stroke="#999999" points="165.331,-313.455 260.728,-260.31 313.649,-164.788 165.331,-313.455"/>
</g>
<g id="4387" class="node">
<polygon fill="#ffffff" stroke="#cc3333" stroke-width="10" points="310.869,-310.892 260.869,-310.892 260.869,-259.892 310.869,-259.892 310.869,-310.892"/>
<image xlink:href="can_images/unknownCandidate.jpg" width="50px" height="50px" preserveAspectRatio="xMinYMin meet" x="260.869" y="-310.392"/>
<polygon fill="none" stroke="#cc3333" stroke-width="10" points="310.869,-310.892 260.869,-310.892 260.869,-259.892 310.869,-259.892 310.869,-310.892"/>
<text text-anchor="middle" x="285.869" y="-281.392" font-family="Times Roman,serif" font-size="15.00">Rick Keene</text>
</g>
<g id="3716" class="node">
<ellipse fill="#ffffff" stroke="cadetblue" stroke-width="10" cx="489.248" cy="-489.339" rx="79" ry="79.5"/>
<image xlink:href="com_images/c109.png" width="158px" height="158px" preserveAspectRatio="xMinYMin meet" x="410.248" y="-568.339"/>
<ellipse fill="none" stroke="cadetblue" stroke-width="10" cx="489.248" cy="-489.339" rx="79" ry="79.5"/>
<text text-anchor="start" x="583.248" y="-485.339" font-family="Times Roman,serif" font-size="15.00">Occidental Petroleum</text>
</g>
<g id="38226" class="node">
<ellipse fill="#ffffff" stroke="cadetblue" stroke-width="10" cx="82" cy="-82" rx="81" ry="81"/>
<image xlink:href="com_images/cunknown_oil_co.png" width="162px" height="162px" preserveAspectRatio="xMinYMin meet" x="1" y="-163"/>
<ellipse fill="none" stroke="cadetblue" stroke-width="10" cx="82" cy="-82" rx="81" ry="81"/>
<text text-anchor="start" x="178" y="-78" font-family="Times Roman,serif" font-size="15.00">NORTHGATE PETROLEUM CO</text>
</g>
</g>
</svg>
