<svg width="273.94291666667px" height="274px"
  xmlns="http://www.w3.org/2000/svg" xmlns:xlink="http://www.w3.org/1999/xlink">
<g id="graph0" class="graph" transform="scale(0.47416841666667 0.47416841666667) rotate(0) translate(4 573.853)">

<polygon id='svgscreen' style="opacity:0;" fill="#ffffff" stroke="#ffffff" points="-4,5 -4,-573.853 574.733,-573.853 574.733,5 -4,5"/>
<g id="4387_3716" class="edge">
<path fill="none" stroke="#999999" stroke-width="5" d="M433.144,-136.795C401.458,-168.598 362.324,-207.875 332.373,-237.937"/>
<polygon fill="#999999" stroke="#999999" points="322.963,-228.785 311.087,-259.301 341.559,-247.313 322.963,-228.785"/>
</g>
<g id="4387_38226" class="edge">
<path fill="none" stroke="#999999" stroke-width="40" d="M139.623,-430.407C171.13,-398.997 209.653,-360.593 239.261,-331.076"/>
<polygon fill="#999999" stroke="#999999" points="313.676,-405.154 260.79,-309.613 165.412,-256.433 313.676,-405.154"/>
</g>
<g id="4387" class="node">
<polygon fill="#ffffff" stroke="#cc3333" stroke-width="10" points="310.939,-310.041 260.939,-310.041 260.939,-259.041 310.939,-259.041 310.939,-310.041"/>
<image xlink:href="can_images/unknownCandidate.jpg" width="50px" height="50px" preserveAspectRatio="xMinYMin meet" x="260.939" y="-309.541"/>
<polygon fill="none" stroke="#cc3333" stroke-width="10" points="310.939,-310.041 260.939,-310.041 260.939,-259.041 310.939,-259.041 310.939,-310.041"/>
<text text-anchor="middle" x="285.939" y="-280.541" font-family="Times Roman,serif" font-size="15.00">Rick Keene</text>
</g>
<g id="3716" class="node">
<ellipse fill="#ffffff" stroke="cadetblue" stroke-width="10" cx="489.233" cy="-80.5" rx="79" ry="79.5"/>
<image xlink:href="com_images/c109.png" width="158px" height="158px" preserveAspectRatio="xMinYMin meet" x="410.233" y="-159.5"/>
<ellipse fill="none" stroke="cadetblue" stroke-width="10" cx="489.233" cy="-80.5" rx="79" ry="79.5"/>
<text text-anchor="start" x="583.233" y="-76.5" font-family="Times Roman,serif" font-size="15.00">Occidental Petroleum</text>
</g>
<g id="38226" class="node">
<ellipse fill="#ffffff" stroke="cadetblue" stroke-width="10" cx="82" cy="-487.853" rx="81" ry="81"/>
<image xlink:href="com_images/cunknown_oil_co.png" width="162px" height="162px" preserveAspectRatio="xMinYMin meet" x="1" y="-568.853"/>
<ellipse fill="none" stroke="cadetblue" stroke-width="10" cx="82" cy="-487.853" rx="81" ry="81"/>
<text text-anchor="start" x="178" y="-483.853" font-family="Times Roman,serif" font-size="15.00">NORTHGATE PETROLEUM CO</text>
</g>
</g>
</svg>
