<svg width="709px" height="539.637625px"
  xmlns="http://www.w3.org/2000/svg" xmlns:xlink="http://www.w3.org/1999/xlink">
<g id="graph0" class="graph" transform="scale(0.37537635729167 0.37537635729167) rotate(0) translate(4 1433.59)">

<polygon id='svgscreen' style="opacity:0;" fill="#ffffff" stroke="#ffffff" points="-4,5 -4,-1433.59 1885.77,-1433.59 1885.77,5 -4,5"/>
<g id="8406_39485" class="edge">
<path fill="none" stroke="#999999" stroke-width="5.08413" d="M1171.77,-293.503C1135.16,-322.609 1060.92,-381.638 1003.48,-427.302"/>
<polygon fill="#999999" stroke="#999999" points="994.833,-417.126 979.655,-446.242 1011.44,-438.019 994.833,-417.126"/>
</g>
<g id="145304_289" class="edge">
<path fill="none" stroke="#999999" stroke-width="5.50481" d="M1095.36,-1239.19C1075.02,-1211.67 1040.17,-1164.51 1008.33,-1121.44"/>
<polygon fill="#999999" stroke="#999999" points="1019.78,-1112.61 990.325,-1097.07 996.534,-1129.78 1019.78,-1112.61"/>
</g>
<g id="2231_4211" class="edge">
<path fill="none" stroke="#999999" stroke-width="6.34615" d="M61.1677,-825.318C115.909,-823.504 233.342,-819.614 313.478,-816.96"/>
<polygon fill="#999999" stroke="#999999" points="314.269,-833.601 343.701,-815.958 313.166,-800.302 314.269,-833.601"/>
</g>
<g id="4165_31946" class="edge">
<path fill="none" stroke="#999999" stroke-width="6.34615" d="M255.233,-1319.56C283.445,-1280.44 340.264,-1201.65 385.294,-1139.2"/>
<polygon fill="#999999" stroke="#999999" points="399.094,-1148.54 403.129,-1114.47 372.07,-1129.06 399.094,-1148.54"/>
</g>
<g id="4171_38670" class="edge">
<path fill="none" stroke="#999999" stroke-width="6.34615" d="M92.8084,-495.813C145.733,-513.413 260.086,-551.443 335.534,-576.533"/>
<polygon fill="#999999" stroke="#999999" points="330.278,-592.341 364.002,-586.001 340.792,-560.726 330.278,-592.341"/>
</g>
<g id="4165_951" class="edge">
<path fill="none" stroke="#999999" stroke-width="6.34615" d="M140.9,-1131.69C188.087,-1119.13 283.24,-1093.8 355.586,-1074.55"/>
<polygon fill="#999999" stroke="#999999" points="360.283,-1090.53 384.989,-1066.72 351.713,-1058.34 360.283,-1090.53"/>
</g>
<g id="8800_39474" class="edge">
<path fill="none" stroke="#999999" stroke-width="6.34615" d="M1820.94,-898.571C1769.45,-882.911 1660.58,-849.801 1591.06,-828.657"/>
<polygon fill="#999999" stroke="#999999" points="1595.78,-812.681 1562.23,-819.89 1586.09,-844.557 1595.78,-812.681"/>
</g>
<g id="145304_37852" class="edge">
<path fill="none" stroke="#999999" stroke-width="7.1875" d="M1029.59,-1346.42C1015.7,-1298.18 987.757,-1201.11 966.195,-1126.21"/>
<polygon fill="#999999" stroke="#999999" points="984.277,-1120.81 957.847,-1097.2 948.015,-1131.25 984.277,-1120.81"/>
</g>
<g id="8406_30934" class="edge">
<path fill="none" stroke="#999999" stroke-width="8.02885" d="M866.24,-186.34C875.908,-235.721 895.091,-333.704 909.029,-404.897"/>
<polygon fill="#999999" stroke="#999999" points="888.378,-409.107 914.825,-434.498 929.744,-401.008 888.378,-409.107"/>
</g>
<g id="8800_32624" class="edge">
<path fill="none" stroke="#999999" stroke-width="8.02885" d="M1763.1,-626.038C1722.64,-657.623 1641.61,-720.877 1586.11,-764.195"/>
<polygon fill="#999999" stroke="#999999" points="1572.97,-747.717 1562.29,-782.791 1598.91,-780.944 1572.97,-747.717"/>
</g>
<g id="3179_2841" class="edge">
<path fill="none" stroke="#999999" stroke-width="8.87019" d="M1629.68,-339.682C1598.26,-308.261 1541.03,-251.026 1499.37,-209.373"/>
<polygon fill="#999999" stroke="#999999" points="1515.78,-192.847 1478.1,-188.098 1482.85,-225.776 1515.78,-192.847"/>
</g>
<g id="2245_1737" class="edge">
<path fill="none" stroke="#999999" stroke-width="8.87019" d="M247.573,-201.067C293.464,-231.844 388.003,-295.248 450.743,-337.325"/>
<polygon fill="#999999" stroke="#999999" points="437.963,-356.79 475.848,-354.161 463.901,-318.114 437.963,-356.79"/>
</g>
<g id="2229_168" class="edge">
<path fill="none" stroke="#999999" stroke-width="5.08413" d="M1324.2,-1028.22C1360.43,-1076.78 1438.7,-1181.69 1485.97,-1245.05"/>
<polygon fill="#999999" stroke="#999999" points="1475.48,-1253.31 1504.11,-1269.38 1496.87,-1237.35 1475.48,-1253.31"/>
</g>
<g id="8800_168" class="edge">
<path fill="none" stroke="#999999" stroke-width="6.09375" d="M1329.45,-980.728C1363.34,-951.509 1425.19,-898.195 1470.9,-858.792"/>
<polygon fill="#999999" stroke="#999999" points="1481.44,-870.82 1493.72,-839.116 1460.55,-846.588 1481.44,-870.82"/>
</g>
<g id="145304_168" class="edge">
<path fill="none" stroke="#999999" stroke-width="7.1875" d="M1272.71,-1004.07C1221.26,-1007.27 1117.93,-1013.72 1039.43,-1018.61"/>
<polygon fill="#999999" stroke="#999999" points="1038.17,-999.787 1009.4,-1020.49 1040.52,-1037.45 1038.17,-999.787"/>
</g>
<g id="145304_38177" class="edge">
<path fill="none" stroke="#999999" stroke-width="10.5529" d="M1067.28,-907.232C1057.07,-916.46 1044.62,-927.725 1031.5,-939.591"/>
<polygon fill="#999999" stroke="#999999" points="1012.74,-919.204 1009.07,-959.872 1049.9,-960.295 1012.74,-919.204"/>
</g>
<g id="4165_1677" class="edge">
<path fill="none" stroke="#999999" stroke-width="7.1875" d="M653.865,-1284.63C624.126,-1250.31 570.85,-1188.82 526.224,-1137.32"/>
<polygon fill="#999999" stroke="#999999" points="540.349,-1124.81 506.445,-1114.49 511.831,-1149.52 540.349,-1124.81"/>
</g>
<g id="145304_1677" class="edge">
<path fill="none" stroke="#999999" stroke-width="8.87019" d="M700.412,-1285.27C734.206,-1248.1 798.218,-1177.7 851.153,-1119.48"/>
<polygon fill="#999999" stroke="#999999" points="868.597,-1134.91 871.551,-1097.05 834.141,-1103.58 868.597,-1134.91"/>
</g>
<g id="8406_38371" class="edge">
<path fill="none" stroke="#999999" stroke-width="13.0769" d="M1032.47,-200.372C1014.47,-249.011 980.955,-339.56 956.228,-406.366"/>
<polygon fill="#999999" stroke="#999999" points="923.961,-394.653 945.74,-434.703 988.346,-418.484 923.961,-394.653"/>
</g>
<g id="2245_1991" class="edge">
<path fill="none" stroke="#999999" stroke-width="13.0769" d="M484.075,-73.9928C489.294,-130.632 499.425,-240.569 505.979,-311.692"/>
<polygon fill="#999999" stroke="#999999" points="471.814,-315.029 508.749,-341.752 540.178,-308.729 471.814,-315.029"/>
</g>
<g id="145304_39357" class="edge">
<path fill="none" stroke="#999999" stroke-width="13.0769" d="M904.193,-1355.55C909.439,-1302.79 919.335,-1203.27 926.903,-1127.16"/>
<polygon fill="#999999" stroke="#999999" points="961.07,-1130.46 929.88,-1097.21 892.753,-1123.67 961.07,-1130.46"/>
</g>
<g id="2229_39472" class="edge">
<path fill="none" stroke="#999999" stroke-width="6.34615" d="M1330.46,-1119.66C1366.59,-1152.62 1430.5,-1210.94 1475.07,-1251.62"/>
<polygon fill="#999999" stroke="#999999" points="1463.86,-1263.94 1497.25,-1271.85 1486.32,-1239.33 1463.86,-1263.94"/>
</g>
<g id="8800_39472" class="edge">
<path fill="none" stroke="#999999" stroke-width="9.71154" d="M1326.09,-1065.02C1362.77,-1018.62 1434.76,-927.544 1482.14,-867.607"/>
<polygon fill="#999999" stroke="#999999" points="1502.16,-883.391 1500.77,-844.047 1462.16,-851.773 1502.16,-883.391"/>
</g>
<g id="145304_39472" class="edge">
<path fill="none" stroke="#999999" stroke-width="8.02885" d="M1266.42,-1087.53C1213.87,-1077.55 1114.77,-1058.74 1038.94,-1044.34"/>
<polygon fill="#999999" stroke="#999999" points="1042.77,-1023.62 1009.37,-1038.73 1034.91,-1065.03 1042.77,-1023.62"/>
</g>
<g id="4165_39350" class="edge">
<path fill="none" stroke="#999999" stroke-width="13.0769" d="M676.552,-1195.76C641.59,-1173.17 587.259,-1138.06 540.572,-1107.89"/>
<polygon fill="#999999" stroke="#999999" points="559.066,-1078.98 515.239,-1091.53 521.807,-1136.64 559.066,-1078.98"/>
</g>
<g id="145304_39350" class="edge">
<path fill="none" stroke="#999999" stroke-width="13.0769" d="M745.42,-1190.95C770.907,-1168.88 807.688,-1137.03 842.227,-1107.12"/>
<polygon fill="#999999" stroke="#999999" points="864.826,-1132.96 865.033,-1087.37 819.883,-1081.06 864.826,-1132.96"/>
</g>
<g id="2231_5460" class="edge">
<path fill="none" stroke="#999999" stroke-width="21.4904" d="M628.582,-1008.05C588.121,-974.351 522.411,-919.629 471.114,-876.909"/>
<polygon fill="#999999" stroke="#999999" points="507.138,-833.497 447.985,-857.647 434.937,-920.194 507.138,-833.497"/>
</g>
<g id="145304_5460" class="edge">
<path fill="none" stroke="#999999" stroke-width="13.0769" d="M714.016,-1036.57C747.456,-1034.84 793.261,-1032.46 834.664,-1030.31"/>
<polygon fill="#999999" stroke="#999999" points="836.659,-1064.58 864.84,-1028.74 833.101,-996.019 836.659,-1064.58"/>
</g>
<g id="8800_671" class="edge">
<path fill="none" stroke="#999999" stroke-width="5" d="M1228.97,-732.084C1290.83,-748.097 1396.71,-775.5 1464.48,-793.042"/>
<polygon fill="#999999" stroke="#999999" points="1461.58,-805.848 1493.91,-800.658 1468.15,-780.435 1461.58,-805.848"/>
</g>
<g id="8406_671" class="edge">
<path fill="none" stroke="#999999" stroke-width="24.4351" d="M1141.38,-684.818C1104.7,-651.586 1048.11,-600.315 1002.08,-558.608"/>
<polygon fill="#999999" stroke="#999999" points="1045.1,-511.031 979.802,-538.42 958.966,-606.097 1045.1,-511.031"/>
</g>
<g id="145304_671" class="edge">
<path fill="none" stroke="#999999" stroke-width="13.9183" d="M1147.7,-759.22C1113.69,-802.135 1058.42,-871.871 1013.03,-929.143"/>
<polygon fill="#999999" stroke="#999999" points="984.271,-906.606 994.271,-952.811 1041.54,-951.992 984.271,-906.606"/>
</g>
<g id="4171_39514" class="edge">
<path fill="none" stroke="#999999" stroke-width="13.0769" d="M638.612,-760.299C591.369,-727.585 526.346,-682.559 477.396,-648.663"/>
<polygon fill="#999999" stroke="#999999" points="496.62,-620.222 452.413,-631.364 457.535,-676.664 496.62,-620.222"/>
</g>
<g id="2231_39514" class="edge">
<path fill="none" stroke="#999999" stroke-width="21.4904" d="M625.709,-805.964C580.988,-807.572 524.149,-809.616 478.182,-811.27"/>
<polygon fill="#999999" stroke="#999999" points="475.978,-754.9 448.025,-812.354 480.033,-867.652 475.978,-754.9"/>
</g>
<g id="8406_39514" class="edge">
<path fill="none" stroke="#999999" stroke-width="16.4423" d="M744.559,-741.979C780.065,-692.401 830.317,-622.232 868.864,-568.408"/>
<polygon fill="#999999" stroke="#999999" points="904.084,-593.358 886.461,-543.837 833.903,-543.096 904.084,-593.358"/>
</g>
<g id="4165_39514" class="edge">
<path fill="none" stroke="#999999" stroke-width="29.9038" d="M646.902,-856.07C614.83,-887.568 573.356,-928.3 536.752,-964.249"/>
<polygon fill="#999999" stroke="#999999" points="481.697,-908.295 515.296,-985.321 591.703,-1020.31 481.697,-908.295"/>
</g>
<g id="145304_39514" class="edge">
<path fill="none" stroke="#999999" stroke-width="21.4904" d="M755.792,-854.973C781.667,-879.243 813.245,-908.862 842.75,-936.537"/>
<polygon fill="#999999" stroke="#999999" points="804.307,-977.822 864.781,-957.201 881.492,-895.531 804.307,-977.822"/>
</g>
<g id="2245_1137" class="edge">
<path fill="none" stroke="#999999" stroke-width="6.34615" d="M634.055,-639.126C606.63,-580.5 568.437,-498.854 542.143,-442.646"/>
<polygon fill="#999999" stroke="#999999" points="557.052,-435.202 529.251,-415.087 526.874,-449.319 557.052,-435.202"/>
</g>
<g id="4171_1137" class="edge">
<path fill="none" stroke="#999999" stroke-width="22.3317" d="M594.269,-680.301C558.493,-664.998 515.686,-646.688 480.141,-631.484"/>
<polygon fill="#999999" stroke="#999999" points="502.942,-577.479 452.306,-619.578 456.834,-685.273 502.942,-577.479"/>
</g>
<g id="2231_1137" class="edge">
<path fill="none" stroke="#999999" stroke-width="13.0769" d="M592.976,-740.115C556.68,-753.762 513.087,-770.152 476.134,-784.046"/>
<polygon fill="#999999" stroke="#999999" points="463.884,-751.978 447.884,-794.667 488.045,-816.24 463.884,-751.978"/>
</g>
<g id="8406_1137" class="edge">
<path fill="none" stroke="#999999" stroke-width="8.87019" d="M728.775,-659.4C764.6,-628.423 810.293,-588.915 848.628,-555.768"/>
<polygon fill="#999999" stroke="#999999" points="863.928,-573.32 871.392,-536.085 833.47,-538.094 863.928,-573.32"/>
</g>
<g id="4165_1137" class="edge">
<path fill="none" stroke="#999999" stroke-width="40" d="M624.487,-779.368C591.228,-830.852 545.08,-902.291 508.603,-958.758"/>
<polygon fill="#999999" stroke="#999999" points="420.17,-902.147 492.089,-984.321 596.566,-1016.1 420.17,-902.147"/>
</g>
<g id="145304_1137" class="edge">
<path fill="none" stroke="#999999" stroke-width="28.2212" d="M720.266,-772.619C758.599,-817.244 811.428,-878.744 855.339,-929.861"/>
<polygon fill="#999999" stroke="#999999" points="799.377,-978.403 875.119,-952.888 911.765,-881.86 799.377,-978.403"/>
</g>
<g id="39485" class="node">
<ellipse fill="#ffffff" stroke="cadetblue" stroke-width="10" cx="1194.22" cy="-275.659" rx="28" ry="28.5"/>
<image xlink:href="com_images/cunknown_coal_co.png" width="56px" height="56px" preserveAspectRatio="xMinYMin meet" x="1166.22" y="-303.659"/>
<ellipse fill="none" stroke="cadetblue" stroke-width="10" cx="1194.22" cy="-275.659" rx="28" ry="28.5"/>
<text text-anchor="start" x="1237.22" y="-271.659" font-family="Times Roman,serif" font-size="15.00">PACKIN COAL</text>
</g>
<g id="289" class="node">
<ellipse fill="#ffffff" stroke="cadetblue" stroke-width="10" cx="1112.85" cy="-1262.87" rx="29" ry="29"/>
<image xlink:href="com_images/cunknown_oil_co.png" width="58px" height="58px" preserveAspectRatio="xMinYMin meet" x="1083.85" y="-1291.87"/>
<ellipse fill="none" stroke="cadetblue" stroke-width="10" cx="1112.85" cy="-1262.87" rx="29" ry="29"/>
<text text-anchor="start" x="1156.85" y="-1258.87" font-family="Times Roman,serif" font-size="15.00">Arctic Slope Regional</text>
</g>
<g id="4211" class="node">
<ellipse fill="#ffffff" stroke="cadetblue" stroke-width="10" cx="31" cy="-826.317" rx="30" ry="30"/>
<image xlink:href="com_images/cunknown_oil_co.png" width="60px" height="60px" preserveAspectRatio="xMinYMin meet" x="1" y="-856.317"/>
<ellipse fill="none" stroke="cadetblue" stroke-width="10" cx="31" cy="-826.317" rx="30" ry="30"/>
<text text-anchor="start" x="76" y="-822.317" font-family="Times Roman,serif" font-size="15.00">Peak Oilfield Service</text>
</g>
<g id="31946" class="node">
<ellipse fill="#ffffff" stroke="cadetblue" stroke-width="10" cx="237.672" cy="-1343.92" rx="30" ry="30"/>
<image xlink:href="com_images/c31946.png" width="60px" height="60px" preserveAspectRatio="xMinYMin meet" x="207.672" y="-1373.92"/>
<ellipse fill="none" stroke="cadetblue" stroke-width="10" cx="237.672" cy="-1343.92" rx="30" ry="30"/>
<text text-anchor="start" x="282.672" y="-1339.92" font-family="Times Roman,serif" font-size="15.00">NANA Regional Corp</text>
</g>
<g id="38670" class="node">
<ellipse fill="#ffffff" stroke="cadetblue" stroke-width="10" cx="64.0716" cy="-486.256" rx="30" ry="30"/>
<image xlink:href="com_images/cunknown_oil_co.png" width="60px" height="60px" preserveAspectRatio="xMinYMin meet" x="34.0716" y="-516.256"/>
<ellipse fill="none" stroke="cadetblue" stroke-width="10" cx="64.0716" cy="-486.256" rx="30" ry="30"/>
<text text-anchor="start" x="109.0716" y="-482.256" font-family="Times Roman,serif" font-size="15.00">SELF EMPLOYED</text>
</g>
<g id="951" class="node">
<ellipse fill="#ffffff" stroke="cadetblue" stroke-width="10" cx="111.765" cy="-1139.45" rx="30" ry="30"/>
<image xlink:href="com_images/c951.png" width="60px" height="60px" preserveAspectRatio="xMinYMin meet" x="81.7652" y="-1169.45"/>
<ellipse fill="none" stroke="cadetblue" stroke-width="10" cx="111.765" cy="-1139.45" rx="30" ry="30"/>
<text text-anchor="start" x="156.765" y="-1135.45" font-family="Times Roman,serif" font-size="15.00">Chevron Corp</text>
</g>
<g id="39474" class="node">
<ellipse fill="#ffffff" stroke="cadetblue" stroke-width="10" cx="1849.77" cy="-907.339" rx="30" ry="30"/>
<image xlink:href="com_images/cunknown_oil_co.png" width="60px" height="60px" preserveAspectRatio="xMinYMin meet" x="1819.77" y="-937.339"/>
<ellipse fill="none" stroke="cadetblue" stroke-width="10" cx="1849.77" cy="-907.339" rx="30" ry="30"/>
<text text-anchor="start" x="1894.77" y="-903.339" font-family="Times Roman,serif" font-size="15.00">NINESTAR ENTERPRISES</text>
</g>
<g id="2229" class="node">
<polygon fill="#ffffff" stroke="#3333cc" stroke-width="10" points="1551.53,-1323.75 1497.53,-1323.75 1497.53,-1269.75 1551.53,-1269.75 1551.53,-1323.75"/>
<polygon fill="none" stroke="#3333cc" stroke-width="10" points="1551.53,-1323.75 1497.53,-1323.75 1497.53,-1269.75 1551.53,-1269.75 1551.53,-1323.75"/>
<text text-anchor="middle" x="1524.53" y="-1292.75" font-family="Times Roman,serif" font-size="15.00">Johnny Ellis</text>
</g>
<g id="37852" class="node">
<ellipse fill="#ffffff" stroke="cadetblue" stroke-width="10" cx="1038.21" cy="-1376.38" rx="31" ry="31"/>
<image xlink:href="com_images/cunknown_oil_co.png" width="62px" height="62px" preserveAspectRatio="xMinYMin meet" x="1007.21" y="-1407.38"/>
<ellipse fill="none" stroke="cadetblue" stroke-width="10" cx="1038.21" cy="-1376.38" rx="31" ry="31"/>
<text text-anchor="start" x="1084.21" y="-1372.38" font-family="Times Roman,serif" font-size="15.00">HOMEMAKER</text>
</g>
<g id="30934" class="node">
<ellipse fill="#ffffff" stroke="cadetblue" stroke-width="10" cx="860.146" cy="-155.214" rx="31" ry="31.5"/>
<image xlink:href="com_images/cunknown_coal_co.png" width="62px" height="62px" preserveAspectRatio="xMinYMin meet" x="829.146" y="-186.214"/>
<ellipse fill="none" stroke="cadetblue" stroke-width="10" cx="860.146" cy="-155.214" rx="31" ry="31.5"/>
<text text-anchor="start" x="906.146" y="-151.214" font-family="Times Roman,serif" font-size="15.00">Doyon Limited</text>
</g>
<g id="32624" class="node">
<ellipse fill="#ffffff" stroke="cadetblue" stroke-width="10" cx="1788.02" cy="-606.581" rx="31" ry="31.5"/>
<image xlink:href="com_images/cunknown_oil_co.png" width="62px" height="62px" preserveAspectRatio="xMinYMin meet" x="1757.02" y="-637.581"/>
<ellipse fill="none" stroke="cadetblue" stroke-width="10" cx="1788.02" cy="-606.581" rx="31" ry="31.5"/>
<text text-anchor="start" x="1834.02" y="-602.581" font-family="Times Roman,serif" font-size="15.00">Chugach Electric Assn</text>
</g>
<g id="3179" class="node">
<polygon fill="#ffffff" stroke="#cc3333" stroke-width="10" points="1478,-188 1420,-188 1420,-130 1478,-130 1478,-188"/>
<image xlink:href="can_images/3179.jpg" width="43.3067px" height="58px" preserveAspectRatio="xMinYMin meet" x="1427.35" y="-188"/>
<polygon fill="none" stroke="#cc3333" stroke-width="10" points="1478,-188 1420,-188 1420,-130 1478,-130 1478,-188"/>
<text text-anchor="middle" x="1449" y="-155" font-family="Times Roman,serif" font-size="15.00">John Coghill</text>
</g>
<g id="2841" class="node">
<ellipse fill="#ffffff" stroke="cadetblue" stroke-width="10" cx="1652.65" cy="-362.647" rx="32" ry="32.5"/>
<image xlink:href="com_images/c48.png" width="64px" height="64px" preserveAspectRatio="xMinYMin meet" x="1620.65" y="-394.647"/>
<ellipse fill="none" stroke="cadetblue" stroke-width="10" cx="1652.65" cy="-362.647" rx="32" ry="32.5"/>
<text text-anchor="start" x="1699.65" y="-358.647" font-family="Times Roman,serif" font-size="15.00">Koch Industries</text>
</g>
<g id="1737" class="node">
<ellipse fill="#ffffff" stroke="cadetblue" stroke-width="10" cx="220.675" cy="-183.028" rx="32" ry="32.5"/>
<image xlink:href="com_images/c28.png" width="64px" height="64px" preserveAspectRatio="xMinYMin meet" x="188.675" y="-215.028"/>
<ellipse fill="none" stroke="cadetblue" stroke-width="10" cx="220.675" cy="-183.028" rx="32" ry="32.5"/>
<text text-anchor="start" x="267.675" y="-179.028" font-family="Times Roman,serif" font-size="15.00">Exxon Mobil</text>
</g>
<g id="168" class="node">
<ellipse fill="#ffffff" stroke="cadetblue" stroke-width="10" cx="1304.69" cy="-1002.07" rx="32" ry="32.5"/>
<image xlink:href="com_images/cunknown_oil_co.png" width="64px" height="64px" preserveAspectRatio="xMinYMin meet" x="1272.69" y="-1034.07"/>
<ellipse fill="none" stroke="cadetblue" stroke-width="10" cx="1304.69" cy="-1002.07" rx="32" ry="32.5"/>
<text text-anchor="start" x="1351.69" y="-998.072" font-family="Times Roman,serif" font-size="15.00">Alyeska Pipeline Service Co</text>
</g>
<g id="38177" class="node">
<ellipse fill="#ffffff" stroke="cadetblue" stroke-width="10" cx="1092.62" cy="-884.317" rx="34" ry="34"/>
<image xlink:href="com_images/cunknown_oil_co.png" width="68px" height="68px" preserveAspectRatio="xMinYMin meet" x="1058.62" y="-918.317"/>
<ellipse fill="none" stroke="cadetblue" stroke-width="10" cx="1092.62" cy="-884.317" rx="34" ry="34"/>
<text text-anchor="start" x="1141.62" y="-880.317" font-family="Times Roman,serif" font-size="15.00">N/A</text>
</g>
<g id="1677" class="node">
<ellipse fill="#ffffff" stroke="cadetblue" stroke-width="10" cx="676.862" cy="-1311.17" rx="35" ry="35"/>
<image xlink:href="com_images/c1677.png" width="70px" height="70px" preserveAspectRatio="xMinYMin meet" x="641.862" y="-1346.17"/>
<ellipse fill="none" stroke="cadetblue" stroke-width="10" cx="676.862" cy="-1311.17" rx="35" ry="35"/>
<text text-anchor="start" x="726.862" y="-1307.17" font-family="Times Roman,serif" font-size="15.00">Enstar Natural Gas</text>
</g>
<g id="38371" class="node">
<ellipse fill="#ffffff" stroke="cadetblue" stroke-width="10" cx="1045.16" cy="-166.094" rx="36" ry="36.5"/>
<image xlink:href="com_images/cunknown_oil_co.png" width="72px" height="72px" preserveAspectRatio="xMinYMin meet" x="1009.16" y="-202.094"/>
<ellipse fill="none" stroke="cadetblue" stroke-width="10" cx="1045.16" cy="-166.094" rx="36" ry="36.5"/>
<text text-anchor="start" x="1096.16" y="-162.094" font-family="Times Roman,serif" font-size="15.00">OWNER</text>
</g>
<g id="1991" class="node">
<ellipse fill="#ffffff" stroke="cadetblue" stroke-width="10" cx="480.712" cy="-37.5" rx="36" ry="36.5"/>
<image xlink:href="com_images/cunknown_oil_co.png" width="72px" height="72px" preserveAspectRatio="xMinYMin meet" x="444.712" y="-73.5"/>
<ellipse fill="none" stroke="cadetblue" stroke-width="10" cx="480.712" cy="-37.5" rx="36" ry="36.5"/>
<text text-anchor="start" x="531.712" y="-33.5" font-family="Times Roman,serif" font-size="15.00">Gas Station Operator</text>
</g>
<g id="39357" class="node">
<ellipse fill="#ffffff" stroke="cadetblue" stroke-width="10" cx="900.56" cy="-1392.09" rx="36" ry="36.5"/>
<image xlink:href="com_images/cunknown_oil_co.png" width="72px" height="72px" preserveAspectRatio="xMinYMin meet" x="864.56" y="-1428.09"/>
<ellipse fill="none" stroke="cadetblue" stroke-width="10" cx="900.56" cy="-1392.09" rx="36" ry="36.5"/>
<text text-anchor="start" x="951.56" y="-1388.09" font-family="Times Roman,serif" font-size="15.00">HAWK CONSULTANTS</text>
</g>
<g id="39472" class="node">
<ellipse fill="#ffffff" stroke="cadetblue" stroke-width="10" cx="1302.83" cy="-1094.44" rx="37" ry="37.5"/>
<image xlink:href="com_images/cunknown_oil_co.png" width="74px" height="74px" preserveAspectRatio="xMinYMin meet" x="1265.83" y="-1131.44"/>
<ellipse fill="none" stroke="cadetblue" stroke-width="10" cx="1302.83" cy="-1094.44" rx="37" ry="37.5"/>
<text text-anchor="start" x="1354.83" y="-1090.44" font-family="Times Roman,serif" font-size="15.00">NINE STAR ENTERPRISES</text>
</g>
<g id="8800" class="node">
<polygon fill="#ffffff" stroke="#3333cc" stroke-width="10" points="1562.07,-844.001 1494.07,-844.001 1494.07,-775.001 1562.07,-775.001 1562.07,-844.001"/>
<image xlink:href="can_images/8800.jpg" width="51.52px" height="69px" preserveAspectRatio="xMinYMin meet" x="1502.31" y="-844.001"/>
<polygon fill="none" stroke="#3333cc" stroke-width="10" points="1562.07,-844.001 1494.07,-844.001 1494.07,-775.001 1562.07,-775.001 1562.07,-844.001"/>
<text text-anchor="middle" x="1528.07" y="-805.501" font-family="Times Roman,serif" font-size="15.00">Bill Wielechowski</text>
</g>
<g id="2245" class="node">
<polygon fill="#ffffff" stroke="#3333cc" stroke-width="10" points="548.135,-414.998 476.135,-414.998 476.135,-341.998 548.135,-341.998 548.135,-414.998"/>
<polygon fill="none" stroke="#3333cc" stroke-width="10" points="548.135,-414.998 476.135,-414.998 476.135,-341.998 548.135,-341.998 548.135,-414.998"/>
<text text-anchor="middle" x="512.135" y="-374.498" font-family="Times Roman,serif" font-size="15.00">Dennis Egan</text>
</g>
<g id="39350" class="node">
<ellipse fill="#ffffff" stroke="cadetblue" stroke-width="10" cx="712.812" cy="-1219.19" rx="43" ry="43"/>
<image xlink:href="com_images/c39350.png" width="86px" height="86px" preserveAspectRatio="xMinYMin meet" x="669.812" y="-1262.19"/>
<ellipse fill="none" stroke="cadetblue" stroke-width="10" cx="712.812" cy="-1219.19" rx="43" ry="43"/>
<text text-anchor="start" x="770.812" y="-1215.19" font-family="Times Roman,serif" font-size="15.00">CONAM CONSTRUCTION</text>
</g>
<g id="5460" class="node">
<ellipse fill="#ffffff" stroke="cadetblue" stroke-width="10" cx="665.839" cy="-1039.07" rx="48" ry="48.5"/>
<image xlink:href="com_images/c185.png" width="96px" height="96px" preserveAspectRatio="xMinYMin meet" x="617.839" y="-1087.07"/>
<ellipse fill="none" stroke="cadetblue" stroke-width="10" cx="665.839" cy="-1039.07" rx="48" ry="48.5"/>
<text text-anchor="start" x="728.839" y="-1035.07" font-family="Times Roman,serif" font-size="15.00">Tesoro Petroleum</text>
</g>
<g id="4171" class="node">
<polygon fill="#ffffff" stroke="#cc3333" stroke-width="10" points="452.063,-645.153 364.063,-645.153 364.063,-556.153 452.063,-556.153 452.063,-645.153"/>
<image xlink:href="can_images/4171.jpg" width="62.3px" height="89px" preserveAspectRatio="xMinYMin meet" x="376.913" y="-645.153"/>
<polygon fill="none" stroke="#cc3333" stroke-width="10" points="452.063,-645.153 364.063,-645.153 364.063,-556.153 452.063,-556.153 452.063,-645.153"/>
<text text-anchor="middle" x="408.063" y="-596.653" font-family="Times Roman,serif" font-size="15.00">Charlie Huggins</text>
</g>
<g id="671" class="node">
<ellipse fill="#ffffff" stroke="cadetblue" stroke-width="10" cx="1179.38" cy="-719.249" rx="51" ry="51"/>
<image xlink:href="com_images/c671.png" width="102px" height="102px" preserveAspectRatio="xMinYMin meet" x="1128.38" y="-770.249"/>
<ellipse fill="none" stroke="cadetblue" stroke-width="10" cx="1179.38" cy="-719.249" rx="51" ry="51"/>
<text text-anchor="start" x="1245.38" y="-715.249" font-family="Times Roman,serif" font-size="15.00">BP</text>
</g>
<g id="2231" class="node">
<polygon fill="#ffffff" stroke="#3333cc" stroke-width="10" points="447.851,-866.731 343.851,-866.731 343.851,-761.731 447.851,-761.731 447.851,-866.731"/>
<polygon fill="none" stroke="#3333cc" stroke-width="10" points="447.851,-866.731 343.851,-866.731 343.851,-761.731 447.851,-761.731 447.851,-866.731"/>
<text text-anchor="middle" x="395.851" y="-810.231" font-family="Times Roman,serif" font-size="15.00">Lyman Hoffman</text>
</g>
<g id="8406" class="node">
<polygon fill="#ffffff" stroke="#3333cc" stroke-width="10" points="979.546,-543.761 871.546,-543.761 871.546,-434.761 979.546,-434.761 979.546,-543.761"/>
<image xlink:href="can_images/8406.jpg" width="79.2727px" height="109px" preserveAspectRatio="xMinYMin meet" x="885.91" y="-543.761"/>
<polygon fill="none" stroke="#3333cc" stroke-width="10" points="979.546,-543.761 871.546,-543.761 871.546,-434.761 979.546,-434.761 979.546,-543.761"/>
<text text-anchor="middle" x="925.546" y="-485.261" font-family="Times Roman,serif" font-size="15.00">Joe Thomas</text>
</g>
<g id="4165" class="node">
<polygon fill="#ffffff" stroke="#cc3333" stroke-width="10" points="515.047,-1114.4 385.047,-1114.4 385.047,-984.403 515.047,-984.403 515.047,-1114.4"/>
<polygon fill="none" stroke="#cc3333" stroke-width="10" points="515.047,-1114.4 385.047,-1114.4 385.047,-984.403 515.047,-984.403 515.047,-1114.4"/>
<text text-anchor="middle" x="450.047" y="-1045.4" font-family="Times Roman,serif" font-size="15.00">Lesil McGuire</text>
</g>
<g id="39514" class="node">
<ellipse fill="#ffffff" stroke="cadetblue" stroke-width="10" cx="700.666" cy="-803.268" rx="75" ry="75.5"/>
<image xlink:href="com_images/c39514.png" width="150px" height="150px" preserveAspectRatio="xMinYMin meet" x="625.666" y="-878.268"/>
<ellipse fill="none" stroke="cadetblue" stroke-width="10" cx="700.666" cy="-803.268" rx="75" ry="75.5"/>
<text text-anchor="start" x="790.666" y="-799.268" font-family="Times Roman,serif" font-size="15.00">UDELHOVEN OIL</text>
</g>
<g id="1137" class="node">
<ellipse fill="#ffffff" stroke="cadetblue" stroke-width="10" cx="668.086" cy="-711.875" rx="80" ry="80"/>
<image xlink:href="com_images/c92.png" width="160px" height="160px" preserveAspectRatio="xMinYMin meet" x="588.086" y="-791.875"/>
<ellipse fill="none" stroke="cadetblue" stroke-width="10" cx="668.086" cy="-711.875" rx="80" ry="80"/>
<text text-anchor="start" x="763.086" y="-707.875" font-family="Times Roman,serif" font-size="15.00">ConocoPhillips</text>
</g>
<g id="145304" class="node">
<polygon fill="#ffffff" stroke="#cc3333" stroke-width="10" points="1009.06,-1097 865.061,-1097 865.061,-952.996 1009.06,-952.996 1009.06,-1097"/>
<image xlink:href="can_images/145304.jpg" width="116.911px" height="144px" preserveAspectRatio="xMinYMin meet" x="878.605" y="-1097"/>
<polygon fill="none" stroke="#cc3333" stroke-width="10" points="1009.06,-1097 865.061,-1097 865.061,-952.996 1009.06,-952.996 1009.06,-1097"/>
<text text-anchor="middle" x="937.061" y="-1021" font-family="Times Roman,serif" font-size="15.00">Cathy Giessel</text>
</g>
</g>
</svg>
