<svg width="0.94077083333336px" height="1px"
  xmlns="http://www.w3.org/2000/svg" xmlns:xlink="http://www.w3.org/1999/xlink">
<g id="graph0" class="graph" transform="scale(0.00066061562500002 0.00066061562500002) rotate(0) translate(4 1509.74)">

<polygon id='svgscreen' style="opacity:0;" fill="#ffffff" stroke="#ffffff" points="-4,5 -4,-1509.74 1421.08,-1509.74 1421.08,5 -4,5"/>
<g id="4144_39405" class="edge">
<path fill="none" stroke="#999999" stroke-width="5" d="M640.309,-488.439C650.222,-529.489 669.267,-608.352 684.849,-672.879"/>
<polygon fill="#999999" stroke="#999999" points="672.142,-676.17 691.942,-702.25 697.658,-670.008 672.142,-676.17"/>
</g>
<g id="4144_31946" class="edge">
<path fill="none" stroke="#999999" stroke-width="8.84146" d="M486,-532.685C516.262,-565.433 573.491,-627.364 622.443,-680.338"/>
<polygon fill="#999999" stroke="#999999" points="605.407,-696.1 642.813,-702.381 639.498,-664.597 605.407,-696.1"/>
</g>
<g id="2244_168" class="edge">
<path fill="none" stroke="#999999" stroke-width="9.26829" d="M400.965,-1205.97C432.649,-1237.65 490.581,-1295.58 532.318,-1337.32"/>
<polygon fill="#999999" stroke="#999999" points="515.152,-1354.56 553.569,-1358.57 549.559,-1320.15 515.152,-1354.56"/>
</g>
<g id="4144_951" class="edge">
<path fill="none" stroke="#999999" stroke-width="10.9756" d="M961.67,-878.381C925.406,-863.436 863.072,-837.747 809.438,-815.643"/>
<polygon fill="#999999" stroke="#999999" points="820.28,-788.95 781.565,-804.156 798.324,-842.225 820.28,-788.95"/>
</g>
<g id="4140_39492" class="edge">
<path fill="none" stroke="#999999" stroke-width="11.8293" d="M1266.57,-63.6675C1244.59,-102.658 1204.85,-173.149 1174.25,-227.441"/>
<polygon fill="#999999" stroke="#999999" points="1147.11,-212.34 1159.43,-253.723 1201.21,-242.838 1147.11,-212.34"/>
</g>
<g id="4144_39383" class="edge">
<path fill="none" stroke="#999999" stroke-width="11.8293" d="M559.608,-992.15C579.753,-962.86 612.698,-914.958 642.566,-871.529"/>
<polygon fill="#999999" stroke="#999999" points="668.261,-888.966 659.676,-846.651 617.091,-853.773 668.261,-888.966"/>
</g>
<g id="4140_39350" class="edge">
<path fill="none" stroke="#999999" stroke-width="11.8293" d="M897.949,-449.199C936.865,-424.777 1005.33,-381.815 1058.2,-348.636"/>
<polygon fill="#999999" stroke="#999999" points="1074.91,-374.809 1083.81,-332.561 1041.89,-322.206 1074.91,-374.809"/>
</g>
<g id="4144_39350" class="edge">
<path fill="none" stroke="#999999" stroke-width="7.56098" d="M850.568,-500.875C829.306,-542.063 791.658,-614.991 760.582,-675.191"/>
<polygon fill="#999999" stroke="#999999" points="742.751,-666.464 746.626,-702.225 778.023,-684.672 742.751,-666.464"/>
</g>
<g id="9861_671" class="edge">
<path fill="none" stroke="#999999" stroke-width="8.41463" d="M729.615,-1191.52C737.551,-1247.16 752.706,-1353.41 762.133,-1419.49"/>
<polygon fill="#999999" stroke="#999999" points="740.311,-1422.93 766.414,-1449.51 784.045,-1416.69 740.311,-1422.93"/>
</g>
<g id="4144_671" class="edge">
<path fill="none" stroke="#999999" stroke-width="11.8293" d="M722.917,-1117.68C720.734,-1062.38 716.552,-956.435 713.408,-876.798"/>
<polygon fill="#999999" stroke="#999999" points="744.429,-875.407 712.218,-846.656 682.374,-877.857 744.429,-875.407"/>
</g>
<g id="4144_39359" class="edge">
<path fill="none" stroke="#999999" stroke-width="20.3659" d="M458.133,-697.224C496.033,-708.867 556.304,-727.382 608.313,-743.359"/>
<polygon fill="#999999" stroke="#999999" points="592.974,-794.573 637.35,-752.279 624.372,-692.366 592.974,-794.573"/>
</g>
<g id="4144_39514" class="edge">
<path fill="none" stroke="#999999" stroke-width="37.439" d="M868.705,-993.223C845.191,-960.931 810.592,-913.416 779.638,-870.906"/>
<polygon fill="#999999" stroke="#999999" points="859.051,-813.01 761.945,-846.609 700.158,-928.711 859.051,-813.01"/>
</g>
<g id="4172_1137" class="edge">
<path fill="none" stroke="#999999" stroke-width="11.8293" d="M299.44,-891.982C242.255,-900.316 150.078,-913.75 89.8869,-922.523"/>
<polygon fill="#999999" stroke="#999999" points="84.9927,-891.856 59.7847,-926.91 93.9494,-953.31 84.9927,-891.856"/>
</g>
<g id="4144_1137" class="edge">
<path fill="none" stroke="#999999" stroke-width="40" d="M400.761,-869.173C454.299,-852.732 540.82,-826.162 608.646,-805.333"/>
<polygon fill="#999999" stroke="#999999" points="639.508,-905.695 637.362,-796.514 577.859,-704.948 639.508,-905.695"/>
</g>
<g id="2878_5460" class="edge">
<path fill="none" stroke="#999999" stroke-width="11.8293" d="M1109,-638.587C1168.82,-654.533 1265.48,-680.301 1327.24,-696.766"/>
<polygon fill="#999999" stroke="#999999" points="1319.38,-726.806 1356.36,-704.53 1335.37,-666.798 1319.38,-726.806"/>
</g>
<g id="4140_5460" class="edge">
<path fill="none" stroke="#999999" stroke-width="37.439" d="M1068.33,-570.812C1080.65,-518.881 1099.49,-439.505 1113.49,-380.505"/>
<polygon fill="#999999" stroke="#999999" points="1209.2,-402.827 1120.51,-350.946 1017.96,-357.444 1209.2,-402.827"/>
</g>
<g id="4144_5460" class="edge">
<path fill="none" stroke="#999999" stroke-width="11.8293" d="M1004.91,-646.335C953.722,-668.515 873.315,-703.358 809.285,-731.104"/>
<polygon fill="#999999" stroke="#999999" points="796.813,-702.666 781.633,-743.087 821.506,-759.65 796.813,-702.666"/>
</g>
<g id="39405" class="node">
<ellipse fill="#ffffff" stroke="cadetblue" stroke-width="10" cx="633.584" cy="-460.591" rx="28" ry="28.5"/>
<image xlink:href="com_images/cunknown_oil_co.png" width="56px" height="56px" preserveAspectRatio="xMinYMin meet" x="605.584" y="-488.591"/>
<ellipse fill="none" stroke="cadetblue" stroke-width="10" cx="633.584" cy="-460.591" rx="28" ry="28.5"/>
<text text-anchor="start" x="676.584" y="-456.591" font-family="Times Roman,serif" font-size="15.00">ALASKA SUPPORT INDUSTRY ALLIANCE</text>
</g>
<g id="9861" class="node">
<polygon fill="#ffffff" stroke="#3333cc" stroke-width="10" points="797.37,-1504.74 743.37,-1504.74 743.37,-1449.74 797.37,-1449.74 797.37,-1504.74"/>
<image xlink:href="can_images/9861.jpg" width="41.0667px" height="55px" preserveAspectRatio="xMinYMin meet" x="749.836" y="-1504.74"/>
<polygon fill="none" stroke="#3333cc" stroke-width="10" points="797.37,-1504.74 743.37,-1504.74 743.37,-1449.74 797.37,-1449.74 797.37,-1504.74"/>
<text text-anchor="middle" x="770.37" y="-1473.24" font-family="Times Roman,serif" font-size="15.00">Joe Paskvan</text>
</g>
<g id="31946" class="node">
<ellipse fill="#ffffff" stroke="cadetblue" stroke-width="10" cx="464.716" cy="-509.654" rx="31" ry="31.5"/>
<image xlink:href="com_images/c31946.png" width="62px" height="62px" preserveAspectRatio="xMinYMin meet" x="433.716" y="-540.654"/>
<ellipse fill="none" stroke="cadetblue" stroke-width="10" cx="464.716" cy="-509.654" rx="31" ry="31.5"/>
<text text-anchor="start" x="510.716" y="-505.654" font-family="Times Roman,serif" font-size="15.00">NANA Regional Corp</text>
</g>
<g id="2244" class="node">
<polygon fill="#ffffff" stroke="#3333cc" stroke-width="10" points="609.647,-1414.65 553.647,-1414.65 553.647,-1358.65 609.647,-1358.65 609.647,-1414.65"/>
<polygon fill="none" stroke="#3333cc" stroke-width="10" points="609.647,-1414.65 553.647,-1414.65 553.647,-1358.65 609.647,-1358.65 609.647,-1414.65"/>
<text text-anchor="middle" x="581.647" y="-1382.65" font-family="Times Roman,serif" font-size="15.00">Bettye Davis</text>
</g>
<g id="168" class="node">
<ellipse fill="#ffffff" stroke="cadetblue" stroke-width="10" cx="378" cy="-1183" rx="32" ry="32"/>
<image xlink:href="com_images/cunknown_oil_co.png" width="64px" height="64px" preserveAspectRatio="xMinYMin meet" x="346" y="-1215"/>
<ellipse fill="none" stroke="cadetblue" stroke-width="10" cx="378" cy="-1183" rx="32" ry="32"/>
<text text-anchor="start" x="425" y="-1179" font-family="Times Roman,serif" font-size="15.00">Alyeska Pipeline Service Co</text>
</g>
<g id="951" class="node">
<ellipse fill="#ffffff" stroke="cadetblue" stroke-width="10" cx="992.208" cy="-890.966" rx="33" ry="33"/>
<image xlink:href="com_images/c951.png" width="66px" height="66px" preserveAspectRatio="xMinYMin meet" x="959.208" y="-923.966"/>
<ellipse fill="none" stroke="cadetblue" stroke-width="10" cx="992.208" cy="-890.966" rx="33" ry="33"/>
<text text-anchor="start" x="1040.208" y="-886.966" font-family="Times Roman,serif" font-size="15.00">Chevron Corp</text>
</g>
<g id="39492" class="node">
<ellipse fill="#ffffff" stroke="cadetblue" stroke-width="10" cx="1283.02" cy="-34.5" rx="33" ry="33.5"/>
<image xlink:href="com_images/cunknown_oil_co.png" width="66px" height="66px" preserveAspectRatio="xMinYMin meet" x="1250.02" y="-67.5"/>
<ellipse fill="none" stroke="cadetblue" stroke-width="10" cx="1283.02" cy="-34.5" rx="33" ry="33.5"/>
<text text-anchor="start" x="1331.02" y="-30.5" font-family="Times Roman,serif" font-size="15.00">PETERKIN DISTRIBUTING</text>
</g>
<g id="39383" class="node">
<ellipse fill="#ffffff" stroke="cadetblue" stroke-width="10" cx="540.574" cy="-1019.83" rx="33" ry="33.5"/>
<image xlink:href="com_images/cunknown_oil_co.png" width="66px" height="66px" preserveAspectRatio="xMinYMin meet" x="507.574" y="-1052.83"/>
<ellipse fill="none" stroke="cadetblue" stroke-width="10" cx="540.574" cy="-1019.83" rx="33" ry="33.5"/>
<text text-anchor="start" x="588.574" y="-1015.83" font-family="Times Roman,serif" font-size="15.00">UIC OILFIELD SERVICES</text>
</g>
<g id="4172" class="node">
<polygon fill="#ffffff" stroke="#cc3333" stroke-width="10" points="59.5,-960.678 1.5,-960.678 1.5,-901.678 59.5,-901.678 59.5,-960.678"/>
<polygon fill="none" stroke="#cc3333" stroke-width="10" points="59.5,-960.678 1.5,-960.678 1.5,-901.678 59.5,-901.678 59.5,-960.678"/>
<text text-anchor="middle" x="30.5" y="-927.178" font-family="Times Roman,serif" font-size="15.00">Bert Stedman</text>
</g>
<g id="2878" class="node">
<polygon fill="#ffffff" stroke="#cc3333" stroke-width="10" points="1414.58,-741.818 1356.58,-741.818 1356.58,-682.818 1414.58,-682.818 1414.58,-741.818"/>
<polygon fill="none" stroke="#cc3333" stroke-width="10" points="1414.58,-741.818 1356.58,-741.818 1356.58,-682.818 1414.58,-682.818 1414.58,-741.818"/>
<text text-anchor="middle" x="1385.58" y="-708.318" font-family="Times Roman,serif" font-size="15.00">Fred Dyson</text>
</g>
<g id="39350" class="node">
<ellipse fill="#ffffff" stroke="cadetblue" stroke-width="10" cx="867.322" cy="-468.419" rx="36" ry="36.5"/>
<image xlink:href="com_images/c39350.png" width="72px" height="72px" preserveAspectRatio="xMinYMin meet" x="831.322" y="-504.419"/>
<ellipse fill="none" stroke="cadetblue" stroke-width="10" cx="867.322" cy="-468.419" rx="36" ry="36.5"/>
<text text-anchor="start" x="918.322" y="-464.419" font-family="Times Roman,serif" font-size="15.00">CONAM CONSTRUCTION</text>
</g>
<g id="671" class="node">
<ellipse fill="#ffffff" stroke="cadetblue" stroke-width="10" cx="724.384" cy="-1154.85" rx="37" ry="37"/>
<image xlink:href="com_images/c671.png" width="74px" height="74px" preserveAspectRatio="xMinYMin meet" x="687.384" y="-1191.85"/>
<ellipse fill="none" stroke="cadetblue" stroke-width="10" cx="724.384" cy="-1154.85" rx="37" ry="37"/>
<text text-anchor="start" x="776.384" y="-1150.85" font-family="Times Roman,serif" font-size="15.00">BP</text>
</g>
<g id="39359" class="node">
<ellipse fill="#ffffff" stroke="cadetblue" stroke-width="10" cx="420.69" cy="-685.722" rx="39" ry="39"/>
<image xlink:href="com_images/cunknown_oil_co.png" width="78px" height="78px" preserveAspectRatio="xMinYMin meet" x="381.69" y="-724.722"/>
<ellipse fill="none" stroke="cadetblue" stroke-width="10" cx="420.69" cy="-685.722" rx="39" ry="39"/>
<text text-anchor="start" x="474.69" y="-681.722" font-family="Times Roman,serif" font-size="15.00">ICE SERVICES</text>
</g>
<g id="39514" class="node">
<ellipse fill="#ffffff" stroke="cadetblue" stroke-width="10" cx="896.76" cy="-1031.75" rx="47" ry="47.5"/>
<image xlink:href="com_images/c39514.png" width="94px" height="94px" preserveAspectRatio="xMinYMin meet" x="849.76" y="-1078.75"/>
<ellipse fill="none" stroke="cadetblue" stroke-width="10" cx="896.76" cy="-1031.75" rx="47" ry="47.5"/>
<text text-anchor="start" x="958.76" y="-1027.75" font-family="Times Roman,serif" font-size="15.00">UDELHOVEN OIL</text>
</g>
<g id="1137" class="node">
<ellipse fill="#ffffff" stroke="cadetblue" stroke-width="10" cx="350.921" cy="-884.479" rx="52" ry="52.5"/>
<image xlink:href="com_images/c92.png" width="104px" height="104px" preserveAspectRatio="xMinYMin meet" x="298.921" y="-936.479"/>
<ellipse fill="none" stroke="cadetblue" stroke-width="10" cx="350.921" cy="-884.479" rx="52" ry="52.5"/>
<text text-anchor="start" x="417.921" y="-880.479" font-family="Times Roman,serif" font-size="15.00">ConocoPhillips</text>
</g>
<g id="5460" class="node">
<ellipse fill="#ffffff" stroke="cadetblue" stroke-width="10" cx="1055.63" cy="-624.357" rx="55" ry="55"/>
<image xlink:href="com_images/c185.png" width="110px" height="110px" preserveAspectRatio="xMinYMin meet" x="1000.63" y="-679.357"/>
<ellipse fill="none" stroke="cadetblue" stroke-width="10" cx="1055.63" cy="-624.357" rx="55" ry="55"/>
<text text-anchor="start" x="1125.63" y="-620.357" font-family="Times Roman,serif" font-size="15.00">Tesoro Petroleum</text>
</g>
<g id="4140" class="node">
<polygon fill="#ffffff" stroke="#cc3333" stroke-width="10" points="1180.05,-350.786 1084.05,-350.786 1084.05,-253.786 1180.05,-253.786 1180.05,-350.786"/>
<image xlink:href="can_images/4140.jpg" width="72.4267px" height="97px" preserveAspectRatio="xMinYMin meet" x="1095.84" y="-350.786"/>
<polygon fill="none" stroke="#cc3333" stroke-width="10" points="1180.05,-350.786 1084.05,-350.786 1084.05,-253.786 1180.05,-253.786 1180.05,-350.786"/>
<text text-anchor="middle" x="1132.05" y="-298.286" font-family="Times Roman,serif" font-size="15.00">Thomas Wagoner</text>
</g>
<g id="4144" class="node">
<polygon fill="#ffffff" stroke="#cc3333" stroke-width="10" points="781.366,-846.402 637.366,-846.402 637.366,-702.402 781.366,-702.402 781.366,-846.402"/>
<image xlink:href="can_images/4144.jpg" width="107.52px" height="144px" preserveAspectRatio="xMinYMin meet" x="655.606" y="-846.402"/>
<polygon fill="none" stroke="#cc3333" stroke-width="10" points="781.366,-846.402 637.366,-846.402 637.366,-702.402 781.366,-702.402 781.366,-846.402"/>
<text text-anchor="middle" x="709.366" y="-770.402" font-family="Times Roman,serif" font-size="15.00">Kevin Meyer</text>
</g>
</g>
</svg>
