<svg width="613.85929166666px" height="614px"
  xmlns="http://www.w3.org/2000/svg" xmlns:xlink="http://www.w3.org/1999/xlink">
<g id="graph0" class="graph" transform="scale(1.0625397916667 1.0625397916667) rotate(0) translate(4 573.859)">

<polygon id='svgscreen' style="opacity:0;" fill="#ffffff" stroke="#ffffff" points="-4,5 -4,-573.859 574.727,-573.859 574.727,5 -4,5"/>
<g id="4387_3716" class="edge">
<path fill="none" stroke="#999999" stroke-width="5" d="M136.776,-433.275C168.567,-401.591 207.831,-362.461 237.882,-332.512"/>
<polygon fill="#999999" stroke="#999999" points="247.254,-341.702 259.239,-311.228 228.725,-323.109 247.254,-341.702"/>
</g>
<g id="4387_38226" class="edge">
<path fill="none" stroke="#999999" stroke-width="40" d="M430.297,-139.664C398.895,-171.193 360.501,-209.743 330.993,-239.371"/>
<polygon fill="#999999" stroke="#999999" points="256.309,-165.564 309.535,-260.916 405.102,-313.755 256.309,-165.564"/>
</g>
<g id="4387" class="node">
<polygon fill="#ffffff" stroke="#cc3333" stroke-width="10" points="309.47,-311.583 259.47,-311.583 259.47,-260.583 309.47,-260.583 309.47,-311.583"/>
<image xlink:href="can_images/unknownCandidate.jpg" width="50px" height="50px" preserveAspectRatio="xMinYMin meet" x="259.47" y="-311.083"/>
<polygon fill="none" stroke="#cc3333" stroke-width="10" points="309.47,-311.583 259.47,-311.583 259.47,-260.583 309.47,-260.583 309.47,-311.583"/>
<text text-anchor="middle" x="284.47" y="-282.083" font-family="Times Roman,serif" font-size="15.00">Rick Keene</text>
</g>
<g id="3716" class="node">
<ellipse fill="#ffffff" stroke="cadetblue" stroke-width="10" cx="80.5" cy="-489.359" rx="79" ry="79.5"/>
<image xlink:href="com_images/c109.png" width="158px" height="158px" preserveAspectRatio="xMinYMin meet" x="1.5" y="-568.359"/>
<ellipse fill="none" stroke="cadetblue" stroke-width="10" cx="80.5" cy="-489.359" rx="79" ry="79.5"/>
<text text-anchor="start" x="174.5" y="-485.359" font-family="Times Roman,serif" font-size="15.00">Occidental Petroleum</text>
</g>
<g id="38226" class="node">
<ellipse fill="#ffffff" stroke="cadetblue" stroke-width="10" cx="487.727" cy="-82" rx="81" ry="81"/>
<image xlink:href="com_images/cunknown_oil_co.png" width="162px" height="162px" preserveAspectRatio="xMinYMin meet" x="406.727" y="-163"/>
<ellipse fill="none" stroke="cadetblue" stroke-width="10" cx="487.727" cy="-82" rx="81" ry="81"/>
<text text-anchor="start" x="583.727" y="-78" font-family="Times Roman,serif" font-size="15.00">NORTHGATE PETROLEUM CO</text>
</g>
</g>
</svg>
