<svg width="412.56577083333px" height="431px"
  xmlns="http://www.w3.org/2000/svg" xmlns:xlink="http://www.w3.org/1999/xlink">
<g id="graph0" class="graph" transform="scale(0.28835471354166 0.28835471354166) rotate(0) translate(4 1490.69)">

<polygon id='svgscreen' style="opacity:0;" fill="#ffffff" stroke="#ffffff" points="-4,5 -4,-1490.69 1427.75,-1490.69 1427.75,5 -4,5"/>
<g id="4144_39405" class="edge">
<path fill="none" stroke="#999999" stroke-width="5" d="M655.699,-465.529C664.11,-507.012 680.291,-586.828 693.493,-651.945"/>
<polygon fill="#999999" stroke="#999999" points="680.674,-654.772 699.498,-681.566 706.401,-649.556 680.674,-654.772"/>
</g>
<g id="4144_31946" class="edge">
<path fill="none" stroke="#999999" stroke-width="8.84146" d="M555.807,-967.226C576.612,-939.15 611.25,-892.404 642.829,-849.788"/>
<polygon fill="#999999" stroke="#999999" points="661.478,-863.603 660.692,-825.682 624.183,-835.968 661.478,-863.603"/>
</g>
<g id="2244_168" class="edge">
<path fill="none" stroke="#999999" stroke-width="9.26829" d="M554.682,-1359.68C522.998,-1328 465.065,-1270.07 423.329,-1228.33"/>
<polygon fill="#999999" stroke="#999999" points="440.495,-1211.09 402.078,-1207.08 406.088,-1245.49 440.495,-1211.09"/>
</g>
<g id="4144_951" class="edge">
<path fill="none" stroke="#999999" stroke-width="10.9756" d="M501.312,-505.382C530.999,-540.012 585.997,-604.168 632.642,-658.579"/>
<polygon fill="#999999" stroke="#999999" points="610.958,-677.552 652.357,-681.576 654.705,-640.049 610.958,-677.552"/>
</g>
<g id="4140_39492" class="edge">
<path fill="none" stroke="#999999" stroke-width="11.8293" d="M1296.32,-63.08C1273.13,-101.058 1231.33,-169.537 1198.93,-222.606"/>
<polygon fill="#999999" stroke="#999999" points="1172.35,-206.55 1183.22,-248.336 1225.36,-238.911 1172.35,-206.55"/>
</g>
<g id="4144_39383" class="edge">
<path fill="none" stroke="#999999" stroke-width="11.8293" d="M459.502,-665.156C496.382,-677.968 559.377,-699.852 613.476,-718.645"/>
<polygon fill="#999999" stroke="#999999" points="603.456,-748.037 641.985,-728.549 623.836,-689.372 603.456,-748.037"/>
</g>
<g id="4140_39350" class="edge">
<path fill="none" stroke="#999999" stroke-width="11.8293" d="M914.464,-435.458C954.45,-412.286 1024.97,-371.418 1079.1,-340.049"/>
<polygon fill="#999999" stroke="#999999" points="1094.9,-366.783 1105.29,-324.875 1063.76,-313.05 1094.9,-366.783"/>
</g>
<g id="4144_39350" class="edge">
<path fill="none" stroke="#999999" stroke-width="7.56098" d="M865.247,-485.409C842.672,-525.467 802.839,-596.147 769.732,-654.893"/>
<polygon fill="#999999" stroke="#999999" points="752.28,-645.434 754.842,-681.314 786.862,-664.923 752.28,-645.434"/>
</g>
<g id="9861_671" class="edge">
<path fill="none" stroke="#999999" stroke-width="8.41463" d="M719.83,-1171.28C725.955,-1227.15 737.65,-1333.84 744.924,-1400.2"/>
<polygon fill="#999999" stroke="#999999" points="723.003,-1402.93 748.229,-1430.34 766.916,-1398.12 723.003,-1402.93"/>
</g>
<g id="4144_671" class="edge">
<path fill="none" stroke="#999999" stroke-width="11.8293" d="M715.629,-1097.25C715.383,-1041.89 714.912,-935.829 714.558,-856.108"/>
<polygon fill="#999999" stroke="#999999" points="745.609,-855.795 714.424,-825.933 683.506,-856.071 745.609,-855.795"/>
</g>
<g id="4144_39359" class="edge">
<path fill="none" stroke="#999999" stroke-width="20.3659" d="M957.372,-864.342C921.301,-847.922 863.842,-821.766 813.823,-798.997"/>
<polygon fill="#999999" stroke="#999999" points="835.672,-750.204 786.219,-786.431 791.374,-847.516 835.672,-750.204"/>
</g>
<g id="4144_39514" class="edge">
<path fill="none" stroke="#999999" stroke-width="37.439" d="M865.082,-977.733C842.518,-944.237 809.183,-894.75 779.571,-850.792"/>
<polygon fill="#999999" stroke="#999999" points="860.946,-795.686 762.676,-825.711 697.928,-905.499 860.946,-795.686"/>
</g>
<g id="4172_1137" class="edge">
<path fill="none" stroke="#999999" stroke-width="11.8293" d="M300.621,-856.764C243.185,-863.15 150.603,-873.444 90.1477,-880.166"/>
<polygon fill="#999999" stroke="#999999" points="86.298,-849.351 59.9133,-883.528 93.1611,-911.074 86.298,-849.351"/>
</g>
<g id="4144_1137" class="edge">
<path fill="none" stroke="#999999" stroke-width="40" d="M402.632,-837.47C456.836,-822.875 544.538,-799.26 613.089,-780.802"/>
<polygon fill="#999999" stroke="#999999" points="640.426,-882.181 642.094,-772.992 585.825,-679.403 640.426,-882.181"/>
</g>
<g id="2878_5460" class="edge">
<path fill="none" stroke="#999999" stroke-width="11.8293" d="M1118.48,-632.16C1177.54,-650.148 1272.88,-679.187 1334.03,-697.815"/>
<polygon fill="#999999" stroke="#999999" points="1325.16,-727.573 1362.91,-706.61 1343.25,-668.164 1325.16,-727.573"/>
</g>
<g id="4140_5460" class="edge">
<path fill="none" stroke="#999999" stroke-width="37.439" d="M1080.27,-563.002C1094.4,-511.689 1115.99,-433.335 1132.08,-374.92"/>
<polygon fill="#999999" stroke="#999999" points="1226.93,-400.654 1140.15,-345.629 1037.43,-348.449 1226.93,-400.654"/>
</g>
<g id="4144_5460" class="edge">
<path fill="none" stroke="#999999" stroke-width="11.8293" d="M1014.15,-636.212C961.857,-656.672 879.511,-688.889 814.304,-714.4"/>
<polygon fill="#999999" stroke="#999999" points="802.802,-685.556 786.178,-725.404 825.43,-743.391 802.802,-685.556"/>
</g>
<g id="39405" class="node">
<ellipse fill="#ffffff" stroke="cadetblue" stroke-width="10" cx="650.012" cy="-437.475" rx="28" ry="28.5"/>
<image xlink:href="com_images/cunknown_oil_co.png" width="56px" height="56px" preserveAspectRatio="xMinYMin meet" x="622.012" y="-465.475"/>
<ellipse fill="none" stroke="cadetblue" stroke-width="10" cx="650.012" cy="-437.475" rx="28" ry="28.5"/>
<text text-anchor="start" x="693.012" y="-433.475" font-family="Times Roman,serif" font-size="15.00">ALASKA SUPPORT INDUSTRY ALLIANCE</text>
</g>
<g id="9861" class="node">
<polygon fill="#ffffff" stroke="#3333cc" stroke-width="10" points="778.281,-1485.69 724.281,-1485.69 724.281,-1430.69 778.281,-1430.69 778.281,-1485.69"/>
<image xlink:href="can_images/9861.jpg" width="41.0667px" height="55px" preserveAspectRatio="xMinYMin meet" x="730.748" y="-1485.69"/>
<polygon fill="none" stroke="#3333cc" stroke-width="10" points="778.281,-1485.69 724.281,-1485.69 724.281,-1430.69 778.281,-1430.69 778.281,-1485.69"/>
<text text-anchor="middle" x="751.281" y="-1454.19" font-family="Times Roman,serif" font-size="15.00">Joe Paskvan</text>
</g>
<g id="31946" class="node">
<ellipse fill="#ffffff" stroke="cadetblue" stroke-width="10" cx="536.836" cy="-992.827" rx="31" ry="31.5"/>
<image xlink:href="com_images/c31946.png" width="62px" height="62px" preserveAspectRatio="xMinYMin meet" x="505.836" y="-1023.83"/>
<ellipse fill="none" stroke="cadetblue" stroke-width="10" cx="536.836" cy="-992.827" rx="31" ry="31.5"/>
<text text-anchor="start" x="582.836" y="-988.827" font-family="Times Roman,serif" font-size="15.00">NANA Regional Corp</text>
</g>
<g id="2244" class="node">
<polygon fill="#ffffff" stroke="#3333cc" stroke-width="10" points="402,-1207 346,-1207 346,-1151 402,-1151 402,-1207"/>
<polygon fill="none" stroke="#3333cc" stroke-width="10" points="402,-1207 346,-1207 346,-1151 402,-1151 402,-1207"/>
<text text-anchor="middle" x="374" y="-1175" font-family="Times Roman,serif" font-size="15.00">Bettye Davis</text>
</g>
<g id="168" class="node">
<ellipse fill="#ffffff" stroke="cadetblue" stroke-width="10" cx="577.647" cy="-1382.65" rx="32" ry="32"/>
<image xlink:href="com_images/cunknown_oil_co.png" width="64px" height="64px" preserveAspectRatio="xMinYMin meet" x="545.647" y="-1414.65"/>
<ellipse fill="none" stroke="cadetblue" stroke-width="10" cx="577.647" cy="-1382.65" rx="32" ry="32"/>
<text text-anchor="start" x="624.647" y="-1378.65" font-family="Times Roman,serif" font-size="15.00">Alyeska Pipeline Service Co</text>
</g>
<g id="951" class="node">
<ellipse fill="#ffffff" stroke="cadetblue" stroke-width="10" cx="479.678" cy="-480.146" rx="33" ry="33"/>
<image xlink:href="com_images/c951.png" width="66px" height="66px" preserveAspectRatio="xMinYMin meet" x="446.678" y="-513.146"/>
<ellipse fill="none" stroke="cadetblue" stroke-width="10" cx="479.678" cy="-480.146" rx="33" ry="33"/>
<text text-anchor="start" x="527.678" y="-476.146" font-family="Times Roman,serif" font-size="15.00">Chevron Corp</text>
</g>
<g id="39492" class="node">
<ellipse fill="#ffffff" stroke="cadetblue" stroke-width="10" cx="1313.77" cy="-34.5" rx="33" ry="33.5"/>
<image xlink:href="com_images/cunknown_oil_co.png" width="66px" height="66px" preserveAspectRatio="xMinYMin meet" x="1280.77" y="-67.5"/>
<ellipse fill="none" stroke="cadetblue" stroke-width="10" cx="1313.77" cy="-34.5" rx="33" ry="33.5"/>
<text text-anchor="start" x="1361.77" y="-30.5" font-family="Times Roman,serif" font-size="15.00">PETERKIN DISTRIBUTING</text>
</g>
<g id="39383" class="node">
<ellipse fill="#ffffff" stroke="cadetblue" stroke-width="10" cx="428.074" cy="-654.238" rx="33" ry="33.5"/>
<image xlink:href="com_images/cunknown_oil_co.png" width="66px" height="66px" preserveAspectRatio="xMinYMin meet" x="395.074" y="-687.238"/>
<ellipse fill="none" stroke="cadetblue" stroke-width="10" cx="428.074" cy="-654.238" rx="33" ry="33.5"/>
<text text-anchor="start" x="476.074" y="-650.238" font-family="Times Roman,serif" font-size="15.00">UIC OILFIELD SERVICES</text>
</g>
<g id="4172" class="node">
<polygon fill="#ffffff" stroke="#cc3333" stroke-width="10" points="59.5,-916.298 1.5,-916.298 1.5,-857.298 59.5,-857.298 59.5,-916.298"/>
<polygon fill="none" stroke="#cc3333" stroke-width="10" points="59.5,-916.298 1.5,-916.298 1.5,-857.298 59.5,-857.298 59.5,-916.298"/>
<text text-anchor="middle" x="30.5" y="-882.798" font-family="Times Roman,serif" font-size="15.00">Bert Stedman</text>
</g>
<g id="2878" class="node">
<polygon fill="#ffffff" stroke="#cc3333" stroke-width="10" points="1421.25,-745.048 1363.25,-745.048 1363.25,-686.048 1421.25,-686.048 1421.25,-745.048"/>
<polygon fill="none" stroke="#cc3333" stroke-width="10" points="1421.25,-745.048 1363.25,-745.048 1363.25,-686.048 1421.25,-686.048 1421.25,-745.048"/>
<text text-anchor="middle" x="1392.25" y="-711.548" font-family="Times Roman,serif" font-size="15.00">Fred Dyson</text>
</g>
<g id="39350" class="node">
<ellipse fill="#ffffff" stroke="cadetblue" stroke-width="10" cx="883.182" cy="-453.586" rx="36" ry="36.5"/>
<image xlink:href="com_images/c39350.png" width="72px" height="72px" preserveAspectRatio="xMinYMin meet" x="847.182" y="-489.586"/>
<ellipse fill="none" stroke="cadetblue" stroke-width="10" cx="883.182" cy="-453.586" rx="36" ry="36.5"/>
<text text-anchor="start" x="934.182" y="-449.586" font-family="Times Roman,serif" font-size="15.00">CONAM CONSTRUCTION</text>
</g>
<g id="671" class="node">
<ellipse fill="#ffffff" stroke="cadetblue" stroke-width="10" cx="715.794" cy="-1134.46" rx="37" ry="37"/>
<image xlink:href="com_images/c671.png" width="74px" height="74px" preserveAspectRatio="xMinYMin meet" x="678.794" y="-1171.46"/>
<ellipse fill="none" stroke="cadetblue" stroke-width="10" cx="715.794" cy="-1134.46" rx="37" ry="37"/>
<text text-anchor="start" x="767.794" y="-1130.46" font-family="Times Roman,serif" font-size="15.00">BP</text>
</g>
<g id="39359" class="node">
<ellipse fill="#ffffff" stroke="cadetblue" stroke-width="10" cx="992.975" cy="-880.549" rx="39" ry="39"/>
<image xlink:href="com_images/cunknown_oil_co.png" width="78px" height="78px" preserveAspectRatio="xMinYMin meet" x="953.975" y="-919.549"/>
<ellipse fill="none" stroke="cadetblue" stroke-width="10" cx="992.975" cy="-880.549" rx="39" ry="39"/>
<text text-anchor="start" x="1046.975" y="-876.549" font-family="Times Roman,serif" font-size="15.00">ICE SERVICES</text>
</g>
<g id="39514" class="node">
<ellipse fill="#ffffff" stroke="cadetblue" stroke-width="10" cx="891.664" cy="-1017.2" rx="47" ry="47.5"/>
<image xlink:href="com_images/c39514.png" width="94px" height="94px" preserveAspectRatio="xMinYMin meet" x="844.664" y="-1064.2"/>
<ellipse fill="none" stroke="cadetblue" stroke-width="10" cx="891.664" cy="-1017.2" rx="47" ry="47.5"/>
<text text-anchor="start" x="953.664" y="-1013.2" font-family="Times Roman,serif" font-size="15.00">UDELHOVEN OIL</text>
</g>
<g id="1137" class="node">
<ellipse fill="#ffffff" stroke="cadetblue" stroke-width="10" cx="352.329" cy="-851.015" rx="52" ry="52.5"/>
<image xlink:href="com_images/c92.png" width="104px" height="104px" preserveAspectRatio="xMinYMin meet" x="300.329" y="-903.015"/>
<ellipse fill="none" stroke="cadetblue" stroke-width="10" cx="352.329" cy="-851.015" rx="52" ry="52.5"/>
<text text-anchor="start" x="419.329" y="-847.015" font-family="Times Roman,serif" font-size="15.00">ConocoPhillips</text>
</g>
<g id="5460" class="node">
<ellipse fill="#ffffff" stroke="cadetblue" stroke-width="10" cx="1065.65" cy="-616.066" rx="55" ry="55"/>
<image xlink:href="com_images/c185.png" width="110px" height="110px" preserveAspectRatio="xMinYMin meet" x="1010.65" y="-671.066"/>
<ellipse fill="none" stroke="cadetblue" stroke-width="10" cx="1065.65" cy="-616.066" rx="55" ry="55"/>
<text text-anchor="start" x="1135.65" y="-612.066" font-family="Times Roman,serif" font-size="15.00">Tesoro Petroleum</text>
</g>
<g id="4140" class="node">
<polygon fill="#ffffff" stroke="#cc3333" stroke-width="10" points="1201.58,-345.392 1105.58,-345.392 1105.58,-248.392 1201.58,-248.392 1201.58,-345.392"/>
<image xlink:href="can_images/4140.jpg" width="72.4267px" height="97px" preserveAspectRatio="xMinYMin meet" x="1117.36" y="-345.392"/>
<polygon fill="none" stroke="#cc3333" stroke-width="10" points="1201.58,-345.392 1105.58,-345.392 1105.58,-248.392 1201.58,-248.392 1201.58,-345.392"/>
<text text-anchor="middle" x="1153.58" y="-292.892" font-family="Times Roman,serif" font-size="15.00">Thomas Wagoner</text>
</g>
<g id="4144" class="node">
<polygon fill="#ffffff" stroke="#cc3333" stroke-width="10" points="786.103,-825.603 642.103,-825.603 642.103,-681.603 786.103,-681.603 786.103,-825.603"/>
<image xlink:href="can_images/4144.jpg" width="107.52px" height="144px" preserveAspectRatio="xMinYMin meet" x="660.343" y="-825.603"/>
<polygon fill="none" stroke="#cc3333" stroke-width="10" points="786.103,-825.603 642.103,-825.603 642.103,-681.603 786.103,-681.603 786.103,-825.603"/>
<text text-anchor="middle" x="714.103" y="-749.603" font-family="Times Roman,serif" font-size="15.00">Kevin Meyer</text>
</g>
</g>
</svg>
