<svg width="334.8500625px" height="361px"
  xmlns="http://www.w3.org/2000/svg" xmlns:xlink="http://www.w3.org/1999/xlink">
<g id="graph0" class="graph" transform="scale(0.24513667395834 0.24513667395834) rotate(0) translate(4 1468.65)">

<polygon id='svgscreen' style="opacity:0;" fill="#ffffff" stroke="#ffffff" points="-4,5 -4,-1468.65 1362.97,-1468.65 1362.97,5 -4,5"/>
<g id="4144_39405" class="edge">
<path fill="none" stroke="#999999" stroke-width="5" d="M459.474,-1006.39C484.43,-968.627 534.492,-892.885 575.568,-830.737"/>
<polygon fill="#999999" stroke="#999999" points="586.641,-837.787 592.233,-805.523 564.742,-823.313 586.641,-837.787"/>
</g>
<g id="4144_31946" class="edge">
<path fill="none" stroke="#999999" stroke-width="8.84146" d="M616.856,-1022.78C620.3,-979.583 626.631,-900.151 631.791,-835.416"/>
<polygon fill="#999999" stroke="#999999" points="654.927,-837.254 634.176,-805.505 608.656,-833.566 654.927,-837.254"/>
</g>
<g id="2244_168" class="edge">
<path fill="none" stroke="#999999" stroke-width="9.26829" d="M818.965,-1254.97C850.649,-1286.65 908.581,-1344.58 950.318,-1386.32"/>
<polygon fill="#999999" stroke="#999999" points="933.152,-1403.56 971.569,-1407.57 967.559,-1369.15 933.152,-1403.56"/>
</g>
<g id="4144_951" class="edge">
<path fill="none" stroke="#999999" stroke-width="10.9756" d="M353.342,-876.082C395.842,-854.917 475.939,-815.029 540.674,-782.791"/>
<polygon fill="#999999" stroke="#999999" points="553.766,-808.457 567.777,-769.294 528.079,-756.877 553.766,-808.457"/>
</g>
<g id="4140_39492" class="edge">
<path fill="none" stroke="#999999" stroke-width="11.8293" d="M1302.65,-1344.9C1275.78,-1311.11 1227.97,-1250.98 1189.83,-1203.01"/>
<polygon fill="#999999" stroke="#999999" points="1213.9,-1183.39 1170.92,-1179.23 1165.29,-1222.04 1213.9,-1183.39"/>
</g>
<g id="4144_39383" class="edge">
<path fill="none" stroke="#999999" stroke-width="11.8293" d="M747.531,-501.522C732.505,-533.896 707.896,-586.918 686.002,-634.089"/>
<polygon fill="#999999" stroke="#999999" points="657.811,-621.071 673.347,-661.356 714.143,-647.216 657.811,-621.071"/>
</g>
<g id="4140_39350" class="edge">
<path fill="none" stroke="#999999" stroke-width="11.8293" d="M878.127,-1022.55C921.389,-1040.95 998.278,-1073.66 1056.2,-1098.29"/>
<polygon fill="#999999" stroke="#999999" points="1044.31,-1126.98 1084.07,-1110.15 1068.62,-1069.83 1044.31,-1126.98"/>
</g>
<g id="4144_39350" class="edge">
<path fill="none" stroke="#999999" stroke-width="7.56098" d="M823.135,-979.236C796.766,-943.848 750.973,-882.393 711.768,-829.778"/>
<polygon fill="#999999" stroke="#999999" points="727.58,-817.781 693.74,-805.584 695.75,-841.499 727.58,-817.781"/>
</g>
<g id="9861_671" class="edge">
<path fill="none" stroke="#999999" stroke-width="8.41463" d="M305.714,-504.838C251.921,-486.981 148.816,-452.753 84.6369,-431.448"/>
<polygon fill="#999999" stroke="#999999" points="91.2978,-410.385 55.8664,-421.897 77.3793,-452.312 91.2978,-410.385"/>
</g>
<g id="4144_671" class="edge">
<path fill="none" stroke="#999999" stroke-width="11.8293" d="M370.984,-538.318C410.956,-567.307 483.536,-619.944 543.23,-663.236"/>
<polygon fill="#999999" stroke="#999999" points="525.375,-688.646 567.891,-681.122 561.836,-638.372 525.375,-688.646"/>
</g>
<g id="4144_39359" class="edge">
<path fill="none" stroke="#999999" stroke-width="20.3659" d="M873.806,-584.688C839.84,-606.28 785.263,-640.974 737.371,-671.419"/>
<polygon fill="#999999" stroke="#999999" points="708.629,-626.342 711.992,-687.553 765.989,-716.574 708.629,-626.342"/>
</g>
<g id="4144_39514" class="edge">
<path fill="none" stroke="#999999" stroke-width="37.439" d="M405.977,-712.591C441.899,-715.781 492.741,-720.295 537.857,-724.301"/>
<polygon fill="#999999" stroke="#999999" points="529.347,-822.21 567.922,-726.971 546.732,-626.425 529.347,-822.21"/>
</g>
<g id="4172_1137" class="edge">
<path fill="none" stroke="#999999" stroke-width="11.8293" d="M627.692,-303.401C638.815,-245.254 656.83,-151.079 668.518,-89.9733"/>
<polygon fill="#999999" stroke="#999999" points="699.067,-95.5489 674.204,-60.2491 638.069,-83.8807 699.067,-95.5489"/>
</g>
<g id="4144_1137" class="edge">
<path fill="none" stroke="#999999" stroke-width="40" d="M620.861,-407.793C624.225,-465.246 629.698,-558.704 633.919,-630.784"/>
<polygon fill="#999999" stroke="#999999" points="529.126,-637.383 635.7,-661.193 738.766,-625.106 529.126,-637.383"/>
</g>
<g id="2878_5460" class="edge">
<path fill="none" stroke="#999999" stroke-width="11.8293" d="M1056.84,-802.857C1113.06,-778.389 1203.55,-739.005 1262.27,-713.447"/>
<polygon fill="#999999" stroke="#999999" points="1274.99,-741.778 1290.11,-701.334 1250.21,-684.834 1274.99,-741.778"/>
</g>
<g id="4140_5460" class="edge">
<path fill="none" stroke="#999999" stroke-width="37.439" d="M1027.26,-876.095C1047.33,-924.728 1077.77,-998.492 1100.72,-1054.12"/>
<polygon fill="#999999" stroke="#999999" points="1009.98,-1091.86 1112.27,-1082.1 1191.67,-1016.88 1009.98,-1091.86"/>
</g>
<g id="4144_5460" class="edge">
<path fill="none" stroke="#999999" stroke-width="11.8293" d="M952.502,-811.51C897.246,-797.695 809.787,-775.83 741.415,-758.737"/>
<polygon fill="#999999" stroke="#999999" points="748.642,-728.536 712.006,-751.385 733.579,-788.786 748.642,-728.536"/>
</g>
<g id="39405" class="node">
<ellipse fill="#ffffff" stroke="cadetblue" stroke-width="10" cx="443.752" cy="-1030.17" rx="28" ry="28.5"/>
<image xlink:href="com_images/cunknown_oil_co.png" width="56px" height="56px" preserveAspectRatio="xMinYMin meet" x="415.752" y="-1058.17"/>
<ellipse fill="none" stroke="cadetblue" stroke-width="10" cx="443.752" cy="-1030.17" rx="28" ry="28.5"/>
<text text-anchor="start" x="486.752" y="-1026.17" font-family="Times Roman,serif" font-size="15.00">ALASKA SUPPORT INDUSTRY ALLIANCE</text>
</g>
<g id="9861" class="node">
<polygon fill="#ffffff" stroke="#3333cc" stroke-width="10" points="55.5,-440.312 1.5,-440.312 1.5,-385.312 55.5,-385.312 55.5,-440.312"/>
<image xlink:href="can_images/9861.jpg" width="41.0667px" height="55px" preserveAspectRatio="xMinYMin meet" x="7.96667" y="-440.312"/>
<polygon fill="none" stroke="#3333cc" stroke-width="10" points="55.5,-440.312 1.5,-440.312 1.5,-385.312 55.5,-385.312 55.5,-440.312"/>
<text text-anchor="middle" x="28.5" y="-408.812" font-family="Times Roman,serif" font-size="15.00">Joe Paskvan</text>
</g>
<g id="31946" class="node">
<ellipse fill="#ffffff" stroke="cadetblue" stroke-width="10" cx="614.332" cy="-1054.45" rx="31" ry="31.5"/>
<image xlink:href="com_images/c31946.png" width="62px" height="62px" preserveAspectRatio="xMinYMin meet" x="583.332" y="-1085.45"/>
<ellipse fill="none" stroke="cadetblue" stroke-width="10" cx="614.332" cy="-1054.45" rx="31" ry="31.5"/>
<text text-anchor="start" x="660.332" y="-1050.45" font-family="Times Roman,serif" font-size="15.00">NANA Regional Corp</text>
</g>
<g id="2244" class="node">
<polygon fill="#ffffff" stroke="#3333cc" stroke-width="10" points="1027.65,-1463.65 971.647,-1463.65 971.647,-1407.65 1027.65,-1407.65 1027.65,-1463.65"/>
<polygon fill="none" stroke="#3333cc" stroke-width="10" points="1027.65,-1463.65 971.647,-1463.65 971.647,-1407.65 1027.65,-1407.65 1027.65,-1463.65"/>
<text text-anchor="middle" x="999.647" y="-1431.65" font-family="Times Roman,serif" font-size="15.00">Bettye Davis</text>
</g>
<g id="168" class="node">
<ellipse fill="#ffffff" stroke="cadetblue" stroke-width="10" cx="796" cy="-1232" rx="32" ry="32"/>
<image xlink:href="com_images/cunknown_oil_co.png" width="64px" height="64px" preserveAspectRatio="xMinYMin meet" x="764" y="-1264"/>
<ellipse fill="none" stroke="cadetblue" stroke-width="10" cx="796" cy="-1232" rx="32" ry="32"/>
<text text-anchor="start" x="843" y="-1228" font-family="Times Roman,serif" font-size="15.00">Alyeska Pipeline Service Co</text>
</g>
<g id="951" class="node">
<ellipse fill="#ffffff" stroke="cadetblue" stroke-width="10" cx="323.581" cy="-890.902" rx="33" ry="33"/>
<image xlink:href="com_images/c951.png" width="66px" height="66px" preserveAspectRatio="xMinYMin meet" x="290.581" y="-923.902"/>
<ellipse fill="none" stroke="cadetblue" stroke-width="10" cx="323.581" cy="-890.902" rx="33" ry="33"/>
<text text-anchor="start" x="371.581" y="-886.902" font-family="Times Roman,serif" font-size="15.00">Chevron Corp</text>
</g>
<g id="39492" class="node">
<ellipse fill="#ffffff" stroke="cadetblue" stroke-width="10" cx="1323.47" cy="-1371.08" rx="33" ry="33.5"/>
<image xlink:href="com_images/cunknown_oil_co.png" width="66px" height="66px" preserveAspectRatio="xMinYMin meet" x="1290.47" y="-1404.08"/>
<ellipse fill="none" stroke="cadetblue" stroke-width="10" cx="1323.47" cy="-1371.08" rx="33" ry="33.5"/>
<text text-anchor="start" x="1371.47" y="-1367.08" font-family="Times Roman,serif" font-size="15.00">PETERKIN DISTRIBUTING</text>
</g>
<g id="39383" class="node">
<ellipse fill="#ffffff" stroke="cadetblue" stroke-width="10" cx="761.608" cy="-471.191" rx="33" ry="33.5"/>
<image xlink:href="com_images/cunknown_oil_co.png" width="66px" height="66px" preserveAspectRatio="xMinYMin meet" x="728.608" y="-504.191"/>
<ellipse fill="none" stroke="cadetblue" stroke-width="10" cx="761.608" cy="-471.191" rx="33" ry="33.5"/>
<text text-anchor="start" x="809.608" y="-467.191" font-family="Times Roman,serif" font-size="15.00">UIC OILFIELD SERVICES</text>
</g>
<g id="4172" class="node">
<polygon fill="#ffffff" stroke="#cc3333" stroke-width="10" points="708.895,-60 650.895,-60 650.895,-1 708.895,-1 708.895,-60"/>
<polygon fill="none" stroke="#cc3333" stroke-width="10" points="708.895,-60 650.895,-60 650.895,-1 708.895,-1 708.895,-60"/>
<text text-anchor="middle" x="679.895" y="-26.5" font-family="Times Roman,serif" font-size="15.00">Bert Stedman</text>
</g>
<g id="2878" class="node">
<polygon fill="#ffffff" stroke="#cc3333" stroke-width="10" points="1348.51,-718.037 1290.51,-718.037 1290.51,-659.037 1348.51,-659.037 1348.51,-718.037"/>
<polygon fill="none" stroke="#cc3333" stroke-width="10" points="1348.51,-718.037 1290.51,-718.037 1290.51,-659.037 1348.51,-659.037 1348.51,-718.037"/>
<text text-anchor="middle" x="1319.51" y="-684.537" font-family="Times Roman,serif" font-size="15.00">Fred Dyson</text>
</g>
<g id="39350" class="node">
<ellipse fill="#ffffff" stroke="cadetblue" stroke-width="10" cx="844.874" cy="-1008.41" rx="36" ry="36.5"/>
<image xlink:href="com_images/c39350.png" width="72px" height="72px" preserveAspectRatio="xMinYMin meet" x="808.874" y="-1044.41"/>
<ellipse fill="none" stroke="cadetblue" stroke-width="10" cx="844.874" cy="-1008.41" rx="36" ry="36.5"/>
<text text-anchor="start" x="895.874" y="-1004.41" font-family="Times Roman,serif" font-size="15.00">CONAM CONSTRUCTION</text>
</g>
<g id="671" class="node">
<ellipse fill="#ffffff" stroke="cadetblue" stroke-width="10" cx="340.948" cy="-516.535" rx="37" ry="37"/>
<image xlink:href="com_images/c671.png" width="74px" height="74px" preserveAspectRatio="xMinYMin meet" x="303.948" y="-553.535"/>
<ellipse fill="none" stroke="cadetblue" stroke-width="10" cx="340.948" cy="-516.535" rx="37" ry="37"/>
<text text-anchor="start" x="392.948" y="-512.535" font-family="Times Roman,serif" font-size="15.00">BP</text>
</g>
<g id="39359" class="node">
<ellipse fill="#ffffff" stroke="cadetblue" stroke-width="10" cx="906.798" cy="-563.715" rx="39" ry="39"/>
<image xlink:href="com_images/cunknown_oil_co.png" width="78px" height="78px" preserveAspectRatio="xMinYMin meet" x="867.798" y="-602.715"/>
<ellipse fill="none" stroke="cadetblue" stroke-width="10" cx="906.798" cy="-563.715" rx="39" ry="39"/>
<text text-anchor="start" x="960.798" y="-559.715" font-family="Times Roman,serif" font-size="15.00">ICE SERVICES</text>
</g>
<g id="39514" class="node">
<ellipse fill="#ffffff" stroke="cadetblue" stroke-width="10" cx="358.948" cy="-708.415" rx="47" ry="47.5"/>
<image xlink:href="com_images/c39514.png" width="94px" height="94px" preserveAspectRatio="xMinYMin meet" x="311.948" y="-755.415"/>
<ellipse fill="none" stroke="cadetblue" stroke-width="10" cx="358.948" cy="-708.415" rx="47" ry="47.5"/>
<text text-anchor="start" x="420.948" y="-704.415" font-family="Times Roman,serif" font-size="15.00">UDELHOVEN OIL</text>
</g>
<g id="1137" class="node">
<ellipse fill="#ffffff" stroke="cadetblue" stroke-width="10" cx="617.782" cy="-355.212" rx="52" ry="52.5"/>
<image xlink:href="com_images/c92.png" width="104px" height="104px" preserveAspectRatio="xMinYMin meet" x="565.782" y="-407.212"/>
<ellipse fill="none" stroke="cadetblue" stroke-width="10" cx="617.782" cy="-355.212" rx="52" ry="52.5"/>
<text text-anchor="start" x="684.782" y="-351.212" font-family="Times Roman,serif" font-size="15.00">ConocoPhillips</text>
</g>
<g id="5460" class="node">
<ellipse fill="#ffffff" stroke="cadetblue" stroke-width="10" cx="1006.15" cy="-824.921" rx="55" ry="55"/>
<image xlink:href="com_images/c185.png" width="110px" height="110px" preserveAspectRatio="xMinYMin meet" x="951.146" y="-879.921"/>
<ellipse fill="none" stroke="cadetblue" stroke-width="10" cx="1006.15" cy="-824.921" rx="55" ry="55"/>
<text text-anchor="start" x="1076.15" y="-820.921" font-family="Times Roman,serif" font-size="15.00">Tesoro Petroleum</text>
</g>
<g id="4140" class="node">
<polygon fill="#ffffff" stroke="#cc3333" stroke-width="10" points="1180.3,-1179.16 1084.3,-1179.16 1084.3,-1082.16 1180.3,-1082.16 1180.3,-1179.16"/>
<image xlink:href="can_images/4140.jpg" width="72.4267px" height="97px" preserveAspectRatio="xMinYMin meet" x="1096.09" y="-1179.16"/>
<polygon fill="none" stroke="#cc3333" stroke-width="10" points="1180.3,-1179.16 1084.3,-1179.16 1084.3,-1082.16 1180.3,-1082.16 1180.3,-1179.16"/>
<text text-anchor="middle" x="1132.3" y="-1126.66" font-family="Times Roman,serif" font-size="15.00">Thomas Wagoner</text>
</g>
<g id="4144" class="node">
<polygon fill="#ffffff" stroke="#cc3333" stroke-width="10" points="711.926,-805.364 567.926,-805.364 567.926,-661.364 711.926,-661.364 711.926,-805.364"/>
<image xlink:href="can_images/4144.jpg" width="107.52px" height="144px" preserveAspectRatio="xMinYMin meet" x="586.166" y="-805.364"/>
<polygon fill="none" stroke="#cc3333" stroke-width="10" points="711.926,-805.364 567.926,-805.364 567.926,-661.364 711.926,-661.364 711.926,-805.364"/>
<text text-anchor="middle" x="639.926" y="-729.364" font-family="Times Roman,serif" font-size="15.00">Kevin Meyer</text>
</g>
</g>
</svg>
