<svg width="380px" height="346.27104166666px"
  xmlns="http://www.w3.org/2000/svg" xmlns:xlink="http://www.w3.org/1999/xlink">
<g id="graph0" class="graph" transform="scale(0.25919839583333 0.25919839583333) rotate(0) translate(4 1331.93)">

<polygon id='svgscreen' style="opacity:0;" fill="#ffffff" stroke="#ffffff" points="-4,5 -4,-1331.93 1463.06,-1331.93 1463.06,5 -4,5"/>
<g id="4144_39405" class="edge">
<path fill="none" stroke="#999999" stroke-width="5" d="M900.852,-547.699C872.392,-570.964 821.03,-612.951 774.933,-650.633"/>
<polygon fill="#999999" stroke="#999999" points="766.376,-640.676 751.456,-669.825 782.99,-660.999 766.376,-640.676"/>
</g>
<g id="4144_31946" class="edge">
<path fill="none" stroke="#999999" stroke-width="8.84146" d="M763.675,-476.246C751.681,-512.181 730.951,-574.294 713.053,-627.917"/>
<polygon fill="#999999" stroke="#999999" points="690.958,-620.809 703.476,-656.614 734.988,-635.505 690.958,-620.809"/>
</g>
<g id="2244_168" class="edge">
<path fill="none" stroke="#999999" stroke-width="9.26829" d="M935.965,-275.965C967.649,-307.649 1025.58,-365.581 1067.32,-407.318"/>
<polygon fill="#999999" stroke="#999999" points="1050.15,-424.559 1088.57,-428.569 1084.56,-390.152 1050.15,-424.559"/>
</g>
<g id="4144_951" class="edge">
<path fill="none" stroke="#999999" stroke-width="10.9756" d="M431.568,-740.325C467.2,-738.656 525.709,-735.917 576.933,-733.518"/>
<polygon fill="#999999" stroke="#999999" points="578.597,-762.283 607.216,-732.1 575.901,-704.724 578.597,-762.283"/>
</g>
<g id="4140_39492" class="edge">
<path fill="none" stroke="#999999" stroke-width="11.8293" d="M1400.85,-1268.77C1372.18,-1237.65 1321.64,-1182.78 1280.5,-1138.12"/>
<polygon fill="#999999" stroke="#999999" points="1303.18,-1116.91 1260.01,-1115.88 1257.5,-1158.98 1303.18,-1116.91"/>
</g>
<g id="4144_39383" class="edge">
<path fill="none" stroke="#999999" stroke-width="11.8293" d="M538.236,-1021.96C559.306,-978.192 599.36,-894.994 631.437,-828.365"/>
<polygon fill="#999999" stroke="#999999" points="659.583,-841.487 644.618,-800.987 603.626,-814.548 659.583,-841.487"/>
</g>
<g id="4140_39350" class="edge">
<path fill="none" stroke="#999999" stroke-width="11.8293" d="M951.046,-987.275C996.443,-1001 1077.49,-1025.5 1137.85,-1043.75"/>
<polygon fill="#999999" stroke="#999999" points="1129.12,-1073.54 1166.82,-1052.5 1147.09,-1014.1 1129.12,-1073.54"/>
</g>
<g id="4144_39350" class="edge">
<path fill="none" stroke="#999999" stroke-width="7.56098" d="M891.131,-950.281C862.078,-919.877 812.855,-868.367 769.179,-822.661"/>
<polygon fill="#999999" stroke="#999999" points="783.371,-808.785 748.296,-800.807 754.673,-836.209 783.371,-808.785"/>
</g>
<g id="9861_671" class="edge">
<path fill="none" stroke="#999999" stroke-width="8.41463" d="M317.015,-549.979C260.603,-540.453 152.084,-522.126 85.4067,-510.866"/>
<polygon fill="#999999" stroke="#999999" points="88.9067,-489.056 55.6473,-505.841 81.5503,-532.616 88.9067,-489.056"/>
</g>
<g id="4144_671" class="edge">
<path fill="none" stroke="#999999" stroke-width="11.8293" d="M386.409,-573.507C431.398,-597.339 514.302,-641.256 580.472,-676.309"/>
<polygon fill="#999999" stroke="#999999" points="566.14,-703.856 607.186,-690.46 595.211,-648.977 566.14,-703.856"/>
</g>
<g id="4144_39359" class="edge">
<path fill="none" stroke="#999999" stroke-width="20.3659" d="M693.477,-1007.81C691.27,-964.014 687.599,-891.188 684.561,-830.909"/>
<polygon fill="#999999" stroke="#999999" points="737.943,-828.022 683.04,-800.751 631.158,-833.404 737.943,-828.022"/>
</g>
<g id="4144_39514" class="edge">
<path fill="none" stroke="#999999" stroke-width="37.439" d="M426.637,-901.11C466.212,-874.121 529.001,-831.299 582.097,-795.087"/>
<polygon fill="#999999" stroke="#999999" points="637.828,-876.036 607.239,-777.94 527.081,-713.65 637.828,-876.036"/>
</g>
<g id="4172_1137" class="edge">
<path fill="none" stroke="#999999" stroke-width="11.8293" d="M605.711,-308.483C607.659,-249.099 610.818,-152.825 612.86,-90.5951"/>
<polygon fill="#999999" stroke="#999999" points="643.903,-91.3668 613.852,-60.3645 581.833,-89.3299 643.903,-91.3668"/>
</g>
<g id="4144_1137" class="edge">
<path fill="none" stroke="#999999" stroke-width="40" d="M614.547,-412.739C625.902,-468.056 644.241,-557.397 658.527,-626.991"/>
<polygon fill="#999999" stroke="#999999" points="555.679,-648.141 664.567,-656.415 761.39,-605.914 555.679,-648.141"/>
</g>
<g id="2878_5460" class="edge">
<path fill="none" stroke="#999999" stroke-width="11.8293" d="M1102.04,-749.474C1154.63,-719.17 1239,-670.542 1294.42,-638.609"/>
<polygon fill="#999999" stroke="#999999" points="1309.94,-665.501 1320.43,-623.618 1278.93,-611.693 1309.94,-665.501"/>
</g>
<g id="4140_5460" class="edge">
<path fill="none" stroke="#999999" stroke-width="37.439" d="M1080.97,-825.251C1106.11,-870.586 1144.13,-939.148 1173.27,-991.706"/>
<polygon fill="#999999" stroke="#999999" points="1087.5,-1039.69 1188,-1018.27 1259.4,-944.37 1087.5,-1039.69"/>
</g>
<g id="4144_5460" class="edge">
<path fill="none" stroke="#999999" stroke-width="11.8293" d="M999.326,-769.952C942.331,-762.606 851.858,-750.945 781.646,-741.896"/>
<polygon fill="#999999" stroke="#999999" points="785.216,-711.048 751.493,-738.01 777.277,-772.642 785.216,-711.048"/>
</g>
<g id="39405" class="node">
<ellipse fill="#ffffff" stroke="cadetblue" stroke-width="10" cx="922.889" cy="-529.685" rx="28" ry="28.5"/>
<image xlink:href="com_images/cunknown_oil_co.png" width="56px" height="56px" preserveAspectRatio="xMinYMin meet" x="894.889" y="-557.685"/>
<ellipse fill="none" stroke="cadetblue" stroke-width="10" cx="922.889" cy="-529.685" rx="28" ry="28.5"/>
<text text-anchor="start" x="965.889" y="-525.685" font-family="Times Roman,serif" font-size="15.00">ALASKA SUPPORT INDUSTRY ALLIANCE</text>
</g>
<g id="9861" class="node">
<polygon fill="#ffffff" stroke="#3333cc" stroke-width="10" points="55.5,-528.756 1.5,-528.756 1.5,-473.756 55.5,-473.756 55.5,-528.756"/>
<image xlink:href="can_images/9861.jpg" width="41.0667px" height="55px" preserveAspectRatio="xMinYMin meet" x="7.96667" y="-528.756"/>
<polygon fill="none" stroke="#3333cc" stroke-width="10" points="55.5,-528.756 1.5,-528.756 1.5,-473.756 55.5,-473.756 55.5,-528.756"/>
<text text-anchor="middle" x="28.5" y="-497.256" font-family="Times Roman,serif" font-size="15.00">Joe Paskvan</text>
</g>
<g id="31946" class="node">
<ellipse fill="#ffffff" stroke="cadetblue" stroke-width="10" cx="773.673" cy="-446.288" rx="31" ry="31.5"/>
<image xlink:href="com_images/c31946.png" width="62px" height="62px" preserveAspectRatio="xMinYMin meet" x="742.673" y="-477.288"/>
<ellipse fill="none" stroke="cadetblue" stroke-width="10" cx="773.673" cy="-446.288" rx="31" ry="31.5"/>
<text text-anchor="start" x="819.673" y="-442.288" font-family="Times Roman,serif" font-size="15.00">NANA Regional Corp</text>
</g>
<g id="2244" class="node">
<polygon fill="#ffffff" stroke="#3333cc" stroke-width="10" points="1144.65,-484.647 1088.65,-484.647 1088.65,-428.647 1144.65,-428.647 1144.65,-484.647"/>
<polygon fill="none" stroke="#3333cc" stroke-width="10" points="1144.65,-484.647 1088.65,-484.647 1088.65,-428.647 1144.65,-428.647 1144.65,-484.647"/>
<text text-anchor="middle" x="1116.65" y="-452.647" font-family="Times Roman,serif" font-size="15.00">Bettye Davis</text>
</g>
<g id="168" class="node">
<ellipse fill="#ffffff" stroke="cadetblue" stroke-width="10" cx="913" cy="-253" rx="32" ry="32"/>
<image xlink:href="com_images/cunknown_oil_co.png" width="64px" height="64px" preserveAspectRatio="xMinYMin meet" x="881" y="-285"/>
<ellipse fill="none" stroke="cadetblue" stroke-width="10" cx="913" cy="-253" rx="32" ry="32"/>
<text text-anchor="start" x="960" y="-249" font-family="Times Roman,serif" font-size="15.00">Alyeska Pipeline Service Co</text>
</g>
<g id="951" class="node">
<ellipse fill="#ffffff" stroke="cadetblue" stroke-width="10" cx="398.52" cy="-741.872" rx="33" ry="33"/>
<image xlink:href="com_images/c951.png" width="66px" height="66px" preserveAspectRatio="xMinYMin meet" x="365.52" y="-774.872"/>
<ellipse fill="none" stroke="cadetblue" stroke-width="10" cx="398.52" cy="-741.872" rx="33" ry="33"/>
<text text-anchor="start" x="446.52" y="-737.872" font-family="Times Roman,serif" font-size="15.00">Chevron Corp</text>
</g>
<g id="39492" class="node">
<ellipse fill="#ffffff" stroke="cadetblue" stroke-width="10" cx="1423.56" cy="-1293.43" rx="33" ry="33.5"/>
<image xlink:href="com_images/cunknown_oil_co.png" width="66px" height="66px" preserveAspectRatio="xMinYMin meet" x="1390.56" y="-1326.43"/>
<ellipse fill="none" stroke="cadetblue" stroke-width="10" cx="1423.56" cy="-1293.43" rx="33" ry="33.5"/>
<text text-anchor="start" x="1471.56" y="-1289.43" font-family="Times Roman,serif" font-size="15.00">PETERKIN DISTRIBUTING</text>
</g>
<g id="39383" class="node">
<ellipse fill="#ffffff" stroke="cadetblue" stroke-width="10" cx="523.73" cy="-1052.09" rx="33" ry="33.5"/>
<image xlink:href="com_images/cunknown_oil_co.png" width="66px" height="66px" preserveAspectRatio="xMinYMin meet" x="490.73" y="-1085.09"/>
<ellipse fill="none" stroke="cadetblue" stroke-width="10" cx="523.73" cy="-1052.09" rx="33" ry="33.5"/>
<text text-anchor="start" x="571.73" y="-1048.09" font-family="Times Roman,serif" font-size="15.00">UIC OILFIELD SERVICES</text>
</g>
<g id="4172" class="node">
<polygon fill="#ffffff" stroke="#cc3333" stroke-width="10" points="643.832,-60 585.832,-60 585.832,-1 643.832,-1 643.832,-60"/>
<polygon fill="none" stroke="#cc3333" stroke-width="10" points="643.832,-60 585.832,-60 585.832,-1 643.832,-1 643.832,-60"/>
<text text-anchor="middle" x="614.832" y="-26.5" font-family="Times Roman,serif" font-size="15.00">Bert Stedman</text>
</g>
<g id="2878" class="node">
<polygon fill="#ffffff" stroke="#cc3333" stroke-width="10" points="1378.76,-636.213 1320.76,-636.213 1320.76,-577.213 1378.76,-577.213 1378.76,-636.213"/>
<polygon fill="none" stroke="#cc3333" stroke-width="10" points="1378.76,-636.213 1320.76,-636.213 1320.76,-577.213 1378.76,-577.213 1378.76,-636.213"/>
<text text-anchor="middle" x="1349.76" y="-602.713" font-family="Times Roman,serif" font-size="15.00">Fred Dyson</text>
</g>
<g id="39350" class="node">
<ellipse fill="#ffffff" stroke="cadetblue" stroke-width="10" cx="916.505" cy="-976.833" rx="36" ry="36.5"/>
<image xlink:href="com_images/c39350.png" width="72px" height="72px" preserveAspectRatio="xMinYMin meet" x="880.505" y="-1012.83"/>
<ellipse fill="none" stroke="cadetblue" stroke-width="10" cx="916.505" cy="-976.833" rx="36" ry="36.5"/>
<text text-anchor="start" x="967.505" y="-972.833" font-family="Times Roman,serif" font-size="15.00">CONAM CONSTRUCTION</text>
</g>
<g id="671" class="node">
<ellipse fill="#ffffff" stroke="cadetblue" stroke-width="10" cx="353.686" cy="-556.172" rx="37" ry="37"/>
<image xlink:href="com_images/c671.png" width="74px" height="74px" preserveAspectRatio="xMinYMin meet" x="316.686" y="-593.172"/>
<ellipse fill="none" stroke="cadetblue" stroke-width="10" cx="353.686" cy="-556.172" rx="37" ry="37"/>
<text text-anchor="start" x="405.686" y="-552.172" font-family="Times Roman,serif" font-size="15.00">BP</text>
</g>
<g id="39359" class="node">
<ellipse fill="#ffffff" stroke="cadetblue" stroke-width="10" cx="695.443" cy="-1046.81" rx="39" ry="39"/>
<image xlink:href="com_images/cunknown_oil_co.png" width="78px" height="78px" preserveAspectRatio="xMinYMin meet" x="656.443" y="-1085.81"/>
<ellipse fill="none" stroke="cadetblue" stroke-width="10" cx="695.443" cy="-1046.81" rx="39" ry="39"/>
<text text-anchor="start" x="749.443" y="-1042.81" font-family="Times Roman,serif" font-size="15.00">ICE SERVICES</text>
</g>
<g id="39514" class="node">
<ellipse fill="#ffffff" stroke="cadetblue" stroke-width="10" cx="387.583" cy="-927.745" rx="47" ry="47.5"/>
<image xlink:href="com_images/c39514.png" width="94px" height="94px" preserveAspectRatio="xMinYMin meet" x="340.583" y="-974.745"/>
<ellipse fill="none" stroke="cadetblue" stroke-width="10" cx="387.583" cy="-927.745" rx="47" ry="47.5"/>
<text text-anchor="start" x="449.583" y="-923.745" font-family="Times Roman,serif" font-size="15.00">UDELHOVEN OIL</text>
</g>
<g id="1137" class="node">
<ellipse fill="#ffffff" stroke="cadetblue" stroke-width="10" cx="603.979" cy="-361.258" rx="52" ry="52.5"/>
<image xlink:href="com_images/c92.png" width="104px" height="104px" preserveAspectRatio="xMinYMin meet" x="551.979" y="-413.258"/>
<ellipse fill="none" stroke="cadetblue" stroke-width="10" cx="603.979" cy="-361.258" rx="52" ry="52.5"/>
<text text-anchor="start" x="670.979" y="-357.258" font-family="Times Roman,serif" font-size="15.00">ConocoPhillips</text>
</g>
<g id="5460" class="node">
<ellipse fill="#ffffff" stroke="cadetblue" stroke-width="10" cx="1054.23" cy="-777.028" rx="55" ry="55"/>
<image xlink:href="com_images/c185.png" width="110px" height="110px" preserveAspectRatio="xMinYMin meet" x="999.23" y="-832.028"/>
<ellipse fill="none" stroke="cadetblue" stroke-width="10" cx="1054.23" cy="-777.028" rx="55" ry="55"/>
<text text-anchor="start" x="1124.23" y="-773.028" font-family="Times Roman,serif" font-size="15.00">Tesoro Petroleum</text>
</g>
<g id="4140" class="node">
<polygon fill="#ffffff" stroke="#cc3333" stroke-width="10" points="1263.07,-1115.59 1167.07,-1115.59 1167.07,-1018.59 1263.07,-1018.59 1263.07,-1115.59"/>
<image xlink:href="can_images/4140.jpg" width="72.4267px" height="97px" preserveAspectRatio="xMinYMin meet" x="1178.86" y="-1115.59"/>
<polygon fill="none" stroke="#cc3333" stroke-width="10" points="1263.07,-1115.59 1167.07,-1115.59 1167.07,-1018.59 1263.07,-1018.59 1263.07,-1115.59"/>
<text text-anchor="middle" x="1215.07" y="-1063.09" font-family="Times Roman,serif" font-size="15.00">Thomas Wagoner</text>
</g>
<g id="4144" class="node">
<polygon fill="#ffffff" stroke="#cc3333" stroke-width="10" points="751.41,-800.72 607.41,-800.72 607.41,-656.72 751.41,-656.72 751.41,-800.72"/>
<image xlink:href="can_images/4144.jpg" width="107.52px" height="144px" preserveAspectRatio="xMinYMin meet" x="625.65" y="-800.72"/>
<polygon fill="none" stroke="#cc3333" stroke-width="10" points="751.41,-800.72 607.41,-800.72 607.41,-656.72 751.41,-656.72 751.41,-800.72"/>
<text text-anchor="middle" x="679.41" y="-724.72" font-family="Times Roman,serif" font-size="15.00">Kevin Meyer</text>
</g>
</g>
</svg>
