<svg width="342.91782291667px" height="343px"
  xmlns="http://www.w3.org/2000/svg" xmlns:xlink="http://www.w3.org/1999/xlink">
<g id="graph0" class="graph" transform="scale(0.59356864583334 0.59356864583334) rotate(0) translate(4 573.861)">

<polygon id='svgscreen' style="opacity:0;" fill="#ffffff" stroke="#ffffff" points="-4,5 -4,-573.861 574.724,-573.861 574.724,5 -4,5"/>
<g id="4387_3716" class="edge">
<path fill="none" stroke="#999999" stroke-width="5" d="M432.946,-433.281C401.152,-401.599 361.886,-362.471 331.834,-332.524"/>
<polygon fill="#999999" stroke="#999999" points="340.991,-323.12 310.476,-311.242 322.462,-341.715 340.991,-323.12"/>
</g>
<g id="4387_38226" class="edge">
<path fill="none" stroke="#999999" stroke-width="40" d="M139.155,-139.396C170.562,-170.934 209.026,-209.561 238.602,-239.261"/>
<polygon fill="#999999" stroke="#999999" points="164.54,-313.692 260.11,-260.86 313.344,-165.512 164.54,-313.692"/>
</g>
<g id="4387" class="node">
<polygon fill="#ffffff" stroke="#cc3333" stroke-width="10" points="310.243,-311.598 260.243,-311.598 260.243,-260.598 310.243,-260.598 310.243,-311.598"/>
<image xlink:href="can_images/unknownCandidate.jpg" width="50px" height="50px" preserveAspectRatio="xMinYMin meet" x="260.243" y="-311.098"/>
<polygon fill="none" stroke="#cc3333" stroke-width="10" points="310.243,-311.598 260.243,-311.598 260.243,-260.598 310.243,-260.598 310.243,-311.598"/>
<text text-anchor="middle" x="285.243" y="-282.098" font-family="Times Roman,serif" font-size="15.00">Rick Keene</text>
</g>
<g id="3716" class="node">
<ellipse fill="#ffffff" stroke="cadetblue" stroke-width="10" cx="489.224" cy="-489.361" rx="79" ry="79.5"/>
<image xlink:href="com_images/c109.png" width="158px" height="158px" preserveAspectRatio="xMinYMin meet" x="410.224" y="-568.361"/>
<ellipse fill="none" stroke="cadetblue" stroke-width="10" cx="489.224" cy="-489.361" rx="79" ry="79.5"/>
<text text-anchor="start" x="583.224" y="-485.361" font-family="Times Roman,serif" font-size="15.00">Occidental Petroleum</text>
</g>
<g id="38226" class="node">
<ellipse fill="#ffffff" stroke="cadetblue" stroke-width="10" cx="82" cy="-82" rx="81" ry="81"/>
<image xlink:href="com_images/cunknown_oil_co.png" width="162px" height="162px" preserveAspectRatio="xMinYMin meet" x="1" y="-163"/>
<ellipse fill="none" stroke="cadetblue" stroke-width="10" cx="82" cy="-82" rx="81" ry="81"/>
<text text-anchor="start" x="178" y="-78" font-family="Times Roman,serif" font-size="15.00">NORTHGATE PETROLEUM CO</text>
</g>
</g>
</svg>
