<svg width="852.32510416669px" height="1015px"
  xmlns="http://www.w3.org/2000/svg" xmlns:xlink="http://www.w3.org/1999/xlink">
<g id="graph0" class="graph" transform="scale(0.57978597395835 0.57978597395835) rotate(0) translate(4 1746.64)">

<polygon id='svgscreen' style="opacity:0;" fill="#ffffff" stroke="#ffffff" points="-4,5 -4,-1746.64 1467.07,-1746.64 1467.07,5 -4,5"/>
<g id="2688_29608" class="edge">
<path fill="none" stroke="#999999" stroke-width="6.4" d="M1183.97,-1484.44C1140.11,-1448.67 1040.88,-1367.73 976.803,-1315.46"/>
<polygon fill="#999999" stroke="#999999" points="987.22,-1302.27 953.354,-1296.33 965.982,-1328.31 987.22,-1302.27"/>
</g>
<g id="2690_5460" class="edge">
<path fill="none" stroke="#999999" stroke-width="9.2" d="M1292.94,-1288C1236.98,-1267.13 1108.17,-1219.1 1028,-1189.21"/>
<polygon fill="#999999" stroke="#999999" points="1036.2,-1166.49 999.657,-1178.64 1019.33,-1211.75 1036.2,-1166.49"/>
</g>
<g id="1922_29823" class="edge">
<path fill="none" stroke="#999999" stroke-width="12" d="M701.971,-1680.78C693.865,-1619.04 675.273,-1477.42 663.943,-1391.12"/>
<polygon fill="#999999" stroke="#999999" points="695.165,-1386.94 660.028,-1361.3 632.701,-1395.14 695.165,-1386.94"/>
</g>
<g id="8947_31956" class="edge">
<path fill="none" stroke="#999999" stroke-width="5" d="M59.6581,-933.644C110.014,-952.84 216.646,-993.488 285.394,-1019.7"/>
<polygon fill="#999999" stroke="#999999" points="280.841,-1032.01 313.548,-1030.43 290.191,-1007.48 280.841,-1032.01"/>
</g>
<g id="2139_31956" class="edge">
<path fill="none" stroke="#999999" stroke-width="5" d="M61.4267,-926.977C113.124,-934.002 220.468,-948.587 291.917,-958.296"/>
<polygon fill="#999999" stroke="#999999" points="290.395,-971.335 321.889,-962.368 293.93,-945.324 290.395,-971.335"/>
</g>
<g id="9170_37785" class="edge">
<path fill="none" stroke="#999999" stroke-width="12" d="M1400.43,-799.313C1346.42,-803.744 1231.55,-813.169 1154.33,-819.505"/>
<polygon fill="#999999" stroke="#999999" points="1151.64,-788.119 1124.32,-821.967 1156.8,-850.908 1151.64,-788.119"/>
</g>
<g id="9170_38152" class="edge">
<path fill="none" stroke="#999999" stroke-width="31.6" d="M1261.26,-558.352C1229.96,-603.842 1170.1,-690.808 1127.13,-753.24"/>
<polygon fill="#999999" stroke="#999999" points="1058.56,-706.561 1109.88,-778.302 1195.22,-800.618 1058.56,-706.561"/>
</g>
<g id="1936_29802" class="edge">
<path fill="none" stroke="#999999" stroke-width="40" d="M997.472,-1622.94C967.606,-1573.19 910.983,-1478.88 871.184,-1412.59"/>
<polygon fill="#999999" stroke="#999999" points="961.009,-1358.21 855.545,-1386.54 780.965,-1466.3 961.009,-1358.21"/>
</g>
<g id="1928_30234" class="edge">
<path fill="none" stroke="#999999" stroke-width="5" d="M269.941,-1245.8C328.817,-1234.27 438.826,-1212.74 508.772,-1199.06"/>
<polygon fill="#999999" stroke="#999999" points="511.708,-1211.86 538.628,-1193.21 506.666,-1186.09 511.708,-1211.86"/>
</g>
<g id="2708_30234" class="edge">
<path fill="none" stroke="#999999" stroke-width="5" d="M269.087,-1242.48C301.372,-1233.31 347.678,-1220.16 385.436,-1209.44"/>
<polygon fill="#999999" stroke="#999999" points="389.074,-1222.05 414.348,-1201.23 381.904,-1196.8 389.074,-1222.05"/>
</g>
<g id="1935_30234" class="edge">
<path fill="none" stroke="#999999" stroke-width="10.6" d="M257.782,-1223.74C295.139,-1184.06 361.954,-1113.1 410.523,-1061.51"/>
<polygon fill="#999999" stroke="#999999" points="431.077,-1080.27 431.384,-1039.36 390.56,-1042.12 431.077,-1080.27"/>
</g>
<g id="2139_30234" class="edge">
<path fill="none" stroke="#999999" stroke-width="6.4" d="M246.906,-1216.33C268.126,-1170.58 304.466,-1092.22 330.674,-1035.72"/>
<polygon fill="#999999" stroke="#999999" points="345.939,-1042.73 343.321,-1008.45 315.458,-1028.6 345.939,-1042.73"/>
</g>
<g id="1919_30234" class="edge">
<path fill="none" stroke="#999999" stroke-width="5" d="M264.902,-1232.42C303.176,-1209.36 365.14,-1172.03 412.729,-1143.37"/>
<polygon fill="#999999" stroke="#999999" points="419.535,-1154.59 438.46,-1127.87 405.99,-1132.1 419.535,-1154.59"/>
</g>
<g id="1922_30234" class="edge">
<path fill="none" stroke="#999999" stroke-width="5" d="M270.327,-1260.06C342.577,-1271.33 493.937,-1294.95 583.627,-1308.94"/>
<polygon fill="#999999" stroke="#999999" points="581.688,-1321.92 613.353,-1313.58 585.735,-1295.99 581.688,-1321.92"/>
</g>
<g id="6080_38221" class="edge">
<path fill="none" stroke="#999999" stroke-width="12" d="M626.555,-384.592C594.606,-431.091 543.731,-505.134 508.997,-555.686"/>
<polygon fill="#999999" stroke="#999999" points="482.837,-538.135 491.81,-580.699 534.762,-573.812 482.837,-538.135"/>
</g>
<g id="1937_38221" class="edge">
<path fill="none" stroke="#999999" stroke-width="26" d="M647.532,-289.569C638.388,-235.382 624.042,-150.358 614.357,-92.963"/>
<polygon fill="#999999" stroke="#999999" points="681.621,-81.4019 609.331,-63.1761 547.024,-104.114 681.621,-81.4019"/>
</g>
<g id="3652_38221" class="edge">
<path fill="none" stroke="#999999" stroke-width="12" d="M657.928,-394.063C659.559,-445.917 662.052,-525.132 663.792,-580.439"/>
<polygon fill="#999999" stroke="#999999" points="632.313,-581.595 664.741,-610.589 695.281,-579.613 632.313,-581.595"/>
</g>
<g id="6074_38221" class="edge">
<path fill="none" stroke="#999999" stroke-width="12" d="M673.988,-390.754C694.328,-447.466 727.719,-540.568 749.809,-602.16"/>
<polygon fill="#999999" stroke="#999999" points="720.283,-613.14 760.061,-630.745 779.584,-591.872 720.283,-613.14"/>
</g>
<g id="2691_38221" class="edge">
<path fill="none" stroke="#999999" stroke-width="26" d="M688.118,-382.915C720.883,-425.677 772.175,-492.621 808.876,-540.522"/>
<polygon fill="#999999" stroke="#999999" points="754.884,-582.271 827.306,-564.575 863.236,-499.252 754.884,-582.271"/>
</g>
<g id="6080_3125" class="edge">
<path fill="none" stroke="#999999" stroke-width="6.4" d="M660.868,-917.059C617.888,-847.544 547.718,-734.051 505.886,-666.393"/>
<polygon fill="#999999" stroke="#999999" points="519.921,-657.146 489.855,-640.464 491.342,-674.816 519.921,-657.146"/>
</g>
<g id="9675_3125" class="edge">
<path fill="none" stroke="#999999" stroke-width="9.2" d="M660.812,-917.39C638.089,-880.894 609.225,-834.533 586.932,-798.727"/>
<polygon fill="#999999" stroke="#999999" points="607.398,-785.907 571.04,-773.204 566.395,-811.435 607.398,-785.907"/>
</g>
<g id="3652_3125" class="edge">
<path fill="none" stroke="#999999" stroke-width="9.2" d="M691.25,-906.942C685.532,-847.886 677.432,-764.22 671.914,-707.23"/>
<polygon fill="#999999" stroke="#999999" points="695.93,-704.678 669.002,-677.145 647.855,-709.333 695.93,-704.678"/>
</g>
<g id="6074_3125" class="edge">
<path fill="none" stroke="#999999" stroke-width="6.4" d="M714.304,-908.541C727.068,-854.617 744.702,-780.12 757.127,-727.627"/>
<polygon fill="#999999" stroke="#999999" points="773.538,-731.231 764.1,-698.168 740.841,-723.491 773.538,-731.231"/>
</g>
<g id="1928_3125" class="edge">
<path fill="none" stroke="#999999" stroke-width="6.4" d="M661.789,-1037.75C645.029,-1065.74 625.185,-1098.87 608.482,-1126.77"/>
<polygon fill="#999999" stroke="#999999" points="594.057,-1118.15 593.057,-1152.52 622.883,-1135.42 594.057,-1118.15"/>
</g>
<g id="2688_3125" class="edge">
<path fill="none" stroke="#999999" stroke-width="6.4" d="M740.719,-1033.52C778.677,-1083.61 834.016,-1156.65 872.738,-1207.76"/>
<polygon fill="#999999" stroke="#999999" points="859.527,-1218.14 891.035,-1231.91 886.308,-1197.85 859.527,-1218.14"/>
</g>
<g id="8947_3125" class="edge">
<path fill="none" stroke="#999999" stroke-width="6.4" d="M629.051,-990.372C566.533,-1002.3 475.085,-1019.76 413.831,-1031.45"/>
<polygon fill="#999999" stroke="#999999" points="410.393,-1015 384.074,-1037.13 416.692,-1048.01 410.393,-1015"/>
</g>
<g id="2708_3125" class="edge">
<path fill="none" stroke="#999999" stroke-width="9.2" d="M644.661,-1023.32C604.846,-1057.71 550.481,-1104.66 509.418,-1140.13"/>
<polygon fill="#999999" stroke="#999999" points="493.614,-1121.87 486.697,-1159.76 525.186,-1158.42 493.614,-1121.87"/>
</g>
<g id="2690_3125" class="edge">
<path fill="none" stroke="#999999" stroke-width="9.2" d="M755.403,-1018.11C796.463,-1047.4 851.804,-1086.88 894.483,-1117.33"/>
<polygon fill="#999999" stroke="#999999" points="880.732,-1137.18 919.18,-1134.94 908.782,-1097.86 880.732,-1137.18"/>
</g>
<g id="1935_3125" class="edge">
<path fill="none" stroke="#999999" stroke-width="12" d="M628.187,-983.875C600.086,-986.559 567.739,-989.649 539.598,-992.337"/>
<polygon fill="#999999" stroke="#999999" points="536.403,-960.998 509.535,-995.208 542.394,-1023.71 536.403,-960.998"/>
</g>
<g id="2139_3125" class="edge">
<path fill="none" stroke="#999999" stroke-width="9.2" d="M628.046,-975.25C570.722,-973.653 489.999,-971.403 432.566,-969.802"/>
<polygon fill="#999999" stroke="#999999" points="433.235,-945.662 402.574,-968.966 431.889,-993.943 433.235,-945.662"/>
</g>
<g id="1919_3125" class="edge">
<path fill="none" stroke="#999999" stroke-width="12" d="M637.272,-1012.22C609.322,-1028.33 576.07,-1047.49 547.345,-1064.04"/>
<polygon fill="#999999" stroke="#999999" points="531.27,-1036.95 521.003,-1079.22 562.724,-1091.54 531.27,-1036.95"/>
</g>
<g id="1922_3125" class="edge">
<path fill="none" stroke="#999999" stroke-width="6.4" d="M689.156,-1047.4C681.699,-1106.24 671.101,-1189.87 663.614,-1248.95"/>
<polygon fill="#999999" stroke="#999999" points="646.919,-1247.06 659.814,-1278.94 680.252,-1251.29 646.919,-1247.06"/>
</g>
<g id="3138_3125" class="edge">
<path fill="none" stroke="#999999" stroke-width="26" d="M728.739,-1040.89C740.587,-1065.48 754.18,-1093.69 766.288,-1118.82"/>
<polygon fill="#999999" stroke="#999999" points="704.883,-1148.61 779.39,-1146.01 827.852,-1089.36 704.883,-1148.61"/>
</g>
<g id="9170_3125" class="edge">
<path fill="none" stroke="#999999" stroke-width="26" d="M763.225,-951.181C829.487,-924.725 932.055,-883.774 1001.78,-855.935"/>
<polygon fill="#999999" stroke="#999999" points="1027.35,-919.217 1029.9,-844.708 976.731,-792.447 1027.35,-919.217"/>
</g>
<g id="1936_3125" class="edge">
<path fill="none" stroke="#999999" stroke-width="12" d="M721.828,-1043.94C743.887,-1105.86 776.693,-1197.94 799.759,-1262.68"/>
<polygon fill="#999999" stroke="#999999" points="770.162,-1273.47 809.903,-1291.16 829.508,-1252.33 770.162,-1273.47"/>
</g>
<g id="20460_31955" class="edge">
<path fill="none" stroke="#999999" stroke-width="7.8" d="M821.338,-922.972C858.335,-890.048 905.355,-848.204 940.191,-817.204"/>
<polygon fill="#999999" stroke="#999999" points="954.037,-832.291 962.837,-797.052 926.814,-801.7 954.037,-832.291"/>
</g>
<g id="9673_31955" class="edge">
<path fill="none" stroke="#999999" stroke-width="12" d="M841.137,-981.037C907.852,-985.445 1001.72,-991.647 1061.38,-995.589"/>
<polygon fill="#999999" stroke="#999999" points="1059.34,-1027.02 1091.35,-997.57 1063.49,-964.16 1059.34,-1027.02"/>
</g>
<g id="9675_31955" class="edge">
<path fill="none" stroke="#999999" stroke-width="12" d="M708.705,-916.652C675.076,-879.302 632.008,-831.469 599.531,-795.399"/>
<polygon fill="#999999" stroke="#999999" points="622.938,-774.32 579.455,-773.102 576.12,-816.474 622.938,-774.32"/>
</g>
<g id="3652_31955" class="edge">
<path fill="none" stroke="#999999" stroke-width="7.8" d="M739.782,-899.264C722.809,-840.706 699.7,-760.977 683.849,-706.29"/>
<polygon fill="#999999" stroke="#999999" points="703.474,-700.448 675.457,-677.334 664.143,-711.848 703.474,-700.448"/>
</g>
<g id="6074_31955" class="edge">
<path fill="none" stroke="#999999" stroke-width="12" d="M764.565,-895.999C766.263,-843.863 768.45,-776.697 770.031,-728.123"/>
<polygon fill="#999999" stroke="#999999" points="801.523,-728.887 771.016,-697.878 738.556,-726.837 801.523,-728.887"/>
</g>
<g id="2691_31955" class="edge">
<path fill="none" stroke="#999999" stroke-width="7.8" d="M780.637,-898.499C797.528,-828.559 822.101,-726.814 837.853,-661.591"/>
<polygon fill="#999999" stroke="#999999" points="857.862,-665.958 845.002,-631.99 818.056,-656.345 857.862,-665.958"/>
</g>
<g id="1928_31955" class="edge">
<path fill="none" stroke="#999999" stroke-width="7.8" d="M708.988,-1034.79C682.281,-1064.52 650.045,-1100.41 623.627,-1129.83"/>
<polygon fill="#999999" stroke="#999999" points="608.295,-1116.25 603.481,-1152.26 638.76,-1143.62 608.295,-1116.25"/>
</g>
<g id="2688_31955" class="edge">
<path fill="none" stroke="#999999" stroke-width="12" d="M799.537,-1046.04C825.523,-1094.62 859.785,-1158.67 884.773,-1205.38"/>
<polygon fill="#999999" stroke="#999999" points="857.05,-1220.34 898.976,-1231.94 912.601,-1190.62 857.05,-1220.34"/>
</g>
<g id="8947_31955" class="edge">
<path fill="none" stroke="#999999" stroke-width="13.4" d="M683.767,-988.687C605.585,-1001.57 486.758,-1021.14 413.652,-1033.18"/>
<polygon fill="#999999" stroke="#999999" points="407.919,-998.477 384.035,-1038.06 419.353,-1067.89 407.919,-998.477"/>
</g>
<g id="2708_31955" class="edge">
<path fill="none" stroke="#999999" stroke-width="12" d="M696.692,-1020.91C642.076,-1058.64 564.744,-1112.07 511.413,-1148.92"/>
<polygon fill="#999999" stroke="#999999" points="493.438,-1123.05 486.662,-1166.02 529.25,-1174.88 493.438,-1123.05"/>
</g>
<g id="2690_31955" class="edge">
<path fill="none" stroke="#999999" stroke-width="12" d="M819.599,-1030.64C843.959,-1053.81 872.382,-1080.85 897.213,-1104.48"/>
<polygon fill="#999999" stroke="#999999" points="875.78,-1127.56 919.227,-1125.42 919.204,-1081.92 875.78,-1127.56"/>
</g>
<g id="1935_31955" class="edge">
<path fill="none" stroke="#999999" stroke-width="7.8" d="M683.162,-982.065C638.401,-985.62 582.845,-990.033 539.58,-993.469"/>
<polygon fill="#999999" stroke="#999999" points="537.886,-973.064 509.602,-995.85 541.129,-1013.89 537.886,-973.064"/>
</g>
<g id="2139_31955" class="edge">
<path fill="none" stroke="#999999" stroke-width="12" d="M682.977,-974.232C609.993,-972.778 502.564,-970.638 432.479,-969.241"/>
<polygon fill="#999999" stroke="#999999" points="432.896,-937.743 402.275,-968.639 431.641,-1000.73 432.896,-937.743"/>
</g>
<g id="1919_31955" class="edge">
<path fill="none" stroke="#999999" stroke-width="19" d="M689.682,-1008.38C646.175,-1027.98 591.111,-1052.8 548.308,-1072.08"/>
<polygon fill="#999999" stroke="#999999" points="527.788,-1026.63 520.927,-1084.42 568.769,-1117.57 527.788,-1026.63"/>
</g>
<g id="1922_31955" class="edge">
<path fill="none" stroke="#999999" stroke-width="12" d="M738.274,-1051.77C719.839,-1110.87 694.458,-1192.25 676.498,-1249.83"/>
<polygon fill="#999999" stroke="#999999" points="646.357,-1240.68 667.496,-1278.69 706.5,-1259.43 646.357,-1240.68"/>
</g>
<g id="3138_31955" class="edge">
<path fill="none" stroke="#999999" stroke-width="19" d="M775.919,-1054.1C779.527,-1074.35 783.395,-1096.06 786.947,-1115.99"/>
<polygon fill="#999999" stroke="#999999" points="737.907,-1125.08 792.271,-1145.87 836.11,-1107.58 737.907,-1125.08"/>
</g>
<g id="9170_31955" class="edge">
<path fill="none" stroke="#999999" stroke-width="26" d="M833.491,-941.775C883.984,-917.751 951.481,-885.637 1002.63,-861.299"/>
<polygon fill="#999999" stroke="#999999" points="1032.11,-922.853 1029.88,-848.334 973.468,-799.594 1032.11,-922.853"/>
</g>
<g id="1936_31955" class="edge">
<path fill="none" stroke="#999999" stroke-width="19" d="M775.969,-1054.12C786.922,-1115.38 802.076,-1200.13 812.995,-1261.2"/>
<polygon fill="#999999" stroke="#999999" points="763.972,-1270.39 818.349,-1291.14 862.165,-1252.83 763.972,-1270.39"/>
</g>
<g id="9674_29563" class="edge">
<path fill="none" stroke="#999999" stroke-width="12" d="M475.808,-1428.54C427.508,-1468.01 361.657,-1521.83 316.76,-1558.52"/>
<polygon fill="#999999" stroke="#999999" points="296.629,-1534.29 293.332,-1577.66 336.495,-1583.07 296.629,-1534.29"/>
</g>
<g id="1931_29563" class="edge">
<path fill="none" stroke="#999999" stroke-width="12" d="M516.679,-1455.58C500.064,-1514.91 477.638,-1595 462.768,-1648.1"/>
<polygon fill="#999999" stroke="#999999" points="432.362,-1639.87 454.606,-1677.25 493.029,-1656.86 432.362,-1639.87"/>
</g>
<g id="1928_29563" class="edge">
<path fill="none" stroke="#999999" stroke-width="12" d="M552.869,-1297.46C555.667,-1281.79 558.568,-1265.55 561.259,-1250.48"/>
<polygon fill="#999999" stroke="#999999" points="592.272,-1256 566.538,-1220.93 530.254,-1244.92 592.272,-1256"/>
</g>
<g id="2688_29563" class="edge">
<path fill="none" stroke="#999999" stroke-width="12" d="M616.769,-1354.61C686.857,-1334.34 788.453,-1304.95 853.873,-1286.03"/>
<polygon fill="#999999" stroke="#999999" points="862.719,-1316.26 882.786,-1277.67 845.215,-1255.74 862.719,-1316.26"/>
</g>
<g id="8947_29563" class="edge">
<path fill="none" stroke="#999999" stroke-width="12" d="M498.367,-1306.51C464.478,-1247 416.487,-1162.73 384.082,-1105.82"/>
<polygon fill="#999999" stroke="#999999" points="411.354,-1090.06 369.135,-1079.58 356.608,-1121.24 411.354,-1090.06"/>
</g>
<g id="2708_29563" class="edge">
<path fill="none" stroke="#999999" stroke-width="12" d="M503.957,-1303.86C496.217,-1287.48 488.072,-1270.25 480.542,-1254.32"/>
<polygon fill="#999999" stroke="#999999" points="508.974,-1240.76 467.675,-1227.1 452.015,-1267.68 508.974,-1240.76"/>
</g>
<g id="2690_29563" class="edge">
<path fill="none" stroke="#999999" stroke-width="26" d="M610.956,-1340.49C690.023,-1300.36 815.669,-1236.58 892.511,-1197.57"/>
<polygon fill="#999999" stroke="#999999" points="923.515,-1258.37 919.373,-1183.93 861.73,-1136.66 923.515,-1258.37"/>
</g>
<g id="1935_29563" class="edge">
<path fill="none" stroke="#999999" stroke-width="26" d="M524.015,-1297.47C511.617,-1229.81 494.004,-1133.69 482.148,-1068.98"/>
<polygon fill="#999999" stroke="#999999" points="549.224,-1056.37 476.685,-1039.16 414.96,-1080.97 549.224,-1056.37"/>
</g>
<g id="2139_29563" class="edge">
<path fill="none" stroke="#999999" stroke-width="26" d="M506.463,-1302.6C473.697,-1226.59 423.317,-1109.72 391.578,-1036.09"/>
<polygon fill="#999999" stroke="#999999" points="454.166,-1008.87 379.616,-1008.34 328.817,-1062.91 454.166,-1008.87"/>
</g>
<g id="1919_29563" class="edge">
<path fill="none" stroke="#999999" stroke-width="26" d="M521.625,-1297.88C513.203,-1258.57 503.119,-1211.51 494.969,-1173.48"/>
<polygon fill="#999999" stroke="#999999" points="561.678,-1159.05 488.657,-1144.02 428.208,-1187.65 561.678,-1159.05"/>
</g>
<g id="1922_29563" class="edge">
<path fill="none" stroke="#999999" stroke-width="26" d="M611.42,-1341.31C611.511,-1341.27 611.602,-1341.22 611.693,-1341.18"/>
<polygon fill="#999999" stroke="#999999" points="616.873,-1414.72 613.594,-1340.24 556.501,-1292.3 616.873,-1414.72"/>
</g>
<g id="3138_29563" class="edge">
<path fill="none" stroke="#999999" stroke-width="26" d="M604.548,-1329.59C643.884,-1301.18 693.694,-1265.2 733.168,-1236.69"/>
<polygon fill="#999999" stroke="#999999" points="773.34,-1291.87 757.697,-1218.97 693.415,-1181.21 773.34,-1291.87"/>
</g>
<g id="1936_29563" class="edge">
<path fill="none" stroke="#999999" stroke-width="26" d="M618.915,-1366.5C659.894,-1361.03 709.501,-1354.42 749.985,-1349.02"/>
<polygon fill="#999999" stroke="#999999" points="759.12,-1416.65 779.834,-1345.04 741.074,-1281.35 759.12,-1416.65"/>
</g>
<g id="29608" class="node">
<ellipse fill="#ffffff" stroke="cadetblue" stroke-width="10" cx="1206.09" cy="-1502.49" rx="28" ry="28.5"/>
<image xlink:href="com_images/cunknown_coal_co.png" width="56px" height="56px" preserveAspectRatio="xMinYMin meet" x="1178.09" y="-1530.49"/>
<ellipse fill="none" stroke="cadetblue" stroke-width="10" cx="1206.09" cy="-1502.49" rx="28" ry="28.5"/>
<text text-anchor="start" x="1249.09" y="-1498.49" font-family="Times Roman,serif" font-size="15.00">North American Coal Co</text>
</g>
<g id="20460" class="node">
<polygon fill="#ffffff" stroke="#3333cc" stroke-width="10" points="1015.07,-799.71 963.066,-799.71 963.066,-747.71 1015.07,-747.71 1015.07,-799.71"/>
<image xlink:href="can_images/20460.jpg" width="34.6667px" height="52px" preserveAspectRatio="xMinYMin meet" x="971.732" y="-799.71"/>
<polygon fill="none" stroke="#3333cc" stroke-width="10" points="1015.07,-799.71 963.066,-799.71 963.066,-747.71 1015.07,-747.71 1015.07,-799.71"/>
<text text-anchor="middle" x="989.066" y="-769.71" font-family="Times Roman,serif" font-size="15.00">John M. Warner</text>
</g>
<g id="5460" class="node">
<ellipse fill="#ffffff" stroke="cadetblue" stroke-width="10" cx="1320.37" cy="-1298.23" rx="29" ry="29.5"/>
<image xlink:href="com_images/c185.png" width="58px" height="58px" preserveAspectRatio="xMinYMin meet" x="1291.37" y="-1327.23"/>
<ellipse fill="none" stroke="cadetblue" stroke-width="10" cx="1320.37" cy="-1298.23" rx="29" ry="29.5"/>
<text text-anchor="start" x="1364.37" y="-1294.23" font-family="Times Roman,serif" font-size="15.00">Tesoro Petroleum</text>
</g>
<g id="29823" class="node">
<ellipse fill="#ffffff" stroke="cadetblue" stroke-width="10" cx="705.957" cy="-1711.14" rx="30" ry="30.5"/>
<image xlink:href="com_images/cunknown_coal_co.png" width="60px" height="60px" preserveAspectRatio="xMinYMin meet" x="675.957" y="-1741.14"/>
<ellipse fill="none" stroke="cadetblue" stroke-width="10" cx="705.957" cy="-1711.14" rx="30" ry="30.5"/>
<text text-anchor="start" x="750.957" y="-1707.14" font-family="Times Roman,serif" font-size="15.00">Great River Energy</text>
</g>
<g id="31956" class="node">
<ellipse fill="#ffffff" stroke="cadetblue" stroke-width="10" cx="31.5" cy="-922.911" rx="30" ry="30.5"/>
<image xlink:href="com_images/cunknown_oil_co.png" width="60px" height="60px" preserveAspectRatio="xMinYMin meet" x="1.5" y="-952.911"/>
<ellipse fill="none" stroke="cadetblue" stroke-width="10" cx="31.5" cy="-922.911" rx="30" ry="30.5"/>
<text text-anchor="start" x="76.5" y="-918.911" font-family="Times Roman,serif" font-size="15.00">North Dakota Retail Petroleum Marketers</text>
</g>
<g id="9673" class="node">
<polygon fill="#ffffff" stroke="#cc3333" stroke-width="10" points="1145.7,-1026.38 1091.7,-1026.38 1091.7,-972.377 1145.7,-972.377 1145.7,-1026.38"/>
<image xlink:href="can_images/9673.jpg" width="36px" height="54px" preserveAspectRatio="xMinYMin meet" x="1100.7" y="-1026.38"/>
<polygon fill="none" stroke="#cc3333" stroke-width="10" points="1145.7,-1026.38 1091.7,-1026.38 1091.7,-972.377 1145.7,-972.377 1145.7,-1026.38"/>
<text text-anchor="middle" x="1118.7" y="-995.377" font-family="Times Roman,serif" font-size="15.00">Joe Miller</text>
</g>
<g id="9674" class="node">
<polygon fill="#ffffff" stroke="#3333cc" stroke-width="10" points="293.312,-1626.74 239.312,-1626.74 239.312,-1572.74 293.312,-1572.74 293.312,-1626.74"/>
<image xlink:href="can_images/9674.jpg" width="36px" height="54px" preserveAspectRatio="xMinYMin meet" x="248.312" y="-1626.74"/>
<polygon fill="none" stroke="#3333cc" stroke-width="10" points="293.312,-1626.74 239.312,-1626.74 239.312,-1572.74 293.312,-1572.74 293.312,-1626.74"/>
<text text-anchor="middle" x="266.312" y="-1595.74" font-family="Times Roman,serif" font-size="15.00">Jim Dotzenrod</text>
</g>
<g id="37785" class="node">
<ellipse fill="#ffffff" stroke="cadetblue" stroke-width="10" cx="1430.57" cy="-796.84" rx="30" ry="30.5"/>
<image xlink:href="com_images/cunknown_oil_co.png" width="60px" height="60px" preserveAspectRatio="xMinYMin meet" x="1400.57" y="-826.84"/>
<ellipse fill="none" stroke="cadetblue" stroke-width="10" cx="1430.57" cy="-796.84" rx="30" ry="30.5"/>
<text text-anchor="start" x="1475.57" y="-792.84" font-family="Times Roman,serif" font-size="15.00">GP NATURAL RESOURCES PARTNERS LLC</text>
</g>
<g id="1931" class="node">
<polygon fill="#ffffff" stroke="#3333cc" stroke-width="10" points="474.006,-1731.39 420.006,-1731.39 420.006,-1677.39 474.006,-1677.39 474.006,-1731.39"/>
<image xlink:href="can_images/unknownCandidate.jpg" width="54px" height="54px" preserveAspectRatio="xMinYMin meet" x="420.006" y="-1731.39"/>
<polygon fill="none" stroke="#3333cc" stroke-width="10" points="474.006,-1731.39 420.006,-1731.39 420.006,-1677.39 474.006,-1677.39 474.006,-1731.39"/>
<text text-anchor="middle" x="447.006" y="-1700.39" font-family="Times Roman,serif" font-size="15.00">Elroy N. Lindaas</text>
</g>
<g id="6080" class="node">
<polygon fill="#ffffff" stroke="#cc3333" stroke-width="10" points="500.332,-640.004 442.332,-640.004 442.332,-581.004 500.332,-581.004 500.332,-640.004"/>
<image xlink:href="can_images/6080.jpg" width="39.3333px" height="59px" preserveAspectRatio="xMinYMin meet" x="451.665" y="-640.004"/>
<polygon fill="none" stroke="#cc3333" stroke-width="10" points="500.332,-640.004 442.332,-640.004 442.332,-581.004 500.332,-581.004 500.332,-640.004"/>
<text text-anchor="middle" x="471.332" y="-606.504" font-family="Times Roman,serif" font-size="15.00">Robert Erbele</text>
</g>
<g id="9675" class="node">
<polygon fill="#ffffff" stroke="#cc3333" stroke-width="10" points="581.974,-773.081 521.974,-773.081 521.974,-712.081 581.974,-712.081 581.974,-773.081"/>
<image xlink:href="can_images/9675.jpg" width="40.6667px" height="61px" preserveAspectRatio="xMinYMin meet" x="531.641" y="-773.081"/>
<polygon fill="none" stroke="#cc3333" stroke-width="10" points="581.974,-773.081 521.974,-773.081 521.974,-712.081 581.974,-712.081 581.974,-773.081"/>
<text text-anchor="middle" x="551.974" y="-738.581" font-family="Times Roman,serif" font-size="15.00">David Hogue</text>
</g>
<g id="1937" class="node">
<polygon fill="#ffffff" stroke="#3333cc" stroke-width="10" points="635.07,-63 573.07,-63 573.07,-1 635.07,-1 635.07,-63"/>
<image xlink:href="can_images/1937.jpg" width="41.3333px" height="62px" preserveAspectRatio="xMinYMin meet" x="583.404" y="-63"/>
<polygon fill="none" stroke="#3333cc" stroke-width="10" points="635.07,-63 573.07,-63 573.07,-1 635.07,-1 635.07,-63"/>
<text text-anchor="middle" x="604.07" y="-28" font-family="Times Roman,serif" font-size="15.00">Larry J. Robinson</text>
</g>
<g id="38152" class="node">
<ellipse fill="#ffffff" stroke="cadetblue" stroke-width="10" cx="1282.25" cy="-527.864" rx="37" ry="37"/>
<image xlink:href="com_images/cunknown_oil_co.png" width="74px" height="74px" preserveAspectRatio="xMinYMin meet" x="1245.25" y="-564.864"/>
<ellipse fill="none" stroke="cadetblue" stroke-width="10" cx="1282.25" cy="-527.864" rx="37" ry="37"/>
<text text-anchor="start" x="1334.25" y="-523.864" font-family="Times Roman,serif" font-size="15.00">MISSOURI BASIN OIL SERVICES</text>
</g>
<g id="3652" class="node">
<polygon fill="#ffffff" stroke="#cc3333" stroke-width="10" points="698.792,-676.988 632.792,-676.988 632.792,-610.988 698.792,-610.988 698.792,-676.988"/>
<image xlink:href="can_images/3652.jpg" width="44px" height="66px" preserveAspectRatio="xMinYMin meet" x="643.792" y="-676.988"/>
<polygon fill="none" stroke="#cc3333" stroke-width="10" points="698.792,-676.988 632.792,-676.988 632.792,-610.988 698.792,-610.988 698.792,-676.988"/>
<text text-anchor="middle" x="665.792" y="-639.988" font-family="Times Roman,serif" font-size="15.00">Tim Flakoll</text>
</g>
<g id="6074" class="node">
<polygon fill="#ffffff" stroke="#cc3333" stroke-width="10" points="805.108,-697.835 739.108,-697.835 739.108,-630.835 805.108,-630.835 805.108,-697.835"/>
<image xlink:href="can_images/6074.jpg" width="44.6667px" height="67px" preserveAspectRatio="xMinYMin meet" x="749.775" y="-697.835"/>
<polygon fill="none" stroke="#cc3333" stroke-width="10" points="805.108,-697.835 739.108,-697.835 739.108,-630.835 805.108,-630.835 805.108,-697.835"/>
<text text-anchor="middle" x="772.108" y="-660.335" font-family="Times Roman,serif" font-size="15.00">Gary A. Lee</text>
</g>
<g id="2691" class="node">
<polygon fill="#ffffff" stroke="#cc3333" stroke-width="10" points="886.14,-631.792 820.14,-631.792 820.14,-564.792 886.14,-564.792 886.14,-631.792"/>
<image xlink:href="can_images/unknownCandidate.jpg" width="66px" height="66px" preserveAspectRatio="xMinYMin meet" x="820.14" y="-631.292"/>
<polygon fill="none" stroke="#cc3333" stroke-width="10" points="886.14,-631.792 820.14,-631.792 820.14,-564.792 886.14,-564.792 886.14,-631.792"/>
<text text-anchor="middle" x="853.14" y="-594.292" font-family="Times Roman,serif" font-size="15.00">Tom Fischer</text>
</g>
<g id="1928" class="node">
<polygon fill="#ffffff" stroke="#cc3333" stroke-width="10" points="606.679,-1220.55 538.679,-1220.55 538.679,-1152.55 606.679,-1152.55 606.679,-1220.55"/>
<image xlink:href="can_images/1928.jpg" width="45.3333px" height="68px" preserveAspectRatio="xMinYMin meet" x="550.012" y="-1220.55"/>
<polygon fill="none" stroke="#cc3333" stroke-width="10" points="606.679,-1220.55 538.679,-1220.55 538.679,-1152.55 606.679,-1152.55 606.679,-1220.55"/>
<text text-anchor="middle" x="572.679" y="-1182.55" font-family="Times Roman,serif" font-size="15.00">Karen K. Krebsbach</text>
</g>
<g id="29802" class="node">
<ellipse fill="#ffffff" stroke="cadetblue" stroke-width="10" cx="1017.72" cy="-1656.65" rx="39" ry="39"/>
<image xlink:href="com_images/c29802.png" width="78px" height="78px" preserveAspectRatio="xMinYMin meet" x="978.716" y="-1695.65"/>
<ellipse fill="none" stroke="cadetblue" stroke-width="10" cx="1017.72" cy="-1656.65" rx="39" ry="39"/>
<text text-anchor="start" x="1071.72" y="-1652.65" font-family="Times Roman,serif" font-size="15.00">Basin Electric Power Co&#45;Op</text>
</g>
<g id="2688" class="node">
<polygon fill="#ffffff" stroke="#cc3333" stroke-width="10" points="952.992,-1302.99 882.992,-1302.99 882.992,-1231.99 952.992,-1231.99 952.992,-1302.99"/>
<image xlink:href="can_images/2688.jpg" width="47.3333px" height="71px" preserveAspectRatio="xMinYMin meet" x="894.325" y="-1302.99"/>
<polygon fill="none" stroke="#cc3333" stroke-width="10" points="952.992,-1302.99 882.992,-1302.99 882.992,-1231.99 952.992,-1231.99 952.992,-1302.99"/>
<text text-anchor="middle" x="917.992" y="-1263.49" font-family="Times Roman,serif" font-size="15.00">Jerry Klein</text>
</g>
<g id="8947" class="node">
<polygon fill="#ffffff" stroke="#cc3333" stroke-width="10" points="383.798,-1079.36 313.798,-1079.36 313.798,-1008.36 383.798,-1008.36 383.798,-1079.36"/>
<image xlink:href="can_images/8947.jpg" width="57.6436px" height="71px" preserveAspectRatio="xMinYMin meet" x="319.976" y="-1079.36"/>
<polygon fill="none" stroke="#cc3333" stroke-width="10" points="383.798,-1079.36 313.798,-1079.36 313.798,-1008.36 383.798,-1008.36 383.798,-1079.36"/>
<text text-anchor="middle" x="348.798" y="-1039.86" font-family="Times Roman,serif" font-size="15.00">Curtis Olafson</text>
</g>
<g id="2708" class="node">
<polygon fill="#ffffff" stroke="#cc3333" stroke-width="10" points="486.589,-1226.94 414.589,-1226.94 414.589,-1154.94 486.589,-1154.94 486.589,-1226.94"/>
<image xlink:href="can_images/2708.jpg" width="48px" height="72px" preserveAspectRatio="xMinYMin meet" x="426.589" y="-1226.94"/>
<polygon fill="none" stroke="#cc3333" stroke-width="10" points="486.589,-1226.94 414.589,-1226.94 414.589,-1154.94 486.589,-1154.94 486.589,-1226.94"/>
<text text-anchor="middle" x="450.589" y="-1186.94" font-family="Times Roman,serif" font-size="15.00">Dick Dever</text>
</g>
<g id="30234" class="node">
<ellipse fill="#ffffff" stroke="cadetblue" stroke-width="10" cx="229.573" cy="-1253.7" rx="41" ry="41"/>
<image xlink:href="com_images/cunknown_oil_co.png" width="82px" height="82px" preserveAspectRatio="xMinYMin meet" x="188.573" y="-1294.7"/>
<ellipse fill="none" stroke="cadetblue" stroke-width="10" cx="229.573" cy="-1253.7" rx="41" ry="41"/>
<text text-anchor="start" x="285.573" y="-1249.7" font-family="Times Roman,serif" font-size="15.00">MDU Resources Group</text>
</g>
<g id="2690" class="node">
<polygon fill="#ffffff" stroke="#cc3333" stroke-width="10" points="999.385,-1203.62 919.385,-1203.62 919.385,-1123.62 999.385,-1123.62 999.385,-1203.62"/>
<image xlink:href="can_images/2690.jpg" width="53.3333px" height="80px" preserveAspectRatio="xMinYMin meet" x="932.718" y="-1203.62"/>
<polygon fill="none" stroke="#cc3333" stroke-width="10" points="999.385,-1203.62 919.385,-1203.62 919.385,-1123.62 999.385,-1123.62 999.385,-1203.62"/>
<text text-anchor="middle" x="959.385" y="-1159.62" font-family="Times Roman,serif" font-size="15.00">Dwight Cook</text>
</g>
<g id="1935" class="node">
<polygon fill="#ffffff" stroke="#cc3333" stroke-width="10" points="509.335,-1039.05 429.335,-1039.05 429.335,-959.048 509.335,-959.048 509.335,-1039.05"/>
<image xlink:href="can_images/1935.jpg" width="64.9505px" height="80px" preserveAspectRatio="xMinYMin meet" x="436.86" y="-1039.05"/>
<polygon fill="none" stroke="#cc3333" stroke-width="10" points="509.335,-1039.05 429.335,-1039.05 429.335,-959.048 509.335,-959.048 509.335,-1039.05"/>
<text text-anchor="middle" x="469.335" y="-995.048" font-family="Times Roman,serif" font-size="15.00">Dave Nething</text>
</g>
<g id="2139" class="node">
<polygon fill="#ffffff" stroke="#cc3333" stroke-width="10" points="402.156,-1008.34 322.156,-1008.34 322.156,-927.34 402.156,-927.34 402.156,-1008.34"/>
<image xlink:href="can_images/unknownCandidate.jpg" width="80px" height="80px" preserveAspectRatio="xMinYMin meet" x="322.156" y="-1007.84"/>
<polygon fill="none" stroke="#cc3333" stroke-width="10" points="402.156,-1008.34 322.156,-1008.34 322.156,-927.34 402.156,-927.34 402.156,-1008.34"/>
<text text-anchor="middle" x="362.156" y="-963.84" font-family="Times Roman,serif" font-size="15.00">Bob Stenehjem</text>
</g>
<g id="1919" class="node">
<polygon fill="#ffffff" stroke="#cc3333" stroke-width="10" points="520.854,-1143.93 438.854,-1143.93 438.854,-1061.93 520.854,-1061.93 520.854,-1143.93"/>
<image xlink:href="can_images/1919.jpg" width="54.6667px" height="82px" preserveAspectRatio="xMinYMin meet" x="452.52" y="-1143.93"/>
<polygon fill="none" stroke="#cc3333" stroke-width="10" points="520.854,-1143.93 438.854,-1143.93 438.854,-1061.93 520.854,-1061.93 520.854,-1143.93"/>
<text text-anchor="middle" x="479.854" y="-1098.93" font-family="Times Roman,serif" font-size="15.00">John Andrist</text>
</g>
<g id="1922" class="node">
<polygon fill="#ffffff" stroke="#cc3333" stroke-width="10" points="695.608,-1361.02 613.608,-1361.02 613.608,-1279.02 695.608,-1279.02 695.608,-1361.02"/>
<image xlink:href="can_images/1922.jpg" width="66.5743px" height="82px" preserveAspectRatio="xMinYMin meet" x="621.321" y="-1361.02"/>
<polygon fill="none" stroke="#cc3333" stroke-width="10" points="695.608,-1361.02 613.608,-1361.02 613.608,-1279.02 695.608,-1279.02 695.608,-1361.02"/>
<text text-anchor="middle" x="654.608" y="-1316.02" font-family="Times Roman,serif" font-size="15.00">Layton Freborg</text>
</g>
<g id="3138" class="node">
<polygon fill="#ffffff" stroke="#3333cc" stroke-width="10" points="841.87,-1231.01 757.87,-1231.01 757.87,-1146.01 841.87,-1146.01 841.87,-1231.01"/>
<image xlink:href="can_images/3138.jpg" width="56.6667px" height="85px" preserveAspectRatio="xMinYMin meet" x="771.537" y="-1231.01"/>
<polygon fill="none" stroke="#3333cc" stroke-width="10" points="841.87,-1231.01 757.87,-1231.01 757.87,-1146.01 841.87,-1146.01 841.87,-1231.01"/>
<text text-anchor="middle" x="799.87" y="-1184.51" font-family="Times Roman,serif" font-size="15.00">Connie Triplett</text>
</g>
<g id="38221" class="node">
<ellipse fill="#ffffff" stroke="cadetblue" stroke-width="10" cx="656.269" cy="-341.347" rx="52" ry="52.5"/>
<image xlink:href="com_images/cunknown_coal_co.png" width="104px" height="104px" preserveAspectRatio="xMinYMin meet" x="604.269" y="-393.347"/>
<ellipse fill="none" stroke="cadetblue" stroke-width="10" cx="656.269" cy="-341.347" rx="52" ry="52.5"/>
<text text-anchor="start" x="723.269" y="-337.347" font-family="Times Roman,serif" font-size="15.00">NORTH DAKOTA LIGNITE COUNCIL</text>
</g>
<g id="9170" class="node">
<polygon fill="#ffffff" stroke="#cc3333" stroke-width="10" points="1124.17,-873.335 1030.17,-873.335 1030.17,-778.335 1124.17,-778.335 1124.17,-873.335"/>
<image xlink:href="can_images/9170.jpg" width="77.1287px" height="95px" preserveAspectRatio="xMinYMin meet" x="1038.6" y="-873.335"/>
<polygon fill="none" stroke="#cc3333" stroke-width="10" points="1124.17,-873.335 1030.17,-873.335 1030.17,-778.335 1124.17,-778.335 1124.17,-873.335"/>
<text text-anchor="middle" x="1077.17" y="-821.835" font-family="Times Roman,serif" font-size="15.00">George L. Nodland</text>
</g>
<g id="1936" class="node">
<polygon fill="#ffffff" stroke="#3333cc" stroke-width="10" points="873.864,-1386.26 779.864,-1386.26 779.864,-1291.26 873.864,-1291.26 873.864,-1386.26"/>
<image xlink:href="can_images/1936.jpg" width="63.3333px" height="95px" preserveAspectRatio="xMinYMin meet" x="795.197" y="-1386.26"/>
<polygon fill="none" stroke="#3333cc" stroke-width="10" points="873.864,-1386.26 779.864,-1386.26 779.864,-1291.26 873.864,-1291.26 873.864,-1386.26"/>
<text text-anchor="middle" x="826.864" y="-1334.76" font-family="Times Roman,serif" font-size="15.00">David O&#39;Connell</text>
</g>
<g id="3125" class="node">
<ellipse fill="#ffffff" stroke="cadetblue" stroke-width="10" cx="698.052" cy="-977.201" rx="70" ry="70.5"/>
<image xlink:href="com_images/c93.png" width="140px" height="140px" preserveAspectRatio="xMinYMin meet" x="628.052" y="-1047.2"/>
<ellipse fill="none" stroke="cadetblue" stroke-width="10" cx="698.052" cy="-977.201" rx="70" ry="70.5"/>
<text text-anchor="start" x="783.052" y="-973.201" font-family="Times Roman,serif" font-size="15.00">Marathon Oil</text>
</g>
<g id="31955" class="node">
<ellipse fill="#ffffff" stroke="cadetblue" stroke-width="10" cx="761.967" cy="-975.806" rx="79" ry="79.5"/>
<image xlink:href="com_images/c31955.png" width="158px" height="158px" preserveAspectRatio="xMinYMin meet" x="682.967" y="-1054.81"/>
<ellipse fill="none" stroke="cadetblue" stroke-width="10" cx="761.967" cy="-975.806" rx="79" ry="79.5"/>
<text text-anchor="start" x="855.967" y="-971.806" font-family="Times Roman,serif" font-size="15.00">North Dakota Petroleum Council</text>
</g>
<g id="29563" class="node">
<ellipse fill="#ffffff" stroke="cadetblue" stroke-width="10" cx="538.624" cy="-1377.21" rx="81" ry="81"/>
<image xlink:href="com_images/c29563.png" width="162px" height="162px" preserveAspectRatio="xMinYMin meet" x="457.624" y="-1458.21"/>
<ellipse fill="none" stroke="cadetblue" stroke-width="10" cx="538.624" cy="-1377.21" rx="81" ry="81"/>
<text text-anchor="start" x="634.624" y="-1373.21" font-family="Times Roman,serif" font-size="15.00">Lignite Energy Council</text>
</g>
</g>
</svg>
