<svg width="386.91534375px" height="387px"
  xmlns="http://www.w3.org/2000/svg" xmlns:xlink="http://www.w3.org/1999/xlink">
<g id="graph0" class="graph" transform="scale(0.669719625 0.669719625) rotate(0) translate(4 573.855)">

<polygon id='svgscreen' style="opacity:0;" fill="#ffffff" stroke="#ffffff" points="-4,5 -4,-573.855 574.731,-573.855 574.731,5 -4,5"/>
<g id="4387_3716" class="edge">
<path fill="none" stroke="#999999" stroke-width="5" d="M433.146,-136.8C401.462,-168.605 362.331,-207.886 332.382,-237.95"/>
<polygon fill="#999999" stroke="#999999" points="322.971,-228.799 311.097,-259.315 341.568,-247.325 322.971,-228.799"/>
</g>
<g id="4387_38226" class="edge">
<path fill="none" stroke="#999999" stroke-width="40" d="M139.626,-430.413C171.136,-399.005 209.66,-360.604 239.27,-331.089"/>
<polygon fill="#999999" stroke="#999999" points="313.68,-405.172 260.8,-309.628 165.426,-256.442 313.68,-405.172"/>
</g>
<g id="4387" class="node">
<polygon fill="#ffffff" stroke="#cc3333" stroke-width="10" points="310.951,-310.057 260.951,-310.057 260.951,-259.057 310.951,-259.057 310.951,-310.057"/>
<image xlink:href="can_images/unknownCandidate.jpg" width="50px" height="50px" preserveAspectRatio="xMinYMin meet" x="260.951" y="-309.557"/>
<polygon fill="none" stroke="#cc3333" stroke-width="10" points="310.951,-310.057 260.951,-310.057 260.951,-259.057 310.951,-259.057 310.951,-310.057"/>
<text text-anchor="middle" x="285.951" y="-280.557" font-family="Times Roman,serif" font-size="15.00">Rick Keene</text>
</g>
<g id="3716" class="node">
<ellipse fill="#ffffff" stroke="cadetblue" stroke-width="10" cx="489.231" cy="-80.5" rx="79" ry="79.5"/>
<image xlink:href="com_images/c109.png" width="158px" height="158px" preserveAspectRatio="xMinYMin meet" x="410.231" y="-159.5"/>
<ellipse fill="none" stroke="cadetblue" stroke-width="10" cx="489.231" cy="-80.5" rx="79" ry="79.5"/>
<text text-anchor="start" x="583.231" y="-76.5" font-family="Times Roman,serif" font-size="15.00">Occidental Petroleum</text>
</g>
<g id="38226" class="node">
<ellipse fill="#ffffff" stroke="cadetblue" stroke-width="10" cx="82" cy="-487.855" rx="81" ry="81"/>
<image xlink:href="com_images/cunknown_oil_co.png" width="162px" height="162px" preserveAspectRatio="xMinYMin meet" x="1" y="-568.855"/>
<ellipse fill="none" stroke="cadetblue" stroke-width="10" cx="82" cy="-487.855" rx="81" ry="81"/>
<text text-anchor="start" x="178" y="-483.855" font-family="Times Roman,serif" font-size="15.00">NORTHGATE PETROLEUM CO</text>
</g>
</g>
</svg>
