<svg width="354.72265625px" height="355px"
  xmlns="http://www.w3.org/2000/svg" xmlns:xlink="http://www.w3.org/1999/xlink">
<g id="graph0" class="graph" transform="scale(0.61417218750001 0.61417218750001) rotate(0) translate(4 574.014)">

<polygon id='svgscreen' style="opacity:0;" fill="#ffffff" stroke="#ffffff" points="-4,5 -4,-574.014 574.565,-574.014 574.565,5 -4,5"/>
<g id="4387_3716" class="edge">
<path fill="none" stroke="#999999" stroke-width="5" d="M432.579,-136.503C400.575,-168.234 361.027,-207.445 330.829,-237.384"/>
<polygon fill="#999999" stroke="#999999" points="321.453,-228.197 309.39,-258.64 339.935,-246.838 321.453,-228.197"/>
</g>
<g id="4387_38226" class="edge">
<path fill="none" stroke="#999999" stroke-width="40" d="M139.169,-430.224C170.336,-398.718 208.422,-360.218 237.762,-330.56"/>
<polygon fill="#999999" stroke="#999999" points="312.666,-404.144 259.118,-308.972 163.373,-256.456 312.666,-404.144"/>
</g>
<g id="4387" class="node">
<polygon fill="#ffffff" stroke="#cc3333" stroke-width="10" points="309.333,-308.983 259.333,-308.983 259.333,-257.983 309.333,-257.983 309.333,-308.983"/>
<image xlink:href="can_images/unknownCandidate.jpg" width="50px" height="50px" preserveAspectRatio="xMinYMin meet" x="259.333" y="-308.483"/>
<polygon fill="none" stroke="#cc3333" stroke-width="10" points="309.333,-308.983 259.333,-308.983 259.333,-257.983 309.333,-257.983 309.333,-308.983"/>
<text text-anchor="middle" x="284.333" y="-279.483" font-family="Times Roman,serif" font-size="15.00">Rick Keene</text>
</g>
<g id="3716" class="node">
<ellipse fill="#ffffff" stroke="cadetblue" stroke-width="10" cx="489.065" cy="-80.5" rx="79" ry="79.5"/>
<image xlink:href="com_images/c109.png" width="158px" height="158px" preserveAspectRatio="xMinYMin meet" x="410.065" y="-159.5"/>
<ellipse fill="none" stroke="cadetblue" stroke-width="10" cx="489.065" cy="-80.5" rx="79" ry="79.5"/>
<text text-anchor="start" x="583.065" y="-76.5" font-family="Times Roman,serif" font-size="15.00">Occidental Petroleum</text>
</g>
<g id="38226" class="node">
<ellipse fill="#ffffff" stroke="cadetblue" stroke-width="10" cx="82" cy="-488.014" rx="81" ry="81"/>
<image xlink:href="com_images/cunknown_oil_co.png" width="162px" height="162px" preserveAspectRatio="xMinYMin meet" x="1" y="-569.014"/>
<ellipse fill="none" stroke="cadetblue" stroke-width="10" cx="82" cy="-488.014" rx="81" ry="81"/>
<text text-anchor="start" x="178" y="-484.014" font-family="Times Roman,serif" font-size="15.00">NORTHGATE PETROLEUM CO</text>
</g>
</g>
</svg>
