<svg width="0px" height="0px"
  xmlns="http://www.w3.org/2000/svg" xmlns:xlink="http://www.w3.org/1999/xlink">
<g id="graph0" class="graph" transform="scale(0 0) rotate(0) translate(4 1513.41)">

<polygon id='svgscreen' style="opacity:0;" fill="#ffffff" stroke="#ffffff" points="-4,5 -4,-1513.41 1418.88,-1513.41 1418.88,5 -4,5"/>
<g id="4144_39405" class="edge">
<path fill="none" stroke="#999999" stroke-width="5" d="M482.781,-532.497C512.394,-564.672 570.447,-627.747 620.069,-681.662"/>
<polygon fill="#999999" stroke="#999999" points="610.738,-690.905 640.711,-704.09 630.052,-673.128 610.738,-690.905"/>
</g>
<g id="4144_31946" class="edge">
<path fill="none" stroke="#999999" stroke-width="8.84146" d="M961.763,-881.42C925.71,-866.523 861.976,-840.187 807.283,-817.587"/>
<polygon fill="#999999" stroke="#999999" points="815.882,-796.028 779.293,-806.021 798.156,-838.927 815.882,-796.028"/>
</g>
<g id="2244_168" class="edge">
<path fill="none" stroke="#999999" stroke-width="9.26829" d="M554.682,-1359.68C522.998,-1328 465.065,-1270.07 423.329,-1228.33"/>
<polygon fill="#999999" stroke="#999999" points="440.495,-1211.09 402.078,-1207.08 406.088,-1245.49 440.495,-1211.09"/>
</g>
<g id="4144_951" class="edge">
<path fill="none" stroke="#999999" stroke-width="10.9756" d="M448.924,-696.522C486.437,-708.097 550.907,-727.989 606.029,-744.998"/>
<polygon fill="#999999" stroke="#999999" points="597.884,-772.636 635.046,-753.951 614.874,-717.576 597.884,-772.636"/>
</g>
<g id="4140_39492" class="edge">
<path fill="none" stroke="#999999" stroke-width="11.8293" d="M1261.69,-63.8325C1240.11,-103.043 1201.08,-173.933 1171.03,-228.533"/>
<polygon fill="#999999" stroke="#999999" points="1143.74,-213.707 1156.48,-254.963 1198.15,-243.656 1143.74,-213.707"/>
</g>
<g id="4144_39383" class="edge">
<path fill="none" stroke="#999999" stroke-width="11.8293" d="M557.288,-993.59C577.433,-964.344 610.379,-916.514 640.248,-873.151"/>
<polygon fill="#999999" stroke="#999999" points="665.914,-890.63 657.359,-848.31 614.769,-855.401 665.914,-890.63"/>
</g>
<g id="4140_39350" class="edge">
<path fill="none" stroke="#999999" stroke-width="11.8293" d="M895.787,-451.11C934.654,-426.622 1003.03,-383.544 1055.83,-350.275"/>
<polygon fill="#999999" stroke="#999999" points="1072.58,-376.421 1081.41,-334.157 1039.48,-323.877 1072.58,-376.421"/>
</g>
<g id="4144_39350" class="edge">
<path fill="none" stroke="#999999" stroke-width="7.56098" d="M848.424,-502.817C827.136,-543.978 789.443,-616.86 758.328,-677.021"/>
<polygon fill="#999999" stroke="#999999" points="740.508,-668.274 744.355,-704.039 775.766,-686.509 740.508,-668.274"/>
</g>
<g id="9861_671" class="edge">
<path fill="none" stroke="#999999" stroke-width="8.41463" d="M312.073,-891.696C256.531,-899.893 150.743,-915.505 85.2521,-925.17"/>
<polygon fill="#999999" stroke="#999999" points="82.005,-903.321 55.5513,-929.553 88.4547,-947.025 82.005,-903.321"/>
</g>
<g id="4144_671" class="edge">
<path fill="none" stroke="#999999" stroke-width="11.8293" d="M384.476,-875.314C435.686,-859.574 532.045,-829.958 606.163,-807.178"/>
<polygon fill="#999999" stroke="#999999" points="615.297,-836.856 634.85,-798.36 597.051,-777.493 615.297,-836.856"/>
</g>
<g id="4144_39359" class="edge">
<path fill="none" stroke="#999999" stroke-width="20.3659" d="M870.585,-1001.39C847.301,-969.32 810.166,-918.179 777.164,-872.728"/>
<polygon fill="#999999" stroke="#999999" points="820.255,-841.085 759.369,-848.221 733.736,-903.908 820.255,-841.085"/>
</g>
<g id="4144_39514" class="edge">
<path fill="none" stroke="#999999" stroke-width="37.439" d="M642.783,-508.574C653.244,-552.132 669.261,-618.821 682.687,-674.724"/>
<polygon fill="#999999" stroke="#999999" points="587.162,-697.82 689.728,-704.04 778.282,-651.919 587.162,-697.82"/>
</g>
<g id="4172_1137" class="edge">
<path fill="none" stroke="#999999" stroke-width="11.8293" d="M729.488,-1208.71C737.762,-1266.29 751.057,-1358.83 759.74,-1419.25"/>
<polygon fill="#999999" stroke="#999999" points="729.024,-1423.81 764.027,-1449.09 790.497,-1414.98 729.024,-1423.81"/>
</g>
<g id="4144_1137" class="edge">
<path fill="none" stroke="#999999" stroke-width="40" d="M719.933,-1104.07C717.654,-1046.06 713.928,-951.223 711.068,-878.424"/>
<polygon fill="#999999" stroke="#999999" points="815.979,-874.099 709.883,-848.245 606.141,-882.344 815.979,-874.099"/>
</g>
<g id="2878_5460" class="edge">
<path fill="none" stroke="#999999" stroke-width="11.8293" d="M1106.74,-640.115C1166.57,-655.962 1263.25,-681.571 1325.03,-697.935"/>
<polygon fill="#999999" stroke="#999999" points="1317.21,-727.985 1354.16,-705.65 1333.11,-667.952 1317.21,-727.985"/>
</g>
<g id="4140_5460" class="edge">
<path fill="none" stroke="#999999" stroke-width="37.439" d="M1066.02,-572.411C1078.32,-520.465 1097.11,-441.063 1111.08,-382.044"/>
<polygon fill="#999999" stroke="#999999" points="1206.8,-404.305 1118.08,-352.476 1015.53,-359.035 1206.8,-404.305"/>
</g>
<g id="4144_5460" class="edge">
<path fill="none" stroke="#999999" stroke-width="11.8293" d="M1002.62,-647.974C951.432,-670.176 871.017,-705.053 806.98,-732.828"/>
<polygon fill="#999999" stroke="#999999" points="794.492,-704.397 779.325,-744.822 819.204,-761.373 794.492,-704.397"/>
</g>
<g id="39405" class="node">
<ellipse fill="#ffffff" stroke="cadetblue" stroke-width="10" cx="463.241" cy="-511.267" rx="28" ry="28.5"/>
<image xlink:href="com_images/cunknown_oil_co.png" width="56px" height="56px" preserveAspectRatio="xMinYMin meet" x="435.241" y="-539.267"/>
<ellipse fill="none" stroke="cadetblue" stroke-width="10" cx="463.241" cy="-511.267" rx="28" ry="28.5"/>
<text text-anchor="start" x="506.241" y="-507.267" font-family="Times Roman,serif" font-size="15.00">ALASKA SUPPORT INDUSTRY ALLIANCE</text>
</g>
<g id="9861" class="node">
<polygon fill="#ffffff" stroke="#3333cc" stroke-width="10" points="55.5,-961.045 1.5,-961.045 1.5,-906.045 55.5,-906.045 55.5,-961.045"/>
<image xlink:href="can_images/9861.jpg" width="41.0667px" height="55px" preserveAspectRatio="xMinYMin meet" x="7.96667" y="-961.045"/>
<polygon fill="none" stroke="#3333cc" stroke-width="10" points="55.5,-961.045 1.5,-961.045 1.5,-906.045 55.5,-906.045 55.5,-961.045"/>
<text text-anchor="middle" x="28.5" y="-929.545" font-family="Times Roman,serif" font-size="15.00">Joe Paskvan</text>
</g>
<g id="31946" class="node">
<ellipse fill="#ffffff" stroke="cadetblue" stroke-width="10" cx="990.501" cy="-893.296" rx="31" ry="31.5"/>
<image xlink:href="com_images/c31946.png" width="62px" height="62px" preserveAspectRatio="xMinYMin meet" x="959.501" y="-924.296"/>
<ellipse fill="none" stroke="cadetblue" stroke-width="10" cx="990.501" cy="-893.296" rx="31" ry="31.5"/>
<text text-anchor="start" x="1036.501" y="-889.296" font-family="Times Roman,serif" font-size="15.00">NANA Regional Corp</text>
</g>
<g id="2244" class="node">
<polygon fill="#ffffff" stroke="#3333cc" stroke-width="10" points="402,-1207 346,-1207 346,-1151 402,-1151 402,-1207"/>
<polygon fill="none" stroke="#3333cc" stroke-width="10" points="402,-1207 346,-1207 346,-1151 402,-1151 402,-1207"/>
<text text-anchor="middle" x="374" y="-1175" font-family="Times Roman,serif" font-size="15.00">Bettye Davis</text>
</g>
<g id="168" class="node">
<ellipse fill="#ffffff" stroke="cadetblue" stroke-width="10" cx="577.647" cy="-1382.65" rx="32" ry="32"/>
<image xlink:href="com_images/cunknown_oil_co.png" width="64px" height="64px" preserveAspectRatio="xMinYMin meet" x="545.647" y="-1414.65"/>
<ellipse fill="none" stroke="cadetblue" stroke-width="10" cx="577.647" cy="-1382.65" rx="32" ry="32"/>
<text text-anchor="start" x="624.647" y="-1378.65" font-family="Times Roman,serif" font-size="15.00">Alyeska Pipeline Service Co</text>
</g>
<g id="951" class="node">
<ellipse fill="#ffffff" stroke="cadetblue" stroke-width="10" cx="417.371" cy="-686.786" rx="33" ry="33"/>
<image xlink:href="com_images/c951.png" width="66px" height="66px" preserveAspectRatio="xMinYMin meet" x="384.371" y="-719.786"/>
<ellipse fill="none" stroke="cadetblue" stroke-width="10" cx="417.371" cy="-686.786" rx="33" ry="33"/>
<text text-anchor="start" x="465.371" y="-682.786" font-family="Times Roman,serif" font-size="15.00">Chevron Corp</text>
</g>
<g id="39492" class="node">
<ellipse fill="#ffffff" stroke="cadetblue" stroke-width="10" cx="1277.84" cy="-34.5" rx="33" ry="33.5"/>
<image xlink:href="com_images/cunknown_oil_co.png" width="66px" height="66px" preserveAspectRatio="xMinYMin meet" x="1244.84" y="-67.5"/>
<ellipse fill="none" stroke="cadetblue" stroke-width="10" cx="1277.84" cy="-34.5" rx="33" ry="33.5"/>
<text text-anchor="start" x="1325.84" y="-30.5" font-family="Times Roman,serif" font-size="15.00">PETERKIN DISTRIBUTING</text>
</g>
<g id="39383" class="node">
<ellipse fill="#ffffff" stroke="cadetblue" stroke-width="10" cx="538.253" cy="-1021.22" rx="33" ry="33.5"/>
<image xlink:href="com_images/cunknown_oil_co.png" width="66px" height="66px" preserveAspectRatio="xMinYMin meet" x="505.253" y="-1054.22"/>
<ellipse fill="none" stroke="cadetblue" stroke-width="10" cx="538.253" cy="-1021.22" rx="33" ry="33.5"/>
<text text-anchor="start" x="586.253" y="-1017.22" font-family="Times Roman,serif" font-size="15.00">UIC OILFIELD SERVICES</text>
</g>
<g id="4172" class="node">
<polygon fill="#ffffff" stroke="#cc3333" stroke-width="10" points="797.311,-1508.41 739.311,-1508.41 739.311,-1449.41 797.311,-1449.41 797.311,-1508.41"/>
<polygon fill="none" stroke="#cc3333" stroke-width="10" points="797.311,-1508.41 739.311,-1508.41 739.311,-1449.41 797.311,-1449.41 797.311,-1508.41"/>
<text text-anchor="middle" x="768.311" y="-1474.91" font-family="Times Roman,serif" font-size="15.00">Bert Stedman</text>
</g>
<g id="2878" class="node">
<polygon fill="#ffffff" stroke="#cc3333" stroke-width="10" points="1412.38,-742.89 1354.38,-742.89 1354.38,-683.89 1412.38,-683.89 1412.38,-742.89"/>
<polygon fill="none" stroke="#cc3333" stroke-width="10" points="1412.38,-742.89 1354.38,-742.89 1354.38,-683.89 1412.38,-683.89 1412.38,-742.89"/>
<text text-anchor="middle" x="1383.38" y="-709.39" font-family="Times Roman,serif" font-size="15.00">Fred Dyson</text>
</g>
<g id="39350" class="node">
<ellipse fill="#ffffff" stroke="cadetblue" stroke-width="10" cx="865.199" cy="-470.382" rx="36" ry="36.5"/>
<image xlink:href="com_images/c39350.png" width="72px" height="72px" preserveAspectRatio="xMinYMin meet" x="829.199" y="-506.382"/>
<ellipse fill="none" stroke="cadetblue" stroke-width="10" cx="865.199" cy="-470.382" rx="36" ry="36.5"/>
<text text-anchor="start" x="916.199" y="-466.382" font-family="Times Roman,serif" font-size="15.00">CONAM CONSTRUCTION</text>
</g>
<g id="671" class="node">
<ellipse fill="#ffffff" stroke="cadetblue" stroke-width="10" cx="348.818" cy="-886.274" rx="37" ry="37"/>
<image xlink:href="com_images/c671.png" width="74px" height="74px" preserveAspectRatio="xMinYMin meet" x="311.818" y="-923.274"/>
<ellipse fill="none" stroke="cadetblue" stroke-width="10" cx="348.818" cy="-886.274" rx="37" ry="37"/>
<text text-anchor="start" x="400.818" y="-882.274" font-family="Times Roman,serif" font-size="15.00">BP</text>
</g>
<g id="39359" class="node">
<ellipse fill="#ffffff" stroke="cadetblue" stroke-width="10" cx="893.653" cy="-1033.16" rx="39" ry="39"/>
<image xlink:href="com_images/cunknown_oil_co.png" width="78px" height="78px" preserveAspectRatio="xMinYMin meet" x="854.653" y="-1072.16"/>
<ellipse fill="none" stroke="cadetblue" stroke-width="10" cx="893.653" cy="-1033.16" rx="39" ry="39"/>
<text text-anchor="start" x="947.653" y="-1029.16" font-family="Times Roman,serif" font-size="15.00">ICE SERVICES</text>
</g>
<g id="39514" class="node">
<ellipse fill="#ffffff" stroke="cadetblue" stroke-width="10" cx="631.658" cy="-462.255" rx="47" ry="47.5"/>
<image xlink:href="com_images/c39514.png" width="94px" height="94px" preserveAspectRatio="xMinYMin meet" x="584.658" y="-509.255"/>
<ellipse fill="none" stroke="cadetblue" stroke-width="10" cx="631.658" cy="-462.255" rx="47" ry="47.5"/>
<text text-anchor="start" x="693.658" y="-458.255" font-family="Times Roman,serif" font-size="15.00">UDELHOVEN OIL</text>
</g>
<g id="1137" class="node">
<ellipse fill="#ffffff" stroke="cadetblue" stroke-width="10" cx="721.995" cy="-1156.57" rx="52" ry="52.5"/>
<image xlink:href="com_images/c92.png" width="104px" height="104px" preserveAspectRatio="xMinYMin meet" x="669.995" y="-1208.57"/>
<ellipse fill="none" stroke="cadetblue" stroke-width="10" cx="721.995" cy="-1156.57" rx="52" ry="52.5"/>
<text text-anchor="start" x="788.995" y="-1152.57" font-family="Times Roman,serif" font-size="15.00">ConocoPhillips</text>
</g>
<g id="5460" class="node">
<ellipse fill="#ffffff" stroke="cadetblue" stroke-width="10" cx="1053.35" cy="-625.973" rx="55" ry="55"/>
<image xlink:href="com_images/c185.png" width="110px" height="110px" preserveAspectRatio="xMinYMin meet" x="998.346" y="-680.973"/>
<ellipse fill="none" stroke="cadetblue" stroke-width="10" cx="1053.35" cy="-625.973" rx="55" ry="55"/>
<text text-anchor="start" x="1123.35" y="-621.973" font-family="Times Roman,serif" font-size="15.00">Tesoro Petroleum</text>
</g>
<g id="4140" class="node">
<polygon fill="#ffffff" stroke="#cc3333" stroke-width="10" points="1177.6,-352.3 1081.6,-352.3 1081.6,-255.3 1177.6,-255.3 1177.6,-352.3"/>
<image xlink:href="can_images/4140.jpg" width="72.4267px" height="97px" preserveAspectRatio="xMinYMin meet" x="1093.38" y="-352.3"/>
<polygon fill="none" stroke="#cc3333" stroke-width="10" points="1177.6,-352.3 1081.6,-352.3 1081.6,-255.3 1177.6,-255.3 1177.6,-352.3"/>
<text text-anchor="middle" x="1129.6" y="-299.8" font-family="Times Roman,serif" font-size="15.00">Thomas Wagoner</text>
</g>
<g id="4144" class="node">
<polygon fill="#ffffff" stroke="#cc3333" stroke-width="10" points="779.051,-848.169 635.051,-848.169 635.051,-704.169 779.051,-704.169 779.051,-848.169"/>
<image xlink:href="can_images/4144.jpg" width="107.52px" height="144px" preserveAspectRatio="xMinYMin meet" x="653.291" y="-848.169"/>
<polygon fill="none" stroke="#cc3333" stroke-width="10" points="779.051,-848.169 635.051,-848.169 635.051,-704.169 779.051,-704.169 779.051,-848.169"/>
<text text-anchor="middle" x="707.051" y="-772.169" font-family="Times Roman,serif" font-size="15.00">Kevin Meyer</text>
</g>
</g>
</svg>
