<svg width="96000px" height="79507px"
  xmlns="http://www.w3.org/2000/svg" xmlns:xlink="http://www.w3.org/1999/xlink">
<g id="graph0" class="graph" transform="scale(43.1828 43.1828) rotate(0) translate(4 1837.18)">

<polygon id='svgscreen' style="opacity:0;" fill="#ffffff" stroke="#ffffff" points="-4,5 -4,-1837.18 2220.11,-1837.18 2220.11,5 -4,5"/>
<g id="8432_39502" class="edge">
<path fill="none" stroke="#999999" stroke-width="5" d="M1622.88,-837.876C1591.23,-806.225 1529.24,-744.236 1486.14,-701.141"/>
<polygon fill="#999999" stroke="#999999" points="1495.23,-691.672 1464.74,-679.739 1476.67,-710.233 1495.23,-691.672"/>
</g>
<g id="4162_29758" class="edge">
<path fill="none" stroke="#999999" stroke-width="5" d="M1941.93,-1534.66C1986.69,-1553.87 2077.63,-1592.91 2135.71,-1617.84"/>
<polygon fill="#999999" stroke="#999999" points="2130.64,-1629.94 2163.38,-1629.72 2140.99,-1605.82 2130.64,-1629.94"/>
</g>
<g id="3179_29758" class="edge">
<path fill="none" stroke="#999999" stroke-width="5.22581" d="M1888.04,-1512.6C1841.72,-1494.53 1746.57,-1457.43 1685.4,-1433.58"/>
<polygon fill="#999999" stroke="#999999" points="1690.26,-1420.75 1657.33,-1422.64 1680.29,-1446.31 1690.26,-1420.75"/>
</g>
<g id="4148_39351" class="edge">
<path fill="none" stroke="#999999" stroke-width="6.58065" d="M1431.12,-884.135C1374.72,-900.427 1249.02,-936.739 1173.86,-958.453"/>
<polygon fill="#999999" stroke="#999999" points="1168.89,-941.907 1144.86,-966.828 1178.48,-975.098 1168.89,-941.907"/>
</g>
<g id="8801_39353" class="edge">
<path fill="none" stroke="#999999" stroke-width="6.58065" d="M693.134,-509.444C673.718,-554.969 634.528,-646.859 606.341,-712.949"/>
<polygon fill="#999999" stroke="#999999" points="590.343,-706.428 594.463,-740.8 622.121,-719.982 590.343,-706.428"/>
</g>
<g id="9873_39383" class="edge">
<path fill="none" stroke="#999999" stroke-width="5.67742" d="M178.444,-954.032C212.342,-1001.24 287.596,-1106.03 337.505,-1175.53"/>
<polygon fill="#999999" stroke="#999999" points="325.648,-1184.57 355.252,-1200.24 349.859,-1167.18 325.648,-1184.57"/>
</g>
<g id="8801_39383" class="edge">
<path fill="none" stroke="#999999" stroke-width="5.67742" d="M189.499,-919.706C252.412,-898.363 404.207,-846.869 497.075,-815.364"/>
<polygon fill="#999999" stroke="#999999" points="501.911,-829.461 525.533,-805.711 492.335,-801.235 501.911,-829.461"/>
</g>
<g id="8801_30533" class="edge">
<path fill="none" stroke="#999999" stroke-width="5.67742" d="M294.931,-757.761C341.297,-763.014 430.481,-773.118 495.539,-780.489"/>
<polygon fill="#999999" stroke="#999999" points="494.198,-795.336 525.685,-783.905 497.553,-765.719 494.198,-795.336"/>
</g>
<g id="4152_30533" class="edge">
<path fill="none" stroke="#999999" stroke-width="7.93548" d="M277.943,-782.514C304.685,-837.113 364.495,-959.229 406.08,-1044.13"/>
<polygon fill="#999999" stroke="#999999" points="387.372,-1053.29 419.276,-1071.07 424.787,-1034.97 387.372,-1053.29"/>
</g>
<g id="4170_30934" class="edge">
<path fill="none" stroke="#999999" stroke-width="9.29032" d="M1052.89,-1769.28C1047.63,-1712.54 1036.46,-1591.9 1029.56,-1517.34"/>
<polygon fill="#999999" stroke="#999999" points="1053.84,-1515.01 1026.79,-1487.39 1005.27,-1519.51 1053.84,-1515.01"/>
</g>
<g id="4169_1677" class="edge">
<path fill="none" stroke="#999999" stroke-width="7.41613" d="M966.11,-778.955C975.155,-827.692 992.77,-922.601 1005.21,-989.627"/>
<polygon fill="#999999" stroke="#999999" points="986.143,-993.579 1010.76,-1019.52 1024.42,-986.474 986.143,-993.579"/>
</g>
<g id="8801_1677" class="edge">
<path fill="none" stroke="#999999" stroke-width="7.03226" d="M928.291,-750.844C868.233,-757.367 736.941,-771.627 652.082,-780.844"/>
<polygon fill="#999999" stroke="#999999" points="649.909,-762.512 622.077,-784.103 653.895,-799.215 649.909,-762.512"/>
</g>
<g id="4153_39350" class="edge">
<path fill="none" stroke="#999999" stroke-width="9.29032" d="M138.211,-1135.03C194.863,-1100.23 318.792,-1024.1 401.018,-973.597"/>
<polygon fill="#999999" stroke="#999999" points="413.83,-994.347 426.629,-957.865 388.302,-952.787 413.83,-994.347"/>
</g>
<g id="4152_39350" class="edge">
<path fill="none" stroke="#999999" stroke-width="11.5484" d="M143.032,-1151.59C192.92,-1148.76 286.252,-1143.48 356.994,-1139.47"/>
<polygon fill="#999999" stroke="#999999" points="358.948,-1169.72 387.186,-1137.76 355.52,-1109.19 358.948,-1169.72"/>
</g>
<g id="8692_39405" class="edge">
<path fill="none" stroke="#999999" stroke-width="5.67742" d="M705.472,-1062.14C734.602,-1102.21 787.264,-1174.64 825.592,-1227.36"/>
<polygon fill="#999999" stroke="#999999" points="813.654,-1236.28 843.349,-1251.78 837.762,-1218.75 813.654,-1236.28"/>
</g>
<g id="9873_39405" class="edge">
<path fill="none" stroke="#999999" stroke-width="6.12903" d="M654.218,-1053.39C607.532,-1086.33 515.752,-1151.08 452.619,-1195.63"/>
<polygon fill="#999999" stroke="#999999" points="443.178,-1182.6 427.939,-1213.04 461.728,-1208.89 443.178,-1182.6"/>
</g>
<g id="8804_39405" class="edge">
<path fill="none" stroke="#999999" stroke-width="6.58065" d="M670.148,-998.448C661.213,-976.335 649.22,-946.652 638.22,-919.428"/>
<polygon fill="#999999" stroke="#999999" points="654.12,-912.669 626.865,-891.325 622.088,-925.612 654.12,-912.669"/>
</g>
<g id="4169_39405" class="edge">
<path fill="none" stroke="#999999" stroke-width="6.58065" d="M719.767,-1035.9C772.965,-1041.01 873.991,-1050.71 943.875,-1057.42"/>
<polygon fill="#999999" stroke="#999999" points="942.45,-1074.64 973.964,-1060.31 945.753,-1040.25 942.45,-1074.64"/>
</g>
<g id="8801_39405" class="edge">
<path fill="none" stroke="#999999" stroke-width="5.22581" d="M668.808,-999.166C653.306,-964.949 628.634,-910.487 608.311,-865.626"/>
<polygon fill="#999999" stroke="#999999" points="620.753,-859.848 595.878,-838.182 595.763,-871.17 620.753,-859.848"/>
</g>
<g id="4147_39405" class="edge">
<path fill="none" stroke="#999999" stroke-width="5.22581" d="M689.43,-996.229C694.544,-962.782 702.313,-911.969 708.851,-869.207"/>
<polygon fill="#999999" stroke="#999999" points="722.417,-871.246 713.391,-839.517 695.296,-867.099 722.417,-871.246"/>
</g>
<g id="4153_39405" class="edge">
<path fill="none" stroke="#999999" stroke-width="6.58065" d="M651.709,-1015.37C627.487,-1002.5 593.178,-984.28 561.649,-967.534"/>
<polygon fill="#999999" stroke="#999999" points="569.578,-952.186 534.98,-953.37 553.372,-982.698 569.578,-952.186"/>
</g>
<g id="4152_39405" class="edge">
<path fill="none" stroke="#999999" stroke-width="9.29032" d="M650.407,-1047.04C621.906,-1059.44 579.598,-1077.86 541.206,-1094.57"/>
<polygon fill="#999999" stroke="#999999" points="531.326,-1072.28 513.553,-1106.61 550.794,-1117 531.326,-1072.28"/>
</g>
<g id="9873_951" class="edge">
<path fill="none" stroke="#999999" stroke-width="8.83871" d="M260.603,-1050.62C281.458,-1082.63 314.648,-1133.57 341.616,-1174.96"/>
<polygon fill="#999999" stroke="#999999" points="322.227,-1187.71 358.043,-1200.18 361.107,-1162.38 322.227,-1187.71"/>
</g>
<g id="8801_951" class="edge">
<path fill="none" stroke="#999999" stroke-width="5.67742" d="M270.853,-998.542C322.603,-962.802 429.046,-889.291 500.933,-839.645"/>
<polygon fill="#999999" stroke="#999999" points="509.472,-851.859 525.689,-822.548 492.534,-827.333 509.472,-851.859"/>
</g>
<g id="4153_951" class="edge">
<path fill="none" stroke="#999999" stroke-width="9.74194" d="M274.83,-1005.97C306.927,-993.291 356.048,-973.883 398.269,-957.201"/>
<polygon fill="#999999" stroke="#999999" points="407.934,-980.878 426.438,-946.07 389.14,-933.311 407.934,-980.878"/>
</g>
<g id="4152_951" class="edge">
<path fill="none" stroke="#999999" stroke-width="8.3871" d="M273.167,-1037.49C296.61,-1050.3 329.367,-1068.19 360.338,-1085.11"/>
<polygon fill="#999999" stroke="#999999" points="349.932,-1104.51 386.815,-1099.57 371.041,-1065.87 349.932,-1104.51"/>
</g>
<g id="3178_2248" class="edge">
<path fill="none" stroke="#999999" stroke-width="7.03226" d="M69.7435,-61.7485C113.096,-93.8268 192.79,-152.795 245.627,-191.892"/>
<polygon fill="#999999" stroke="#999999" points="234.707,-206.776 269.803,-209.781 256.668,-177.098 234.707,-206.776"/>
</g>
<g id="4158_2248" class="edge">
<path fill="none" stroke="#999999" stroke-width="18.3226" d="M55.5639,-73.2342C78.2322,-120.085 119.311,-204.986 147.465,-263.175"/>
<polygon fill="#999999" stroke="#999999" points="104.299,-284.39 160.66,-290.447 190.89,-242.494 104.299,-284.39"/>
</g>
<g id="3179_2841" class="edge">
<path fill="none" stroke="#999999" stroke-width="9.29032" d="M1356.98,-1314.29C1410.43,-1333.41 1509.76,-1368.94 1572.47,-1391.37"/>
<polygon fill="#999999" stroke="#999999" points="1564.27,-1414.34 1600.73,-1401.48 1580.69,-1368.41 1564.27,-1414.34"/>
</g>
<g id="4170_2841" class="edge">
<path fill="none" stroke="#999999" stroke-width="13.8065" d="M1285.14,-1319.03C1235.7,-1344.51 1144.53,-1391.5 1083.98,-1422.7"/>
<polygon fill="#999999" stroke="#999999" points="1067.11,-1390.63 1057.04,-1436.58 1100.31,-1455.06 1067.11,-1390.63"/>
</g>
<g id="4169_2841" class="edge">
<path fill="none" stroke="#999999" stroke-width="9.29032" d="M1289.22,-1276.87C1242.25,-1239.97 1151.5,-1168.66 1088.22,-1118.93"/>
<polygon fill="#999999" stroke="#999999" points="1102.88,-1099.44 1064.22,-1100.08 1072.75,-1137.79 1102.88,-1099.44"/>
</g>
<g id="9873_31946" class="edge">
<path fill="none" stroke="#999999" stroke-width="17.4194" d="M319.767,-941.709C332.247,-998.614 354.693,-1100.96 369.912,-1170.35"/>
<polygon fill="#999999" stroke="#999999" points="325.342,-1180.58 376.433,-1200.08 414.67,-1160.98 325.342,-1180.58"/>
</g>
<g id="8804_31946" class="edge">
<path fill="none" stroke="#999999" stroke-width="7.93548" d="M352.979,-892.152C400.255,-883.818 477.561,-870.191 534.868,-860.089"/>
<polygon fill="#999999" stroke="#999999" points="538.799,-880.548 564.727,-854.826 531.567,-839.52 538.799,-880.548"/>
</g>
<g id="8801_31946" class="edge">
<path fill="none" stroke="#999999" stroke-width="6.58065" d="M350.23,-883.003C389.213,-866.671 449.686,-841.334 497.907,-821.13"/>
<polygon fill="#999999" stroke="#999999" points="504.696,-837.015 525.691,-809.49 491.346,-805.15 504.696,-837.015"/>
</g>
<g id="4152_31946" class="edge">
<path fill="none" stroke="#999999" stroke-width="12.9032" d="M332.667,-936.8C350.018,-965.942 374.895,-1007.73 397.298,-1045.35"/>
<polygon fill="#999999" stroke="#999999" points="368.207,-1062.7 412.658,-1071.15 426.414,-1028.05 368.207,-1062.7"/>
</g>
<g id="4148_39359" class="edge">
<path fill="none" stroke="#999999" stroke-width="9.29032" d="M985.762,-707.381C1011.06,-760.43 1056.36,-855.402 1085.74,-916.984"/>
<polygon fill="#999999" stroke="#999999" points="1063.79,-927.624 1098.72,-944.203 1107.82,-906.626 1063.79,-927.624"/>
</g>
<g id="4143_39359" class="edge">
<path fill="none" stroke="#999999" stroke-width="13.8065" d="M951.743,-627.223C931.625,-573.414 896.092,-478.372 872.828,-416.147"/>
<polygon fill="#999999" stroke="#999999" points="906.674,-403.185 862.221,-387.776 838.78,-428.569 906.674,-403.185"/>
</g>
<g id="4169_39359" class="edge">
<path fill="none" stroke="#999999" stroke-width="9.29032" d="M972.7,-711.29C981.477,-778.085 998.458,-907.306 1009.27,-989.601"/>
<polygon fill="#999999" stroke="#999999" points="985.097,-992.815 1013.18,-1019.38 1033.46,-986.46 985.097,-992.815"/>
</g>
<g id="8801_39359" class="edge">
<path fill="none" stroke="#999999" stroke-width="13.8065" d="M925.681,-680.844C860.559,-700.923 733.046,-740.238 650.712,-765.624"/>
<polygon fill="#999999" stroke="#999999" points="639.84,-731.051 621.85,-774.523 661.196,-800.317 639.84,-731.051"/>
</g>
<g id="8806_5460" class="edge">
<path fill="none" stroke="#999999" stroke-width="8.3871" d="M476.642,-458.803C479.311,-399.709 483.4,-309.195 486.049,-250.536"/>
<polygon fill="#999999" stroke="#999999" points="508.045,-251.488 487.405,-220.525 464.057,-249.501 508.045,-251.488"/>
</g>
<g id="9874_5460" class="edge">
<path fill="none" stroke="#999999" stroke-width="8.3871" d="M500.264,-465.021C531.199,-403.134 582.323,-300.857 613.693,-238.101"/>
<polygon fill="#999999" stroke="#999999" points="633.421,-247.875 627.141,-211.197 594.035,-228.188 633.421,-247.875"/>
</g>
<g id="2251_5460" class="edge">
<path fill="none" stroke="#999999" stroke-width="9.29032" d="M415.989,-512.273C344.12,-505.684 222.368,-494.521 150.378,-487.92"/>
<polygon fill="#999999" stroke="#999999" points="152.416,-463.618 120.314,-485.164 147.962,-512.188 152.416,-463.618"/>
</g>
<g id="3178_5460" class="edge">
<path fill="none" stroke="#999999" stroke-width="8.3871" d="M443.355,-467.626C412.147,-416.72 363.883,-337.993 331.666,-285.441"/>
<polygon fill="#999999" stroke="#999999" points="350.285,-273.688 315.835,-259.619 312.745,-296.702 350.285,-273.688"/>
</g>
<g id="4143_5460" class="edge">
<path fill="none" stroke="#999999" stroke-width="8.3871" d="M527.479,-494.531C596.871,-464.617 717.593,-412.575 790.061,-381.335"/>
<polygon fill="#999999" stroke="#999999" points="799.041,-401.438 817.875,-369.345 781.61,-361.003 799.041,-401.438"/>
</g>
<g id="4158_5460" class="edge">
<path fill="none" stroke="#999999" stroke-width="8.3871" d="M425.021,-485.816C373.517,-452.394 292.426,-399.771 237.195,-363.931"/>
<polygon fill="#999999" stroke="#999999" points="248.833,-345.238 211.683,-347.375 224.864,-382.174 248.833,-345.238"/>
</g>
<g id="8804_5460" class="edge">
<path fill="none" stroke="#999999" stroke-width="8.3871" d="M496.276,-571.991C518.971,-627.383 554.289,-713.579 579.33,-774.696"/>
<polygon fill="#999999" stroke="#999999" points="559.118,-783.434 590.864,-802.847 599.863,-766.74 559.118,-783.434"/>
</g>
<g id="8801_5460" class="edge">
<path fill="none" stroke="#999999" stroke-width="8.3871" d="M494.176,-572.586C508.959,-612.851 529.211,-668.016 545.586,-712.617"/>
<polygon fill="#999999" stroke="#999999" points="524.931,-720.24 555.938,-740.815 566.266,-705.065 524.931,-720.24"/>
</g>
<g id="4147_5460" class="edge">
<path fill="none" stroke="#999999" stroke-width="22.8387" d="M513.109,-560.827C551.495,-603.249 610.717,-668.698 656.129,-718.886"/>
<polygon fill="#999999" stroke="#999999" points="611.946,-759.41 676.529,-741.43 700.854,-678.96 611.946,-759.41"/>
</g>
<g id="4153_5460" class="edge">
<path fill="none" stroke="#999999" stroke-width="22.8387" d="M474.969,-576.338C476.127,-645.487 478.057,-760.871 479.377,-839.73"/>
<polygon fill="#999999" stroke="#999999" points="419.434,-840.782 479.879,-869.774 539.321,-838.775 419.434,-840.782"/>
</g>
<g id="4154_39514" class="edge">
<path fill="none" stroke="#999999" stroke-width="9.29032" d="M645.707,-1199.18C629.636,-1253.5 606.666,-1331.14 590.788,-1384.81"/>
<polygon fill="#999999" stroke="#999999" points="567.386,-1377.95 582.26,-1413.64 614.156,-1391.79 567.386,-1377.95"/>
</g>
<g id="8468_39514" class="edge">
<path fill="none" stroke="#999999" stroke-width="9.29032" d="M727.639,-1155.19C781.602,-1171.96 859.009,-1196.02 913.867,-1213.07"/>
<polygon fill="#999999" stroke="#999999" points="906.956,-1236.46 942.842,-1222.07 921.432,-1189.88 906.956,-1236.46"/>
</g>
<g id="8692_39514" class="edge">
<path fill="none" stroke="#999999" stroke-width="11.5484" d="M717.423,-1175.25C745.283,-1196.15 779.644,-1221.93 808.891,-1243.86"/>
<polygon fill="#999999" stroke="#999999" points="790.795,-1268.19 832.985,-1261.94 827.177,-1219.69 790.795,-1268.19"/>
</g>
<g id="9873_39514" class="edge">
<path fill="none" stroke="#999999" stroke-width="20.5806" d="M602.666,-1159.36C559.325,-1176.03 501.322,-1198.34 456.206,-1215.69"/>
<polygon fill="#999999" stroke="#999999" points="436.646,-1165.33 428.038,-1226.53 475.432,-1266.18 436.646,-1165.33"/>
</g>
<g id="8804_39514" class="edge">
<path fill="none" stroke="#999999" stroke-width="9.29032" d="M651.987,-1070.46C643.432,-1026.03 632.083,-967.086 623.19,-920.899"/>
<polygon fill="#999999" stroke="#999999" points="647.11,-916.143 617.49,-891.295 599.215,-925.365 647.11,-916.143"/>
</g>
<g id="4169_39514" class="edge">
<path fill="none" stroke="#999999" stroke-width="13.8065" d="M729.565,-1122.56C790.202,-1110.44 880.597,-1092.36 944.224,-1079.63"/>
<polygon fill="#999999" stroke="#999999" points="951.6,-1115.12 973.909,-1073.69 937.384,-1044.04 951.6,-1115.12"/>
</g>
<g id="4147_39514" class="edge">
<path fill="none" stroke="#999999" stroke-width="13.8065" d="M675.193,-1070.25C684.508,-1013.22 698.051,-930.302 707.977,-869.534"/>
<polygon fill="#999999" stroke="#999999" points="743.796,-875.063 712.864,-839.614 672.26,-863.379 743.796,-875.063"/>
</g>
<g id="4153_39514" class="edge">
<path fill="none" stroke="#999999" stroke-width="20.129" d="M620.984,-1085.57C599.372,-1060.76 572.772,-1030.21 548.572,-1002.42"/>
<polygon fill="#999999" stroke="#999999" points="588.09,-967.342 528.541,-979.419 508.395,-1036.74 588.09,-967.342"/>
</g>
<g id="4152_39514" class="edge">
<path fill="none" stroke="#999999" stroke-width="24.5548" d="M598.468,-1135.15C581.133,-1135.04 562.106,-1134.91 543.632,-1134.79"/>
<polygon fill="#999999" stroke="#999999" points="543.875,-1070.34 513.461,-1134.6 543.045,-1199.25 543.875,-1070.34"/>
</g>
<g id="4174_671" class="edge">
<path fill="none" stroke="#999999" stroke-width="7.03226" d="M896.824,-888.612C964.879,-835.495 1072.22,-751.718 1134.79,-702.879"/>
<polygon fill="#999999" stroke="#999999" points="1146.33,-717.289 1158.62,-684.279 1123.61,-688.186 1146.33,-717.289"/>
</g>
<g id="8468_671" class="edge">
<path fill="none" stroke="#999999" stroke-width="22.8387" d="M869.131,-1008.45C893.232,-1057.34 925.006,-1121.8 948.386,-1169.22"/>
<polygon fill="#999999" stroke="#999999" points="894.676,-1195.86 961.714,-1196.26 1002.22,-1142.84 894.676,-1195.86"/>
</g>
<g id="8692_671" class="edge">
<path fill="none" stroke="#999999" stroke-width="13.8065" d="M842.613,-1016.46C849.199,-1077.99 858.257,-1162.61 864.575,-1221.62"/>
<polygon fill="#999999" stroke="#999999" points="828.582,-1225.89 867.812,-1251.86 900.654,-1218.17 828.582,-1225.89"/>
</g>
<g id="8804_671" class="edge">
<path fill="none" stroke="#999999" stroke-width="22.8387" d="M760.737,-908.014C735.182,-897.746 706.553,-886.241 681.104,-876.015"/>
<polygon fill="#999999" stroke="#999999" points="703.255,-820.306 653.065,-864.748 658.548,-931.562 703.255,-820.306"/>
</g>
<g id="4169_671" class="edge">
<path fill="none" stroke="#999999" stroke-width="13.8065" d="M899.376,-982.34C915.457,-993.393 932.746,-1005.28 949.047,-1016.48"/>
<polygon fill="#999999" stroke="#999999" points="928.683,-1046.46 973.935,-1033.58 969.739,-986.724 928.683,-1046.46"/>
</g>
<g id="8801_671" class="edge">
<path fill="none" stroke="#999999" stroke-width="22.8387" d="M765.403,-898.396C729.292,-877.849 684.999,-852.647 648.094,-831.649"/>
<polygon fill="#999999" stroke="#999999" points="677.591,-779.455 621.868,-816.726 618.294,-883.669 677.591,-779.455"/>
</g>
<g id="4147_671" class="edge">
<path fill="none" stroke="#999999" stroke-width="22.8387" d="M785.797,-874.726C782.979,-871.066 780.132,-867.371 777.286,-863.676"/>
<polygon fill="#999999" stroke="#999999" points="824.625,-826.888 758.822,-839.704 729.632,-900.054 824.625,-826.888"/>
</g>
<g id="4153_671" class="edge">
<path fill="none" stroke="#999999" stroke-width="22.8387" d="M754.86,-934.618C698.419,-932.554 622.698,-929.784 565.151,-927.678"/>
<polygon fill="#999999" stroke="#999999" points="567.051,-867.756 534.879,-926.571 562.667,-987.579 567.051,-867.756"/>
</g>
<g id="4152_671" class="edge">
<path fill="none" stroke="#999999" stroke-width="30.9677" d="M763.736,-973.592C700.986,-1005.73 608.805,-1052.95 540.621,-1087.87"/>
<polygon fill="#999999" stroke="#999999" points="503.127,-1015.75 513.485,-1101.77 577.245,-1160.45 503.127,-1015.75"/>
</g>
<g id="4142_1137" class="edge">
<path fill="none" stroke="#999999" stroke-width="9.29032" d="M701.977,-1265.1C684.666,-1336.39 659.608,-1439.58 644.138,-1503.3"/>
<polygon fill="#999999" stroke="#999999" points="620.394,-1497.73 637.013,-1532.64 667.791,-1509.24 620.394,-1497.73"/>
</g>
<g id="2237_1137" class="edge">
<path fill="none" stroke="#999999" stroke-width="9.29032" d="M666.257,-1246.12C613.711,-1303.56 535.343,-1389.22 485.958,-1443.2"/>
<polygon fill="#999999" stroke="#999999" points="467.76,-1426.96 465.503,-1465.56 503.746,-1459.88 467.76,-1426.96"/>
</g>
<g id="4157_1137" class="edge">
<path fill="none" stroke="#999999" stroke-width="13.8065" d="M734.669,-1266.25C745.046,-1327.8 759.152,-1411.47 768.593,-1467.46"/>
<polygon fill="#999999" stroke="#999999" points="732.885,-1473.67 773.611,-1497.22 804.361,-1461.62 732.885,-1473.67"/>
</g>
<g id="4148_1137" class="edge">
<path fill="none" stroke="#999999" stroke-width="9.29032" d="M792.717,-1147.78C868.198,-1107.35 985.693,-1044.42 1055.67,-1006.94"/>
<polygon fill="#999999" stroke="#999999" points="1067.55,-1028.24 1082.48,-992.573 1044.52,-985.241 1067.55,-1028.24"/>
</g>
<g id="4154_1137" class="edge">
<path fill="none" stroke="#999999" stroke-width="13.8065" d="M680.965,-1256.49C657.518,-1297.54 628.285,-1348.73 606.098,-1387.58"/>
<polygon fill="#999999" stroke="#999999" points="574.614,-1369.63 591.207,-1413.65 637.556,-1405.58 574.614,-1369.63"/>
</g>
<g id="4170_1137" class="edge">
<path fill="none" stroke="#999999" stroke-width="6.58065" d="M782.013,-1239.95C836.353,-1288.03 915.281,-1357.87 967.986,-1404.51"/>
<polygon fill="#999999" stroke="#999999" points="956.599,-1417.5 990.513,-1424.44 979.493,-1391.62 956.599,-1417.5"/>
</g>
<g id="8468_1137" class="edge">
<path fill="none" stroke="#999999" stroke-width="5.67742" d="M800.979,-1200.77C836.889,-1207.36 878.806,-1215.06 913.065,-1221.35"/>
<polygon fill="#999999" stroke="#999999" points="910.635,-1236.05 942.834,-1226.81 916.019,-1206.74 910.635,-1236.05"/>
</g>
<g id="8692_1137" class="edge">
<path fill="none" stroke="#999999" stroke-width="16.0645" d="M787.77,-1232.52C794.469,-1237.19 801.263,-1241.92 807.936,-1246.57"/>
<polygon fill="#999999" stroke="#999999" points="783.893,-1281.21 832.614,-1263.76 832.107,-1212.01 783.893,-1281.21"/>
</g>
<g id="9873_1137" class="edge">
<path fill="none" stroke="#999999" stroke-width="7.48387" d="M641.256,-1199.61C585.483,-1209.03 511.665,-1221.5 457.728,-1230.62"/>
<polygon fill="#999999" stroke="#999999" points="454.112,-1211.31 427.804,-1235.67 460.658,-1250.05 454.112,-1211.31"/>
</g>
<g id="8804_1137" class="edge">
<path fill="none" stroke="#999999" stroke-width="15.6129" d="M695.7,-1109.17C676.935,-1052.45 651.572,-975.796 633.122,-920.035"/>
<polygon fill="#999999" stroke="#999999" points="672.003,-907.073 623.67,-891.465 594.184,-932.821 672.003,-907.073"/>
</g>
<g id="4169_1137" class="edge">
<path fill="none" stroke="#999999" stroke-width="17.871" d="M796.35,-1155.46C842.204,-1136.77 900.536,-1112.99 946.008,-1094.46"/>
<polygon fill="#999999" stroke="#999999" points="964.036,-1137.77 974.11,-1083 928.622,-1050.88 964.036,-1137.77"/>
</g>
<g id="8801_1137" class="edge">
<path fill="none" stroke="#999999" stroke-width="19.6774" d="M692.912,-1110.08C666.894,-1040.05 628.476,-936.639 602.349,-866.312"/>
<polygon fill="#999999" stroke="#999999" points="650.674,-848.069 591.807,-837.936 553.835,-884.047 650.674,-848.069"/>
</g>
<g id="4147_1137" class="edge">
<path fill="none" stroke="#999999" stroke-width="16.0645" d="M721.103,-1105.09C721.057,-1036.35 720.991,-938.295 720.945,-869.985"/>
<polygon fill="#999999" stroke="#999999" points="763.115,-869.523 720.925,-839.551 678.776,-869.58 763.115,-869.523"/>
</g>
<g id="4153_1137" class="edge">
<path fill="none" stroke="#999999" stroke-width="17.4194" d="M666.315,-1126.44C632.184,-1089.3 587.95,-1041.18 551.237,-1001.23"/>
<polygon fill="#999999" stroke="#999999" points="584.867,-970.25 530.9,-979.105 517.535,-1032.14 584.867,-970.25"/>
</g>
<g id="4152_1137" class="edge">
<path fill="none" stroke="#999999" stroke-width="40" d="M641.324,-1170.81C610.606,-1164.93 575.269,-1158.16 543.4,-1152.05"/>
<polygon fill="#999999" stroke="#999999" points="562.803,-1048.86 513.581,-1146.34 523.288,-1255.11 562.803,-1048.86"/>
</g>
<g id="8432" class="node">
<polygon fill="#ffffff" stroke="#3333cc" stroke-width="10" points="1464.5,-680 1414.5,-680 1414.5,-629 1464.5,-629 1464.5,-680"/>
<image xlink:href="can_images/unknownCandidate.jpg" width="50px" height="50px" preserveAspectRatio="xMinYMin meet" x="1414.5" y="-679.5"/>
<polygon fill="none" stroke="#3333cc" stroke-width="10" points="1464.5,-680 1414.5,-680 1414.5,-629 1464.5,-629 1464.5,-680"/>
<text text-anchor="middle" x="1439.5" y="-650.5" font-family="Times Roman,serif" font-size="15.00">Andrea Doll</text>
</g>
<g id="39502" class="node">
<ellipse fill="#ffffff" stroke="cadetblue" stroke-width="10" cx="1643.15" cy="-858.147" rx="28" ry="28.5"/>
<image xlink:href="com_images/cunknown_oil_co.png" width="56px" height="56px" preserveAspectRatio="xMinYMin meet" x="1615.15" y="-886.147"/>
<ellipse fill="none" stroke="cadetblue" stroke-width="10" cx="1643.15" cy="-858.147" rx="28" ry="28.5"/>
<text text-anchor="start" x="1686.15" y="-854.147" font-family="Times Roman,serif" font-size="15.00">RICH GODFEY</text>
</g>
<g id="4162" class="node">
<polygon fill="#ffffff" stroke="#3333cc" stroke-width="10" points="2213.61,-1666.04 2163.61,-1666.04 2163.61,-1615.04 2213.61,-1615.04 2213.61,-1666.04"/>
<image xlink:href="can_images/4162.jpg" width="39.6667px" height="51px" preserveAspectRatio="xMinYMin meet" x="2168.77" y="-1666.04"/>
<polygon fill="none" stroke="#3333cc" stroke-width="10" points="2213.61,-1666.04 2163.61,-1666.04 2163.61,-1615.04 2213.61,-1615.04 2213.61,-1666.04"/>
<text text-anchor="middle" x="2188.61" y="-1636.54" font-family="Times Roman,serif" font-size="15.00">Scott Kawasaki</text>
</g>
<g id="29758" class="node">
<ellipse fill="#ffffff" stroke="cadetblue" stroke-width="10" cx="1915.22" cy="-1523.19" rx="29" ry="29"/>
<image xlink:href="com_images/cunknown_coal_co.png" width="58px" height="58px" preserveAspectRatio="xMinYMin meet" x="1886.22" y="-1552.19"/>
<ellipse fill="none" stroke="cadetblue" stroke-width="10" cx="1915.22" cy="-1523.19" rx="29" ry="29"/>
<text text-anchor="start" x="1959.22" y="-1519.19" font-family="Times Roman,serif" font-size="15.00">Usibelli Coal</text>
</g>
<g id="39351" class="node">
<ellipse fill="#ffffff" stroke="cadetblue" stroke-width="10" cx="1460.05" cy="-875.779" rx="30" ry="30"/>
<image xlink:href="com_images/cunknown_oil_co.png" width="60px" height="60px" preserveAspectRatio="xMinYMin meet" x="1430.05" y="-905.779"/>
<ellipse fill="none" stroke="cadetblue" stroke-width="10" cx="1460.05" cy="-875.779" rx="30" ry="30"/>
<text text-anchor="start" x="1505.05" y="-871.779" font-family="Times Roman,serif" font-size="15.00">DELTA WESTERN</text>
</g>
<g id="39353" class="node">
<ellipse fill="#ffffff" stroke="cadetblue" stroke-width="10" cx="705.013" cy="-481.589" rx="30" ry="30"/>
<image xlink:href="com_images/cunknown_oil_co.png" width="60px" height="60px" preserveAspectRatio="xMinYMin meet" x="675.013" y="-511.589"/>
<ellipse fill="none" stroke="cadetblue" stroke-width="10" cx="705.013" cy="-481.589" rx="30" ry="30"/>
<text text-anchor="start" x="750.013" y="-477.589" font-family="Times Roman,serif" font-size="15.00">DENALI DRILLING</text>
</g>
<g id="39383" class="node">
<ellipse fill="#ffffff" stroke="cadetblue" stroke-width="10" cx="160.788" cy="-929.446" rx="30" ry="30"/>
<image xlink:href="com_images/cunknown_oil_co.png" width="60px" height="60px" preserveAspectRatio="xMinYMin meet" x="130.788" y="-959.446"/>
<ellipse fill="none" stroke="cadetblue" stroke-width="10" cx="160.788" cy="-929.446" rx="30" ry="30"/>
<text text-anchor="start" x="205.788" y="-925.446" font-family="Times Roman,serif" font-size="15.00">UIC OILFIELD SERVICES</text>
</g>
<g id="4174" class="node">
<polygon fill="#ffffff" stroke="#3333cc" stroke-width="10" points="1210.66,-690.457 1158.66,-690.457 1158.66,-637.457 1210.66,-637.457 1210.66,-690.457"/>
<image xlink:href="can_images/4174.jpg" width="39.5733px" height="53px" preserveAspectRatio="xMinYMin meet" x="1164.87" y="-690.457"/>
<polygon fill="none" stroke="#3333cc" stroke-width="10" points="1210.66,-690.457 1158.66,-690.457 1158.66,-637.457 1210.66,-637.457 1210.66,-690.457"/>
<text text-anchor="middle" x="1184.66" y="-659.957" font-family="Times Roman,serif" font-size="15.00">Pete Petersen</text>
</g>
<g id="8806" class="node">
<polygon fill="#ffffff" stroke="#3333cc" stroke-width="10" points="515.65,-220.463 461.65,-220.463 461.65,-165.463 515.65,-165.463 515.65,-220.463"/>
<image xlink:href="can_images/8806.jpg" width="41.0667px" height="55px" preserveAspectRatio="xMinYMin meet" x="468.116" y="-220.463"/>
<polygon fill="none" stroke="#3333cc" stroke-width="10" points="515.65,-220.463 461.65,-220.463 461.65,-165.463 515.65,-165.463 515.65,-220.463"/>
<text text-anchor="middle" x="488.65" y="-188.963" font-family="Times Roman,serif" font-size="15.00">Bryce Edgmon</text>
</g>
<g id="9874" class="node">
<polygon fill="#ffffff" stroke="#3333cc" stroke-width="10" points="667.987,-210.997 613.987,-210.997 613.987,-155.997 667.987,-155.997 667.987,-210.997"/>
<image xlink:href="can_images/9874.png" width="46.5385px" height="55px" preserveAspectRatio="xMinYMin meet" x="617.718" y="-210.997"/>
<polygon fill="none" stroke="#3333cc" stroke-width="10" points="667.987,-210.997 613.987,-210.997 613.987,-155.997 667.987,-155.997 667.987,-210.997"/>
<text text-anchor="middle" x="640.987" y="-179.497" font-family="Times Roman,serif" font-size="15.00">Bob Herron</text>
</g>
<g id="30533" class="node">
<ellipse fill="#ffffff" stroke="cadetblue" stroke-width="10" cx="264.109" cy="-754.269" rx="31" ry="31.5"/>
<image xlink:href="com_images/c30533.png" width="62px" height="62px" preserveAspectRatio="xMinYMin meet" x="233.109" y="-785.269"/>
<ellipse fill="none" stroke="cadetblue" stroke-width="10" cx="264.109" cy="-754.269" rx="31" ry="31.5"/>
<text text-anchor="start" x="310.109" y="-750.269" font-family="Times Roman,serif" font-size="15.00">Pioneer Natural Resources</text>
</g>
<g id="30934" class="node">
<ellipse fill="#ffffff" stroke="cadetblue" stroke-width="10" cx="1055.8" cy="-1800.68" rx="31" ry="31.5"/>
<image xlink:href="com_images/cunknown_coal_co.png" width="62px" height="62px" preserveAspectRatio="xMinYMin meet" x="1024.8" y="-1831.68"/>
<ellipse fill="none" stroke="cadetblue" stroke-width="10" cx="1055.8" cy="-1800.68" rx="31" ry="31.5"/>
<text text-anchor="start" x="1101.8" y="-1796.68" font-family="Times Roman,serif" font-size="15.00">Doyon Limited</text>
</g>
<g id="2251" class="node">
<polygon fill="#ffffff" stroke="#3333cc" stroke-width="10" points="120.116,-510.578 64.1159,-510.578 64.1159,-454.578 120.116,-454.578 120.116,-510.578"/>
<image xlink:href="can_images/unknownCandidate.jpg" width="56px" height="56px" preserveAspectRatio="xMinYMin meet" x="64.1159" y="-510.578"/>
<polygon fill="none" stroke="#3333cc" stroke-width="10" points="120.116,-510.578 64.1159,-510.578 64.1159,-454.578 120.116,-454.578 120.116,-510.578"/>
<text text-anchor="middle" x="92.1159" y="-478.578" font-family="Times Roman,serif" font-size="15.00">Richard Foster</text>
</g>
<g id="4142" class="node">
<polygon fill="#ffffff" stroke="#cc3333" stroke-width="10" points="658.191,-1588.73 602.191,-1588.73 602.191,-1532.73 658.191,-1532.73 658.191,-1588.73"/>
<image xlink:href="can_images/4142.jpg" width="45.4653px" height="56px" preserveAspectRatio="xMinYMin meet" x="607.458" y="-1588.73"/>
<polygon fill="none" stroke="#cc3333" stroke-width="10" points="658.191,-1588.73 602.191,-1588.73 602.191,-1532.73 658.191,-1532.73 658.191,-1588.73"/>
<text text-anchor="middle" x="630.191" y="-1556.73" font-family="Times Roman,serif" font-size="15.00">Peggy Wilson</text>
</g>
<g id="2237" class="node">
<polygon fill="#ffffff" stroke="#cc3333" stroke-width="10" points="467.879,-1521.57 411.879,-1521.57 411.879,-1465.57 467.879,-1465.57 467.879,-1521.57"/>
<image xlink:href="can_images/2237.jpg" width="41.8133px" height="56px" preserveAspectRatio="xMinYMin meet" x="418.972" y="-1521.57"/>
<polygon fill="none" stroke="#cc3333" stroke-width="10" points="467.879,-1521.57 411.879,-1521.57 411.879,-1465.57 467.879,-1465.57 467.879,-1521.57"/>
<text text-anchor="middle" x="439.879" y="-1489.57" font-family="Times Roman,serif" font-size="15.00">Alan Austerman</text>
</g>
<g id="1677" class="node">
<ellipse fill="#ffffff" stroke="cadetblue" stroke-width="10" cx="960.249" cy="-747.373" rx="32" ry="32"/>
<image xlink:href="com_images/c1677.png" width="64px" height="64px" preserveAspectRatio="xMinYMin meet" x="928.249" y="-779.373"/>
<ellipse fill="none" stroke="cadetblue" stroke-width="10" cx="960.249" cy="-747.373" rx="32" ry="32"/>
<text text-anchor="start" x="1007.249" y="-743.373" font-family="Times Roman,serif" font-size="15.00">Enstar Natural Gas</text>
</g>
<g id="3179" class="node">
<polygon fill="#ffffff" stroke="#cc3333" stroke-width="10" points="1657.07,-1439.62 1601.07,-1439.62 1601.07,-1383.62 1657.07,-1383.62 1657.07,-1439.62"/>
<image xlink:href="can_images/3179.jpg" width="41.8133px" height="56px" preserveAspectRatio="xMinYMin meet" x="1608.16" y="-1439.62"/>
<polygon fill="none" stroke="#cc3333" stroke-width="10" points="1657.07,-1439.62 1601.07,-1439.62 1601.07,-1383.62 1657.07,-1383.62 1657.07,-1439.62"/>
<text text-anchor="middle" x="1629.07" y="-1407.62" font-family="Times Roman,serif" font-size="15.00">John Coghill</text>
</g>
<g id="3178" class="node">
<polygon fill="#ffffff" stroke="#3333cc" stroke-width="10" points="326.133,-259.243 270.133,-259.243 270.133,-202.243 326.133,-202.243 326.133,-259.243"/>
<image xlink:href="can_images/3178.jpg" width="42.56px" height="57px" preserveAspectRatio="xMinYMin meet" x="276.853" y="-259.243"/>
<polygon fill="none" stroke="#3333cc" stroke-width="10" points="326.133,-259.243 270.133,-259.243 270.133,-202.243 326.133,-202.243 326.133,-259.243"/>
<text text-anchor="middle" x="298.133" y="-226.743" font-family="Times Roman,serif" font-size="15.00">Beth Kerttula</text>
</g>
<g id="4157" class="node">
<polygon fill="#ffffff" stroke="#cc3333" stroke-width="10" points="808.786,-1558.42 748.786,-1558.42 748.786,-1497.42 808.786,-1497.42 808.786,-1558.42"/>
<polygon fill="none" stroke="#cc3333" stroke-width="10" points="808.786,-1558.42 748.786,-1558.42 748.786,-1497.42 808.786,-1497.42 808.786,-1558.42"/>
<text text-anchor="middle" x="778.786" y="-1523.92" font-family="Times Roman,serif" font-size="15.00">Cathy Muñoz</text>
</g>
<g id="4148" class="node">
<polygon fill="#ffffff" stroke="#cc3333" stroke-width="10" points="1144.79,-1007.3 1082.79,-1007.3 1082.79,-944.304 1144.79,-944.304 1144.79,-1007.3"/>
<image xlink:href="can_images/4148.jpg" width="47.04px" height="63px" preserveAspectRatio="xMinYMin meet" x="1090.27" y="-1007.3"/>
<polygon fill="none" stroke="#cc3333" stroke-width="10" points="1144.79,-1007.3 1082.79,-1007.3 1082.79,-944.304 1144.79,-944.304 1144.79,-1007.3"/>
<text text-anchor="middle" x="1113.79" y="-971.804" font-family="Times Roman,serif" font-size="15.00">Bill Thomas Jr</text>
</g>
<g id="39350" class="node">
<ellipse fill="#ffffff" stroke="cadetblue" stroke-width="10" cx="108.021" cy="-1153.57" rx="35" ry="35.5"/>
<image xlink:href="com_images/c39350.png" width="70px" height="70px" preserveAspectRatio="xMinYMin meet" x="73.0215" y="-1188.57"/>
<ellipse fill="none" stroke="cadetblue" stroke-width="10" cx="108.021" cy="-1153.57" rx="35" ry="35.5"/>
<text text-anchor="start" x="158.021" y="-1149.57" font-family="Times Roman,serif" font-size="15.00">CONAM CONSTRUCTION</text>
</g>
<g id="4143" class="node">
<polygon fill="#ffffff" stroke="#cc3333" stroke-width="10" points="882.131,-387.439 818.131,-387.439 818.131,-323.439 882.131,-323.439 882.131,-387.439"/>
<image xlink:href="can_images/4143.jpg" width="51.9604px" height="64px" preserveAspectRatio="xMinYMin meet" x="824.151" y="-387.439"/>
<polygon fill="none" stroke="#cc3333" stroke-width="10" points="882.131,-387.439 818.131,-387.439 818.131,-323.439 882.131,-323.439 882.131,-387.439"/>
<text text-anchor="middle" x="850.131" y="-351.439" font-family="Times Roman,serif" font-size="15.00">Bill Stoltze</text>
</g>
<g id="39405" class="node">
<ellipse fill="#ffffff" stroke="cadetblue" stroke-width="10" cx="683.89" cy="-1032.46" rx="36" ry="36.5"/>
<image xlink:href="com_images/cunknown_oil_co.png" width="72px" height="72px" preserveAspectRatio="xMinYMin meet" x="647.89" y="-1068.46"/>
<ellipse fill="none" stroke="cadetblue" stroke-width="10" cx="683.89" cy="-1032.46" rx="36" ry="36.5"/>
<text text-anchor="start" x="734.89" y="-1028.46" font-family="Times Roman,serif" font-size="15.00">ALASKA SUPPORT INDUSTRY ALLIANCE</text>
</g>
<g id="951" class="node">
<ellipse fill="#ffffff" stroke="cadetblue" stroke-width="10" cx="240.384" cy="-1019.58" rx="37" ry="37"/>
<image xlink:href="com_images/c951.png" width="74px" height="74px" preserveAspectRatio="xMinYMin meet" x="203.384" y="-1056.58"/>
<ellipse fill="none" stroke="cadetblue" stroke-width="10" cx="240.384" cy="-1019.58" rx="37" ry="37"/>
<text text-anchor="start" x="292.384" y="-1015.58" font-family="Times Roman,serif" font-size="15.00">Chevron Corp</text>
</g>
<g id="4154" class="node">
<polygon fill="#ffffff" stroke="#cc3333" stroke-width="10" points="604.634,-1478.68 540.634,-1478.68 540.634,-1413.68 604.634,-1413.68 604.634,-1478.68"/>
<image xlink:href="can_images/4154.jpg" width="48.5333px" height="65px" preserveAspectRatio="xMinYMin meet" x="548.367" y="-1478.68"/>
<polygon fill="none" stroke="#cc3333" stroke-width="10" points="604.634,-1478.68 540.634,-1478.68 540.634,-1413.68 604.634,-1413.68 604.634,-1478.68"/>
<text text-anchor="middle" x="572.634" y="-1442.18" font-family="Times Roman,serif" font-size="15.00">Mark Neuman</text>
</g>
<g id="4170" class="node">
<polygon fill="#ffffff" stroke="#cc3333" stroke-width="10" points="1056.67,-1487.28 990.674,-1487.28 990.674,-1420.28 1056.67,-1420.28 1056.67,-1487.28"/>
<image xlink:href="can_images/4170.jpg" width="43.5236px" height="67px" preserveAspectRatio="xMinYMin meet" x="1001.91" y="-1487.28"/>
<polygon fill="none" stroke="#cc3333" stroke-width="10" points="1056.67,-1487.28 990.674,-1487.28 990.674,-1420.28 1056.67,-1420.28 1056.67,-1487.28"/>
<text text-anchor="middle" x="1023.67" y="-1449.78" font-family="Times Roman,serif" font-size="15.00">Michael P (Mike) Kelly</text>
</g>
<g id="2248" class="node">
<ellipse fill="#ffffff" stroke="cadetblue" stroke-width="10" cx="39" cy="-39" rx="38" ry="38"/>
<image xlink:href="com_images/cunknown_oil_co.png" width="76px" height="76px" preserveAspectRatio="xMinYMin meet" x="1" y="-77"/>
<ellipse fill="none" stroke="cadetblue" stroke-width="10" cx="39" cy="-39" rx="38" ry="38"/>
<text text-anchor="start" x="92" y="-35" font-family="Times Roman,serif" font-size="15.00">Harbor Enterprises</text>
</g>
<g id="4158" class="node">
<polygon fill="#ffffff" stroke="#cc3333" stroke-width="10" points="211.459,-359.667 143.459,-359.667 143.459,-290.667 211.459,-290.667 211.459,-359.667"/>
<image xlink:href="can_images/4158.jpg" width="51.52px" height="69px" preserveAspectRatio="xMinYMin meet" x="151.699" y="-359.667"/>
<polygon fill="none" stroke="#cc3333" stroke-width="10" points="211.459,-359.667 143.459,-359.667 143.459,-290.667 211.459,-290.667 211.459,-359.667"/>
<text text-anchor="middle" x="177.459" y="-321.167" font-family="Times Roman,serif" font-size="15.00">Paul Seaton</text>
</g>
<g id="2841" class="node">
<ellipse fill="#ffffff" stroke="cadetblue" stroke-width="10" cx="1320" cy="-1301.06" rx="39" ry="39"/>
<image xlink:href="com_images/c48.png" width="78px" height="78px" preserveAspectRatio="xMinYMin meet" x="1281" y="-1340.06"/>
<ellipse fill="none" stroke="cadetblue" stroke-width="10" cx="1320" cy="-1301.06" rx="39" ry="39"/>
<text text-anchor="start" x="1374" y="-1297.06" font-family="Times Roman,serif" font-size="15.00">Koch Industries</text>
</g>
<g id="8468" class="node">
<polygon fill="#ffffff" stroke="#cc3333" stroke-width="10" points="1017.15,-1270.67 943.155,-1270.67 943.155,-1196.67 1017.15,-1196.67 1017.15,-1270.67"/>
<image xlink:href="can_images/8468.jpg" width="55.2533px" height="74px" preserveAspectRatio="xMinYMin meet" x="952.528" y="-1270.67"/>
<polygon fill="none" stroke="#cc3333" stroke-width="10" points="1017.15,-1270.67 943.155,-1270.67 943.155,-1196.67 1017.15,-1196.67 1017.15,-1270.67"/>
<text text-anchor="middle" x="980.155" y="-1229.67" font-family="Times Roman,serif" font-size="15.00">Kyle Johansen</text>
</g>
<g id="31946" class="node">
<ellipse fill="#ffffff" stroke="cadetblue" stroke-width="10" cx="310.539" cy="-899.633" rx="43" ry="43"/>
<image xlink:href="com_images/c31946.png" width="86px" height="86px" preserveAspectRatio="xMinYMin meet" x="267.539" y="-942.633"/>
<ellipse fill="none" stroke="cadetblue" stroke-width="10" cx="310.539" cy="-899.633" rx="43" ry="43"/>
<text text-anchor="start" x="368.539" y="-895.633" font-family="Times Roman,serif" font-size="15.00">NANA Regional Corp</text>
</g>
<g id="39359" class="node">
<ellipse fill="#ffffff" stroke="cadetblue" stroke-width="10" cx="967.025" cy="-668.097" rx="43" ry="43.5"/>
<image xlink:href="com_images/cunknown_oil_co.png" width="86px" height="86px" preserveAspectRatio="xMinYMin meet" x="924.025" y="-711.097"/>
<ellipse fill="none" stroke="cadetblue" stroke-width="10" cx="967.025" cy="-668.097" rx="43" ry="43.5"/>
<text text-anchor="start" x="1025.025" y="-664.097" font-family="Times Roman,serif" font-size="15.00">ICE SERVICES</text>
</g>
<g id="8692" class="node">
<polygon fill="#ffffff" stroke="#cc3333" stroke-width="10" points="911.025,-1330.22 833.025,-1330.22 833.025,-1252.22 911.025,-1252.22 911.025,-1330.22"/>
<image xlink:href="can_images/unknownCandidate.jpg" width="78px" height="78px" preserveAspectRatio="xMinYMin meet" x="833.025" y="-1330.22"/>
<polygon fill="none" stroke="#cc3333" stroke-width="10" points="911.025,-1330.22 833.025,-1330.22 833.025,-1252.22 911.025,-1252.22 911.025,-1330.22"/>
<text text-anchor="middle" x="872.025" y="-1287.22" font-family="Times Roman,serif" font-size="15.00">Bob Roses</text>
</g>
<g id="9873" class="node">
<polygon fill="#ffffff" stroke="#cc3333" stroke-width="10" points="427.795,-1285.27 343.795,-1285.27 343.795,-1200.27 427.795,-1200.27 427.795,-1285.27"/>
<image xlink:href="can_images/9873.jpg" width="56.1px" height="85px" preserveAspectRatio="xMinYMin meet" x="357.745" y="-1285.27"/>
<polygon fill="none" stroke="#cc3333" stroke-width="10" points="427.795,-1285.27 343.795,-1285.27 343.795,-1200.27 427.795,-1200.27 427.795,-1285.27"/>
<text text-anchor="middle" x="385.795" y="-1238.77" font-family="Times Roman,serif" font-size="15.00">Charisse Millett</text>
</g>
<g id="8804" class="node">
<polygon fill="#ffffff" stroke="#cc3333" stroke-width="10" points="652.967,-891.028 564.967,-891.028 564.967,-803.028 652.967,-803.028 652.967,-891.028"/>
<polygon fill="none" stroke="#cc3333" stroke-width="10" points="652.967,-891.028 564.967,-891.028 564.967,-803.028 652.967,-803.028 652.967,-891.028"/>
<text text-anchor="middle" x="608.967" y="-843.028" font-family="Times Roman,serif" font-size="15.00">Craig Johnson</text>
</g>
<g id="4169" class="node">
<polygon fill="#ffffff" stroke="#cc3333" stroke-width="10" points="1064.13,-1109.65 974.133,-1109.65 974.133,-1019.65 1064.13,-1019.65 1064.13,-1109.65"/>
<image xlink:href="can_images/4169.jpg" width="54.7826px" height="90px" preserveAspectRatio="xMinYMin meet" x="991.742" y="-1109.65"/>
<polygon fill="none" stroke="#cc3333" stroke-width="10" points="1064.13,-1109.65 974.133,-1109.65 974.133,-1019.65 1064.13,-1019.65 1064.13,-1109.65"/>
<text text-anchor="middle" x="1019.13" y="-1060.65" font-family="Times Roman,serif" font-size="15.00">Jay Ramras</text>
</g>
<g id="8801" class="node">
<polygon fill="#ffffff" stroke="#cc3333" stroke-width="10" points="621.757,-837.851 525.757,-837.851 525.757,-740.851 621.757,-740.851 621.757,-837.851"/>
<polygon fill="none" stroke="#cc3333" stroke-width="10" points="621.757,-837.851 525.757,-837.851 525.757,-740.851 621.757,-740.851 621.757,-837.851"/>
<text text-anchor="middle" x="573.757" y="-785.351" font-family="Times Roman,serif" font-size="15.00">Anna Fairclough</text>
</g>
<g id="4147" class="node">
<polygon fill="#ffffff" stroke="#cc3333" stroke-width="10" points="769.892,-839.458 671.892,-839.458 671.892,-741.458 769.892,-741.458 769.892,-839.458"/>
<polygon fill="none" stroke="#cc3333" stroke-width="10" points="769.892,-839.458 671.892,-839.458 671.892,-741.458 769.892,-741.458 769.892,-839.458"/>
<text text-anchor="middle" x="720.892" y="-786.458" font-family="Times Roman,serif" font-size="15.00">Kurt Olson</text>
</g>
<g id="5460" class="node">
<ellipse fill="#ffffff" stroke="cadetblue" stroke-width="10" cx="473.986" cy="-517.591" rx="58" ry="58.5"/>
<image xlink:href="com_images/c185.png" width="116px" height="116px" preserveAspectRatio="xMinYMin meet" x="415.986" y="-575.591"/>
<ellipse fill="none" stroke="cadetblue" stroke-width="10" cx="473.986" cy="-517.591" rx="58" ry="58.5"/>
<text text-anchor="start" x="546.986" y="-513.591" font-family="Times Roman,serif" font-size="15.00">Tesoro Petroleum</text>
</g>
<g id="4153" class="node">
<polygon fill="#ffffff" stroke="#cc3333" stroke-width="10" points="534.797,-979.093 426.797,-979.093 426.797,-870.093 534.797,-870.093 534.797,-979.093"/>
<image xlink:href="can_images/4153.jpg" width="81.3867px" height="109px" preserveAspectRatio="xMinYMin meet" x="440.103" y="-979.093"/>
<polygon fill="none" stroke="#cc3333" stroke-width="10" points="534.797,-979.093 426.797,-979.093 426.797,-870.093 534.797,-870.093 534.797,-979.093"/>
<text text-anchor="middle" x="480.797" y="-920.593" font-family="Times Roman,serif" font-size="15.00">Charles M Chenault</text>
</g>
<g id="39514" class="node">
<ellipse fill="#ffffff" stroke="cadetblue" stroke-width="10" cx="664.525" cy="-1135.57" rx="66" ry="66"/>
<image xlink:href="com_images/c39514.png" width="132px" height="132px" preserveAspectRatio="xMinYMin meet" x="598.525" y="-1201.57"/>
<ellipse fill="none" stroke="cadetblue" stroke-width="10" cx="664.525" cy="-1135.57" rx="66" ry="66"/>
<text text-anchor="start" x="745.525" y="-1131.57" font-family="Times Roman,serif" font-size="15.00">UDELHOVEN OIL</text>
</g>
<g id="4152" class="node">
<polygon fill="#ffffff" stroke="#cc3333" stroke-width="10" points="513.19,-1197.19 387.19,-1197.19 387.19,-1071.19 513.19,-1071.19 513.19,-1197.19"/>
<image xlink:href="can_images/4152.jpg" width="102.297px" height="126px" preserveAspectRatio="xMinYMin meet" x="399.042" y="-1197.19"/>
<polygon fill="none" stroke="#cc3333" stroke-width="10" points="513.19,-1197.19 387.19,-1197.19 387.19,-1071.19 513.19,-1071.19 513.19,-1197.19"/>
<text text-anchor="middle" x="450.19" y="-1130.19" font-family="Times Roman,serif" font-size="15.00">Mike Hawker</text>
</g>
<g id="671" class="node">
<ellipse fill="#ffffff" stroke="cadetblue" stroke-width="10" cx="834.163" cy="-937.519" rx="79" ry="79"/>
<image xlink:href="com_images/c671.png" width="158px" height="158px" preserveAspectRatio="xMinYMin meet" x="755.163" y="-1016.52"/>
<ellipse fill="none" stroke="cadetblue" stroke-width="10" cx="834.163" cy="-937.519" rx="79" ry="79"/>
<text text-anchor="start" x="928.163" y="-933.519" font-family="Times Roman,serif" font-size="15.00">BP</text>
</g>
<g id="1137" class="node">
<ellipse fill="#ffffff" stroke="cadetblue" stroke-width="10" cx="721.158" cy="-1186.11" rx="81" ry="81"/>
<image xlink:href="com_images/c92.png" width="162px" height="162px" preserveAspectRatio="xMinYMin meet" x="640.158" y="-1267.11"/>
<ellipse fill="none" stroke="cadetblue" stroke-width="10" cx="721.158" cy="-1186.11" rx="81" ry="81"/>
<text text-anchor="start" x="817.158" y="-1182.11" font-family="Times Roman,serif" font-size="15.00">ConocoPhillips</text>
</g>
</g>
</svg>
