<svg width="614px" height="597.83133333333px"
  xmlns="http://www.w3.org/2000/svg" xmlns:xlink="http://www.w3.org/1999/xlink">
<g id="graph0" class="graph" transform="scale(0.78712241666666 0.78712241666666) rotate(0) translate(4 755.509)">

<polygon id='svgscreen' style="opacity:0;" fill="#ffffff" stroke="#ffffff" points="-4,5 -4,-755.509 777.054,-755.509 777.054,5 -4,5"/>
<g id="4410_29792" class="edge">
<path fill="none" stroke="#999999" stroke-width="5" d="M478.503,-694.399C466.44,-648.159 441.573,-552.843 422.247,-478.761"/>
<polygon fill="#999999" stroke="#999999" points="434.895,-475.249 414.622,-449.534 409.495,-481.876 434.895,-475.249"/>
</g>
<g id="4410_14648" class="edge">
<path fill="none" stroke="#999999" stroke-width="5" d="M692.984,-508.896C650.64,-490.172 564.408,-452.043 495.693,-421.659"/>
<polygon fill="#999999" stroke="#999999" points="500.718,-409.53 467.973,-409.402 490.103,-433.538 500.718,-409.53"/>
</g>
<g id="4410_951" class="edge">
<path fill="none" stroke="#999999" stroke-width="5" d="M583.102,-124.774C557.799,-158.921 508.86,-224.965 467.356,-280.976"/>
<polygon fill="#999999" stroke="#999999" points="456.536,-273.532 449.221,-305.45 477.627,-289.16 456.536,-273.532"/>
</g>
<g id="4410_5727" class="edge">
<path fill="none" stroke="#999999" stroke-width="5" d="M336.463,-680.896C345.08,-636.86 362.236,-549.182 375.899,-479.357"/>
<polygon fill="#999999" stroke="#999999" points="388.816,-481.693 381.696,-449.731 363.055,-476.652 388.816,-481.693"/>
</g>
<g id="4410_1737" class="edge">
<path fill="none" stroke="#999999" stroke-width="7.57353" d="M681.265,-227.751C640.32,-249.232 559.772,-291.491 494.653,-325.655"/>
<polygon fill="#999999" stroke="#999999" points="485.179,-308.175 467.85,-339.717 503.652,-343.384 485.179,-308.175"/>
</g>
<g id="4410_671" class="edge">
<path fill="none" stroke="#999999" stroke-width="7.57353" d="M456.124,-60.5426C447.155,-107.69 429.191,-202.125 415.194,-275.708"/>
<polygon fill="#999999" stroke="#999999" points="395.648,-272.076 409.572,-305.263 434.708,-279.506 395.648,-272.076"/>
</g>
<g id="4410_5769" class="edge">
<path fill="none" stroke="#999999" stroke-width="10.1471" d="M184.077,-131.98C213.073,-165.599 267.545,-228.759 313.979,-282.598"/>
<polygon fill="#999999" stroke="#999999" points="293.859,-300.052 333.622,-305.374 334.2,-265.259 293.859,-300.052"/>
</g>
<g id="4410_37364" class="edge">
<path fill="none" stroke="#999999" stroke-width="10.1471" d="M114.826,-255.091C155.649,-272.874 232.714,-306.445 295.828,-333.939"/>
<polygon fill="#999999" stroke="#999999" points="285.523,-358.503 323.664,-346.065 306.798,-309.664 285.523,-358.503"/>
</g>
<g id="4410_1137" class="edge">
<path fill="none" stroke="#999999" stroke-width="10.1471" d="M63.4773,-391.232C113.89,-389.149 215.865,-384.937 293.636,-381.724"/>
<polygon fill="#999999" stroke="#999999" points="294.803,-408.334 323.678,-380.483 292.604,-355.108 294.803,-408.334"/>
</g>
<g id="4410_3716" class="edge">
<path fill="none" stroke="#999999" stroke-width="12.7206" d="M706.311,-367.112C659.136,-368.691 569.204,-371.7 498.222,-374.076"/>
<polygon fill="#999999" stroke="#999999" points="497.021,-340.705 468.155,-375.082 499.255,-407.451 497.021,-340.705"/>
</g>
<g id="4410_37368" class="edge">
<path fill="none" stroke="#999999" stroke-width="16.5809" d="M197.998,-640.57C226.579,-602.564 279.498,-532.196 323.416,-473.795"/>
<polygon fill="#999999" stroke="#999999" points="358.345,-499.765 341.59,-449.628 288.772,-447.445 358.345,-499.765"/>
</g>
<g id="4410_32446" class="edge">
<path fill="none" stroke="#999999" stroke-width="25.5882" d="M592.668,-608.808C564.713,-575.958 517.789,-520.817 476.767,-472.612"/>
<polygon fill="#999999" stroke="#999999" points="527.809,-428.949 457.213,-449.633 425.501,-516.012 527.809,-428.949"/>
</g>
<g id="4410_29814" class="edge">
<path fill="none" stroke="#999999" stroke-width="30.7353" d="M317.752,-85.6028C330.195,-132.123 351.495,-211.752 368.707,-276.1"/>
<polygon fill="#999999" stroke="#999999" points="290.833,-297.198 376.526,-305.331 446.714,-255.502 290.833,-297.198"/>
</g>
<g id="4410_808" class="edge">
<path fill="none" stroke="#999999" stroke-width="40" d="M144.929,-509.002C183.52,-488.776 244.592,-456.767 296.82,-429.394"/>
<polygon fill="#999999" stroke="#999999" points="345.72,-522.313 323.549,-415.385 248.234,-336.311 345.72,-522.313"/>
</g>
<g id="29792" class="node">
<ellipse fill="#ffffff" stroke="cadetblue" stroke-width="10" cx="485.706" cy="-722.009" rx="28" ry="28.5"/>
<image xlink:href="com_images/c192.png" width="56px" height="56px" preserveAspectRatio="xMinYMin meet" x="457.706" y="-750.009"/>
<ellipse fill="none" stroke="cadetblue" stroke-width="10" cx="485.706" cy="-722.009" rx="28" ry="28.5"/>
<text text-anchor="start" x="528.706" y="-718.009" font-family="Times Roman,serif" font-size="15.00">AES Corp</text>
</g>
<g id="14648" class="node">
<ellipse fill="#ffffff" stroke="cadetblue" stroke-width="10" cx="718.874" cy="-520.343" rx="28" ry="28.5"/>
<image xlink:href="com_images/c14648.png" width="56px" height="56px" preserveAspectRatio="xMinYMin meet" x="690.874" y="-548.343"/>
<ellipse fill="none" stroke="cadetblue" stroke-width="10" cx="718.874" cy="-520.343" rx="28" ry="28.5"/>
<text text-anchor="start" x="761.874" y="-516.343" font-family="Times Roman,serif" font-size="15.00">NV Energy</text>
</g>
<g id="951" class="node">
<ellipse fill="#ffffff" stroke="cadetblue" stroke-width="10" cx="600.172" cy="-101.737" rx="28" ry="28.5"/>
<image xlink:href="com_images/c951.png" width="56px" height="56px" preserveAspectRatio="xMinYMin meet" x="572.172" y="-129.737"/>
<ellipse fill="none" stroke="cadetblue" stroke-width="10" cx="600.172" cy="-101.737" rx="28" ry="28.5"/>
<text text-anchor="start" x="643.172" y="-97.7372" font-family="Times Roman,serif" font-size="15.00">Chevron Corp</text>
</g>
<g id="5727" class="node">
<ellipse fill="#ffffff" stroke="cadetblue" stroke-width="10" cx="330.99" cy="-708.862" rx="28" ry="28.5"/>
<image xlink:href="com_images/c47.png" width="56px" height="56px" preserveAspectRatio="xMinYMin meet" x="302.99" y="-736.862"/>
<ellipse fill="none" stroke="cadetblue" stroke-width="10" cx="330.99" cy="-708.862" rx="28" ry="28.5"/>
<text text-anchor="start" x="373.99" y="-704.862" font-family="Times Roman,serif" font-size="15.00">Valero Energy</text>
</g>
<g id="1737" class="node">
<ellipse fill="#ffffff" stroke="cadetblue" stroke-width="10" cx="707.869" cy="-213.793" rx="30" ry="30"/>
<image xlink:href="com_images/c28.png" width="60px" height="60px" preserveAspectRatio="xMinYMin meet" x="677.869" y="-243.793"/>
<ellipse fill="none" stroke="cadetblue" stroke-width="10" cx="707.869" cy="-213.793" rx="30" ry="30"/>
<text text-anchor="start" x="752.869" y="-209.793" font-family="Times Roman,serif" font-size="15.00">Exxon Mobil</text>
</g>
<g id="671" class="node">
<ellipse fill="#ffffff" stroke="cadetblue" stroke-width="10" cx="461.743" cy="-31" rx="30" ry="30"/>
<image xlink:href="com_images/c671.png" width="60px" height="60px" preserveAspectRatio="xMinYMin meet" x="431.743" y="-61"/>
<ellipse fill="none" stroke="cadetblue" stroke-width="10" cx="461.743" cy="-31" rx="30" ry="30"/>
<text text-anchor="start" x="506.743" y="-27" font-family="Times Roman,serif" font-size="15.00">BP</text>
</g>
<g id="5769" class="node">
<ellipse fill="#ffffff" stroke="cadetblue" stroke-width="10" cx="163.456" cy="-108.069" rx="31" ry="31.5"/>
<image xlink:href="com_images/c25.png" width="62px" height="62px" preserveAspectRatio="xMinYMin meet" x="132.456" y="-139.069"/>
<ellipse fill="none" stroke="cadetblue" stroke-width="10" cx="163.456" cy="-108.069" rx="31" ry="31.5"/>
<text text-anchor="start" x="209.456" y="-104.069" font-family="Times Roman,serif" font-size="15.00">Venoco Inc</text>
</g>
<g id="37364" class="node">
<ellipse fill="#ffffff" stroke="cadetblue" stroke-width="10" cx="86.2572" cy="-242.645" rx="31" ry="31.5"/>
<image xlink:href="com_images/c37364.png" width="62px" height="62px" preserveAspectRatio="xMinYMin meet" x="55.2572" y="-273.645"/>
<ellipse fill="none" stroke="cadetblue" stroke-width="10" cx="86.2572" cy="-242.645" rx="31" ry="31.5"/>
<text text-anchor="start" x="132.2572" y="-238.645" font-family="Times Roman,serif" font-size="15.00">CAITHNESS ENERGY</text>
</g>
<g id="1137" class="node">
<ellipse fill="#ffffff" stroke="cadetblue" stroke-width="10" cx="32.5" cy="-392.511" rx="31" ry="31.5"/>
<image xlink:href="com_images/c92.png" width="62px" height="62px" preserveAspectRatio="xMinYMin meet" x="1.5" y="-423.511"/>
<ellipse fill="none" stroke="cadetblue" stroke-width="10" cx="32.5" cy="-392.511" rx="31" ry="31.5"/>
<text text-anchor="start" x="78.5" y="-388.511" font-family="Times Roman,serif" font-size="15.00">ConocoPhillips</text>
</g>
<g id="3716" class="node">
<ellipse fill="#ffffff" stroke="cadetblue" stroke-width="10" cx="738.554" cy="-366.033" rx="32" ry="32.5"/>
<image xlink:href="com_images/c109.png" width="64px" height="64px" preserveAspectRatio="xMinYMin meet" x="706.554" y="-398.033"/>
<ellipse fill="none" stroke="cadetblue" stroke-width="10" cx="738.554" cy="-366.033" rx="32" ry="32.5"/>
<text text-anchor="start" x="785.554" y="-362.033" font-family="Times Roman,serif" font-size="15.00">Occidental Petroleum</text>
</g>
<g id="37368" class="node">
<ellipse fill="#ffffff" stroke="cadetblue" stroke-width="10" cx="177.236" cy="-668.179" rx="34" ry="34.5"/>
<image xlink:href="com_images/c37368.png" width="68px" height="68px" preserveAspectRatio="xMinYMin meet" x="143.236" y="-702.179"/>
<ellipse fill="none" stroke="cadetblue" stroke-width="10" cx="177.236" cy="-668.179" rx="34" ry="34.5"/>
<text text-anchor="start" x="226.236" y="-664.179" font-family="Times Roman,serif" font-size="15.00">CALIFORNIA INDEPENDENT OIL MARKETERS</text>
</g>
<g id="32446" class="node">
<ellipse fill="#ffffff" stroke="cadetblue" stroke-width="10" cx="617.445" cy="-637.923" rx="38" ry="38"/>
<image xlink:href="com_images/c217.png" width="76px" height="76px" preserveAspectRatio="xMinYMin meet" x="579.445" y="-675.923"/>
<ellipse fill="none" stroke="cadetblue" stroke-width="10" cx="617.445" cy="-637.923" rx="38" ry="38"/>
<text text-anchor="start" x="670.445" y="-633.923" font-family="Times Roman,serif" font-size="15.00">US Chamber Of Commerce</text>
</g>
<g id="29814" class="node">
<ellipse fill="#ffffff" stroke="cadetblue" stroke-width="10" cx="307.341" cy="-46.6806" rx="40" ry="40"/>
<image xlink:href="com_images/c148.png" width="80px" height="80px" preserveAspectRatio="xMinYMin meet" x="267.341" y="-86.6806"/>
<ellipse fill="none" stroke="cadetblue" stroke-width="10" cx="307.341" cy="-46.6806" rx="40" ry="40"/>
<text text-anchor="start" x="362.341" y="-42.6806" font-family="Times Roman,serif" font-size="15.00">Edison International</text>
</g>
<g id="808" class="node">
<ellipse fill="#ffffff" stroke="cadetblue" stroke-width="10" cx="106.509" cy="-529.138" rx="43" ry="43.5"/>
<image xlink:href="com_images/c808.png" width="86px" height="86px" preserveAspectRatio="xMinYMin meet" x="63.5092" y="-572.138"/>
<ellipse fill="none" stroke="cadetblue" stroke-width="10" cx="106.509" cy="-529.138" rx="43" ry="43.5"/>
<text text-anchor="start" x="164.509" y="-525.138" font-family="Times Roman,serif" font-size="15.00">California Independent Petroleum Assn</text>
</g>
<g id="4410" class="node">
<polygon fill="#ffffff" stroke="#cc3333" stroke-width="10" points="467.83,-449.502 323.83,-449.502 323.83,-305.502 467.83,-305.502 467.83,-449.502"/>
<image xlink:href="can_images/4410.jpg" width="116.911px" height="144px" preserveAspectRatio="xMinYMin meet" x="337.375" y="-449.502"/>
<polygon fill="none" stroke="#cc3333" stroke-width="10" points="467.83,-449.502 323.83,-449.502 323.83,-305.502 467.83,-305.502 467.83,-449.502"/>
<text text-anchor="middle" x="395.83" y="-373.502" font-family="Times Roman,serif" font-size="15.00">Robert Dutton</text>
</g>
</g>
</svg>
