<svg width="405px" height="387.19265625px"
  xmlns="http://www.w3.org/2000/svg" xmlns:xlink="http://www.w3.org/1999/xlink">
<g id="graph0" class="graph" transform="scale(0.29415403125 0.29415403125) rotate(0) translate(4 1312.29)">

<polygon id='svgscreen' style="opacity:0;" fill="#ffffff" stroke="#ffffff" points="-4,5 -4,-1312.29 1373.83,-1312.29 1373.83,5 -4,5"/>
<g id="4144_39405" class="edge">
<path fill="none" stroke="#999999" stroke-width="5" d="M190.741,-805.646C217.118,-784.122 263.221,-746.5 305.56,-711.95"/>
<polygon fill="#999999" stroke="#999999" points="313.931,-722.06 328.876,-692.924 297.334,-701.722 313.931,-722.06"/>
</g>
<g id="4144_31946" class="edge">
<path fill="none" stroke="#999999" stroke-width="8.84146" d="M418.239,-352.876C415.704,-394.531 411.13,-469.67 407.35,-531.786"/>
<polygon fill="#999999" stroke="#999999" points="384.172,-530.575 405.515,-561.93 430.504,-533.395 384.172,-530.575"/>
</g>
<g id="2244_168" class="edge">
<path fill="none" stroke="#999999" stroke-width="9.26829" d="M1115.97,-903.965C1147.65,-935.649 1205.58,-993.581 1247.32,-1035.32"/>
<polygon fill="#999999" stroke="#999999" points="1230.15,-1052.56 1268.57,-1056.57 1264.56,-1018.15 1230.15,-1052.56"/>
</g>
<g id="4144_951" class="edge">
<path fill="none" stroke="#999999" stroke-width="10.9756" d="M144.095,-525.271C181.265,-540.988 245.943,-568.338 301.118,-591.67"/>
<polygon fill="#999999" stroke="#999999" points="290.056,-618.273 328.909,-603.421 312.499,-565.201 290.056,-618.273"/>
</g>
<g id="4140_39492" class="edge">
<path fill="none" stroke="#999999" stroke-width="11.8293" d="M1302.23,-537.26C1257.63,-549.585 1175.52,-572.278 1114.43,-589.16"/>
<polygon fill="#999999" stroke="#999999" points="1105.77,-559.336 1085.13,-597.258 1122.31,-619.196 1105.77,-559.336"/>
</g>
<g id="4144_39383" class="edge">
<path fill="none" stroke="#999999" stroke-width="11.8293" d="M487.104,-877.923C474.81,-843.037 454.397,-785.112 436.546,-734.457"/>
<polygon fill="#999999" stroke="#999999" points="465.808,-724.066 426.55,-706.092 407.235,-744.707 465.808,-724.066"/>
</g>
<g id="4140_39350" class="edge">
<path fill="none" stroke="#999999" stroke-width="11.8293" d="M767.776,-549.736C814.335,-560.254 897.665,-579.078 959.327,-593.008"/>
<polygon fill="#999999" stroke="#999999" points="952.76,-623.358 988.865,-599.68 966.444,-562.781 952.76,-623.358"/>
</g>
<g id="4144_39350" class="edge">
<path fill="none" stroke="#999999" stroke-width="7.56098" d="M697.713,-551.47C651.738,-564.258 568.864,-587.308 502.386,-605.798"/>
<polygon fill="#999999" stroke="#999999" points="496.771,-586.759 473.187,-613.92 507.408,-625.002 496.771,-586.759"/>
</g>
<g id="9861_671" class="edge">
<path fill="none" stroke="#999999" stroke-width="8.41463" d="M262.284,-1028.49C234.812,-1076.54 182.802,-1167.52 149.473,-1225.82"/>
<polygon fill="#999999" stroke="#999999" points="130.102,-1215.2 134.389,-1252.21 168.454,-1237.13 130.102,-1215.2"/>
</g>
<g id="4144_671" class="edge">
<path fill="none" stroke="#999999" stroke-width="11.8293" d="M292.485,-960.838C309.725,-908.97 342.521,-810.298 367.589,-734.877"/>
<polygon fill="#999999" stroke="#999999" points="397.113,-744.498 377.109,-706.236 338.18,-724.91 397.113,-744.498"/>
</g>
<g id="4144_39359" class="edge">
<path fill="none" stroke="#999999" stroke-width="20.3659" d="M561.852,-392.225C538.258,-427.711 499.369,-486.203 465.755,-536.761"/>
<polygon fill="#999999" stroke="#999999" points="421.11,-507.353 449.019,-561.935 510.147,-566.551 421.11,-507.353"/>
</g>
<g id="4144_39514" class="edge">
<path fill="none" stroke="#999999" stroke-width="37.439" d="M95.3267,-676.941C147.037,-669.673 231.864,-657.751 299.076,-648.305"/>
<polygon fill="#999999" stroke="#999999" points="312.978,-745.594 329.008,-644.098 285.622,-550.952 312.978,-745.594"/>
</g>
<g id="4172_1137" class="edge">
<path fill="none" stroke="#999999" stroke-width="11.8293" d="M178.645,-264.483C150.373,-215.797 105.518,-138.557 75.1491,-86.2612"/>
<polygon fill="#999999" stroke="#999999" points="101.883,-70.4633 59.965,-60.1142 48.1781,-101.651 101.883,-70.4633"/>
</g>
<g id="4144_1137" class="edge">
<path fill="none" stroke="#999999" stroke-width="40" d="M232.345,-355.057C260.509,-401.596 305.363,-475.712 341.754,-535.847"/>
<polygon fill="#999999" stroke="#999999" points="252.167,-590.613 357.531,-561.916 431.829,-481.886 252.167,-590.613"/>
</g>
<g id="2878_5460" class="edge">
<path fill="none" stroke="#999999" stroke-width="11.8293" d="M777.705,-825.747C808.535,-876.701 857.528,-957.676 890.141,-1011.58"/>
<polygon fill="#999999" stroke="#999999" points="863.631,-1027.75 905.729,-1037.34 916.766,-995.598 863.631,-1027.75"/>
</g>
<g id="4140_5460" class="edge">
<path fill="none" stroke="#999999" stroke-width="37.439" d="M796.611,-750.691C841.803,-724.347 910.454,-684.328 962.839,-653.791"/>
<polygon fill="#999999" stroke="#999999" points="1012.48,-738.607 988.908,-638.594 913.496,-568.798 1012.48,-738.607"/>
</g>
<g id="4144_5460" class="edge">
<path fill="none" stroke="#999999" stroke-width="11.8293" d="M698.098,-757.25C646.585,-735.864 565.614,-702.248 501.225,-675.516"/>
<polygon fill="#999999" stroke="#999999" points="513.039,-646.799 473.425,-663.975 489.226,-704.156 513.039,-646.799"/>
</g>
<g id="39405" class="node">
<ellipse fill="#ffffff" stroke="cadetblue" stroke-width="10" cx="168.893" cy="-823.475" rx="28" ry="28.5"/>
<image xlink:href="com_images/cunknown_oil_co.png" width="56px" height="56px" preserveAspectRatio="xMinYMin meet" x="140.893" y="-851.475"/>
<ellipse fill="none" stroke="cadetblue" stroke-width="10" cx="168.893" cy="-823.475" rx="28" ry="28.5"/>
<text text-anchor="start" x="211.893" y="-819.475" font-family="Times Roman,serif" font-size="15.00">ALASKA SUPPORT INDUSTRY ALLIANCE</text>
</g>
<g id="9861" class="node">
<polygon fill="#ffffff" stroke="#3333cc" stroke-width="10" points="145.624,-1307.29 91.6238,-1307.29 91.6238,-1252.29 145.624,-1252.29 145.624,-1307.29"/>
<image xlink:href="can_images/9861.jpg" width="41.0667px" height="55px" preserveAspectRatio="xMinYMin meet" x="98.0905" y="-1307.29"/>
<polygon fill="none" stroke="#3333cc" stroke-width="10" points="145.624,-1307.29 91.6238,-1307.29 91.6238,-1252.29 145.624,-1252.29 145.624,-1307.29"/>
<text text-anchor="middle" x="118.624" y="-1275.79" font-family="Times Roman,serif" font-size="15.00">Joe Paskvan</text>
</g>
<g id="31946" class="node">
<ellipse fill="#ffffff" stroke="cadetblue" stroke-width="10" cx="420.169" cy="-321.162" rx="31" ry="31.5"/>
<image xlink:href="com_images/c31946.png" width="62px" height="62px" preserveAspectRatio="xMinYMin meet" x="389.169" y="-352.162"/>
<ellipse fill="none" stroke="cadetblue" stroke-width="10" cx="420.169" cy="-321.162" rx="31" ry="31.5"/>
<text text-anchor="start" x="466.169" y="-317.162" font-family="Times Roman,serif" font-size="15.00">NANA Regional Corp</text>
</g>
<g id="2244" class="node">
<polygon fill="#ffffff" stroke="#3333cc" stroke-width="10" points="1324.65,-1112.65 1268.65,-1112.65 1268.65,-1056.65 1324.65,-1056.65 1324.65,-1112.65"/>
<polygon fill="none" stroke="#3333cc" stroke-width="10" points="1324.65,-1112.65 1268.65,-1112.65 1268.65,-1056.65 1324.65,-1056.65 1324.65,-1112.65"/>
<text text-anchor="middle" x="1296.65" y="-1080.65" font-family="Times Roman,serif" font-size="15.00">Bettye Davis</text>
</g>
<g id="168" class="node">
<ellipse fill="#ffffff" stroke="cadetblue" stroke-width="10" cx="1093" cy="-881" rx="32" ry="32"/>
<image xlink:href="com_images/cunknown_oil_co.png" width="64px" height="64px" preserveAspectRatio="xMinYMin meet" x="1061" y="-913"/>
<ellipse fill="none" stroke="cadetblue" stroke-width="10" cx="1093" cy="-881" rx="32" ry="32"/>
<text text-anchor="start" x="1140" y="-877" font-family="Times Roman,serif" font-size="15.00">Alyeska Pipeline Service Co</text>
</g>
<g id="951" class="node">
<ellipse fill="#ffffff" stroke="cadetblue" stroke-width="10" cx="113.596" cy="-512.374" rx="33" ry="33"/>
<image xlink:href="com_images/c951.png" width="66px" height="66px" preserveAspectRatio="xMinYMin meet" x="80.5961" y="-545.374"/>
<ellipse fill="none" stroke="cadetblue" stroke-width="10" cx="113.596" cy="-512.374" rx="33" ry="33"/>
<text text-anchor="start" x="161.596" y="-508.374" font-family="Times Roman,serif" font-size="15.00">Chevron Corp</text>
</g>
<g id="39492" class="node">
<ellipse fill="#ffffff" stroke="cadetblue" stroke-width="10" cx="1334.33" cy="-528.388" rx="33" ry="33.5"/>
<image xlink:href="com_images/cunknown_oil_co.png" width="66px" height="66px" preserveAspectRatio="xMinYMin meet" x="1301.33" y="-561.388"/>
<ellipse fill="none" stroke="cadetblue" stroke-width="10" cx="1334.33" cy="-528.388" rx="33" ry="33.5"/>
<text text-anchor="start" x="1382.33" y="-524.388" font-family="Times Roman,serif" font-size="15.00">PETERKIN DISTRIBUTING</text>
</g>
<g id="39383" class="node">
<ellipse fill="#ffffff" stroke="cadetblue" stroke-width="10" cx="498.244" cy="-909.535" rx="33" ry="33.5"/>
<image xlink:href="com_images/cunknown_oil_co.png" width="66px" height="66px" preserveAspectRatio="xMinYMin meet" x="465.244" y="-942.535"/>
<ellipse fill="none" stroke="cadetblue" stroke-width="10" cx="498.244" cy="-909.535" rx="33" ry="33.5"/>
<text text-anchor="start" x="546.244" y="-905.535" font-family="Times Roman,serif" font-size="15.00">UIC OILFIELD SERVICES</text>
</g>
<g id="4172" class="node">
<polygon fill="#ffffff" stroke="#cc3333" stroke-width="10" points="71.7676,-60 13.7676,-60 13.7676,-1 71.7676,-1 71.7676,-60"/>
<polygon fill="none" stroke="#cc3333" stroke-width="10" points="71.7676,-60 13.7676,-60 13.7676,-1 71.7676,-1 71.7676,-60"/>
<text text-anchor="middle" x="42.7676" y="-26.5" font-family="Times Roman,serif" font-size="15.00">Bert Stedman</text>
</g>
<g id="2878" class="node">
<polygon fill="#ffffff" stroke="#cc3333" stroke-width="10" points="952.699,-1096.54 894.699,-1096.54 894.699,-1037.54 952.699,-1037.54 952.699,-1096.54"/>
<polygon fill="none" stroke="#cc3333" stroke-width="10" points="952.699,-1096.54 894.699,-1096.54 894.699,-1037.54 952.699,-1037.54 952.699,-1096.54"/>
<text text-anchor="middle" x="923.699" y="-1063.04" font-family="Times Roman,serif" font-size="15.00">Fred Dyson</text>
</g>
<g id="39350" class="node">
<ellipse fill="#ffffff" stroke="cadetblue" stroke-width="10" cx="732.554" cy="-541.779" rx="36" ry="36.5"/>
<image xlink:href="com_images/c39350.png" width="72px" height="72px" preserveAspectRatio="xMinYMin meet" x="696.554" y="-577.779"/>
<ellipse fill="none" stroke="cadetblue" stroke-width="10" cx="732.554" cy="-541.779" rx="36" ry="36.5"/>
<text text-anchor="start" x="783.554" y="-537.779" font-family="Times Roman,serif" font-size="15.00">CONAM CONSTRUCTION</text>
</g>
<g id="671" class="node">
<ellipse fill="#ffffff" stroke="cadetblue" stroke-width="10" cx="280.721" cy="-996.234" rx="37" ry="37"/>
<image xlink:href="com_images/c671.png" width="74px" height="74px" preserveAspectRatio="xMinYMin meet" x="243.721" y="-1033.23"/>
<ellipse fill="none" stroke="cadetblue" stroke-width="10" cx="280.721" cy="-996.234" rx="37" ry="37"/>
<text text-anchor="start" x="332.721" y="-992.234" font-family="Times Roman,serif" font-size="15.00">BP</text>
</g>
<g id="39359" class="node">
<ellipse fill="#ffffff" stroke="cadetblue" stroke-width="10" cx="583.487" cy="-359.684" rx="39" ry="39"/>
<image xlink:href="com_images/cunknown_oil_co.png" width="78px" height="78px" preserveAspectRatio="xMinYMin meet" x="544.487" y="-398.684"/>
<ellipse fill="none" stroke="cadetblue" stroke-width="10" cx="583.487" cy="-359.684" rx="39" ry="39"/>
<text text-anchor="start" x="637.487" y="-355.684" font-family="Times Roman,serif" font-size="15.00">ICE SERVICES</text>
</g>
<g id="39514" class="node">
<ellipse fill="#ffffff" stroke="cadetblue" stroke-width="10" cx="48.5" cy="-683.522" rx="47" ry="47.5"/>
<image xlink:href="com_images/c39514.png" width="94px" height="94px" preserveAspectRatio="xMinYMin meet" x="1.5" y="-730.522"/>
<ellipse fill="none" stroke="cadetblue" stroke-width="10" cx="48.5" cy="-683.522" rx="47" ry="47.5"/>
<text text-anchor="start" x="110.5" y="-679.522" font-family="Times Roman,serif" font-size="15.00">UDELHOVEN OIL</text>
</g>
<g id="1137" class="node">
<ellipse fill="#ffffff" stroke="cadetblue" stroke-width="10" cx="205.086" cy="-310.013" rx="52" ry="52.5"/>
<image xlink:href="com_images/c92.png" width="104px" height="104px" preserveAspectRatio="xMinYMin meet" x="153.086" y="-362.013"/>
<ellipse fill="none" stroke="cadetblue" stroke-width="10" cx="205.086" cy="-310.013" rx="52" ry="52.5"/>
<text text-anchor="start" x="272.086" y="-306.013" font-family="Times Roman,serif" font-size="15.00">ConocoPhillips</text>
</g>
<g id="5460" class="node">
<ellipse fill="#ffffff" stroke="cadetblue" stroke-width="10" cx="749.063" cy="-778.408" rx="55" ry="55"/>
<image xlink:href="com_images/c185.png" width="110px" height="110px" preserveAspectRatio="xMinYMin meet" x="694.063" y="-833.408"/>
<ellipse fill="none" stroke="cadetblue" stroke-width="10" cx="749.063" cy="-778.408" rx="55" ry="55"/>
<text text-anchor="start" x="819.063" y="-774.408" font-family="Times Roman,serif" font-size="15.00">Tesoro Petroleum</text>
</g>
<g id="4140" class="node">
<polygon fill="#ffffff" stroke="#cc3333" stroke-width="10" points="1085.01,-659.056 989.007,-659.056 989.007,-562.056 1085.01,-562.056 1085.01,-659.056"/>
<image xlink:href="can_images/4140.jpg" width="72.4267px" height="97px" preserveAspectRatio="xMinYMin meet" x="1000.79" y="-659.056"/>
<polygon fill="none" stroke="#cc3333" stroke-width="10" points="1085.01,-659.056 989.007,-659.056 989.007,-562.056 1085.01,-562.056 1085.01,-659.056"/>
<text text-anchor="middle" x="1037.01" y="-606.556" font-family="Times Roman,serif" font-size="15.00">Thomas Wagoner</text>
</g>
<g id="4144" class="node">
<polygon fill="#ffffff" stroke="#cc3333" stroke-width="10" points="473.131,-705.961 329.131,-705.961 329.131,-561.961 473.131,-561.961 473.131,-705.961"/>
<image xlink:href="can_images/4144.jpg" width="107.52px" height="144px" preserveAspectRatio="xMinYMin meet" x="347.371" y="-705.961"/>
<polygon fill="none" stroke="#cc3333" stroke-width="10" points="473.131,-705.961 329.131,-705.961 329.131,-561.961 473.131,-561.961 473.131,-705.961"/>
<text text-anchor="middle" x="401.131" y="-629.961" font-family="Times Roman,serif" font-size="15.00">Kevin Meyer</text>
</g>
</g>
</svg>
