<svg width="255.96px" height="256px"
  xmlns="http://www.w3.org/2000/svg" xmlns:xlink="http://www.w3.org/1999/xlink">
<g id="graph0" class="graph" transform="scale(0.44303200000001 0.44303200000001) rotate(0) translate(4 573.838)">

<polygon id='svgscreen' style="opacity:0;" fill="#ffffff" stroke="#ffffff" points="-4,5 -4,-573.838 574.749,-573.838 574.749,5 -4,5"/>
<g id="4387_3716" class="edge">
<path fill="none" stroke="#999999" stroke-width="5" d="M433.135,-433.07C401.434,-401.283 362.283,-362.025 332.318,-331.979"/>
<polygon fill="#999999" stroke="#999999" points="341.501,-322.599 311.023,-310.625 322.914,-341.136 341.501,-322.599"/>
</g>
<g id="4387_38226" class="edge">
<path fill="none" stroke="#999999" stroke-width="40" d="M139.602,-139.47C171.097,-170.894 209.606,-209.314 239.203,-238.843"/>
<polygon fill="#999999" stroke="#999999" points="165.325,-313.457 260.724,-260.315 313.648,-164.795 165.325,-313.457"/>
</g>
<g id="4387" class="node">
<polygon fill="#ffffff" stroke="#cc3333" stroke-width="10" points="310.864,-310.898 260.864,-310.898 260.864,-259.898 310.864,-259.898 310.864,-310.898"/>
<image xlink:href="can_images/unknownCandidate.jpg" width="50px" height="50px" preserveAspectRatio="xMinYMin meet" x="260.864" y="-310.398"/>
<polygon fill="none" stroke="#cc3333" stroke-width="10" points="310.864,-310.898 260.864,-310.898 260.864,-259.898 310.864,-259.898 310.864,-310.898"/>
<text text-anchor="middle" x="285.864" y="-281.398" font-family="Times Roman,serif" font-size="15.00">Rick Keene</text>
</g>
<g id="3716" class="node">
<ellipse fill="#ffffff" stroke="cadetblue" stroke-width="10" cx="489.249" cy="-489.338" rx="79" ry="79.5"/>
<image xlink:href="com_images/c109.png" width="158px" height="158px" preserveAspectRatio="xMinYMin meet" x="410.249" y="-568.338"/>
<ellipse fill="none" stroke="cadetblue" stroke-width="10" cx="489.249" cy="-489.338" rx="79" ry="79.5"/>
<text text-anchor="start" x="583.249" y="-485.338" font-family="Times Roman,serif" font-size="15.00">Occidental Petroleum</text>
</g>
<g id="38226" class="node">
<ellipse fill="#ffffff" stroke="cadetblue" stroke-width="10" cx="82" cy="-82" rx="81" ry="81"/>
<image xlink:href="com_images/cunknown_oil_co.png" width="162px" height="162px" preserveAspectRatio="xMinYMin meet" x="1" y="-163"/>
<ellipse fill="none" stroke="cadetblue" stroke-width="10" cx="82" cy="-82" rx="81" ry="81"/>
<text text-anchor="start" x="178" y="-78" font-family="Times Roman,serif" font-size="15.00">NORTHGATE PETROLEUM CO</text>
</g>
</g>
</svg>
