<svg width="366px" height="276.8675625px"
  xmlns="http://www.w3.org/2000/svg" xmlns:xlink="http://www.w3.org/1999/xlink">
<g id="graph0" class="graph" transform="scale(0.19350153125 0.19350153125) rotate(0) translate(4 1426.83)">

<polygon id='svgscreen' style="opacity:0;" fill="#ffffff" stroke="#ffffff" points="-4,5 -4,-1426.83 1888.46,-1426.83 1888.46,5 -4,5"/>
<g id="8406_39485" class="edge">
<path fill="none" stroke="#999999" stroke-width="5.08413" d="M855.374,-1245.46C865.604,-1197.29 886.871,-1097.13 902.241,-1024.74"/>
<polygon fill="#999999" stroke="#999999" points="915.344,-1027.29 908.52,-995.169 889.234,-1021.74 915.344,-1027.29"/>
</g>
<g id="145304_289" class="edge">
<path fill="none" stroke="#999999" stroke-width="5.50481" d="M1101.52,-193.678C1080.94,-220.667 1045.78,-266.776 1013.53,-309.074"/>
<polygon fill="#999999" stroke="#999999" points="1001.97,-300.412 995.266,-333.03 1024.95,-317.935 1001.97,-300.412"/>
</g>
<g id="2231_4211" class="edge">
<path fill="none" stroke="#999999" stroke-width="6.34615" d="M61.145,-590.637C115.846,-593.355 233.19,-599.185 313.267,-603.164"/>
<polygon fill="#999999" stroke="#999999" points="312.676,-619.813 343.466,-604.664 314.33,-586.537 312.676,-619.813"/>
</g>
<g id="4165_31946" class="edge">
<path fill="none" stroke="#999999" stroke-width="6.34615" d="M263.276,-99.7482C290.995,-139.536 346.971,-219.883 391.089,-283.209"/>
<polygon fill="#999999" stroke="#999999" points="377.423,-292.736 408.24,-307.828 404.76,-273.69 377.423,-292.736"/>
</g>
<g id="4171_38670" class="edge">
<path fill="none" stroke="#999999" stroke-width="6.34615" d="M87.8112,-921.272C140.913,-904.474 255.582,-868.199 331.369,-844.224"/>
<polygon fill="#999999" stroke="#999999" points="336.639,-860.03 360.218,-835.098 326.59,-828.264 336.639,-860.03"/>
</g>
<g id="4165_951" class="edge">
<path fill="none" stroke="#999999" stroke-width="6.34615" d="M145.911,-285.745C192.817,-299.05 287.331,-325.858 359.313,-346.275"/>
<polygon fill="#999999" stroke="#999999" points="355.171,-362.416 388.578,-354.576 364.262,-330.363 355.171,-362.416"/>
</g>
<g id="8800_39474" class="edge">
<path fill="none" stroke="#999999" stroke-width="6.34615" d="M1760.41,-818.415C1720.93,-786.482 1640.54,-721.453 1585.4,-676.842"/>
<polygon fill="#999999" stroke="#999999" points="1595.51,-663.6 1561.71,-657.684 1574.56,-689.503 1595.51,-663.6"/>
</g>
<g id="145304_37852" class="edge">
<path fill="none" stroke="#999999" stroke-width="7.1875" d="M1070.72,-526.671C1060.58,-517.237 1047.92,-505.461 1034.51,-492.981"/>
<polygon fill="#999999" stroke="#999999" points="1047.12,-478.943 1012.3,-472.324 1021.42,-506.572 1047.12,-478.943"/>
</g>
<g id="8406_30934" class="edge">
<path fill="none" stroke="#999999" stroke-width="8.02885" d="M1160.87,-1138.37C1124.11,-1108.19 1053.07,-1049.84 997.637,-1004.32"/>
<polygon fill="#999999" stroke="#999999" points="1010.78,-987.833 974.216,-985.08 984.023,-1020.41 1010.78,-987.833"/>
</g>
<g id="8800_32624" class="edge">
<path fill="none" stroke="#999999" stroke-width="8.02885" d="M1820.83,-546.59C1768.62,-561.472 1660.25,-592.356 1590.9,-612.121"/>
<polygon fill="#999999" stroke="#999999" points="1584.76,-591.953 1561.69,-620.444 1596.32,-632.49 1584.76,-591.953"/>
</g>
<g id="2245_1737" class="edge">
<path fill="none" stroke="#999999" stroke-width="8.87019" d="M238.057,-1218.3C284.509,-1188.13 380.334,-1125.9 443.667,-1084.76"/>
<polygon fill="#999999" stroke="#999999" points="456.504,-1104.19 468.982,-1068.32 431.14,-1065.14 456.504,-1104.19"/>
</g>
<g id="3179_2841" class="edge">
<path fill="none" stroke="#999999" stroke-width="8.87019" d="M1475.47,-959.465C1506.89,-990.886 1564.12,-1048.12 1605.77,-1089.77"/>
<polygon fill="#999999" stroke="#999999" points="1589.37,-1106.3 1627.05,-1111.05 1622.3,-1073.37 1589.37,-1106.3"/>
</g>
<g id="2229_168" class="edge">
<path fill="none" stroke="#999999" stroke-width="5.08413" d="M1327.41,-408.022C1364.4,-360.049 1444.31,-256.407 1492.56,-193.814"/>
<polygon fill="#999999" stroke="#999999" points="1503.34,-201.691 1511.09,-169.783 1482.2,-185.393 1503.34,-201.691"/>
</g>
<g id="8800_168" class="edge">
<path fill="none" stroke="#999999" stroke-width="6.09375" d="M1331.9,-455.613C1365.21,-485.31 1425.91,-539.429 1470.92,-579.557"/>
<polygon fill="#999999" stroke="#999999" points="1460.38,-591.591 1493.42,-599.615 1481.67,-567.711 1460.38,-591.591"/>
</g>
<g id="145304_168" class="edge">
<path fill="none" stroke="#999999" stroke-width="7.1875" d="M1275.54,-431.368C1224.13,-427.365 1120.9,-419.324 1042.48,-413.216"/>
<polygon fill="#999999" stroke="#999999" points="1043.85,-394.399 1012.47,-410.88 1040.92,-432.019 1043.85,-394.399"/>
</g>
<g id="145304_38177" class="edge">
<path fill="none" stroke="#999999" stroke-width="10.5529" d="M1037.27,-87.8691C1022.33,-136.716 993.509,-230.951 971.135,-304.103"/>
<polygon fill="#999999" stroke="#999999" points="944.592,-296.174 962.308,-332.964 997.572,-312.378 944.592,-296.174"/>
</g>
<g id="4165_1677" class="edge">
<path fill="none" stroke="#999999" stroke-width="7.1875" d="M660.818,-141.301C630.792,-174.892 577.157,-234.894 531.987,-285.427"/>
<polygon fill="#999999" stroke="#999999" points="517.871,-272.908 511.944,-307.849 546.004,-298.056 517.871,-272.908"/>
</g>
<g id="145304_1677" class="edge">
<path fill="none" stroke="#999999" stroke-width="8.87019" d="M707.361,-141.41C740.774,-179.272 804.21,-251.155 856.44,-310.339"/>
<polygon fill="#999999" stroke="#999999" points="839.241,-326.04 876.55,-333.127 874.158,-295.227 839.241,-326.04"/>
</g>
<g id="2245_1991" class="edge">
<path fill="none" stroke="#999999" stroke-width="13.0769" d="M472.533,-1348.9C478.597,-1292.34 490.367,-1182.57 497.982,-1111.55"/>
<polygon fill="#999999" stroke="#999999" points="532.133,-1115.03 501.2,-1081.54 463.87,-1107.71 532.133,-1115.03"/>
</g>
<g id="145304_39357" class="edge">
<path fill="none" stroke="#999999" stroke-width="13.0769" d="M912.615,-74.1058C917.017,-126.959 925.322,-226.66 931.674,-302.907"/>
<polygon fill="#999999" stroke="#999999" points="897.473,-305.857 934.172,-332.903 965.89,-300.157 897.473,-305.857"/>
</g>
<g id="8406_38371" class="edge">
<path fill="none" stroke="#999999" stroke-width="13.0769" d="M1022.43,-1231.2C1005.18,-1182.21 973.035,-1090.94 949.36,-1023.72"/>
<polygon fill="#999999" stroke="#999999" points="981.666,-1012.11 939.322,-995.218 916.91,-1034.92 981.666,-1012.11"/>
</g>
<g id="2229_39472" class="edge">
<path fill="none" stroke="#999999" stroke-width="6.34615" d="M1335.08,-316.701C1371.74,-284.307 1436.61,-226.984 1481.82,-187.03"/>
<polygon fill="#999999" stroke="#999999" points="1493.17,-199.236 1504.62,-166.888 1471.1,-174.27 1493.17,-199.236"/>
</g>
<g id="8800_39472" class="edge">
<path fill="none" stroke="#999999" stroke-width="9.71154" d="M1329.83,-371.273C1365.86,-418.415 1436.65,-511.049 1483.05,-571.762"/>
<polygon fill="#999999" stroke="#999999" points="1462.8,-587.246 1501.27,-595.603 1503.31,-556.287 1462.8,-587.246"/>
</g>
<g id="145304_39472" class="edge">
<path fill="none" stroke="#999999" stroke-width="8.02885" d="M1270.54,-347.816C1217.76,-356.993 1118.13,-374.314 1042.04,-387.544"/>
<polygon fill="#999999" stroke="#999999" points="1038.32,-366.799 1012.37,-392.703 1045.54,-408.328 1038.32,-366.799"/>
</g>
<g id="4165_39350" class="edge">
<path fill="none" stroke="#999999" stroke-width="13.0769" d="M682.987,-230.172C647.411,-252.336 592.026,-286.843 544.599,-316.39"/>
<polygon fill="#999999" stroke="#999999" points="526.198,-287.411 518.887,-332.409 562.501,-345.681 526.198,-287.411"/>
</g>
<g id="145304_39350" class="edge">
<path fill="none" stroke="#999999" stroke-width="13.0769" d="M751.76,-236.085C776.41,-258.214 811.804,-289.988 845.276,-320.036"/>
<polygon fill="#999999" stroke="#999999" points="822.731,-345.927 867.986,-340.424 868.594,-294.839 822.731,-345.927"/>
</g>
<g id="2231_5460" class="edge">
<path fill="none" stroke="#999999" stroke-width="21.4904" d="M631.28,-417.096C590.176,-450.258 523.343,-504.177 471.321,-546.145"/>
<polygon fill="#999999" stroke="#999999" points="435.808,-502.314 447.881,-565.056 506.651,-590.125 435.808,-502.314"/>
</g>
<g id="145304_5460" class="edge">
<path fill="none" stroke="#999999" stroke-width="13.0769" d="M717.183,-389.958C750.619,-392.251 796.418,-395.391 837.816,-398.23"/>
<polygon fill="#999999" stroke="#999999" points="835.709,-432.493 867.987,-400.299 840.406,-364 835.709,-432.493"/>
</g>
<g id="8800_671" class="edge">
<path fill="none" stroke="#999999" stroke-width="5" d="M1227.33,-702.735C1289.45,-687.72 1395.76,-662.024 1463.81,-645.575"/>
<polygon fill="#999999" stroke="#999999" points="1467.28,-658.239 1493.36,-638.433 1461.11,-632.724 1467.28,-658.239"/>
</g>
<g id="8406_671" class="edge">
<path fill="none" stroke="#999999" stroke-width="24.4351" d="M1139,-748.585C1101.56,-781.432 1043.67,-832.223 996.821,-873.324"/>
<polygon fill="#999999" stroke="#999999" points="954.424,-825.192 974.175,-893.193 1039.03,-921.623 954.424,-825.192"/>
</g>
<g id="145304_671" class="edge">
<path fill="none" stroke="#999999" stroke-width="13.9183" d="M1146.27,-673.988C1112.73,-630.251 1058.29,-559.259 1013.79,-501.224"/>
<polygon fill="#999999" stroke="#999999" points="1042.66,-478.836 995.417,-477.261 984.679,-523.3 1042.66,-478.836"/>
</g>
<g id="4171_39514" class="edge">
<path fill="none" stroke="#999999" stroke-width="13.0769" d="M637.503,-665.089C589.608,-697.153 523.635,-741.322 474.108,-774.479"/>
<polygon fill="#999999" stroke="#999999" points="454.684,-746.174 448.852,-791.388 492.877,-803.223 454.684,-746.174"/>
</g>
<g id="2231_39514" class="edge">
<path fill="none" stroke="#999999" stroke-width="21.4904" d="M625.308,-619.202C580.612,-616.877 523.805,-613.922 477.863,-611.533"/>
<polygon fill="#999999" stroke="#999999" points="480.612,-555.187 447.722,-609.965 474.752,-667.86 480.612,-555.187"/>
</g>
<g id="8406_39514" class="edge">
<path fill="none" stroke="#999999" stroke-width="16.4423" d="M743.14,-685.076C777.963,-735.367 827.294,-806.61 865.029,-861.104"/>
<polygon fill="#999999" stroke="#999999" points="829.68,-885.872 882.243,-885.965 900.649,-836.73 829.68,-885.872"/>
</g>
<g id="4165_39514" class="edge">
<path fill="none" stroke="#999999" stroke-width="29.9038" d="M647.332,-569.454C615.781,-537.454 574.979,-496.073 538.969,-459.55"/>
<polygon fill="#999999" stroke="#999999" points="594.821,-404.392 517.862,-438.143 483.028,-514.618 594.821,-404.392"/>
</g>
<g id="145304_39514" class="edge">
<path fill="none" stroke="#999999" stroke-width="21.4904" d="M756.184,-572.297C782.782,-548.152 815.316,-518.617 845.592,-491.134"/>
<polygon fill="#999999" stroke="#999999" points="883.872,-532.573 868.167,-470.64 808.037,-449.036 883.872,-532.573"/>
</g>
<g id="2245_1137" class="edge">
<path fill="none" stroke="#999999" stroke-width="6.34615" d="M631.073,-786.168C602.757,-844.328 563.329,-925.314 536.17,-981.098"/>
<polygon fill="#999999" stroke="#999999" points="521.185,-973.821 523.03,-1008.09 551.14,-988.405 521.185,-973.821"/>
</g>
<g id="4171_1137" class="edge">
<path fill="none" stroke="#999999" stroke-width="22.3317" d="M591.919,-744.377C555.696,-759.203 512.314,-776.959 476.412,-791.654"/>
<polygon fill="#999999" stroke="#999999" points="454.187,-737.41 448.628,-803.026 498.598,-845.915 454.187,-737.41"/>
</g>
<g id="2231_1137" class="edge">
<path fill="none" stroke="#999999" stroke-width="13.0769" d="M591.553,-684.522C555.592,-670.343 512.425,-653.324 475.769,-638.871"/>
<polygon fill="#999999" stroke="#999999" points="488.226,-606.884 447.726,-627.814 463.044,-670.752 488.226,-606.884"/>
</g>
<g id="8406_1137" class="edge">
<path fill="none" stroke="#999999" stroke-width="8.87019" d="M726.069,-767.395C761.07,-798.646 805.622,-838.424 843.206,-871.981"/>
<polygon fill="#999999" stroke="#999999" points="827.964,-889.587 865.85,-892.199 858.979,-854.849 827.964,-889.587"/>
</g>
<g id="4165_1137" class="edge">
<path fill="none" stroke="#999999" stroke-width="40" d="M623.723,-645.792C591.197,-593.622 546.023,-521.166 510.41,-464.045"/>
<polygon fill="#999999" stroke="#999999" points="599.271,-408.107 494.298,-438.201 421.068,-519.211 599.271,-408.107"/>
</g>
<g id="145304_1137" class="edge">
<path fill="none" stroke="#999999" stroke-width="28.2212" d="M719.375,-654.075C758.152,-610.381 811.49,-550.279 856.031,-500.09"/>
<polygon fill="#999999" stroke="#999999" points="911.61,-549.07 876.116,-477.459 800.795,-450.725 911.61,-549.07"/>
</g>
<g id="39485" class="node">
<ellipse fill="#ffffff" stroke="cadetblue" stroke-width="10" cx="849.408" cy="-1273.56" rx="28" ry="28.5"/>
<image xlink:href="com_images/cunknown_coal_co.png" width="56px" height="56px" preserveAspectRatio="xMinYMin meet" x="821.408" y="-1301.56"/>
<ellipse fill="none" stroke="cadetblue" stroke-width="10" cx="849.408" cy="-1273.56" rx="28" ry="28.5"/>
<text text-anchor="start" x="892.408" y="-1269.56" font-family="Times Roman,serif" font-size="15.00">PACKIN COAL</text>
</g>
<g id="289" class="node">
<ellipse fill="#ffffff" stroke="cadetblue" stroke-width="10" cx="1119.35" cy="-170.29" rx="29" ry="29"/>
<image xlink:href="com_images/cunknown_oil_co.png" width="58px" height="58px" preserveAspectRatio="xMinYMin meet" x="1090.35" y="-199.29"/>
<ellipse fill="none" stroke="cadetblue" stroke-width="10" cx="1119.35" cy="-170.29" rx="29" ry="29"/>
<text text-anchor="start" x="1163.35" y="-166.29" font-family="Times Roman,serif" font-size="15.00">Arctic Slope Regional</text>
</g>
<g id="4211" class="node">
<ellipse fill="#ffffff" stroke="cadetblue" stroke-width="10" cx="31" cy="-589.139" rx="30" ry="30"/>
<image xlink:href="com_images/cunknown_oil_co.png" width="60px" height="60px" preserveAspectRatio="xMinYMin meet" x="1" y="-619.139"/>
<ellipse fill="none" stroke="cadetblue" stroke-width="10" cx="31" cy="-589.139" rx="30" ry="30"/>
<text text-anchor="start" x="76" y="-585.139" font-family="Times Roman,serif" font-size="15.00">Peak Oilfield Service</text>
</g>
<g id="31946" class="node">
<ellipse fill="#ffffff" stroke="cadetblue" stroke-width="10" cx="246.114" cy="-75.1143" rx="30" ry="30"/>
<image xlink:href="com_images/c31946.png" width="60px" height="60px" preserveAspectRatio="xMinYMin meet" x="216.114" y="-105.114"/>
<ellipse fill="none" stroke="cadetblue" stroke-width="10" cx="246.114" cy="-75.1143" rx="30" ry="30"/>
<text text-anchor="start" x="291.114" y="-71.1143" font-family="Times Roman,serif" font-size="15.00">NANA Regional Corp</text>
</g>
<g id="38670" class="node">
<ellipse fill="#ffffff" stroke="cadetblue" stroke-width="10" cx="58.9459" cy="-930.404" rx="30" ry="30"/>
<image xlink:href="com_images/cunknown_oil_co.png" width="60px" height="60px" preserveAspectRatio="xMinYMin meet" x="28.9459" y="-960.404"/>
<ellipse fill="none" stroke="cadetblue" stroke-width="10" cx="58.9459" cy="-930.404" rx="30" ry="30"/>
<text text-anchor="start" x="103.9459" y="-926.404" font-family="Times Roman,serif" font-size="15.00">SELF EMPLOYED</text>
</g>
<g id="951" class="node">
<ellipse fill="#ffffff" stroke="cadetblue" stroke-width="10" cx="116.907" cy="-277.519" rx="30" ry="30"/>
<image xlink:href="com_images/c951.png" width="60px" height="60px" preserveAspectRatio="xMinYMin meet" x="86.9073" y="-307.519"/>
<ellipse fill="none" stroke="cadetblue" stroke-width="10" cx="116.907" cy="-277.519" rx="30" ry="30"/>
<text text-anchor="start" x="161.907" y="-273.519" font-family="Times Roman,serif" font-size="15.00">Chevron Corp</text>
</g>
<g id="39474" class="node">
<ellipse fill="#ffffff" stroke="cadetblue" stroke-width="10" cx="1784.07" cy="-837.556" rx="30" ry="30"/>
<image xlink:href="com_images/cunknown_oil_co.png" width="60px" height="60px" preserveAspectRatio="xMinYMin meet" x="1754.07" y="-867.556"/>
<ellipse fill="none" stroke="cadetblue" stroke-width="10" cx="1784.07" cy="-837.556" rx="30" ry="30"/>
<text text-anchor="start" x="1829.07" y="-833.556" font-family="Times Roman,serif" font-size="15.00">NINESTAR ENTERPRISES</text>
</g>
<g id="2229" class="node">
<polygon fill="#ffffff" stroke="#3333cc" stroke-width="10" points="1558.94,-169.743 1504.94,-169.743 1504.94,-115.743 1558.94,-115.743 1558.94,-169.743"/>
<image xlink:href="can_images/2229.jpg" width="40.32px" height="54px" preserveAspectRatio="xMinYMin meet" x="1511.78" y="-169.743"/>
<polygon fill="none" stroke="#3333cc" stroke-width="10" points="1558.94,-169.743 1504.94,-169.743 1504.94,-115.743 1558.94,-115.743 1558.94,-169.743"/>
<text text-anchor="middle" x="1531.94" y="-138.743" font-family="Times Roman,serif" font-size="15.00">Johnny Ellis</text>
</g>
<g id="37852" class="node">
<ellipse fill="#ffffff" stroke="cadetblue" stroke-width="10" cx="1093.71" cy="-548.05" rx="31" ry="31"/>
<image xlink:href="com_images/cunknown_oil_co.png" width="62px" height="62px" preserveAspectRatio="xMinYMin meet" x="1062.71" y="-579.05"/>
<ellipse fill="none" stroke="cadetblue" stroke-width="10" cx="1093.71" cy="-548.05" rx="31" ry="31"/>
<text text-anchor="start" x="1139.71" y="-544.05" font-family="Times Roman,serif" font-size="15.00">HOMEMAKER</text>
</g>
<g id="30934" class="node">
<ellipse fill="#ffffff" stroke="cadetblue" stroke-width="10" cx="1185.34" cy="-1158.48" rx="31" ry="31.5"/>
<image xlink:href="com_images/cunknown_coal_co.png" width="62px" height="62px" preserveAspectRatio="xMinYMin meet" x="1154.34" y="-1189.48"/>
<ellipse fill="none" stroke="cadetblue" stroke-width="10" cx="1185.34" cy="-1158.48" rx="31" ry="31.5"/>
<text text-anchor="start" x="1231.34" y="-1154.48" font-family="Times Roman,serif" font-size="15.00">Doyon Limited</text>
</g>
<g id="32624" class="node">
<ellipse fill="#ffffff" stroke="cadetblue" stroke-width="10" cx="1850.96" cy="-538.005" rx="31" ry="31.5"/>
<image xlink:href="com_images/cunknown_oil_co.png" width="62px" height="62px" preserveAspectRatio="xMinYMin meet" x="1819.96" y="-569.005"/>
<ellipse fill="none" stroke="cadetblue" stroke-width="10" cx="1850.96" cy="-538.005" rx="31" ry="31.5"/>
<text text-anchor="start" x="1896.96" y="-534.005" font-family="Times Roman,serif" font-size="15.00">Chugach Electric Assn</text>
</g>
<g id="1737" class="node">
<ellipse fill="#ffffff" stroke="cadetblue" stroke-width="10" cx="210.904" cy="-1235.93" rx="32" ry="32.5"/>
<image xlink:href="com_images/c28.png" width="64px" height="64px" preserveAspectRatio="xMinYMin meet" x="178.904" y="-1267.93"/>
<ellipse fill="none" stroke="cadetblue" stroke-width="10" cx="210.904" cy="-1235.93" rx="32" ry="32.5"/>
<text text-anchor="start" x="257.904" y="-1231.93" font-family="Times Roman,serif" font-size="15.00">Exxon Mobil</text>
</g>
<g id="2841" class="node">
<ellipse fill="#ffffff" stroke="cadetblue" stroke-width="10" cx="1452.5" cy="-936.5" rx="32" ry="32.5"/>
<image xlink:href="com_images/c48.png" width="64px" height="64px" preserveAspectRatio="xMinYMin meet" x="1420.5" y="-968.5"/>
<ellipse fill="none" stroke="cadetblue" stroke-width="10" cx="1452.5" cy="-936.5" rx="32" ry="32.5"/>
<text text-anchor="start" x="1499.5" y="-932.5" font-family="Times Roman,serif" font-size="15.00">Koch Industries</text>
</g>
<g id="3179" class="node">
<polygon fill="#ffffff" stroke="#cc3333" stroke-width="10" points="1685.15,-1169.15 1627.15,-1169.15 1627.15,-1111.15 1685.15,-1111.15 1685.15,-1169.15"/>
<image xlink:href="can_images/3179.jpg" width="43.3067px" height="58px" preserveAspectRatio="xMinYMin meet" x="1634.49" y="-1169.15"/>
<polygon fill="none" stroke="#cc3333" stroke-width="10" points="1685.15,-1169.15 1627.15,-1169.15 1627.15,-1111.15 1685.15,-1111.15 1685.15,-1169.15"/>
<text text-anchor="middle" x="1656.15" y="-1136.15" font-family="Times Roman,serif" font-size="15.00">John Coghill</text>
</g>
<g id="168" class="node">
<ellipse fill="#ffffff" stroke="cadetblue" stroke-width="10" cx="1307.49" cy="-433.857" rx="32" ry="32.5"/>
<image xlink:href="com_images/cunknown_oil_co.png" width="64px" height="64px" preserveAspectRatio="xMinYMin meet" x="1275.49" y="-465.857"/>
<ellipse fill="none" stroke="cadetblue" stroke-width="10" cx="1307.49" cy="-433.857" rx="32" ry="32.5"/>
<text text-anchor="start" x="1354.49" y="-429.857" font-family="Times Roman,serif" font-size="15.00">Alyeska Pipeline Service Co</text>
</g>
<g id="38177" class="node">
<ellipse fill="#ffffff" stroke="cadetblue" stroke-width="10" cx="1047.25" cy="-55.2568" rx="34" ry="34"/>
<image xlink:href="com_images/cunknown_oil_co.png" width="68px" height="68px" preserveAspectRatio="xMinYMin meet" x="1013.25" y="-89.2568"/>
<ellipse fill="none" stroke="cadetblue" stroke-width="10" cx="1047.25" cy="-55.2568" rx="34" ry="34"/>
<text text-anchor="start" x="1096.25" y="-51.2568" font-family="Times Roman,serif" font-size="15.00">N/A</text>
</g>
<g id="1677" class="node">
<ellipse fill="#ffffff" stroke="cadetblue" stroke-width="10" cx="684.19" cy="-115.154" rx="35" ry="35"/>
<image xlink:href="com_images/c1677.png" width="70px" height="70px" preserveAspectRatio="xMinYMin meet" x="649.19" y="-150.154"/>
<ellipse fill="none" stroke="cadetblue" stroke-width="10" cx="684.19" cy="-115.154" rx="35" ry="35"/>
<text text-anchor="start" x="734.19" y="-111.154" font-family="Times Roman,serif" font-size="15.00">Enstar Natural Gas</text>
</g>
<g id="1991" class="node">
<ellipse fill="#ffffff" stroke="cadetblue" stroke-width="10" cx="468.626" cy="-1385.33" rx="36" ry="36.5"/>
<image xlink:href="com_images/cunknown_oil_co.png" width="72px" height="72px" preserveAspectRatio="xMinYMin meet" x="432.626" y="-1421.33"/>
<ellipse fill="none" stroke="cadetblue" stroke-width="10" cx="468.626" cy="-1385.33" rx="36" ry="36.5"/>
<text text-anchor="start" x="519.626" y="-1381.33" font-family="Times Roman,serif" font-size="15.00">Gas Station Operator</text>
</g>
<g id="39357" class="node">
<ellipse fill="#ffffff" stroke="cadetblue" stroke-width="10" cx="909.566" cy="-37.5" rx="36" ry="36.5"/>
<image xlink:href="com_images/cunknown_oil_co.png" width="72px" height="72px" preserveAspectRatio="xMinYMin meet" x="873.566" y="-73.5"/>
<ellipse fill="none" stroke="cadetblue" stroke-width="10" cx="909.566" cy="-37.5" rx="36" ry="36.5"/>
<text text-anchor="start" x="960.566" y="-33.5" font-family="Times Roman,serif" font-size="15.00">HAWK CONSULTANTS</text>
</g>
<g id="38371" class="node">
<ellipse fill="#ffffff" stroke="cadetblue" stroke-width="10" cx="1034.58" cy="-1265.68" rx="36" ry="36.5"/>
<image xlink:href="com_images/cunknown_oil_co.png" width="72px" height="72px" preserveAspectRatio="xMinYMin meet" x="998.575" y="-1301.68"/>
<ellipse fill="none" stroke="cadetblue" stroke-width="10" cx="1034.58" cy="-1265.68" rx="36" ry="36.5"/>
<text text-anchor="start" x="1085.58" y="-1261.68" font-family="Times Roman,serif" font-size="15.00">OWNER</text>
</g>
<g id="39472" class="node">
<ellipse fill="#ffffff" stroke="cadetblue" stroke-width="10" cx="1307.05" cy="-341.467" rx="37" ry="37.5"/>
<image xlink:href="com_images/cunknown_oil_co.png" width="74px" height="74px" preserveAspectRatio="xMinYMin meet" x="1270.05" y="-378.467"/>
<ellipse fill="none" stroke="cadetblue" stroke-width="10" cx="1307.05" cy="-341.467" rx="37" ry="37.5"/>
<text text-anchor="start" x="1359.05" y="-337.467" font-family="Times Roman,serif" font-size="15.00">NINE STAR ENTERPRISES</text>
</g>
<g id="8800" class="node">
<polygon fill="#ffffff" stroke="#3333cc" stroke-width="10" points="1561.66,-664.641 1493.66,-664.641 1493.66,-595.641 1561.66,-595.641 1561.66,-664.641"/>
<image xlink:href="can_images/8800.jpg" width="51.52px" height="69px" preserveAspectRatio="xMinYMin meet" x="1501.9" y="-664.641"/>
<polygon fill="none" stroke="#3333cc" stroke-width="10" points="1561.66,-664.641 1493.66,-664.641 1493.66,-595.641 1561.66,-595.641 1561.66,-664.641"/>
<text text-anchor="middle" x="1527.66" y="-626.141" font-family="Times Roman,serif" font-size="15.00">Bill Wielechowski</text>
</g>
<g id="2245" class="node">
<polygon fill="#ffffff" stroke="#3333cc" stroke-width="10" points="541.134,-1081.35 469.134,-1081.35 469.134,-1008.35 541.134,-1008.35 541.134,-1081.35"/>
<image xlink:href="can_images/2245.jpg" width="54.5067px" height="73px" preserveAspectRatio="xMinYMin meet" x="477.881" y="-1081.35"/>
<polygon fill="none" stroke="#3333cc" stroke-width="10" points="541.134,-1081.35 469.134,-1081.35 469.134,-1008.35 541.134,-1008.35 541.134,-1081.35"/>
<text text-anchor="middle" x="505.134" y="-1040.85" font-family="Times Roman,serif" font-size="15.00">Dennis Egan</text>
</g>
<g id="39350" class="node">
<ellipse fill="#ffffff" stroke="cadetblue" stroke-width="10" cx="719.697" cy="-207.301" rx="43" ry="43"/>
<image xlink:href="com_images/c39350.png" width="86px" height="86px" preserveAspectRatio="xMinYMin meet" x="676.697" y="-250.301"/>
<ellipse fill="none" stroke="cadetblue" stroke-width="10" cx="719.697" cy="-207.301" rx="43" ry="43"/>
<text text-anchor="start" x="777.697" y="-203.301" font-family="Times Roman,serif" font-size="15.00">CONAM CONSTRUCTION</text>
</g>
<g id="5460" class="node">
<ellipse fill="#ffffff" stroke="cadetblue" stroke-width="10" cx="669.013" cy="-386.655" rx="48" ry="48.5"/>
<image xlink:href="com_images/c185.png" width="96px" height="96px" preserveAspectRatio="xMinYMin meet" x="621.013" y="-434.655"/>
<ellipse fill="none" stroke="cadetblue" stroke-width="10" cx="669.013" cy="-386.655" rx="48" ry="48.5"/>
<text text-anchor="start" x="732.013" y="-382.655" font-family="Times Roman,serif" font-size="15.00">Tesoro Petroleum</text>
</g>
<g id="4171" class="node">
<polygon fill="#ffffff" stroke="#cc3333" stroke-width="10" points="448.475,-865.598 360.475,-865.598 360.475,-776.598 448.475,-776.598 448.475,-865.598"/>
<image xlink:href="can_images/4171.jpg" width="62.3px" height="89px" preserveAspectRatio="xMinYMin meet" x="373.325" y="-865.598"/>
<polygon fill="none" stroke="#cc3333" stroke-width="10" points="448.475,-865.598 360.475,-865.598 360.475,-776.598 448.475,-776.598 448.475,-865.598"/>
<text text-anchor="middle" x="404.475" y="-817.098" font-family="Times Roman,serif" font-size="15.00">Charlie Huggins</text>
</g>
<g id="671" class="node">
<ellipse fill="#ffffff" stroke="cadetblue" stroke-width="10" cx="1177.54" cy="-714.771" rx="51" ry="51"/>
<image xlink:href="com_images/c671.png" width="102px" height="102px" preserveAspectRatio="xMinYMin meet" x="1126.54" y="-765.771"/>
<ellipse fill="none" stroke="cadetblue" stroke-width="10" cx="1177.54" cy="-714.771" rx="51" ry="51"/>
<text text-anchor="start" x="1243.54" y="-710.771" font-family="Times Roman,serif" font-size="15.00">BP</text>
</g>
<g id="2231" class="node">
<polygon fill="#ffffff" stroke="#3333cc" stroke-width="10" points="447.577,-659.753 343.577,-659.753 343.577,-554.753 447.577,-554.753 447.577,-659.753"/>
<image xlink:href="can_images/2231.jpg" width="78.4px" height="105px" preserveAspectRatio="xMinYMin meet" x="356.377" y="-659.753"/>
<polygon fill="none" stroke="#3333cc" stroke-width="10" points="447.577,-659.753 343.577,-659.753 343.577,-554.753 447.577,-554.753 447.577,-659.753"/>
<text text-anchor="middle" x="395.577" y="-603.253" font-family="Times Roman,serif" font-size="15.00">Lyman Hoffman</text>
</g>
<g id="8406" class="node">
<polygon fill="#ffffff" stroke="#3333cc" stroke-width="10" points="974.099,-995.136 866.099,-995.136 866.099,-886.136 974.099,-886.136 974.099,-995.136"/>
<image xlink:href="can_images/8406.jpg" width="79.2727px" height="109px" preserveAspectRatio="xMinYMin meet" x="880.463" y="-995.136"/>
<polygon fill="none" stroke="#3333cc" stroke-width="10" points="974.099,-995.136 866.099,-995.136 866.099,-886.136 974.099,-886.136 974.099,-995.136"/>
<text text-anchor="middle" x="920.099" y="-936.636" font-family="Times Roman,serif" font-size="15.00">Joe Thomas</text>
</g>
<g id="4165" class="node">
<polygon fill="#ffffff" stroke="#cc3333" stroke-width="10" points="518.671,-438.04 388.671,-438.04 388.671,-308.04 518.671,-308.04 518.671,-438.04"/>
<polygon fill="none" stroke="#cc3333" stroke-width="10" points="518.671,-438.04 388.671,-438.04 388.671,-308.04 518.671,-308.04 518.671,-438.04"/>
<text text-anchor="middle" x="453.671" y="-369.04" font-family="Times Roman,serif" font-size="15.00">Lesil McGuire</text>
</g>
<g id="39514" class="node">
<ellipse fill="#ffffff" stroke="cadetblue" stroke-width="10" cx="700.224" cy="-623.098" rx="75" ry="75.5"/>
<image xlink:href="com_images/c39514.png" width="150px" height="150px" preserveAspectRatio="xMinYMin meet" x="625.224" y="-698.098"/>
<ellipse fill="none" stroke="cadetblue" stroke-width="10" cx="700.224" cy="-623.098" rx="75" ry="75.5"/>
<text text-anchor="start" x="790.224" y="-619.098" font-family="Times Roman,serif" font-size="15.00">UDELHOVEN OIL</text>
</g>
<g id="1137" class="node">
<ellipse fill="#ffffff" stroke="cadetblue" stroke-width="10" cx="666.226" cy="-713.964" rx="80" ry="80"/>
<image xlink:href="com_images/c92.png" width="160px" height="160px" preserveAspectRatio="xMinYMin meet" x="586.226" y="-793.964"/>
<ellipse fill="none" stroke="cadetblue" stroke-width="10" cx="666.226" cy="-713.964" rx="80" ry="80"/>
<text text-anchor="start" x="761.226" y="-709.964" font-family="Times Roman,serif" font-size="15.00">ConocoPhillips</text>
</g>
<g id="145304" class="node">
<polygon fill="#ffffff" stroke="#cc3333" stroke-width="10" points="1012.2,-477.25 868.199,-477.25 868.199,-333.25 1012.2,-333.25 1012.2,-477.25"/>
<image xlink:href="can_images/145304.jpg" width="116.911px" height="144px" preserveAspectRatio="xMinYMin meet" x="881.743" y="-477.25"/>
<polygon fill="none" stroke="#cc3333" stroke-width="10" points="1012.2,-477.25 868.199,-477.25 868.199,-333.25 1012.2,-333.25 1012.2,-477.25"/>
<text text-anchor="middle" x="940.199" y="-401.25" font-family="Times Roman,serif" font-size="15.00">Cathy Giessel</text>
</g>
</g>
</svg>
