<svg width="238.93527083333px" height="239px"
  xmlns="http://www.w3.org/2000/svg" xmlns:xlink="http://www.w3.org/1999/xlink">
<g id="graph0" class="graph" transform="scale(0.41358701041666 0.41358701041666) rotate(0) translate(4 573.87)">

<polygon id='svgscreen' style="opacity:0;" fill="#ffffff" stroke="#ffffff" points="-4,5 -4,-573.87 574.715,-573.87 574.715,5 -4,5"/>
<g id="4387_3716" class="edge">
<path fill="none" stroke="#999999" stroke-width="5" d="M433.155,-136.828C401.485,-168.65 362.373,-207.95 332.437,-238.029"/>
<polygon fill="#999999" stroke="#999999" points="323.022,-228.883 311.162,-259.406 341.628,-247.4 323.022,-228.883"/>
</g>
<g id="4387_38226" class="edge">
<path fill="none" stroke="#999999" stroke-width="40" d="M139.648,-430.453C171.169,-399.059 209.708,-360.674 239.329,-331.172"/>
<polygon fill="#999999" stroke="#999999" points="313.709,-405.286 260.867,-309.72 165.515,-256.495 313.709,-405.286"/>
</g>
<g id="4387" class="node">
<polygon fill="#ffffff" stroke="#cc3333" stroke-width="10" points="311.028,-310.16 261.028,-310.16 261.028,-259.16 311.028,-259.16 311.028,-310.16"/>
<image xlink:href="can_images/unknownCandidate.jpg" width="50px" height="50px" preserveAspectRatio="xMinYMin meet" x="261.028" y="-309.66"/>
<polygon fill="none" stroke="#cc3333" stroke-width="10" points="311.028,-310.16 261.028,-310.16 261.028,-259.16 311.028,-259.16 311.028,-310.16"/>
<text text-anchor="middle" x="286.028" y="-280.66" font-family="Times Roman,serif" font-size="15.00">Rick Keene</text>
</g>
<g id="3716" class="node">
<ellipse fill="#ffffff" stroke="cadetblue" stroke-width="10" cx="489.215" cy="-80.5" rx="79" ry="79.5"/>
<image xlink:href="com_images/c109.png" width="158px" height="158px" preserveAspectRatio="xMinYMin meet" x="410.215" y="-159.5"/>
<ellipse fill="none" stroke="cadetblue" stroke-width="10" cx="489.215" cy="-80.5" rx="79" ry="79.5"/>
<text text-anchor="start" x="583.215" y="-76.5" font-family="Times Roman,serif" font-size="15.00">Occidental Petroleum</text>
</g>
<g id="38226" class="node">
<ellipse fill="#ffffff" stroke="cadetblue" stroke-width="10" cx="82" cy="-487.87" rx="81" ry="81"/>
<image xlink:href="com_images/cunknown_oil_co.png" width="162px" height="162px" preserveAspectRatio="xMinYMin meet" x="1" y="-568.87"/>
<ellipse fill="none" stroke="cadetblue" stroke-width="10" cx="82" cy="-487.87" rx="81" ry="81"/>
<text text-anchor="start" x="178" y="-483.87" font-family="Times Roman,serif" font-size="15.00">NORTHGATE PETROLEUM CO</text>
</g>
</g>
</svg>
