<svg width="603.28058333333px" height="614px"
  xmlns="http://www.w3.org/2000/svg" xmlns:xlink="http://www.w3.org/1999/xlink">
<g id="graph0" class="graph" transform="scale(0.72963666666666 0.72963666666666) rotate(0) translate(4 837.516)">

<polygon id='svgscreen' style="opacity:0;" fill="#ffffff" stroke="#ffffff" points="-4,5 -4,-837.516 823.823,-837.516 823.823,5 -4,5"/>
<g id="4387_951" class="edge">
<path fill="none" stroke="#999999" stroke-width="5" d="M339.854,-456.844C306.636,-475.381 267.783,-497.062 237.395,-514.02"/>
<polygon fill="#999999" stroke="#999999" points="230.634,-502.762 210.833,-528.843 243.426,-525.685 230.634,-502.762"/>
</g>
<g id="8212_951" class="edge">
<path fill="none" stroke="#999999" stroke-width="15.2238" d="M490.111,-399.225C562.303,-382.8 667.139,-358.948 731.631,-344.274"/>
<polygon fill="#999999" stroke="#999999" points="740.906,-383.148 761.293,-337.526 723.174,-305.215 740.906,-383.148"/>
</g>
<g id="8944_951" class="edge">
<path fill="none" stroke="#999999" stroke-width="15.5882" d="M331.121,-432.649C259.62,-446.448 156.292,-466.39 91.9909,-478.799"/>
<polygon fill="#999999" stroke="#999999" points="84.0006,-438.667 62.2982,-484.53 99.5087,-519.022 84.0006,-438.667"/>
</g>
<g id="3239_951" class="edge">
<path fill="none" stroke="#999999" stroke-width="16.3169" d="M412.301,-336.095C413.708,-262.432 415.751,-155.543 417.012,-89.526"/>
<polygon fill="#999999" stroke="#999999" points="459.844,-89.9343 417.593,-59.1214 374.196,-88.2976 459.844,-89.9343"/>
</g>
<g id="4419_951" class="edge">
<path fill="none" stroke="#999999" stroke-width="16.3169" d="M432.009,-495.638C441.166,-529.388 451.687,-568.165 460.138,-599.313"/>
<polygon fill="#999999" stroke="#999999" points="418.859,-610.744 468.052,-628.481 501.534,-588.312 418.859,-610.744"/>
</g>
<g id="2497_951" class="edge">
<path fill="none" stroke="#999999" stroke-width="17.0456" d="M476.288,-368.97C529.315,-329.882 603.06,-275.521 652.568,-239.026"/>
<polygon fill="#999999" stroke="#999999" points="679.374,-274.854 676.973,-221.036 626.275,-202.82 679.374,-274.854"/>
</g>
<g id="3249_951" class="edge">
<path fill="none" stroke="#999999" stroke-width="17.0456" d="M375.919,-490.899C347.203,-551.592 307.055,-636.448 280.751,-692.043"/>
<polygon fill="#999999" stroke="#999999" points="240.274,-672.972 267.89,-719.226 321.166,-711.244 240.274,-672.972"/>
</g>
<g id="4458_951" class="edge">
<path fill="none" stroke="#999999" stroke-width="18.8674" d="M473.285,-469.327C523.434,-511.063 593.062,-569.011 640.644,-608.611"/>
<polygon fill="#999999" stroke="#999999" points="609.181,-646.861 663.922,-627.984 672.545,-570.725 609.181,-646.861"/>
</g>
<g id="3256_951" class="edge">
<path fill="none" stroke="#999999" stroke-width="20.3248" d="M349.101,-470.499C295.677,-516.617 219.174,-582.658 168.328,-626.551"/>
<polygon fill="#999999" stroke="#999999" points="133.161,-586.427 145.315,-646.417 202.887,-667.2 133.161,-586.427"/>
</g>
<g id="2502_951" class="edge">
<path fill="none" stroke="#999999" stroke-width="21.7822" d="M446.521,-490.182C478.457,-555.268 524.608,-649.322 554.049,-709.323"/>
<polygon fill="#999999" stroke="#999999" points="502.845,-734.769 567.392,-736.514 605.508,-684.393 502.845,-734.769"/>
</g>
<g id="2504_951" class="edge">
<path fill="none" stroke="#999999" stroke-width="21.7822" d="M488.743,-440.498C558.212,-461.178 658.355,-490.989 721.434,-509.766"/>
<polygon fill="#999999" stroke="#999999" points="705.228,-564.6 750.295,-518.357 737.855,-454.996 705.228,-564.6"/>
</g>
<g id="8193_951" class="edge">
<path fill="none" stroke="#999999" stroke-width="24.6971" d="M491.832,-418.041C527.722,-418.377 569.234,-418.765 602.471,-419.077"/>
<polygon fill="#999999" stroke="#999999" points="602.101,-483.906 632.707,-419.36 603.315,-354.252 602.101,-483.906"/>
</g>
<g id="4385_951" class="edge">
<path fill="none" stroke="#999999" stroke-width="25.7901" d="M407.09,-498.662C403.864,-570.415 399.231,-673.443 396.292,-738.784"/>
<polygon fill="#999999" stroke="#999999" points="328.644,-736.142 394.927,-769.153 463.905,-742.225 328.644,-736.142"/>
</g>
<g id="7943_951" class="edge">
<path fill="none" stroke="#999999" stroke-width="40" d="M352.027,-360.977C303.239,-314.198 234.246,-248.046 185.953,-201.742"/>
<polygon fill="#999999" stroke="#999999" points="258.412,-125.75 164.088,-180.777 113.073,-277.33 258.412,-125.75"/>
</g>
<g id="4452_951" class="edge">
<path fill="none" stroke="#999999" stroke-width="40" d="M331.838,-398.234C263.225,-381.673 165.036,-357.972 101.028,-342.523"/>
<polygon fill="#999999" stroke="#999999" points="125.62,-240.443 71.8204,-335.472 76.3458,-444.58 125.62,-240.443"/>
</g>
<g id="4427_951" class="edge">
<path fill="none" stroke="#999999" stroke-width="40" d="M379.949,-342.287C355.18,-281.981 320.765,-198.187 297.325,-141.115"/>
<polygon fill="#999999" stroke="#999999" points="394.394,-101.084 285.87,-113.225 200.14,-180.867 394.394,-101.084"/>
</g>
<g id="142153_951" class="edge">
<path fill="none" stroke="#999999" stroke-width="40" d="M432.153,-339.147C440.971,-306.953 451.069,-270.091 459.469,-239.425"/>
<polygon fill="#999999" stroke="#999999" points="560.828,-266.84 467.484,-210.165 358.289,-211.358 560.828,-266.84"/>
</g>
<g id="142304_951" class="edge">
<path fill="none" stroke="#999999" stroke-width="40" d="M341.621,-374.774C312.356,-356.78 278.557,-335.997 250.252,-318.593"/>
<polygon fill="#999999" stroke="#999999" points="305.192,-229.113 224.638,-302.843 195.195,-408 305.192,-229.113"/>
</g>
<g id="8958_951" class="edge">
<path fill="none" stroke="#999999" stroke-width="40" d="M451.712,-347.345C486.638,-287.713 536.37,-202.804 569.879,-145.592"/>
<polygon fill="#999999" stroke="#999999" points="660.548,-198.546 585.107,-119.593 479.342,-92.4127 660.548,-198.546"/>
</g>
<g id="4387" class="node">
<polygon fill="#ffffff" stroke="#cc3333" stroke-width="10" points="210.709,-568.363 160.709,-568.363 160.709,-517.363 210.709,-517.363 210.709,-568.363"/>
<image xlink:href="can_images/unknownCandidate.jpg" width="50px" height="50px" preserveAspectRatio="xMinYMin meet" x="160.709" y="-567.863"/>
<polygon fill="none" stroke="#cc3333" stroke-width="10" points="210.709,-568.363 160.709,-568.363 160.709,-517.363 210.709,-517.363 210.709,-568.363"/>
<text text-anchor="middle" x="185.709" y="-538.863" font-family="Times Roman,serif" font-size="15.00">Rick Keene</text>
</g>
<g id="8212" class="node">
<polygon fill="#ffffff" stroke="#3333cc" stroke-width="10" points="817.323,-359.648 761.323,-359.648 761.323,-302.648 817.323,-302.648 817.323,-359.648"/>
<image xlink:href="can_images/8212.jpg" width="46.2772px" height="57px" preserveAspectRatio="xMinYMin meet" x="766.185" y="-359.648"/>
<polygon fill="none" stroke="#3333cc" stroke-width="10" points="817.323,-359.648 761.323,-359.648 761.323,-302.648 817.323,-302.648 817.323,-359.648"/>
<text text-anchor="middle" x="789.323" y="-327.148" font-family="Times Roman,serif" font-size="15.00">Kevin De León</text>
</g>
<g id="8944" class="node">
<polygon fill="#ffffff" stroke="#3333cc" stroke-width="10" points="62.0987,-519.165 4.0987,-519.165 4.0987,-461.165 62.0987,-461.165 62.0987,-519.165"/>
<image xlink:href="can_images/8944.jpg" width="47.0891px" height="58px" preserveAspectRatio="xMinYMin meet" x="9.55415" y="-519.165"/>
<polygon fill="none" stroke="#3333cc" stroke-width="10" points="62.0987,-519.165 4.0987,-519.165 4.0987,-461.165 62.0987,-461.165 62.0987,-519.165"/>
<text text-anchor="middle" x="33.0987" y="-486.165" font-family="Times Roman,serif" font-size="15.00">Mark DeSaulnier</text>
</g>
<g id="3239" class="node">
<polygon fill="#ffffff" stroke="#3333cc" stroke-width="10" points="447.149,-59 389.149,-59 389.149,-1 447.149,-1 447.149,-59"/>
<image xlink:href="can_images/3239.jpg" width="47.0891px" height="58px" preserveAspectRatio="xMinYMin meet" x="394.605" y="-59"/>
<polygon fill="none" stroke="#3333cc" stroke-width="10" points="447.149,-59 389.149,-59 389.149,-1 447.149,-1 447.149,-59"/>
<text text-anchor="middle" x="418.149" y="-26" font-family="Times Roman,serif" font-size="15.00">Gloria Negrete McLeod</text>
</g>
<g id="4419" class="node">
<polygon fill="#ffffff" stroke="#3333cc" stroke-width="10" points="504.952,-686.598 446.952,-686.598 446.952,-628.598 504.952,-628.598 504.952,-686.598"/>
<image xlink:href="can_images/4419.jpg" width="47.0891px" height="58px" preserveAspectRatio="xMinYMin meet" x="452.407" y="-686.598"/>
<polygon fill="none" stroke="#3333cc" stroke-width="10" points="504.952,-686.598 446.952,-686.598 446.952,-628.598 504.952,-628.598 504.952,-686.598"/>
<text text-anchor="middle" x="475.952" y="-653.598" font-family="Times Roman,serif" font-size="15.00">Leland Yee</text>
</g>
<g id="2497" class="node">
<polygon fill="#ffffff" stroke="#cc3333" stroke-width="10" points="735.059,-229.096 677.059,-229.096 677.059,-170.096 735.059,-170.096 735.059,-229.096"/>
<image xlink:href="can_images/2497.jpg" width="47.901px" height="59px" preserveAspectRatio="xMinYMin meet" x="682.108" y="-229.096"/>
<polygon fill="none" stroke="#cc3333" stroke-width="10" points="735.059,-229.096 677.059,-229.096 677.059,-170.096 735.059,-170.096 735.059,-229.096"/>
<text text-anchor="middle" x="706.059" y="-195.596" font-family="Times Roman,serif" font-size="15.00">Tom Berryhill</text>
</g>
<g id="3249" class="node">
<polygon fill="#ffffff" stroke="#cc3333" stroke-width="10" points="282.807,-778.491 224.807,-778.491 224.807,-719.491 282.807,-719.491 282.807,-778.491"/>
<image xlink:href="can_images/3249.jpg" width="49.0536px" height="59px" preserveAspectRatio="xMinYMin meet" x="229.28" y="-778.491"/>
<polygon fill="none" stroke="#cc3333" stroke-width="10" points="282.807,-778.491 224.807,-778.491 224.807,-719.491 282.807,-719.491 282.807,-778.491"/>
<text text-anchor="middle" x="253.807" y="-744.991" font-family="Times Roman,serif" font-size="15.00">Joel Anderson</text>
</g>
<g id="4458" class="node">
<polygon fill="#ffffff" stroke="#cc3333" stroke-width="10" points="724.11,-683.108 664.11,-683.108 664.11,-623.108 724.11,-623.108 724.11,-683.108"/>
<image xlink:href="can_images/4458.jpg" width="48.7129px" height="60px" preserveAspectRatio="xMinYMin meet" x="669.754" y="-683.108"/>
<polygon fill="none" stroke="#cc3333" stroke-width="10" points="724.11,-683.108 664.11,-683.108 664.11,-623.108 724.11,-623.108 724.11,-683.108"/>
<text text-anchor="middle" x="694.11" y="-649.108" font-family="Times Roman,serif" font-size="15.00">Doug La Malfa</text>
</g>
<g id="3256" class="node">
<polygon fill="#ffffff" stroke="#3333cc" stroke-width="10" points="144.955,-702.625 84.9549,-702.625 84.9549,-642.625 144.955,-642.625 144.955,-702.625"/>
<image xlink:href="can_images/3256.jpg" width="48.7129px" height="60px" preserveAspectRatio="xMinYMin meet" x="90.5985" y="-702.625"/>
<polygon fill="none" stroke="#3333cc" stroke-width="10" points="144.955,-702.625 84.9549,-702.625 84.9549,-642.625 144.955,-642.625 144.955,-702.625"/>
<text text-anchor="middle" x="114.955" y="-668.625" font-family="Times Roman,serif" font-size="15.00">Darrell Steinberg</text>
</g>
<g id="2502" class="node">
<polygon fill="#ffffff" stroke="#3333cc" stroke-width="10" points="612.382,-797.564 552.382,-797.564 552.382,-736.564 612.382,-736.564 612.382,-797.564"/>
<image xlink:href="can_images/2502.jpg" width="49.5248px" height="61px" preserveAspectRatio="xMinYMin meet" x="557.62" y="-797.564"/>
<polygon fill="none" stroke="#3333cc" stroke-width="10" points="612.382,-797.564 552.382,-797.564 552.382,-736.564 612.382,-736.564 612.382,-797.564"/>
<text text-anchor="middle" x="582.382" y="-763.064" font-family="Times Roman,serif" font-size="15.00">Lou Correa</text>
</g>
<g id="2504" class="node">
<polygon fill="#ffffff" stroke="#3333cc" stroke-width="10" points="810.643,-557.891 750.643,-557.891 750.643,-496.891 810.643,-496.891 810.643,-557.891"/>
<image xlink:href="can_images/2504.jpg" width="49.5248px" height="61px" preserveAspectRatio="xMinYMin meet" x="755.881" y="-557.891"/>
<polygon fill="none" stroke="#3333cc" stroke-width="10" points="810.643,-557.891 750.643,-557.891 750.643,-496.891 810.643,-496.891 810.643,-557.891"/>
<text text-anchor="middle" x="780.643" y="-523.391" font-family="Times Roman,serif" font-size="15.00">Roderick Wright</text>
</g>
<g id="8193" class="node">
<polygon fill="#ffffff" stroke="#3333cc" stroke-width="10" points="694.711,-451.15 632.711,-451.15 632.711,-388.15 694.711,-388.15 694.711,-451.15"/>
<image xlink:href="can_images/8193.jpg" width="62px" height="26.386px" preserveAspectRatio="xMinYMin meet" x="632.711" y="-432.843"/>
<polygon fill="none" stroke="#3333cc" stroke-width="10" points="694.711,-451.15 632.711,-451.15 632.711,-388.15 694.711,-388.15 694.711,-451.15"/>
<text text-anchor="middle" x="663.711" y="-415.65" font-family="Times Roman,serif" font-size="15.00">Alex Padilla</text>
</g>
<g id="4385" class="node">
<polygon fill="#ffffff" stroke="#3333cc" stroke-width="10" points="424.494,-832.516 362.494,-832.516 362.494,-769.516 424.494,-769.516 424.494,-832.516"/>
<image xlink:href="can_images/4385.jpg" width="51.1485px" height="63px" preserveAspectRatio="xMinYMin meet" x="367.92" y="-832.516"/>
<polygon fill="none" stroke="#3333cc" stroke-width="10" points="424.494,-832.516 362.494,-832.516 362.494,-769.516 424.494,-769.516 424.494,-832.516"/>
<text text-anchor="middle" x="393.494" y="-797.016" font-family="Times Roman,serif" font-size="15.00">Ron Calderon</text>
</g>
<g id="7943" class="node">
<polygon fill="#ffffff" stroke="#cc3333" stroke-width="10" points="163.99,-182.625 93.9903,-182.625 93.9903,-111.625 163.99,-111.625 163.99,-182.625"/>
<image xlink:href="can_images/7943.jpg" width="57.6436px" height="71px" preserveAspectRatio="xMinYMin meet" x="100.169" y="-182.625"/>
<polygon fill="none" stroke="#cc3333" stroke-width="10" points="163.99,-182.625 93.9903,-182.625 93.9903,-111.625 163.99,-111.625 163.99,-182.625"/>
<text text-anchor="middle" x="128.99" y="-143.125" font-family="Times Roman,serif" font-size="15.00">Jean Fuller</text>
</g>
<g id="4452" class="node">
<polygon fill="#ffffff" stroke="#cc3333" stroke-width="10" points="71.5,-362.447 1.5,-362.447 1.5,-291.447 71.5,-291.447 71.5,-362.447"/>
<image xlink:href="can_images/4452.jpg" width="57.6436px" height="71px" preserveAspectRatio="xMinYMin meet" x="7.67822" y="-362.447"/>
<polygon fill="none" stroke="#cc3333" stroke-width="10" points="71.5,-362.447 1.5,-362.447 1.5,-291.447 71.5,-291.447 71.5,-362.447"/>
<text text-anchor="middle" x="36.5" y="-322.947" font-family="Times Roman,serif" font-size="15.00">Mark Wyland</text>
</g>
<g id="4427" class="node">
<polygon fill="#ffffff" stroke="#3333cc" stroke-width="10" points="306.184,-112.969 236.184,-112.969 236.184,-41.9687 306.184,-41.9687 306.184,-112.969"/>
<image xlink:href="can_images/4427.jpg" width="57.6436px" height="71px" preserveAspectRatio="xMinYMin meet" x="242.362" y="-112.969"/>
<polygon fill="none" stroke="#3333cc" stroke-width="10" points="306.184,-112.969 236.184,-112.969 236.184,-41.9687 306.184,-41.9687 306.184,-112.969"/>
<text text-anchor="middle" x="271.184" y="-73.4687" font-family="Times Roman,serif" font-size="15.00">Juan Vargas</text>
</g>
<g id="142153" class="node">
<polygon fill="#ffffff" stroke="#3333cc" stroke-width="10" points="512.237,-210.06 442.237,-210.06 442.237,-139.06 512.237,-139.06 512.237,-210.06"/>
<image xlink:href="can_images/142153.jpg" width="57.6436px" height="71px" preserveAspectRatio="xMinYMin meet" x="448.416" y="-210.06"/>
<polygon fill="none" stroke="#3333cc" stroke-width="10" points="512.237,-210.06 442.237,-210.06 442.237,-139.06 512.237,-139.06 512.237,-210.06"/>
<text text-anchor="middle" x="477.237" y="-170.56" font-family="Times Roman,serif" font-size="15.00">Michael Rubio</text>
</g>
<g id="142304" class="node">
<polygon fill="#ffffff" stroke="#cc3333" stroke-width="10" points="224.39,-316.669 154.39,-316.669 154.39,-245.669 224.39,-245.669 224.39,-316.669"/>
<image xlink:href="can_images/142304.jpg" width="50.7048px" height="71px" preserveAspectRatio="xMinYMin meet" x="164.037" y="-316.669"/>
<polygon fill="none" stroke="#cc3333" stroke-width="10" points="224.39,-316.669 154.39,-316.669 154.39,-245.669 224.39,-245.669 224.39,-316.669"/>
<text text-anchor="middle" x="189.39" y="-277.169" font-family="Times Roman,serif" font-size="15.00">Anthony Cannella</text>
</g>
<g id="8958" class="node">
<polygon fill="#ffffff" stroke="#3333cc" stroke-width="10" points="641.148,-119.167 571.148,-119.167 571.148,-48.1675 641.148,-48.1675 641.148,-119.167"/>
<image xlink:href="can_images/8958.jpg" width="57.6436px" height="71px" preserveAspectRatio="xMinYMin meet" x="577.327" y="-119.167"/>
<polygon fill="none" stroke="#3333cc" stroke-width="10" points="641.148,-119.167 571.148,-119.167 571.148,-48.1675 641.148,-48.1675 641.148,-119.167"/>
<text text-anchor="middle" x="606.148" y="-79.6675" font-family="Times Roman,serif" font-size="15.00">Ed Hernandez</text>
</g>
<g id="951" class="node">
<ellipse fill="#ffffff" stroke="cadetblue" stroke-width="10" cx="410.75" cy="-417.281" rx="81" ry="81"/>
<image xlink:href="com_images/c951.png" width="162px" height="162px" preserveAspectRatio="xMinYMin meet" x="329.75" y="-498.281"/>
<ellipse fill="none" stroke="cadetblue" stroke-width="10" cx="410.75" cy="-417.281" rx="81" ry="81"/>
<text text-anchor="start" x="506.75" y="-413.281" font-family="Times Roman,serif" font-size="15.00">Chevron Corp</text>
</g>
</g>
</svg>
