<svg width="98.47604166667px" height="100px"
  xmlns="http://www.w3.org/2000/svg" xmlns:xlink="http://www.w3.org/1999/xlink">
<g id="graph0" class="graph" transform="scale(0.15063958333334 0.15063958333334) rotate(0) translate(4 659.837)">

<polygon id='svgscreen' style="opacity:0;" fill="#ffffff" stroke="#ffffff" points="-4,5 -4,-659.837 650.723,-659.837 650.723,5 -4,5"/>
<g id="4426_29792" class="edge">
<path fill="none" stroke="#999999" stroke-width="5" d="M190.423,-600.667C207.794,-564.559 240.412,-496.758 268.034,-439.344"/>
<polygon fill="#999999" stroke="#999999" points="279.924,-444.903 281.103,-412.178 256.27,-433.522 279.924,-444.903"/>
</g>
<g id="4426_29834" class="edge">
<path fill="none" stroke="#999999" stroke-width="5" d="M54.9131,-214.314C90.9681,-231.669 158.99,-264.41 216.545,-292.113"/>
<polygon fill="#999999" stroke="#999999" points="211.049,-304.034 243.773,-305.218 222.434,-280.381 211.049,-304.034"/>
</g>
<g id="4426_29814" class="edge">
<path fill="none" stroke="#999999" stroke-width="22.5" d="M564.197,-459.459C526.306,-441.219 466.516,-412.438 415.1,-387.687"/>
<polygon fill="#999999" stroke="#999999" points="440.626,-334.425 387.977,-374.631 389.39,-440.861 440.626,-334.425"/>
</g>
<g id="4426_951" class="edge">
<path fill="none" stroke="#999999" stroke-width="40" d="M430.894,-100.796C412.664,-138.694 386.455,-193.178 363.658,-240.568"/>
<polygon fill="#999999" stroke="#999999" points="268.923,-195.288 350.539,-267.84 458.166,-286.322 268.923,-195.288"/>
</g>
<g id="29792" class="node">
<ellipse fill="#ffffff" stroke="cadetblue" stroke-width="10" cx="178.073" cy="-626.337" rx="28" ry="28.5"/>
<image xlink:href="com_images/c192.png" width="56px" height="56px" preserveAspectRatio="xMinYMin meet" x="150.073" y="-654.337"/>
<ellipse fill="none" stroke="cadetblue" stroke-width="10" cx="178.073" cy="-626.337" rx="28" ry="28.5"/>
<text text-anchor="start" x="221.073" y="-622.337" font-family="Times Roman,serif" font-size="15.00">AES Corp</text>
</g>
<g id="29834" class="node">
<ellipse fill="#ffffff" stroke="cadetblue" stroke-width="10" cx="29.5" cy="-202.082" rx="28" ry="28.5"/>
<image xlink:href="com_images/c152.png" width="56px" height="56px" preserveAspectRatio="xMinYMin meet" x="1.5" y="-230.082"/>
<ellipse fill="none" stroke="cadetblue" stroke-width="10" cx="29.5" cy="-202.082" rx="28" ry="28.5"/>
<text text-anchor="start" x="72.5" y="-198.082" font-family="Times Roman,serif" font-size="15.00">NRG Energy</text>
</g>
<g id="29814" class="node">
<ellipse fill="#ffffff" stroke="cadetblue" stroke-width="10" cx="602.223" cy="-477.763" rx="42" ry="42.5"/>
<image xlink:href="com_images/c148.png" width="84px" height="84px" preserveAspectRatio="xMinYMin meet" x="560.223" y="-519.763"/>
<ellipse fill="none" stroke="cadetblue" stroke-width="10" cx="602.223" cy="-477.763" rx="42" ry="42.5"/>
<text text-anchor="start" x="659.223" y="-473.763" font-family="Times Roman,serif" font-size="15.00">Edison International</text>
</g>
<g id="951" class="node">
<ellipse fill="#ffffff" stroke="cadetblue" stroke-width="10" cx="453.645" cy="-53.5" rx="52" ry="52.5"/>
<image xlink:href="com_images/c951.png" width="104px" height="104px" preserveAspectRatio="xMinYMin meet" x="401.645" y="-105.5"/>
<ellipse fill="none" stroke="cadetblue" stroke-width="10" cx="453.645" cy="-53.5" rx="52" ry="52.5"/>
<text text-anchor="start" x="520.645" y="-49.5" font-family="Times Roman,serif" font-size="15.00">Chevron Corp</text>
</g>
<g id="4426" class="node">
<polygon fill="#ffffff" stroke="#3333cc" stroke-width="10" points="387.866,-411.919 243.866,-411.919 243.866,-267.919 387.866,-267.919 387.866,-411.919"/>
<image xlink:href="can_images/4426.jpg" width="116.911px" height="144px" preserveAspectRatio="xMinYMin meet" x="257.411" y="-411.919"/>
<polygon fill="none" stroke="#3333cc" stroke-width="10" points="387.866,-411.919 243.866,-411.919 243.866,-267.919 387.866,-267.919 387.866,-411.919"/>
<text text-anchor="middle" x="315.866" y="-335.919" font-family="Times Roman,serif" font-size="15.00">Jenny Oropeza</text>
</g>
</g>
</svg>
