<svg width="96000px" height="80411px"
  xmlns="http://www.w3.org/2000/svg" xmlns:xlink="http://www.w3.org/1999/xlink">
<g id="graph0" class="graph" transform="scale(63.1918 63.1918) rotate(0) translate(4 1268.5)">

<polygon id='svgscreen' style="opacity:0;" fill="#ffffff" stroke="#ffffff" points="-4,5 -4,-1268.5 1516.19,-1268.5 1516.19,5 -4,5"/>
<g id="4144_39405" class="edge">
<path fill="none" stroke="#999999" stroke-width="5" d="M570.101,-233.328C587.541,-277.484 623.452,-368.409 651.7,-439.929"/>
<polygon fill="#999999" stroke="#999999" points="639.643,-445.132 662.87,-468.213 664.057,-435.489 639.643,-445.132"/>
</g>
<g id="4144_31946" class="edge">
<path fill="none" stroke="#999999" stroke-width="8.84146" d="M726.703,-256.129C721.474,-298.263 711.941,-375.071 704.1,-438.245"/>
<polygon fill="#999999" stroke="#999999" points="681.019,-435.777 700.356,-468.407 727.084,-441.495 681.019,-435.777"/>
</g>
<g id="2244_168" class="edge">
<path fill="none" stroke="#999999" stroke-width="9.26829" d="M1145.97,-818.965C1177.65,-850.649 1235.58,-908.581 1277.32,-950.318"/>
<polygon fill="#999999" stroke="#999999" points="1260.15,-967.559 1298.57,-971.569 1294.56,-933.152 1260.15,-967.559"/>
</g>
<g id="4144_951" class="edge">
<path fill="none" stroke="#999999" stroke-width="10.9756" d="M442.617,-510.153C478.416,-514.516 537.477,-521.715 589.073,-528.003"/>
<polygon fill="#999999" stroke="#999999" points="585.889,-556.639 619.155,-531.67 592.861,-499.441 585.889,-556.639"/>
</g>
<g id="4140_39492" class="edge">
<path fill="none" stroke="#999999" stroke-width="11.8293" d="M1452.17,-57.3652C1421.11,-86.3224 1366.29,-137.443 1321.8,-178.933"/>
<polygon fill="#999999" stroke="#999999" points="1300.42,-156.413 1299.65,-199.583 1342.77,-201.833 1300.42,-156.413"/>
</g>
<g id="4144_39383" class="edge">
<path fill="none" stroke="#999999" stroke-width="11.8293" d="M440.96,-341.712C476.146,-369.636 540.817,-420.961 595.628,-464.461"/>
<polygon fill="#999999" stroke="#999999" points="576.384,-488.83 619.186,-483.157 614.99,-440.184 576.384,-488.83"/>
</g>
<g id="4140_39350" class="edge">
<path fill="none" stroke="#999999" stroke-width="11.8293" d="M981.796,-302.831C1028.45,-292.731 1111.95,-274.653 1173.73,-261.276"/>
<polygon fill="#999999" stroke="#999999" points="1180.58,-291.565 1203.33,-254.868 1167.44,-230.867 1180.58,-291.565"/>
</g>
<g id="4144_39350" class="edge">
<path fill="none" stroke="#999999" stroke-width="7.56098" d="M919.204,-335.087C887.487,-363.684 833.428,-412.427 785.931,-455.253"/>
<polygon fill="#999999" stroke="#999999" points="772.61,-440.539 763.621,-475.369 799.192,-470.02 772.61,-440.539"/>
</g>
<g id="9861_671" class="edge">
<path fill="none" stroke="#999999" stroke-width="8.41463" d="M318.848,-695.724C262.078,-702.393 152.869,-715.223 85.7683,-723.106"/>
<polygon fill="#999999" stroke="#999999" points="83.0377,-701.187 55.8198,-726.625 88.1922,-745.062 83.0377,-701.187"/>
</g>
<g id="4144_671" class="edge">
<path fill="none" stroke="#999999" stroke-width="11.8293" d="M389.784,-676.088C436.702,-654.994 523.207,-616.101 591.585,-585.358"/>
<polygon fill="#999999" stroke="#999999" points="604.51,-613.593 619.138,-572.97 579.043,-556.951 604.51,-613.593"/>
</g>
<g id="4144_39359" class="edge">
<path fill="none" stroke="#999999" stroke-width="20.3659" d="M753.34,-787.949C744.037,-750.775 729.442,-692.451 716.757,-641.76"/>
<polygon fill="#999999" stroke="#999999" points="768.609,-628.747 709.465,-612.622 664.887,-654.703 768.609,-628.747"/>
</g>
<g id="4144_39514" class="edge">
<path fill="none" stroke="#999999" stroke-width="37.439" d="M885.249,-724.629C858.734,-699.44 820.876,-663.473 785.642,-629.999"/>
<polygon fill="#999999" stroke="#999999" points="853.32,-558.738 763.88,-609.325 717.94,-701.237 853.32,-558.738"/>
</g>
<g id="4172_1137" class="edge">
<path fill="none" stroke="#999999" stroke-width="11.8293" d="M590.436,-955.993C588.815,-1015.38 586.185,-1111.66 584.486,-1173.9"/>
<polygon fill="#999999" stroke="#999999" points="553.439,-1173.29 583.66,-1204.13 615.52,-1174.99 553.439,-1173.29"/>
</g>
<g id="4144_1137" class="edge">
<path fill="none" stroke="#999999" stroke-width="40" d="M605.822,-852.395C620.759,-797.959 644.855,-710.145 663.68,-641.54"/>
<polygon fill="#999999" stroke="#999999" points="764.963,-669.23 671.644,-612.515 562.449,-613.661 764.963,-669.23"/>
</g>
<g id="2878_5460" class="edge">
<path fill="none" stroke="#999999" stroke-width="11.8293" d="M1114.47,-552.058C1164.17,-586.148 1243.68,-640.685 1296.48,-676.902"/>
<polygon fill="#999999" stroke="#999999" points="1279.05,-702.604 1321.36,-693.966 1314.18,-651.39 1279.05,-702.604"/>
</g>
<g id="4140_5460" class="edge">
<path fill="none" stroke="#999999" stroke-width="37.439" d="M1099.29,-474.864C1127.4,-432.316 1169.71,-368.298 1202.6,-318.527"/>
<polygon fill="#999999" stroke="#999999" points="1284.73,-372.491 1219.28,-293.28 1120.75,-264.125 1284.73,-372.491"/>
</g>
<g id="4144_5460" class="edge">
<path fill="none" stroke="#999999" stroke-width="11.8293" d="M1013.62,-523.695C956.129,-526.689 864.814,-531.445 794.052,-535.131"/>
<polygon fill="#999999" stroke="#999999" points="792.017,-504.143 763.673,-536.713 795.248,-566.162 792.017,-504.143"/>
</g>
<g id="39405" class="node">
<ellipse fill="#ffffff" stroke="cadetblue" stroke-width="10" cx="559.652" cy="-206.872" rx="28" ry="28.5"/>
<image xlink:href="com_images/cunknown_oil_co.png" width="56px" height="56px" preserveAspectRatio="xMinYMin meet" x="531.652" y="-234.872"/>
<ellipse fill="none" stroke="cadetblue" stroke-width="10" cx="559.652" cy="-206.872" rx="28" ry="28.5"/>
<text text-anchor="start" x="602.652" y="-202.872" font-family="Times Roman,serif" font-size="15.00">ALASKA SUPPORT INDUSTRY ALLIANCE</text>
</g>
<g id="9861" class="node">
<polygon fill="#ffffff" stroke="#3333cc" stroke-width="10" points="55.5,-757.334 1.5,-757.334 1.5,-702.334 55.5,-702.334 55.5,-757.334"/>
<image xlink:href="can_images/9861.jpg" width="41.0667px" height="55px" preserveAspectRatio="xMinYMin meet" x="7.96667" y="-757.334"/>
<polygon fill="none" stroke="#3333cc" stroke-width="10" points="55.5,-757.334 1.5,-757.334 1.5,-702.334 55.5,-702.334 55.5,-757.334"/>
<text text-anchor="middle" x="28.5" y="-725.834" font-family="Times Roman,serif" font-size="15.00">Joe Paskvan</text>
</g>
<g id="31946" class="node">
<ellipse fill="#ffffff" stroke="cadetblue" stroke-width="10" cx="730.604" cy="-224.697" rx="31" ry="31.5"/>
<image xlink:href="com_images/c31946.png" width="62px" height="62px" preserveAspectRatio="xMinYMin meet" x="699.604" y="-255.697"/>
<ellipse fill="none" stroke="cadetblue" stroke-width="10" cx="730.604" cy="-224.697" rx="31" ry="31.5"/>
<text text-anchor="start" x="776.604" y="-220.697" font-family="Times Roman,serif" font-size="15.00">NANA Regional Corp</text>
</g>
<g id="2244" class="node">
<polygon fill="#ffffff" stroke="#3333cc" stroke-width="10" points="1354.65,-1027.65 1298.65,-1027.65 1298.65,-971.647 1354.65,-971.647 1354.65,-1027.65"/>
<polygon fill="none" stroke="#3333cc" stroke-width="10" points="1354.65,-1027.65 1298.65,-1027.65 1298.65,-971.647 1354.65,-971.647 1354.65,-1027.65"/>
<text text-anchor="middle" x="1326.65" y="-995.647" font-family="Times Roman,serif" font-size="15.00">Bettye Davis</text>
</g>
<g id="168" class="node">
<ellipse fill="#ffffff" stroke="cadetblue" stroke-width="10" cx="1123" cy="-796" rx="32" ry="32"/>
<image xlink:href="com_images/cunknown_oil_co.png" width="64px" height="64px" preserveAspectRatio="xMinYMin meet" x="1091" y="-828"/>
<ellipse fill="none" stroke="cadetblue" stroke-width="10" cx="1123" cy="-796" rx="32" ry="32"/>
<text text-anchor="start" x="1170" y="-792" font-family="Times Roman,serif" font-size="15.00">Alyeska Pipeline Service Co</text>
</g>
<g id="951" class="node">
<ellipse fill="#ffffff" stroke="cadetblue" stroke-width="10" cx="409.756" cy="-506.148" rx="33" ry="33"/>
<image xlink:href="com_images/c951.png" width="66px" height="66px" preserveAspectRatio="xMinYMin meet" x="376.756" y="-539.148"/>
<ellipse fill="none" stroke="cadetblue" stroke-width="10" cx="409.756" cy="-506.148" rx="33" ry="33"/>
<text text-anchor="start" x="457.756" y="-502.148" font-family="Times Roman,serif" font-size="15.00">Chevron Corp</text>
</g>
<g id="39492" class="node">
<ellipse fill="#ffffff" stroke="cadetblue" stroke-width="10" cx="1476.69" cy="-34.5" rx="33" ry="33.5"/>
<image xlink:href="com_images/cunknown_oil_co.png" width="66px" height="66px" preserveAspectRatio="xMinYMin meet" x="1443.69" y="-67.5"/>
<ellipse fill="none" stroke="cadetblue" stroke-width="10" cx="1476.69" cy="-34.5" rx="33" ry="33.5"/>
<text text-anchor="start" x="1524.69" y="-30.5" font-family="Times Roman,serif" font-size="15.00">PETERKIN DISTRIBUTING</text>
</g>
<g id="39383" class="node">
<ellipse fill="#ffffff" stroke="cadetblue" stroke-width="10" cx="414.952" cy="-321.071" rx="33" ry="33.5"/>
<image xlink:href="com_images/cunknown_oil_co.png" width="66px" height="66px" preserveAspectRatio="xMinYMin meet" x="381.952" y="-354.071"/>
<ellipse fill="none" stroke="cadetblue" stroke-width="10" cx="414.952" cy="-321.071" rx="33" ry="33.5"/>
<text text-anchor="start" x="462.952" y="-317.071" font-family="Times Roman,serif" font-size="15.00">UIC OILFIELD SERVICES</text>
</g>
<g id="4172" class="node">
<polygon fill="#ffffff" stroke="#cc3333" stroke-width="10" points="611.845,-1263.5 553.845,-1263.5 553.845,-1204.5 611.845,-1204.5 611.845,-1263.5"/>
<polygon fill="none" stroke="#cc3333" stroke-width="10" points="611.845,-1263.5 553.845,-1263.5 553.845,-1204.5 611.845,-1204.5 611.845,-1263.5"/>
<text text-anchor="middle" x="582.845" y="-1230" font-family="Times Roman,serif" font-size="15.00">Bert Stedman</text>
</g>
<g id="2878" class="node">
<polygon fill="#ffffff" stroke="#cc3333" stroke-width="10" points="1379.47,-743.436 1321.47,-743.436 1321.47,-684.436 1379.47,-684.436 1379.47,-743.436"/>
<polygon fill="none" stroke="#cc3333" stroke-width="10" points="1379.47,-743.436 1321.47,-743.436 1321.47,-684.436 1379.47,-684.436 1379.47,-743.436"/>
<text text-anchor="middle" x="1350.47" y="-709.936" font-family="Times Roman,serif" font-size="15.00">Fred Dyson</text>
</g>
<g id="39350" class="node">
<ellipse fill="#ffffff" stroke="cadetblue" stroke-width="10" cx="946.503" cy="-310.472" rx="36" ry="36.5"/>
<image xlink:href="com_images/c39350.png" width="72px" height="72px" preserveAspectRatio="xMinYMin meet" x="910.503" y="-346.472"/>
<ellipse fill="none" stroke="cadetblue" stroke-width="10" cx="946.503" cy="-310.472" rx="36" ry="36.5"/>
<text text-anchor="start" x="997.503" y="-306.472" font-family="Times Roman,serif" font-size="15.00">CONAM CONSTRUCTION</text>
</g>
<g id="671" class="node">
<ellipse fill="#ffffff" stroke="cadetblue" stroke-width="10" cx="355.752" cy="-691.389" rx="37" ry="37"/>
<image xlink:href="com_images/c671.png" width="74px" height="74px" preserveAspectRatio="xMinYMin meet" x="318.752" y="-728.389"/>
<ellipse fill="none" stroke="cadetblue" stroke-width="10" cx="355.752" cy="-691.389" rx="37" ry="37"/>
<text text-anchor="start" x="407.752" y="-687.389" font-family="Times Roman,serif" font-size="15.00">BP</text>
</g>
<g id="39359" class="node">
<ellipse fill="#ffffff" stroke="cadetblue" stroke-width="10" cx="762.823" cy="-825.843" rx="39" ry="39"/>
<image xlink:href="com_images/cunknown_oil_co.png" width="78px" height="78px" preserveAspectRatio="xMinYMin meet" x="723.823" y="-864.843"/>
<ellipse fill="none" stroke="cadetblue" stroke-width="10" cx="762.823" cy="-825.843" rx="39" ry="39"/>
<text text-anchor="start" x="816.823" y="-821.843" font-family="Times Roman,serif" font-size="15.00">ICE SERVICES</text>
</g>
<g id="39514" class="node">
<ellipse fill="#ffffff" stroke="cadetblue" stroke-width="10" cx="919.96" cy="-757.607" rx="47" ry="47.5"/>
<image xlink:href="com_images/c39514.png" width="94px" height="94px" preserveAspectRatio="xMinYMin meet" x="872.96" y="-804.607"/>
<ellipse fill="none" stroke="cadetblue" stroke-width="10" cx="919.96" cy="-757.607" rx="47" ry="47.5"/>
<text text-anchor="start" x="981.96" y="-753.607" font-family="Times Roman,serif" font-size="15.00">UDELHOVEN OIL</text>
</g>
<g id="1137" class="node">
<ellipse fill="#ffffff" stroke="cadetblue" stroke-width="10" cx="591.878" cy="-903.214" rx="52" ry="52.5"/>
<image xlink:href="com_images/c92.png" width="104px" height="104px" preserveAspectRatio="xMinYMin meet" x="539.878" y="-955.214"/>
<ellipse fill="none" stroke="cadetblue" stroke-width="10" cx="591.878" cy="-903.214" rx="52" ry="52.5"/>
<text text-anchor="start" x="658.878" y="-899.214" font-family="Times Roman,serif" font-size="15.00">ConocoPhillips</text>
</g>
<g id="5460" class="node">
<ellipse fill="#ffffff" stroke="cadetblue" stroke-width="10" cx="1068.92" cy="-520.815" rx="55" ry="55"/>
<image xlink:href="com_images/c185.png" width="110px" height="110px" preserveAspectRatio="xMinYMin meet" x="1013.92" y="-575.815"/>
<ellipse fill="none" stroke="cadetblue" stroke-width="10" cx="1068.92" cy="-520.815" rx="55" ry="55"/>
<text text-anchor="start" x="1138.92" y="-516.815" font-family="Times Roman,serif" font-size="15.00">Tesoro Petroleum</text>
</g>
<g id="4140" class="node">
<polygon fill="#ffffff" stroke="#cc3333" stroke-width="10" points="1299.57,-292.924 1203.57,-292.924 1203.57,-195.924 1299.57,-195.924 1299.57,-292.924"/>
<image xlink:href="can_images/4140.jpg" width="72.4267px" height="97px" preserveAspectRatio="xMinYMin meet" x="1215.35" y="-292.924"/>
<polygon fill="none" stroke="#cc3333" stroke-width="10" points="1299.57,-292.924 1203.57,-292.924 1203.57,-195.924 1299.57,-195.924 1299.57,-292.924"/>
<text text-anchor="middle" x="1251.57" y="-240.424" font-family="Times Roman,serif" font-size="15.00">Thomas Wagoner</text>
</g>
<g id="4144" class="node">
<polygon fill="#ffffff" stroke="#cc3333" stroke-width="10" points="763.412,-612.477 619.412,-612.477 619.412,-468.477 763.412,-468.477 763.412,-612.477"/>
<image xlink:href="can_images/4144.jpg" width="107.52px" height="144px" preserveAspectRatio="xMinYMin meet" x="637.652" y="-612.477"/>
<polygon fill="none" stroke="#cc3333" stroke-width="10" points="763.412,-612.477 619.412,-612.477 619.412,-468.477 763.412,-468.477 763.412,-612.477"/>
<text text-anchor="middle" x="691.412" y="-536.477" font-family="Times Roman,serif" font-size="15.00">Kevin Meyer</text>
</g>
</g>
</svg>
