<svg width="320.94315625px" height="321px"
  xmlns="http://www.w3.org/2000/svg" xmlns:xlink="http://www.w3.org/1999/xlink">
<g id="graph0" class="graph" transform="scale(0.55551390625 0.55551390625) rotate(0) translate(4 573.844)">

<polygon id='svgscreen' style="opacity:0;" fill="#ffffff" stroke="#ffffff" points="-4,5 -4,-573.844 574.742,-573.844 574.742,5 -4,5"/>
<g id="4387_3716" class="edge">
<path fill="none" stroke="#999999" stroke-width="5" d="M136.755,-433.237C168.536,-401.54 207.785,-362.394 237.826,-332.433"/>
<polygon fill="#999999" stroke="#999999" points="247.202,-341.618 259.175,-311.14 228.665,-323.032 247.202,-341.618"/>
</g>
<g id="4387_38226" class="edge">
<path fill="none" stroke="#999999" stroke-width="40" d="M430.287,-139.636C398.871,-171.15 360.461,-209.681 330.94,-239.295"/>
<polygon fill="#999999" stroke="#999999" points="256.29,-165.453 309.473,-260.829 405.016,-313.712 256.29,-165.453"/>
</g>
<g id="4387" class="node">
<polygon fill="#ffffff" stroke="#cc3333" stroke-width="10" points="309.397,-311.484 259.397,-311.484 259.397,-260.484 309.397,-260.484 309.397,-311.484"/>
<image xlink:href="can_images/unknownCandidate.jpg" width="50px" height="50px" preserveAspectRatio="xMinYMin meet" x="259.397" y="-310.984"/>
<polygon fill="none" stroke="#cc3333" stroke-width="10" points="309.397,-311.484 259.397,-311.484 259.397,-260.484 309.397,-260.484 309.397,-311.484"/>
<text text-anchor="middle" x="284.397" y="-281.984" font-family="Times Roman,serif" font-size="15.00">Rick Keene</text>
</g>
<g id="3716" class="node">
<ellipse fill="#ffffff" stroke="cadetblue" stroke-width="10" cx="80.5" cy="-489.344" rx="79" ry="79.5"/>
<image xlink:href="com_images/c109.png" width="158px" height="158px" preserveAspectRatio="xMinYMin meet" x="1.5" y="-568.344"/>
<ellipse fill="none" stroke="cadetblue" stroke-width="10" cx="80.5" cy="-489.344" rx="79" ry="79.5"/>
<text text-anchor="start" x="174.5" y="-485.344" font-family="Times Roman,serif" font-size="15.00">Occidental Petroleum</text>
</g>
<g id="38226" class="node">
<ellipse fill="#ffffff" stroke="cadetblue" stroke-width="10" cx="487.742" cy="-82" rx="81" ry="81"/>
<image xlink:href="com_images/cunknown_oil_co.png" width="162px" height="162px" preserveAspectRatio="xMinYMin meet" x="406.742" y="-163"/>
<ellipse fill="none" stroke="cadetblue" stroke-width="10" cx="487.742" cy="-82" rx="81" ry="81"/>
<text text-anchor="start" x="583.742" y="-78" font-family="Times Roman,serif" font-size="15.00">NORTHGATE PETROLEUM CO</text>
</g>
</g>
</svg>
