<svg width="603.01835416666px" height="614px"
  xmlns="http://www.w3.org/2000/svg" xmlns:xlink="http://www.w3.org/1999/xlink">
<g id="graph0" class="graph" transform="scale(0.43582551458333 0.43582551458333) rotate(0) translate(4 1404.82)">

<polygon id='svgscreen' style="opacity:0;" fill="#ffffff" stroke="#ffffff" points="-4,5 -4,-1404.82 1380.62,-1404.82 1380.62,5 -4,5"/>
<g id="4144_39405" class="edge">
<path fill="none" stroke="#999999" stroke-width="5" d="M484.742,-1011.14C508.89,-971.809 557.871,-892.031 597.572,-827.367"/>
<polygon fill="#999999" stroke="#999999" points="608.853,-834.078 613.365,-801.645 586.483,-820.344 608.853,-834.078"/>
</g>
<g id="4144_31946" class="edge">
<path fill="none" stroke="#999999" stroke-width="8.84146" d="M768.491,-484.593C752.994,-518.845 726.268,-577.916 702.955,-629.443"/>
<polygon fill="#999999" stroke="#999999" points="681.669,-620.187 690.448,-657.087 723.96,-639.321 681.669,-620.187"/>
</g>
<g id="2244_168" class="edge">
<path fill="none" stroke="#999999" stroke-width="9.26829" d="M935.965,-275.965C967.649,-307.649 1025.58,-365.581 1067.32,-407.318"/>
<polygon fill="#999999" stroke="#999999" points="1050.15,-424.559 1088.57,-428.569 1084.56,-390.152 1050.15,-424.559"/>
</g>
<g id="4144_951" class="edge">
<path fill="none" stroke="#999999" stroke-width="10.9756" d="M375.895,-881.941C417.431,-859.453 495.48,-817.196 558.934,-782.841"/>
<polygon fill="#999999" stroke="#999999" points="572.868,-808.06 585.532,-768.441 545.433,-757.388 572.868,-808.06"/>
</g>
<g id="4140_39492" class="edge">
<path fill="none" stroke="#999999" stroke-width="11.8293" d="M1321,-1339.5C1294.83,-1304.6 1248.07,-1242.25 1211.06,-1192.91"/>
<polygon fill="#999999" stroke="#999999" points="1235.87,-1174.23 1193.02,-1168.86 1186.18,-1211.49 1235.87,-1174.23"/>
</g>
<g id="4144_39383" class="edge">
<path fill="none" stroke="#999999" stroke-width="11.8293" d="M891.286,-575.122C858.822,-596.561 803.523,-633.078 754.886,-665.197"/>
<polygon fill="#999999" stroke="#999999" points="737.77,-639.288 729.847,-681.732 771.992,-691.112 737.77,-639.288"/>
</g>
<g id="4140_39350" class="edge">
<path fill="none" stroke="#999999" stroke-width="11.8293" d="M901.694,-1014.11C945.112,-1032.17 1022.33,-1064.29 1080.4,-1088.44"/>
<polygon fill="#999999" stroke="#999999" points="1068.71,-1117.21 1108.34,-1100.06 1092.56,-1059.86 1068.71,-1117.21"/>
</g>
<g id="4144_39350" class="edge">
<path fill="none" stroke="#999999" stroke-width="7.56098" d="M846.031,-971.519C819.116,-936.897 772.509,-876.944 732.403,-825.353"/>
<polygon fill="#999999" stroke="#999999" points="748.024,-813.108 713.941,-801.605 716.684,-837.471 748.024,-813.108"/>
</g>
<g id="9861_671" class="edge">
<path fill="none" stroke="#999999" stroke-width="8.41463" d="M622.462,-320.197C629.53,-263.494 643.163,-154.127 651.579,-86.6091"/>
<polygon fill="#999999" stroke="#999999" points="673.549,-88.9293 655.341,-56.4273 629.712,-83.4646 673.549,-88.9293"/>
</g>
<g id="4144_671" class="edge">
<path fill="none" stroke="#999999" stroke-width="11.8293" d="M621.854,-393.985C627.624,-447.871 638.542,-549.845 646.831,-627.256"/>
<polygon fill="#999999" stroke="#999999" points="615.961,-630.616 650.03,-657.139 677.712,-624.004 615.961,-630.616"/>
</g>
<g id="4144_39359" class="edge">
<path fill="none" stroke="#999999" stroke-width="20.3659" d="M418.398,-715.912C453.87,-717.901 507.811,-720.926 555.513,-723.601"/>
<polygon fill="#999999" stroke="#999999" points="552.755,-776.991 585.702,-725.294 558.742,-670.238 552.755,-776.991"/>
</g>
<g id="4144_39514" class="edge">
<path fill="none" stroke="#999999" stroke-width="37.439" d="M643.723,-1000.09C646.022,-955.737 649.526,-888.17 652.457,-831.631"/>
<polygon fill="#999999" stroke="#999999" points="750.607,-836.621 654.015,-801.572 554.316,-826.443 750.607,-836.621"/>
</g>
<g id="4172_1137" class="edge">
<path fill="none" stroke="#999999" stroke-width="11.8293" d="M298.887,-513.002C241.848,-497.997 149.192,-473.623 89.0483,-457.801"/>
<polygon fill="#999999" stroke="#999999" points="96.7022,-427.707 59.7894,-450.104 80.9025,-487.767 96.7022,-427.707"/>
</g>
<g id="4144_1137" class="edge">
<path fill="none" stroke="#999999" stroke-width="40" d="M393.271,-555.17C436.572,-583.684 504.255,-628.253 560.312,-665.167"/>
<polygon fill="#999999" stroke="#999999" points="502.722,-752.964 585.524,-681.768 618.215,-577.575 502.722,-752.964"/>
</g>
<g id="2878_5460" class="edge">
<path fill="none" stroke="#999999" stroke-width="11.8293" d="M1075.91,-792.606C1131.71,-767.504 1221.52,-727.1 1279.81,-700.88"/>
<polygon fill="#999999" stroke="#999999" points="1292.81,-729.079 1307.43,-688.453 1267.33,-672.442 1292.81,-729.079"/>
</g>
<g id="4140_5460" class="edge">
<path fill="none" stroke="#999999" stroke-width="37.439" d="M1047.34,-865.917C1068.14,-914.387 1099.79,-988.119 1123.65,-1043.7"/>
<polygon fill="#999999" stroke="#999999" points="1033.34,-1082.47 1135.48,-1071.27 1213.96,-1004.94 1033.34,-1082.47"/>
</g>
<g id="4144_5460" class="edge">
<path fill="none" stroke="#999999" stroke-width="11.8293" d="M971.71,-802.659C916.124,-789.677 828.093,-769.117 759.374,-753.067"/>
<polygon fill="#999999" stroke="#999999" points="766.1,-722.751 729.824,-746.166 751.976,-783.227 766.1,-722.751"/>
</g>
<g id="39405" class="node">
<ellipse fill="#ffffff" stroke="cadetblue" stroke-width="10" cx="469.839" cy="-1035.41" rx="28" ry="28.5"/>
<image xlink:href="com_images/cunknown_oil_co.png" width="56px" height="56px" preserveAspectRatio="xMinYMin meet" x="441.839" y="-1063.41"/>
<ellipse fill="none" stroke="cadetblue" stroke-width="10" cx="469.839" cy="-1035.41" rx="28" ry="28.5"/>
<text text-anchor="start" x="512.839" y="-1031.41" font-family="Times Roman,serif" font-size="15.00">ALASKA SUPPORT INDUSTRY ALLIANCE</text>
</g>
<g id="9861" class="node">
<polygon fill="#ffffff" stroke="#3333cc" stroke-width="10" points="685.823,-56 631.823,-56 631.823,-1 685.823,-1 685.823,-56"/>
<image xlink:href="can_images/9861.jpg" width="41.0667px" height="55px" preserveAspectRatio="xMinYMin meet" x="638.289" y="-56"/>
<polygon fill="none" stroke="#3333cc" stroke-width="10" points="685.823,-56 631.823,-56 631.823,-1 685.823,-1 685.823,-56"/>
<text text-anchor="middle" x="658.823" y="-24.5" font-family="Times Roman,serif" font-size="15.00">Joe Paskvan</text>
</g>
<g id="31946" class="node">
<ellipse fill="#ffffff" stroke="cadetblue" stroke-width="10" cx="781.499" cy="-455.841" rx="31" ry="31.5"/>
<image xlink:href="com_images/c31946.png" width="62px" height="62px" preserveAspectRatio="xMinYMin meet" x="750.499" y="-486.841"/>
<ellipse fill="none" stroke="cadetblue" stroke-width="10" cx="781.499" cy="-455.841" rx="31" ry="31.5"/>
<text text-anchor="start" x="827.499" y="-451.841" font-family="Times Roman,serif" font-size="15.00">NANA Regional Corp</text>
</g>
<g id="2244" class="node">
<polygon fill="#ffffff" stroke="#3333cc" stroke-width="10" points="1144.65,-484.647 1088.65,-484.647 1088.65,-428.647 1144.65,-428.647 1144.65,-484.647"/>
<polygon fill="none" stroke="#3333cc" stroke-width="10" points="1144.65,-484.647 1088.65,-484.647 1088.65,-428.647 1144.65,-428.647 1144.65,-484.647"/>
<text text-anchor="middle" x="1116.65" y="-452.647" font-family="Times Roman,serif" font-size="15.00">Bettye Davis</text>
</g>
<g id="168" class="node">
<ellipse fill="#ffffff" stroke="cadetblue" stroke-width="10" cx="913" cy="-253" rx="32" ry="32"/>
<image xlink:href="com_images/cunknown_oil_co.png" width="64px" height="64px" preserveAspectRatio="xMinYMin meet" x="881" y="-285"/>
<ellipse fill="none" stroke="cadetblue" stroke-width="10" cx="913" cy="-253" rx="32" ry="32"/>
<text text-anchor="start" x="960" y="-249" font-family="Times Roman,serif" font-size="15.00">Alyeska Pipeline Service Co</text>
</g>
<g id="951" class="node">
<ellipse fill="#ffffff" stroke="cadetblue" stroke-width="10" cx="346.624" cy="-897.788" rx="33" ry="33"/>
<image xlink:href="com_images/c951.png" width="66px" height="66px" preserveAspectRatio="xMinYMin meet" x="313.624" y="-930.788"/>
<ellipse fill="none" stroke="cadetblue" stroke-width="10" cx="346.624" cy="-897.788" rx="33" ry="33"/>
<text text-anchor="start" x="394.624" y="-893.788" font-family="Times Roman,serif" font-size="15.00">Chevron Corp</text>
</g>
<g id="39492" class="node">
<ellipse fill="#ffffff" stroke="cadetblue" stroke-width="10" cx="1341.12" cy="-1366.32" rx="33" ry="33.5"/>
<image xlink:href="com_images/cunknown_oil_co.png" width="66px" height="66px" preserveAspectRatio="xMinYMin meet" x="1308.12" y="-1399.32"/>
<ellipse fill="none" stroke="cadetblue" stroke-width="10" cx="1341.12" cy="-1366.32" rx="33" ry="33.5"/>
<text text-anchor="start" x="1389.12" y="-1362.32" font-family="Times Roman,serif" font-size="15.00">PETERKIN DISTRIBUTING</text>
</g>
<g id="39383" class="node">
<ellipse fill="#ffffff" stroke="cadetblue" stroke-width="10" cx="919.273" cy="-556.64" rx="33" ry="33.5"/>
<image xlink:href="com_images/cunknown_oil_co.png" width="66px" height="66px" preserveAspectRatio="xMinYMin meet" x="886.273" y="-589.64"/>
<ellipse fill="none" stroke="cadetblue" stroke-width="10" cx="919.273" cy="-556.64" rx="33" ry="33.5"/>
<text text-anchor="start" x="967.273" y="-552.64" font-family="Times Roman,serif" font-size="15.00">UIC OILFIELD SERVICES</text>
</g>
<g id="4172" class="node">
<polygon fill="#ffffff" stroke="#cc3333" stroke-width="10" points="59.5,-471.9 1.5,-471.9 1.5,-412.9 59.5,-412.9 59.5,-471.9"/>
<polygon fill="none" stroke="#cc3333" stroke-width="10" points="59.5,-471.9 1.5,-471.9 1.5,-412.9 59.5,-412.9 59.5,-471.9"/>
<text text-anchor="middle" x="30.5" y="-438.4" font-family="Times Roman,serif" font-size="15.00">Bert Stedman</text>
</g>
<g id="2878" class="node">
<polygon fill="#ffffff" stroke="#cc3333" stroke-width="10" points="1365.62,-704.824 1307.62,-704.824 1307.62,-645.824 1365.62,-645.824 1365.62,-704.824"/>
<polygon fill="none" stroke="#cc3333" stroke-width="10" points="1365.62,-704.824 1307.62,-704.824 1307.62,-645.824 1365.62,-645.824 1365.62,-704.824"/>
<text text-anchor="middle" x="1336.62" y="-671.324" font-family="Times Roman,serif" font-size="15.00">Fred Dyson</text>
</g>
<g id="39350" class="node">
<ellipse fill="#ffffff" stroke="cadetblue" stroke-width="10" cx="868.371" cy="-1000.26" rx="36" ry="36.5"/>
<image xlink:href="com_images/c39350.png" width="72px" height="72px" preserveAspectRatio="xMinYMin meet" x="832.371" y="-1036.26"/>
<ellipse fill="none" stroke="cadetblue" stroke-width="10" cx="868.371" cy="-1000.26" rx="36" ry="36.5"/>
<text text-anchor="start" x="919.371" y="-996.256" font-family="Times Roman,serif" font-size="15.00">CONAM CONSTRUCTION</text>
</g>
<g id="671" class="node">
<ellipse fill="#ffffff" stroke="cadetblue" stroke-width="10" cx="617.885" cy="-356.914" rx="37" ry="37"/>
<image xlink:href="com_images/c671.png" width="74px" height="74px" preserveAspectRatio="xMinYMin meet" x="580.885" y="-393.914"/>
<ellipse fill="none" stroke="cadetblue" stroke-width="10" cx="617.885" cy="-356.914" rx="37" ry="37"/>
<text text-anchor="start" x="669.885" y="-352.914" font-family="Times Roman,serif" font-size="15.00">BP</text>
</g>
<g id="39359" class="node">
<ellipse fill="#ffffff" stroke="cadetblue" stroke-width="10" cx="379.4" cy="-713.725" rx="39" ry="39"/>
<image xlink:href="com_images/cunknown_oil_co.png" width="78px" height="78px" preserveAspectRatio="xMinYMin meet" x="340.4" y="-752.725"/>
<ellipse fill="none" stroke="cadetblue" stroke-width="10" cx="379.4" cy="-713.725" rx="39" ry="39"/>
<text text-anchor="start" x="433.4" y="-709.725" font-family="Times Roman,serif" font-size="15.00">ICE SERVICES</text>
</g>
<g id="39514" class="node">
<ellipse fill="#ffffff" stroke="cadetblue" stroke-width="10" cx="641.251" cy="-1047.77" rx="47" ry="47.5"/>
<image xlink:href="com_images/c39514.png" width="94px" height="94px" preserveAspectRatio="xMinYMin meet" x="594.251" y="-1094.77"/>
<ellipse fill="none" stroke="cadetblue" stroke-width="10" cx="641.251" cy="-1047.77" rx="47" ry="47.5"/>
<text text-anchor="start" x="703.251" y="-1043.77" font-family="Times Roman,serif" font-size="15.00">UDELHOVEN OIL</text>
</g>
<g id="1137" class="node">
<ellipse fill="#ffffff" stroke="cadetblue" stroke-width="10" cx="349.421" cy="-526.295" rx="52" ry="52.5"/>
<image xlink:href="com_images/c92.png" width="104px" height="104px" preserveAspectRatio="xMinYMin meet" x="297.421" y="-578.295"/>
<ellipse fill="none" stroke="cadetblue" stroke-width="10" cx="349.421" cy="-526.295" rx="52" ry="52.5"/>
<text text-anchor="start" x="416.421" y="-522.295" font-family="Times Roman,serif" font-size="15.00">ConocoPhillips</text>
</g>
<g id="5460" class="node">
<ellipse fill="#ffffff" stroke="cadetblue" stroke-width="10" cx="1025.59" cy="-815.242" rx="55" ry="55"/>
<image xlink:href="com_images/c185.png" width="110px" height="110px" preserveAspectRatio="xMinYMin meet" x="970.589" y="-870.242"/>
<ellipse fill="none" stroke="cadetblue" stroke-width="10" cx="1025.59" cy="-815.242" rx="55" ry="55"/>
<text text-anchor="start" x="1095.59" y="-811.242" font-family="Times Roman,serif" font-size="15.00">Tesoro Petroleum</text>
</g>
<g id="4140" class="node">
<polygon fill="#ffffff" stroke="#cc3333" stroke-width="10" points="1204.41,-1168.55 1108.41,-1168.55 1108.41,-1071.55 1204.41,-1071.55 1204.41,-1168.55"/>
<image xlink:href="can_images/4140.jpg" width="72.4267px" height="97px" preserveAspectRatio="xMinYMin meet" x="1120.2" y="-1168.55"/>
<polygon fill="none" stroke="#cc3333" stroke-width="10" points="1204.41,-1168.55 1108.41,-1168.55 1108.41,-1071.55 1204.41,-1071.55 1204.41,-1168.55"/>
<text text-anchor="middle" x="1156.41" y="-1116.05" font-family="Times Roman,serif" font-size="15.00">Thomas Wagoner</text>
</g>
<g id="4144" class="node">
<polygon fill="#ffffff" stroke="#cc3333" stroke-width="10" points="729.76,-801.336 585.76,-801.336 585.76,-657.336 729.76,-657.336 729.76,-801.336"/>
<image xlink:href="can_images/4144.jpg" width="107.52px" height="144px" preserveAspectRatio="xMinYMin meet" x="604" y="-801.336"/>
<polygon fill="none" stroke="#cc3333" stroke-width="10" points="729.76,-801.336 585.76,-801.336 585.76,-657.336 729.76,-657.336 729.76,-801.336"/>
<text text-anchor="middle" x="657.76" y="-725.336" font-family="Times Roman,serif" font-size="15.00">Kevin Meyer</text>
</g>
</g>
</svg>
