<svg width="0px" height="0px"
  xmlns="http://www.w3.org/2000/svg" xmlns:xlink="http://www.w3.org/1999/xlink">
<g id="graph0" class="graph" transform="scale(0 0) rotate(0) translate(4 1697.69)">

<polygon id='svgscreen' style="opacity:0;" fill="#ffffff" stroke="#ffffff" points="-4,5 -4,-1697.69 1466.99,-1697.69 1466.99,5 -4,5"/>
<g id="9616_1500" class="edge">
<path fill="none" stroke="#999999" stroke-width="12.5234" d="M1295.55,-1633.4C1267.11,-1587.84 1209.38,-1495.35 1171.9,-1435.29"/>
<polygon fill="#999999" stroke="#999999" points="1199.58,-1417.55 1155.8,-1409.51 1143.8,-1452.36 1199.58,-1417.55"/>
</g>
<g id="2497_29806" class="edge">
<path fill="none" stroke="#999999" stroke-width="12.5234" d="M63.5028,-328.961C118.83,-348.099 236.873,-388.931 311.198,-414.64"/>
<polygon fill="#999999" stroke="#999999" points="300.511,-445.728 339.609,-424.468 322.004,-383.593 300.511,-445.728"/>
</g>
<g id="15345_29851" class="edge">
<path fill="none" stroke="#999999" stroke-width="13.014" d="M195.115,-1483.83C228.993,-1444.44 296.122,-1366.39 341.25,-1313.92"/>
<polygon fill="#999999" stroke="#999999" points="367.443,-1335.86 361.105,-1290.84 315.643,-1291.31 367.443,-1335.86"/>
</g>
<g id="9615_30234" class="edge">
<path fill="none" stroke="#999999" stroke-width="15.4673" d="M1101.25,-65.6538C1079.58,-119.34 1034.57,-230.841 1003.85,-306.941"/>
<polygon fill="#999999" stroke="#999999" points="966.139,-291.896 992.56,-334.913 1041.44,-322.291 966.139,-291.896"/>
</g>
<g id="142153_37871" class="edge">
<path fill="none" stroke="#999999" stroke-width="15.4673" d="M1394.47,-819.592C1329.86,-813.144 1184.79,-798.665 1090.34,-789.238"/>
<polygon fill="#999999" stroke="#999999" points="1094.32,-748.832 1060.43,-786.253 1086.25,-829.633 1094.32,-748.832"/>
</g>
<g id="7943_32722" class="edge">
<path fill="none" stroke="#999999" stroke-width="15.4673" d="M1386.99,-961.891C1324.5,-948.3 1185.47,-918.062 1093.83,-898.13"/>
<polygon fill="#999999" stroke="#999999" points="1102.4,-858.444 1064.46,-891.742 1085.15,-937.792 1102.4,-858.444"/>
</g>
<g id="4438_30529" class="edge">
<path fill="none" stroke="#999999" stroke-width="20.3738" d="M1106.78,-393.842C1024.86,-468.253 776.57,-693.772 664.05,-795.974"/>
<polygon fill="#999999" stroke="#999999" points="627.842,-756.612 641.594,-816.371 699.759,-835.789 627.842,-756.612"/>
</g>
<g id="2504_30529" class="edge">
<path fill="none" stroke="#999999" stroke-width="13.8318" d="M1114.39,-400.322C1086.36,-445.343 1033.2,-530.723 993.051,-595.211"/>
<polygon fill="#999999" stroke="#999999" points="962.057,-576.296 977.023,-620.954 1023.7,-614.677 962.057,-576.296"/>
</g>
<g id="7943_38887" class="edge">
<path fill="none" stroke="#999999" stroke-width="24.9533" d="M1300.14,-1110.64C1252.71,-1073.27 1157.36,-998.146 1088.08,-943.571"/>
<polygon fill="#999999" stroke="#999999" points="1128.44,-891.974 1064.33,-924.862 1047.36,-994.88 1128.44,-891.974"/>
</g>
<g id="8958_38974" class="edge">
<path fill="none" stroke="#999999" stroke-width="15.4673" d="M1281.55,-549.064C1248.88,-606.964 1179.66,-729.654 1136.39,-806.331"/>
<polygon fill="#999999" stroke="#999999" points="1100.99,-786.449 1121.61,-832.529 1171.71,-826.353 1100.99,-786.449"/>
</g>
<g id="142304_38974" class="edge">
<path fill="none" stroke="#999999" stroke-width="15.4673" d="M1272.01,-541.979C1234.71,-575.816 1167.27,-636.985 1117.21,-682.395"/>
<polygon fill="#999999" stroke="#999999" points="1089.86,-652.385 1094.92,-702.613 1144.42,-712.53 1089.86,-652.385"/>
</g>
<g id="9615_38974" class="edge">
<path fill="none" stroke="#999999" stroke-width="15.4673" d="M1265.3,-503.023C1214.71,-482.753 1118.92,-444.375 1050.6,-417.002"/>
<polygon fill="#999999" stroke="#999999" points="1065.26,-379.136 1022.32,-405.667 1035.06,-454.514 1065.26,-379.136"/>
</g>
<g id="2504_38974" class="edge">
<path fill="none" stroke="#999999" stroke-width="15.4673" d="M1265.97,-532.102C1211.58,-556.706 1102.94,-605.853 1026.23,-640.56"/>
<polygon fill="#999999" stroke="#999999" points="1009.41,-603.602 998.815,-652.96 1042.88,-677.587 1009.41,-603.602"/>
</g>
<g id="4458_32671" class="edge">
<path fill="none" stroke="#999999" stroke-width="17.1028" d="M1039.71,-1231.41C992.419,-1255.96 904.526,-1301.6 846.182,-1331.89"/>
<polygon fill="#999999" stroke="#999999" points="825.415,-1292.09 819.479,-1345.76 866.792,-1371.78 825.415,-1292.09"/>
</g>
<g id="8212_32671" class="edge">
<path fill="none" stroke="#999999" stroke-width="15.4673" d="M1037.62,-1227.26C975.02,-1250.39 843.072,-1299.15 764.119,-1328.33"/>
<polygon fill="#999999" stroke="#999999" points="749.831,-1290.33 735.765,-1338.81 777.98,-1366.49 749.831,-1290.33"/>
</g>
<g id="142153_32671" class="edge">
<path fill="none" stroke="#999999" stroke-width="17.1028" d="M1066.67,-1177.7C1055.67,-1109.9 1031.85,-963.078 1016.45,-868.169"/>
<polygon fill="#999999" stroke="#999999" points="1060.75,-860.879 1011.63,-838.457 972.116,-875.261 1060.75,-860.879"/>
</g>
<g id="8958_4486" class="edge">
<path fill="none" stroke="#999999" stroke-width="15.4673" d="M1233.05,-524.683C1208.51,-588.33 1156.91,-722.182 1125.3,-804.187"/>
<polygon fill="#999999" stroke="#999999" points="1087.36,-789.728 1114.45,-832.325 1163.12,-818.939 1087.36,-789.728"/>
</g>
<g id="142304_4486" class="edge">
<path fill="none" stroke="#999999" stroke-width="15.4673" d="M1223.57,-519.165C1194.21,-557.338 1142.93,-624.023 1104.39,-674.135"/>
<polygon fill="#999999" stroke="#999999" points="1071.96,-649.711 1085.85,-698.243 1136.33,-699.213 1071.96,-649.711"/>
</g>
<g id="9615_4486" class="edge">
<path fill="none" stroke="#999999" stroke-width="16.285" d="M1211.22,-475.484C1170.74,-460.258 1103.43,-434.945 1050.53,-415.047"/>
<polygon fill="#999999" stroke="#999999" points="1065.25,-374.912 1022.12,-404.362 1035.15,-454.935 1065.25,-374.912"/>
</g>
<g id="142153_4486" class="edge">
<path fill="none" stroke="#999999" stroke-width="17.1028" d="M1222.28,-518.177C1187.11,-560.089 1121.09,-638.763 1070.51,-699.051"/>
<polygon fill="#999999" stroke="#999999" points="1035.83,-670.529 1050.94,-722.368 1104.62,-728.244 1035.83,-670.529"/>
</g>
<g id="9047_4957" class="edge">
<path fill="none" stroke="#999999" stroke-width="13.8318" d="M166.028,-643.329C229.047,-639.89 356.185,-632.954 441.412,-628.304"/>
<polygon fill="#999999" stroke="#999999" points="443.555,-664.55 471.532,-626.661 439.599,-592.041 443.555,-664.55"/>
</g>
<g id="4439_4957" class="edge">
<path fill="none" stroke="#999999" stroke-width="26.0981" d="M165.969,-646.686C219.933,-648.48 319.977,-651.806 392.353,-654.212"/>
<polygon fill="#999999" stroke="#999999" points="390.167,-722.685 422.427,-655.212 394.72,-585.746 390.167,-722.685"/>
</g>
<g id="8958_538" class="edge">
<path fill="none" stroke="#999999" stroke-width="15.4673" d="M1240.83,-660.97C1216.06,-697.939 1174.58,-759.849 1142.82,-807.263"/>
<polygon fill="#999999" stroke="#999999" points="1109.08,-784.676 1126.11,-832.198 1176.54,-829.872 1109.08,-784.676"/>
</g>
<g id="9615_538" class="edge">
<path fill="none" stroke="#999999" stroke-width="15.4673" d="M1233.05,-604.61C1189.58,-568.116 1106.36,-498.252 1045.55,-447.205"/>
<polygon fill="#999999" stroke="#999999" points="1071.35,-415.846 1022.26,-427.653 1019.14,-478.039 1071.35,-415.846"/>
</g>
<g id="7943_538" class="edge">
<path fill="none" stroke="#999999" stroke-width="15.4673" d="M1234.8,-655.829C1199.58,-690.228 1136.9,-751.443 1086.07,-801.081"/>
<polygon fill="#999999" stroke="#999999" points="1057.51,-772.225 1064.42,-822.233 1114.25,-830.319 1057.51,-772.225"/>
</g>
<g id="2504_538" class="edge">
<path fill="none" stroke="#999999" stroke-width="15.4673" d="M1224.37,-634.976C1176.52,-642.443 1092.62,-655.535 1028.44,-665.549"/>
<polygon fill="#999999" stroke="#999999" points="1022.15,-625.438 998.766,-670.179 1034.67,-705.67 1022.15,-625.438"/>
</g>
<g id="142153_538" class="edge">
<path fill="none" stroke="#999999" stroke-width="15.4673" d="M1229.27,-648.245C1193.55,-669.039 1135.13,-703.054 1086.49,-731.373"/>
<polygon fill="#999999" stroke="#999999" points="1065.82,-696.428 1060.32,-746.61 1106.68,-766.603 1065.82,-696.428"/>
</g>
<g id="7941_671" class="edge">
<path fill="none" stroke="#999999" stroke-width="14.6495" d="M792.248,-356.019C760.158,-319.399 704.428,-255.803 663.455,-209.046"/>
<polygon fill="#999999" stroke="#999999" points="692.271,-183.581 643.577,-186.363 634.427,-234.27 692.271,-183.581"/>
</g>
<g id="28721_671" class="edge">
<path fill="none" stroke="#999999" stroke-width="15.4673" d="M805.403,-421.774C784.724,-482.297 742.935,-604.602 715.782,-684.073"/>
<polygon fill="#999999" stroke="#999999" points="677.275,-671.198 705.996,-712.714 754.116,-697.453 677.275,-671.198"/>
</g>
<g id="9047_671" class="edge">
<path fill="none" stroke="#999999" stroke-width="15.4673" d="M788.088,-409.657C745.449,-444.568 665.514,-510.017 605.225,-559.38"/>
<polygon fill="#999999" stroke="#999999" points="579.471,-527.991 581.981,-578.411 630.915,-590.821 579.471,-527.991"/>
</g>
<g id="4439_671" class="edge">
<path fill="none" stroke="#999999" stroke-width="14.6495" d="M788.052,-409.149C737.107,-449.942 631.707,-534.341 558.108,-593.276"/>
<polygon fill="#999999" stroke="#999999" points="533.873,-563.417 534.491,-612.186 581.945,-623.452 533.873,-563.417"/>
</g>
<g id="2504_671" class="edge">
<path fill="none" stroke="#999999" stroke-width="15.4673" d="M832.697,-420.725C850.428,-463.15 880.727,-535.648 904.735,-593.09"/>
<polygon fill="#999999" stroke="#999999" points="867.414,-609.085 916.444,-621.108 942.337,-577.771 867.414,-609.085"/>
</g>
<g id="142153_671" class="edge">
<path fill="none" stroke="#999999" stroke-width="15.4673" d="M834.236,-420.335C862.774,-481.516 922.426,-609.396 962.406,-695.107"/>
<polygon fill="#999999" stroke="#999999" points="925.66,-712.376 975.138,-722.4 999.251,-678.048 925.66,-712.376"/>
</g>
<g id="8958_38179" class="edge">
<path fill="none" stroke="#999999" stroke-width="15.4673" d="M1247.69,-719.253C1224.16,-743.548 1189.48,-779.356 1159.51,-810.31"/>
<polygon fill="#999999" stroke="#999999" points="1129.95,-782.462 1138.25,-832.258 1188.29,-838.952 1129.95,-782.462"/>
</g>
<g id="142304_38179" class="edge">
<path fill="none" stroke="#999999" stroke-width="15.4673" d="M1236.95,-699.273C1206.08,-706.121 1161.84,-715.935 1124.57,-724.201"/>
<polygon fill="#999999" stroke="#999999" points="1115.55,-684.614 1095.05,-730.75 1133.13,-763.89 1115.55,-684.614"/>
</g>
<g id="9615_38179" class="edge">
<path fill="none" stroke="#999999" stroke-width="15.4673" d="M1247.56,-662.877C1201.76,-616.768 1108.87,-523.238 1043.67,-457.594"/>
<polygon fill="#999999" stroke="#999999" points="1072.25,-428.759 1022.31,-436.085 1014.64,-485.983 1072.25,-428.759"/>
</g>
<g id="7943_38179" class="edge">
<path fill="none" stroke="#999999" stroke-width="15.4673" d="M1243.08,-713.299C1205.29,-739.748 1141.16,-784.628 1089.16,-821.026"/>
<polygon fill="#999999" stroke="#999999" points="1065.69,-787.889 1064.4,-838.355 1112.26,-854.417 1065.69,-787.889"/>
</g>
<g id="2504_38179" class="edge">
<path fill="none" stroke="#999999" stroke-width="15.4673" d="M1236.24,-689.426C1185.72,-687.683 1096.21,-684.596 1028.9,-682.275"/>
<polygon fill="#999999" stroke="#999999" points="1030.22,-641.694 998.837,-681.238 1027.42,-722.849 1030.22,-641.694"/>
</g>
<g id="142153_38179" class="edge">
<path fill="none" stroke="#999999" stroke-width="15.4673" d="M1238.16,-702.959C1199.97,-715.498 1139.12,-735.48 1088.79,-752.011"/>
<polygon fill="#999999" stroke="#999999" points="1076.07,-713.452 1060.24,-761.387 1101.41,-790.602 1076.07,-713.452"/>
</g>
<g id="8200_5460" class="edge">
<path fill="none" stroke="#999999" stroke-width="13.8318" d="M931.436,-432.278C894.584,-406.043 834.15,-363.02 788.51,-330.529"/>
<polygon fill="#999999" stroke="#999999" points="809.455,-300.871 763.959,-313.051 767.341,-360.028 809.455,-300.871"/>
</g>
<g id="28721_5460" class="edge">
<path fill="none" stroke="#999999" stroke-width="15.4673" d="M937.419,-485.688C894.725,-532.876 810.596,-625.862 752.421,-690.162"/>
<polygon fill="#999999" stroke="#999999" points="721.931,-663.344 731.912,-712.83 782.147,-717.824 721.931,-663.344"/>
</g>
<g id="9047_5460" class="edge">
<path fill="none" stroke="#999999" stroke-width="18.7383" d="M926.767,-470.249C856.817,-497.072 705.412,-555.131 610.236,-591.628"/>
<polygon fill="#999999" stroke="#999999" points="592.47,-545.76 582.07,-602.428 627.693,-637.614 592.47,-545.76"/>
</g>
<g id="142153_5460" class="edge">
<path fill="none" stroke="#999999" stroke-width="18.7383" d="M969.171,-496.253C974.839,-545.004 984.525,-628.313 991.949,-692.166"/>
<polygon fill="#999999" stroke="#999999" points="943.112,-698.039 995.436,-722.158 1040.83,-686.678 943.112,-698.039"/>
</g>
<g id="3244_5460" class="edge">
<path fill="none" stroke="#999999" stroke-width="17.1028" d="M933.458,-481.524C878.013,-527.534 760.085,-625.394 678.759,-692.88"/>
<polygon fill="#999999" stroke="#999999" points="649.998,-658.407 655.581,-712.113 707.337,-727.504 649.998,-658.407"/>
</g>
<g id="9616_32623" class="edge">
<path fill="none" stroke="#999999" stroke-width="14.6495" d="M1150.43,-1086.53C1147.6,-1146.49 1142.65,-1251.55 1139.51,-1318.03"/>
<polygon fill="#999999" stroke="#999999" points="1101.1,-1316.24 1138.1,-1348.02 1177.92,-1319.86 1101.1,-1316.24"/>
</g>
<g id="4423_32623" class="edge">
<path fill="none" stroke="#999999" stroke-width="22.9907" d="M1120.43,-1073.95C1076.87,-1119.17 998.533,-1200.48 946.007,-1255"/>
<polygon fill="#999999" stroke="#999999" points="902.268,-1213.42 924.916,-1276.9 989.192,-1297.16 902.268,-1213.42"/>
</g>
<g id="8944_32623" class="edge">
<path fill="none" stroke="#999999" stroke-width="17.1028" d="M1110.91,-1021.1C1070.08,-1002.03 1007.31,-972.722 960.26,-950.75"/>
<polygon fill="#999999" stroke="#999999" points="979.177,-910.036 932.999,-938.02 941.186,-991.392 979.177,-910.036"/>
</g>
<g id="7943_32623" class="edge">
<path fill="none" stroke="#999999" stroke-width="18.7383" d="M1121.55,-1006.32C1109.03,-992.505 1094.02,-975.938 1079.02,-959.395"/>
<polygon fill="#999999" stroke="#999999" points="1115.42,-926.306 1058.82,-937.113 1042.53,-992.375 1115.42,-926.306"/>
</g>
<g id="2504_32623" class="edge">
<path fill="none" stroke="#999999" stroke-width="20.3738" d="M1129.32,-1000.86C1096,-944.042 1033.92,-838.155 990.102,-763.427"/>
<polygon fill="#999999" stroke="#999999" points="1036.18,-736.283 974.873,-737.454 943.911,-790.384 1036.18,-736.283"/>
</g>
<g id="142153_32623" class="edge">
<path fill="none" stroke="#999999" stroke-width="20.3738" d="M1129.43,-1000.49C1108.66,-964.563 1077.5,-910.665 1051.22,-865.205"/>
<polygon fill="#999999" stroke="#999999" points="1097.34,-838.126 1036.02,-838.921 1004.73,-891.661 1097.34,-838.126"/>
</g>
<g id="4438_37368" class="edge">
<path fill="none" stroke="#999999" stroke-width="13.8318" d="M651.947,-620.609C642.974,-666.421 629.837,-733.494 620.18,-782.799"/>
<polygon fill="#999999" stroke="#999999" points="584.482,-776.158 614.347,-812.577 655.745,-790.116 584.482,-776.158"/>
</g>
<g id="7941_37368" class="edge">
<path fill="none" stroke="#999999" stroke-width="18.7383" d="M655.864,-516.764C646.797,-440.671 629.944,-299.232 620.048,-216.175"/>
<polygon fill="#999999" stroke="#999999" points="668.872,-210.199 616.48,-186.229 571.187,-221.838 668.872,-210.199"/>
</g>
<g id="8944_37368" class="edge">
<path fill="none" stroke="#999999" stroke-width="15.4673" d="M691.319,-612.789C732.787,-675.028 808.851,-789.193 855.873,-859.768"/>
<polygon fill="#999999" stroke="#999999" points="822.204,-882.461 872.627,-884.915 889.782,-837.437 822.204,-882.461"/>
</g>
<g id="4459_37368" class="edge">
<path fill="none" stroke="#999999" stroke-width="15.4673" d="M618.651,-598.091C556.693,-639.745 442.634,-716.427 372.097,-763.848"/>
<polygon fill="#999999" stroke="#999999" points="349.206,-730.313 346.963,-780.746 394.512,-797.703 349.206,-730.313"/>
</g>
<g id="8200_37368" class="edge">
<path fill="none" stroke="#999999" stroke-width="14.6495" d="M673.893,-517.462C684.49,-471.336 700.102,-403.382 711.643,-353.149"/>
<polygon fill="#999999" stroke="#999999" points="749.145,-361.659 718.384,-323.81 674.188,-344.438 749.145,-361.659"/>
</g>
<g id="2497_37368" class="edge">
<path fill="none" stroke="#999999" stroke-width="14.6495" d="M614.635,-547.019C567.251,-525.168 494.078,-491.424 441.392,-467.128"/>
<polygon fill="#999999" stroke="#999999" points="457.154,-432.05 413.808,-454.408 424.947,-501.892 457.154,-432.05"/>
</g>
<g id="3249_37368" class="edge">
<path fill="none" stroke="#999999" stroke-width="14.6495" d="M645.727,-618.974C621.299,-693.802 575.209,-834.983 547.712,-919.21"/>
<polygon fill="#999999" stroke="#999999" points="511.087,-907.487 538.333,-947.94 584.199,-931.356 511.087,-907.487"/>
</g>
<g id="4417_37368" class="edge">
<path fill="none" stroke="#999999" stroke-width="15.4673" d="M656.285,-516.635C652.335,-480.991 647.032,-433.127 642.567,-392.834"/>
<polygon fill="#999999" stroke="#999999" points="682.903,-388.194 639.245,-362.848 602.194,-397.137 682.903,-388.194"/>
</g>
<g id="9615_37368" class="edge">
<path fill="none" stroke="#999999" stroke-width="15.4673" d="M707.159,-542.237C756.638,-512.978 836.904,-465.513 896.143,-430.482"/>
<polygon fill="#999999" stroke="#999999" points="916.941,-465.353 922.098,-415.134 875.608,-395.456 916.941,-465.353"/>
</g>
<g id="4441_37368" class="edge">
<path fill="none" stroke="#999999" stroke-width="14.6495" d="M621.324,-602.003C594.176,-624.058 557.694,-653.695 525.435,-679.903"/>
<polygon fill="#999999" stroke="#999999" points="500.85,-650.329 501.813,-699.093 549.345,-710.023 500.85,-650.329"/>
</g>
<g id="9047_37368" class="edge">
<path fill="none" stroke="#999999" stroke-width="22.5" d="M613.595,-588.509C612.306,-589.03 611.006,-589.556 609.699,-590.085"/>
<polygon fill="#999999" stroke="#999999" points="587.435,-535.379 581.774,-601.382 631.734,-644.883 587.435,-535.379"/>
</g>
<g id="4439_37368" class="edge">
<path fill="none" stroke="#999999" stroke-width="18.7383" d="M614.783,-591.605C598.647,-599.352 580.09,-608.263 561.968,-616.965"/>
<polygon fill="#999999" stroke="#999999" points="540.467,-572.724 534.714,-630.051 583.049,-661.407 540.467,-572.724"/>
</g>
<g id="7943_37368" class="edge">
<path fill="none" stroke="#999999" stroke-width="17.9206" d="M700.884,-603.875C755.172,-652.806 855.06,-742.836 925.785,-806.581"/>
<polygon fill="#999999" stroke="#999999" points="894.307,-841.538 948.085,-826.681 957.296,-771.653 894.307,-841.538"/>
</g>
<g id="2504_37368" class="edge">
<path fill="none" stroke="#999999" stroke-width="17.9206" d="M710.615,-588.116C750.259,-603.813 807.272,-626.388 854.63,-645.139"/>
<polygon fill="#999999" stroke="#999999" points="837.417,-688.918 882.628,-656.225 872.053,-601.443 837.417,-688.918"/>
</g>
<g id="3244_37368" class="edge">
<path fill="none" stroke="#999999" stroke-width="17.9206" d="M644.538,-618.586C638.651,-635.265 631.889,-654.424 625.248,-673.239"/>
<polygon fill="#999999" stroke="#999999" points="580.85,-657.691 615.225,-701.638 669.569,-689.005 580.85,-657.691"/>
</g>
<g id="9616_29834" class="edge">
<path fill="none" stroke="#999999" stroke-width="15.4673" d="M895.641,-1113.83C945.468,-1168.61 1033.9,-1265.84 1088.67,-1326.06"/>
<polygon fill="#999999" stroke="#999999" points="1058.64,-1353.39 1108.86,-1348.27 1118.71,-1298.75 1058.64,-1353.39"/>
</g>
<g id="4438_29834" class="edge">
<path fill="none" stroke="#999999" stroke-width="20.3738" d="M817.262,-1035.89C775.597,-998.418 710.837,-940.182 664.305,-898.337"/>
<polygon fill="#999999" stroke="#999999" points="699.921,-858.439 641.853,-878.146 628.398,-937.973 699.921,-858.439"/>
</g>
<g id="8944_29834" class="edge">
<path fill="none" stroke="#999999" stroke-width="20.3738" d="M872.022,-1018.94C874.644,-1008.55 877.417,-997.564 880.121,-986.852"/>
<polygon fill="#999999" stroke="#999999" points="932.1,-999.449 887.587,-957.272 828.39,-973.271 932.1,-999.449"/>
</g>
<g id="21_29834" class="edge">
<path fill="none" stroke="#999999" stroke-width="15.4673" d="M816.719,-1109.68C771.153,-1149.91 697.746,-1214.71 645.966,-1260.42"/>
<polygon fill="#999999" stroke="#999999" points="618.809,-1230.24 623.189,-1280.53 672.549,-1291.11 618.809,-1230.24"/>
</g>
<g id="9050_29834" class="edge">
<path fill="none" stroke="#999999" stroke-width="15.4673" d="M803.295,-1073.86C754.826,-1074.72 684.079,-1075.98 631.999,-1076.9"/>
<polygon fill="#999999" stroke="#999999" points="631.261,-1036.31 601.986,-1077.44 632.702,-1117.5 631.261,-1036.31"/>
</g>
<g id="3249_29834" class="edge">
<path fill="none" stroke="#999999" stroke-width="18.7383" d="M804.905,-1059.17C747.631,-1044.48 656.582,-1021.13 594.063,-1005.1"/>
<polygon fill="#999999" stroke="#999999" points="605.987,-957.382 564.71,-997.577 581.552,-1052.67 605.987,-957.382"/>
</g>
<g id="28721_29834" class="edge">
<path fill="none" stroke="#999999" stroke-width="15.4673" d="M832.124,-1023.83C804.509,-972.284 760.774,-890.648 729.149,-831.617"/>
<polygon fill="#999999" stroke="#999999" points="764.89,-812.354 714.934,-805.084 693.312,-850.701 764.89,-812.354"/>
</g>
<g id="7943_29834" class="edge">
<path fill="none" stroke="#999999" stroke-width="22.0093" d="M892.316,-1028.42C907.544,-1008.45 926.013,-984.237 943.608,-961.167"/>
<polygon fill="#999999" stroke="#999999" points="989.553,-996.195 961.807,-937.304 897.675,-926.123 989.553,-996.195"/>
</g>
<g id="2504_29834" class="edge">
<path fill="none" stroke="#999999" stroke-width="20.3738" d="M869.766,-1018.56C883.351,-953.61 906.27,-844.03 922.379,-767.007"/>
<polygon fill="#999999" stroke="#999999" points="974.762,-777.792 928.555,-737.479 870.065,-755.895 974.762,-777.792"/>
</g>
<g id="142153_29834" class="edge">
<path fill="none" stroke="#999999" stroke-width="23.6449" d="M882.963,-1022.95C904.182,-979.793 935.305,-916.503 960.435,-865.399"/>
<polygon fill="#999999" stroke="#999999" points="1016.14,-892.778 973.679,-838.468 904.742,-838 1016.14,-892.778"/>
</g>
<g id="3244_29834" class="edge">
<path fill="none" stroke="#999999" stroke-width="23.6449" d="M822.373,-1030.88C782.464,-984.357 717.062,-908.114 666.332,-848.975"/>
<polygon fill="#999999" stroke="#999999" points="713.295,-808.392 646.653,-826.033 619.075,-889.214 713.295,-808.392"/>
</g>
<g id="8200_1737" class="edge">
<path fill="none" stroke="#999999" stroke-width="17.1028" d="M736.036,-654.172C734.1,-576.176 730.641,-436.821 728.584,-353.951"/>
<polygon fill="#999999" stroke="#999999" points="773.459,-352.593 727.834,-323.717 683.697,-354.822 773.459,-352.593"/>
</g>
<g id="2497_1737" class="edge">
<path fill="none" stroke="#999999" stroke-width="17.1028" d="M691.77,-676.738C627.437,-627.846 509.996,-538.592 438.098,-483.951"/>
<polygon fill="#999999" stroke="#999999" points="464.903,-447.934 413.853,-465.525 410.573,-519.422 464.903,-447.934"/>
</g>
<g id="9050_1737" class="edge">
<path fill="none" stroke="#999999" stroke-width="22.0093" d="M712.914,-763.216C681.881,-828.652 628.433,-941.355 594.602,-1012.69"/>
<polygon fill="#999999" stroke="#999999" points="542.29,-988.169 581.637,-1040.03 646.693,-1037.68 542.29,-988.169"/>
</g>
<g id="4427_1737" class="edge">
<path fill="none" stroke="#999999" stroke-width="17.1028" d="M688.412,-741.269C636.291,-772.947 553.594,-823.209 495.846,-858.306"/>
<polygon fill="#999999" stroke="#999999" points="472.445,-819.992 470.126,-873.938 519.08,-896.722 472.445,-819.992"/>
</g>
<g id="8958_1737" class="edge">
<path fill="none" stroke="#999999" stroke-width="17.1028" d="M789.607,-734.784C853.299,-763.272 961.179,-811.523 1031.18,-842.83"/>
<polygon fill="#999999" stroke="#999999" points="1012.9,-883.836 1058.62,-855.102 1049.56,-801.871 1012.9,-883.836"/>
</g>
<g id="142304_1737" class="edge">
<path fill="none" stroke="#999999" stroke-width="17.1028" d="M794.383,-716.577C847.001,-721.306 925.406,-728.353 982.245,-733.462"/>
<polygon fill="#999999" stroke="#999999" points="978.572,-778.208 1012.47,-736.179 986.61,-688.779 978.572,-778.208"/>
</g>
<g id="4417_1737" class="edge">
<path fill="none" stroke="#999999" stroke-width="17.1028" d="M723.045,-656.151C705.158,-587.518 674.543,-470.038 654.238,-392.123"/>
<polygon fill="#999999" stroke="#999999" points="697.631,-380.607 646.622,-362.898 610.744,-403.25 697.631,-380.607"/>
</g>
<g id="4441_1737" class="edge">
<path fill="none" stroke="#999999" stroke-width="17.1028" d="M680.464,-717.253C637.929,-721.576 579.222,-727.543 531.8,-732.362"/>
<polygon fill="#999999" stroke="#999999" points="527.139,-687.71 501.832,-735.408 536.218,-777.039 527.139,-687.71"/>
</g>
<g id="9047_1737" class="edge">
<path fill="none" stroke="#999999" stroke-width="17.1028" d="M684.826,-689.528C662.185,-680.094 635.168,-668.835 609.928,-658.318"/>
<polygon fill="#999999" stroke="#999999" points="626.961,-616.779 582.001,-646.681 592.424,-699.661 626.961,-616.779"/>
</g>
<g id="4439_1737" class="edge">
<path fill="none" stroke="#999999" stroke-width="17.1028" d="M681.573,-699.726C647.306,-692.531 602.742,-683.175 564.088,-675.059"/>
<polygon fill="#999999" stroke="#999999" points="573.251,-631.109 534.666,-668.881 554.8,-718.983 573.251,-631.109"/>
</g>
<g id="7943_1737" class="edge">
<path fill="none" stroke="#999999" stroke-width="17.1028" d="M786.128,-741.814C824.101,-765.496 877.744,-798.951 922.564,-826.904"/>
<polygon fill="#999999" stroke="#999999" points="898.874,-865.04 948.087,-842.822 946.39,-788.853 898.874,-865.04"/>
</g>
<g id="2504_1737" class="edge">
<path fill="none" stroke="#999999" stroke-width="22.0093" d="M793.813,-702.526C812.041,-699.636 832.712,-696.359 852.672,-693.195"/>
<polygon fill="#999999" stroke="#999999" points="861.918,-750.225 882.502,-688.466 843.826,-636.101 861.918,-750.225"/>
</g>
<g id="142153_1737" class="edge">
<path fill="none" stroke="#999999" stroke-width="17.1028" d="M792.637,-725.837C827.9,-735.025 874.397,-747.14 914.634,-757.624"/>
<polygon fill="#999999" stroke="#999999" points="903.543,-801.127 943.893,-765.247 926.182,-714.239 903.543,-801.127"/>
</g>
<g id="3244_1737" class="edge">
<path fill="none" stroke="#999999" stroke-width="22.0093" d="M683.771,-730.954C683.629,-731.006 683.486,-731.058 683.343,-731.11"/>
<polygon fill="#999999" stroke="#999999" points="664.245,-676.579 655.765,-741.124 703.683,-785.19 664.245,-676.579"/>
</g>
<g id="2497_32446" class="edge">
<path fill="none" stroke="#999999" stroke-width="24.9533" d="M598.605,-478.289C553.311,-469.923 490.862,-458.388 443.752,-449.686"/>
<polygon fill="#999999" stroke="#999999" points="455.386,-385.225 413.988,-444.188 431.591,-514.05 455.386,-385.225"/>
</g>
<g id="4427_32446" class="edge">
<path fill="none" stroke="#999999" stroke-width="15.4673" d="M628.341,-542.295C587.03,-616.468 512.041,-751.107 467.067,-831.855"/>
<polygon fill="#999999" stroke="#999999" points="431.507,-812.259 452.38,-858.225 502.449,-851.772 431.507,-812.259"/>
</g>
<g id="4417_32446" class="edge">
<path fill="none" stroke="#999999" stroke-width="17.1028" d="M649.599,-428.824C648.007,-417.222 646.317,-404.912 644.658,-392.822"/>
<polygon fill="#999999" stroke="#999999" points="689.105,-386.491 640.548,-362.874 600.149,-398.7 689.105,-386.491"/>
</g>
<g id="9615_32446" class="edge">
<path fill="none" stroke="#999999" stroke-width="17.1028" d="M715.159,-470.343C765.046,-453.882 837.863,-429.855 893.255,-411.577"/>
<polygon fill="#999999" stroke="#999999" points="907.557,-454.134 921.979,-402.099 879.422,-368.866 907.557,-454.134"/>
</g>
<g id="4441_32446" class="edge">
<path fill="none" stroke="#999999" stroke-width="28.3879" d="M619.408,-535.93C589.307,-572.451 546.872,-623.938 512.094,-666.133"/>
<polygon fill="#999999" stroke="#999999" points="454.49,-618.861 492.913,-689.406 569.498,-713.65 454.49,-618.861"/>
</g>
<g id="9047_32446" class="edge">
<path fill="none" stroke="#999999" stroke-width="23.6449" d="M615.669,-532.507C611.398,-536.884 606.975,-541.417 602.487,-546.016"/>
<polygon fill="#999999" stroke="#999999" points="557.866,-502.871 581.336,-567.691 646.711,-589.568 557.866,-502.871"/>
</g>
<g id="4439_32446" class="edge">
<path fill="none" stroke="#999999" stroke-width="15.4673" d="M613.531,-530.727C596.279,-546.861 575.991,-565.835 556.456,-584.105"/>
<polygon fill="#999999" stroke="#999999" points="528.689,-554.483 534.511,-604.628 584.156,-613.791 528.689,-554.483"/>
</g>
<g id="2504_32446" class="edge">
<path fill="none" stroke="#999999" stroke-width="16.4486" d="M708.132,-522.988C749.578,-550.828 809.237,-590.902 857.758,-623.495"/>
<polygon fill="#999999" stroke="#999999" points="833.69,-659.342 882.669,-640.228 881.842,-587.658 833.69,-659.342"/>
</g>
<g id="142153_32446" class="edge">
<path fill="none" stroke="#999999" stroke-width="24.9533" d="M703.97,-528.21C759.337,-575.036 853.216,-654.432 920.874,-711.652"/>
<polygon fill="#999999" stroke="#999999" points="878.845,-761.894 944.05,-731.252 963.442,-661.866 878.845,-761.894"/>
</g>
<g id="3244_32446" class="edge">
<path fill="none" stroke="#999999" stroke-width="36.2383" d="M644.03,-548.142C635.529,-584.269 624.465,-631.285 614.839,-672.195"/>
<polygon fill="#999999" stroke="#999999" points="522.178,-650.678 607.903,-701.67 707.371,-694.257 522.178,-650.678"/>
</g>
<g id="8944_1137" class="edge">
<path fill="none" stroke="#999999" stroke-width="15.4673" d="M864.798,-683.458C871.537,-733.615 880.968,-803.818 887.832,-854.906"/>
<polygon fill="#999999" stroke="#999999" points="847.635,-860.633 891.869,-884.96 928.115,-849.821 847.635,-860.633"/>
</g>
<g id="142304_1137" class="edge">
<path fill="none" stroke="#999999" stroke-width="18.7383" d="M910.602,-653.57C934.117,-667.743 961.894,-684.486 986.696,-699.435"/>
<polygon fill="#999999" stroke="#999999" points="961.487,-741.673 1012.57,-715.033 1012.27,-657.419 961.487,-741.673"/>
</g>
<g id="28721_1137" class="edge">
<path fill="none" stroke="#999999" stroke-width="25.2804" d="M807.878,-661.19C792.687,-673.808 775.619,-687.984 759.294,-701.543"/>
<polygon fill="#999999" stroke="#999999" points="716.889,-650.498 736.212,-720.715 801.69,-752.596 716.889,-650.498"/>
</g>
<g id="4417_1137" class="edge">
<path fill="none" stroke="#999999" stroke-width="31.4953" d="M819.386,-569.821C783.257,-519.959 727.908,-443.571 687.051,-387.182"/>
<polygon fill="#999999" stroke="#999999" points="753.97,-338.633 669.419,-362.849 620.073,-435.651 753.97,-338.633"/>
</g>
<g id="9615_1137" class="edge">
<path fill="none" stroke="#999999" stroke-width="22.0093" d="M884.259,-564.226C899.105,-534.035 917.592,-496.439 933.773,-463.533"/>
<polygon fill="#999999" stroke="#999999" points="985.857,-488.543 947.249,-436.128 882.166,-437.555 985.857,-488.543"/>
</g>
<g id="4441_1137" class="edge">
<path fill="none" stroke="#999999" stroke-width="26.9159" d="M795.659,-638.816C725.196,-659.609 608.756,-693.968 530.908,-716.94"/>
<polygon fill="#999999" stroke="#999999" points="510.672,-649.245 501.896,-725.501 550.666,-784.776 510.672,-649.245"/>
</g>
<g id="9047_1137" class="edge">
<path fill="none" stroke="#999999" stroke-width="24.9533" d="M793.221,-621.423C741.798,-621.852 668.718,-622.463 612.09,-622.936"/>
<polygon fill="#999999" stroke="#999999" points="611.204,-557.439 581.752,-623.19 612.299,-688.439 611.204,-557.439"/>
</g>
<g id="4439_1137" class="edge">
<path fill="none" stroke="#999999" stroke-width="25.2804" d="M793.556,-626.91C730.937,-632.904 634.312,-642.153 564.565,-648.83"/>
<polygon fill="#999999" stroke="#999999" points="558.169,-582.778 534.629,-651.695 570.816,-714.896 558.169,-582.778"/>
</g>
<g id="7943_1137" class="edge">
<path fill="none" stroke="#999999" stroke-width="20.3738" d="M888.166,-675.648C908.218,-710.202 934.525,-755.534 957.215,-794.634"/>
<polygon fill="#999999" stroke="#999999" points="911.092,-821.708 972.406,-820.812 1003.61,-768.021 911.092,-821.708"/>
</g>
<g id="142153_1137" class="edge">
<path fill="none" stroke="#999999" stroke-width="17.1028" d="M898.962,-667.471C908.246,-677.629 918.328,-688.661 928.433,-699.717"/>
<polygon fill="#999999" stroke="#999999" points="895.579,-730.317 948.957,-722.174 961.857,-669.741 895.579,-730.317"/>
</g>
<g id="3244_1137" class="edge">
<path fill="none" stroke="#999999" stroke-width="17.1028" d="M800.915,-651.029C766.453,-669.749 721.378,-694.232 682.035,-715.602"/>
<polygon fill="#999999" stroke="#999999" points="660.529,-676.194 655.596,-729.964 703.387,-755.095 660.529,-676.194"/>
</g>
<g id="4420_5727" class="edge">
<path fill="none" stroke="#999999" stroke-width="15.4673" d="M872.672,-463.717C871.399,-398.196 869.444,-297.531 868.193,-233.115"/>
<polygon fill="#999999" stroke="#999999" points="908.779,-231.916 867.603,-202.71 827.591,-233.493 908.779,-231.916"/>
</g>
<g id="8944_5727" class="edge">
<path fill="none" stroke="#999999" stroke-width="15.4673" d="M877.665,-592.749C881.86,-665.027 888.632,-781.696 892.872,-854.749"/>
<polygon fill="#999999" stroke="#999999" points="852.352,-857.331 894.624,-884.928 933.419,-852.625 852.352,-857.331"/>
</g>
<g id="8200_5727" class="edge">
<path fill="none" stroke="#999999" stroke-width="17.1028" d="M840.383,-473.197C818.016,-436.431 788.556,-388.005 765.26,-349.711"/>
<polygon fill="#999999" stroke="#999999" points="803.522,-326.226 749.575,-323.929 726.812,-372.893 803.522,-326.226"/>
</g>
<g id="28721_5727" class="edge">
<path fill="none" stroke="#999999" stroke-width="17.1028" d="M833.835,-578.654C808.076,-610.985 774.253,-653.438 745.9,-689.024"/>
<polygon fill="#999999" stroke="#999999" points="710.669,-661.196 727.088,-712.635 780.895,-717.147 710.669,-661.196"/>
</g>
<g id="4417_5727" class="edge">
<path fill="none" stroke="#999999" stroke-width="24.9533" d="M825.91,-485.414C791.405,-454.57 744.302,-412.466 705.374,-377.668"/>
<polygon fill="#999999" stroke="#999999" points="748.988,-328.797 682.967,-357.639 661.68,-426.468 748.988,-328.797"/>
</g>
<g id="9615_5727" class="edge">
<path fill="none" stroke="#999999" stroke-width="15.4673" d="M910.489,-475.169C913.625,-470.61 916.833,-465.945 920.058,-461.255"/>
<polygon fill="#999999" stroke="#999999" points="953.608,-484.122 937.154,-436.397 886.7,-438.109 953.608,-484.122"/>
</g>
<g id="9047_5727" class="edge">
<path fill="none" stroke="#999999" stroke-width="25.2804" d="M811.855,-545.375C755.829,-560.756 672.928,-583.514 610.939,-600.532"/>
<polygon fill="#999999" stroke="#999999" points="593.331,-536.549 581.969,-608.485 628.467,-664.536 593.331,-536.549"/>
</g>
<g id="4439_5727" class="edge">
<path fill="none" stroke="#999999" stroke-width="22.0093" d="M812.998,-548.169C746.174,-569.921 638.467,-604.981 563.372,-629.426"/>
<polygon fill="#999999" stroke="#999999" points="545.272,-574.559 534.628,-638.782 581.038,-684.434 545.272,-574.559"/>
</g>
<g id="7943_5727" class="edge">
<path fill="none" stroke="#999999" stroke-width="24.9533" d="M896.668,-588.629C917.873,-644.85 949.733,-729.321 973.636,-792.696"/>
<polygon fill="#999999" stroke="#999999" points="912.446,-816.069 984.321,-821.023 1035.02,-769.837 912.446,-816.069"/>
</g>
<g id="2504_5727" class="edge">
<path fill="none" stroke="#999999" stroke-width="24.9533" d="M900.14,-587.541C901.02,-589.529 901.908,-591.533 902.799,-593.547"/>
<polygon fill="#999999" stroke="#999999" points="842.997,-620.274 915.037,-621.187 962.786,-567.238 842.997,-620.274"/>
</g>
<g id="142153_5727" class="edge">
<path fill="none" stroke="#999999" stroke-width="31.4953" d="M903.197,-585.858C919.675,-618.24 940.564,-659.291 958.904,-695.332"/>
<polygon fill="#999999" stroke="#999999" points="885.334,-733.051 972.623,-722.294 1032.7,-658.062 885.334,-733.051"/>
</g>
<g id="3244_5727" class="edge">
<path fill="none" stroke="#999999" stroke-width="29.8598" d="M824.72,-569.622C784.443,-603.417 726.52,-652.017 678.698,-692.142"/>
<polygon fill="#999999" stroke="#999999" points="628.058,-632.313 655.458,-711.642 728.821,-752.404 628.058,-632.313"/>
</g>
<g id="3249_808" class="edge">
<path fill="none" stroke="#999999" stroke-width="22.0093" d="M730.556,-867.8C688.669,-892.242 633.301,-924.55 590.645,-949.44"/>
<polygon fill="#999999" stroke="#999999" points="561.513,-899.548 564.72,-964.568 619.749,-999.349 561.513,-899.548"/>
</g>
<g id="4427_808" class="edge">
<path fill="none" stroke="#999999" stroke-width="24.9533" d="M721.84,-844.785C657.962,-856.497 564.175,-873.694 500.297,-885.407"/>
<polygon fill="#999999" stroke="#999999" points="488.047,-821.058 470.353,-890.897 511.675,-949.915 488.047,-821.058"/>
</g>
<g id="8958_808" class="edge">
<path fill="none" stroke="#999999" stroke-width="23.972" d="M862.809,-841.399C912.582,-848.076 978.902,-856.974 1028.55,-863.635"/>
<polygon fill="#999999" stroke="#999999" points="1020.33,-926.021 1058.43,-867.643 1037.06,-801.286 1020.33,-926.021"/>
</g>
<g id="142304_808" class="edge">
<path fill="none" stroke="#999999" stroke-width="23.972" d="M859.135,-808.332C897.477,-794.854 945.492,-777.976 984.245,-764.354"/>
<polygon fill="#999999" stroke="#999999" points="1005.24,-823.676 1012.67,-754.361 963.501,-704.945 1005.24,-823.676"/>
</g>
<g id="9615_808" class="edge">
<path fill="none" stroke="#999999" stroke-width="37.7103" d="M818.633,-766.047C851.053,-685.677 905.814,-549.925 940.407,-464.165"/>
<polygon fill="#999999" stroke="#999999" points="1032.31,-500.943 951.733,-436.089 848.708,-426.879 1032.31,-500.943"/>
</g>
<g id="4441_808" class="edge">
<path fill="none" stroke="#999999" stroke-width="20.3738" d="M723.399,-813.541C667.867,-798.687 589.579,-777.747 531.124,-762.111"/>
<polygon fill="#999999" stroke="#999999" points="544.577,-710.348 501.776,-754.261 516.938,-813.678 544.577,-710.348"/>
</g>
<g id="9047_808" class="edge">
<path fill="none" stroke="#999999" stroke-width="24.9533" d="M736.119,-787.996C698.332,-758.338 647.893,-718.749 605.989,-685.858"/>
<polygon fill="#999999" stroke="#999999" points="646.187,-634.14 582.145,-667.144 565.302,-737.193 646.187,-634.14"/>
</g>
<g id="4439_808" class="edge">
<path fill="none" stroke="#999999" stroke-width="15.4673" d="M729.727,-797.158C681.387,-770.21 613.95,-732.618 561.105,-703.16"/>
<polygon fill="#999999" stroke="#999999" points="580.574,-667.529 534.601,-688.385 541.036,-738.456 580.574,-667.529"/>
</g>
<g id="7943_808" class="edge">
<path fill="none" stroke="#999999" stroke-width="24.9533" d="M861.594,-847.222C879.839,-851.24 899.749,-855.625 918.799,-859.821"/>
<polygon fill="#999999" stroke="#999999" points="904.755,-923.8 948.142,-866.284 932.933,-795.862 904.755,-923.8"/>
</g>
<g id="2504_808" class="edge">
<path fill="none" stroke="#999999" stroke-width="34.4393" d="M841.985,-780.645C848.733,-773.715 855.784,-766.475 862.877,-759.19"/>
<polygon fill="#999999" stroke="#999999" points="927.866,-822.034 884.027,-737.471 798.329,-695.894 927.866,-822.034"/>
</g>
<g id="142153_808" class="edge">
<path fill="none" stroke="#999999" stroke-width="24.9533" d="M861.167,-814.985C878.229,-810.807 896.73,-806.276 914.544,-801.913"/>
<polygon fill="#999999" stroke="#999999" points="930.414,-865.464 943.971,-794.706 899.251,-738.22 930.414,-865.464"/>
</g>
<g id="3244_808" class="edge">
<path fill="none" stroke="#999999" stroke-width="18.7383" d="M724.766,-808.854C711.632,-804.355 697.661,-799.569 683.916,-794.861"/>
<polygon fill="#999999" stroke="#999999" points="699.808,-748.311 655.487,-785.122 667.927,-841.378 699.808,-748.311"/>
</g>
<g id="4432_951" class="edge">
<path fill="none" stroke="#999999" stroke-width="5" d="M459.863,-398.531C403.082,-360.869 318.972,-305.079 265.627,-269.695"/>
<polygon fill="#999999" stroke="#999999" points="272.768,-258.682 240.513,-253.037 258.258,-280.558 272.768,-258.682"/>
</g>
<g id="4443_951" class="edge">
<path fill="none" stroke="#999999" stroke-width="15.4673" d="M490.699,-371.907C461.807,-306.501 418.194,-207.772 390.852,-145.878"/>
<polygon fill="#999999" stroke="#999999" points="427.967,-129.415 378.705,-118.379 353.688,-162.227 427.967,-129.415"/>
</g>
<g id="4438_951" class="edge">
<path fill="none" stroke="#999999" stroke-width="12.8505" d="M535.344,-509.703C551.837,-586.82 577.913,-708.74 593.803,-783.032"/>
<polygon fill="#999999" stroke="#999999" points="560.862,-790.303 600.123,-812.585 626.835,-776.193 560.862,-790.303"/>
</g>
<g id="7941_951" class="edge">
<path fill="none" stroke="#999999" stroke-width="24.9533" d="M542.296,-369.17C557.263,-322.395 576.879,-261.09 591.527,-215.313"/>
<polygon fill="#999999" stroke="#999999" points="653.999,-235.006 600.755,-186.471 529.226,-195.082 653.999,-235.006"/>
</g>
<g id="4459_951" class="edge">
<path fill="none" stroke="#999999" stroke-width="27.8972" d="M484.133,-501.509C445.577,-569.032 384.755,-675.55 346.363,-742.785"/>
<polygon fill="#999999" stroke="#999999" points="282.696,-706.603 331.414,-768.967 409.883,-779.227 282.696,-706.603"/>
</g>
<g id="8200_951" class="edge">
<path fill="none" stroke="#999999" stroke-width="18.7383" d="M578.545,-395.6C605.609,-375.732 637.777,-352.117 665.23,-331.963"/>
<polygon fill="#999999" stroke="#999999" points="694.712,-371.339 689.787,-313.935 636.496,-292.038 694.712,-371.339"/>
</g>
<g id="28721_951" class="edge">
<path fill="none" stroke="#999999" stroke-width="34.4393" d="M554.126,-502.569C582.195,-555.448 622.034,-630.5 651.356,-685.738"/>
<polygon fill="#999999" stroke="#999999" points="571.696,-728.483 665.612,-712.595 731.397,-643.71 571.696,-728.483"/>
</g>
<g id="4417_951" class="edge">
<path fill="none" stroke="#999999" stroke-width="24.9533" d="M568.986,-384.841C569.089,-384.727 569.193,-384.614 569.296,-384.5"/>
<polygon fill="#999999" stroke="#999999" points="617.141,-429.246 588.918,-362.958 520.291,-341.028 617.141,-429.246"/>
</g>
<g id="9615_951" class="edge">
<path fill="none" stroke="#999999" stroke-width="27.4065" d="M591.735,-430.107C673.406,-420.541 806.6,-404.941 891.75,-394.968"/>
<polygon fill="#999999" stroke="#999999" points="900.397,-466.389 921.825,-391.445 883.659,-323.482 900.397,-466.389"/>
</g>
<g id="4441_951" class="edge">
<path fill="none" stroke="#999999" stroke-width="20.0467" d="M503.843,-509.326C493.45,-554.569 479.95,-613.34 469.16,-660.314"/>
<polygon fill="#999999" stroke="#999999" points="417.868,-648.553 462.439,-689.572 520.442,-672.115 417.868,-648.553"/>
</g>
<g id="9047_951" class="edge">
<path fill="none" stroke="#999999" stroke-width="28.2243" d="M522.71,-511.141C523.022,-519.874 523.343,-528.855 523.661,-537.753"/>
<polygon fill="#999999" stroke="#999999" points="449.633,-540.769 524.745,-568.104 597.716,-535.477 449.633,-540.769"/>
</g>
<g id="4439_951" class="edge">
<path fill="none" stroke="#999999" stroke-width="22.0093" d="M506.524,-509.764C502.785,-529.371 498.691,-550.843 494.812,-571.181"/>
<polygon fill="#999999" stroke="#999999" points="438.034,-560.497 489.167,-600.788 551.538,-582.141 438.034,-560.497"/>
</g>
<g id="2504_951" class="edge">
<path fill="none" stroke="#999999" stroke-width="28.5514" d="M583.086,-474.536C655.714,-516.104 775.455,-584.636 856.161,-630.828"/>
<polygon fill="#999999" stroke="#999999" points="819.159,-696.004 882.425,-645.859 893.617,-565.91 819.159,-696.004"/>
</g>
<g id="3244_951" class="edge">
<path fill="none" stroke="#999999" stroke-width="37.7103" d="M536.08,-509.485C546.82,-557.24 561.081,-620.647 572.676,-672.202"/>
<polygon fill="#999999" stroke="#999999" points="476.162,-694.202 579.322,-701.75 669.316,-650.76 476.162,-694.202"/>
</g>
<g id="4420_3716" class="edge">
<path fill="none" stroke="#999999" stroke-width="17.1028" d="M755.95,-540.819C781.883,-454.574 824.713,-312.136 848.902,-231.69"/>
<polygon fill="#999999" stroke="#999999" points="891.961,-244.399 857.607,-202.742 805.975,-218.544 891.961,-244.399"/>
</g>
<g id="8200_3716" class="edge">
<path fill="none" stroke="#999999" stroke-width="18.7383" d="M732.483,-537.524C731.253,-482.127 729.599,-407.645 728.414,-354.259"/>
<polygon fill="#999999" stroke="#999999" points="777.587,-353.005 727.745,-324.104 679.235,-355.188 777.587,-353.005"/>
</g>
<g id="2497_3716" class="edge">
<path fill="none" stroke="#999999" stroke-width="18.7383" d="M666.511,-579.967C601.717,-548.069 504.653,-500.285 441.006,-468.953"/>
<polygon fill="#999999" stroke="#999999" points="462.587,-424.751 413.946,-455.631 419.136,-513.012 462.587,-424.751"/>
</g>
<g id="9050_3716" class="edge">
<path fill="none" stroke="#999999" stroke-width="20.3738" d="M708.162,-684.125C675.486,-773.165 619.832,-924.821 587.944,-1011.71"/>
<polygon fill="#999999" stroke="#999999" points="537.673,-993.462 577.545,-1040.05 638.087,-1030.31 537.673,-993.462"/>
</g>
<g id="3249_3716" class="edge">
<path fill="none" stroke="#999999" stroke-width="15.4673" d="M697.325,-679.315C659.244,-747.584 600.145,-853.534 562.116,-921.71"/>
<polygon fill="#999999" stroke="#999999" points="526.625,-901.99 547.469,-947.968 597.542,-941.547 526.625,-901.99"/>
</g>
<g id="4427_3716" class="edge">
<path fill="none" stroke="#999999" stroke-width="18.7383" d="M679.095,-664.885C626.496,-714.183 547.324,-788.387 492.428,-839.838"/>
<polygon fill="#999999" stroke="#999999" points="458.428,-804.289 470.176,-860.694 525.702,-876.067 458.428,-804.289"/>
</g>
<g id="142304_3716" class="edge">
<path fill="none" stroke="#999999" stroke-width="17.1028" d="M804.314,-641.06C857.874,-662.276 931.297,-691.361 984.62,-712.483"/>
<polygon fill="#999999" stroke="#999999" points="968.23,-754.28 1012.66,-723.589 1001.3,-670.801 968.23,-754.28"/>
</g>
<g id="28721_3716" class="edge">
<path fill="none" stroke="#999999" stroke-width="18.7383" d="M712.314,-685.673C712.271,-685.815 712.227,-685.958 712.184,-686.101"/>
<polygon fill="#999999" stroke="#999999" points="665.783,-669.608 704.205,-712.54 759.963,-698.032 665.783,-669.608"/>
</g>
<g id="4417_3716" class="edge">
<path fill="none" stroke="#999999" stroke-width="30.1869" d="M710.124,-541.514C694.948,-496.216 675.347,-437.709 659.808,-391.327"/>
<polygon fill="#999999" stroke="#999999" points="734.938,-366.134 650.271,-362.86 584.665,-416.478 734.938,-366.134"/>
</g>
<g id="9615_3716" class="edge">
<path fill="none" stroke="#999999" stroke-width="15.4673" d="M788.755,-561.029C821.778,-529.427 864.271,-488.762 900.034,-454.538"/>
<polygon fill="#999999" stroke="#999999" points="928.238,-483.745 921.84,-433.67 872.094,-425.078 928.238,-483.745"/>
</g>
<g id="4441_3716" class="edge">
<path fill="none" stroke="#999999" stroke-width="18.7383" d="M665.549,-644.095C624.449,-662.558 572.053,-686.096 529.295,-705.304"/>
<polygon fill="#999999" stroke="#999999" points="509.03,-660.484 501.821,-717.646 549.343,-750.221 509.03,-660.484"/>
</g>
<g id="9047_3716" class="edge">
<path fill="none" stroke="#999999" stroke-width="22.0093" d="M658.982,-617.033C643.737,-617.796 627.601,-618.603 612.035,-619.382"/>
<polygon fill="#999999" stroke="#999999" points="608.899,-561.692 581.823,-620.893 614.672,-677.096 608.899,-561.692"/>
</g>
<g id="4439_3716" class="edge">
<path fill="none" stroke="#999999" stroke-width="40" d="M660.196,-625.941C630.37,-631.05 595.755,-636.979 564.785,-642.284"/>
<polygon fill="#999999" stroke="#999999" points="546.607,-538.868 534.765,-647.426 582.061,-745.854 546.607,-538.868"/>
</g>
<g id="7943_3716" class="edge">
<path fill="none" stroke="#999999" stroke-width="24.9533" d="M788.238,-666.104C827.742,-704.7 881.947,-757.66 926.42,-801.111"/>
<polygon fill="#999999" stroke="#999999" points="880.775,-848.092 948.009,-822.205 972.327,-754.387 880.775,-848.092"/>
</g>
<g id="2504_3716" class="edge">
<path fill="none" stroke="#999999" stroke-width="27.8972" d="M805.834,-636.157C821.296,-641.095 837.806,-646.366 853.78,-651.467"/>
<polygon fill="#999999" stroke="#999999" points="831.657,-721.276 882.511,-660.641 876.208,-581.756 831.657,-721.276"/>
</g>
<g id="142153_3716" class="edge">
<path fill="none" stroke="#999999" stroke-width="24.9533" d="M798.028,-653.101C834.011,-675.542 879.391,-703.844 918.226,-728.064"/>
<polygon fill="#999999" stroke="#999999" points="883.752,-783.761 943.87,-744.057 953.078,-672.602 883.752,-783.761"/>
</g>
<g id="3244_3716" class="edge">
<path fill="none" stroke="#999999" stroke-width="32.8037" d="M682.504,-668.473C679.022,-672.194 675.473,-675.986 671.896,-679.808"/>
<polygon fill="#999999" stroke="#999999" points="608.987,-621.009 651.36,-701.752 734.731,-738.687 608.987,-621.009"/>
</g>
<g id="15345_29814" class="edge">
<path fill="none" stroke="#999999" stroke-width="14.6495" d="M654.604,-1050.62C592.087,-1099.72 498.039,-1173.59 439.642,-1219.46"/>
<polygon fill="#999999" stroke="#999999" points="415.757,-1189.32 415.918,-1238.09 463.264,-1249.8 415.757,-1189.32"/>
</g>
<g id="4458_29814" class="edge">
<path fill="none" stroke="#999999" stroke-width="17.1028" d="M733.932,-1080.18C746.728,-1146.68 764.688,-1240.01 776.376,-1300.74"/>
<polygon fill="#999999" stroke="#999999" points="732.322,-1309.39 782.077,-1330.37 820.493,-1292.42 732.322,-1309.39"/>
</g>
<g id="4423_29814" class="edge">
<path fill="none" stroke="#999999" stroke-width="16.2033" d="M758.238,-1071.16C788.607,-1125.36 830.033,-1199.29 858.788,-1250.61"/>
<polygon fill="#999999" stroke="#999999" points="821.73,-1271.49 873.5,-1276.87 895.941,-1229.91 821.73,-1271.49"/>
</g>
<g id="4438_29814" class="edge">
<path fill="none" stroke="#999999" stroke-width="12.6869" d="M670.844,-934.565C664.055,-925.206 657.109,-915.628 650.421,-906.407"/>
<polygon fill="#999999" stroke="#999999" points="677.175,-886.571 632.602,-881.84 623.257,-925.678 677.175,-886.571"/>
</g>
<g id="8212_29814" class="edge">
<path fill="none" stroke="#999999" stroke-width="28.5514" d="M714.424,-1081.44C711.243,-1143.6 706.909,-1228.3 703.944,-1286.23"/>
<polygon fill="#999999" stroke="#999999" points="629.079,-1282.7 702.395,-1316.49 778.778,-1290.36 629.079,-1282.7"/>
</g>
<g id="4459_29814" class="edge">
<path fill="none" stroke="#999999" stroke-width="16.4486" d="M645.202,-965.226C567.916,-928.207 447.466,-870.511 374.179,-835.407"/>
<polygon fill="#999999" stroke="#999999" points="392.518,-796.316 346.809,-822.297 355.212,-874.197 392.518,-796.316"/>
</g>
<g id="21_29814" class="edge">
<path fill="none" stroke="#999999" stroke-width="38.3645" d="M686.961,-1074.96C664.639,-1127.63 635.013,-1197.54 613.612,-1248.04"/>
<polygon fill="#999999" stroke="#999999" points="520.767,-1209.03 601.784,-1275.95 706.214,-1287.62 520.767,-1209.03"/>
</g>
<g id="9050_29814" class="edge">
<path fill="none" stroke="#999999" stroke-width="22.0093" d="M646.066,-1036.74C640.334,-1039.62 634.566,-1042.51 628.887,-1045.36"/>
<polygon fill="#999999" stroke="#999999" points="602.734,-993.84 601.822,-1058.93 654.541,-1097.12 602.734,-993.84"/>
</g>
<g id="3249_29814" class="edge">
<path fill="none" stroke="#999999" stroke-width="26.9159" d="M637.497,-994.969C623.171,-994.014 608.377,-993.029 594.421,-992.099"/>
<polygon fill="#999999" stroke="#999999" points="599.062,-921.597 564.431,-990.101 589.668,-1062.59 599.062,-921.597"/>
</g>
<g id="4427_29814" class="edge">
<path fill="none" stroke="#999999" stroke-width="22.0093" d="M642.017,-973.281C597.445,-957.51 541.723,-937.792 498.6,-922.533"/>
<polygon fill="#999999" stroke="#999999" points="517.643,-867.987 470.088,-912.445 479.097,-976.917 517.643,-867.987"/>
</g>
<g id="8958_29814" class="edge">
<path fill="none" stroke="#999999" stroke-width="22.0093" d="M795.507,-974.606C864.247,-951.585 964.028,-918.168 1030.11,-896.037"/>
<polygon fill="#999999" stroke="#999999" points="1048.62,-950.768 1058.72,-886.457 1011.92,-841.2 1048.62,-950.768"/>
</g>
<g id="142304_29814" class="edge">
<path fill="none" stroke="#999999" stroke-width="17.1028" d="M782.816,-950.457C841.908,-904.544 929.123,-836.782 988.542,-790.616"/>
<polygon fill="#999999" stroke="#999999" points="1016.38,-825.838 1012.53,-771.98 961.293,-754.934 1016.38,-825.838"/>
</g>
<g id="28721_29814" class="edge">
<path fill="none" stroke="#999999" stroke-width="18.7383" d="M709.088,-919.638C705.887,-892.394 702.326,-862.088 699.167,-835.201"/>
<polygon fill="#999999" stroke="#999999" points="747.98,-829.123 695.627,-805.068 650.276,-840.603 747.98,-829.123"/>
</g>
<g id="4441_29814" class="edge">
<path fill="none" stroke="#999999" stroke-width="36.4019" d="M660.122,-943.685C619.971,-904.747 566.383,-852.777 523.469,-811.159"/>
<polygon fill="#999999" stroke="#999999" points="589.877,-742.451 501.817,-790.161 456.829,-879.642 589.877,-742.451"/>
</g>
<g id="9047_29814" class="edge">
<path fill="none" stroke="#999999" stroke-width="17.1028" d="M681.811,-928.181C649.563,-864.856 602.68,-772.791 568.913,-706.484"/>
<polygon fill="#999999" stroke="#999999" points="608.72,-685.72 555.1,-679.36 528.708,-726.466 608.72,-685.72"/>
</g>
<g id="4439_29814" class="edge">
<path fill="none" stroke="#999999" stroke-width="26.9159" d="M671.987,-933.773C632.81,-877.767 576.674,-797.516 534.937,-737.85"/>
<polygon fill="#999999" stroke="#999999" points="592.831,-697.349 517.74,-713.265 477.04,-778.347 592.831,-697.349"/>
</g>
<g id="7943_29814" class="edge">
<path fill="none" stroke="#999999" stroke-width="36.729" d="M793.397,-968.818C832.242,-952.438 879.888,-932.346 920.242,-915.329"/>
<polygon fill="#999999" stroke="#999999" points="957.927,-1004.07 948.107,-903.579 883.003,-826.397 957.927,-1004.07"/>
</g>
<g id="2504_29814" class="edge">
<path fill="none" stroke="#999999" stroke-width="16.4486" d="M764.875,-933.441C799.3,-883.68 846.484,-815.477 883.311,-762.243"/>
<polygon fill="#999999" stroke="#999999" points="918.898,-786.695 900.457,-737.458 847.88,-737.565 918.898,-786.695"/>
</g>
<g id="142153_29814" class="edge">
<path fill="none" stroke="#999999" stroke-width="18.7383" d="M782.935,-950.466C823.567,-918.96 876.436,-877.967 920.08,-844.126"/>
<polygon fill="#999999" stroke="#999999" points="950.326,-882.916 943.893,-825.662 890.045,-805.173 950.326,-882.916"/>
</g>
<g id="3244_29814" class="edge">
<path fill="none" stroke="#999999" stroke-width="26.9159" d="M680.641,-928.754C667.961,-904.814 653.673,-877.837 640.381,-852.742"/>
<polygon fill="#999999" stroke="#999999" points="702.685,-819.42 626.206,-825.979 577.811,-885.56 702.685,-819.42"/>
</g>
<g id="4432" class="node">
<polygon fill="#ffffff" stroke="#3333cc" stroke-width="10" points="240.148,-261.713 190.148,-261.713 190.148,-210.713 240.148,-210.713 240.148,-261.713"/>
<image xlink:href="can_images/unknownCandidate.jpg" width="50px" height="50px" preserveAspectRatio="xMinYMin meet" x="190.148" y="-261.213"/>
<polygon fill="none" stroke="#3333cc" stroke-width="10" points="240.148,-261.713 190.148,-261.713 190.148,-210.713 240.148,-210.713 240.148,-261.713"/>
<text text-anchor="middle" x="215.148" y="-232.213" font-family="Times Roman,serif" font-size="15.00">Sally (Committee 1) Lieber</text>
</g>
<g id="1500" class="node">
<ellipse fill="#ffffff" stroke="cadetblue" stroke-width="10" cx="1312.58" cy="-1660.69" rx="32" ry="32"/>
<image xlink:href="com_images/c17.png" width="64px" height="64px" preserveAspectRatio="xMinYMin meet" x="1280.58" y="-1692.69"/>
<ellipse fill="none" stroke="cadetblue" stroke-width="10" cx="1312.58" cy="-1660.69" rx="32" ry="32"/>
<text text-anchor="start" x="1359.58" y="-1656.69" font-family="Times Roman,serif" font-size="15.00">Dynegy Inc</text>
</g>
<g id="29806" class="node">
<ellipse fill="#ffffff" stroke="cadetblue" stroke-width="10" cx="33" cy="-318.41" rx="32" ry="32"/>
<image xlink:href="com_images/cunknown_coal_co.png" width="64px" height="64px" preserveAspectRatio="xMinYMin meet" x="1" y="-350.41"/>
<ellipse fill="none" stroke="cadetblue" stroke-width="10" cx="33" cy="-318.41" rx="32" ry="32"/>
<text text-anchor="start" x="80" y="-314.41" font-family="Times Roman,serif" font-size="15.00">CPS Energy</text>
</g>
<g id="29851" class="node">
<ellipse fill="#ffffff" stroke="cadetblue" stroke-width="10" cx="173.925" cy="-1508.47" rx="32" ry="32"/>
<image xlink:href="com_images/c127.png" width="64px" height="64px" preserveAspectRatio="xMinYMin meet" x="141.925" y="-1540.47"/>
<ellipse fill="none" stroke="cadetblue" stroke-width="10" cx="173.925" cy="-1508.47" rx="32" ry="32"/>
<text text-anchor="start" x="220.925" y="-1504.47" font-family="Times Roman,serif" font-size="15.00">Southern California Edison</text>
</g>
<g id="15345" class="node">
<polygon fill="#ffffff" stroke="#3333cc" stroke-width="10" points="415.803,-1290.46 357.803,-1290.46 357.803,-1231.46 415.803,-1231.46 415.803,-1290.46"/>
<image xlink:href="can_images/unknownCandidate.jpg" width="58px" height="58px" preserveAspectRatio="xMinYMin meet" x="357.803" y="-1289.96"/>
<polygon fill="none" stroke="#3333cc" stroke-width="10" points="415.803,-1290.46 357.803,-1290.46 357.803,-1231.46 415.803,-1231.46 415.803,-1290.46"/>
<text text-anchor="middle" x="386.803" y="-1256.96" font-family="Times Roman,serif" font-size="15.00">Hannah&#45;Beth Jackson</text>
</g>
<g id="30234" class="node">
<ellipse fill="#ffffff" stroke="cadetblue" stroke-width="10" cx="1113.82" cy="-34.5" rx="33" ry="33.5"/>
<image xlink:href="com_images/cunknown_oil_co.png" width="66px" height="66px" preserveAspectRatio="xMinYMin meet" x="1080.82" y="-67.5"/>
<ellipse fill="none" stroke="cadetblue" stroke-width="10" cx="1113.82" cy="-34.5" rx="33" ry="33.5"/>
<text text-anchor="start" x="1161.82" y="-30.5" font-family="Times Roman,serif" font-size="15.00">MDU Resources Group</text>
</g>
<g id="4443" class="node">
<polygon fill="#ffffff" stroke="#3333cc" stroke-width="10" points="394.662,-118.353 336.662,-118.353 336.662,-59.3527 394.662,-59.3527 394.662,-118.353"/>
<image xlink:href="can_images/4443.jpg" width="47.901px" height="59px" preserveAspectRatio="xMinYMin meet" x="341.711" y="-118.353"/>
<polygon fill="none" stroke="#3333cc" stroke-width="10" points="394.662,-118.353 336.662,-118.353 336.662,-59.3527 394.662,-59.3527 394.662,-118.353"/>
<text text-anchor="middle" x="365.662" y="-84.8527" font-family="Times Roman,serif" font-size="15.00">Loni Hancock</text>
</g>
<g id="37871" class="node">
<ellipse fill="#ffffff" stroke="cadetblue" stroke-width="10" cx="1427.49" cy="-822.888" rx="33" ry="33.5"/>
<image xlink:href="com_images/cunknown_oil_co.png" width="66px" height="66px" preserveAspectRatio="xMinYMin meet" x="1394.49" y="-855.888"/>
<ellipse fill="none" stroke="cadetblue" stroke-width="10" cx="1427.49" cy="-822.888" rx="33" ry="33.5"/>
<text text-anchor="start" x="1475.49" y="-818.888" font-family="Times Roman,serif" font-size="15.00">INDEPENDENT ENERGY PRODUCERS ASSOCIATION</text>
</g>
<g id="32722" class="node">
<ellipse fill="#ffffff" stroke="cadetblue" stroke-width="10" cx="1419.42" cy="-968.943" rx="33" ry="33.5"/>
<image xlink:href="com_images/cunknown_oil_co.png" width="66px" height="66px" preserveAspectRatio="xMinYMin meet" x="1386.42" y="-1001.94"/>
<ellipse fill="none" stroke="cadetblue" stroke-width="10" cx="1419.42" cy="-968.943" rx="33" ry="33.5"/>
<text text-anchor="start" x="1467.42" y="-964.943" font-family="Times Roman,serif" font-size="15.00">Aera Energy</text>
</g>
<g id="9616" class="node">
<polygon fill="#ffffff" stroke="#3333cc" stroke-width="10" points="1166.64,-1409.31 1106.64,-1409.31 1106.64,-1348.31 1166.64,-1348.31 1166.64,-1409.31"/>
<image xlink:href="can_images/9616.jpg" width="49.5248px" height="61px" preserveAspectRatio="xMinYMin meet" x="1111.88" y="-1409.31"/>
<polygon fill="none" stroke="#3333cc" stroke-width="10" points="1166.64,-1409.31 1106.64,-1409.31 1106.64,-1348.31 1166.64,-1348.31 1166.64,-1409.31"/>
<text text-anchor="middle" x="1136.64" y="-1374.81" font-family="Times Roman,serif" font-size="15.00">William W Monning</text>
</g>
<g id="4420" class="node">
<polygon fill="#ffffff" stroke="#3333cc" stroke-width="10" points="897.997,-202.513 835.997,-202.513 835.997,-140.513 897.997,-140.513 897.997,-202.513"/>
<image xlink:href="can_images/4420.jpg" width="50.3366px" height="62px" preserveAspectRatio="xMinYMin meet" x="841.828" y="-202.513"/>
<polygon fill="none" stroke="#3333cc" stroke-width="10" points="897.997,-202.513 835.997,-202.513 835.997,-140.513 897.997,-140.513 897.997,-202.513"/>
<text text-anchor="middle" x="866.997" y="-167.513" font-family="Times Roman,serif" font-size="15.00">Curren D Price</text>
</g>
<g id="4458" class="node">
<polygon fill="#ffffff" stroke="#cc3333" stroke-width="10" points="819.168,-1393.52 757.168,-1393.52 757.168,-1330.52 819.168,-1330.52 819.168,-1393.52"/>
<image xlink:href="can_images/4458.jpg" width="51.1485px" height="63px" preserveAspectRatio="xMinYMin meet" x="762.594" y="-1393.52"/>
<polygon fill="none" stroke="#cc3333" stroke-width="10" points="819.168,-1393.52 757.168,-1393.52 757.168,-1330.52 819.168,-1330.52 819.168,-1393.52"/>
<text text-anchor="middle" x="788.168" y="-1358.02" font-family="Times Roman,serif" font-size="15.00">Doug La Malfa</text>
</g>
<g id="30529" class="node">
<ellipse fill="#ffffff" stroke="cadetblue" stroke-width="10" cx="1133.59" cy="-369.49" rx="36" ry="36"/>
<image xlink:href="com_images/c30529.png" width="72px" height="72px" preserveAspectRatio="xMinYMin meet" x="1097.59" y="-405.49"/>
<ellipse fill="none" stroke="cadetblue" stroke-width="10" cx="1133.59" cy="-369.49" rx="36" ry="36"/>
<text text-anchor="start" x="1184.59" y="-365.49" font-family="Times Roman,serif" font-size="15.00">Berkshire Hathaway</text>
</g>
<g id="38887" class="node">
<ellipse fill="#ffffff" stroke="cadetblue" stroke-width="10" cx="1329.39" cy="-1133.68" rx="37" ry="37"/>
<image xlink:href="com_images/cunknown_oil_co.png" width="74px" height="74px" preserveAspectRatio="xMinYMin meet" x="1292.39" y="-1170.68"/>
<ellipse fill="none" stroke="cadetblue" stroke-width="10" cx="1329.39" cy="-1133.68" rx="37" ry="37"/>
<text text-anchor="start" x="1381.39" y="-1129.68" font-family="Times Roman,serif" font-size="15.00">TRC OPERATING CO</text>
</g>
<g id="38974" class="node">
<ellipse fill="#ffffff" stroke="cadetblue" stroke-width="10" cx="1299.74" cy="-516.823" rx="37" ry="37"/>
<image xlink:href="com_images/c38974.png" width="74px" height="74px" preserveAspectRatio="xMinYMin meet" x="1262.74" y="-553.823"/>
<ellipse fill="none" stroke="cadetblue" stroke-width="10" cx="1299.74" cy="-516.823" rx="37" ry="37"/>
<text text-anchor="start" x="1351.74" y="-512.823" font-family="Times Roman,serif" font-size="15.00">VAQUERO ENERGY</text>
</g>
<g id="32671" class="node">
<ellipse fill="#ffffff" stroke="cadetblue" stroke-width="10" cx="1072.62" cy="-1214.32" rx="37" ry="37"/>
<image xlink:href="com_images/c32671.png" width="74px" height="74px" preserveAspectRatio="xMinYMin meet" x="1035.62" y="-1251.32"/>
<ellipse fill="none" stroke="cadetblue" stroke-width="10" cx="1072.62" cy="-1214.32" rx="37" ry="37"/>
<text text-anchor="start" x="1124.62" y="-1210.32" font-family="Times Roman,serif" font-size="15.00">PacifiCorp</text>
</g>
<g id="4423" class="node">
<polygon fill="#ffffff" stroke="#3333cc" stroke-width="10" points="925.417,-1344.13 859.417,-1344.13 859.417,-1277.13 925.417,-1277.13 925.417,-1344.13"/>
<image xlink:href="can_images/4423.jpg" width="54.396px" height="67px" preserveAspectRatio="xMinYMin meet" x="865.219" y="-1344.13"/>
<polygon fill="none" stroke="#3333cc" stroke-width="10" points="925.417,-1344.13 859.417,-1344.13 859.417,-1277.13 925.417,-1277.13 925.417,-1344.13"/>
<text text-anchor="middle" x="892.417" y="-1306.63" font-family="Times Roman,serif" font-size="15.00">Carol Liu</text>
</g>
<g id="4486" class="node">
<ellipse fill="#ffffff" stroke="cadetblue" stroke-width="10" cx="1246.85" cy="-488.887" rx="38" ry="38"/>
<image xlink:href="com_images/c27.png" width="76px" height="76px" preserveAspectRatio="xMinYMin meet" x="1208.85" y="-526.887"/>
<ellipse fill="none" stroke="cadetblue" stroke-width="10" cx="1246.85" cy="-488.887" rx="38" ry="38"/>
<text text-anchor="start" x="1299.85" y="-484.887" font-family="Times Roman,serif" font-size="15.00">Plains Exploration &amp; Production</text>
</g>
<g id="4957" class="node">
<ellipse fill="#ffffff" stroke="cadetblue" stroke-width="10" cx="127.775" cy="-645.416" rx="38" ry="38"/>
<image xlink:href="com_images/c4957.png" width="76px" height="76px" preserveAspectRatio="xMinYMin meet" x="89.7749" y="-683.416"/>
<ellipse fill="none" stroke="cadetblue" stroke-width="10" cx="127.775" cy="-645.416" rx="38" ry="38"/>
<text text-anchor="start" x="180.775" y="-641.416" font-family="Times Roman,serif" font-size="15.00">SC Fuels</text>
</g>
<g id="538" class="node">
<ellipse fill="#ffffff" stroke="cadetblue" stroke-width="10" cx="1262.2" cy="-629.075" rx="38" ry="38"/>
<image xlink:href="com_images/c538.png" width="76px" height="76px" preserveAspectRatio="xMinYMin meet" x="1224.2" y="-667.075"/>
<ellipse fill="none" stroke="cadetblue" stroke-width="10" cx="1262.2" cy="-629.075" rx="38" ry="38"/>
<text text-anchor="start" x="1315.2" y="-625.075" font-family="Times Roman,serif" font-size="15.00">Berry Petroleum</text>
</g>
<g id="671" class="node">
<ellipse fill="#ffffff" stroke="cadetblue" stroke-width="10" cx="817.877" cy="-385.266" rx="38" ry="38.5"/>
<image xlink:href="com_images/c70.png" width="76px" height="76px" preserveAspectRatio="xMinYMin meet" x="779.877" y="-423.266"/>
<ellipse fill="none" stroke="cadetblue" stroke-width="10" cx="817.877" cy="-385.266" rx="38" ry="38.5"/>
<text text-anchor="start" x="870.877" y="-381.266" font-family="Times Roman,serif" font-size="15.00">BP</text>
</g>
<g id="4438" class="node">
<polygon fill="#ffffff" stroke="#3333cc" stroke-width="10" points="641.547,-881.796 573.547,-881.796 573.547,-812.796 641.547,-812.796 641.547,-881.796"/>
<image xlink:href="can_images/4438.jpg" width="56.0198px" height="69px" preserveAspectRatio="xMinYMin meet" x="579.537" y="-881.796"/>
<polygon fill="none" stroke="#3333cc" stroke-width="10" points="641.547,-881.796 573.547,-881.796 573.547,-812.796 641.547,-812.796 641.547,-881.796"/>
<text text-anchor="middle" x="607.547" y="-843.296" font-family="Times Roman,serif" font-size="15.00">Fran Pavley</text>
</g>
<g id="8212" class="node">
<polygon fill="#ffffff" stroke="#3333cc" stroke-width="10" points="735.588,-1386.81 665.588,-1386.81 665.588,-1316.81 735.588,-1316.81 735.588,-1386.81"/>
<image xlink:href="can_images/8212.jpg" width="56.8317px" height="70px" preserveAspectRatio="xMinYMin meet" x="672.172" y="-1386.81"/>
<polygon fill="none" stroke="#3333cc" stroke-width="10" points="735.588,-1386.81 665.588,-1386.81 665.588,-1316.81 735.588,-1316.81 735.588,-1386.81"/>
<text text-anchor="middle" x="700.588" y="-1347.81" font-family="Times Roman,serif" font-size="15.00">Kevin De Len</text>
</g>
<g id="38179" class="node">
<ellipse fill="#ffffff" stroke="cadetblue" stroke-width="10" cx="1275.27" cy="-690.772" rx="39" ry="39.5"/>
<image xlink:href="com_images/cunknown_oil_co.png" width="78px" height="78px" preserveAspectRatio="xMinYMin meet" x="1236.27" y="-729.772"/>
<ellipse fill="none" stroke="cadetblue" stroke-width="10" cx="1275.27" cy="-690.772" rx="39" ry="39.5"/>
<text text-anchor="start" x="1329.27" y="-686.772" font-family="Times Roman,serif" font-size="15.00">NAFTEX OPERATING CO</text>
</g>
<g id="7941" class="node">
<polygon fill="#ffffff" stroke="#3333cc" stroke-width="10" points="647.234,-186.096 577.234,-186.096 577.234,-115.096 647.234,-115.096 647.234,-186.096"/>
<image xlink:href="can_images/7941.jpg" width="70px" height="70px" preserveAspectRatio="xMinYMin meet" x="577.234" y="-185.596"/>
<polygon fill="none" stroke="#3333cc" stroke-width="10" points="647.234,-186.096 577.234,-186.096 577.234,-115.096 647.234,-115.096 647.234,-186.096"/>
<text text-anchor="middle" x="612.234" y="-146.596" font-family="Times Roman,serif" font-size="15.00">Cathleen Galgiani</text>
</g>
<g id="5460" class="node">
<ellipse fill="#ffffff" stroke="cadetblue" stroke-width="10" cx="964.467" cy="-455.792" rx="40" ry="40.5"/>
<image xlink:href="com_images/c185.png" width="80px" height="80px" preserveAspectRatio="xMinYMin meet" x="924.467" y="-495.792"/>
<ellipse fill="none" stroke="cadetblue" stroke-width="10" cx="964.467" cy="-455.792" rx="40" ry="40.5"/>
<text text-anchor="start" x="1019.467" y="-451.792" font-family="Times Roman,serif" font-size="15.00">Tesoro Petroleum</text>
</g>
<g id="8944" class="node">
<polygon fill="#ffffff" stroke="#3333cc" stroke-width="10" points="932.722,-957.08 860.722,-957.08 860.722,-885.08 932.722,-885.08 932.722,-957.08"/>
<image xlink:href="can_images/8944.jpg" width="58.4554px" height="72px" preserveAspectRatio="xMinYMin meet" x="867.494" y="-957.08"/>
<polygon fill="none" stroke="#3333cc" stroke-width="10" points="932.722,-957.08 860.722,-957.08 860.722,-885.08 932.722,-885.08 932.722,-957.08"/>
<text text-anchor="middle" x="896.722" y="-917.08" font-family="Times Roman,serif" font-size="15.00">Mark DeSaulnier</text>
</g>
<g id="4459" class="node">
<polygon fill="#ffffff" stroke="#3333cc" stroke-width="10" points="346.808,-841.052 274.808,-841.052 274.808,-769.052 346.808,-769.052 346.808,-841.052"/>
<image xlink:href="can_images/4459.jpg" width="58.4554px" height="72px" preserveAspectRatio="xMinYMin meet" x="281.581" y="-841.052"/>
<polygon fill="none" stroke="#3333cc" stroke-width="10" points="346.808,-841.052 274.808,-841.052 274.808,-769.052 346.808,-769.052 346.808,-841.052"/>
<text text-anchor="middle" x="310.808" y="-801.052" font-family="Times Roman,serif" font-size="15.00">Joe Coto</text>
</g>
<g id="8200" class="node">
<polygon fill="#ffffff" stroke="#cc3333" stroke-width="10" points="763.914,-323.68 689.914,-323.68 689.914,-249.68 763.914,-249.68 763.914,-323.68"/>
<image xlink:href="can_images/8200.jpg" width="60.0792px" height="74px" preserveAspectRatio="xMinYMin meet" x="696.875" y="-323.68"/>
<polygon fill="none" stroke="#cc3333" stroke-width="10" points="763.914,-323.68 689.914,-323.68 689.914,-249.68 763.914,-249.68 763.914,-323.68"/>
<text text-anchor="middle" x="726.914" y="-282.68" font-family="Times Roman,serif" font-size="15.00">Ted Gaines</text>
</g>
<g id="2497" class="node">
<polygon fill="#ffffff" stroke="#cc3333" stroke-width="10" points="413.719,-474.305 339.719,-474.305 339.719,-400.305 413.719,-400.305 413.719,-474.305"/>
<image xlink:href="can_images/2497.jpg" width="60.0792px" height="74px" preserveAspectRatio="xMinYMin meet" x="346.68" y="-474.305"/>
<polygon fill="none" stroke="#cc3333" stroke-width="10" points="413.719,-474.305 339.719,-474.305 339.719,-400.305 413.719,-400.305 413.719,-474.305"/>
<text text-anchor="middle" x="376.719" y="-433.305" font-family="Times Roman,serif" font-size="15.00">Tom Berryhill</text>
</g>
<g id="21" class="node">
<polygon fill="#ffffff" stroke="#3333cc" stroke-width="10" points="622.889,-1350.95 548.889,-1350.95 548.889,-1275.95 622.889,-1275.95 622.889,-1350.95"/>
<image xlink:href="can_images/21.png" width="68.75px" height="75px" preserveAspectRatio="xMinYMin meet" x="551.514" y="-1350.95"/>
<polygon fill="none" stroke="#3333cc" stroke-width="10" points="622.889,-1350.95 548.889,-1350.95 548.889,-1275.95 622.889,-1275.95 622.889,-1350.95"/>
<text text-anchor="middle" x="585.889" y="-1309.45" font-family="Times Roman,serif" font-size="15.00">Ted Lieu</text>
</g>
<g id="9050" class="node">
<polygon fill="#ffffff" stroke="#cc3333" stroke-width="10" points="601.575,-1116.12 525.575,-1116.12 525.575,-1040.12 601.575,-1040.12 601.575,-1116.12"/>
<image xlink:href="can_images/9050.jpg" width="53.2px" height="76px" preserveAspectRatio="xMinYMin meet" x="536.975" y="-1116.12"/>
<polygon fill="none" stroke="#cc3333" stroke-width="10" points="601.575,-1116.12 525.575,-1116.12 525.575,-1040.12 601.575,-1040.12 601.575,-1116.12"/>
<text text-anchor="middle" x="563.575" y="-1074.12" font-family="Times Roman,serif" font-size="15.00">Steve Knight</text>
</g>
<g id="3249" class="node">
<polygon fill="#ffffff" stroke="#cc3333" stroke-width="10" points="564.418,-1027 486.418,-1027 486.418,-948.001 564.418,-948.001 564.418,-1027"/>
<image xlink:href="can_images/3249.jpg" width="65.682px" height="79px" preserveAspectRatio="xMinYMin meet" x="492.577" y="-1027"/>
<polygon fill="none" stroke="#cc3333" stroke-width="10" points="564.418,-1027 486.418,-1027 486.418,-948.001 564.418,-948.001 564.418,-1027"/>
<text text-anchor="middle" x="525.418" y="-983.501" font-family="Times Roman,serif" font-size="15.00">Joel Anderson</text>
</g>
<g id="4427" class="node">
<polygon fill="#ffffff" stroke="#3333cc" stroke-width="10" points="470.069,-938.284 390.069,-938.284 390.069,-858.284 470.069,-858.284 470.069,-938.284"/>
<image xlink:href="can_images/4427.jpg" width="64.9505px" height="80px" preserveAspectRatio="xMinYMin meet" x="397.594" y="-938.284"/>
<polygon fill="none" stroke="#3333cc" stroke-width="10" points="470.069,-938.284 390.069,-938.284 390.069,-858.284 470.069,-858.284 470.069,-938.284"/>
<text text-anchor="middle" x="430.069" y="-894.284" font-family="Times Roman,serif" font-size="15.00">Juan Vargas</text>
</g>
<g id="8958" class="node">
<polygon fill="#ffffff" stroke="#3333cc" stroke-width="10" points="1138.75,-913.551 1058.75,-913.551 1058.75,-832.551 1138.75,-832.551 1138.75,-913.551"/>
<image xlink:href="can_images/8958.jpg" width="65.7624px" height="81px" preserveAspectRatio="xMinYMin meet" x="1065.86" y="-913.551"/>
<polygon fill="none" stroke="#3333cc" stroke-width="10" points="1138.75,-913.551 1058.75,-913.551 1058.75,-832.551 1138.75,-832.551 1138.75,-913.551"/>
<text text-anchor="middle" x="1098.75" y="-869.051" font-family="Times Roman,serif" font-size="15.00">Ed Hernandez</text>
</g>
<g id="32623" class="node">
<ellipse fill="#ffffff" stroke="cadetblue" stroke-width="10" cx="1152.59" cy="-1040.57" rx="46" ry="46"/>
<image xlink:href="com_images/c223.png" width="92px" height="92px" preserveAspectRatio="xMinYMin meet" x="1106.59" y="-1086.57"/>
<ellipse fill="none" stroke="cadetblue" stroke-width="10" cx="1152.59" cy="-1040.57" rx="46" ry="46"/>
<text text-anchor="start" x="1213.59" y="-1036.57" font-family="Times Roman,serif" font-size="15.00">Calpine Corp</text>
</g>
<g id="142304" class="node">
<polygon fill="#ffffff" stroke="#cc3333" stroke-width="10" points="1094.82,-781.396 1012.82,-781.396 1012.82,-698.396 1094.82,-698.396 1094.82,-781.396"/>
<image xlink:href="can_images/142304.jpg" width="59.2746px" height="83px" preserveAspectRatio="xMinYMin meet" x="1024.19" y="-781.396"/>
<polygon fill="none" stroke="#cc3333" stroke-width="10" points="1094.82,-781.396 1012.82,-781.396 1012.82,-698.396 1094.82,-698.396 1094.82,-781.396"/>
<text text-anchor="middle" x="1053.82" y="-735.896" font-family="Times Roman,serif" font-size="15.00">Anthony Cannella</text>
</g>
<g id="28721" class="node">
<polygon fill="#ffffff" stroke="#3333cc" stroke-width="10" points="736.206,-804.927 644.206,-804.927 644.206,-712.927 736.206,-712.927 736.206,-804.927"/>
<image xlink:href="can_images/28721.jpg" width="74.6931px" height="92px" preserveAspectRatio="xMinYMin meet" x="652.859" y="-804.927"/>
<polygon fill="none" stroke="#3333cc" stroke-width="10" points="736.206,-804.927 644.206,-804.927 644.206,-712.927 736.206,-712.927 736.206,-804.927"/>
<text text-anchor="middle" x="690.206" y="-754.927" font-family="Times Roman,serif" font-size="15.00">Ricardo Lara</text>
</g>
<g id="37368" class="node">
<ellipse fill="#ffffff" stroke="cadetblue" stroke-width="10" cx="662.076" cy="-568.897" rx="52" ry="52.5"/>
<image xlink:href="com_images/c37368.png" width="104px" height="104px" preserveAspectRatio="xMinYMin meet" x="610.076" y="-620.897"/>
<ellipse fill="none" stroke="cadetblue" stroke-width="10" cx="662.076" cy="-568.897" rx="52" ry="52.5"/>
<text text-anchor="start" x="729.076" y="-564.897" font-family="Times Roman,serif" font-size="15.00">CALIFORNIA INDEPENDENT OIL MARKETERS</text>
</g>
<g id="4417" class="node">
<polygon fill="#ffffff" stroke="#cc3333" stroke-width="10" points="682.798,-362.687 584.798,-362.687 584.798,-264.687 682.798,-264.687 682.798,-362.687"/>
<image xlink:href="can_images/unknownCandidate.jpg" width="98px" height="98px" preserveAspectRatio="xMinYMin meet" x="584.798" y="-362.687"/>
<polygon fill="none" stroke="#cc3333" stroke-width="10" points="682.798,-362.687 584.798,-362.687 584.798,-264.687 682.798,-264.687 682.798,-362.687"/>
<text text-anchor="middle" x="633.798" y="-309.687" font-family="Times Roman,serif" font-size="15.00">George A Plescia</text>
</g>
<g id="29834" class="node">
<ellipse fill="#ffffff" stroke="cadetblue" stroke-width="10" cx="858.405" cy="-1072.89" rx="55" ry="55.5"/>
<image xlink:href="com_images/c152.png" width="110px" height="110px" preserveAspectRatio="xMinYMin meet" x="803.405" y="-1127.89"/>
<ellipse fill="none" stroke="cadetblue" stroke-width="10" cx="858.405" cy="-1072.89" rx="55" ry="55.5"/>
<text text-anchor="start" x="928.405" y="-1068.89" font-family="Times Roman,serif" font-size="15.00">NRG Energy</text>
</g>
<g id="9615" class="node">
<polygon fill="#ffffff" stroke="#cc3333" stroke-width="10" points="1022.12,-436.055 922.118,-436.055 922.118,-335.055 1022.12,-335.055 1022.12,-436.055"/>
<image xlink:href="can_images/9615.jpg" width="83.6566px" height="101px" preserveAspectRatio="xMinYMin meet" x="930.289" y="-436.055"/>
<polygon fill="none" stroke="#cc3333" stroke-width="10" points="1022.12,-436.055 922.118,-436.055 922.118,-335.055 1022.12,-335.055 1022.12,-436.055"/>
<text text-anchor="middle" x="972.118" y="-381.555" font-family="Times Roman,serif" font-size="15.00">Bill Berryhill</text>
</g>
<g id="1737" class="node">
<ellipse fill="#ffffff" stroke="cadetblue" stroke-width="10" cx="737.458" cy="-711.46" rx="57" ry="57"/>
<image xlink:href="com_images/c28.png" width="114px" height="114px" preserveAspectRatio="xMinYMin meet" x="680.458" y="-768.46"/>
<ellipse fill="none" stroke="cadetblue" stroke-width="10" cx="737.458" cy="-711.46" rx="57" ry="57"/>
<text text-anchor="start" x="809.458" y="-707.46" font-family="Times Roman,serif" font-size="15.00">Exxon Mobil</text>
</g>
<g id="4441" class="node">
<polygon fill="#ffffff" stroke="#cc3333" stroke-width="10" points="501.716,-791.603 399.716,-791.603 399.716,-689.603 501.716,-689.603 501.716,-791.603"/>
<image xlink:href="can_images/4441.jpg" width="82.8119px" height="102px" preserveAspectRatio="xMinYMin meet" x="409.31" y="-791.603"/>
<polygon fill="none" stroke="#cc3333" stroke-width="10" points="501.716,-791.603 399.716,-791.603 399.716,-689.603 501.716,-689.603 501.716,-791.603"/>
<text text-anchor="middle" x="450.716" y="-736.603" font-family="Times Roman,serif" font-size="15.00">Bill Emmerson</text>
</g>
<g id="32446" class="node">
<ellipse fill="#ffffff" stroke="cadetblue" stroke-width="10" cx="657.891" cy="-489.239" rx="60" ry="60.5"/>
<image xlink:href="com_images/c217.png" width="120px" height="120px" preserveAspectRatio="xMinYMin meet" x="597.891" y="-549.239"/>
<ellipse fill="none" stroke="cadetblue" stroke-width="10" cx="657.891" cy="-489.239" rx="60" ry="60.5"/>
<text text-anchor="start" x="732.891" y="-485.239" font-family="Times Roman,serif" font-size="15.00">US Chamber Of Commerce</text>
</g>
<g id="9047" class="node">
<polygon fill="#ffffff" stroke="#cc3333" stroke-width="10" points="581.73,-679.149 471.73,-679.149 471.73,-568.149 581.73,-568.149 581.73,-679.149"/>
<image xlink:href="can_images/9047.jpg" width="91.02px" height="111px" preserveAspectRatio="xMinYMin meet" x="481.22" y="-679.149"/>
<polygon fill="none" stroke="#cc3333" stroke-width="10" points="581.73,-679.149 471.73,-679.149 471.73,-568.149 581.73,-568.149 581.73,-679.149"/>
<text text-anchor="middle" x="526.73" y="-619.649" font-family="Times Roman,serif" font-size="15.00">Jeff Miller</text>
</g>
<g id="4439" class="node">
<polygon fill="#ffffff" stroke="#cc3333" stroke-width="10" points="534.434,-713.074 422.434,-713.074 422.434,-601.074 534.434,-601.074 534.434,-713.074"/>
<image xlink:href="can_images/4439.jpg" width="82.454px" height="112px" preserveAspectRatio="xMinYMin meet" x="437.207" y="-713.074"/>
<polygon fill="none" stroke="#cc3333" stroke-width="10" points="534.434,-713.074 422.434,-713.074 422.434,-601.074 534.434,-601.074 534.434,-713.074"/>
<text text-anchor="middle" x="478.434" y="-653.074" font-family="Times Roman,serif" font-size="15.00">Mimi Walters</text>
</g>
<g id="1137" class="node">
<ellipse fill="#ffffff" stroke="cadetblue" stroke-width="10" cx="856.393" cy="-620.895" rx="63" ry="63"/>
<image xlink:href="com_images/c92.png" width="126px" height="126px" preserveAspectRatio="xMinYMin meet" x="793.393" y="-683.895"/>
<ellipse fill="none" stroke="cadetblue" stroke-width="10" cx="856.393" cy="-620.895" rx="63" ry="63"/>
<text text-anchor="start" x="934.393" y="-616.895" font-family="Times Roman,serif" font-size="15.00">ConocoPhillips</text>
</g>
<g id="5727" class="node">
<ellipse fill="#ffffff" stroke="cadetblue" stroke-width="10" cx="873.927" cy="-528.335" rx="64" ry="64.5"/>
<image xlink:href="com_images/c47.png" width="128px" height="128px" preserveAspectRatio="xMinYMin meet" x="809.927" y="-592.335"/>
<ellipse fill="none" stroke="cadetblue" stroke-width="10" cx="873.927" cy="-528.335" rx="64" ry="64.5"/>
<text text-anchor="start" x="952.927" y="-524.335" font-family="Times Roman,serif" font-size="15.00">Valero Energy</text>
</g>
<g id="7943" class="node">
<polygon fill="#ffffff" stroke="#cc3333" stroke-width="10" points="1064.22,-937.075 948.216,-937.075 948.216,-821.075 1064.22,-821.075 1064.22,-937.075"/>
<image xlink:href="can_images/7943.jpg" width="94.1782px" height="116px" preserveAspectRatio="xMinYMin meet" x="959.127" y="-937.075"/>
<polygon fill="none" stroke="#cc3333" stroke-width="10" points="1064.22,-937.075 948.216,-937.075 948.216,-821.075 1064.22,-821.075 1064.22,-937.075"/>
<text text-anchor="middle" x="1006.22" y="-875.075" font-family="Times Roman,serif" font-size="15.00">Jean Fuller</text>
</g>
<g id="2504" class="node">
<polygon fill="#ffffff" stroke="#3333cc" stroke-width="10" points="998.737,-737.234 882.737,-737.234 882.737,-621.234 998.737,-621.234 998.737,-737.234"/>
<image xlink:href="can_images/2504.jpg" width="94.1782px" height="116px" preserveAspectRatio="xMinYMin meet" x="893.648" y="-737.234"/>
<polygon fill="none" stroke="#3333cc" stroke-width="10" points="998.737,-737.234 882.737,-737.234 882.737,-621.234 998.737,-621.234 998.737,-737.234"/>
<text text-anchor="middle" x="940.737" y="-675.234" font-family="Times Roman,serif" font-size="15.00">Roderick Wright</text>
</g>
<g id="142153" class="node">
<polygon fill="#ffffff" stroke="#3333cc" stroke-width="10" points="1060.21,-838.442 944.212,-838.442 944.212,-722.442 1060.21,-722.442 1060.21,-838.442"/>
<image xlink:href="can_images/142153.jpg" width="94.1782px" height="116px" preserveAspectRatio="xMinYMin meet" x="955.123" y="-838.442"/>
<polygon fill="none" stroke="#3333cc" stroke-width="10" points="1060.21,-838.442 944.212,-838.442 944.212,-722.442 1060.21,-722.442 1060.21,-838.442"/>
<text text-anchor="middle" x="1002.21" y="-776.442" font-family="Times Roman,serif" font-size="15.00">Michael Rubio</text>
</g>
<g id="3244" class="node">
<polygon fill="#ffffff" stroke="#cc3333" stroke-width="10" points="655.28,-825.813 531.28,-825.813 531.28,-701.813 655.28,-701.813 655.28,-825.813"/>
<image xlink:href="can_images/3244.jpg" width="124px" height="83.0357px" preserveAspectRatio="xMinYMin meet" x="531.28" y="-805.331"/>
<polygon fill="none" stroke="#cc3333" stroke-width="10" points="655.28,-825.813 531.28,-825.813 531.28,-701.813 655.28,-701.813 655.28,-825.813"/>
<text text-anchor="middle" x="593.28" y="-759.813" font-family="Times Roman,serif" font-size="15.00">Bob Huff</text>
</g>
<g id="808" class="node">
<ellipse fill="#ffffff" stroke="cadetblue" stroke-width="10" cx="792.066" cy="-831.908" rx="71" ry="71"/>
<image xlink:href="com_images/c808.png" width="142px" height="142px" preserveAspectRatio="xMinYMin meet" x="721.066" y="-902.908"/>
<ellipse fill="none" stroke="cadetblue" stroke-width="10" cx="792.066" cy="-831.908" rx="71" ry="71"/>
<text text-anchor="start" x="878.066" y="-827.908" font-family="Times Roman,serif" font-size="15.00">California Independent Petroleum Assn</text>
</g>
<g id="951" class="node">
<ellipse fill="#ffffff" stroke="cadetblue" stroke-width="10" cx="520.114" cy="-438.495" rx="72" ry="72.5"/>
<image xlink:href="com_images/c98.png" width="144px" height="144px" preserveAspectRatio="xMinYMin meet" x="448.114" y="-510.495"/>
<ellipse fill="none" stroke="cadetblue" stroke-width="10" cx="520.114" cy="-438.495" rx="72" ry="72.5"/>
<text text-anchor="start" x="607.114" y="-434.495" font-family="Times Roman,serif" font-size="15.00">Chevron Corp</text>
</g>
<g id="3716" class="node">
<ellipse fill="#ffffff" stroke="cadetblue" stroke-width="10" cx="734.164" cy="-613.272" rx="75" ry="75.5"/>
<image xlink:href="com_images/c109.png" width="150px" height="150px" preserveAspectRatio="xMinYMin meet" x="659.164" y="-688.272"/>
<ellipse fill="none" stroke="cadetblue" stroke-width="10" cx="734.164" cy="-613.272" rx="75" ry="75.5"/>
<text text-anchor="start" x="824.164" y="-609.272" font-family="Times Roman,serif" font-size="15.00">Occidental Petroleum</text>
</g>
<g id="29814" class="node">
<ellipse fill="#ffffff" stroke="cadetblue" stroke-width="10" cx="718.573" cy="-1000.37" rx="81" ry="81"/>
<image xlink:href="com_images/c148.png" width="162px" height="162px" preserveAspectRatio="xMinYMin meet" x="637.573" y="-1081.37"/>
<ellipse fill="none" stroke="cadetblue" stroke-width="10" cx="718.573" cy="-1000.37" rx="81" ry="81"/>
<text text-anchor="start" x="814.573" y="-996.371" font-family="Times Roman,serif" font-size="15.00">Edison International</text>
</g>
</g>
</svg>
