<svg width="975.76666000003px" height="735.71789740398px"
  xmlns="http://www.w3.org/2000/svg" xmlns:xlink="http://www.w3.org/1999/xlink">
<g id="graph0" class="graph" transform="scale(0.51647939167964 0.51647939167964) rotate(0) translate(4 1420.48)">

<polygon id='svgscreen' style="opacity:0;" fill="#ffffff" stroke="#ffffff" points="-4,5 -4,-1420.48 1886.26,-1420.48 1886.26,5 -4,5"/>
<g id="8406_39485" class="edge">
<path fill="none" stroke="#999999" stroke-width="5.08413" d="M1030.26,-184.178C1013.48,-230.614 978.345,-327.844 952.818,-398.49"/>
<polygon fill="#999999" stroke="#999999" points="940.191,-394.164 942.548,-426.914 965.294,-403.234 940.191,-394.164"/>
</g>
<g id="145304_289" class="edge">
<path fill="none" stroke="#999999" stroke-width="5.50481" d="M1098.02,-1229.94C1077.61,-1202.68 1042.68,-1156.04 1010.71,-1113.35"/>
<polygon fill="#999999" stroke="#999999" points="1022.16,-1104.54 992.606,-1089.19 999.024,-1121.86 1022.16,-1104.54"/>
</g>
<g id="2231_4211" class="edge">
<path fill="none" stroke="#999999" stroke-width="6.34615" d="M61.159,-824.991C115.885,-822.645 233.283,-817.612 313.397,-814.177"/>
<polygon fill="#999999" stroke="#999999" points="314.352,-830.81 343.611,-812.882 312.925,-797.524 314.352,-830.81"/>
</g>
<g id="4165_31946" class="edge">
<path fill="none" stroke="#999999" stroke-width="6.34615" d="M259.297,-1317.11C287.224,-1277.69 343.513,-1198.23 388.051,-1135.36"/>
<polygon fill="#999999" stroke="#999999" points="401.937,-1144.58 405.686,-1110.47 374.751,-1125.32 401.937,-1144.58"/>
</g>
<g id="4171_38670" class="edge">
<path fill="none" stroke="#999999" stroke-width="6.34615" d="M89.6395,-495.73C142.762,-512.743 257.545,-549.502 333.275,-573.754"/>
<polygon fill="#999999" stroke="#999999" points="328.199,-589.621 361.851,-582.905 338.361,-557.891 328.199,-589.621"/>
</g>
<g id="4165_951" class="edge">
<path fill="none" stroke="#999999" stroke-width="6.34615" d="M143.409,-1130.21C190.418,-1117.27 285.14,-1091.2 357.279,-1071.34"/>
<polygon fill="#999999" stroke="#999999" points="362.105,-1087.29 386.608,-1063.27 353.263,-1055.17 362.105,-1087.29"/>
</g>
<g id="8800_39474" class="edge">
<path fill="none" stroke="#999999" stroke-width="6.34615" d="M1821.38,-884.829C1769.79,-869.459 1660.72,-836.959 1591.07,-816.206"/>
<polygon fill="#999999" stroke="#999999" points="1595.7,-800.203 1562.19,-807.601 1586.19,-832.133 1595.7,-800.203"/>
</g>
<g id="145304_37852" class="edge">
<path fill="none" stroke="#999999" stroke-width="7.1875" d="M907.738,-1353.47C912.427,-1302.3 921.984,-1197.99 929.22,-1119"/>
<polygon fill="#999999" stroke="#999999" points="948.014,-1120.67 931.963,-1089.07 910.437,-1117.23 948.014,-1120.67"/>
</g>
<g id="8406_30934" class="edge">
<path fill="none" stroke="#999999" stroke-width="8.02885" d="M861.174,-178.925C871.229,-228.236 891.18,-326.08 905.676,-397.172"/>
<polygon fill="#999999" stroke="#999999" points="885.059,-401.547 911.704,-426.731 926.36,-393.125 885.059,-401.547"/>
</g>
<g id="8800_32624" class="edge">
<path fill="none" stroke="#999999" stroke-width="8.02885" d="M1761.91,-612.642C1721.64,-644.451 1640.98,-708.152 1585.74,-751.777"/>
<polygon fill="#999999" stroke="#999999" points="1572.51,-735.37 1562.03,-770.504 1598.64,-768.45 1572.51,-735.37"/>
</g>
<g id="2245_1737" class="edge">
<path fill="none" stroke="#999999" stroke-width="8.87019" d="M476.833,-65.8456C482.445,-120.99 493.975,-234.288 501.384,-307.085"/>
<polygon fill="#999999" stroke="#999999" points="478.259,-309.84 504.462,-337.329 524.589,-305.125 478.259,-309.84"/>
</g>
<g id="3179_2841" class="edge">
<path fill="none" stroke="#999999" stroke-width="8.87019" d="M1464.47,-184.465C1495.89,-215.886 1553.12,-273.12 1594.77,-314.774"/>
<polygon fill="#999999" stroke="#999999" points="1578.37,-331.3 1616.05,-336.049 1611.3,-298.371 1578.37,-331.3"/>
</g>
<g id="2229_168" class="edge">
<path fill="none" stroke="#999999" stroke-width="5.08413" d="M1325.64,-1017.57C1362.2,-1065.87 1441.19,-1170.23 1488.89,-1233.26"/>
<polygon fill="#999999" stroke="#999999" points="1478.46,-1241.59 1507.21,-1257.45 1499.74,-1225.48 1478.46,-1241.59"/>
</g>
<g id="8800_168" class="edge">
<path fill="none" stroke="#999999" stroke-width="6.09375" d="M1330.56,-970.039C1364.24,-940.58 1425.71,-886.827 1471.14,-847.1"/>
<polygon fill="#999999" stroke="#999999" points="1481.77,-859.052 1493.83,-827.262 1460.71,-834.969 1481.77,-859.052"/>
</g>
<g id="145304_168" class="edge">
<path fill="none" stroke="#999999" stroke-width="7.1875" d="M1273.99,-993.775C1222.57,-997.339 1119.31,-1004.5 1040.87,-1009.94"/>
<polygon fill="#999999" stroke="#999999" points="1039.48,-991.121 1010.86,-1012.02 1042.09,-1028.76 1039.48,-991.121"/>
</g>
<g id="145304_38177" class="edge">
<path fill="none" stroke="#999999" stroke-width="10.5529" d="M1067.73,-897.965C1057.84,-907.081 1045.82,-918.164 1033.13,-929.858"/>
<polygon fill="#999999" stroke="#999999" points="1013.95,-909.866 1010.67,-950.568 1051.5,-950.603 1013.95,-909.866"/>
</g>
<g id="4165_1677" class="edge">
<path fill="none" stroke="#999999" stroke-width="7.1875" d="M686.764,-1194.35C651.983,-1172.29 592.595,-1134.61 542.236,-1102.66"/>
<polygon fill="#999999" stroke="#999999" points="552.342,-1086.73 516.903,-1086.59 532.127,-1118.59 552.342,-1086.73"/>
</g>
<g id="145304_1677" class="edge">
<path fill="none" stroke="#999999" stroke-width="8.87019" d="M742.7,-1189.85C767.682,-1167.81 806.735,-1133.35 843.417,-1100.98"/>
<polygon fill="#999999" stroke="#999999" points="859.013,-1118.27 866.103,-1080.97 828.202,-1083.36 859.013,-1118.27"/>
</g>
<g id="8406_38371" class="edge">
<path fill="none" stroke="#999999" stroke-width="13.0769" d="M1161.55,-288.633C1123.54,-319.326 1054.58,-375.028 1000.52,-418.692"/>
<polygon fill="#999999" stroke="#999999" points="978.66,-392.219 976.89,-437.774 1021.8,-445.629 978.66,-392.219"/>
</g>
<g id="2245_1991" class="edge">
<path fill="none" stroke="#999999" stroke-width="13.0769" d="M245.07,-201.478C292.518,-232.598 385.307,-293.455 447.038,-333.942"/>
<polygon fill="#999999" stroke="#999999" points="428.243,-362.666 472.155,-350.415 465.895,-305.258 428.243,-362.666"/>
</g>
<g id="145304_39357" class="edge">
<path fill="none" stroke="#999999" stroke-width="13.0769" d="M1032.27,-1332.65C1017.52,-1282.97 990.027,-1190.36 968.62,-1118.26"/>
<polygon fill="#999999" stroke="#999999" points="1001.47,-1108.29 960.02,-1089.3 935.652,-1127.83 1001.47,-1108.29"/>
</g>
<g id="2229_39472" class="edge">
<path fill="none" stroke="#999999" stroke-width="6.34615" d="M1332.56,-1108.97C1368.92,-1141.69 1433.26,-1199.59 1478.11,-1239.95"/>
<polygon fill="#999999" stroke="#999999" points="1467.27,-1252.61 1500.72,-1260.29 1489.56,-1227.84 1467.27,-1252.61"/>
</g>
<g id="8800_39472" class="edge">
<path fill="none" stroke="#999999" stroke-width="9.71154" d="M1327.81,-1054.37C1364.16,-1007.7 1435.5,-916.113 1482.45,-855.838"/>
<polygon fill="#999999" stroke="#999999" points="1502.59,-871.478 1500.91,-832.145 1462.36,-840.146 1502.59,-871.478"/>
</g>
<g id="145304_39472" class="edge">
<path fill="none" stroke="#999999" stroke-width="8.02885" d="M1268.31,-1077.3C1215.62,-1067.67 1116.18,-1049.49 1040.22,-1035.61"/>
<polygon fill="#999999" stroke="#999999" points="1043.9,-1014.86 1010.6,-1030.2 1036.33,-1056.32 1043.9,-1014.86"/>
</g>
<g id="4165_39350" class="edge">
<path fill="none" stroke="#999999" stroke-width="13.0769" d="M651.845,-1272.65C621.314,-1237.95 571.521,-1181.35 529.257,-1133.31"/>
<polygon fill="#999999" stroke="#999999" points="554.821,-1110.39 509.232,-1110.54 503.274,-1155.74 554.821,-1110.39"/>
</g>
<g id="145304_39350" class="edge">
<path fill="none" stroke="#999999" stroke-width="13.0769" d="M709.192,-1272.82C743.934,-1234.08 803.819,-1167.3 853.688,-1111.68"/>
<polygon fill="#999999" stroke="#999999" points="879.519,-1134.29 873.991,-1089.04 828.405,-1088.46 879.519,-1134.29"/>
</g>
<g id="2231_5460" class="edge">
<path fill="none" stroke="#999999" stroke-width="21.4904" d="M630.019,-1002.48C589.289,-969.128 523.144,-914.966 471.508,-872.684"/>
<polygon fill="#999999" stroke="#999999" points="507.176,-828.979 448.225,-853.619 435.697,-916.272 507.176,-828.979"/>
</g>
<g id="145304_5460" class="edge">
<path fill="none" stroke="#999999" stroke-width="13.0769" d="M715.667,-1030.32C749.085,-1028.33 794.86,-1025.6 836.236,-1023.13"/>
<polygon fill="#999999" stroke="#999999" points="838.487,-1057.38 866.391,-1021.33 834.401,-988.852 838.487,-1057.38"/>
</g>
<g id="8800_671" class="edge">
<path fill="none" stroke="#999999" stroke-width="5" d="M1228.36,-721.961C1290.33,-737.565 1396.39,-764.27 1464.27,-781.364"/>
<polygon fill="#999999" stroke="#999999" points="1461.45,-794.188 1493.75,-788.786 1467.86,-768.733 1461.45,-794.188"/>
</g>
<g id="8406_671" class="edge">
<path fill="none" stroke="#999999" stroke-width="24.4351" d="M1140.39,-675.313C1103.3,-642.257 1046.02,-591.2 999.546,-549.775"/>
<polygon fill="#999999" stroke="#999999" points="1042.14,-501.816 977.065,-529.736 956.78,-597.58 1042.14,-501.816"/>
</g>
<g id="145304_671" class="edge">
<path fill="none" stroke="#999999" stroke-width="13.9183" d="M1147.3,-749.663C1113.48,-792.978 1058.46,-863.451 1013.4,-921.173"/>
<polygon fill="#999999" stroke="#999999" points="984.449,-898.884 994.786,-945.014 1042.05,-943.85 984.449,-898.884"/>
</g>
<g id="4171_39514" class="edge">
<path fill="none" stroke="#999999" stroke-width="13.0769" d="M638.02,-754.729C590.348,-722.325 524.682,-677.689 475.385,-644.18"/>
<polygon fill="#999999" stroke="#999999" points="494.355,-615.568 450.246,-627.093 455.76,-672.347 494.355,-615.568"/>
</g>
<g id="2231_39514" class="edge">
<path fill="none" stroke="#999999" stroke-width="21.4904" d="M625.52,-800.479C580.815,-802.457 523.997,-804.972 478.047,-807.005"/>
<polygon fill="#999999" stroke="#999999" points="475.377,-750.656 447.901,-808.339 480.365,-863.37 475.377,-750.656"/>
</g>
<g id="8406_39514" class="edge">
<path fill="none" stroke="#999999" stroke-width="16.4423" d="M743.859,-735.535C779.028,-685.605 828.827,-614.906 866.973,-560.751"/>
<polygon fill="#999999" stroke="#999999" points="902.391,-585.418 884.381,-536.036 831.819,-535.708 902.391,-585.418"/>
</g>
<g id="4165_39514" class="edge">
<path fill="none" stroke="#999999" stroke-width="29.9038" d="M647.117,-850.397C615.422,-882.033 574.469,-922.911 538.259,-959.054"/>
<polygon fill="#999999" stroke="#999999" points="482.802,-903.498 517.024,-980.25 593.712,-1014.61 482.802,-903.498"/>
</g>
<g id="145304_39514" class="edge">
<path fill="none" stroke="#999999" stroke-width="21.4904" d="M755.976,-848.435C782.149,-872.602 814.114,-902.118 843.942,-929.659"/>
<polygon fill="#999999" stroke="#999999" points="805.892,-971.309 866.203,-950.214 882.432,-888.417 805.892,-971.309"/>
</g>
<g id="2245_1137" class="edge">
<path fill="none" stroke="#999999" stroke-width="6.34615" d="M632.392,-633.617C604.469,-575.258 565.587,-493.996 538.805,-438.02"/>
<polygon fill="#999999" stroke="#999999" points="553.823,-430.812 525.847,-410.94 523.769,-445.192 553.823,-430.812"/>
</g>
<g id="4171_1137" class="edge">
<path fill="none" stroke="#999999" stroke-width="22.3317" d="M592.969,-675.125C556.853,-660.041 513.599,-641.975 477.802,-627.025"/>
<polygon fill="#999999" stroke="#999999" points="500.374,-572.924 450.099,-615.455 455.19,-681.109 500.374,-572.924"/>
</g>
<g id="2231_1137" class="edge">
<path fill="none" stroke="#999999" stroke-width="13.0769" d="M592.203,-734.922C556.153,-748.817 512.881,-765.497 476.134,-779.661"/>
<polygon fill="#999999" stroke="#999999" points="463.669,-747.677 448.022,-790.497 488.361,-811.737 463.669,-747.677"/>
</g>
<g id="8406_1137" class="edge">
<path fill="none" stroke="#999999" stroke-width="8.87019" d="M727.354,-653.113C762.826,-621.96 808.034,-582.256 846.04,-548.878"/>
<polygon fill="#999999" stroke="#999999" points="861.446,-566.337 868.622,-529.045 830.716,-531.347 861.446,-566.337"/>
</g>
<g id="4165_1137" class="edge">
<path fill="none" stroke="#999999" stroke-width="40" d="M624.024,-773.903C591.143,-825.732 545.499,-897.682 509.467,-954.478"/>
<polygon fill="#999999" stroke="#999999" points="420.568,-898.602 493.16,-980.183 597.894,-1011.1 420.568,-898.602"/>
</g>
<g id="145304_1137" class="edge">
<path fill="none" stroke="#999999" stroke-width="28.2212" d="M719.729,-766.393C758.29,-810.558 811.382,-871.365 855.614,-922.025"/>
<polygon fill="#999999" stroke="#999999" points="800.014,-970.982 875.549,-944.858 911.621,-873.536 800.014,-970.982"/>
</g>
<g id="39485" class="node">
<ellipse fill="#ffffff" stroke="cadetblue" stroke-width="10" cx="1039.94" cy="-157.385" rx="28" ry="28.5"/>
<image xlink:href="com_images/cunknown_coal_co.png" width="56px" height="56px" preserveAspectRatio="xMinYMin meet" x="1011.94" y="-185.385"/>
<ellipse fill="none" stroke="cadetblue" stroke-width="10" cx="1039.94" cy="-157.385" rx="28" ry="28.5"/>
<text text-anchor="start" x="1082.94" y="-153.385" font-family="Times Roman,serif" font-size="15.00">PACKIN COAL</text>
</g>
<g id="289" class="node">
<ellipse fill="#ffffff" stroke="cadetblue" stroke-width="10" cx="1115.65" cy="-1253.48" rx="29" ry="29"/>
<image xlink:href="com_images/cunknown_oil_co.png" width="58px" height="58px" preserveAspectRatio="xMinYMin meet" x="1086.65" y="-1282.48"/>
<ellipse fill="none" stroke="cadetblue" stroke-width="10" cx="1115.65" cy="-1253.48" rx="29" ry="29"/>
<text text-anchor="start" x="1159.65" y="-1249.48" font-family="Times Roman,serif" font-size="15.00">Arctic Slope Regional</text>
</g>
<g id="4211" class="node">
<ellipse fill="#ffffff" stroke="cadetblue" stroke-width="10" cx="31" cy="-826.284" rx="30" ry="30"/>
<image xlink:href="com_images/cunknown_oil_co.png" width="60px" height="60px" preserveAspectRatio="xMinYMin meet" x="1" y="-856.284"/>
<ellipse fill="none" stroke="cadetblue" stroke-width="10" cx="31" cy="-826.284" rx="30" ry="30"/>
<text text-anchor="start" x="76" y="-822.284" font-family="Times Roman,serif" font-size="15.00">Peak Oilfield Service</text>
</g>
<g id="31946" class="node">
<ellipse fill="#ffffff" stroke="cadetblue" stroke-width="10" cx="241.941" cy="-1341.61" rx="30" ry="30"/>
<image xlink:href="com_images/c31946.png" width="60px" height="60px" preserveAspectRatio="xMinYMin meet" x="211.941" y="-1371.61"/>
<ellipse fill="none" stroke="cadetblue" stroke-width="10" cx="241.941" cy="-1341.61" rx="30" ry="30"/>
<text text-anchor="start" x="286.941" y="-1337.61" font-family="Times Roman,serif" font-size="15.00">NANA Regional Corp</text>
</g>
<g id="38670" class="node">
<ellipse fill="#ffffff" stroke="cadetblue" stroke-width="10" cx="60.7949" cy="-486.493" rx="30" ry="30"/>
<image xlink:href="com_images/cunknown_oil_co.png" width="60px" height="60px" preserveAspectRatio="xMinYMin meet" x="30.7949" y="-516.493"/>
<ellipse fill="none" stroke="cadetblue" stroke-width="10" cx="60.7949" cy="-486.493" rx="30" ry="30"/>
<text text-anchor="start" x="105.7949" y="-482.493" font-family="Times Roman,serif" font-size="15.00">SELF EMPLOYED</text>
</g>
<g id="951" class="node">
<ellipse fill="#ffffff" stroke="cadetblue" stroke-width="10" cx="114.342" cy="-1138.21" rx="30" ry="30"/>
<image xlink:href="com_images/c951.png" width="60px" height="60px" preserveAspectRatio="xMinYMin meet" x="84.3417" y="-1168.21"/>
<ellipse fill="none" stroke="cadetblue" stroke-width="10" cx="114.342" cy="-1138.21" rx="30" ry="30"/>
<text text-anchor="start" x="159.342" y="-1134.21" font-family="Times Roman,serif" font-size="15.00">Chevron Corp</text>
</g>
<g id="39474" class="node">
<ellipse fill="#ffffff" stroke="cadetblue" stroke-width="10" cx="1850.26" cy="-893.436" rx="30" ry="30"/>
<image xlink:href="com_images/cunknown_oil_co.png" width="60px" height="60px" preserveAspectRatio="xMinYMin meet" x="1820.26" y="-923.436"/>
<ellipse fill="none" stroke="cadetblue" stroke-width="10" cx="1850.26" cy="-893.436" rx="30" ry="30"/>
<text text-anchor="start" x="1895.26" y="-889.436" font-family="Times Roman,serif" font-size="15.00">NINESTAR ENTERPRISES</text>
</g>
<g id="2229" class="node">
<polygon fill="#ffffff" stroke="#3333cc" stroke-width="10" points="1554.82,-1311.68 1500.82,-1311.68 1500.82,-1257.68 1554.82,-1257.68 1554.82,-1311.68"/>
<image xlink:href="can_images/2229.jpg" width="40.32px" height="54px" preserveAspectRatio="xMinYMin meet" x="1507.66" y="-1311.68"/>
<polygon fill="none" stroke="#3333cc" stroke-width="10" points="1554.82,-1311.68 1500.82,-1311.68 1500.82,-1257.68 1554.82,-1257.68 1554.82,-1311.68"/>
<text text-anchor="middle" x="1527.82" y="-1280.68" font-family="Times Roman,serif" font-size="15.00">Johnny Ellis</text>
</g>
<g id="37852" class="node">
<ellipse fill="#ffffff" stroke="cadetblue" stroke-width="10" cx="904.897" cy="-1384.48" rx="31" ry="31"/>
<image xlink:href="com_images/cunknown_oil_co.png" width="62px" height="62px" preserveAspectRatio="xMinYMin meet" x="873.897" y="-1415.48"/>
<ellipse fill="none" stroke="cadetblue" stroke-width="10" cx="904.897" cy="-1384.48" rx="31" ry="31"/>
<text text-anchor="start" x="950.897" y="-1380.48" font-family="Times Roman,serif" font-size="15.00">HOMEMAKER</text>
</g>
<g id="30934" class="node">
<ellipse fill="#ffffff" stroke="cadetblue" stroke-width="10" cx="854.836" cy="-147.843" rx="31" ry="31.5"/>
<image xlink:href="com_images/cunknown_coal_co.png" width="62px" height="62px" preserveAspectRatio="xMinYMin meet" x="823.836" y="-178.843"/>
<ellipse fill="none" stroke="cadetblue" stroke-width="10" cx="854.836" cy="-147.843" rx="31" ry="31.5"/>
<text text-anchor="start" x="900.836" y="-143.843" font-family="Times Roman,serif" font-size="15.00">Doyon Limited</text>
</g>
<g id="32624" class="node">
<ellipse fill="#ffffff" stroke="cadetblue" stroke-width="10" cx="1786.72" cy="-593.048" rx="31" ry="31.5"/>
<image xlink:href="com_images/cunknown_oil_co.png" width="62px" height="62px" preserveAspectRatio="xMinYMin meet" x="1755.72" y="-624.048"/>
<ellipse fill="none" stroke="cadetblue" stroke-width="10" cx="1786.72" cy="-593.048" rx="31" ry="31.5"/>
<text text-anchor="start" x="1832.72" y="-589.048" font-family="Times Roman,serif" font-size="15.00">Chugach Electric Assn</text>
</g>
<g id="1737" class="node">
<ellipse fill="#ffffff" stroke="cadetblue" stroke-width="10" cx="473.541" cy="-33.5" rx="32" ry="32.5"/>
<image xlink:href="com_images/c28.png" width="64px" height="64px" preserveAspectRatio="xMinYMin meet" x="441.541" y="-65.5"/>
<ellipse fill="none" stroke="cadetblue" stroke-width="10" cx="473.541" cy="-33.5" rx="32" ry="32.5"/>
<text text-anchor="start" x="520.541" y="-29.5" font-family="Times Roman,serif" font-size="15.00">Exxon Mobil</text>
</g>
<g id="2841" class="node">
<ellipse fill="#ffffff" stroke="cadetblue" stroke-width="10" cx="1441.5" cy="-161.5" rx="32" ry="32.5"/>
<image xlink:href="com_images/c48.png" width="64px" height="64px" preserveAspectRatio="xMinYMin meet" x="1409.5" y="-193.5"/>
<ellipse fill="none" stroke="cadetblue" stroke-width="10" cx="1441.5" cy="-161.5" rx="32" ry="32.5"/>
<text text-anchor="start" x="1488.5" y="-157.5" font-family="Times Roman,serif" font-size="15.00">Koch Industries</text>
</g>
<g id="3179" class="node">
<polygon fill="#ffffff" stroke="#cc3333" stroke-width="10" points="1674.15,-394.147 1616.15,-394.147 1616.15,-336.147 1674.15,-336.147 1674.15,-394.147"/>
<image xlink:href="can_images/3179.jpg" width="43.3067px" height="58px" preserveAspectRatio="xMinYMin meet" x="1623.49" y="-394.147"/>
<polygon fill="none" stroke="#cc3333" stroke-width="10" points="1674.15,-394.147 1616.15,-394.147 1616.15,-336.147 1674.15,-336.147 1674.15,-394.147"/>
<text text-anchor="middle" x="1645.15" y="-361.147" font-family="Times Roman,serif" font-size="15.00">John Coghill</text>
</g>
<g id="168" class="node">
<ellipse fill="#ffffff" stroke="cadetblue" stroke-width="10" cx="1305.95" cy="-991.559" rx="32" ry="32.5"/>
<image xlink:href="com_images/cunknown_oil_co.png" width="64px" height="64px" preserveAspectRatio="xMinYMin meet" x="1273.95" y="-1023.56"/>
<ellipse fill="none" stroke="cadetblue" stroke-width="10" cx="1305.95" cy="-991.559" rx="32" ry="32.5"/>
<text text-anchor="start" x="1352.95" y="-987.559" font-family="Times Roman,serif" font-size="15.00">Alyeska Pipeline Service Co</text>
</g>
<g id="38177" class="node">
<ellipse fill="#ffffff" stroke="cadetblue" stroke-width="10" cx="1092.87" cy="-874.796" rx="34" ry="34"/>
<image xlink:href="com_images/cunknown_oil_co.png" width="68px" height="68px" preserveAspectRatio="xMinYMin meet" x="1058.87" y="-908.796"/>
<ellipse fill="none" stroke="cadetblue" stroke-width="10" cx="1092.87" cy="-874.796" rx="34" ry="34"/>
<text text-anchor="start" x="1141.87" y="-870.796" font-family="Times Roman,serif" font-size="15.00">N/A</text>
</g>
<g id="1677" class="node">
<ellipse fill="#ffffff" stroke="cadetblue" stroke-width="10" cx="716.335" cy="-1213.12" rx="35" ry="35"/>
<image xlink:href="com_images/c1677.png" width="70px" height="70px" preserveAspectRatio="xMinYMin meet" x="681.335" y="-1248.12"/>
<ellipse fill="none" stroke="cadetblue" stroke-width="10" cx="716.335" cy="-1213.12" rx="35" ry="35"/>
<text text-anchor="start" x="766.335" y="-1209.12" font-family="Times Roman,serif" font-size="15.00">Enstar Natural Gas</text>
</g>
<g id="38371" class="node">
<ellipse fill="#ffffff" stroke="cadetblue" stroke-width="10" cx="1189.87" cy="-265.758" rx="36" ry="36.5"/>
<image xlink:href="com_images/cunknown_oil_co.png" width="72px" height="72px" preserveAspectRatio="xMinYMin meet" x="1153.87" y="-301.758"/>
<ellipse fill="none" stroke="cadetblue" stroke-width="10" cx="1189.87" cy="-265.758" rx="36" ry="36.5"/>
<text text-anchor="start" x="1240.87" y="-261.758" font-family="Times Roman,serif" font-size="15.00">OWNER</text>
</g>
<g id="1991" class="node">
<ellipse fill="#ffffff" stroke="cadetblue" stroke-width="10" cx="214.773" cy="-181.608" rx="36" ry="36.5"/>
<image xlink:href="com_images/cunknown_oil_co.png" width="72px" height="72px" preserveAspectRatio="xMinYMin meet" x="178.773" y="-217.608"/>
<ellipse fill="none" stroke="cadetblue" stroke-width="10" cx="214.773" cy="-181.608" rx="36" ry="36.5"/>
<text text-anchor="start" x="265.773" y="-177.608" font-family="Times Roman,serif" font-size="15.00">Gas Station Operator</text>
</g>
<g id="39357" class="node">
<ellipse fill="#ffffff" stroke="cadetblue" stroke-width="10" cx="1042.74" cy="-1367.9" rx="36" ry="36.5"/>
<image xlink:href="com_images/cunknown_oil_co.png" width="72px" height="72px" preserveAspectRatio="xMinYMin meet" x="1006.74" y="-1403.9"/>
<ellipse fill="none" stroke="cadetblue" stroke-width="10" cx="1042.74" cy="-1367.9" rx="36" ry="36.5"/>
<text text-anchor="start" x="1093.74" y="-1363.9" font-family="Times Roman,serif" font-size="15.00">HAWK CONSULTANTS</text>
</g>
<g id="39472" class="node">
<ellipse fill="#ffffff" stroke="cadetblue" stroke-width="10" cx="1304.76" cy="-1083.96" rx="37" ry="37.5"/>
<image xlink:href="com_images/cunknown_oil_co.png" width="74px" height="74px" preserveAspectRatio="xMinYMin meet" x="1267.76" y="-1120.96"/>
<ellipse fill="none" stroke="cadetblue" stroke-width="10" cx="1304.76" cy="-1083.96" rx="37" ry="37.5"/>
<text text-anchor="start" x="1356.76" y="-1079.96" font-family="Times Roman,serif" font-size="15.00">NINE STAR ENTERPRISES</text>
</g>
<g id="8800" class="node">
<polygon fill="#ffffff" stroke="#3333cc" stroke-width="10" points="1561.97,-831.904 1493.97,-831.904 1493.97,-762.904 1561.97,-762.904 1561.97,-831.904"/>
<image xlink:href="can_images/8800.jpg" width="51.52px" height="69px" preserveAspectRatio="xMinYMin meet" x="1502.21" y="-831.904"/>
<polygon fill="none" stroke="#3333cc" stroke-width="10" points="1561.97,-831.904 1493.97,-831.904 1493.97,-762.904 1561.97,-762.904 1561.97,-831.904"/>
<text text-anchor="middle" x="1527.97" y="-793.404" font-family="Times Roman,serif" font-size="15.00">Bill Wielechowski</text>
</g>
<g id="2245" class="node">
<polygon fill="#ffffff" stroke="#3333cc" stroke-width="10" points="544.199,-410.555 472.199,-410.555 472.199,-337.555 544.199,-337.555 544.199,-410.555"/>
<image xlink:href="can_images/2245.jpg" width="54.5067px" height="73px" preserveAspectRatio="xMinYMin meet" x="480.946" y="-410.555"/>
<polygon fill="none" stroke="#3333cc" stroke-width="10" points="544.199,-410.555 472.199,-410.555 472.199,-337.555 544.199,-337.555 544.199,-410.555"/>
<text text-anchor="middle" x="508.199" y="-370.055" font-family="Times Roman,serif" font-size="15.00">Dennis Egan</text>
</g>
<g id="39350" class="node">
<ellipse fill="#ffffff" stroke="cadetblue" stroke-width="10" cx="680.32" cy="-1305.02" rx="43" ry="43"/>
<image xlink:href="com_images/c39350.png" width="86px" height="86px" preserveAspectRatio="xMinYMin meet" x="637.32" y="-1348.02"/>
<ellipse fill="none" stroke="cadetblue" stroke-width="10" cx="680.32" cy="-1305.02" rx="43" ry="43"/>
<text text-anchor="start" x="738.32" y="-1301.02" font-family="Times Roman,serif" font-size="15.00">CONAM CONSTRUCTION</text>
</g>
<g id="5460" class="node">
<ellipse fill="#ffffff" stroke="cadetblue" stroke-width="10" cx="667.523" cy="-1033.19" rx="48" ry="48.5"/>
<image xlink:href="com_images/c185.png" width="96px" height="96px" preserveAspectRatio="xMinYMin meet" x="619.523" y="-1081.19"/>
<ellipse fill="none" stroke="cadetblue" stroke-width="10" cx="667.523" cy="-1033.19" rx="48" ry="48.5"/>
<text text-anchor="start" x="730.523" y="-1029.19" font-family="Times Roman,serif" font-size="15.00">Tesoro Petroleum</text>
</g>
<g id="4171" class="node">
<polygon fill="#ffffff" stroke="#cc3333" stroke-width="10" points="450.076,-641.569 362.076,-641.569 362.076,-552.569 450.076,-552.569 450.076,-641.569"/>
<image xlink:href="can_images/4171.jpg" width="62.3px" height="89px" preserveAspectRatio="xMinYMin meet" x="374.926" y="-641.569"/>
<polygon fill="none" stroke="#cc3333" stroke-width="10" points="450.076,-641.569 362.076,-641.569 362.076,-552.569 450.076,-552.569 450.076,-641.569"/>
<text text-anchor="middle" x="406.076" y="-593.069" font-family="Times Roman,serif" font-size="15.00">Charlie Huggins</text>
</g>
<g id="671" class="node">
<ellipse fill="#ffffff" stroke="cadetblue" stroke-width="10" cx="1178.69" cy="-709.453" rx="51" ry="51"/>
<image xlink:href="com_images/c671.png" width="102px" height="102px" preserveAspectRatio="xMinYMin meet" x="1127.69" y="-760.453"/>
<ellipse fill="none" stroke="cadetblue" stroke-width="10" cx="1178.69" cy="-709.453" rx="51" ry="51"/>
<text text-anchor="start" x="1244.69" y="-705.453" font-family="Times Roman,serif" font-size="15.00">BP</text>
</g>
<g id="2231" class="node">
<polygon fill="#ffffff" stroke="#3333cc" stroke-width="10" points="447.746,-863.147 343.746,-863.147 343.746,-758.147 447.746,-758.147 447.746,-863.147"/>
<image xlink:href="can_images/2231.jpg" width="78.4px" height="105px" preserveAspectRatio="xMinYMin meet" x="356.546" y="-863.147"/>
<polygon fill="none" stroke="#3333cc" stroke-width="10" points="447.746,-863.147 343.746,-863.147 343.746,-758.147 447.746,-758.147 447.746,-863.147"/>
<text text-anchor="middle" x="395.746" y="-806.647" font-family="Times Roman,serif" font-size="15.00">Lyman Hoffman</text>
</g>
<g id="8406" class="node">
<polygon fill="#ffffff" stroke="#3333cc" stroke-width="10" points="976.854,-535.916 868.854,-535.916 868.854,-426.916 976.854,-426.916 976.854,-535.916"/>
<image xlink:href="can_images/8406.jpg" width="79.2727px" height="109px" preserveAspectRatio="xMinYMin meet" x="883.218" y="-535.916"/>
<polygon fill="none" stroke="#3333cc" stroke-width="10" points="976.854,-535.916 868.854,-535.916 868.854,-426.916 976.854,-426.916 976.854,-535.916"/>
<text text-anchor="middle" x="922.854" y="-477.416" font-family="Times Roman,serif" font-size="15.00">Joe Thomas</text>
</g>
<g id="4165" class="node">
<polygon fill="#ffffff" stroke="#cc3333" stroke-width="10" points="516.844,-1110.31 386.844,-1110.31 386.844,-980.309 516.844,-980.309 516.844,-1110.31"/>
<polygon fill="none" stroke="#cc3333" stroke-width="10" points="516.844,-1110.31 386.844,-1110.31 386.844,-980.309 516.844,-980.309 516.844,-1110.31"/>
<text text-anchor="middle" x="451.844" y="-1041.31" font-family="Times Roman,serif" font-size="15.00">Lesil McGuire</text>
</g>
<g id="39514" class="node">
<ellipse fill="#ffffff" stroke="cadetblue" stroke-width="10" cx="700.449" cy="-797.164" rx="75" ry="75.5"/>
<image xlink:href="com_images/c39514.png" width="150px" height="150px" preserveAspectRatio="xMinYMin meet" x="625.449" y="-872.164"/>
<ellipse fill="none" stroke="cadetblue" stroke-width="10" cx="700.449" cy="-797.164" rx="75" ry="75.5"/>
<text text-anchor="start" x="790.449" y="-793.164" font-family="Times Roman,serif" font-size="15.00">UDELHOVEN OIL</text>
</g>
<g id="1137" class="node">
<ellipse fill="#ffffff" stroke="cadetblue" stroke-width="10" cx="667.058" cy="-706.068" rx="80" ry="80"/>
<image xlink:href="com_images/c92.png" width="160px" height="160px" preserveAspectRatio="xMinYMin meet" x="587.058" y="-786.068"/>
<ellipse fill="none" stroke="cadetblue" stroke-width="10" cx="667.058" cy="-706.068" rx="80" ry="80"/>
<text text-anchor="start" x="762.058" y="-702.068" font-family="Times Roman,serif" font-size="15.00">ConocoPhillips</text>
</g>
<g id="145304" class="node">
<polygon fill="#ffffff" stroke="#cc3333" stroke-width="10" points="1010.56,-1089.03 866.564,-1089.03 866.564,-945.03 1010.56,-945.03 1010.56,-1089.03"/>
<image xlink:href="can_images/145304.jpg" width="116.911px" height="144px" preserveAspectRatio="xMinYMin meet" x="880.108" y="-1089.03"/>
<polygon fill="none" stroke="#cc3333" stroke-width="10" points="1010.56,-1089.03 866.564,-1089.03 866.564,-945.03 1010.56,-945.03 1010.56,-1089.03"/>
<text text-anchor="middle" x="938.564" y="-1013.03" font-family="Times Roman,serif" font-size="15.00">Cathy Giessel</text>
</g>
</g>
</svg>
