<svg width="351px" height="341.1354375px"
  xmlns="http://www.w3.org/2000/svg" xmlns:xlink="http://www.w3.org/1999/xlink">
<g id="graph0" class="graph" transform="scale(0.24792373125 0.24792373125) rotate(0) translate(4 1371.98)">

<polygon id='svgscreen' style="opacity:0;" fill="#ffffff" stroke="#ffffff" points="-4,5 -4,-1371.98 1412.76,-1371.98 1412.76,5 -4,5"/>
<g id="4144_39405" class="edge">
<path fill="none" stroke="#999999" stroke-width="5" d="M373.616,-477.715C413.515,-499.948 494.127,-544.868 559.373,-581.225"/>
<polygon fill="#999999" stroke="#999999" points="553.18,-592.8 585.775,-595.937 565.957,-569.869 553.18,-592.8"/>
</g>
<g id="4144_31946" class="edge">
<path fill="none" stroke="#999999" stroke-width="8.84146" d="M889.551,-797.793C858.182,-775.899 803.211,-737.531 754.702,-703.674"/>
<polygon fill="#999999" stroke="#999999" points="767.968,-684.631 730.084,-686.492 741.402,-722.694 767.968,-684.631"/>
</g>
<g id="2244_168" class="edge">
<path fill="none" stroke="#999999" stroke-width="9.26829" d="M1089.68,-935.965C1058,-967.649 1000.07,-1025.58 958.329,-1067.32"/>
<polygon fill="#999999" stroke="#999999" points="941.088,-1050.15 937.078,-1088.57 975.495,-1084.56 941.088,-1050.15"/>
</g>
<g id="4144_951" class="edge">
<path fill="none" stroke="#999999" stroke-width="10.9756" d="M757.714,-876.895C743.624,-842.875 720.126,-786.139 699.481,-736.294"/>
<polygon fill="#999999" stroke="#999999" points="726.006,-725.043 687.908,-708.351 672.769,-747.093 726.006,-725.043"/>
</g>
<g id="4140_39492" class="edge">
<path fill="none" stroke="#999999" stroke-width="11.8293" d="M1351.13,-59.5869C1323.01,-91.4571 1273.31,-147.797 1233.09,-193.394"/>
<polygon fill="#999999" stroke="#999999" points="1209.64,-173.033 1213.08,-216.072 1256.22,-214.116 1209.64,-173.033"/>
</g>
<g id="4144_39383" class="edge">
<path fill="none" stroke="#999999" stroke-width="11.8293" d="M411.707,-646.417C447.113,-644.948 504.994,-642.546 555.754,-640.44"/>
<polygon fill="#999999" stroke="#999999" points="557.09,-671.463 585.777,-639.195 554.515,-609.413 557.09,-671.463"/>
</g>
<g id="4140_39350" class="edge">
<path fill="none" stroke="#999999" stroke-width="11.8293" d="M909.904,-358.418C954.51,-342.371 1034.04,-313.761 1093.47,-292.382"/>
<polygon fill="#999999" stroke="#999999" points="1104.3,-321.487 1122.01,-282.113 1083.27,-263.05 1104.3,-321.487"/>
</g>
<g id="4144_39350" class="edge">
<path fill="none" stroke="#999999" stroke-width="7.56098" d="M852.553,-399.079C824.948,-432.729 777.523,-490.536 736.411,-540.648"/>
<polygon fill="#999999" stroke="#999999" points="720.838,-528.339 717.155,-564.121 751.527,-553.516 720.838,-528.339"/>
</g>
<g id="9861_671" class="edge">
<path fill="none" stroke="#999999" stroke-width="8.41463" d="M619.71,-1048.31C627.001,-1105.09 641.009,-1214.2 649.653,-1281.54"/>
<polygon fill="#999999" stroke="#999999" points="627.788,-1284.69 653.517,-1311.63 671.605,-1279.06 627.788,-1284.69"/>
</g>
<g id="4144_671" class="edge">
<path fill="none" stroke="#999999" stroke-width="11.8293" d="M619.206,-974.305C625.447,-919.949 637.325,-816.483 646.306,-738.259"/>
<polygon fill="#999999" stroke="#999999" points="677.167,-741.698 649.74,-708.352 615.469,-734.615 677.167,-741.698"/>
</g>
<g id="4144_39359" class="edge">
<path fill="none" stroke="#999999" stroke-width="20.3659" d="M495.912,-364.172C520.688,-405.747 563.974,-478.38 599.587,-538.14"/>
<polygon fill="#999999" stroke="#999999" points="553.78,-565.705 615.062,-564.108 645.628,-510.969 553.78,-565.705"/>
</g>
<g id="4144_39514" class="edge">
<path fill="none" stroke="#999999" stroke-width="37.439" d="M648.902,-360.802C650.404,-406.149 652.713,-475.856 654.632,-533.791"/>
<polygon fill="#999999" stroke="#999999" points="556.419,-537.376 655.636,-564.107 752.866,-530.869 556.419,-537.376"/>
</g>
<g id="4172_1137" class="edge">
<path fill="none" stroke="#999999" stroke-width="11.8293" d="M297.496,-850.902C240.753,-866.567 148.577,-892.015 88.745,-908.534"/>
<polygon fill="#999999" stroke="#999999" points="80.2922,-878.654 59.6377,-916.569 96.8196,-938.518 80.2922,-878.654"/>
</g>
<g id="4144_1137" class="edge">
<path fill="none" stroke="#999999" stroke-width="40" d="M391.563,-808.675C435.209,-780.423 503.708,-736.084 560.324,-699.437"/>
<polygon fill="#999999" stroke="#999999" points="617.646,-787.41 585.775,-682.963 503.534,-611.119 617.646,-787.41"/>
</g>
<g id="2878_5460" class="edge">
<path fill="none" stroke="#999999" stroke-width="11.8293" d="M1077.65,-587.823C1132.36,-615.272 1220.35,-659.41 1277.66,-688.164"/>
<polygon fill="#999999" stroke="#999999" points="1264.12,-716.111 1304.86,-701.808 1291.97,-660.601 1264.12,-716.111"/>
</g>
<g id="4140_5460" class="edge">
<path fill="none" stroke="#999999" stroke-width="37.439" d="M1051.93,-513.096C1074.33,-466.017 1108.23,-394.79 1133.98,-340.682"/>
<polygon fill="#999999" stroke="#999999" points="1222.81,-382.728 1146.96,-313.408 1045.33,-298.266 1222.81,-382.728"/>
</g>
<g id="4144_5460" class="edge">
<path fill="none" stroke="#999999" stroke-width="11.8293" d="M973.959,-573.726C917.934,-584.804 829.156,-602.358 759.956,-616.042"/>
<polygon fill="#999999" stroke="#999999" points="753.616,-585.642 730.209,-621.924 765.663,-646.566 753.616,-585.642"/>
</g>
<g id="39405" class="node">
<ellipse fill="#ffffff" stroke="cadetblue" stroke-width="10" cx="348.836" cy="-463.907" rx="28" ry="28.5"/>
<image xlink:href="com_images/cunknown_oil_co.png" width="56px" height="56px" preserveAspectRatio="xMinYMin meet" x="320.836" y="-491.907"/>
<ellipse fill="none" stroke="cadetblue" stroke-width="10" cx="348.836" cy="-463.907" rx="28" ry="28.5"/>
<text text-anchor="start" x="391.836" y="-459.907" font-family="Times Roman,serif" font-size="15.00">ALASKA SUPPORT INDUSTRY ALLIANCE</text>
</g>
<g id="9861" class="node">
<polygon fill="#ffffff" stroke="#3333cc" stroke-width="10" points="684.092,-1366.98 630.092,-1366.98 630.092,-1311.98 684.092,-1311.98 684.092,-1366.98"/>
<image xlink:href="can_images/9861.jpg" width="41.0667px" height="55px" preserveAspectRatio="xMinYMin meet" x="636.558" y="-1366.98"/>
<polygon fill="none" stroke="#3333cc" stroke-width="10" points="684.092,-1366.98 630.092,-1366.98 630.092,-1311.98 684.092,-1311.98 684.092,-1366.98"/>
<text text-anchor="middle" x="657.092" y="-1335.48" font-family="Times Roman,serif" font-size="15.00">Joe Paskvan</text>
</g>
<g id="31946" class="node">
<ellipse fill="#ffffff" stroke="cadetblue" stroke-width="10" cx="915.145" cy="-815.656" rx="31" ry="31.5"/>
<image xlink:href="com_images/c31946.png" width="62px" height="62px" preserveAspectRatio="xMinYMin meet" x="884.145" y="-846.656"/>
<ellipse fill="none" stroke="cadetblue" stroke-width="10" cx="915.145" cy="-815.656" rx="31" ry="31.5"/>
<text text-anchor="start" x="961.145" y="-811.656" font-family="Times Roman,serif" font-size="15.00">NANA Regional Corp</text>
</g>
<g id="2244" class="node">
<polygon fill="#ffffff" stroke="#3333cc" stroke-width="10" points="937,-1144.65 881,-1144.65 881,-1088.65 937,-1088.65 937,-1144.65"/>
<polygon fill="none" stroke="#3333cc" stroke-width="10" points="937,-1144.65 881,-1144.65 881,-1088.65 937,-1088.65 937,-1144.65"/>
<text text-anchor="middle" x="909" y="-1112.65" font-family="Times Roman,serif" font-size="15.00">Bettye Davis</text>
</g>
<g id="168" class="node">
<ellipse fill="#ffffff" stroke="cadetblue" stroke-width="10" cx="1112.65" cy="-913" rx="32" ry="32"/>
<image xlink:href="com_images/cunknown_oil_co.png" width="64px" height="64px" preserveAspectRatio="xMinYMin meet" x="1080.65" y="-945"/>
<ellipse fill="none" stroke="cadetblue" stroke-width="10" cx="1112.65" cy="-913" rx="32" ry="32"/>
<text text-anchor="start" x="1159.65" y="-909" font-family="Times Roman,serif" font-size="15.00">Alyeska Pipeline Service Co</text>
</g>
<g id="951" class="node">
<ellipse fill="#ffffff" stroke="cadetblue" stroke-width="10" cx="770.385" cy="-907.488" rx="33" ry="33"/>
<image xlink:href="com_images/c951.png" width="66px" height="66px" preserveAspectRatio="xMinYMin meet" x="737.385" y="-940.488"/>
<ellipse fill="none" stroke="cadetblue" stroke-width="10" cx="770.385" cy="-907.488" rx="33" ry="33"/>
<text text-anchor="start" x="818.385" y="-903.488" font-family="Times Roman,serif" font-size="15.00">Chevron Corp</text>
</g>
<g id="39492" class="node">
<ellipse fill="#ffffff" stroke="cadetblue" stroke-width="10" cx="1373.26" cy="-34.5" rx="33" ry="33.5"/>
<image xlink:href="com_images/cunknown_oil_co.png" width="66px" height="66px" preserveAspectRatio="xMinYMin meet" x="1340.26" y="-67.5"/>
<ellipse fill="none" stroke="cadetblue" stroke-width="10" cx="1373.26" cy="-34.5" rx="33" ry="33.5"/>
<text text-anchor="start" x="1421.26" y="-30.5" font-family="Times Roman,serif" font-size="15.00">PETERKIN DISTRIBUTING</text>
</g>
<g id="39383" class="node">
<ellipse fill="#ffffff" stroke="cadetblue" stroke-width="10" cx="378.551" cy="-647.792" rx="33" ry="33.5"/>
<image xlink:href="com_images/cunknown_oil_co.png" width="66px" height="66px" preserveAspectRatio="xMinYMin meet" x="345.551" y="-680.792"/>
<ellipse fill="none" stroke="cadetblue" stroke-width="10" cx="378.551" cy="-647.792" rx="33" ry="33.5"/>
<text text-anchor="start" x="426.551" y="-643.792" font-family="Times Roman,serif" font-size="15.00">UIC OILFIELD SERVICES</text>
</g>
<g id="4172" class="node">
<polygon fill="#ffffff" stroke="#cc3333" stroke-width="10" points="59.5,-954.114 1.5,-954.114 1.5,-895.114 59.5,-895.114 59.5,-954.114"/>
<polygon fill="none" stroke="#cc3333" stroke-width="10" points="59.5,-954.114 1.5,-954.114 1.5,-895.114 59.5,-895.114 59.5,-954.114"/>
<text text-anchor="middle" x="30.5" y="-920.614" font-family="Times Roman,serif" font-size="15.00">Bert Stedman</text>
</g>
<g id="2878" class="node">
<polygon fill="#ffffff" stroke="#cc3333" stroke-width="10" points="1362.97,-745.909 1304.97,-745.909 1304.97,-686.909 1362.97,-686.909 1362.97,-745.909"/>
<polygon fill="none" stroke="#cc3333" stroke-width="10" points="1362.97,-745.909 1304.97,-745.909 1304.97,-686.909 1362.97,-686.909 1362.97,-745.909"/>
<text text-anchor="middle" x="1333.97" y="-712.409" font-family="Times Roman,serif" font-size="15.00">Fred Dyson</text>
</g>
<g id="39350" class="node">
<ellipse fill="#ffffff" stroke="cadetblue" stroke-width="10" cx="875.866" cy="-370.663" rx="36" ry="36.5"/>
<image xlink:href="com_images/c39350.png" width="72px" height="72px" preserveAspectRatio="xMinYMin meet" x="839.866" y="-406.663"/>
<ellipse fill="none" stroke="cadetblue" stroke-width="10" cx="875.866" cy="-370.663" rx="36" ry="36.5"/>
<text text-anchor="start" x="926.866" y="-366.663" font-family="Times Roman,serif" font-size="15.00">CONAM CONSTRUCTION</text>
</g>
<g id="671" class="node">
<ellipse fill="#ffffff" stroke="cadetblue" stroke-width="10" cx="614.959" cy="-1011.3" rx="37" ry="37"/>
<image xlink:href="com_images/c671.png" width="74px" height="74px" preserveAspectRatio="xMinYMin meet" x="577.959" y="-1048.3"/>
<ellipse fill="none" stroke="cadetblue" stroke-width="10" cx="614.959" cy="-1011.3" rx="37" ry="37"/>
<text text-anchor="start" x="666.959" y="-1007.3" font-family="Times Roman,serif" font-size="15.00">BP</text>
</g>
<g id="39359" class="node">
<ellipse fill="#ffffff" stroke="cadetblue" stroke-width="10" cx="475.901" cy="-330.593" rx="39" ry="39"/>
<image xlink:href="com_images/cunknown_oil_co.png" width="78px" height="78px" preserveAspectRatio="xMinYMin meet" x="436.901" y="-369.593"/>
<ellipse fill="none" stroke="cadetblue" stroke-width="10" cx="475.901" cy="-330.593" rx="39" ry="39"/>
<text text-anchor="start" x="529.901" y="-326.593" font-family="Times Roman,serif" font-size="15.00">ICE SERVICES</text>
</g>
<g id="39514" class="node">
<ellipse fill="#ffffff" stroke="cadetblue" stroke-width="10" cx="647.323" cy="-313.132" rx="47" ry="47.5"/>
<image xlink:href="com_images/c39514.png" width="94px" height="94px" preserveAspectRatio="xMinYMin meet" x="600.323" y="-360.132"/>
<ellipse fill="none" stroke="cadetblue" stroke-width="10" cx="647.323" cy="-313.132" rx="47" ry="47.5"/>
<text text-anchor="start" x="709.323" y="-309.132" font-family="Times Roman,serif" font-size="15.00">UDELHOVEN OIL</text>
</g>
<g id="1137" class="node">
<ellipse fill="#ffffff" stroke="cadetblue" stroke-width="10" cx="347.769" cy="-837.022" rx="52" ry="52.5"/>
<image xlink:href="com_images/c92.png" width="104px" height="104px" preserveAspectRatio="xMinYMin meet" x="295.769" y="-889.022"/>
<ellipse fill="none" stroke="cadetblue" stroke-width="10" cx="347.769" cy="-837.022" rx="52" ry="52.5"/>
<text text-anchor="start" x="414.769" y="-833.022" font-family="Times Roman,serif" font-size="15.00">ConocoPhillips</text>
</g>
<g id="5460" class="node">
<ellipse fill="#ffffff" stroke="cadetblue" stroke-width="10" cx="1028.18" cy="-563.005" rx="55" ry="55"/>
<image xlink:href="com_images/c185.png" width="110px" height="110px" preserveAspectRatio="xMinYMin meet" x="973.179" y="-618.005"/>
<ellipse fill="none" stroke="cadetblue" stroke-width="10" cx="1028.18" cy="-563.005" rx="55" ry="55"/>
<text text-anchor="start" x="1098.18" y="-559.005" font-family="Times Roman,serif" font-size="15.00">Tesoro Petroleum</text>
</g>
<g id="4140" class="node">
<polygon fill="#ffffff" stroke="#cc3333" stroke-width="10" points="1218.08,-313.322 1122.08,-313.322 1122.08,-216.322 1218.08,-216.322 1218.08,-313.322"/>
<image xlink:href="can_images/4140.jpg" width="72.4267px" height="97px" preserveAspectRatio="xMinYMin meet" x="1133.87" y="-313.322"/>
<polygon fill="none" stroke="#cc3333" stroke-width="10" points="1218.08,-313.322 1122.08,-313.322 1122.08,-216.322 1218.08,-216.322 1218.08,-313.322"/>
<text text-anchor="middle" x="1170.08" y="-260.822" font-family="Times Roman,serif" font-size="15.00">Thomas Wagoner</text>
</g>
<g id="4144" class="node">
<polygon fill="#ffffff" stroke="#cc3333" stroke-width="10" points="730.024,-708.197 586.024,-708.197 586.024,-564.197 730.024,-564.197 730.024,-708.197"/>
<image xlink:href="can_images/4144.jpg" width="107.52px" height="144px" preserveAspectRatio="xMinYMin meet" x="604.264" y="-708.197"/>
<polygon fill="none" stroke="#cc3333" stroke-width="10" points="730.024,-708.197 586.024,-708.197 586.024,-564.197 730.024,-564.197 730.024,-708.197"/>
<text text-anchor="middle" x="658.024" y="-632.197" font-family="Times Roman,serif" font-size="15.00">Kevin Meyer</text>
</g>
</g>
</svg>
