<svg width="722px" height="673.0168125px"
  xmlns="http://www.w3.org/2000/svg" xmlns:xlink="http://www.w3.org/1999/xlink">
<g id="graph0" class="graph" transform="scale(1.2122981666667 1.2122981666667) rotate(0) translate(4 551.155)">

<polygon id='svgscreen' style="opacity:0;" fill="#ffffff" stroke="#ffffff" points="-4,5 -4,-551.155 592.562,-551.155 592.562,5 -4,5"/>
<g id="4420_29851" class="edge">
<path fill="none" stroke="#999999" stroke-width="5" d="M234.025,-169.11C185.326,-148.157 122.885,-121.29 79.272,-102.525"/>
<polygon fill="#999999" stroke="#999999" points="84.3472,-90.4201 51.6023,-90.6193 73.9721,-114.533 84.3472,-90.4201"/>
</g>
<g id="8212_29851" class="edge">
<path fill="none" stroke="#999999" stroke-width="5" d="M375.174,-155.032C417.734,-125.604 472.012,-88.0733 510.912,-61.1763"/>
<polygon fill="#999999" stroke="#999999" points="518.65,-71.7824 535.861,-43.9248 503.721,-50.1912 518.65,-71.7824"/>
</g>
<g id="7943_29851" class="edge">
<path fill="none" stroke="#999999" stroke-width="40" d="M317.029,-281.815C322.149,-330.131 328.592,-390.931 333.486,-437.12"/>
<polygon fill="#999999" stroke="#999999" points="229.087,-448.337 336.664,-467.105 437.918,-426.207 229.087,-448.337"/>
</g>
<g id="4420" class="node">
<polygon fill="#ffffff" stroke="#3333cc" stroke-width="10" points="51.5,-105.318 1.5,-105.318 1.5,-54.3185 51.5,-54.3185 51.5,-105.318"/>
<image xlink:href="can_images/4420.jpg" width="41.4059px" height="51px" preserveAspectRatio="xMinYMin meet" x="5.79703" y="-105.318"/>
<polygon fill="none" stroke="#3333cc" stroke-width="10" points="51.5,-105.318 1.5,-105.318 1.5,-54.3185 51.5,-54.3185 51.5,-105.318"/>
<text text-anchor="middle" x="26.5" y="-75.8185" font-family="Times Roman,serif" font-size="15.00">Curren D Price</text>
</g>
<g id="8212" class="node">
<polygon fill="#ffffff" stroke="#3333cc" stroke-width="10" points="586.062,-52 536.062,-52 536.062,-1 586.062,-1 586.062,-52"/>
<image xlink:href="can_images/8212.jpg" width="41.4059px" height="51px" preserveAspectRatio="xMinYMin meet" x="540.359" y="-52"/>
<polygon fill="none" stroke="#3333cc" stroke-width="10" points="586.062,-52 536.062,-52 536.062,-1 586.062,-1 586.062,-52"/>
<text text-anchor="middle" x="561.062" y="-22.5" font-family="Times Roman,serif" font-size="15.00">Kevin De León</text>
</g>
<g id="7943" class="node">
<polygon fill="#ffffff" stroke="#cc3333" stroke-width="10" points="379.855,-546.155 301.855,-546.155 301.855,-467.155 379.855,-467.155 379.855,-546.155"/>
<image xlink:href="can_images/7943.jpg" width="64.1386px" height="79px" preserveAspectRatio="xMinYMin meet" x="308.785" y="-546.155"/>
<polygon fill="none" stroke="#cc3333" stroke-width="10" points="379.855,-546.155 301.855,-546.155 301.855,-467.155 379.855,-467.155 379.855,-546.155"/>
<text text-anchor="middle" x="340.855" y="-502.655" font-family="Times Roman,serif" font-size="15.00">Jean Fuller</text>
</g>
<g id="29851" class="node">
<ellipse fill="#ffffff" stroke="cadetblue" stroke-width="10" cx="308.481" cy="-201.147" rx="81" ry="81"/>
<image xlink:href="com_images/c127.png" width="162px" height="162px" preserveAspectRatio="xMinYMin meet" x="227.481" y="-282.147"/>
<ellipse fill="none" stroke="cadetblue" stroke-width="10" cx="308.481" cy="-201.147" rx="81" ry="81"/>
<text text-anchor="start" x="404.481" y="-197.147" font-family="Times Roman,serif" font-size="15.00">Southern California Edison</text>
</g>
</g>
</svg>
