<svg width="96000px" height="72775px"
  xmlns="http://www.w3.org/2000/svg" xmlns:xlink="http://www.w3.org/1999/xlink">
<g id="graph0" class="graph" transform="scale(50.792 50.792) rotate(0) translate(4 1428.8)">

<polygon id='svgscreen' style="opacity:0;" fill="#ffffff" stroke="#ffffff" points="-4,5 -4,-1428.8 1887.06,-1428.8 1887.06,5 -4,5"/>
<g id="8406_39485" class="edge">
<path fill="none" stroke="#999999" stroke-width="5.08413" d="M866.966,-1240.89C876.336,-1192.53 895.817,-1091.98 909.896,-1019.32"/>
<polygon fill="#999999" stroke="#999999" points="923.043,-1021.62 915.647,-989.633 896.838,-1016.55 923.043,-1021.62"/>
</g>
<g id="145304_289" class="edge">
<path fill="none" stroke="#999999" stroke-width="5.50481" d="M1094.12,-184.642C1073.89,-212.205 1039.22,-259.434 1007.55,-302.573"/>
<polygon fill="#999999" stroke="#999999" points="995.742,-294.245 989.639,-326.98 1019.04,-311.346 995.742,-294.245"/>
</g>
<g id="2231_4211" class="edge">
<path fill="none" stroke="#999999" stroke-width="6.34615" d="M61.1699,-599.943C115.916,-601.736 233.357,-605.581 313.499,-608.205"/>
<polygon fill="#999999" stroke="#999999" points="313.195,-624.863 343.724,-609.195 314.285,-591.563 313.195,-624.863"/>
</g>
<g id="4165_31946" class="edge">
<path fill="none" stroke="#999999" stroke-width="6.34615" d="M254.491,-105.821C282.719,-144.844 339.525,-223.375 384.616,-285.71"/>
<polygon fill="#999999" stroke="#999999" points="371.401,-295.863 402.481,-310.407 398.396,-276.336 371.401,-295.863"/>
</g>
<g id="4171_38670" class="edge">
<path fill="none" stroke="#999999" stroke-width="6.34615" d="M93.0756,-929.072C146.01,-911.499 260.386,-873.528 335.848,-848.477"/>
<polygon fill="#999999" stroke="#999999" points="341.099,-864.286 364.322,-839.024 330.602,-832.666 341.099,-864.286"/>
</g>
<g id="4165_951" class="edge">
<path fill="none" stroke="#999999" stroke-width="6.34615" d="M140.449,-293.863C187.654,-306.355 282.844,-331.545 355.218,-350.698"/>
<polygon fill="#999999" stroke="#999999" points="351.368,-366.911 384.632,-358.482 359.892,-334.703 351.368,-366.911"/>
</g>
<g id="8800_39474" class="edge">
<path fill="none" stroke="#999999" stroke-width="6.34615" d="M1764.81,-796.296C1724.57,-765.125 1642.51,-701.558 1586.44,-658.119"/>
<polygon fill="#999999" stroke="#999999" points="1596.3,-644.687 1562.38,-639.485 1575.9,-671.026 1596.3,-644.687"/>
</g>
<g id="145304_37852" class="edge">
<path fill="none" stroke="#999999" stroke-width="7.1875" d="M902.505,-62.9876C907.691,-114.041 918.255,-218.032 926.268,-296.914"/>
<polygon fill="#999999" stroke="#999999" points="907.503,-298.877 929.305,-326.817 945.044,-295.063 907.503,-298.877"/>
</g>
<g id="8406_30934" class="edge">
<path fill="none" stroke="#999999" stroke-width="8.02885" d="M1035.51,-1228.26C1017.92,-1181.03 982.814,-1086.77 957.127,-1017.79"/>
<polygon fill="#999999" stroke="#999999" points="976.822,-1010.29 946.601,-989.528 937.32,-1025 976.822,-1010.29"/>
</g>
<g id="8800_32624" class="edge">
<path fill="none" stroke="#999999" stroke-width="8.02885" d="M1819.62,-523.166C1767.85,-539.127 1660.55,-572.206 1591.6,-593.466"/>
<polygon fill="#999999" stroke="#999999" points="1584.98,-573.451 1562.52,-602.43 1597.4,-613.732 1584.98,-573.451"/>
</g>
<g id="2245_1737" class="edge">
<path fill="none" stroke="#999999" stroke-width="8.87019" d="M248.323,-1223.85C294.198,-1193.07 388.702,-1129.65 451.418,-1087.56"/>
<polygon fill="#999999" stroke="#999999" points="464.578,-1106.77 476.514,-1070.72 438.629,-1068.1 464.578,-1106.77"/>
</g>
<g id="3179_2841" class="edge">
<path fill="none" stroke="#999999" stroke-width="8.87019" d="M1629.68,-1113.68C1598.26,-1082.26 1541.03,-1025.03 1499.37,-983.373"/>
<polygon fill="#999999" stroke="#999999" points="1515.78,-966.847 1478.1,-962.098 1482.85,-999.776 1515.78,-966.847"/>
</g>
<g id="2229_168" class="edge">
<path fill="none" stroke="#999999" stroke-width="5.08413" d="M1323.74,-394.81C1359.82,-346.147 1437.78,-241.013 1484.86,-177.52"/>
<polygon fill="#999999" stroke="#999999" points="1495.78,-185.191 1502.93,-153.144 1474.34,-169.293 1495.78,-185.191"/>
</g>
<g id="8800_168" class="edge">
<path fill="none" stroke="#999999" stroke-width="6.09375" d="M1329.12,-442.296C1363.19,-471.51 1425.43,-524.884 1471.29,-564.201"/>
<polygon fill="#999999" stroke="#999999" points="1460.97,-576.43 1494.16,-583.815 1481.8,-552.144 1460.97,-576.43"/>
</g>
<g id="145304_168" class="edge">
<path fill="none" stroke="#999999" stroke-width="7.1875" d="M1272.32,-419.115C1220.87,-416.056 1117.53,-409.914 1039.03,-405.248"/>
<polygon fill="#999999" stroke="#999999" points="1040.07,-386.409 1009,-403.462 1037.83,-424.077 1040.07,-386.409"/>
</g>
<g id="145304_38177" class="edge">
<path fill="none" stroke="#999999" stroke-width="10.5529" d="M1067.04,-516.877C1056.82,-507.654 1044.35,-496.393 1031.21,-484.532"/>
<polygon fill="#999999" stroke="#999999" points="1049.59,-463.801 1008.76,-464.259 1012.46,-504.924 1049.59,-463.801"/>
</g>
<g id="4165_1677" class="edge">
<path fill="none" stroke="#999999" stroke-width="7.1875" d="M683.371,-224.283C648.97,-246.577 590.368,-284.554 540.461,-316.897"/>
<polygon fill="#999999" stroke="#999999" points="529.873,-301.275 514.959,-333.424 550.395,-332.942 529.873,-301.275"/>
</g>
<g id="145304_1677" class="edge">
<path fill="none" stroke="#999999" stroke-width="8.87019" d="M739.342,-228.232C764.76,-250.251 804.638,-284.797 841.91,-317.086"/>
<polygon fill="#999999" stroke="#999999" points="826.708,-334.722 864.628,-336.767 857.199,-299.525 826.708,-334.722"/>
</g>
<g id="8406_38371" class="edge">
<path fill="none" stroke="#999999" stroke-width="13.0769" d="M1166.83,-1125.33C1128.47,-1094.96 1058.8,-1039.82 1004.28,-996.654"/>
<polygon fill="#999999" stroke="#999999" points="1025.28,-969.503 980.456,-977.797 982.672,-1023.33 1025.28,-969.503"/>
</g>
<g id="2245_1991" class="edge">
<path fill="none" stroke="#999999" stroke-width="13.0769" d="M485.005,-1350.82C490.173,-1294.19 500.204,-1184.28 506.693,-1113.17"/>
<polygon fill="#999999" stroke="#999999" points="540.894,-1116.11 509.436,-1083.11 472.524,-1109.87 540.894,-1116.11"/>
</g>
<g id="145304_39357" class="edge">
<path fill="none" stroke="#999999" stroke-width="13.0769" d="M1027.2,-82.6837C1012.92,-132.577 986.299,-225.641 965.6,-297.988"/>
<polygon fill="#999999" stroke="#999999" points="932.537,-288.756 957.288,-327.041 998.543,-307.641 932.537,-288.756"/>
</g>
<g id="2229_39472" class="edge">
<path fill="none" stroke="#999999" stroke-width="6.34615" d="M1329.76,-303.353C1365.78,-270.287 1429.51,-211.785 1473.95,-170.987"/>
<polygon fill="#999999" stroke="#999999" points="1485.23,-183.246 1496.07,-150.687 1462.7,-158.703 1485.23,-183.246"/>
</g>
<g id="8800_39472" class="edge">
<path fill="none" stroke="#999999" stroke-width="9.71154" d="M1325.54,-358.005C1362.25,-404.195 1434.2,-494.72 1481.74,-554.54"/>
<polygon fill="#999999" stroke="#999999" points="1461.82,-570.453 1500.44,-578.078 1501.74,-538.731 1461.82,-570.453"/>
</g>
<g id="145304_39472" class="edge">
<path fill="none" stroke="#999999" stroke-width="8.02885" d="M1265.82,-335.664C1213.31,-345.794 1114.26,-364.901 1038.48,-379.52"/>
<polygon fill="#999999" stroke="#999999" points="1034.39,-358.845 1008.92,-385.222 1042.37,-400.233 1034.39,-358.845"/>
</g>
<g id="4165_39350" class="edge">
<path fill="none" stroke="#999999" stroke-width="13.0769" d="M647.292,-146.458C617.029,-181.573 567.61,-238.913 525.769,-287.461"/>
<polygon fill="#999999" stroke="#999999" points="499.538,-265.316 505.955,-310.451 551.543,-310.137 499.538,-265.316"/>
</g>
<g id="145304_39350" class="edge">
<path fill="none" stroke="#999999" stroke-width="13.0769" d="M704.628,-145.722C739.597,-183.918 799.747,-249.62 850.041,-304.555"/>
<polygon fill="#999999" stroke="#999999" points="824.956,-327.99 870.533,-326.938 875.594,-281.631 824.956,-327.99"/>
</g>
<g id="2231_5460" class="edge">
<path fill="none" stroke="#999999" stroke-width="21.4904" d="M628.196,-416.701C587.807,-450.463 522.214,-505.295 471.008,-548.099"/>
<polygon fill="#999999" stroke="#999999" points="434.756,-504.877 447.919,-567.399 507.117,-591.44 434.756,-504.877"/>
</g>
<g id="145304_5460" class="edge">
<path fill="none" stroke="#999999" stroke-width="13.0769" d="M713.572,-388.018C747.017,-389.689 792.83,-391.978 834.241,-394.046"/>
<polygon fill="#999999" stroke="#999999" points="832.746,-428.341 864.421,-395.554 836.171,-359.773 832.746,-428.341"/>
</g>
<g id="8800_671" class="edge">
<path fill="none" stroke="#999999" stroke-width="5" d="M1229.34,-691.359C1291.16,-675.154 1396.95,-647.42 1464.66,-629.667"/>
<polygon fill="#999999" stroke="#999999" points="1468.38,-642.263 1494.07,-621.959 1461.72,-616.871 1468.38,-642.263"/>
</g>
<g id="8406_671" class="edge">
<path fill="none" stroke="#999999" stroke-width="24.4351" d="M1141.84,-738.863C1105.2,-772.175 1048.68,-823.569 1002.7,-865.376"/>
<polygon fill="#999999" stroke="#999999" points="959.492,-817.973 980.448,-885.612 1045.8,-912.886 959.492,-817.973"/>
</g>
<g id="145304_671" class="edge">
<path fill="none" stroke="#999999" stroke-width="13.9183" d="M1148.01,-664.451C1113.88,-621.615 1058.43,-552.007 1012.88,-494.84"/>
<polygon fill="#999999" stroke="#999999" points="1041.33,-471.913 994.059,-471.215 984.177,-517.445 1041.33,-471.913"/>
</g>
<g id="4171_39514" class="edge">
<path fill="none" stroke="#999999" stroke-width="13.0769" d="M638.735,-664.416C591.534,-697.198 526.569,-742.317 477.662,-776.284"/>
<polygon fill="#999999" stroke="#999999" points="457.761,-748.312 452.702,-793.619 496.924,-804.7 457.761,-748.312"/>
</g>
<g id="2231_39514" class="edge">
<path fill="none" stroke="#999999" stroke-width="21.4904" d="M625.767,-618.786C581.04,-617.252 524.193,-615.303 478.22,-613.726"/>
<polygon fill="#999999" stroke="#999999" points="479.975,-557.341 448.059,-612.692 476.108,-670.099 479.975,-557.341"/>
</g>
<g id="8406_39514" class="edge">
<path fill="none" stroke="#999999" stroke-width="16.4423" d="M744.751,-682.554C780.303,-731.98 830.597,-801.902 869.23,-855.612"/>
<polygon fill="#999999" stroke="#999999" points="834.316,-880.988 886.872,-880.139 904.393,-830.582 834.316,-880.988"/>
</g>
<g id="4165_39514" class="edge">
<path fill="none" stroke="#999999" stroke-width="29.9038" d="M646.884,-568.659C614.761,-537.223 573.221,-496.57 536.558,-460.691"/>
<polygon fill="#999999" stroke="#999999" points="591.413,-404.541 515.069,-439.661 481.606,-516.746 591.413,-404.541"/>
</g>
<g id="145304_39514" class="edge">
<path fill="none" stroke="#999999" stroke-width="21.4904" d="M755.748,-569.543C781.572,-545.222 813.086,-515.541 842.533,-487.807"/>
<polygon fill="#999999" stroke="#999999" points="881.357,-528.735 864.519,-467.1 804.003,-446.602 881.357,-528.735"/>
</g>
<g id="2245_1137" class="edge">
<path fill="none" stroke="#999999" stroke-width="6.34615" d="M634.342,-785.58C607,-844.244 568.921,-925.942 542.707,-982.186"/>
<polygon fill="#999999" stroke="#999999" points="527.428,-975.534 529.853,-1009.76 557.626,-989.61 527.428,-975.534"/>
</g>
<g id="4171_1137" class="edge">
<path fill="none" stroke="#999999" stroke-width="22.3317" d="M594.496,-744.468C558.739,-759.825 515.955,-778.199 480.43,-793.456"/>
<polygon fill="#999999" stroke="#999999" points="457.043,-739.701 452.61,-805.403 503.308,-847.428 457.043,-739.701"/>
</g>
<g id="2231_1137" class="edge">
<path fill="none" stroke="#999999" stroke-width="13.0769" d="M593.118,-684.675C556.801,-671.091 513.182,-654.777 476.208,-640.948"/>
<polygon fill="#999999" stroke="#999999" points="488.066,-608.733 447.941,-630.375 464.015,-673.037 488.066,-608.733"/>
</g>
<g id="8406_1137" class="edge">
<path fill="none" stroke="#999999" stroke-width="8.87019" d="M729.083,-765.139C764.982,-796.045 810.767,-835.463 849.179,-868.534"/>
<polygon fill="#999999" stroke="#999999" points="834.063,-886.244 871.99,-888.172 864.446,-850.953 834.063,-886.244"/>
</g>
<g id="4165_1137" class="edge">
<path fill="none" stroke="#999999" stroke-width="40" d="M624.569,-645.381C591.286,-594.048 545.123,-522.852 508.587,-466.502"/>
<polygon fill="#999999" stroke="#999999" points="596.465,-409.033 492.042,-440.985 420.262,-523.281 596.465,-409.033"/>
</g>
<g id="145304_1137" class="edge">
<path fill="none" stroke="#999999" stroke-width="28.2212" d="M720.337,-651.943C758.586,-607.246 811.299,-545.648 855.112,-494.449"/>
<polygon fill="#999999" stroke="#999999" points="911.628,-542.345 874.849,-471.386 799.059,-446.013 911.628,-542.345"/>
</g>
<g id="39485" class="node">
<ellipse fill="#ffffff" stroke="cadetblue" stroke-width="10" cx="861.501" cy="-1269.1" rx="28" ry="28.5"/>
<image xlink:href="com_images/cunknown_coal_co.png" width="56px" height="56px" preserveAspectRatio="xMinYMin meet" x="833.501" y="-1297.1"/>
<ellipse fill="none" stroke="cadetblue" stroke-width="10" cx="861.501" cy="-1269.1" rx="28" ry="28.5"/>
<text text-anchor="start" x="904.501" y="-1265.1" font-family="Times Roman,serif" font-size="15.00">PACKIN COAL</text>
</g>
<g id="289" class="node">
<ellipse fill="#ffffff" stroke="cadetblue" stroke-width="10" cx="1111.53" cy="-160.929" rx="29" ry="29"/>
<image xlink:href="com_images/cunknown_oil_co.png" width="58px" height="58px" preserveAspectRatio="xMinYMin meet" x="1082.53" y="-189.929"/>
<ellipse fill="none" stroke="cadetblue" stroke-width="10" cx="1111.53" cy="-160.929" rx="29" ry="29"/>
<text text-anchor="start" x="1155.53" y="-156.929" font-family="Times Roman,serif" font-size="15.00">Arctic Slope Regional</text>
</g>
<g id="4211" class="node">
<ellipse fill="#ffffff" stroke="cadetblue" stroke-width="10" cx="31" cy="-598.955" rx="30" ry="30"/>
<image xlink:href="com_images/cunknown_oil_co.png" width="60px" height="60px" preserveAspectRatio="xMinYMin meet" x="1" y="-628.955"/>
<ellipse fill="none" stroke="cadetblue" stroke-width="10" cx="31" cy="-598.955" rx="30" ry="30"/>
<text text-anchor="start" x="76" y="-594.955" font-family="Times Roman,serif" font-size="15.00">Peak Oilfield Service</text>
</g>
<g id="31946" class="node">
<ellipse fill="#ffffff" stroke="cadetblue" stroke-width="10" cx="236.894" cy="-81.4941" rx="30" ry="30"/>
<image xlink:href="com_images/c31946.png" width="60px" height="60px" preserveAspectRatio="xMinYMin meet" x="206.894" y="-111.494"/>
<ellipse fill="none" stroke="cadetblue" stroke-width="10" cx="236.894" cy="-81.4941" rx="30" ry="30"/>
<text text-anchor="start" x="281.894" y="-77.4941" font-family="Times Roman,serif" font-size="15.00">NANA Regional Corp</text>
</g>
<g id="38670" class="node">
<ellipse fill="#ffffff" stroke="cadetblue" stroke-width="10" cx="64.3332" cy="-938.614" rx="30" ry="30"/>
<image xlink:href="com_images/cunknown_oil_co.png" width="60px" height="60px" preserveAspectRatio="xMinYMin meet" x="34.3332" y="-968.614"/>
<ellipse fill="none" stroke="cadetblue" stroke-width="10" cx="64.3332" cy="-938.614" rx="30" ry="30"/>
<text text-anchor="start" x="109.3332" y="-934.614" font-family="Times Roman,serif" font-size="15.00">SELF EMPLOYED</text>
</g>
<g id="951" class="node">
<ellipse fill="#ffffff" stroke="cadetblue" stroke-width="10" cx="111.303" cy="-286.15" rx="30" ry="30"/>
<image xlink:href="com_images/c951.png" width="60px" height="60px" preserveAspectRatio="xMinYMin meet" x="81.3028" y="-316.15"/>
<ellipse fill="none" stroke="cadetblue" stroke-width="10" cx="111.303" cy="-286.15" rx="30" ry="30"/>
<text text-anchor="start" x="156.303" y="-282.15" font-family="Times Roman,serif" font-size="15.00">Chevron Corp</text>
</g>
<g id="39474" class="node">
<ellipse fill="#ffffff" stroke="cadetblue" stroke-width="10" cx="1788.87" cy="-814.93" rx="30" ry="30"/>
<image xlink:href="com_images/cunknown_oil_co.png" width="60px" height="60px" preserveAspectRatio="xMinYMin meet" x="1758.87" y="-844.93"/>
<ellipse fill="none" stroke="cadetblue" stroke-width="10" cx="1788.87" cy="-814.93" rx="30" ry="30"/>
<text text-anchor="start" x="1833.87" y="-810.93" font-family="Times Roman,serif" font-size="15.00">NINESTAR ENTERPRISES</text>
</g>
<g id="2229" class="node">
<polygon fill="#ffffff" stroke="#3333cc" stroke-width="10" points="1550.27,-152.715 1496.27,-152.715 1496.27,-98.7147 1550.27,-98.7147 1550.27,-152.715"/>
<image xlink:href="can_images/2229.jpg" width="40.32px" height="54px" preserveAspectRatio="xMinYMin meet" x="1503.11" y="-152.715"/>
<polygon fill="none" stroke="#3333cc" stroke-width="10" points="1550.27,-152.715 1496.27,-152.715 1496.27,-98.7147 1550.27,-98.7147 1550.27,-152.715"/>
<text text-anchor="middle" x="1523.27" y="-121.715" font-family="Times Roman,serif" font-size="15.00">Johnny Ellis</text>
</g>
<g id="37852" class="node">
<ellipse fill="#ffffff" stroke="cadetblue" stroke-width="10" cx="899.357" cy="-32" rx="31" ry="31"/>
<image xlink:href="com_images/cunknown_oil_co.png" width="62px" height="62px" preserveAspectRatio="xMinYMin meet" x="868.357" y="-63"/>
<ellipse fill="none" stroke="cadetblue" stroke-width="10" cx="899.357" cy="-32" rx="31" ry="31"/>
<text text-anchor="start" x="945.357" y="-28" font-family="Times Roman,serif" font-size="15.00">HOMEMAKER</text>
</g>
<g id="30934" class="node">
<ellipse fill="#ffffff" stroke="cadetblue" stroke-width="10" cx="1046.5" cy="-1257.77" rx="31" ry="31.5"/>
<image xlink:href="com_images/cunknown_coal_co.png" width="62px" height="62px" preserveAspectRatio="xMinYMin meet" x="1015.5" y="-1288.77"/>
<ellipse fill="none" stroke="cadetblue" stroke-width="10" cx="1046.5" cy="-1257.77" rx="31" ry="31.5"/>
<text text-anchor="start" x="1092.5" y="-1253.77" font-family="Times Roman,serif" font-size="15.00">Doyon Limited</text>
</g>
<g id="32624" class="node">
<ellipse fill="#ffffff" stroke="cadetblue" stroke-width="10" cx="1849.56" cy="-513.935" rx="31" ry="31.5"/>
<image xlink:href="com_images/cunknown_oil_co.png" width="62px" height="62px" preserveAspectRatio="xMinYMin meet" x="1818.56" y="-544.935"/>
<ellipse fill="none" stroke="cadetblue" stroke-width="10" cx="1849.56" cy="-513.935" rx="31" ry="31.5"/>
<text text-anchor="start" x="1895.56" y="-509.935" font-family="Times Roman,serif" font-size="15.00">Chugach Electric Assn</text>
</g>
<g id="1737" class="node">
<ellipse fill="#ffffff" stroke="cadetblue" stroke-width="10" cx="221.435" cy="-1241.9" rx="32" ry="32.5"/>
<image xlink:href="com_images/c28.png" width="64px" height="64px" preserveAspectRatio="xMinYMin meet" x="189.435" y="-1273.9"/>
<ellipse fill="none" stroke="cadetblue" stroke-width="10" cx="221.435" cy="-1241.9" rx="32" ry="32.5"/>
<text text-anchor="start" x="268.435" y="-1237.9" font-family="Times Roman,serif" font-size="15.00">Exxon Mobil</text>
</g>
<g id="2841" class="node">
<ellipse fill="#ffffff" stroke="cadetblue" stroke-width="10" cx="1652.65" cy="-1136.65" rx="32" ry="32.5"/>
<image xlink:href="com_images/c48.png" width="64px" height="64px" preserveAspectRatio="xMinYMin meet" x="1620.65" y="-1168.65"/>
<ellipse fill="none" stroke="cadetblue" stroke-width="10" cx="1652.65" cy="-1136.65" rx="32" ry="32.5"/>
<text text-anchor="start" x="1699.65" y="-1132.65" font-family="Times Roman,serif" font-size="15.00">Koch Industries</text>
</g>
<g id="3179" class="node">
<polygon fill="#ffffff" stroke="#cc3333" stroke-width="10" points="1478,-962 1420,-962 1420,-904 1478,-904 1478,-962"/>
<image xlink:href="can_images/3179.jpg" width="43.3067px" height="58px" preserveAspectRatio="xMinYMin meet" x="1427.35" y="-962"/>
<polygon fill="none" stroke="#cc3333" stroke-width="10" points="1478,-962 1420,-962 1420,-904 1478,-904 1478,-962"/>
<text text-anchor="middle" x="1449" y="-929" font-family="Times Roman,serif" font-size="15.00">John Coghill</text>
</g>
<g id="168" class="node">
<ellipse fill="#ffffff" stroke="cadetblue" stroke-width="10" cx="1304.31" cy="-421.016" rx="32" ry="32.5"/>
<image xlink:href="com_images/cunknown_oil_co.png" width="64px" height="64px" preserveAspectRatio="xMinYMin meet" x="1272.31" y="-453.016"/>
<ellipse fill="none" stroke="cadetblue" stroke-width="10" cx="1304.31" cy="-421.016" rx="32" ry="32.5"/>
<text text-anchor="start" x="1351.31" y="-417.016" font-family="Times Roman,serif" font-size="15.00">Alyeska Pipeline Service Co</text>
</g>
<g id="38177" class="node">
<ellipse fill="#ffffff" stroke="cadetblue" stroke-width="10" cx="1092.41" cy="-539.784" rx="34" ry="34"/>
<image xlink:href="com_images/cunknown_oil_co.png" width="68px" height="68px" preserveAspectRatio="xMinYMin meet" x="1058.41" y="-573.784"/>
<ellipse fill="none" stroke="cadetblue" stroke-width="10" cx="1092.41" cy="-539.784" rx="34" ry="34"/>
<text text-anchor="start" x="1141.41" y="-535.784" font-family="Times Roman,serif" font-size="15.00">N/A</text>
</g>
<g id="1677" class="node">
<ellipse fill="#ffffff" stroke="cadetblue" stroke-width="10" cx="712.782" cy="-205.223" rx="35" ry="35"/>
<image xlink:href="com_images/c1677.png" width="70px" height="70px" preserveAspectRatio="xMinYMin meet" x="677.782" y="-240.223"/>
<ellipse fill="none" stroke="cadetblue" stroke-width="10" cx="712.782" cy="-205.223" rx="35" ry="35"/>
<text text-anchor="start" x="762.782" y="-201.223" font-family="Times Roman,serif" font-size="15.00">Enstar Natural Gas</text>
</g>
<g id="38371" class="node">
<ellipse fill="#ffffff" stroke="cadetblue" stroke-width="10" cx="1195.37" cy="-1147.93" rx="36" ry="36.5"/>
<image xlink:href="com_images/cunknown_oil_co.png" width="72px" height="72px" preserveAspectRatio="xMinYMin meet" x="1159.37" y="-1183.93"/>
<ellipse fill="none" stroke="cadetblue" stroke-width="10" cx="1195.37" cy="-1147.93" rx="36" ry="36.5"/>
<text text-anchor="start" x="1246.37" y="-1143.93" font-family="Times Roman,serif" font-size="15.00">OWNER</text>
</g>
<g id="1991" class="node">
<ellipse fill="#ffffff" stroke="cadetblue" stroke-width="10" cx="481.675" cy="-1387.3" rx="36" ry="36.5"/>
<image xlink:href="com_images/cunknown_oil_co.png" width="72px" height="72px" preserveAspectRatio="xMinYMin meet" x="445.675" y="-1423.3"/>
<ellipse fill="none" stroke="cadetblue" stroke-width="10" cx="481.675" cy="-1387.3" rx="36" ry="36.5"/>
<text text-anchor="start" x="532.675" y="-1383.3" font-family="Times Roman,serif" font-size="15.00">Gas Station Operator</text>
</g>
<g id="39357" class="node">
<ellipse fill="#ffffff" stroke="cadetblue" stroke-width="10" cx="1037.31" cy="-47.3387" rx="36" ry="36.5"/>
<image xlink:href="com_images/cunknown_oil_co.png" width="72px" height="72px" preserveAspectRatio="xMinYMin meet" x="1001.31" y="-83.3387"/>
<ellipse fill="none" stroke="cadetblue" stroke-width="10" cx="1037.31" cy="-47.3387" rx="36" ry="36.5"/>
<text text-anchor="start" x="1088.31" y="-43.3387" font-family="Times Roman,serif" font-size="15.00">HAWK CONSULTANTS</text>
</g>
<g id="39472" class="node">
<ellipse fill="#ffffff" stroke="cadetblue" stroke-width="10" cx="1302.21" cy="-328.644" rx="37" ry="37.5"/>
<image xlink:href="com_images/cunknown_oil_co.png" width="74px" height="74px" preserveAspectRatio="xMinYMin meet" x="1265.21" y="-365.644"/>
<ellipse fill="none" stroke="cadetblue" stroke-width="10" cx="1302.21" cy="-328.644" rx="37" ry="37.5"/>
<text text-anchor="start" x="1354.21" y="-324.644" font-family="Times Roman,serif" font-size="15.00">NINE STAR ENTERPRISES</text>
</g>
<g id="8800" class="node">
<polygon fill="#ffffff" stroke="#3333cc" stroke-width="10" points="1562.2,-647.509 1494.2,-647.509 1494.2,-578.509 1562.2,-578.509 1562.2,-647.509"/>
<image xlink:href="can_images/8800.jpg" width="51.52px" height="69px" preserveAspectRatio="xMinYMin meet" x="1502.44" y="-647.509"/>
<polygon fill="none" stroke="#3333cc" stroke-width="10" points="1562.2,-647.509 1494.2,-647.509 1494.2,-578.509 1562.2,-578.509 1562.2,-647.509"/>
<text text-anchor="middle" x="1528.2" y="-609.009" font-family="Times Roman,serif" font-size="15.00">Bill Wielechowski</text>
</g>
<g id="2245" class="node">
<polygon fill="#ffffff" stroke="#3333cc" stroke-width="10" points="548.789,-1082.88 476.789,-1082.88 476.789,-1009.88 548.789,-1009.88 548.789,-1082.88"/>
<image xlink:href="can_images/2245.jpg" width="54.5067px" height="73px" preserveAspectRatio="xMinYMin meet" x="485.535" y="-1082.88"/>
<polygon fill="none" stroke="#3333cc" stroke-width="10" points="548.789,-1082.88 476.789,-1082.88 476.789,-1009.88 548.789,-1009.88 548.789,-1082.88"/>
<text text-anchor="middle" x="512.789" y="-1042.38" font-family="Times Roman,serif" font-size="15.00">Dennis Egan</text>
</g>
<g id="39350" class="node">
<ellipse fill="#ffffff" stroke="cadetblue" stroke-width="10" cx="675.422" cy="-113.82" rx="43" ry="43"/>
<image xlink:href="com_images/c39350.png" width="86px" height="86px" preserveAspectRatio="xMinYMin meet" x="632.422" y="-156.82"/>
<ellipse fill="none" stroke="cadetblue" stroke-width="10" cx="675.422" cy="-113.82" rx="43" ry="43"/>
<text text-anchor="start" x="733.422" y="-109.82" font-family="Times Roman,serif" font-size="15.00">CONAM CONSTRUCTION</text>
</g>
<g id="5460" class="node">
<ellipse fill="#ffffff" stroke="cadetblue" stroke-width="10" cx="665.387" cy="-385.612" rx="48" ry="48.5"/>
<image xlink:href="com_images/c185.png" width="96px" height="96px" preserveAspectRatio="xMinYMin meet" x="617.387" y="-433.612"/>
<ellipse fill="none" stroke="cadetblue" stroke-width="10" cx="665.387" cy="-385.612" rx="48" ry="48.5"/>
<text text-anchor="start" x="728.387" y="-381.612" font-family="Times Roman,serif" font-size="15.00">Tesoro Petroleum</text>
</g>
<g id="4171" class="node">
<polygon fill="#ffffff" stroke="#cc3333" stroke-width="10" points="452.391,-868.894 364.391,-868.894 364.391,-779.894 452.391,-779.894 452.391,-868.894"/>
<image xlink:href="can_images/4171.jpg" width="62.3px" height="89px" preserveAspectRatio="xMinYMin meet" x="377.241" y="-868.894"/>
<polygon fill="none" stroke="#cc3333" stroke-width="10" points="452.391,-868.894 364.391,-868.894 364.391,-779.894 452.391,-779.894 452.391,-868.894"/>
<text text-anchor="middle" x="408.391" y="-820.394" font-family="Times Roman,serif" font-size="15.00">Charlie Huggins</text>
</g>
<g id="671" class="node">
<ellipse fill="#ffffff" stroke="cadetblue" stroke-width="10" cx="1179.8" cy="-704.349" rx="51" ry="51"/>
<image xlink:href="com_images/c671.png" width="102px" height="102px" preserveAspectRatio="xMinYMin meet" x="1128.8" y="-755.349"/>
<ellipse fill="none" stroke="cadetblue" stroke-width="10" cx="1179.8" cy="-704.349" rx="51" ry="51"/>
<text text-anchor="start" x="1245.8" y="-700.349" font-family="Times Roman,serif" font-size="15.00">BP</text>
</g>
<g id="2231" class="node">
<polygon fill="#ffffff" stroke="#3333cc" stroke-width="10" points="447.878,-663.402 343.878,-663.402 343.878,-558.402 447.878,-558.402 447.878,-663.402"/>
<image xlink:href="can_images/2231.jpg" width="78.4px" height="105px" preserveAspectRatio="xMinYMin meet" x="356.678" y="-663.402"/>
<polygon fill="none" stroke="#3333cc" stroke-width="10" points="447.878,-663.402 343.878,-663.402 343.878,-558.402 447.878,-558.402 447.878,-663.402"/>
<text text-anchor="middle" x="395.878" y="-606.902" font-family="Times Roman,serif" font-size="15.00">Lyman Hoffman</text>
</g>
<g id="8406" class="node">
<polygon fill="#ffffff" stroke="#3333cc" stroke-width="10" points="980.253,-989.39 872.253,-989.39 872.253,-880.39 980.253,-880.39 980.253,-989.39"/>
<image xlink:href="can_images/8406.jpg" width="79.2727px" height="109px" preserveAspectRatio="xMinYMin meet" x="886.617" y="-989.39"/>
<polygon fill="none" stroke="#3333cc" stroke-width="10" points="980.253,-989.39 872.253,-989.39 872.253,-880.39 980.253,-880.39 980.253,-989.39"/>
<text text-anchor="middle" x="926.253" y="-930.89" font-family="Times Roman,serif" font-size="15.00">Joe Thomas</text>
</g>
<g id="4165" class="node">
<polygon fill="#ffffff" stroke="#cc3333" stroke-width="10" points="514.716,-440.705 384.716,-440.705 384.716,-310.705 514.716,-310.705 514.716,-440.705"/>
<polygon fill="none" stroke="#cc3333" stroke-width="10" points="514.716,-440.705 384.716,-440.705 384.716,-310.705 514.716,-310.705 514.716,-440.705"/>
<text text-anchor="middle" x="449.716" y="-371.705" font-family="Times Roman,serif" font-size="15.00">Lesil McGuire</text>
</g>
<g id="39514" class="node">
<ellipse fill="#ffffff" stroke="cadetblue" stroke-width="10" cx="700.733" cy="-621.357" rx="75" ry="75.5"/>
<image xlink:href="com_images/c39514.png" width="150px" height="150px" preserveAspectRatio="xMinYMin meet" x="625.733" y="-696.357"/>
<ellipse fill="none" stroke="cadetblue" stroke-width="10" cx="700.733" cy="-621.357" rx="75" ry="75.5"/>
<text text-anchor="start" x="790.733" y="-617.357" font-family="Times Roman,serif" font-size="15.00">UDELHOVEN OIL</text>
</g>
<g id="1137" class="node">
<ellipse fill="#ffffff" stroke="cadetblue" stroke-width="10" cx="668.272" cy="-712.784" rx="80" ry="80"/>
<image xlink:href="com_images/c92.png" width="160px" height="160px" preserveAspectRatio="xMinYMin meet" x="588.272" y="-792.784"/>
<ellipse fill="none" stroke="cadetblue" stroke-width="10" cx="668.272" cy="-712.784" rx="80" ry="80"/>
<text text-anchor="start" x="763.272" y="-708.784" font-family="Times Roman,serif" font-size="15.00">ConocoPhillips</text>
</g>
<g id="145304" class="node">
<polygon fill="#ffffff" stroke="#cc3333" stroke-width="10" points="1008.65,-471.162 864.654,-471.162 864.654,-327.162 1008.65,-327.162 1008.65,-471.162"/>
<image xlink:href="can_images/145304.jpg" width="116.911px" height="144px" preserveAspectRatio="xMinYMin meet" x="878.199" y="-471.162"/>
<polygon fill="none" stroke="#cc3333" stroke-width="10" points="1008.65,-471.162 864.654,-471.162 864.654,-327.162 1008.65,-327.162 1008.65,-471.162"/>
<text text-anchor="middle" x="936.654" y="-395.162" font-family="Times Roman,serif" font-size="15.00">Cathy Giessel</text>
</g>
</g>
</svg>
