<svg width="351px" height="286.7085px"
  xmlns="http://www.w3.org/2000/svg" xmlns:xlink="http://www.w3.org/1999/xlink">
<g id="graph0" class="graph" transform="scale(0.184360921875 0.184360921875) rotate(0) translate(4 1551.15)">

<polygon id='svgscreen' style="opacity:0;" fill="#ffffff" stroke="#ffffff" points="-4,5 -4,-1551.15 1900.87,-1551.15 1900.87,5 -4,5"/>
<g id="8406_39485" class="edge">
<path fill="none" stroke="#999999" stroke-width="5.08413" d="M966.218,-1312.06C974.414,-1262.65 991.6,-1159.03 1003.9,-1084.87"/>
<polygon fill="#999999" stroke="#999999" points="1017.09,-1086.92 1008.83,-1055.14 990.755,-1082.55 1017.09,-1086.92"/>
</g>
<g id="145304_289" class="edge">
<path fill="none" stroke="#999999" stroke-width="5.50481" d="M874.419,-138.453C879.006,-188.85 888.627,-294.569 895.9,-374.485"/>
<polygon fill="#999999" stroke="#999999" points="881.521,-375.921 898.631,-404.488 910.302,-373.301 881.521,-375.921"/>
</g>
<g id="4165_31946" class="edge">
<path fill="none" stroke="#999999" stroke-width="6.34615" d="M1666.63,-220.979C1623.67,-241.799 1538.01,-283.31 1471.25,-315.663"/>
<polygon fill="#999999" stroke="#999999" points="1463.71,-300.807 1443.98,-328.881 1478.24,-330.789 1463.71,-300.807"/>
</g>
<g id="4171_38670" class="edge">
<path fill="none" stroke="#999999" stroke-width="6.34615" d="M1834.81,-834.401C1779.07,-827.391 1658.17,-812.187 1579.27,-802.266"/>
<polygon fill="#999999" stroke="#999999" points="1581.18,-785.716 1549.33,-798.501 1577.02,-818.773 1581.18,-785.716"/>
</g>
<g id="8800_39474" class="edge">
<path fill="none" stroke="#999999" stroke-width="6.34615" d="M60.9677,-766.309C114.833,-772.157 229.117,-784.566 301.309,-792.404"/>
<polygon fill="#999999" stroke="#999999" points="299.526,-808.966 331.149,-795.643 303.122,-775.844 299.526,-808.966"/>
</g>
<g id="2231_4211" class="edge">
<path fill="none" stroke="#999999" stroke-width="6.34615" d="M1802.63,-505.911C1749.48,-518.155 1635.74,-544.359 1557.63,-562.355"/>
<polygon fill="#999999" stroke="#999999" points="1553.87,-546.125 1528.38,-569.094 1561.35,-578.592 1553.87,-546.125"/>
</g>
<g id="4165_951" class="edge">
<path fill="none" stroke="#999999" stroke-width="6.34615" d="M1518.84,-58.2438C1497.78,-103.673 1454.57,-196.913 1421.67,-267.889"/>
<polygon fill="#999999" stroke="#999999" points="1406.47,-261.07 1408.97,-295.294 1436.7,-275.08 1406.47,-261.07"/>
</g>
<g id="145304_37852" class="edge">
<path fill="none" stroke="#999999" stroke-width="7.1875" d="M753.208,-178.155C775.468,-221.878 819.711,-308.779 854.749,-377.6"/>
<polygon fill="#999999" stroke="#999999" points="837.959,-386.207 868.384,-404.382 871.586,-369.087 837.959,-386.207"/>
</g>
<g id="8406_30934" class="edge">
<path fill="none" stroke="#999999" stroke-width="8.02885" d="M1133.42,-1286.92C1114.85,-1240.91 1078.27,-1150.27 1051.22,-1083.24"/>
<polygon fill="#999999" stroke="#999999" points="1070.7,-1075.19 1039.93,-1055.26 1031.61,-1090.96 1070.7,-1075.19"/>
</g>
<g id="8800_32624" class="edge">
<path fill="none" stroke="#999999" stroke-width="8.02885" d="M168.636,-1023.27C202.046,-985.242 268.5,-909.611 314.885,-856.821"/>
<polygon fill="#999999" stroke="#999999" points="330.928,-870.493 334.897,-834.045 299.263,-842.67 330.928,-870.493"/>
</g>
<g id="3179_2841" class="edge">
<path fill="none" stroke="#999999" stroke-width="8.87019" d="M722.682,-1490.68C691.261,-1459.26 634.026,-1402.03 592.373,-1360.37"/>
<polygon fill="#999999" stroke="#999999" points="608.776,-1343.85 571.098,-1339.1 575.847,-1376.78 608.776,-1343.85"/>
</g>
<g id="2245_1737" class="edge">
<path fill="none" stroke="#999999" stroke-width="8.87019" d="M1739.91,-1153.5C1688,-1131.84 1579.46,-1086.55 1509.68,-1057.44"/>
<polygon fill="#999999" stroke="#999999" points="1518.21,-1035.76 1481.55,-1045.7 1500.27,-1078.74 1518.21,-1035.76"/>
</g>
<g id="2229_168" class="edge">
<path fill="none" stroke="#999999" stroke-width="5.08413" d="M505.141,-459.994C463.223,-434.256 383.181,-385.11 330.002,-352.458"/>
<polygon fill="#999999" stroke="#999999" points="336.859,-341.007 304.31,-336.683 322.893,-363.754 336.859,-341.007"/>
</g>
<g id="8800_168" class="edge">
<path fill="none" stroke="#999999" stroke-width="6.09375" d="M517.973,-505.979C490.973,-557.888 433.692,-668.015 397.501,-737.593"/>
<polygon fill="#999999" stroke="#999999" points="383.084,-730.646 383.432,-764.642 411.467,-745.408 383.084,-730.646"/>
</g>
<g id="145304_168" class="edge">
<path fill="none" stroke="#999999" stroke-width="7.1875" d="M565.052,-477.062C617.28,-477.007 722.911,-476.895 802.682,-476.81"/>
<polygon fill="#999999" stroke="#999999" points="802.917,-495.677 832.896,-476.778 802.876,-457.942 802.917,-495.677"/>
</g>
<g id="145304_38177" class="edge">
<path fill="none" stroke="#999999" stroke-width="10.5529" d="M799.743,-617.486C809.158,-604.916 820.944,-589.182 833.195,-572.828"/>
<polygon fill="#999999" stroke="#999999" points="855.438,-589.339 851.253,-548.721 811.097,-556.123 855.438,-589.339"/>
</g>
<g id="4165_1677" class="edge">
<path fill="none" stroke="#999999" stroke-width="7.1875" d="M1121.39,-256.744C1160.94,-272.689 1229.22,-300.212 1285.51,-322.903"/>
<polygon fill="#999999" stroke="#999999" points="1278.76,-340.525 1313.64,-334.243 1292.87,-305.527 1278.76,-340.525"/>
</g>
<g id="145304_1677" class="edge">
<path fill="none" stroke="#999999" stroke-width="8.87019" d="M1066.91,-271.218C1045.59,-298.301 1011.87,-341.149 980.729,-380.726"/>
<polygon fill="#999999" stroke="#999999" points="962.31,-366.481 962.055,-404.456 998.906,-395.28 962.31,-366.481"/>
</g>
<g id="145304_39357" class="edge">
<path fill="none" stroke="#999999" stroke-width="13.0769" d="M715.559,-301.391C739.565,-323.583 776.129,-357.383 810.766,-389.402"/>
<polygon fill="#999999" stroke="#999999" points="787.768,-414.889 833.099,-410.047 834.371,-364.476 787.768,-414.889"/>
</g>
<g id="8406_38371" class="edge">
<path fill="none" stroke="#999999" stroke-width="13.0769" d="M818.316,-1233.22C849.806,-1196.51 906.436,-1130.5 951.346,-1078.15"/>
<polygon fill="#999999" stroke="#999999" points="977.543,-1100.34 971.023,-1055.22 925.436,-1055.63 977.543,-1100.34"/>
</g>
<g id="2245_1991" class="edge">
<path fill="none" stroke="#999999" stroke-width="13.0769" d="M1531.9,-1323.8C1515.95,-1269.64 1485.07,-1164.84 1464.89,-1096.34"/>
<polygon fill="#999999" stroke="#999999" points="1497.74,-1086.38 1456.34,-1067.3 1431.89,-1105.78 1497.74,-1086.38"/>
</g>
<g id="2229_39472" class="edge">
<path fill="none" stroke="#999999" stroke-width="6.34615" d="M521.023,-543.04C475.514,-501.414 383.918,-417.632 326.878,-365.458"/>
<polygon fill="#999999" stroke="#999999" points="337.814,-352.886 304.435,-344.93 315.328,-377.47 337.814,-352.886"/>
</g>
<g id="8800_39472" class="edge">
<path fill="none" stroke="#999999" stroke-width="9.71154" d="M525.33,-597.474C496.823,-633.454 447.776,-695.357 411.489,-741.156"/>
<polygon fill="#999999" stroke="#999999" points="391.503,-725.33 392.854,-764.676 431.466,-756.993 391.503,-725.33"/>
</g>
<g id="145304_39472" class="edge">
<path fill="none" stroke="#999999" stroke-width="8.02885" d="M584.689,-558.92C635.554,-545.872 730.206,-521.592 803.516,-502.786"/>
<polygon fill="#999999" stroke="#999999" points="809.112,-523.108 832.934,-495.239 798.638,-482.279 809.112,-523.108"/>
</g>
<g id="4165_39350" class="edge">
<path fill="none" stroke="#999999" stroke-width="13.0769" d="M1140.56,-173.141C1177.74,-202.385 1238.91,-250.494 1289.94,-290.637"/>
<polygon fill="#999999" stroke="#999999" points="1268.86,-317.729 1313.67,-309.295 1311.31,-263.767 1268.86,-317.729"/>
</g>
<g id="145304_39350" class="edge">
<path fill="none" stroke="#999999" stroke-width="13.0769" d="M1084.13,-183.388C1055.52,-230.281 1005.07,-312.994 965.01,-378.656"/>
<polygon fill="#999999" stroke="#999999" points="935.449,-361.201 949.131,-404.688 994.059,-396.953 935.449,-361.201"/>
</g>
<g id="2231_5460" class="edge">
<path fill="none" stroke="#999999" stroke-width="21.4904" d="M1211,-435.188C1259.04,-461.612 1338.3,-505.212 1397.7,-537.883"/>
<polygon fill="#999999" stroke="#999999" points="1370.75,-587.441 1424.23,-552.471 1425.13,-488.584 1370.75,-587.441"/>
</g>
<g id="145304_5460" class="edge">
<path fill="none" stroke="#999999" stroke-width="13.0769" d="M1121.75,-423.353C1089.84,-431.215 1046.32,-441.936 1006.67,-451.705"/>
<polygon fill="#999999" stroke="#999999" points="998.269,-418.42 977.351,-458.927 1014.69,-485.081 998.269,-418.42"/>
</g>
<g id="8800_671" class="edge">
<path fill="none" stroke="#999999" stroke-width="5" d="M673.715,-819.42C609.606,-815.249 499.651,-808.096 429.836,-803.553"/>
<polygon fill="#999999" stroke="#999999" points="430.386,-790.436 399.597,-801.586 428.681,-816.631 430.386,-790.436"/>
</g>
<g id="8406_671" class="edge">
<path fill="none" stroke="#999999" stroke-width="24.4351" d="M768.706,-849.373C813.335,-876.46 883.499,-919.045 938.015,-952.133"/>
<polygon fill="#999999" stroke="#999999" points="904.798,-1007 963.724,-967.736 971.358,-897.337 904.798,-1007"/>
</g>
<g id="145304_671" class="edge">
<path fill="none" stroke="#999999" stroke-width="13.9183" d="M748.415,-777.507C775.002,-726.497 819.04,-642.009 853.686,-575.539"/>
<polygon fill="#999999" stroke="#999999" points="886.173,-592.256 867.64,-548.766 821.376,-558.482 886.173,-592.256"/>
</g>
<g id="4171_39514" class="edge">
<path fill="none" stroke="#999999" stroke-width="13.0769" d="M1248.29,-680.101C1302.64,-703.985 1378.12,-737.155 1433.17,-761.347"/>
<polygon fill="#999999" stroke="#999999" points="1419.73,-792.938 1461.01,-773.581 1447.35,-730.085 1419.73,-792.938"/>
</g>
<g id="2231_39514" class="edge">
<path fill="none" stroke="#999999" stroke-width="21.4904" d="M1252.62,-632.766C1295.79,-622.791 1350.46,-610.163 1394.94,-599.888"/>
<polygon fill="#999999" stroke="#999999" points="1407.65,-654.85 1424.18,-593.132 1382.25,-544.921 1407.65,-654.85"/>
</g>
<g id="8406_39514" class="edge">
<path fill="none" stroke="#999999" stroke-width="16.4423" d="M1147.5,-718.634C1121.15,-775.962 1083.56,-857.718 1055.64,-918.446"/>
<polygon fill="#999999" stroke="#999999" points="1016.31,-900.667 1043,-945.953 1094.75,-936.724 1016.31,-900.667"/>
</g>
<g id="4165_39514" class="edge">
<path fill="none" stroke="#999999" stroke-width="29.9038" d="M1221.99,-587.682C1249.58,-547.695 1285.91,-495.043 1316.65,-450.495"/>
<polygon fill="#999999" stroke="#999999" points="1381.33,-494.972 1333.76,-425.699 1252.11,-405.811 1381.33,-494.972"/>
</g>
<g id="145304_39514" class="edge">
<path fill="none" stroke="#999999" stroke-width="21.4904" d="M1115.64,-609.6C1082.19,-588.48 1040.46,-562.124 1003,-538.464"/>
<polygon fill="#999999" stroke="#999999" points="1033.08,-490.74 977.59,-522.417 972.833,-586.133 1033.08,-490.74"/>
</g>
<g id="2245_1137" class="edge">
<path fill="none" stroke="#999999" stroke-width="6.34615" d="M1276.01,-798.11C1313.17,-849.093 1364.56,-919.583 1400.99,-969.562"/>
<polygon fill="#999999" stroke="#999999" points="1387.64,-979.523 1418.77,-993.952 1414.56,-959.896 1387.64,-979.523"/>
</g>
<g id="4171_1137" class="edge">
<path fill="none" stroke="#999999" stroke-width="22.3317" d="M1307.14,-750.152C1346.13,-758.581 1392.98,-768.708 1431.31,-776.993"/>
<polygon fill="#999999" stroke="#999999" points="1419.12,-834.333 1460.83,-783.374 1443.89,-719.738 1419.12,-834.333"/>
</g>
<g id="2231_1137" class="edge">
<path fill="none" stroke="#999999" stroke-width="13.0769" d="M1296.99,-691.23C1328.3,-671.996 1365.59,-649.093 1398.02,-629.168"/>
<polygon fill="#999999" stroke="#999999" points="1416.29,-658.23 1423.89,-613.278 1380.36,-599.732 1416.29,-658.23"/>
</g>
<g id="8406_1137" class="edge">
<path fill="none" stroke="#999999" stroke-width="8.87019" d="M1178.99,-796.227C1149.36,-833.821 1111.47,-881.875 1079.89,-921.941"/>
<polygon fill="#999999" stroke="#999999" points="1061.45,-907.715 1061.16,-945.69 1098.02,-936.546 1061.45,-907.715"/>
</g>
<g id="4165_1137" class="edge">
<path fill="none" stroke="#999999" stroke-width="40" d="M1258.69,-658.667C1282.45,-599.666 1315.76,-516.934 1341.27,-453.578"/>
<polygon fill="#999999" stroke="#999999" points="1438.75,-492.595 1352.56,-425.547 1243.95,-414.158 1438.75,-492.595"/>
</g>
<g id="145304_1137" class="edge">
<path fill="none" stroke="#999999" stroke-width="28.2212" d="M1165.93,-683.435C1119.09,-646.293 1054.25,-594.879 1000.95,-552.617"/>
<polygon fill="#999999" stroke="#999999" points="1046.91,-494.519 977.375,-533.927 954.856,-610.614 1046.91,-494.519"/>
</g>
<g id="39485" class="node">
<ellipse fill="#ffffff" stroke="cadetblue" stroke-width="10" cx="961.509" cy="-1340.45" rx="28" ry="28.5"/>
<image xlink:href="com_images/cunknown_coal_co.png" width="56px" height="56px" preserveAspectRatio="xMinYMin meet" x="933.509" y="-1368.45"/>
<ellipse fill="none" stroke="cadetblue" stroke-width="10" cx="961.509" cy="-1340.45" rx="28" ry="28.5"/>
<text text-anchor="start" x="1004.509" y="-1336.45" font-family="Times Roman,serif" font-size="15.00">PACKIN COAL</text>
</g>
<g id="289" class="node">
<ellipse fill="#ffffff" stroke="cadetblue" stroke-width="10" cx="871.767" cy="-109.318" rx="29" ry="29"/>
<image xlink:href="com_images/cunknown_oil_co.png" width="58px" height="58px" preserveAspectRatio="xMinYMin meet" x="842.767" y="-138.318"/>
<ellipse fill="none" stroke="cadetblue" stroke-width="10" cx="871.767" cy="-109.318" rx="29" ry="29"/>
<text text-anchor="start" x="915.767" y="-105.318" font-family="Times Roman,serif" font-size="15.00">Arctic Slope Regional</text>
</g>
<g id="31946" class="node">
<ellipse fill="#ffffff" stroke="cadetblue" stroke-width="10" cx="1693.76" cy="-207.832" rx="30" ry="30"/>
<image xlink:href="com_images/c31946.png" width="60px" height="60px" preserveAspectRatio="xMinYMin meet" x="1663.76" y="-237.832"/>
<ellipse fill="none" stroke="cadetblue" stroke-width="10" cx="1693.76" cy="-207.832" rx="30" ry="30"/>
<text text-anchor="start" x="1738.76" y="-203.832" font-family="Times Roman,serif" font-size="15.00">NANA Regional Corp</text>
</g>
<g id="38670" class="node">
<ellipse fill="#ffffff" stroke="cadetblue" stroke-width="10" cx="1864.87" cy="-838.182" rx="30" ry="30"/>
<image xlink:href="com_images/cunknown_oil_co.png" width="60px" height="60px" preserveAspectRatio="xMinYMin meet" x="1834.87" y="-868.182"/>
<ellipse fill="none" stroke="cadetblue" stroke-width="10" cx="1864.87" cy="-838.182" rx="30" ry="30"/>
<text text-anchor="start" x="1909.87" y="-834.182" font-family="Times Roman,serif" font-size="15.00">SELF EMPLOYED</text>
</g>
<g id="39474" class="node">
<ellipse fill="#ffffff" stroke="cadetblue" stroke-width="10" cx="31" cy="-763.055" rx="30" ry="30"/>
<image xlink:href="com_images/cunknown_oil_co.png" width="60px" height="60px" preserveAspectRatio="xMinYMin meet" x="1" y="-793.055"/>
<ellipse fill="none" stroke="cadetblue" stroke-width="10" cx="31" cy="-763.055" rx="30" ry="30"/>
<text text-anchor="start" x="76" y="-759.055" font-family="Times Roman,serif" font-size="15.00">NINESTAR ENTERPRISES</text>
</g>
<g id="4211" class="node">
<ellipse fill="#ffffff" stroke="cadetblue" stroke-width="10" cx="1832.05" cy="-499.134" rx="30" ry="30"/>
<image xlink:href="com_images/cunknown_oil_co.png" width="60px" height="60px" preserveAspectRatio="xMinYMin meet" x="1802.05" y="-529.134"/>
<ellipse fill="none" stroke="cadetblue" stroke-width="10" cx="1832.05" cy="-499.134" rx="30" ry="30"/>
<text text-anchor="start" x="1877.05" y="-495.134" font-family="Times Roman,serif" font-size="15.00">Peak Oilfield Service</text>
</g>
<g id="951" class="node">
<ellipse fill="#ffffff" stroke="cadetblue" stroke-width="10" cx="1531.46" cy="-31" rx="30" ry="30"/>
<image xlink:href="com_images/c98.png" width="60px" height="60px" preserveAspectRatio="xMinYMin meet" x="1501.46" y="-61"/>
<ellipse fill="none" stroke="cadetblue" stroke-width="10" cx="1531.46" cy="-31" rx="30" ry="30"/>
<text text-anchor="start" x="1576.46" y="-27" font-family="Times Roman,serif" font-size="15.00">Chevron Corp</text>
</g>
<g id="2229" class="node">
<polygon fill="#ffffff" stroke="#3333cc" stroke-width="10" points="304.262,-347.075 250.262,-347.075 250.262,-293.075 304.262,-293.075 304.262,-347.075"/>
<image xlink:href="can_images/2229.jpg" width="40.32px" height="54px" preserveAspectRatio="xMinYMin meet" x="257.102" y="-347.075"/>
<polygon fill="none" stroke="#3333cc" stroke-width="10" points="304.262,-347.075 250.262,-347.075 250.262,-293.075 304.262,-293.075 304.262,-347.075"/>
<text text-anchor="middle" x="277.262" y="-316.075" font-family="Times Roman,serif" font-size="15.00">Johnny Ellis</text>
</g>
<g id="37852" class="node">
<ellipse fill="#ffffff" stroke="cadetblue" stroke-width="10" cx="739.041" cy="-150.328" rx="31" ry="31"/>
<image xlink:href="com_images/cunknown_oil_co.png" width="62px" height="62px" preserveAspectRatio="xMinYMin meet" x="708.041" y="-181.328"/>
<ellipse fill="none" stroke="cadetblue" stroke-width="10" cx="739.041" cy="-150.328" rx="31" ry="31"/>
<text text-anchor="start" x="785.041" y="-146.328" font-family="Times Roman,serif" font-size="15.00">HOMEMAKER</text>
</g>
<g id="30934" class="node">
<ellipse fill="#ffffff" stroke="cadetblue" stroke-width="10" cx="1145.29" cy="-1316.34" rx="31" ry="31.5"/>
<image xlink:href="com_images/cunknown_coal_co.png" width="62px" height="62px" preserveAspectRatio="xMinYMin meet" x="1114.29" y="-1347.34"/>
<ellipse fill="none" stroke="cadetblue" stroke-width="10" cx="1145.29" cy="-1316.34" rx="31" ry="31.5"/>
<text text-anchor="start" x="1191.29" y="-1312.34" font-family="Times Roman,serif" font-size="15.00">Doyon Limited</text>
</g>
<g id="32624" class="node">
<ellipse fill="#ffffff" stroke="cadetblue" stroke-width="10" cx="147.771" cy="-1047.01" rx="31" ry="31.5"/>
<image xlink:href="com_images/cunknown_oil_co.png" width="62px" height="62px" preserveAspectRatio="xMinYMin meet" x="116.771" y="-1078.01"/>
<ellipse fill="none" stroke="cadetblue" stroke-width="10" cx="147.771" cy="-1047.01" rx="31" ry="31.5"/>
<text text-anchor="start" x="193.771" y="-1043.01" font-family="Times Roman,serif" font-size="15.00">Chugach Electric Assn</text>
</g>
<g id="2841" class="node">
<ellipse fill="#ffffff" stroke="cadetblue" stroke-width="10" cx="745.647" cy="-1513.65" rx="32" ry="32.5"/>
<image xlink:href="com_images/c48.png" width="64px" height="64px" preserveAspectRatio="xMinYMin meet" x="713.647" y="-1545.65"/>
<ellipse fill="none" stroke="cadetblue" stroke-width="10" cx="745.647" cy="-1513.65" rx="32" ry="32.5"/>
<text text-anchor="start" x="792.647" y="-1509.65" font-family="Times Roman,serif" font-size="15.00">Koch Industries</text>
</g>
<g id="1737" class="node">
<ellipse fill="#ffffff" stroke="cadetblue" stroke-width="10" cx="1769.52" cy="-1165.85" rx="32" ry="32.5"/>
<image xlink:href="com_images/c28.png" width="64px" height="64px" preserveAspectRatio="xMinYMin meet" x="1737.52" y="-1197.85"/>
<ellipse fill="none" stroke="cadetblue" stroke-width="10" cx="1769.52" cy="-1165.85" rx="32" ry="32.5"/>
<text text-anchor="start" x="1816.52" y="-1161.85" font-family="Times Roman,serif" font-size="15.00">Exxon Mobil</text>
</g>
<g id="3179" class="node">
<polygon fill="#ffffff" stroke="#cc3333" stroke-width="10" points="571,-1339 513,-1339 513,-1281 571,-1281 571,-1339"/>
<image xlink:href="can_images/3179.jpg" width="43.3067px" height="58px" preserveAspectRatio="xMinYMin meet" x="520.347" y="-1339"/>
<polygon fill="none" stroke="#cc3333" stroke-width="10" points="571,-1339 513,-1339 513,-1281 571,-1281 571,-1339"/>
<text text-anchor="middle" x="542" y="-1306" font-family="Times Roman,serif" font-size="15.00">John Coghill</text>
</g>
<g id="168" class="node">
<ellipse fill="#ffffff" stroke="cadetblue" stroke-width="10" cx="532.996" cy="-477.097" rx="32" ry="32.5"/>
<image xlink:href="com_images/cunknown_oil_co.png" width="64px" height="64px" preserveAspectRatio="xMinYMin meet" x="500.996" y="-509.097"/>
<ellipse fill="none" stroke="cadetblue" stroke-width="10" cx="532.996" cy="-477.097" rx="32" ry="32.5"/>
<text text-anchor="start" x="579.996" y="-473.097" font-family="Times Roman,serif" font-size="15.00">Alyeska Pipeline Service Co</text>
</g>
<g id="38177" class="node">
<ellipse fill="#ffffff" stroke="cadetblue" stroke-width="10" cx="779.221" cy="-644.881" rx="34" ry="34"/>
<image xlink:href="com_images/cunknown_oil_co.png" width="68px" height="68px" preserveAspectRatio="xMinYMin meet" x="745.221" y="-678.881"/>
<ellipse fill="none" stroke="cadetblue" stroke-width="10" cx="779.221" cy="-644.881" rx="34" ry="34"/>
<text text-anchor="start" x="828.221" y="-640.881" font-family="Times Roman,serif" font-size="15.00">N/A</text>
</g>
<g id="1677" class="node">
<ellipse fill="#ffffff" stroke="cadetblue" stroke-width="10" cx="1088.67" cy="-243.558" rx="35" ry="35"/>
<image xlink:href="com_images/c1677.png" width="70px" height="70px" preserveAspectRatio="xMinYMin meet" x="1053.67" y="-278.558"/>
<ellipse fill="none" stroke="cadetblue" stroke-width="10" cx="1088.67" cy="-243.558" rx="35" ry="35"/>
<text text-anchor="start" x="1138.67" y="-239.558" font-family="Times Roman,serif" font-size="15.00">Enstar Natural Gas</text>
</g>
<g id="39357" class="node">
<ellipse fill="#ffffff" stroke="cadetblue" stroke-width="10" cx="688.559" cy="-276.432" rx="36" ry="36.5"/>
<image xlink:href="com_images/cunknown_oil_co.png" width="72px" height="72px" preserveAspectRatio="xMinYMin meet" x="652.559" y="-312.432"/>
<ellipse fill="none" stroke="cadetblue" stroke-width="10" cx="688.559" cy="-276.432" rx="36" ry="36.5"/>
<text text-anchor="start" x="739.559" y="-272.432" font-family="Times Roman,serif" font-size="15.00">HAWK CONSULTANTS</text>
</g>
<g id="38371" class="node">
<ellipse fill="#ffffff" stroke="cadetblue" stroke-width="10" cx="794.4" cy="-1261.1" rx="36" ry="36.5"/>
<image xlink:href="com_images/cunknown_oil_co.png" width="72px" height="72px" preserveAspectRatio="xMinYMin meet" x="758.4" y="-1297.1"/>
<ellipse fill="none" stroke="cadetblue" stroke-width="10" cx="794.4" cy="-1261.1" rx="36" ry="36.5"/>
<text text-anchor="start" x="845.4" y="-1257.1" font-family="Times Roman,serif" font-size="15.00">OWNER</text>
</g>
<g id="1991" class="node">
<ellipse fill="#ffffff" stroke="cadetblue" stroke-width="10" cx="1542.25" cy="-1358.93" rx="36" ry="36.5"/>
<image xlink:href="com_images/cunknown_oil_co.png" width="72px" height="72px" preserveAspectRatio="xMinYMin meet" x="1506.25" y="-1394.93"/>
<ellipse fill="none" stroke="cadetblue" stroke-width="10" cx="1542.25" cy="-1358.93" rx="36" ry="36.5"/>
<text text-anchor="start" x="1593.25" y="-1354.93" font-family="Times Roman,serif" font-size="15.00">Gas Station Operator</text>
</g>
<g id="39472" class="node">
<ellipse fill="#ffffff" stroke="cadetblue" stroke-width="10" cx="548.526" cy="-568.197" rx="37" ry="37.5"/>
<image xlink:href="com_images/cunknown_oil_co.png" width="74px" height="74px" preserveAspectRatio="xMinYMin meet" x="511.526" y="-605.197"/>
<ellipse fill="none" stroke="cadetblue" stroke-width="10" cx="548.526" cy="-568.197" rx="37" ry="37.5"/>
<text text-anchor="start" x="600.526" y="-564.197" font-family="Times Roman,serif" font-size="15.00">NINE STAR ENTERPRISES</text>
</g>
<g id="8800" class="node">
<polygon fill="#ffffff" stroke="#3333cc" stroke-width="10" points="399.374,-833.859 331.374,-833.859 331.374,-764.859 399.374,-764.859 399.374,-833.859"/>
<image xlink:href="can_images/8800.jpg" width="51.52px" height="69px" preserveAspectRatio="xMinYMin meet" x="339.614" y="-833.859"/>
<polygon fill="none" stroke="#3333cc" stroke-width="10" points="399.374,-833.859 331.374,-833.859 331.374,-764.859 399.374,-764.859 399.374,-833.859"/>
<text text-anchor="middle" x="365.374" y="-795.359" font-family="Times Roman,serif" font-size="15.00">Bill Wielechowski</text>
</g>
<g id="2245" class="node">
<polygon fill="#ffffff" stroke="#3333cc" stroke-width="10" points="1481.55,-1067.18 1409.55,-1067.18 1409.55,-994.178 1481.55,-994.178 1481.55,-1067.18"/>
<image xlink:href="can_images/2245.jpg" width="54.5067px" height="73px" preserveAspectRatio="xMinYMin meet" x="1418.29" y="-1067.18"/>
<polygon fill="none" stroke="#3333cc" stroke-width="10" points="1481.55,-1067.18 1409.55,-1067.18 1409.55,-994.178 1481.55,-994.178 1481.55,-1067.18"/>
<text text-anchor="middle" x="1445.55" y="-1026.68" font-family="Times Roman,serif" font-size="15.00">Dennis Egan</text>
</g>
<g id="39350" class="node">
<ellipse fill="#ffffff" stroke="cadetblue" stroke-width="10" cx="1106.65" cy="-146.468" rx="43" ry="43"/>
<image xlink:href="com_images/c39350.png" width="86px" height="86px" preserveAspectRatio="xMinYMin meet" x="1063.65" y="-189.468"/>
<ellipse fill="none" stroke="cadetblue" stroke-width="10" cx="1106.65" cy="-146.468" rx="43" ry="43"/>
<text text-anchor="start" x="1164.65" y="-142.468" font-family="Times Roman,serif" font-size="15.00">CONAM CONSTRUCTION</text>
</g>
<g id="5460" class="node">
<ellipse fill="#ffffff" stroke="cadetblue" stroke-width="10" cx="1168.53" cy="-411.83" rx="48" ry="48.5"/>
<image xlink:href="com_images/c185.png" width="96px" height="96px" preserveAspectRatio="xMinYMin meet" x="1120.53" y="-459.83"/>
<ellipse fill="none" stroke="cadetblue" stroke-width="10" cx="1168.53" cy="-411.83" rx="48" ry="48.5"/>
<text text-anchor="start" x="1231.53" y="-407.83" font-family="Times Roman,serif" font-size="15.00">Tesoro Petroleum</text>
</g>
<g id="4171" class="node">
<polygon fill="#ffffff" stroke="#cc3333" stroke-width="10" points="1549.04,-837.431 1461.04,-837.431 1461.04,-748.431 1549.04,-748.431 1549.04,-837.431"/>
<image xlink:href="can_images/4171.jpg" width="62.3px" height="89px" preserveAspectRatio="xMinYMin meet" x="1473.89" y="-837.431"/>
<polygon fill="none" stroke="#cc3333" stroke-width="10" points="1549.04,-837.431 1461.04,-837.431 1461.04,-748.431 1549.04,-748.431 1549.04,-837.431"/>
<text text-anchor="middle" x="1505.04" y="-788.931" font-family="Times Roman,serif" font-size="15.00">Charlie Huggins</text>
</g>
<g id="671" class="node">
<ellipse fill="#ffffff" stroke="cadetblue" stroke-width="10" cx="724.835" cy="-822.746" rx="51" ry="51"/>
<image xlink:href="com_images/c70.png" width="102px" height="102px" preserveAspectRatio="xMinYMin meet" x="673.835" y="-873.746"/>
<ellipse fill="none" stroke="cadetblue" stroke-width="10" cx="724.835" cy="-822.746" rx="51" ry="51"/>
<text text-anchor="start" x="790.835" y="-818.746" font-family="Times Roman,serif" font-size="15.00">BP</text>
</g>
<g id="2231" class="node">
<polygon fill="#ffffff" stroke="#3333cc" stroke-width="10" points="1528.27,-633.597 1424.27,-633.597 1424.27,-528.597 1528.27,-528.597 1528.27,-633.597"/>
<image xlink:href="can_images/2231.jpg" width="78.4px" height="105px" preserveAspectRatio="xMinYMin meet" x="1437.07" y="-633.597"/>
<polygon fill="none" stroke="#3333cc" stroke-width="10" points="1528.27,-633.597 1424.27,-633.597 1424.27,-528.597 1528.27,-528.597 1528.27,-633.597"/>
<text text-anchor="middle" x="1476.27" y="-577.097" font-family="Times Roman,serif" font-size="15.00">Lyman Hoffman</text>
</g>
<g id="8406" class="node">
<polygon fill="#ffffff" stroke="#3333cc" stroke-width="10" points="1071.88,-1055.1 963.875,-1055.1 963.875,-946.102 1071.88,-946.102 1071.88,-1055.1"/>
<image xlink:href="can_images/8406.jpg" width="79.2727px" height="109px" preserveAspectRatio="xMinYMin meet" x="978.239" y="-1055.1"/>
<polygon fill="none" stroke="#3333cc" stroke-width="10" points="1071.88,-1055.1 963.875,-1055.1 963.875,-946.102 1071.88,-946.102 1071.88,-1055.1"/>
<text text-anchor="middle" x="1017.88" y="-996.602" font-family="Times Roman,serif" font-size="15.00">Joe Thomas</text>
</g>
<g id="4165" class="node">
<polygon fill="#ffffff" stroke="#cc3333" stroke-width="10" points="1443.75,-425.489 1313.75,-425.489 1313.75,-295.489 1443.75,-295.489 1443.75,-425.489"/>
<polygon fill="none" stroke="#cc3333" stroke-width="10" points="1443.75,-425.489 1313.75,-425.489 1313.75,-295.489 1443.75,-295.489 1443.75,-425.489"/>
<text text-anchor="middle" x="1378.75" y="-356.489" font-family="Times Roman,serif" font-size="15.00">Lesil McGuire</text>
</g>
<g id="39514" class="node">
<ellipse fill="#ffffff" stroke="cadetblue" stroke-width="10" cx="1179.18" cy="-649.732" rx="75" ry="75.5"/>
<image xlink:href="com_images/c39514.png" width="150px" height="150px" preserveAspectRatio="xMinYMin meet" x="1104.18" y="-724.732"/>
<ellipse fill="none" stroke="cadetblue" stroke-width="10" cx="1179.18" cy="-649.732" rx="75" ry="75.5"/>
<text text-anchor="start" x="1269.18" y="-645.732" font-family="Times Roman,serif" font-size="15.00">UDELHOVEN OIL</text>
</g>
<g id="1137" class="node">
<ellipse fill="#ffffff" stroke="cadetblue" stroke-width="10" cx="1228.68" cy="-733.194" rx="80" ry="80"/>
<image xlink:href="com_images/c92.png" width="160px" height="160px" preserveAspectRatio="xMinYMin meet" x="1148.68" y="-813.194"/>
<ellipse fill="none" stroke="cadetblue" stroke-width="10" cx="1228.68" cy="-733.194" rx="80" ry="80"/>
<text text-anchor="start" x="1323.68" y="-729.194" font-family="Times Roman,serif" font-size="15.00">ConocoPhillips</text>
</g>
<g id="145304" class="node">
<polygon fill="#ffffff" stroke="#cc3333" stroke-width="10" points="977.203,-548.701 833.203,-548.701 833.203,-404.701 977.203,-404.701 977.203,-548.701"/>
<image xlink:href="can_images/145304.jpg" width="116.911px" height="144px" preserveAspectRatio="xMinYMin meet" x="846.747" y="-548.701"/>
<polygon fill="none" stroke="#cc3333" stroke-width="10" points="977.203,-548.701 833.203,-548.701 833.203,-404.701 977.203,-404.701 977.203,-548.701"/>
<text text-anchor="middle" x="905.203" y="-472.701" font-family="Times Roman,serif" font-size="15.00">Cathy Giessel</text>
</g>
</g>
</svg>
